G04 #@! TF.GenerationSoftware,KiCad,Pcbnew,(5.1.6)-1*
G04 #@! TF.CreationDate,2021-04-29T20:16:03-05:00*
G04 #@! TF.ProjectId,BEncoderBoard3(3),42456e63-6f64-4657-9242-6f6172643328,rev?*
G04 #@! TF.SameCoordinates,Original*
G04 #@! TF.FileFunction,Soldermask,Bot*
G04 #@! TF.FilePolarity,Negative*
%FSLAX46Y46*%
G04 Gerber Fmt 4.6, Leading zero omitted, Abs format (unit mm)*
G04 Created by KiCad (PCBNEW (5.1.6)-1) date 2021-04-29 20:16:03*
%MOMM*%
%LPD*%
G01*
G04 APERTURE LIST*
%ADD10C,0.100000*%
G04 APERTURE END LIST*
D10*
G36*
X146523710Y-96167070D02*
G01*
X147215447Y-96453597D01*
X147215448Y-96453598D01*
X147837996Y-96869571D01*
X148367429Y-97399004D01*
X148645374Y-97814978D01*
X148783403Y-98021553D01*
X149069930Y-98713290D01*
X149216000Y-99447633D01*
X149216000Y-100196367D01*
X149069930Y-100930710D01*
X148783403Y-101622447D01*
X148783402Y-101622448D01*
X148367429Y-102244996D01*
X147837996Y-102774429D01*
X147422022Y-103052374D01*
X147215447Y-103190403D01*
X146523710Y-103476930D01*
X145789367Y-103623000D01*
X145040633Y-103623000D01*
X144306290Y-103476930D01*
X143614553Y-103190403D01*
X143407978Y-103052374D01*
X142992004Y-102774429D01*
X142462571Y-102244996D01*
X142046598Y-101622448D01*
X142046597Y-101622447D01*
X141760070Y-100930710D01*
X141614000Y-100196367D01*
X141614000Y-99447633D01*
X141760070Y-98713290D01*
X142046597Y-98021553D01*
X142184626Y-97814978D01*
X142462571Y-97399004D01*
X142992004Y-96869571D01*
X143614552Y-96453598D01*
X143614553Y-96453597D01*
X144306290Y-96167070D01*
X145040633Y-96021000D01*
X145789367Y-96021000D01*
X146523710Y-96167070D01*
G37*
G36*
X122647710Y-96167070D02*
G01*
X123339447Y-96453597D01*
X123339448Y-96453598D01*
X123961996Y-96869571D01*
X124491429Y-97399004D01*
X124769374Y-97814978D01*
X124907403Y-98021553D01*
X125193930Y-98713290D01*
X125340000Y-99447633D01*
X125340000Y-100196367D01*
X125193930Y-100930710D01*
X124907403Y-101622447D01*
X124907402Y-101622448D01*
X124491429Y-102244996D01*
X123961996Y-102774429D01*
X123546022Y-103052374D01*
X123339447Y-103190403D01*
X122647710Y-103476930D01*
X121913367Y-103623000D01*
X121164633Y-103623000D01*
X120430290Y-103476930D01*
X119738553Y-103190403D01*
X119531978Y-103052374D01*
X119116004Y-102774429D01*
X118586571Y-102244996D01*
X118170598Y-101622448D01*
X118170597Y-101622447D01*
X117884070Y-100930710D01*
X117738000Y-100196367D01*
X117738000Y-99447633D01*
X117884070Y-98713290D01*
X118170597Y-98021553D01*
X118308626Y-97814978D01*
X118586571Y-97399004D01*
X119116004Y-96869571D01*
X119738552Y-96453598D01*
X119738553Y-96453597D01*
X120430290Y-96167070D01*
X121164633Y-96021000D01*
X121913367Y-96021000D01*
X122647710Y-96167070D01*
G37*
M02*
