G04 #@! TF.GenerationSoftware,KiCad,Pcbnew,(5.1.4)-1*
G04 #@! TF.CreationDate,2020-01-10T19:44:08-06:00*
G04 #@! TF.ProjectId,SensorsBoard,53656e73-6f72-4734-926f-6172642e6b69,rev?*
G04 #@! TF.SameCoordinates,Original*
G04 #@! TF.FileFunction,Profile,NP*
%FSLAX46Y46*%
G04 Gerber Fmt 4.6, Leading zero omitted, Abs format (unit mm)*
G04 Created by KiCad (PCBNEW (5.1.4)-1) date 2020-01-10 19:44:08*
%MOMM*%
%LPD*%
G04 APERTURE LIST*
%ADD10C,0.150000*%
G04 APERTURE END LIST*
D10*
X230174800Y-108102400D02*
X230174800Y-112115600D01*
X220776800Y-112115600D02*
X220776800Y-125780800D01*
X220776800Y-108102400D02*
X218262200Y-108102400D01*
X220776800Y-94437200D02*
X220776800Y-108102400D01*
X230174800Y-125780800D02*
X230174800Y-112115600D01*
X230174800Y-108102400D02*
X230174800Y-94437200D01*
X220776800Y-112115600D02*
X218262200Y-112115600D01*
X230174800Y-94437200D02*
X220776800Y-94437200D01*
X220776800Y-125780800D02*
X230174800Y-125780800D01*
X208864200Y-112115600D02*
X208864200Y-125780800D01*
X208864200Y-108102400D02*
X206349600Y-108102400D01*
X208864200Y-94437200D02*
X208864200Y-108102400D01*
X218262200Y-125780800D02*
X218262200Y-112115600D01*
X218262200Y-108102400D02*
X218262200Y-94437200D01*
X208864200Y-112115600D02*
X206349600Y-112115600D01*
X218262200Y-94437200D02*
X208864200Y-94437200D01*
X208864200Y-125780800D02*
X218262200Y-125780800D01*
X196951600Y-112115600D02*
X196951600Y-125780800D01*
X196951600Y-108102400D02*
X194437000Y-108102400D01*
X196951600Y-94437200D02*
X196951600Y-108102400D01*
X206349600Y-125780800D02*
X206349600Y-112115600D01*
X206349600Y-108102400D02*
X206349600Y-94437200D01*
X196951600Y-112115600D02*
X194437000Y-112115600D01*
X206349600Y-94437200D02*
X196951600Y-94437200D01*
X196951600Y-125780800D02*
X206349600Y-125780800D01*
X185039000Y-112115600D02*
X182524400Y-112115600D01*
X185039000Y-108102400D02*
X182524400Y-108102400D01*
X194437000Y-108102400D02*
X194437000Y-94437200D01*
X185039000Y-94437200D02*
X185039000Y-108102400D01*
X194437000Y-94437200D02*
X185039000Y-94437200D01*
X194437000Y-125780800D02*
X194437000Y-112115600D01*
X185039000Y-112115600D02*
X185039000Y-125780800D01*
X185039000Y-125780800D02*
X194437000Y-125780800D01*
X173126400Y-112115600D02*
X173126400Y-108102400D01*
X173126400Y-94437200D02*
X173126400Y-108102400D01*
X182524400Y-108102400D02*
X182524400Y-94437200D01*
X182524400Y-94437200D02*
X173126400Y-94437200D01*
X173126400Y-125780800D02*
X182524400Y-125780800D01*
X173126400Y-112115600D02*
X173126400Y-125780800D01*
X182524400Y-125780800D02*
X182524400Y-112115600D01*
M02*
