G04 #@! TF.GenerationSoftware,KiCad,Pcbnew,5.1.6+dfsg1-1~bpo10+1*
G04 #@! TF.CreationDate,2020-07-21T13:46:26-05:00*
G04 #@! TF.ProjectId,SensorsBoard,53656e73-6f72-4734-926f-6172642e6b69,rev?*
G04 #@! TF.SameCoordinates,Original*
G04 #@! TF.FileFunction,Soldermask,Top*
G04 #@! TF.FilePolarity,Negative*
%FSLAX46Y46*%
G04 Gerber Fmt 4.6, Leading zero omitted, Abs format (unit mm)*
G04 Created by KiCad (PCBNEW 5.1.6+dfsg1-1~bpo10+1) date 2020-07-21 13:46:26*
%MOMM*%
%LPD*%
G01*
G04 APERTURE LIST*
%ADD10C,0.100000*%
G04 APERTURE END LIST*
D10*
G36*
X175551400Y-124649800D02*
G01*
X173749400Y-124649800D01*
X173749400Y-122847800D01*
X175551400Y-122847800D01*
X175551400Y-124649800D01*
G37*
G36*
X182002401Y-124649800D02*
G01*
X180200401Y-124649800D01*
X180200401Y-122847800D01*
X182002401Y-122847800D01*
X182002401Y-124649800D01*
G37*
G36*
X182002401Y-121018799D02*
G01*
X180200401Y-121018799D01*
X180200401Y-119216799D01*
X182002401Y-119216799D01*
X182002401Y-121018799D01*
G37*
G36*
X175551400Y-121018799D02*
G01*
X173749400Y-121018799D01*
X173749400Y-119216799D01*
X175551400Y-119216799D01*
X175551400Y-121018799D01*
G37*
G36*
X181459588Y-115505924D02*
G01*
X181630656Y-115576783D01*
X181630658Y-115576784D01*
X181708159Y-115628569D01*
X181784615Y-115679655D01*
X181915547Y-115810587D01*
X182018419Y-115964546D01*
X182089278Y-116135614D01*
X182125401Y-116317218D01*
X182125401Y-116502384D01*
X182089278Y-116683988D01*
X182018419Y-116855056D01*
X182018418Y-116855058D01*
X181915546Y-117009016D01*
X181784616Y-117139946D01*
X181630658Y-117242818D01*
X181630657Y-117242819D01*
X181630656Y-117242819D01*
X181459588Y-117313678D01*
X181277984Y-117349801D01*
X181092818Y-117349801D01*
X180911214Y-117313678D01*
X180740146Y-117242819D01*
X180740145Y-117242819D01*
X180740144Y-117242818D01*
X180586186Y-117139946D01*
X180455256Y-117009016D01*
X180352384Y-116855058D01*
X180352383Y-116855056D01*
X180281524Y-116683988D01*
X180245401Y-116502384D01*
X180245401Y-116317218D01*
X180281524Y-116135614D01*
X180352383Y-115964546D01*
X180455255Y-115810587D01*
X180586187Y-115679655D01*
X180662643Y-115628569D01*
X180740144Y-115576784D01*
X180740146Y-115576783D01*
X180911214Y-115505924D01*
X181092818Y-115469801D01*
X181277984Y-115469801D01*
X181459588Y-115505924D01*
G37*
G36*
X174759588Y-115505924D02*
G01*
X174930656Y-115576783D01*
X174930658Y-115576784D01*
X175008159Y-115628569D01*
X175084615Y-115679655D01*
X175215547Y-115810587D01*
X175318419Y-115964546D01*
X175389278Y-116135614D01*
X175425401Y-116317218D01*
X175425401Y-116502384D01*
X175389278Y-116683988D01*
X175318419Y-116855056D01*
X175318418Y-116855058D01*
X175215546Y-117009016D01*
X175084616Y-117139946D01*
X174930658Y-117242818D01*
X174930657Y-117242819D01*
X174930656Y-117242819D01*
X174759588Y-117313678D01*
X174577984Y-117349801D01*
X174392818Y-117349801D01*
X174211214Y-117313678D01*
X174040146Y-117242819D01*
X174040145Y-117242819D01*
X174040144Y-117242818D01*
X173886186Y-117139946D01*
X173755256Y-117009016D01*
X173652384Y-116855058D01*
X173652383Y-116855056D01*
X173581524Y-116683988D01*
X173545401Y-116502384D01*
X173545401Y-116317218D01*
X173581524Y-116135614D01*
X173652383Y-115964546D01*
X173755255Y-115810587D01*
X173886187Y-115679655D01*
X173962643Y-115628569D01*
X174040144Y-115576784D01*
X174040146Y-115576783D01*
X174211214Y-115505924D01*
X174392818Y-115469801D01*
X174577984Y-115469801D01*
X174759588Y-115505924D01*
G37*
G36*
X181459588Y-112965924D02*
G01*
X181630656Y-113036783D01*
X181630658Y-113036784D01*
X181708159Y-113088569D01*
X181784615Y-113139655D01*
X181915547Y-113270587D01*
X182018419Y-113424546D01*
X182089278Y-113595614D01*
X182125401Y-113777218D01*
X182125401Y-113962384D01*
X182089278Y-114143988D01*
X182018419Y-114315056D01*
X182018418Y-114315058D01*
X181915546Y-114469016D01*
X181784616Y-114599946D01*
X181630658Y-114702818D01*
X181630657Y-114702819D01*
X181630656Y-114702819D01*
X181459588Y-114773678D01*
X181277984Y-114809801D01*
X181092818Y-114809801D01*
X180911214Y-114773678D01*
X180740146Y-114702819D01*
X180740145Y-114702819D01*
X180740144Y-114702818D01*
X180586186Y-114599946D01*
X180455256Y-114469016D01*
X180352384Y-114315058D01*
X180352383Y-114315056D01*
X180281524Y-114143988D01*
X180245401Y-113962384D01*
X180245401Y-113777218D01*
X180281524Y-113595614D01*
X180352383Y-113424546D01*
X180455255Y-113270587D01*
X180586187Y-113139655D01*
X180662643Y-113088569D01*
X180740144Y-113036784D01*
X180740146Y-113036783D01*
X180911214Y-112965924D01*
X181092818Y-112929801D01*
X181277984Y-112929801D01*
X181459588Y-112965924D01*
G37*
G36*
X174759588Y-112965924D02*
G01*
X174930656Y-113036783D01*
X174930658Y-113036784D01*
X175008159Y-113088569D01*
X175084615Y-113139655D01*
X175215547Y-113270587D01*
X175318419Y-113424546D01*
X175389278Y-113595614D01*
X175425401Y-113777218D01*
X175425401Y-113962384D01*
X175389278Y-114143988D01*
X175318419Y-114315056D01*
X175318418Y-114315058D01*
X175215546Y-114469016D01*
X175084616Y-114599946D01*
X174930658Y-114702818D01*
X174930657Y-114702819D01*
X174930656Y-114702819D01*
X174759588Y-114773678D01*
X174577984Y-114809801D01*
X174392818Y-114809801D01*
X174211214Y-114773678D01*
X174040146Y-114702819D01*
X174040145Y-114702819D01*
X174040144Y-114702818D01*
X173886186Y-114599946D01*
X173755256Y-114469016D01*
X173652384Y-114315058D01*
X173652383Y-114315056D01*
X173581524Y-114143988D01*
X173545401Y-113962384D01*
X173545401Y-113777218D01*
X173581524Y-113595614D01*
X173652383Y-113424546D01*
X173755255Y-113270587D01*
X173886187Y-113139655D01*
X173962643Y-113088569D01*
X174040144Y-113036784D01*
X174040146Y-113036783D01*
X174211214Y-112965924D01*
X174392818Y-112929801D01*
X174577984Y-112929801D01*
X174759588Y-112965924D01*
G37*
G36*
X174739586Y-96126322D02*
G01*
X174910654Y-96197181D01*
X174910656Y-96197182D01*
X174988157Y-96248967D01*
X175064613Y-96300053D01*
X175195545Y-96430985D01*
X175298417Y-96584944D01*
X175369276Y-96756012D01*
X175405399Y-96937616D01*
X175405399Y-97122782D01*
X175369276Y-97304386D01*
X175298417Y-97475454D01*
X175298416Y-97475456D01*
X175195544Y-97629414D01*
X175064614Y-97760344D01*
X174910656Y-97863216D01*
X174910655Y-97863217D01*
X174910654Y-97863217D01*
X174739586Y-97934076D01*
X174557982Y-97970199D01*
X174372816Y-97970199D01*
X174191212Y-97934076D01*
X174020144Y-97863217D01*
X174020143Y-97863217D01*
X174020142Y-97863216D01*
X173866184Y-97760344D01*
X173735254Y-97629414D01*
X173632382Y-97475456D01*
X173632381Y-97475454D01*
X173561522Y-97304386D01*
X173525399Y-97122782D01*
X173525399Y-96937616D01*
X173561522Y-96756012D01*
X173632381Y-96584944D01*
X173735253Y-96430985D01*
X173866185Y-96300053D01*
X173942641Y-96248967D01*
X174020142Y-96197182D01*
X174020144Y-96197181D01*
X174191212Y-96126322D01*
X174372816Y-96090199D01*
X174557982Y-96090199D01*
X174739586Y-96126322D01*
G37*
G36*
X181439586Y-96126322D02*
G01*
X181610654Y-96197181D01*
X181610656Y-96197182D01*
X181688157Y-96248967D01*
X181764613Y-96300053D01*
X181895545Y-96430985D01*
X181998417Y-96584944D01*
X182069276Y-96756012D01*
X182105399Y-96937616D01*
X182105399Y-97122782D01*
X182069276Y-97304386D01*
X181998417Y-97475454D01*
X181998416Y-97475456D01*
X181895544Y-97629414D01*
X181764614Y-97760344D01*
X181610656Y-97863216D01*
X181610655Y-97863217D01*
X181610654Y-97863217D01*
X181439586Y-97934076D01*
X181257982Y-97970199D01*
X181072816Y-97970199D01*
X180891212Y-97934076D01*
X180720144Y-97863217D01*
X180720143Y-97863217D01*
X180720142Y-97863216D01*
X180566184Y-97760344D01*
X180435254Y-97629414D01*
X180332382Y-97475456D01*
X180332381Y-97475454D01*
X180261522Y-97304386D01*
X180225399Y-97122782D01*
X180225399Y-96937616D01*
X180261522Y-96756012D01*
X180332381Y-96584944D01*
X180435253Y-96430985D01*
X180566185Y-96300053D01*
X180642641Y-96248967D01*
X180720142Y-96197182D01*
X180720144Y-96197181D01*
X180891212Y-96126322D01*
X181072816Y-96090199D01*
X181257982Y-96090199D01*
X181439586Y-96126322D01*
G37*
G36*
X174739586Y-93586322D02*
G01*
X174910654Y-93657181D01*
X174910656Y-93657182D01*
X174988157Y-93708967D01*
X175064613Y-93760053D01*
X175195545Y-93890985D01*
X175298417Y-94044944D01*
X175369276Y-94216012D01*
X175405399Y-94397616D01*
X175405399Y-94582782D01*
X175369276Y-94764386D01*
X175298417Y-94935454D01*
X175298416Y-94935456D01*
X175195544Y-95089414D01*
X175064614Y-95220344D01*
X174910656Y-95323216D01*
X174910655Y-95323217D01*
X174910654Y-95323217D01*
X174739586Y-95394076D01*
X174557982Y-95430199D01*
X174372816Y-95430199D01*
X174191212Y-95394076D01*
X174020144Y-95323217D01*
X174020143Y-95323217D01*
X174020142Y-95323216D01*
X173866184Y-95220344D01*
X173735254Y-95089414D01*
X173632382Y-94935456D01*
X173632381Y-94935454D01*
X173561522Y-94764386D01*
X173525399Y-94582782D01*
X173525399Y-94397616D01*
X173561522Y-94216012D01*
X173632381Y-94044944D01*
X173735253Y-93890985D01*
X173866185Y-93760053D01*
X173942641Y-93708967D01*
X174020142Y-93657182D01*
X174020144Y-93657181D01*
X174191212Y-93586322D01*
X174372816Y-93550199D01*
X174557982Y-93550199D01*
X174739586Y-93586322D01*
G37*
G36*
X181439586Y-93586322D02*
G01*
X181610654Y-93657181D01*
X181610656Y-93657182D01*
X181688157Y-93708967D01*
X181764613Y-93760053D01*
X181895545Y-93890985D01*
X181998417Y-94044944D01*
X182069276Y-94216012D01*
X182105399Y-94397616D01*
X182105399Y-94582782D01*
X182069276Y-94764386D01*
X181998417Y-94935454D01*
X181998416Y-94935456D01*
X181895544Y-95089414D01*
X181764614Y-95220344D01*
X181610656Y-95323216D01*
X181610655Y-95323217D01*
X181610654Y-95323217D01*
X181439586Y-95394076D01*
X181257982Y-95430199D01*
X181072816Y-95430199D01*
X180891212Y-95394076D01*
X180720144Y-95323217D01*
X180720143Y-95323217D01*
X180720142Y-95323216D01*
X180566184Y-95220344D01*
X180435254Y-95089414D01*
X180332382Y-94935456D01*
X180332381Y-94935454D01*
X180261522Y-94764386D01*
X180225399Y-94582782D01*
X180225399Y-94397616D01*
X180261522Y-94216012D01*
X180332381Y-94044944D01*
X180435253Y-93890985D01*
X180566185Y-93760053D01*
X180642641Y-93708967D01*
X180720142Y-93657182D01*
X180720144Y-93657181D01*
X180891212Y-93586322D01*
X181072816Y-93550199D01*
X181257982Y-93550199D01*
X181439586Y-93586322D01*
G37*
G36*
X175450399Y-91683201D02*
G01*
X173648399Y-91683201D01*
X173648399Y-89881201D01*
X175450399Y-89881201D01*
X175450399Y-91683201D01*
G37*
G36*
X181901400Y-91683201D02*
G01*
X180099400Y-91683201D01*
X180099400Y-89881201D01*
X181901400Y-89881201D01*
X181901400Y-91683201D01*
G37*
G36*
X181901400Y-88052200D02*
G01*
X180099400Y-88052200D01*
X180099400Y-86250200D01*
X181901400Y-86250200D01*
X181901400Y-88052200D01*
G37*
G36*
X175450399Y-88052200D02*
G01*
X173648399Y-88052200D01*
X173648399Y-86250200D01*
X175450399Y-86250200D01*
X175450399Y-88052200D01*
G37*
M02*
