G04 #@! TF.GenerationSoftware,KiCad,Pcbnew,(5.1.4)-1*
G04 #@! TF.CreationDate,2019-11-02T23:27:05-06:00*
G04 #@! TF.ProjectId,SensorsBoard,53656e73-6f72-4734-926f-6172642e6b69,rev?*
G04 #@! TF.SameCoordinates,Original*
G04 #@! TF.FileFunction,Legend,Top*
G04 #@! TF.FilePolarity,Positive*
%FSLAX46Y46*%
G04 Gerber Fmt 4.6, Leading zero omitted, Abs format (unit mm)*
G04 Created by KiCad (PCBNEW (5.1.4)-1) date 2019-11-02 23:27:05*
%MOMM*%
%LPD*%
G04 APERTURE LIST*
%ADD10C,0.177800*%
G04 APERTURE END LIST*
D10*
X178551114Y-120594966D02*
X178551114Y-119705966D01*
X178732542Y-119705966D01*
X178841400Y-119748300D01*
X178913971Y-119832966D01*
X178950257Y-119917633D01*
X178986542Y-120086966D01*
X178986542Y-120213966D01*
X178950257Y-120383300D01*
X178913971Y-120467966D01*
X178841400Y-120552633D01*
X178732542Y-120594966D01*
X178551114Y-120594966D01*
X179313114Y-120256300D02*
X179893685Y-120256300D01*
X178551114Y-124404966D02*
X178551114Y-123515966D01*
X178732542Y-123515966D01*
X178841400Y-123558300D01*
X178913971Y-123642966D01*
X178950257Y-123727633D01*
X178986542Y-123896966D01*
X178986542Y-124023966D01*
X178950257Y-124193300D01*
X178913971Y-124277966D01*
X178841400Y-124362633D01*
X178732542Y-124404966D01*
X178551114Y-124404966D01*
X179313114Y-124066300D02*
X179893685Y-124066300D01*
X179603400Y-124404966D02*
X179603400Y-123727633D01*
X176047400Y-120129300D02*
X176301400Y-120129300D01*
X176410257Y-120594966D02*
X176047400Y-120594966D01*
X176047400Y-119705966D01*
X176410257Y-119705966D01*
X176736828Y-120256300D02*
X177317400Y-120256300D01*
X177027114Y-120594966D02*
X177027114Y-119917633D01*
X176174400Y-123939300D02*
X176428400Y-123939300D01*
X176537257Y-124404966D02*
X176174400Y-124404966D01*
X176174400Y-123515966D01*
X176537257Y-123515966D01*
X176863828Y-124066300D02*
X177444400Y-124066300D01*
M02*
