G04 #@! TF.GenerationSoftware,KiCad,Pcbnew,(5.1.4)-1*
G04 #@! TF.CreationDate,2020-01-10T19:44:08-06:00*
G04 #@! TF.ProjectId,SensorsBoard,53656e73-6f72-4734-926f-6172642e6b69,rev?*
G04 #@! TF.SameCoordinates,Original*
G04 #@! TF.FileFunction,Soldermask,Top*
G04 #@! TF.FilePolarity,Negative*
%FSLAX46Y46*%
G04 Gerber Fmt 4.6, Leading zero omitted, Abs format (unit mm)*
G04 Created by KiCad (PCBNEW (5.1.4)-1) date 2020-01-10 19:44:08*
%MOMM*%
%LPD*%
G04 APERTURE LIST*
%ADD10C,0.100000*%
G04 APERTURE END LIST*
D10*
G36*
X229652801Y-124649800D02*
G01*
X227850801Y-124649800D01*
X227850801Y-122847800D01*
X229652801Y-122847800D01*
X229652801Y-124649800D01*
X229652801Y-124649800D01*
G37*
G36*
X182002401Y-124649800D02*
G01*
X180200401Y-124649800D01*
X180200401Y-122847800D01*
X182002401Y-122847800D01*
X182002401Y-124649800D01*
X182002401Y-124649800D01*
G37*
G36*
X175551400Y-124649800D02*
G01*
X173749400Y-124649800D01*
X173749400Y-122847800D01*
X175551400Y-122847800D01*
X175551400Y-124649800D01*
X175551400Y-124649800D01*
G37*
G36*
X187464000Y-124649800D02*
G01*
X185662000Y-124649800D01*
X185662000Y-122847800D01*
X187464000Y-122847800D01*
X187464000Y-124649800D01*
X187464000Y-124649800D01*
G37*
G36*
X193915001Y-124649800D02*
G01*
X192113001Y-124649800D01*
X192113001Y-122847800D01*
X193915001Y-122847800D01*
X193915001Y-124649800D01*
X193915001Y-124649800D01*
G37*
G36*
X199376600Y-124649800D02*
G01*
X197574600Y-124649800D01*
X197574600Y-122847800D01*
X199376600Y-122847800D01*
X199376600Y-124649800D01*
X199376600Y-124649800D01*
G37*
G36*
X205827601Y-124649800D02*
G01*
X204025601Y-124649800D01*
X204025601Y-122847800D01*
X205827601Y-122847800D01*
X205827601Y-124649800D01*
X205827601Y-124649800D01*
G37*
G36*
X211289200Y-124649800D02*
G01*
X209487200Y-124649800D01*
X209487200Y-122847800D01*
X211289200Y-122847800D01*
X211289200Y-124649800D01*
X211289200Y-124649800D01*
G37*
G36*
X217740201Y-124649800D02*
G01*
X215938201Y-124649800D01*
X215938201Y-122847800D01*
X217740201Y-122847800D01*
X217740201Y-124649800D01*
X217740201Y-124649800D01*
G37*
G36*
X223201800Y-124649800D02*
G01*
X221399800Y-124649800D01*
X221399800Y-122847800D01*
X223201800Y-122847800D01*
X223201800Y-124649800D01*
X223201800Y-124649800D01*
G37*
G36*
X187464000Y-121093800D02*
G01*
X185662000Y-121093800D01*
X185662000Y-119291800D01*
X187464000Y-119291800D01*
X187464000Y-121093800D01*
X187464000Y-121093800D01*
G37*
G36*
X223201800Y-121093800D02*
G01*
X221399800Y-121093800D01*
X221399800Y-119291800D01*
X223201800Y-119291800D01*
X223201800Y-121093800D01*
X223201800Y-121093800D01*
G37*
G36*
X175551400Y-121093800D02*
G01*
X173749400Y-121093800D01*
X173749400Y-119291800D01*
X175551400Y-119291800D01*
X175551400Y-121093800D01*
X175551400Y-121093800D01*
G37*
G36*
X199376600Y-121093800D02*
G01*
X197574600Y-121093800D01*
X197574600Y-119291800D01*
X199376600Y-119291800D01*
X199376600Y-121093800D01*
X199376600Y-121093800D01*
G37*
G36*
X211289200Y-121093800D02*
G01*
X209487200Y-121093800D01*
X209487200Y-119291800D01*
X211289200Y-119291800D01*
X211289200Y-121093800D01*
X211289200Y-121093800D01*
G37*
G36*
X217740201Y-121018799D02*
G01*
X215938201Y-121018799D01*
X215938201Y-119216799D01*
X217740201Y-119216799D01*
X217740201Y-121018799D01*
X217740201Y-121018799D01*
G37*
G36*
X229652801Y-121018799D02*
G01*
X227850801Y-121018799D01*
X227850801Y-119216799D01*
X229652801Y-119216799D01*
X229652801Y-121018799D01*
X229652801Y-121018799D01*
G37*
G36*
X205827601Y-121018799D02*
G01*
X204025601Y-121018799D01*
X204025601Y-119216799D01*
X205827601Y-119216799D01*
X205827601Y-121018799D01*
X205827601Y-121018799D01*
G37*
G36*
X182002401Y-121018799D02*
G01*
X180200401Y-121018799D01*
X180200401Y-119216799D01*
X182002401Y-119216799D01*
X182002401Y-121018799D01*
X182002401Y-121018799D01*
G37*
G36*
X193915001Y-121018799D02*
G01*
X192113001Y-121018799D01*
X192113001Y-119216799D01*
X193915001Y-119216799D01*
X193915001Y-121018799D01*
X193915001Y-121018799D01*
G37*
G36*
X205284788Y-115505924D02*
G01*
X205455856Y-115576783D01*
X205455858Y-115576784D01*
X205533359Y-115628569D01*
X205609815Y-115679655D01*
X205740747Y-115810587D01*
X205843619Y-115964546D01*
X205914478Y-116135614D01*
X205950601Y-116317218D01*
X205950601Y-116502384D01*
X205914478Y-116683988D01*
X205843619Y-116855056D01*
X205843618Y-116855058D01*
X205740746Y-117009016D01*
X205609816Y-117139946D01*
X205455858Y-117242818D01*
X205455857Y-117242819D01*
X205455856Y-117242819D01*
X205284788Y-117313678D01*
X205103184Y-117349801D01*
X204918018Y-117349801D01*
X204736414Y-117313678D01*
X204565346Y-117242819D01*
X204565345Y-117242819D01*
X204565344Y-117242818D01*
X204411386Y-117139946D01*
X204280456Y-117009016D01*
X204177584Y-116855058D01*
X204177583Y-116855056D01*
X204106724Y-116683988D01*
X204070601Y-116502384D01*
X204070601Y-116317218D01*
X204106724Y-116135614D01*
X204177583Y-115964546D01*
X204280455Y-115810587D01*
X204411387Y-115679655D01*
X204487843Y-115628569D01*
X204565344Y-115576784D01*
X204565346Y-115576783D01*
X204736414Y-115505924D01*
X204918018Y-115469801D01*
X205103184Y-115469801D01*
X205284788Y-115505924D01*
X205284788Y-115505924D01*
G37*
G36*
X181459588Y-115505924D02*
G01*
X181630656Y-115576783D01*
X181630658Y-115576784D01*
X181708159Y-115628569D01*
X181784615Y-115679655D01*
X181915547Y-115810587D01*
X182018419Y-115964546D01*
X182089278Y-116135614D01*
X182125401Y-116317218D01*
X182125401Y-116502384D01*
X182089278Y-116683988D01*
X182018419Y-116855056D01*
X182018418Y-116855058D01*
X181915546Y-117009016D01*
X181784616Y-117139946D01*
X181630658Y-117242818D01*
X181630657Y-117242819D01*
X181630656Y-117242819D01*
X181459588Y-117313678D01*
X181277984Y-117349801D01*
X181092818Y-117349801D01*
X180911214Y-117313678D01*
X180740146Y-117242819D01*
X180740145Y-117242819D01*
X180740144Y-117242818D01*
X180586186Y-117139946D01*
X180455256Y-117009016D01*
X180352384Y-116855058D01*
X180352383Y-116855056D01*
X180281524Y-116683988D01*
X180245401Y-116502384D01*
X180245401Y-116317218D01*
X180281524Y-116135614D01*
X180352383Y-115964546D01*
X180455255Y-115810587D01*
X180586187Y-115679655D01*
X180662643Y-115628569D01*
X180740144Y-115576784D01*
X180740146Y-115576783D01*
X180911214Y-115505924D01*
X181092818Y-115469801D01*
X181277984Y-115469801D01*
X181459588Y-115505924D01*
X181459588Y-115505924D01*
G37*
G36*
X174759588Y-115505924D02*
G01*
X174930656Y-115576783D01*
X174930658Y-115576784D01*
X175008159Y-115628569D01*
X175084615Y-115679655D01*
X175215547Y-115810587D01*
X175318419Y-115964546D01*
X175389278Y-116135614D01*
X175425401Y-116317218D01*
X175425401Y-116502384D01*
X175389278Y-116683988D01*
X175318419Y-116855056D01*
X175318418Y-116855058D01*
X175215546Y-117009016D01*
X175084616Y-117139946D01*
X174930658Y-117242818D01*
X174930657Y-117242819D01*
X174930656Y-117242819D01*
X174759588Y-117313678D01*
X174577984Y-117349801D01*
X174392818Y-117349801D01*
X174211214Y-117313678D01*
X174040146Y-117242819D01*
X174040145Y-117242819D01*
X174040144Y-117242818D01*
X173886186Y-117139946D01*
X173755256Y-117009016D01*
X173652384Y-116855058D01*
X173652383Y-116855056D01*
X173581524Y-116683988D01*
X173545401Y-116502384D01*
X173545401Y-116317218D01*
X173581524Y-116135614D01*
X173652383Y-115964546D01*
X173755255Y-115810587D01*
X173886187Y-115679655D01*
X173962643Y-115628569D01*
X174040144Y-115576784D01*
X174040146Y-115576783D01*
X174211214Y-115505924D01*
X174392818Y-115469801D01*
X174577984Y-115469801D01*
X174759588Y-115505924D01*
X174759588Y-115505924D01*
G37*
G36*
X186672188Y-115505924D02*
G01*
X186843256Y-115576783D01*
X186843258Y-115576784D01*
X186920759Y-115628569D01*
X186997215Y-115679655D01*
X187128147Y-115810587D01*
X187231019Y-115964546D01*
X187301878Y-116135614D01*
X187338001Y-116317218D01*
X187338001Y-116502384D01*
X187301878Y-116683988D01*
X187231019Y-116855056D01*
X187231018Y-116855058D01*
X187128146Y-117009016D01*
X186997216Y-117139946D01*
X186843258Y-117242818D01*
X186843257Y-117242819D01*
X186843256Y-117242819D01*
X186672188Y-117313678D01*
X186490584Y-117349801D01*
X186305418Y-117349801D01*
X186123814Y-117313678D01*
X185952746Y-117242819D01*
X185952745Y-117242819D01*
X185952744Y-117242818D01*
X185798786Y-117139946D01*
X185667856Y-117009016D01*
X185564984Y-116855058D01*
X185564983Y-116855056D01*
X185494124Y-116683988D01*
X185458001Y-116502384D01*
X185458001Y-116317218D01*
X185494124Y-116135614D01*
X185564983Y-115964546D01*
X185667855Y-115810587D01*
X185798787Y-115679655D01*
X185875243Y-115628569D01*
X185952744Y-115576784D01*
X185952746Y-115576783D01*
X186123814Y-115505924D01*
X186305418Y-115469801D01*
X186490584Y-115469801D01*
X186672188Y-115505924D01*
X186672188Y-115505924D01*
G37*
G36*
X210497388Y-115505924D02*
G01*
X210668456Y-115576783D01*
X210668458Y-115576784D01*
X210745959Y-115628569D01*
X210822415Y-115679655D01*
X210953347Y-115810587D01*
X211056219Y-115964546D01*
X211127078Y-116135614D01*
X211163201Y-116317218D01*
X211163201Y-116502384D01*
X211127078Y-116683988D01*
X211056219Y-116855056D01*
X211056218Y-116855058D01*
X210953346Y-117009016D01*
X210822416Y-117139946D01*
X210668458Y-117242818D01*
X210668457Y-117242819D01*
X210668456Y-117242819D01*
X210497388Y-117313678D01*
X210315784Y-117349801D01*
X210130618Y-117349801D01*
X209949014Y-117313678D01*
X209777946Y-117242819D01*
X209777945Y-117242819D01*
X209777944Y-117242818D01*
X209623986Y-117139946D01*
X209493056Y-117009016D01*
X209390184Y-116855058D01*
X209390183Y-116855056D01*
X209319324Y-116683988D01*
X209283201Y-116502384D01*
X209283201Y-116317218D01*
X209319324Y-116135614D01*
X209390183Y-115964546D01*
X209493055Y-115810587D01*
X209623987Y-115679655D01*
X209700443Y-115628569D01*
X209777944Y-115576784D01*
X209777946Y-115576783D01*
X209949014Y-115505924D01*
X210130618Y-115469801D01*
X210315784Y-115469801D01*
X210497388Y-115505924D01*
X210497388Y-115505924D01*
G37*
G36*
X229109988Y-115505924D02*
G01*
X229281056Y-115576783D01*
X229281058Y-115576784D01*
X229358559Y-115628569D01*
X229435015Y-115679655D01*
X229565947Y-115810587D01*
X229668819Y-115964546D01*
X229739678Y-116135614D01*
X229775801Y-116317218D01*
X229775801Y-116502384D01*
X229739678Y-116683988D01*
X229668819Y-116855056D01*
X229668818Y-116855058D01*
X229565946Y-117009016D01*
X229435016Y-117139946D01*
X229281058Y-117242818D01*
X229281057Y-117242819D01*
X229281056Y-117242819D01*
X229109988Y-117313678D01*
X228928384Y-117349801D01*
X228743218Y-117349801D01*
X228561614Y-117313678D01*
X228390546Y-117242819D01*
X228390545Y-117242819D01*
X228390544Y-117242818D01*
X228236586Y-117139946D01*
X228105656Y-117009016D01*
X228002784Y-116855058D01*
X228002783Y-116855056D01*
X227931924Y-116683988D01*
X227895801Y-116502384D01*
X227895801Y-116317218D01*
X227931924Y-116135614D01*
X228002783Y-115964546D01*
X228105655Y-115810587D01*
X228236587Y-115679655D01*
X228313043Y-115628569D01*
X228390544Y-115576784D01*
X228390546Y-115576783D01*
X228561614Y-115505924D01*
X228743218Y-115469801D01*
X228928384Y-115469801D01*
X229109988Y-115505924D01*
X229109988Y-115505924D01*
G37*
G36*
X198584788Y-115505924D02*
G01*
X198755856Y-115576783D01*
X198755858Y-115576784D01*
X198833359Y-115628569D01*
X198909815Y-115679655D01*
X199040747Y-115810587D01*
X199143619Y-115964546D01*
X199214478Y-116135614D01*
X199250601Y-116317218D01*
X199250601Y-116502384D01*
X199214478Y-116683988D01*
X199143619Y-116855056D01*
X199143618Y-116855058D01*
X199040746Y-117009016D01*
X198909816Y-117139946D01*
X198755858Y-117242818D01*
X198755857Y-117242819D01*
X198755856Y-117242819D01*
X198584788Y-117313678D01*
X198403184Y-117349801D01*
X198218018Y-117349801D01*
X198036414Y-117313678D01*
X197865346Y-117242819D01*
X197865345Y-117242819D01*
X197865344Y-117242818D01*
X197711386Y-117139946D01*
X197580456Y-117009016D01*
X197477584Y-116855058D01*
X197477583Y-116855056D01*
X197406724Y-116683988D01*
X197370601Y-116502384D01*
X197370601Y-116317218D01*
X197406724Y-116135614D01*
X197477583Y-115964546D01*
X197580455Y-115810587D01*
X197711387Y-115679655D01*
X197787843Y-115628569D01*
X197865344Y-115576784D01*
X197865346Y-115576783D01*
X198036414Y-115505924D01*
X198218018Y-115469801D01*
X198403184Y-115469801D01*
X198584788Y-115505924D01*
X198584788Y-115505924D01*
G37*
G36*
X193372188Y-115505924D02*
G01*
X193543256Y-115576783D01*
X193543258Y-115576784D01*
X193620759Y-115628569D01*
X193697215Y-115679655D01*
X193828147Y-115810587D01*
X193931019Y-115964546D01*
X194001878Y-116135614D01*
X194038001Y-116317218D01*
X194038001Y-116502384D01*
X194001878Y-116683988D01*
X193931019Y-116855056D01*
X193931018Y-116855058D01*
X193828146Y-117009016D01*
X193697216Y-117139946D01*
X193543258Y-117242818D01*
X193543257Y-117242819D01*
X193543256Y-117242819D01*
X193372188Y-117313678D01*
X193190584Y-117349801D01*
X193005418Y-117349801D01*
X192823814Y-117313678D01*
X192652746Y-117242819D01*
X192652745Y-117242819D01*
X192652744Y-117242818D01*
X192498786Y-117139946D01*
X192367856Y-117009016D01*
X192264984Y-116855058D01*
X192264983Y-116855056D01*
X192194124Y-116683988D01*
X192158001Y-116502384D01*
X192158001Y-116317218D01*
X192194124Y-116135614D01*
X192264983Y-115964546D01*
X192367855Y-115810587D01*
X192498787Y-115679655D01*
X192575243Y-115628569D01*
X192652744Y-115576784D01*
X192652746Y-115576783D01*
X192823814Y-115505924D01*
X193005418Y-115469801D01*
X193190584Y-115469801D01*
X193372188Y-115505924D01*
X193372188Y-115505924D01*
G37*
G36*
X222409988Y-115505924D02*
G01*
X222581056Y-115576783D01*
X222581058Y-115576784D01*
X222658559Y-115628569D01*
X222735015Y-115679655D01*
X222865947Y-115810587D01*
X222968819Y-115964546D01*
X223039678Y-116135614D01*
X223075801Y-116317218D01*
X223075801Y-116502384D01*
X223039678Y-116683988D01*
X222968819Y-116855056D01*
X222968818Y-116855058D01*
X222865946Y-117009016D01*
X222735016Y-117139946D01*
X222581058Y-117242818D01*
X222581057Y-117242819D01*
X222581056Y-117242819D01*
X222409988Y-117313678D01*
X222228384Y-117349801D01*
X222043218Y-117349801D01*
X221861614Y-117313678D01*
X221690546Y-117242819D01*
X221690545Y-117242819D01*
X221690544Y-117242818D01*
X221536586Y-117139946D01*
X221405656Y-117009016D01*
X221302784Y-116855058D01*
X221302783Y-116855056D01*
X221231924Y-116683988D01*
X221195801Y-116502384D01*
X221195801Y-116317218D01*
X221231924Y-116135614D01*
X221302783Y-115964546D01*
X221405655Y-115810587D01*
X221536587Y-115679655D01*
X221613043Y-115628569D01*
X221690544Y-115576784D01*
X221690546Y-115576783D01*
X221861614Y-115505924D01*
X222043218Y-115469801D01*
X222228384Y-115469801D01*
X222409988Y-115505924D01*
X222409988Y-115505924D01*
G37*
G36*
X217197388Y-115505924D02*
G01*
X217368456Y-115576783D01*
X217368458Y-115576784D01*
X217445959Y-115628569D01*
X217522415Y-115679655D01*
X217653347Y-115810587D01*
X217756219Y-115964546D01*
X217827078Y-116135614D01*
X217863201Y-116317218D01*
X217863201Y-116502384D01*
X217827078Y-116683988D01*
X217756219Y-116855056D01*
X217756218Y-116855058D01*
X217653346Y-117009016D01*
X217522416Y-117139946D01*
X217368458Y-117242818D01*
X217368457Y-117242819D01*
X217368456Y-117242819D01*
X217197388Y-117313678D01*
X217015784Y-117349801D01*
X216830618Y-117349801D01*
X216649014Y-117313678D01*
X216477946Y-117242819D01*
X216477945Y-117242819D01*
X216477944Y-117242818D01*
X216323986Y-117139946D01*
X216193056Y-117009016D01*
X216090184Y-116855058D01*
X216090183Y-116855056D01*
X216019324Y-116683988D01*
X215983201Y-116502384D01*
X215983201Y-116317218D01*
X216019324Y-116135614D01*
X216090183Y-115964546D01*
X216193055Y-115810587D01*
X216323987Y-115679655D01*
X216400443Y-115628569D01*
X216477944Y-115576784D01*
X216477946Y-115576783D01*
X216649014Y-115505924D01*
X216830618Y-115469801D01*
X217015784Y-115469801D01*
X217197388Y-115505924D01*
X217197388Y-115505924D01*
G37*
G36*
X198584788Y-112965924D02*
G01*
X198755856Y-113036783D01*
X198755858Y-113036784D01*
X198833359Y-113088569D01*
X198909815Y-113139655D01*
X199040747Y-113270587D01*
X199143619Y-113424546D01*
X199214478Y-113595614D01*
X199250601Y-113777218D01*
X199250601Y-113962384D01*
X199214478Y-114143988D01*
X199143619Y-114315056D01*
X199143618Y-114315058D01*
X199040746Y-114469016D01*
X198909816Y-114599946D01*
X198755858Y-114702818D01*
X198755857Y-114702819D01*
X198755856Y-114702819D01*
X198584788Y-114773678D01*
X198403184Y-114809801D01*
X198218018Y-114809801D01*
X198036414Y-114773678D01*
X197865346Y-114702819D01*
X197865345Y-114702819D01*
X197865344Y-114702818D01*
X197711386Y-114599946D01*
X197580456Y-114469016D01*
X197477584Y-114315058D01*
X197477583Y-114315056D01*
X197406724Y-114143988D01*
X197370601Y-113962384D01*
X197370601Y-113777218D01*
X197406724Y-113595614D01*
X197477583Y-113424546D01*
X197580455Y-113270587D01*
X197711387Y-113139655D01*
X197787843Y-113088569D01*
X197865344Y-113036784D01*
X197865346Y-113036783D01*
X198036414Y-112965924D01*
X198218018Y-112929801D01*
X198403184Y-112929801D01*
X198584788Y-112965924D01*
X198584788Y-112965924D01*
G37*
G36*
X174759588Y-112965924D02*
G01*
X174930656Y-113036783D01*
X174930658Y-113036784D01*
X175008159Y-113088569D01*
X175084615Y-113139655D01*
X175215547Y-113270587D01*
X175318419Y-113424546D01*
X175389278Y-113595614D01*
X175425401Y-113777218D01*
X175425401Y-113962384D01*
X175389278Y-114143988D01*
X175318419Y-114315056D01*
X175318418Y-114315058D01*
X175215546Y-114469016D01*
X175084616Y-114599946D01*
X174930658Y-114702818D01*
X174930657Y-114702819D01*
X174930656Y-114702819D01*
X174759588Y-114773678D01*
X174577984Y-114809801D01*
X174392818Y-114809801D01*
X174211214Y-114773678D01*
X174040146Y-114702819D01*
X174040145Y-114702819D01*
X174040144Y-114702818D01*
X173886186Y-114599946D01*
X173755256Y-114469016D01*
X173652384Y-114315058D01*
X173652383Y-114315056D01*
X173581524Y-114143988D01*
X173545401Y-113962384D01*
X173545401Y-113777218D01*
X173581524Y-113595614D01*
X173652383Y-113424546D01*
X173755255Y-113270587D01*
X173886187Y-113139655D01*
X173962643Y-113088569D01*
X174040144Y-113036784D01*
X174040146Y-113036783D01*
X174211214Y-112965924D01*
X174392818Y-112929801D01*
X174577984Y-112929801D01*
X174759588Y-112965924D01*
X174759588Y-112965924D01*
G37*
G36*
X186672188Y-112965924D02*
G01*
X186843256Y-113036783D01*
X186843258Y-113036784D01*
X186920759Y-113088569D01*
X186997215Y-113139655D01*
X187128147Y-113270587D01*
X187231019Y-113424546D01*
X187301878Y-113595614D01*
X187338001Y-113777218D01*
X187338001Y-113962384D01*
X187301878Y-114143988D01*
X187231019Y-114315056D01*
X187231018Y-114315058D01*
X187128146Y-114469016D01*
X186997216Y-114599946D01*
X186843258Y-114702818D01*
X186843257Y-114702819D01*
X186843256Y-114702819D01*
X186672188Y-114773678D01*
X186490584Y-114809801D01*
X186305418Y-114809801D01*
X186123814Y-114773678D01*
X185952746Y-114702819D01*
X185952745Y-114702819D01*
X185952744Y-114702818D01*
X185798786Y-114599946D01*
X185667856Y-114469016D01*
X185564984Y-114315058D01*
X185564983Y-114315056D01*
X185494124Y-114143988D01*
X185458001Y-113962384D01*
X185458001Y-113777218D01*
X185494124Y-113595614D01*
X185564983Y-113424546D01*
X185667855Y-113270587D01*
X185798787Y-113139655D01*
X185875243Y-113088569D01*
X185952744Y-113036784D01*
X185952746Y-113036783D01*
X186123814Y-112965924D01*
X186305418Y-112929801D01*
X186490584Y-112929801D01*
X186672188Y-112965924D01*
X186672188Y-112965924D01*
G37*
G36*
X193372188Y-112965924D02*
G01*
X193543256Y-113036783D01*
X193543258Y-113036784D01*
X193620759Y-113088569D01*
X193697215Y-113139655D01*
X193828147Y-113270587D01*
X193931019Y-113424546D01*
X194001878Y-113595614D01*
X194038001Y-113777218D01*
X194038001Y-113962384D01*
X194001878Y-114143988D01*
X193931019Y-114315056D01*
X193931018Y-114315058D01*
X193828146Y-114469016D01*
X193697216Y-114599946D01*
X193543258Y-114702818D01*
X193543257Y-114702819D01*
X193543256Y-114702819D01*
X193372188Y-114773678D01*
X193190584Y-114809801D01*
X193005418Y-114809801D01*
X192823814Y-114773678D01*
X192652746Y-114702819D01*
X192652745Y-114702819D01*
X192652744Y-114702818D01*
X192498786Y-114599946D01*
X192367856Y-114469016D01*
X192264984Y-114315058D01*
X192264983Y-114315056D01*
X192194124Y-114143988D01*
X192158001Y-113962384D01*
X192158001Y-113777218D01*
X192194124Y-113595614D01*
X192264983Y-113424546D01*
X192367855Y-113270587D01*
X192498787Y-113139655D01*
X192575243Y-113088569D01*
X192652744Y-113036784D01*
X192652746Y-113036783D01*
X192823814Y-112965924D01*
X193005418Y-112929801D01*
X193190584Y-112929801D01*
X193372188Y-112965924D01*
X193372188Y-112965924D01*
G37*
G36*
X205284788Y-112965924D02*
G01*
X205455856Y-113036783D01*
X205455858Y-113036784D01*
X205533359Y-113088569D01*
X205609815Y-113139655D01*
X205740747Y-113270587D01*
X205843619Y-113424546D01*
X205914478Y-113595614D01*
X205950601Y-113777218D01*
X205950601Y-113962384D01*
X205914478Y-114143988D01*
X205843619Y-114315056D01*
X205843618Y-114315058D01*
X205740746Y-114469016D01*
X205609816Y-114599946D01*
X205455858Y-114702818D01*
X205455857Y-114702819D01*
X205455856Y-114702819D01*
X205284788Y-114773678D01*
X205103184Y-114809801D01*
X204918018Y-114809801D01*
X204736414Y-114773678D01*
X204565346Y-114702819D01*
X204565345Y-114702819D01*
X204565344Y-114702818D01*
X204411386Y-114599946D01*
X204280456Y-114469016D01*
X204177584Y-114315058D01*
X204177583Y-114315056D01*
X204106724Y-114143988D01*
X204070601Y-113962384D01*
X204070601Y-113777218D01*
X204106724Y-113595614D01*
X204177583Y-113424546D01*
X204280455Y-113270587D01*
X204411387Y-113139655D01*
X204487843Y-113088569D01*
X204565344Y-113036784D01*
X204565346Y-113036783D01*
X204736414Y-112965924D01*
X204918018Y-112929801D01*
X205103184Y-112929801D01*
X205284788Y-112965924D01*
X205284788Y-112965924D01*
G37*
G36*
X217197388Y-112965924D02*
G01*
X217368456Y-113036783D01*
X217368458Y-113036784D01*
X217445959Y-113088569D01*
X217522415Y-113139655D01*
X217653347Y-113270587D01*
X217756219Y-113424546D01*
X217827078Y-113595614D01*
X217863201Y-113777218D01*
X217863201Y-113962384D01*
X217827078Y-114143988D01*
X217756219Y-114315056D01*
X217756218Y-114315058D01*
X217653346Y-114469016D01*
X217522416Y-114599946D01*
X217368458Y-114702818D01*
X217368457Y-114702819D01*
X217368456Y-114702819D01*
X217197388Y-114773678D01*
X217015784Y-114809801D01*
X216830618Y-114809801D01*
X216649014Y-114773678D01*
X216477946Y-114702819D01*
X216477945Y-114702819D01*
X216477944Y-114702818D01*
X216323986Y-114599946D01*
X216193056Y-114469016D01*
X216090184Y-114315058D01*
X216090183Y-114315056D01*
X216019324Y-114143988D01*
X215983201Y-113962384D01*
X215983201Y-113777218D01*
X216019324Y-113595614D01*
X216090183Y-113424546D01*
X216193055Y-113270587D01*
X216323987Y-113139655D01*
X216400443Y-113088569D01*
X216477944Y-113036784D01*
X216477946Y-113036783D01*
X216649014Y-112965924D01*
X216830618Y-112929801D01*
X217015784Y-112929801D01*
X217197388Y-112965924D01*
X217197388Y-112965924D01*
G37*
G36*
X210497388Y-112965924D02*
G01*
X210668456Y-113036783D01*
X210668458Y-113036784D01*
X210745959Y-113088569D01*
X210822415Y-113139655D01*
X210953347Y-113270587D01*
X211056219Y-113424546D01*
X211127078Y-113595614D01*
X211163201Y-113777218D01*
X211163201Y-113962384D01*
X211127078Y-114143988D01*
X211056219Y-114315056D01*
X211056218Y-114315058D01*
X210953346Y-114469016D01*
X210822416Y-114599946D01*
X210668458Y-114702818D01*
X210668457Y-114702819D01*
X210668456Y-114702819D01*
X210497388Y-114773678D01*
X210315784Y-114809801D01*
X210130618Y-114809801D01*
X209949014Y-114773678D01*
X209777946Y-114702819D01*
X209777945Y-114702819D01*
X209777944Y-114702818D01*
X209623986Y-114599946D01*
X209493056Y-114469016D01*
X209390184Y-114315058D01*
X209390183Y-114315056D01*
X209319324Y-114143988D01*
X209283201Y-113962384D01*
X209283201Y-113777218D01*
X209319324Y-113595614D01*
X209390183Y-113424546D01*
X209493055Y-113270587D01*
X209623987Y-113139655D01*
X209700443Y-113088569D01*
X209777944Y-113036784D01*
X209777946Y-113036783D01*
X209949014Y-112965924D01*
X210130618Y-112929801D01*
X210315784Y-112929801D01*
X210497388Y-112965924D01*
X210497388Y-112965924D01*
G37*
G36*
X229109988Y-112965924D02*
G01*
X229281056Y-113036783D01*
X229281058Y-113036784D01*
X229358559Y-113088569D01*
X229435015Y-113139655D01*
X229565947Y-113270587D01*
X229668819Y-113424546D01*
X229739678Y-113595614D01*
X229775801Y-113777218D01*
X229775801Y-113962384D01*
X229739678Y-114143988D01*
X229668819Y-114315056D01*
X229668818Y-114315058D01*
X229565946Y-114469016D01*
X229435016Y-114599946D01*
X229281058Y-114702818D01*
X229281057Y-114702819D01*
X229281056Y-114702819D01*
X229109988Y-114773678D01*
X228928384Y-114809801D01*
X228743218Y-114809801D01*
X228561614Y-114773678D01*
X228390546Y-114702819D01*
X228390545Y-114702819D01*
X228390544Y-114702818D01*
X228236586Y-114599946D01*
X228105656Y-114469016D01*
X228002784Y-114315058D01*
X228002783Y-114315056D01*
X227931924Y-114143988D01*
X227895801Y-113962384D01*
X227895801Y-113777218D01*
X227931924Y-113595614D01*
X228002783Y-113424546D01*
X228105655Y-113270587D01*
X228236587Y-113139655D01*
X228313043Y-113088569D01*
X228390544Y-113036784D01*
X228390546Y-113036783D01*
X228561614Y-112965924D01*
X228743218Y-112929801D01*
X228928384Y-112929801D01*
X229109988Y-112965924D01*
X229109988Y-112965924D01*
G37*
G36*
X222409988Y-112965924D02*
G01*
X222581056Y-113036783D01*
X222581058Y-113036784D01*
X222658559Y-113088569D01*
X222735015Y-113139655D01*
X222865947Y-113270587D01*
X222968819Y-113424546D01*
X223039678Y-113595614D01*
X223075801Y-113777218D01*
X223075801Y-113962384D01*
X223039678Y-114143988D01*
X222968819Y-114315056D01*
X222968818Y-114315058D01*
X222865946Y-114469016D01*
X222735016Y-114599946D01*
X222581058Y-114702818D01*
X222581057Y-114702819D01*
X222581056Y-114702819D01*
X222409988Y-114773678D01*
X222228384Y-114809801D01*
X222043218Y-114809801D01*
X221861614Y-114773678D01*
X221690546Y-114702819D01*
X221690545Y-114702819D01*
X221690544Y-114702818D01*
X221536586Y-114599946D01*
X221405656Y-114469016D01*
X221302784Y-114315058D01*
X221302783Y-114315056D01*
X221231924Y-114143988D01*
X221195801Y-113962384D01*
X221195801Y-113777218D01*
X221231924Y-113595614D01*
X221302783Y-113424546D01*
X221405655Y-113270587D01*
X221536587Y-113139655D01*
X221613043Y-113088569D01*
X221690544Y-113036784D01*
X221690546Y-113036783D01*
X221861614Y-112965924D01*
X222043218Y-112929801D01*
X222228384Y-112929801D01*
X222409988Y-112965924D01*
X222409988Y-112965924D01*
G37*
G36*
X181459588Y-112965924D02*
G01*
X181630656Y-113036783D01*
X181630658Y-113036784D01*
X181708159Y-113088569D01*
X181784615Y-113139655D01*
X181915547Y-113270587D01*
X182018419Y-113424546D01*
X182089278Y-113595614D01*
X182125401Y-113777218D01*
X182125401Y-113962384D01*
X182089278Y-114143988D01*
X182018419Y-114315056D01*
X182018418Y-114315058D01*
X181915546Y-114469016D01*
X181784616Y-114599946D01*
X181630658Y-114702818D01*
X181630657Y-114702819D01*
X181630656Y-114702819D01*
X181459588Y-114773678D01*
X181277984Y-114809801D01*
X181092818Y-114809801D01*
X180911214Y-114773678D01*
X180740146Y-114702819D01*
X180740145Y-114702819D01*
X180740144Y-114702818D01*
X180586186Y-114599946D01*
X180455256Y-114469016D01*
X180352384Y-114315058D01*
X180352383Y-114315056D01*
X180281524Y-114143988D01*
X180245401Y-113962384D01*
X180245401Y-113777218D01*
X180281524Y-113595614D01*
X180352383Y-113424546D01*
X180455255Y-113270587D01*
X180586187Y-113139655D01*
X180662643Y-113088569D01*
X180740144Y-113036784D01*
X180740146Y-113036783D01*
X180911214Y-112965924D01*
X181092818Y-112929801D01*
X181277984Y-112929801D01*
X181459588Y-112965924D01*
X181459588Y-112965924D01*
G37*
G36*
X222389986Y-105444322D02*
G01*
X222561054Y-105515181D01*
X222561056Y-105515182D01*
X222638557Y-105566967D01*
X222715013Y-105618053D01*
X222845945Y-105748985D01*
X222948817Y-105902944D01*
X223019676Y-106074012D01*
X223055799Y-106255616D01*
X223055799Y-106440782D01*
X223019676Y-106622386D01*
X222948817Y-106793454D01*
X222948816Y-106793456D01*
X222845944Y-106947414D01*
X222715014Y-107078344D01*
X222561056Y-107181216D01*
X222561055Y-107181217D01*
X222561054Y-107181217D01*
X222389986Y-107252076D01*
X222208382Y-107288199D01*
X222023216Y-107288199D01*
X221841612Y-107252076D01*
X221670544Y-107181217D01*
X221670543Y-107181217D01*
X221670542Y-107181216D01*
X221516584Y-107078344D01*
X221385654Y-106947414D01*
X221282782Y-106793456D01*
X221282781Y-106793454D01*
X221211922Y-106622386D01*
X221175799Y-106440782D01*
X221175799Y-106255616D01*
X221211922Y-106074012D01*
X221282781Y-105902944D01*
X221385653Y-105748985D01*
X221516585Y-105618053D01*
X221593041Y-105566967D01*
X221670542Y-105515182D01*
X221670544Y-105515181D01*
X221841612Y-105444322D01*
X222023216Y-105408199D01*
X222208382Y-105408199D01*
X222389986Y-105444322D01*
X222389986Y-105444322D01*
G37*
G36*
X217177386Y-105444322D02*
G01*
X217348454Y-105515181D01*
X217348456Y-105515182D01*
X217425957Y-105566967D01*
X217502413Y-105618053D01*
X217633345Y-105748985D01*
X217736217Y-105902944D01*
X217807076Y-106074012D01*
X217843199Y-106255616D01*
X217843199Y-106440782D01*
X217807076Y-106622386D01*
X217736217Y-106793454D01*
X217736216Y-106793456D01*
X217633344Y-106947414D01*
X217502414Y-107078344D01*
X217348456Y-107181216D01*
X217348455Y-107181217D01*
X217348454Y-107181217D01*
X217177386Y-107252076D01*
X216995782Y-107288199D01*
X216810616Y-107288199D01*
X216629012Y-107252076D01*
X216457944Y-107181217D01*
X216457943Y-107181217D01*
X216457942Y-107181216D01*
X216303984Y-107078344D01*
X216173054Y-106947414D01*
X216070182Y-106793456D01*
X216070181Y-106793454D01*
X215999322Y-106622386D01*
X215963199Y-106440782D01*
X215963199Y-106255616D01*
X215999322Y-106074012D01*
X216070181Y-105902944D01*
X216173053Y-105748985D01*
X216303985Y-105618053D01*
X216380441Y-105566967D01*
X216457942Y-105515182D01*
X216457944Y-105515181D01*
X216629012Y-105444322D01*
X216810616Y-105408199D01*
X216995782Y-105408199D01*
X217177386Y-105444322D01*
X217177386Y-105444322D01*
G37*
G36*
X210477386Y-105444322D02*
G01*
X210648454Y-105515181D01*
X210648456Y-105515182D01*
X210725957Y-105566967D01*
X210802413Y-105618053D01*
X210933345Y-105748985D01*
X211036217Y-105902944D01*
X211107076Y-106074012D01*
X211143199Y-106255616D01*
X211143199Y-106440782D01*
X211107076Y-106622386D01*
X211036217Y-106793454D01*
X211036216Y-106793456D01*
X210933344Y-106947414D01*
X210802414Y-107078344D01*
X210648456Y-107181216D01*
X210648455Y-107181217D01*
X210648454Y-107181217D01*
X210477386Y-107252076D01*
X210295782Y-107288199D01*
X210110616Y-107288199D01*
X209929012Y-107252076D01*
X209757944Y-107181217D01*
X209757943Y-107181217D01*
X209757942Y-107181216D01*
X209603984Y-107078344D01*
X209473054Y-106947414D01*
X209370182Y-106793456D01*
X209370181Y-106793454D01*
X209299322Y-106622386D01*
X209263199Y-106440782D01*
X209263199Y-106255616D01*
X209299322Y-106074012D01*
X209370181Y-105902944D01*
X209473053Y-105748985D01*
X209603985Y-105618053D01*
X209680441Y-105566967D01*
X209757942Y-105515182D01*
X209757944Y-105515181D01*
X209929012Y-105444322D01*
X210110616Y-105408199D01*
X210295782Y-105408199D01*
X210477386Y-105444322D01*
X210477386Y-105444322D01*
G37*
G36*
X174739586Y-105444322D02*
G01*
X174910654Y-105515181D01*
X174910656Y-105515182D01*
X174988157Y-105566967D01*
X175064613Y-105618053D01*
X175195545Y-105748985D01*
X175298417Y-105902944D01*
X175369276Y-106074012D01*
X175405399Y-106255616D01*
X175405399Y-106440782D01*
X175369276Y-106622386D01*
X175298417Y-106793454D01*
X175298416Y-106793456D01*
X175195544Y-106947414D01*
X175064614Y-107078344D01*
X174910656Y-107181216D01*
X174910655Y-107181217D01*
X174910654Y-107181217D01*
X174739586Y-107252076D01*
X174557982Y-107288199D01*
X174372816Y-107288199D01*
X174191212Y-107252076D01*
X174020144Y-107181217D01*
X174020143Y-107181217D01*
X174020142Y-107181216D01*
X173866184Y-107078344D01*
X173735254Y-106947414D01*
X173632382Y-106793456D01*
X173632381Y-106793454D01*
X173561522Y-106622386D01*
X173525399Y-106440782D01*
X173525399Y-106255616D01*
X173561522Y-106074012D01*
X173632381Y-105902944D01*
X173735253Y-105748985D01*
X173866185Y-105618053D01*
X173942641Y-105566967D01*
X174020142Y-105515182D01*
X174020144Y-105515181D01*
X174191212Y-105444322D01*
X174372816Y-105408199D01*
X174557982Y-105408199D01*
X174739586Y-105444322D01*
X174739586Y-105444322D01*
G37*
G36*
X181439586Y-105444322D02*
G01*
X181610654Y-105515181D01*
X181610656Y-105515182D01*
X181688157Y-105566967D01*
X181764613Y-105618053D01*
X181895545Y-105748985D01*
X181998417Y-105902944D01*
X182069276Y-106074012D01*
X182105399Y-106255616D01*
X182105399Y-106440782D01*
X182069276Y-106622386D01*
X181998417Y-106793454D01*
X181998416Y-106793456D01*
X181895544Y-106947414D01*
X181764614Y-107078344D01*
X181610656Y-107181216D01*
X181610655Y-107181217D01*
X181610654Y-107181217D01*
X181439586Y-107252076D01*
X181257982Y-107288199D01*
X181072816Y-107288199D01*
X180891212Y-107252076D01*
X180720144Y-107181217D01*
X180720143Y-107181217D01*
X180720142Y-107181216D01*
X180566184Y-107078344D01*
X180435254Y-106947414D01*
X180332382Y-106793456D01*
X180332381Y-106793454D01*
X180261522Y-106622386D01*
X180225399Y-106440782D01*
X180225399Y-106255616D01*
X180261522Y-106074012D01*
X180332381Y-105902944D01*
X180435253Y-105748985D01*
X180566185Y-105618053D01*
X180642641Y-105566967D01*
X180720142Y-105515182D01*
X180720144Y-105515181D01*
X180891212Y-105444322D01*
X181072816Y-105408199D01*
X181257982Y-105408199D01*
X181439586Y-105444322D01*
X181439586Y-105444322D01*
G37*
G36*
X205264786Y-105444322D02*
G01*
X205435854Y-105515181D01*
X205435856Y-105515182D01*
X205513357Y-105566967D01*
X205589813Y-105618053D01*
X205720745Y-105748985D01*
X205823617Y-105902944D01*
X205894476Y-106074012D01*
X205930599Y-106255616D01*
X205930599Y-106440782D01*
X205894476Y-106622386D01*
X205823617Y-106793454D01*
X205823616Y-106793456D01*
X205720744Y-106947414D01*
X205589814Y-107078344D01*
X205435856Y-107181216D01*
X205435855Y-107181217D01*
X205435854Y-107181217D01*
X205264786Y-107252076D01*
X205083182Y-107288199D01*
X204898016Y-107288199D01*
X204716412Y-107252076D01*
X204545344Y-107181217D01*
X204545343Y-107181217D01*
X204545342Y-107181216D01*
X204391384Y-107078344D01*
X204260454Y-106947414D01*
X204157582Y-106793456D01*
X204157581Y-106793454D01*
X204086722Y-106622386D01*
X204050599Y-106440782D01*
X204050599Y-106255616D01*
X204086722Y-106074012D01*
X204157581Y-105902944D01*
X204260453Y-105748985D01*
X204391385Y-105618053D01*
X204467841Y-105566967D01*
X204545342Y-105515182D01*
X204545344Y-105515181D01*
X204716412Y-105444322D01*
X204898016Y-105408199D01*
X205083182Y-105408199D01*
X205264786Y-105444322D01*
X205264786Y-105444322D01*
G37*
G36*
X186652186Y-105444322D02*
G01*
X186823254Y-105515181D01*
X186823256Y-105515182D01*
X186900757Y-105566967D01*
X186977213Y-105618053D01*
X187108145Y-105748985D01*
X187211017Y-105902944D01*
X187281876Y-106074012D01*
X187317999Y-106255616D01*
X187317999Y-106440782D01*
X187281876Y-106622386D01*
X187211017Y-106793454D01*
X187211016Y-106793456D01*
X187108144Y-106947414D01*
X186977214Y-107078344D01*
X186823256Y-107181216D01*
X186823255Y-107181217D01*
X186823254Y-107181217D01*
X186652186Y-107252076D01*
X186470582Y-107288199D01*
X186285416Y-107288199D01*
X186103812Y-107252076D01*
X185932744Y-107181217D01*
X185932743Y-107181217D01*
X185932742Y-107181216D01*
X185778784Y-107078344D01*
X185647854Y-106947414D01*
X185544982Y-106793456D01*
X185544981Y-106793454D01*
X185474122Y-106622386D01*
X185437999Y-106440782D01*
X185437999Y-106255616D01*
X185474122Y-106074012D01*
X185544981Y-105902944D01*
X185647853Y-105748985D01*
X185778785Y-105618053D01*
X185855241Y-105566967D01*
X185932742Y-105515182D01*
X185932744Y-105515181D01*
X186103812Y-105444322D01*
X186285416Y-105408199D01*
X186470582Y-105408199D01*
X186652186Y-105444322D01*
X186652186Y-105444322D01*
G37*
G36*
X198564786Y-105444322D02*
G01*
X198735854Y-105515181D01*
X198735856Y-105515182D01*
X198813357Y-105566967D01*
X198889813Y-105618053D01*
X199020745Y-105748985D01*
X199123617Y-105902944D01*
X199194476Y-106074012D01*
X199230599Y-106255616D01*
X199230599Y-106440782D01*
X199194476Y-106622386D01*
X199123617Y-106793454D01*
X199123616Y-106793456D01*
X199020744Y-106947414D01*
X198889814Y-107078344D01*
X198735856Y-107181216D01*
X198735855Y-107181217D01*
X198735854Y-107181217D01*
X198564786Y-107252076D01*
X198383182Y-107288199D01*
X198198016Y-107288199D01*
X198016412Y-107252076D01*
X197845344Y-107181217D01*
X197845343Y-107181217D01*
X197845342Y-107181216D01*
X197691384Y-107078344D01*
X197560454Y-106947414D01*
X197457582Y-106793456D01*
X197457581Y-106793454D01*
X197386722Y-106622386D01*
X197350599Y-106440782D01*
X197350599Y-106255616D01*
X197386722Y-106074012D01*
X197457581Y-105902944D01*
X197560453Y-105748985D01*
X197691385Y-105618053D01*
X197767841Y-105566967D01*
X197845342Y-105515182D01*
X197845344Y-105515181D01*
X198016412Y-105444322D01*
X198198016Y-105408199D01*
X198383182Y-105408199D01*
X198564786Y-105444322D01*
X198564786Y-105444322D01*
G37*
G36*
X229089986Y-105444322D02*
G01*
X229261054Y-105515181D01*
X229261056Y-105515182D01*
X229338557Y-105566967D01*
X229415013Y-105618053D01*
X229545945Y-105748985D01*
X229648817Y-105902944D01*
X229719676Y-106074012D01*
X229755799Y-106255616D01*
X229755799Y-106440782D01*
X229719676Y-106622386D01*
X229648817Y-106793454D01*
X229648816Y-106793456D01*
X229545944Y-106947414D01*
X229415014Y-107078344D01*
X229261056Y-107181216D01*
X229261055Y-107181217D01*
X229261054Y-107181217D01*
X229089986Y-107252076D01*
X228908382Y-107288199D01*
X228723216Y-107288199D01*
X228541612Y-107252076D01*
X228370544Y-107181217D01*
X228370543Y-107181217D01*
X228370542Y-107181216D01*
X228216584Y-107078344D01*
X228085654Y-106947414D01*
X227982782Y-106793456D01*
X227982781Y-106793454D01*
X227911922Y-106622386D01*
X227875799Y-106440782D01*
X227875799Y-106255616D01*
X227911922Y-106074012D01*
X227982781Y-105902944D01*
X228085653Y-105748985D01*
X228216585Y-105618053D01*
X228293041Y-105566967D01*
X228370542Y-105515182D01*
X228370544Y-105515181D01*
X228541612Y-105444322D01*
X228723216Y-105408199D01*
X228908382Y-105408199D01*
X229089986Y-105444322D01*
X229089986Y-105444322D01*
G37*
G36*
X193352186Y-105444322D02*
G01*
X193523254Y-105515181D01*
X193523256Y-105515182D01*
X193600757Y-105566967D01*
X193677213Y-105618053D01*
X193808145Y-105748985D01*
X193911017Y-105902944D01*
X193981876Y-106074012D01*
X194017999Y-106255616D01*
X194017999Y-106440782D01*
X193981876Y-106622386D01*
X193911017Y-106793454D01*
X193911016Y-106793456D01*
X193808144Y-106947414D01*
X193677214Y-107078344D01*
X193523256Y-107181216D01*
X193523255Y-107181217D01*
X193523254Y-107181217D01*
X193352186Y-107252076D01*
X193170582Y-107288199D01*
X192985416Y-107288199D01*
X192803812Y-107252076D01*
X192632744Y-107181217D01*
X192632743Y-107181217D01*
X192632742Y-107181216D01*
X192478784Y-107078344D01*
X192347854Y-106947414D01*
X192244982Y-106793456D01*
X192244981Y-106793454D01*
X192174122Y-106622386D01*
X192137999Y-106440782D01*
X192137999Y-106255616D01*
X192174122Y-106074012D01*
X192244981Y-105902944D01*
X192347853Y-105748985D01*
X192478785Y-105618053D01*
X192555241Y-105566967D01*
X192632742Y-105515182D01*
X192632744Y-105515181D01*
X192803812Y-105444322D01*
X192985416Y-105408199D01*
X193170582Y-105408199D01*
X193352186Y-105444322D01*
X193352186Y-105444322D01*
G37*
G36*
X217177386Y-102904322D02*
G01*
X217348454Y-102975181D01*
X217348456Y-102975182D01*
X217425957Y-103026967D01*
X217502413Y-103078053D01*
X217633345Y-103208985D01*
X217736217Y-103362944D01*
X217807076Y-103534012D01*
X217843199Y-103715616D01*
X217843199Y-103900782D01*
X217807076Y-104082386D01*
X217736217Y-104253454D01*
X217736216Y-104253456D01*
X217633344Y-104407414D01*
X217502414Y-104538344D01*
X217348456Y-104641216D01*
X217348455Y-104641217D01*
X217348454Y-104641217D01*
X217177386Y-104712076D01*
X216995782Y-104748199D01*
X216810616Y-104748199D01*
X216629012Y-104712076D01*
X216457944Y-104641217D01*
X216457943Y-104641217D01*
X216457942Y-104641216D01*
X216303984Y-104538344D01*
X216173054Y-104407414D01*
X216070182Y-104253456D01*
X216070181Y-104253454D01*
X215999322Y-104082386D01*
X215963199Y-103900782D01*
X215963199Y-103715616D01*
X215999322Y-103534012D01*
X216070181Y-103362944D01*
X216173053Y-103208985D01*
X216303985Y-103078053D01*
X216380441Y-103026967D01*
X216457942Y-102975182D01*
X216457944Y-102975181D01*
X216629012Y-102904322D01*
X216810616Y-102868199D01*
X216995782Y-102868199D01*
X217177386Y-102904322D01*
X217177386Y-102904322D01*
G37*
G36*
X181439586Y-102904322D02*
G01*
X181610654Y-102975181D01*
X181610656Y-102975182D01*
X181688157Y-103026967D01*
X181764613Y-103078053D01*
X181895545Y-103208985D01*
X181998417Y-103362944D01*
X182069276Y-103534012D01*
X182105399Y-103715616D01*
X182105399Y-103900782D01*
X182069276Y-104082386D01*
X181998417Y-104253454D01*
X181998416Y-104253456D01*
X181895544Y-104407414D01*
X181764614Y-104538344D01*
X181610656Y-104641216D01*
X181610655Y-104641217D01*
X181610654Y-104641217D01*
X181439586Y-104712076D01*
X181257982Y-104748199D01*
X181072816Y-104748199D01*
X180891212Y-104712076D01*
X180720144Y-104641217D01*
X180720143Y-104641217D01*
X180720142Y-104641216D01*
X180566184Y-104538344D01*
X180435254Y-104407414D01*
X180332382Y-104253456D01*
X180332381Y-104253454D01*
X180261522Y-104082386D01*
X180225399Y-103900782D01*
X180225399Y-103715616D01*
X180261522Y-103534012D01*
X180332381Y-103362944D01*
X180435253Y-103208985D01*
X180566185Y-103078053D01*
X180642641Y-103026967D01*
X180720142Y-102975182D01*
X180720144Y-102975181D01*
X180891212Y-102904322D01*
X181072816Y-102868199D01*
X181257982Y-102868199D01*
X181439586Y-102904322D01*
X181439586Y-102904322D01*
G37*
G36*
X174739586Y-102904322D02*
G01*
X174910654Y-102975181D01*
X174910656Y-102975182D01*
X174988157Y-103026967D01*
X175064613Y-103078053D01*
X175195545Y-103208985D01*
X175298417Y-103362944D01*
X175369276Y-103534012D01*
X175405399Y-103715616D01*
X175405399Y-103900782D01*
X175369276Y-104082386D01*
X175298417Y-104253454D01*
X175298416Y-104253456D01*
X175195544Y-104407414D01*
X175064614Y-104538344D01*
X174910656Y-104641216D01*
X174910655Y-104641217D01*
X174910654Y-104641217D01*
X174739586Y-104712076D01*
X174557982Y-104748199D01*
X174372816Y-104748199D01*
X174191212Y-104712076D01*
X174020144Y-104641217D01*
X174020143Y-104641217D01*
X174020142Y-104641216D01*
X173866184Y-104538344D01*
X173735254Y-104407414D01*
X173632382Y-104253456D01*
X173632381Y-104253454D01*
X173561522Y-104082386D01*
X173525399Y-103900782D01*
X173525399Y-103715616D01*
X173561522Y-103534012D01*
X173632381Y-103362944D01*
X173735253Y-103208985D01*
X173866185Y-103078053D01*
X173942641Y-103026967D01*
X174020142Y-102975182D01*
X174020144Y-102975181D01*
X174191212Y-102904322D01*
X174372816Y-102868199D01*
X174557982Y-102868199D01*
X174739586Y-102904322D01*
X174739586Y-102904322D01*
G37*
G36*
X210477386Y-102904322D02*
G01*
X210648454Y-102975181D01*
X210648456Y-102975182D01*
X210725957Y-103026967D01*
X210802413Y-103078053D01*
X210933345Y-103208985D01*
X211036217Y-103362944D01*
X211107076Y-103534012D01*
X211143199Y-103715616D01*
X211143199Y-103900782D01*
X211107076Y-104082386D01*
X211036217Y-104253454D01*
X211036216Y-104253456D01*
X210933344Y-104407414D01*
X210802414Y-104538344D01*
X210648456Y-104641216D01*
X210648455Y-104641217D01*
X210648454Y-104641217D01*
X210477386Y-104712076D01*
X210295782Y-104748199D01*
X210110616Y-104748199D01*
X209929012Y-104712076D01*
X209757944Y-104641217D01*
X209757943Y-104641217D01*
X209757942Y-104641216D01*
X209603984Y-104538344D01*
X209473054Y-104407414D01*
X209370182Y-104253456D01*
X209370181Y-104253454D01*
X209299322Y-104082386D01*
X209263199Y-103900782D01*
X209263199Y-103715616D01*
X209299322Y-103534012D01*
X209370181Y-103362944D01*
X209473053Y-103208985D01*
X209603985Y-103078053D01*
X209680441Y-103026967D01*
X209757942Y-102975182D01*
X209757944Y-102975181D01*
X209929012Y-102904322D01*
X210110616Y-102868199D01*
X210295782Y-102868199D01*
X210477386Y-102904322D01*
X210477386Y-102904322D01*
G37*
G36*
X222389986Y-102904322D02*
G01*
X222561054Y-102975181D01*
X222561056Y-102975182D01*
X222638557Y-103026967D01*
X222715013Y-103078053D01*
X222845945Y-103208985D01*
X222948817Y-103362944D01*
X223019676Y-103534012D01*
X223055799Y-103715616D01*
X223055799Y-103900782D01*
X223019676Y-104082386D01*
X222948817Y-104253454D01*
X222948816Y-104253456D01*
X222845944Y-104407414D01*
X222715014Y-104538344D01*
X222561056Y-104641216D01*
X222561055Y-104641217D01*
X222561054Y-104641217D01*
X222389986Y-104712076D01*
X222208382Y-104748199D01*
X222023216Y-104748199D01*
X221841612Y-104712076D01*
X221670544Y-104641217D01*
X221670543Y-104641217D01*
X221670542Y-104641216D01*
X221516584Y-104538344D01*
X221385654Y-104407414D01*
X221282782Y-104253456D01*
X221282781Y-104253454D01*
X221211922Y-104082386D01*
X221175799Y-103900782D01*
X221175799Y-103715616D01*
X221211922Y-103534012D01*
X221282781Y-103362944D01*
X221385653Y-103208985D01*
X221516585Y-103078053D01*
X221593041Y-103026967D01*
X221670542Y-102975182D01*
X221670544Y-102975181D01*
X221841612Y-102904322D01*
X222023216Y-102868199D01*
X222208382Y-102868199D01*
X222389986Y-102904322D01*
X222389986Y-102904322D01*
G37*
G36*
X229089986Y-102904322D02*
G01*
X229261054Y-102975181D01*
X229261056Y-102975182D01*
X229338557Y-103026967D01*
X229415013Y-103078053D01*
X229545945Y-103208985D01*
X229648817Y-103362944D01*
X229719676Y-103534012D01*
X229755799Y-103715616D01*
X229755799Y-103900782D01*
X229719676Y-104082386D01*
X229648817Y-104253454D01*
X229648816Y-104253456D01*
X229545944Y-104407414D01*
X229415014Y-104538344D01*
X229261056Y-104641216D01*
X229261055Y-104641217D01*
X229261054Y-104641217D01*
X229089986Y-104712076D01*
X228908382Y-104748199D01*
X228723216Y-104748199D01*
X228541612Y-104712076D01*
X228370544Y-104641217D01*
X228370543Y-104641217D01*
X228370542Y-104641216D01*
X228216584Y-104538344D01*
X228085654Y-104407414D01*
X227982782Y-104253456D01*
X227982781Y-104253454D01*
X227911922Y-104082386D01*
X227875799Y-103900782D01*
X227875799Y-103715616D01*
X227911922Y-103534012D01*
X227982781Y-103362944D01*
X228085653Y-103208985D01*
X228216585Y-103078053D01*
X228293041Y-103026967D01*
X228370542Y-102975182D01*
X228370544Y-102975181D01*
X228541612Y-102904322D01*
X228723216Y-102868199D01*
X228908382Y-102868199D01*
X229089986Y-102904322D01*
X229089986Y-102904322D01*
G37*
G36*
X198564786Y-102904322D02*
G01*
X198735854Y-102975181D01*
X198735856Y-102975182D01*
X198813357Y-103026967D01*
X198889813Y-103078053D01*
X199020745Y-103208985D01*
X199123617Y-103362944D01*
X199194476Y-103534012D01*
X199230599Y-103715616D01*
X199230599Y-103900782D01*
X199194476Y-104082386D01*
X199123617Y-104253454D01*
X199123616Y-104253456D01*
X199020744Y-104407414D01*
X198889814Y-104538344D01*
X198735856Y-104641216D01*
X198735855Y-104641217D01*
X198735854Y-104641217D01*
X198564786Y-104712076D01*
X198383182Y-104748199D01*
X198198016Y-104748199D01*
X198016412Y-104712076D01*
X197845344Y-104641217D01*
X197845343Y-104641217D01*
X197845342Y-104641216D01*
X197691384Y-104538344D01*
X197560454Y-104407414D01*
X197457582Y-104253456D01*
X197457581Y-104253454D01*
X197386722Y-104082386D01*
X197350599Y-103900782D01*
X197350599Y-103715616D01*
X197386722Y-103534012D01*
X197457581Y-103362944D01*
X197560453Y-103208985D01*
X197691385Y-103078053D01*
X197767841Y-103026967D01*
X197845342Y-102975182D01*
X197845344Y-102975181D01*
X198016412Y-102904322D01*
X198198016Y-102868199D01*
X198383182Y-102868199D01*
X198564786Y-102904322D01*
X198564786Y-102904322D01*
G37*
G36*
X205264786Y-102904322D02*
G01*
X205435854Y-102975181D01*
X205435856Y-102975182D01*
X205513357Y-103026967D01*
X205589813Y-103078053D01*
X205720745Y-103208985D01*
X205823617Y-103362944D01*
X205894476Y-103534012D01*
X205930599Y-103715616D01*
X205930599Y-103900782D01*
X205894476Y-104082386D01*
X205823617Y-104253454D01*
X205823616Y-104253456D01*
X205720744Y-104407414D01*
X205589814Y-104538344D01*
X205435856Y-104641216D01*
X205435855Y-104641217D01*
X205435854Y-104641217D01*
X205264786Y-104712076D01*
X205083182Y-104748199D01*
X204898016Y-104748199D01*
X204716412Y-104712076D01*
X204545344Y-104641217D01*
X204545343Y-104641217D01*
X204545342Y-104641216D01*
X204391384Y-104538344D01*
X204260454Y-104407414D01*
X204157582Y-104253456D01*
X204157581Y-104253454D01*
X204086722Y-104082386D01*
X204050599Y-103900782D01*
X204050599Y-103715616D01*
X204086722Y-103534012D01*
X204157581Y-103362944D01*
X204260453Y-103208985D01*
X204391385Y-103078053D01*
X204467841Y-103026967D01*
X204545342Y-102975182D01*
X204545344Y-102975181D01*
X204716412Y-102904322D01*
X204898016Y-102868199D01*
X205083182Y-102868199D01*
X205264786Y-102904322D01*
X205264786Y-102904322D01*
G37*
G36*
X193352186Y-102904322D02*
G01*
X193523254Y-102975181D01*
X193523256Y-102975182D01*
X193600757Y-103026967D01*
X193677213Y-103078053D01*
X193808145Y-103208985D01*
X193911017Y-103362944D01*
X193981876Y-103534012D01*
X194017999Y-103715616D01*
X194017999Y-103900782D01*
X193981876Y-104082386D01*
X193911017Y-104253454D01*
X193911016Y-104253456D01*
X193808144Y-104407414D01*
X193677214Y-104538344D01*
X193523256Y-104641216D01*
X193523255Y-104641217D01*
X193523254Y-104641217D01*
X193352186Y-104712076D01*
X193170582Y-104748199D01*
X192985416Y-104748199D01*
X192803812Y-104712076D01*
X192632744Y-104641217D01*
X192632743Y-104641217D01*
X192632742Y-104641216D01*
X192478784Y-104538344D01*
X192347854Y-104407414D01*
X192244982Y-104253456D01*
X192244981Y-104253454D01*
X192174122Y-104082386D01*
X192137999Y-103900782D01*
X192137999Y-103715616D01*
X192174122Y-103534012D01*
X192244981Y-103362944D01*
X192347853Y-103208985D01*
X192478785Y-103078053D01*
X192555241Y-103026967D01*
X192632742Y-102975182D01*
X192632744Y-102975181D01*
X192803812Y-102904322D01*
X192985416Y-102868199D01*
X193170582Y-102868199D01*
X193352186Y-102904322D01*
X193352186Y-102904322D01*
G37*
G36*
X186652186Y-102904322D02*
G01*
X186823254Y-102975181D01*
X186823256Y-102975182D01*
X186900757Y-103026967D01*
X186977213Y-103078053D01*
X187108145Y-103208985D01*
X187211017Y-103362944D01*
X187281876Y-103534012D01*
X187317999Y-103715616D01*
X187317999Y-103900782D01*
X187281876Y-104082386D01*
X187211017Y-104253454D01*
X187211016Y-104253456D01*
X187108144Y-104407414D01*
X186977214Y-104538344D01*
X186823256Y-104641216D01*
X186823255Y-104641217D01*
X186823254Y-104641217D01*
X186652186Y-104712076D01*
X186470582Y-104748199D01*
X186285416Y-104748199D01*
X186103812Y-104712076D01*
X185932744Y-104641217D01*
X185932743Y-104641217D01*
X185932742Y-104641216D01*
X185778784Y-104538344D01*
X185647854Y-104407414D01*
X185544982Y-104253456D01*
X185544981Y-104253454D01*
X185474122Y-104082386D01*
X185437999Y-103900782D01*
X185437999Y-103715616D01*
X185474122Y-103534012D01*
X185544981Y-103362944D01*
X185647853Y-103208985D01*
X185778785Y-103078053D01*
X185855241Y-103026967D01*
X185932742Y-102975182D01*
X185932744Y-102975181D01*
X186103812Y-102904322D01*
X186285416Y-102868199D01*
X186470582Y-102868199D01*
X186652186Y-102904322D01*
X186652186Y-102904322D01*
G37*
G36*
X211188199Y-101001201D02*
G01*
X209386199Y-101001201D01*
X209386199Y-99199201D01*
X211188199Y-99199201D01*
X211188199Y-101001201D01*
X211188199Y-101001201D01*
G37*
G36*
X199275599Y-101001201D02*
G01*
X197473599Y-101001201D01*
X197473599Y-99199201D01*
X199275599Y-99199201D01*
X199275599Y-101001201D01*
X199275599Y-101001201D01*
G37*
G36*
X223100799Y-101001201D02*
G01*
X221298799Y-101001201D01*
X221298799Y-99199201D01*
X223100799Y-99199201D01*
X223100799Y-101001201D01*
X223100799Y-101001201D01*
G37*
G36*
X187362999Y-101001201D02*
G01*
X185560999Y-101001201D01*
X185560999Y-99199201D01*
X187362999Y-99199201D01*
X187362999Y-101001201D01*
X187362999Y-101001201D01*
G37*
G36*
X175450399Y-101001201D02*
G01*
X173648399Y-101001201D01*
X173648399Y-99199201D01*
X175450399Y-99199201D01*
X175450399Y-101001201D01*
X175450399Y-101001201D01*
G37*
G36*
X217639200Y-100926200D02*
G01*
X215837200Y-100926200D01*
X215837200Y-99124200D01*
X217639200Y-99124200D01*
X217639200Y-100926200D01*
X217639200Y-100926200D01*
G37*
G36*
X181901400Y-100926200D02*
G01*
X180099400Y-100926200D01*
X180099400Y-99124200D01*
X181901400Y-99124200D01*
X181901400Y-100926200D01*
X181901400Y-100926200D01*
G37*
G36*
X193814000Y-100926200D02*
G01*
X192012000Y-100926200D01*
X192012000Y-99124200D01*
X193814000Y-99124200D01*
X193814000Y-100926200D01*
X193814000Y-100926200D01*
G37*
G36*
X205726600Y-100926200D02*
G01*
X203924600Y-100926200D01*
X203924600Y-99124200D01*
X205726600Y-99124200D01*
X205726600Y-100926200D01*
X205726600Y-100926200D01*
G37*
G36*
X229551800Y-100926200D02*
G01*
X227749800Y-100926200D01*
X227749800Y-99124200D01*
X229551800Y-99124200D01*
X229551800Y-100926200D01*
X229551800Y-100926200D01*
G37*
G36*
X229551800Y-97370200D02*
G01*
X227749800Y-97370200D01*
X227749800Y-95568200D01*
X229551800Y-95568200D01*
X229551800Y-97370200D01*
X229551800Y-97370200D01*
G37*
G36*
X175450399Y-97370200D02*
G01*
X173648399Y-97370200D01*
X173648399Y-95568200D01*
X175450399Y-95568200D01*
X175450399Y-97370200D01*
X175450399Y-97370200D01*
G37*
G36*
X199275599Y-97370200D02*
G01*
X197473599Y-97370200D01*
X197473599Y-95568200D01*
X199275599Y-95568200D01*
X199275599Y-97370200D01*
X199275599Y-97370200D01*
G37*
G36*
X223100799Y-97370200D02*
G01*
X221298799Y-97370200D01*
X221298799Y-95568200D01*
X223100799Y-95568200D01*
X223100799Y-97370200D01*
X223100799Y-97370200D01*
G37*
G36*
X193814000Y-97370200D02*
G01*
X192012000Y-97370200D01*
X192012000Y-95568200D01*
X193814000Y-95568200D01*
X193814000Y-97370200D01*
X193814000Y-97370200D01*
G37*
G36*
X211188199Y-97370200D02*
G01*
X209386199Y-97370200D01*
X209386199Y-95568200D01*
X211188199Y-95568200D01*
X211188199Y-97370200D01*
X211188199Y-97370200D01*
G37*
G36*
X181901400Y-97370200D02*
G01*
X180099400Y-97370200D01*
X180099400Y-95568200D01*
X181901400Y-95568200D01*
X181901400Y-97370200D01*
X181901400Y-97370200D01*
G37*
G36*
X205726600Y-97370200D02*
G01*
X203924600Y-97370200D01*
X203924600Y-95568200D01*
X205726600Y-95568200D01*
X205726600Y-97370200D01*
X205726600Y-97370200D01*
G37*
G36*
X217639200Y-97370200D02*
G01*
X215837200Y-97370200D01*
X215837200Y-95568200D01*
X217639200Y-95568200D01*
X217639200Y-97370200D01*
X217639200Y-97370200D01*
G37*
G36*
X187362999Y-97370200D02*
G01*
X185560999Y-97370200D01*
X185560999Y-95568200D01*
X187362999Y-95568200D01*
X187362999Y-97370200D01*
X187362999Y-97370200D01*
G37*
M02*
