M48
; DRILL file {KiCad (5.1.4)-1} date 1/10/2020 7:44:27 PM
; FORMAT={-:-/ absolute / inch / decimal}
; #@! TF.CreationDate,2020-01-10T19:44:27-06:00
; #@! TF.GenerationSoftware,Kicad,Pcbnew,(5.1.4)-1
; #@! TF.FileFunction,Plated,1,2,PTH
FMAT,2
INCH
T1C0.0394
%
G90
G05
T1
X7.8067Y-4.0869
X7.8067Y-4.1869
X8.0705Y-4.0869
X8.0705Y-4.1869
X8.064Y-3.798
X8.279Y-3.798
X7.595Y-3.798
X7.814Y-4.732
X7.126Y-3.938
X8.2757Y-4.0869
X8.2757Y-4.1869
X8.5395Y-4.0869
X8.5395Y-4.1869
X8.748Y-3.798
X6.876Y-4.732
X8.2765Y-4.4831
X8.2765Y-4.5831
X8.5403Y-4.4831
X8.5403Y-4.5831
X9.002Y-3.938
X6.872Y-3.941
X8.537Y-4.729
X7.595Y-3.938
X8.752Y-4.872
X8.279Y-3.941
X7.345Y-4.872
X8.752Y-4.732
X7.8075Y-4.4831
X7.8075Y-4.5831
X8.0713Y-4.4831
X8.0713Y-4.5831
X8.068Y-4.729
X7.345Y-4.732
X8.064Y-3.938
X8.7447Y-4.0869
X8.7447Y-4.1869
X9.0085Y-4.0869
X9.0085Y-4.1869
X7.126Y-3.798
X6.876Y-4.872
X8.533Y-3.938
X8.748Y-3.941
X7.13Y-4.872
X8.283Y-4.872
X6.872Y-3.798
X8.533Y-3.798
X8.7455Y-4.4831
X8.7455Y-4.5831
X9.0093Y-4.4831
X9.0093Y-4.5831
X7.3385Y-4.4831
X7.3385Y-4.5831
X7.6023Y-4.4831
X7.6023Y-4.5831
X9.006Y-4.729
X7.599Y-4.872
X7.341Y-3.941
X7.81Y-3.798
X9.006Y-4.872
X7.13Y-4.729
X9.002Y-3.798
X6.8695Y-4.4831
X6.8695Y-4.5831
X7.1333Y-4.4831
X7.1333Y-4.5831
X8.537Y-4.872
X6.8687Y-4.0869
X6.8687Y-4.1869
X7.1325Y-4.0869
X7.1325Y-4.1869
X7.3377Y-4.0869
X7.3377Y-4.1869
X7.6015Y-4.0869
X7.6015Y-4.1869
X8.283Y-4.732
X7.341Y-3.798
X7.814Y-4.872
X7.81Y-3.941
X7.599Y-4.729
X8.068Y-4.872
T0
M30
