G04 #@! TF.GenerationSoftware,KiCad,Pcbnew,(5.1.4)-1*
G04 #@! TF.CreationDate,2020-05-08T13:54:39-05:00*
G04 #@! TF.ProjectId,RN4871Board,524e3438-3731-4426-9f61-72642e6b6963,rev?*
G04 #@! TF.SameCoordinates,Original*
G04 #@! TF.FileFunction,Soldermask,Top*
G04 #@! TF.FilePolarity,Negative*
%FSLAX46Y46*%
G04 Gerber Fmt 4.6, Leading zero omitted, Abs format (unit mm)*
G04 Created by KiCad (PCBNEW (5.1.4)-1) date 2020-05-08 13:54:39*
%MOMM*%
%LPD*%
G04 APERTURE LIST*
%ADD10C,0.100000*%
G04 APERTURE END LIST*
D10*
G36*
X128942400Y-107606400D02*
G01*
X127140400Y-107606400D01*
X127140400Y-105804400D01*
X128942400Y-105804400D01*
X128942400Y-107606400D01*
X128942400Y-107606400D01*
G37*
G36*
X125335600Y-107606400D02*
G01*
X123533600Y-107606400D01*
X123533600Y-105804400D01*
X125335600Y-105804400D01*
X125335600Y-107606400D01*
X125335600Y-107606400D01*
G37*
G36*
X136105200Y-107606400D02*
G01*
X134303200Y-107606400D01*
X134303200Y-105804400D01*
X136105200Y-105804400D01*
X136105200Y-107606400D01*
X136105200Y-107606400D01*
G37*
G36*
X132523800Y-107606400D02*
G01*
X130721800Y-107606400D01*
X130721800Y-105804400D01*
X132523800Y-105804400D01*
X132523800Y-107606400D01*
X132523800Y-107606400D01*
G37*
G36*
X135071299Y-100722845D02*
G01*
X135108795Y-100734220D01*
X135143354Y-100752692D01*
X135173647Y-100777553D01*
X135198508Y-100807846D01*
X135216980Y-100842405D01*
X135228355Y-100879901D01*
X135232800Y-100925038D01*
X135232800Y-101563762D01*
X135228355Y-101608899D01*
X135216980Y-101646395D01*
X135198508Y-101680954D01*
X135173647Y-101711247D01*
X135143354Y-101736108D01*
X135108795Y-101754580D01*
X135071299Y-101765955D01*
X135026162Y-101770400D01*
X134287438Y-101770400D01*
X134242301Y-101765955D01*
X134204805Y-101754580D01*
X134170246Y-101736108D01*
X134139953Y-101711247D01*
X134115092Y-101680954D01*
X134096620Y-101646395D01*
X134085245Y-101608899D01*
X134080800Y-101563762D01*
X134080800Y-100925038D01*
X134085245Y-100879901D01*
X134096620Y-100842405D01*
X134115092Y-100807846D01*
X134139953Y-100777553D01*
X134170246Y-100752692D01*
X134204805Y-100734220D01*
X134242301Y-100722845D01*
X134287438Y-100718400D01*
X135026162Y-100718400D01*
X135071299Y-100722845D01*
X135071299Y-100722845D01*
G37*
G36*
X133321299Y-100722845D02*
G01*
X133358795Y-100734220D01*
X133393354Y-100752692D01*
X133423647Y-100777553D01*
X133448508Y-100807846D01*
X133466980Y-100842405D01*
X133478355Y-100879901D01*
X133482800Y-100925038D01*
X133482800Y-101563762D01*
X133478355Y-101608899D01*
X133466980Y-101646395D01*
X133448508Y-101680954D01*
X133423647Y-101711247D01*
X133393354Y-101736108D01*
X133358795Y-101754580D01*
X133321299Y-101765955D01*
X133276162Y-101770400D01*
X132537438Y-101770400D01*
X132492301Y-101765955D01*
X132454805Y-101754580D01*
X132420246Y-101736108D01*
X132389953Y-101711247D01*
X132365092Y-101680954D01*
X132346620Y-101646395D01*
X132335245Y-101608899D01*
X132330800Y-101563762D01*
X132330800Y-100925038D01*
X132335245Y-100879901D01*
X132346620Y-100842405D01*
X132365092Y-100807846D01*
X132389953Y-100777553D01*
X132420246Y-100752692D01*
X132454805Y-100734220D01*
X132492301Y-100722845D01*
X132537438Y-100718400D01*
X133276162Y-100718400D01*
X133321299Y-100722845D01*
X133321299Y-100722845D01*
G37*
G36*
X131707099Y-100722845D02*
G01*
X131744595Y-100734220D01*
X131779154Y-100752692D01*
X131809447Y-100777553D01*
X131834308Y-100807846D01*
X131852780Y-100842405D01*
X131864155Y-100879901D01*
X131868600Y-100925038D01*
X131868600Y-101563762D01*
X131864155Y-101608899D01*
X131852780Y-101646395D01*
X131834308Y-101680954D01*
X131809447Y-101711247D01*
X131779154Y-101736108D01*
X131744595Y-101754580D01*
X131707099Y-101765955D01*
X131661962Y-101770400D01*
X130923238Y-101770400D01*
X130878101Y-101765955D01*
X130840605Y-101754580D01*
X130806046Y-101736108D01*
X130775753Y-101711247D01*
X130750892Y-101680954D01*
X130732420Y-101646395D01*
X130721045Y-101608899D01*
X130716600Y-101563762D01*
X130716600Y-100925038D01*
X130721045Y-100879901D01*
X130732420Y-100842405D01*
X130750892Y-100807846D01*
X130775753Y-100777553D01*
X130806046Y-100752692D01*
X130840605Y-100734220D01*
X130878101Y-100722845D01*
X130923238Y-100718400D01*
X131661962Y-100718400D01*
X131707099Y-100722845D01*
X131707099Y-100722845D01*
G37*
G36*
X129957099Y-100722845D02*
G01*
X129994595Y-100734220D01*
X130029154Y-100752692D01*
X130059447Y-100777553D01*
X130084308Y-100807846D01*
X130102780Y-100842405D01*
X130114155Y-100879901D01*
X130118600Y-100925038D01*
X130118600Y-101563762D01*
X130114155Y-101608899D01*
X130102780Y-101646395D01*
X130084308Y-101680954D01*
X130059447Y-101711247D01*
X130029154Y-101736108D01*
X129994595Y-101754580D01*
X129957099Y-101765955D01*
X129911962Y-101770400D01*
X129173238Y-101770400D01*
X129128101Y-101765955D01*
X129090605Y-101754580D01*
X129056046Y-101736108D01*
X129025753Y-101711247D01*
X129000892Y-101680954D01*
X128982420Y-101646395D01*
X128971045Y-101608899D01*
X128966600Y-101563762D01*
X128966600Y-100925038D01*
X128971045Y-100879901D01*
X128982420Y-100842405D01*
X129000892Y-100807846D01*
X129025753Y-100777553D01*
X129056046Y-100752692D01*
X129090605Y-100734220D01*
X129128101Y-100722845D01*
X129173238Y-100718400D01*
X129911962Y-100718400D01*
X129957099Y-100722845D01*
X129957099Y-100722845D01*
G37*
G36*
X139431800Y-98614000D02*
G01*
X137529800Y-98614000D01*
X137529800Y-96712000D01*
X139431800Y-96712000D01*
X139431800Y-98614000D01*
X139431800Y-98614000D01*
G37*
G36*
X141298195Y-96748546D02*
G01*
X141471266Y-96820234D01*
X141471267Y-96820235D01*
X141627027Y-96924310D01*
X141759490Y-97056773D01*
X141759491Y-97056775D01*
X141863566Y-97212534D01*
X141935254Y-97385605D01*
X141971800Y-97569333D01*
X141971800Y-97756667D01*
X141935254Y-97940395D01*
X141863566Y-98113466D01*
X141821946Y-98175754D01*
X141759490Y-98269227D01*
X141627027Y-98401690D01*
X141548618Y-98454081D01*
X141471266Y-98505766D01*
X141298195Y-98577454D01*
X141114467Y-98614000D01*
X140927133Y-98614000D01*
X140743405Y-98577454D01*
X140570334Y-98505766D01*
X140492982Y-98454081D01*
X140414573Y-98401690D01*
X140282110Y-98269227D01*
X140219654Y-98175754D01*
X140178034Y-98113466D01*
X140106346Y-97940395D01*
X140069800Y-97756667D01*
X140069800Y-97569333D01*
X140106346Y-97385605D01*
X140178034Y-97212534D01*
X140282109Y-97056775D01*
X140282110Y-97056773D01*
X140414573Y-96924310D01*
X140570333Y-96820235D01*
X140570334Y-96820234D01*
X140743405Y-96748546D01*
X140927133Y-96712000D01*
X141114467Y-96712000D01*
X141298195Y-96748546D01*
X141298195Y-96748546D01*
G37*
G36*
X136341299Y-97217645D02*
G01*
X136378795Y-97229020D01*
X136413354Y-97247492D01*
X136443647Y-97272353D01*
X136468508Y-97302646D01*
X136486980Y-97337205D01*
X136498355Y-97374701D01*
X136502800Y-97419838D01*
X136502800Y-98058562D01*
X136498355Y-98103699D01*
X136486980Y-98141195D01*
X136468508Y-98175754D01*
X136443647Y-98206047D01*
X136413354Y-98230908D01*
X136378795Y-98249380D01*
X136341299Y-98260755D01*
X136296162Y-98265200D01*
X135557438Y-98265200D01*
X135512301Y-98260755D01*
X135474805Y-98249380D01*
X135440246Y-98230908D01*
X135409953Y-98206047D01*
X135385092Y-98175754D01*
X135366620Y-98141195D01*
X135355245Y-98103699D01*
X135350800Y-98058562D01*
X135350800Y-97419838D01*
X135355245Y-97374701D01*
X135366620Y-97337205D01*
X135385092Y-97302646D01*
X135409953Y-97272353D01*
X135440246Y-97247492D01*
X135474805Y-97229020D01*
X135512301Y-97217645D01*
X135557438Y-97213200D01*
X136296162Y-97213200D01*
X136341299Y-97217645D01*
X136341299Y-97217645D01*
G37*
G36*
X134591299Y-97217645D02*
G01*
X134628795Y-97229020D01*
X134663354Y-97247492D01*
X134693647Y-97272353D01*
X134718508Y-97302646D01*
X134736980Y-97337205D01*
X134748355Y-97374701D01*
X134752800Y-97419838D01*
X134752800Y-98058562D01*
X134748355Y-98103699D01*
X134736980Y-98141195D01*
X134718508Y-98175754D01*
X134693647Y-98206047D01*
X134663354Y-98230908D01*
X134628795Y-98249380D01*
X134591299Y-98260755D01*
X134546162Y-98265200D01*
X133807438Y-98265200D01*
X133762301Y-98260755D01*
X133724805Y-98249380D01*
X133690246Y-98230908D01*
X133659953Y-98206047D01*
X133635092Y-98175754D01*
X133616620Y-98141195D01*
X133605245Y-98103699D01*
X133600800Y-98058562D01*
X133600800Y-97419838D01*
X133605245Y-97374701D01*
X133616620Y-97337205D01*
X133635092Y-97302646D01*
X133659953Y-97272353D01*
X133690246Y-97247492D01*
X133724805Y-97229020D01*
X133762301Y-97217645D01*
X133807438Y-97213200D01*
X134546162Y-97213200D01*
X134591299Y-97217645D01*
X134591299Y-97217645D01*
G37*
G36*
X127495601Y-97543001D02*
G01*
X126693601Y-97543001D01*
X126693601Y-95941001D01*
X127495601Y-95941001D01*
X127495601Y-97543001D01*
X127495601Y-97543001D01*
G37*
G36*
X131095601Y-97543001D02*
G01*
X130293601Y-97543001D01*
X130293601Y-95941001D01*
X131095601Y-95941001D01*
X131095601Y-97543001D01*
X131095601Y-97543001D01*
G37*
G36*
X128695601Y-97543001D02*
G01*
X127893601Y-97543001D01*
X127893601Y-95941001D01*
X128695601Y-95941001D01*
X128695601Y-97543001D01*
X128695601Y-97543001D01*
G37*
G36*
X126295601Y-97543001D02*
G01*
X125493601Y-97543001D01*
X125493601Y-95941001D01*
X126295601Y-95941001D01*
X126295601Y-97543001D01*
X126295601Y-97543001D01*
G37*
G36*
X125095601Y-97543001D02*
G01*
X124293601Y-97543001D01*
X124293601Y-95941001D01*
X125095601Y-95941001D01*
X125095601Y-97543001D01*
X125095601Y-97543001D01*
G37*
G36*
X129895601Y-97543001D02*
G01*
X129093601Y-97543001D01*
X129093601Y-95941001D01*
X129895601Y-95941001D01*
X129895601Y-97543001D01*
X129895601Y-97543001D01*
G37*
G36*
X124245601Y-95493001D02*
G01*
X122643601Y-95493001D01*
X122643601Y-94691001D01*
X124245601Y-94691001D01*
X124245601Y-95493001D01*
X124245601Y-95493001D01*
G37*
G36*
X132745601Y-95493001D02*
G01*
X131143601Y-95493001D01*
X131143601Y-94691001D01*
X132745601Y-94691001D01*
X132745601Y-95493001D01*
X132745601Y-95493001D01*
G37*
G36*
X136279899Y-93775445D02*
G01*
X136317395Y-93786820D01*
X136351954Y-93805292D01*
X136382247Y-93830153D01*
X136407108Y-93860446D01*
X136425580Y-93895005D01*
X136436955Y-93932501D01*
X136441400Y-93977638D01*
X136441400Y-94716362D01*
X136436955Y-94761499D01*
X136425580Y-94798995D01*
X136407108Y-94833554D01*
X136382247Y-94863847D01*
X136351954Y-94888708D01*
X136317395Y-94907180D01*
X136279899Y-94918555D01*
X136234762Y-94923000D01*
X135596038Y-94923000D01*
X135550901Y-94918555D01*
X135513405Y-94907180D01*
X135478846Y-94888708D01*
X135448553Y-94863847D01*
X135423692Y-94833554D01*
X135405220Y-94798995D01*
X135393845Y-94761499D01*
X135389400Y-94716362D01*
X135389400Y-93977638D01*
X135393845Y-93932501D01*
X135405220Y-93895005D01*
X135423692Y-93860446D01*
X135448553Y-93830153D01*
X135478846Y-93805292D01*
X135513405Y-93786820D01*
X135550901Y-93775445D01*
X135596038Y-93771000D01*
X136234762Y-93771000D01*
X136279899Y-93775445D01*
X136279899Y-93775445D01*
G37*
G36*
X132745601Y-94293001D02*
G01*
X131143601Y-94293001D01*
X131143601Y-93491001D01*
X132745601Y-93491001D01*
X132745601Y-94293001D01*
X132745601Y-94293001D01*
G37*
G36*
X124245601Y-94293001D02*
G01*
X122643601Y-94293001D01*
X122643601Y-93491001D01*
X124245601Y-93491001D01*
X124245601Y-94293001D01*
X124245601Y-94293001D01*
G37*
G36*
X136279899Y-92025445D02*
G01*
X136317395Y-92036820D01*
X136351954Y-92055292D01*
X136382247Y-92080153D01*
X136407108Y-92110446D01*
X136425580Y-92145005D01*
X136436955Y-92182501D01*
X136441400Y-92227638D01*
X136441400Y-92966362D01*
X136436955Y-93011499D01*
X136425580Y-93048995D01*
X136407108Y-93083554D01*
X136382247Y-93113847D01*
X136351954Y-93138708D01*
X136317395Y-93157180D01*
X136279899Y-93168555D01*
X136234762Y-93173000D01*
X135596038Y-93173000D01*
X135550901Y-93168555D01*
X135513405Y-93157180D01*
X135478846Y-93138708D01*
X135448553Y-93113847D01*
X135423692Y-93083554D01*
X135405220Y-93048995D01*
X135393845Y-93011499D01*
X135389400Y-92966362D01*
X135389400Y-92227638D01*
X135393845Y-92182501D01*
X135405220Y-92145005D01*
X135423692Y-92110446D01*
X135448553Y-92080153D01*
X135478846Y-92055292D01*
X135513405Y-92036820D01*
X135550901Y-92025445D01*
X135596038Y-92021000D01*
X136234762Y-92021000D01*
X136279899Y-92025445D01*
X136279899Y-92025445D01*
G37*
G36*
X132745601Y-93093001D02*
G01*
X131143601Y-93093001D01*
X131143601Y-92291001D01*
X132745601Y-92291001D01*
X132745601Y-93093001D01*
X132745601Y-93093001D01*
G37*
G36*
X124245601Y-93093001D02*
G01*
X122643601Y-93093001D01*
X122643601Y-92291001D01*
X124245601Y-92291001D01*
X124245601Y-93093001D01*
X124245601Y-93093001D01*
G37*
G36*
X124245601Y-91893001D02*
G01*
X122643601Y-91893001D01*
X122643601Y-91091001D01*
X124245601Y-91091001D01*
X124245601Y-91893001D01*
X124245601Y-91893001D01*
G37*
G36*
X132745601Y-91893001D02*
G01*
X131143601Y-91893001D01*
X131143601Y-91091001D01*
X132745601Y-91091001D01*
X132745601Y-91893001D01*
X132745601Y-91893001D01*
G37*
G36*
X124245601Y-90693001D02*
G01*
X122643601Y-90693001D01*
X122643601Y-89891001D01*
X124245601Y-89891001D01*
X124245601Y-90693001D01*
X124245601Y-90693001D01*
G37*
G36*
X132745601Y-90693001D02*
G01*
X131143601Y-90693001D01*
X131143601Y-89891001D01*
X132745601Y-89891001D01*
X132745601Y-90693001D01*
X132745601Y-90693001D01*
G37*
M02*
