G04 #@! TF.GenerationSoftware,KiCad,Pcbnew,(5.1.4)-1*
G04 #@! TF.CreationDate,2020-05-08T13:54:39-05:00*
G04 #@! TF.ProjectId,RN4871Board,524e3438-3731-4426-9f61-72642e6b6963,rev?*
G04 #@! TF.SameCoordinates,Original*
G04 #@! TF.FileFunction,Copper,L2,Bot*
G04 #@! TF.FilePolarity,Positive*
%FSLAX46Y46*%
G04 Gerber Fmt 4.6, Leading zero omitted, Abs format (unit mm)*
G04 Created by KiCad (PCBNEW (5.1.4)-1) date 2020-05-08 13:54:39*
%MOMM*%
%LPD*%
G04 APERTURE LIST*
%ADD10C,1.800000*%
%ADD11R,1.800000X1.800000*%
%ADD12R,1.700000X1.700000*%
%ADD13C,0.450000*%
%ADD14C,0.254000*%
G04 APERTURE END LIST*
D10*
X141020800Y-97663000D03*
D11*
X138480800Y-97663000D03*
D12*
X131622800Y-106705400D03*
X124434600Y-106705400D03*
X128041400Y-106705400D03*
X135204200Y-106705400D03*
D13*
X133934200Y-94818200D03*
X121869200Y-92125800D03*
X136296400Y-95353000D03*
X128847600Y-102514400D03*
D14*
G36*
X123113801Y-96900562D02*
G01*
X123116170Y-96925419D01*
X123123329Y-96949264D01*
X123135002Y-96971255D01*
X123150740Y-96990545D01*
X123169940Y-97006394D01*
X123191863Y-97018193D01*
X123215667Y-97025488D01*
X123240436Y-97027999D01*
X132105036Y-97053399D01*
X132130176Y-97050960D01*
X132154001Y-97043733D01*
X132175957Y-97031997D01*
X132195203Y-97016203D01*
X132210997Y-96996957D01*
X132222733Y-96975001D01*
X132229960Y-96951176D01*
X132232400Y-96926400D01*
X132232400Y-96763000D01*
X136942728Y-96763000D01*
X136942728Y-98563000D01*
X136954988Y-98687482D01*
X136991298Y-98807180D01*
X137050263Y-98917494D01*
X137129615Y-99014185D01*
X137226306Y-99093537D01*
X137336620Y-99152502D01*
X137456318Y-99188812D01*
X137580800Y-99201072D01*
X139380800Y-99201072D01*
X139505282Y-99188812D01*
X139624980Y-99152502D01*
X139735294Y-99093537D01*
X139831985Y-99014185D01*
X139911337Y-98917494D01*
X139970302Y-98807180D01*
X139975856Y-98788873D01*
X140042295Y-98855312D01*
X140293705Y-99023299D01*
X140573057Y-99139011D01*
X140869616Y-99198000D01*
X141171984Y-99198000D01*
X141468543Y-99139011D01*
X141747895Y-99023299D01*
X141999305Y-98855312D01*
X142213112Y-98641505D01*
X142381099Y-98390095D01*
X142496811Y-98110743D01*
X142555800Y-97814184D01*
X142555800Y-97511816D01*
X142496811Y-97215257D01*
X142381099Y-96935905D01*
X142213112Y-96684495D01*
X141999305Y-96470688D01*
X141747895Y-96302701D01*
X141468543Y-96186989D01*
X141171984Y-96128000D01*
X140869616Y-96128000D01*
X140573057Y-96186989D01*
X140293705Y-96302701D01*
X140042295Y-96470688D01*
X139975856Y-96537127D01*
X139970302Y-96518820D01*
X139911337Y-96408506D01*
X139831985Y-96311815D01*
X139735294Y-96232463D01*
X139624980Y-96173498D01*
X139505282Y-96137188D01*
X139380800Y-96124928D01*
X137580800Y-96124928D01*
X137456318Y-96137188D01*
X137336620Y-96173498D01*
X137226306Y-96232463D01*
X137129615Y-96311815D01*
X137050263Y-96408506D01*
X136991298Y-96518820D01*
X136954988Y-96638518D01*
X136942728Y-96763000D01*
X132232400Y-96763000D01*
X132232400Y-90160000D01*
X143053201Y-90160000D01*
X143053200Y-108356800D01*
X121919600Y-108356800D01*
X121919600Y-105855400D01*
X122946528Y-105855400D01*
X122946528Y-107555400D01*
X122958788Y-107679882D01*
X122995098Y-107799580D01*
X123054063Y-107909894D01*
X123133415Y-108006585D01*
X123230106Y-108085937D01*
X123340420Y-108144902D01*
X123460118Y-108181212D01*
X123584600Y-108193472D01*
X125284600Y-108193472D01*
X125409082Y-108181212D01*
X125528780Y-108144902D01*
X125639094Y-108085937D01*
X125735785Y-108006585D01*
X125815137Y-107909894D01*
X125874102Y-107799580D01*
X125910412Y-107679882D01*
X125922672Y-107555400D01*
X125922672Y-105855400D01*
X126553328Y-105855400D01*
X126553328Y-107555400D01*
X126565588Y-107679882D01*
X126601898Y-107799580D01*
X126660863Y-107909894D01*
X126740215Y-108006585D01*
X126836906Y-108085937D01*
X126947220Y-108144902D01*
X127066918Y-108181212D01*
X127191400Y-108193472D01*
X128891400Y-108193472D01*
X129015882Y-108181212D01*
X129135580Y-108144902D01*
X129245894Y-108085937D01*
X129342585Y-108006585D01*
X129421937Y-107909894D01*
X129480902Y-107799580D01*
X129517212Y-107679882D01*
X129529472Y-107555400D01*
X130134728Y-107555400D01*
X130146988Y-107679882D01*
X130183298Y-107799580D01*
X130242263Y-107909894D01*
X130321615Y-108006585D01*
X130418306Y-108085937D01*
X130528620Y-108144902D01*
X130648318Y-108181212D01*
X130772800Y-108193472D01*
X131337050Y-108190400D01*
X131495800Y-108031650D01*
X131495800Y-106832400D01*
X131749800Y-106832400D01*
X131749800Y-108031650D01*
X131908550Y-108190400D01*
X132472800Y-108193472D01*
X132597282Y-108181212D01*
X132716980Y-108144902D01*
X132827294Y-108085937D01*
X132923985Y-108006585D01*
X133003337Y-107909894D01*
X133062302Y-107799580D01*
X133098612Y-107679882D01*
X133110872Y-107555400D01*
X133107800Y-106991150D01*
X132949050Y-106832400D01*
X131749800Y-106832400D01*
X131495800Y-106832400D01*
X130296550Y-106832400D01*
X130137800Y-106991150D01*
X130134728Y-107555400D01*
X129529472Y-107555400D01*
X129529472Y-105855400D01*
X130134728Y-105855400D01*
X130137800Y-106419650D01*
X130296550Y-106578400D01*
X131495800Y-106578400D01*
X131495800Y-105379150D01*
X131749800Y-105379150D01*
X131749800Y-106578400D01*
X132949050Y-106578400D01*
X133107800Y-106419650D01*
X133110872Y-105855400D01*
X133716128Y-105855400D01*
X133716128Y-107555400D01*
X133728388Y-107679882D01*
X133764698Y-107799580D01*
X133823663Y-107909894D01*
X133903015Y-108006585D01*
X133999706Y-108085937D01*
X134110020Y-108144902D01*
X134229718Y-108181212D01*
X134354200Y-108193472D01*
X136054200Y-108193472D01*
X136178682Y-108181212D01*
X136298380Y-108144902D01*
X136408694Y-108085937D01*
X136505385Y-108006585D01*
X136584737Y-107909894D01*
X136643702Y-107799580D01*
X136680012Y-107679882D01*
X136692272Y-107555400D01*
X136692272Y-105855400D01*
X136680012Y-105730918D01*
X136643702Y-105611220D01*
X136584737Y-105500906D01*
X136505385Y-105404215D01*
X136408694Y-105324863D01*
X136298380Y-105265898D01*
X136178682Y-105229588D01*
X136054200Y-105217328D01*
X134354200Y-105217328D01*
X134229718Y-105229588D01*
X134110020Y-105265898D01*
X133999706Y-105324863D01*
X133903015Y-105404215D01*
X133823663Y-105500906D01*
X133764698Y-105611220D01*
X133728388Y-105730918D01*
X133716128Y-105855400D01*
X133110872Y-105855400D01*
X133098612Y-105730918D01*
X133062302Y-105611220D01*
X133003337Y-105500906D01*
X132923985Y-105404215D01*
X132827294Y-105324863D01*
X132716980Y-105265898D01*
X132597282Y-105229588D01*
X132472800Y-105217328D01*
X131908550Y-105220400D01*
X131749800Y-105379150D01*
X131495800Y-105379150D01*
X131337050Y-105220400D01*
X130772800Y-105217328D01*
X130648318Y-105229588D01*
X130528620Y-105265898D01*
X130418306Y-105324863D01*
X130321615Y-105404215D01*
X130242263Y-105500906D01*
X130183298Y-105611220D01*
X130146988Y-105730918D01*
X130134728Y-105855400D01*
X129529472Y-105855400D01*
X129517212Y-105730918D01*
X129480902Y-105611220D01*
X129421937Y-105500906D01*
X129342585Y-105404215D01*
X129245894Y-105324863D01*
X129135580Y-105265898D01*
X129015882Y-105229588D01*
X128891400Y-105217328D01*
X127191400Y-105217328D01*
X127066918Y-105229588D01*
X126947220Y-105265898D01*
X126836906Y-105324863D01*
X126740215Y-105404215D01*
X126660863Y-105500906D01*
X126601898Y-105611220D01*
X126565588Y-105730918D01*
X126553328Y-105855400D01*
X125922672Y-105855400D01*
X125910412Y-105730918D01*
X125874102Y-105611220D01*
X125815137Y-105500906D01*
X125735785Y-105404215D01*
X125639094Y-105324863D01*
X125528780Y-105265898D01*
X125409082Y-105229588D01*
X125284600Y-105217328D01*
X123584600Y-105217328D01*
X123460118Y-105229588D01*
X123340420Y-105265898D01*
X123230106Y-105324863D01*
X123133415Y-105404215D01*
X123054063Y-105500906D01*
X122995098Y-105611220D01*
X122958788Y-105730918D01*
X122946528Y-105855400D01*
X121919600Y-105855400D01*
X121919600Y-90160000D01*
X123137044Y-90160000D01*
X123113801Y-96900562D01*
X123113801Y-96900562D01*
G37*
X123113801Y-96900562D02*
X123116170Y-96925419D01*
X123123329Y-96949264D01*
X123135002Y-96971255D01*
X123150740Y-96990545D01*
X123169940Y-97006394D01*
X123191863Y-97018193D01*
X123215667Y-97025488D01*
X123240436Y-97027999D01*
X132105036Y-97053399D01*
X132130176Y-97050960D01*
X132154001Y-97043733D01*
X132175957Y-97031997D01*
X132195203Y-97016203D01*
X132210997Y-96996957D01*
X132222733Y-96975001D01*
X132229960Y-96951176D01*
X132232400Y-96926400D01*
X132232400Y-96763000D01*
X136942728Y-96763000D01*
X136942728Y-98563000D01*
X136954988Y-98687482D01*
X136991298Y-98807180D01*
X137050263Y-98917494D01*
X137129615Y-99014185D01*
X137226306Y-99093537D01*
X137336620Y-99152502D01*
X137456318Y-99188812D01*
X137580800Y-99201072D01*
X139380800Y-99201072D01*
X139505282Y-99188812D01*
X139624980Y-99152502D01*
X139735294Y-99093537D01*
X139831985Y-99014185D01*
X139911337Y-98917494D01*
X139970302Y-98807180D01*
X139975856Y-98788873D01*
X140042295Y-98855312D01*
X140293705Y-99023299D01*
X140573057Y-99139011D01*
X140869616Y-99198000D01*
X141171984Y-99198000D01*
X141468543Y-99139011D01*
X141747895Y-99023299D01*
X141999305Y-98855312D01*
X142213112Y-98641505D01*
X142381099Y-98390095D01*
X142496811Y-98110743D01*
X142555800Y-97814184D01*
X142555800Y-97511816D01*
X142496811Y-97215257D01*
X142381099Y-96935905D01*
X142213112Y-96684495D01*
X141999305Y-96470688D01*
X141747895Y-96302701D01*
X141468543Y-96186989D01*
X141171984Y-96128000D01*
X140869616Y-96128000D01*
X140573057Y-96186989D01*
X140293705Y-96302701D01*
X140042295Y-96470688D01*
X139975856Y-96537127D01*
X139970302Y-96518820D01*
X139911337Y-96408506D01*
X139831985Y-96311815D01*
X139735294Y-96232463D01*
X139624980Y-96173498D01*
X139505282Y-96137188D01*
X139380800Y-96124928D01*
X137580800Y-96124928D01*
X137456318Y-96137188D01*
X137336620Y-96173498D01*
X137226306Y-96232463D01*
X137129615Y-96311815D01*
X137050263Y-96408506D01*
X136991298Y-96518820D01*
X136954988Y-96638518D01*
X136942728Y-96763000D01*
X132232400Y-96763000D01*
X132232400Y-90160000D01*
X143053201Y-90160000D01*
X143053200Y-108356800D01*
X121919600Y-108356800D01*
X121919600Y-105855400D01*
X122946528Y-105855400D01*
X122946528Y-107555400D01*
X122958788Y-107679882D01*
X122995098Y-107799580D01*
X123054063Y-107909894D01*
X123133415Y-108006585D01*
X123230106Y-108085937D01*
X123340420Y-108144902D01*
X123460118Y-108181212D01*
X123584600Y-108193472D01*
X125284600Y-108193472D01*
X125409082Y-108181212D01*
X125528780Y-108144902D01*
X125639094Y-108085937D01*
X125735785Y-108006585D01*
X125815137Y-107909894D01*
X125874102Y-107799580D01*
X125910412Y-107679882D01*
X125922672Y-107555400D01*
X125922672Y-105855400D01*
X126553328Y-105855400D01*
X126553328Y-107555400D01*
X126565588Y-107679882D01*
X126601898Y-107799580D01*
X126660863Y-107909894D01*
X126740215Y-108006585D01*
X126836906Y-108085937D01*
X126947220Y-108144902D01*
X127066918Y-108181212D01*
X127191400Y-108193472D01*
X128891400Y-108193472D01*
X129015882Y-108181212D01*
X129135580Y-108144902D01*
X129245894Y-108085937D01*
X129342585Y-108006585D01*
X129421937Y-107909894D01*
X129480902Y-107799580D01*
X129517212Y-107679882D01*
X129529472Y-107555400D01*
X130134728Y-107555400D01*
X130146988Y-107679882D01*
X130183298Y-107799580D01*
X130242263Y-107909894D01*
X130321615Y-108006585D01*
X130418306Y-108085937D01*
X130528620Y-108144902D01*
X130648318Y-108181212D01*
X130772800Y-108193472D01*
X131337050Y-108190400D01*
X131495800Y-108031650D01*
X131495800Y-106832400D01*
X131749800Y-106832400D01*
X131749800Y-108031650D01*
X131908550Y-108190400D01*
X132472800Y-108193472D01*
X132597282Y-108181212D01*
X132716980Y-108144902D01*
X132827294Y-108085937D01*
X132923985Y-108006585D01*
X133003337Y-107909894D01*
X133062302Y-107799580D01*
X133098612Y-107679882D01*
X133110872Y-107555400D01*
X133107800Y-106991150D01*
X132949050Y-106832400D01*
X131749800Y-106832400D01*
X131495800Y-106832400D01*
X130296550Y-106832400D01*
X130137800Y-106991150D01*
X130134728Y-107555400D01*
X129529472Y-107555400D01*
X129529472Y-105855400D01*
X130134728Y-105855400D01*
X130137800Y-106419650D01*
X130296550Y-106578400D01*
X131495800Y-106578400D01*
X131495800Y-105379150D01*
X131749800Y-105379150D01*
X131749800Y-106578400D01*
X132949050Y-106578400D01*
X133107800Y-106419650D01*
X133110872Y-105855400D01*
X133716128Y-105855400D01*
X133716128Y-107555400D01*
X133728388Y-107679882D01*
X133764698Y-107799580D01*
X133823663Y-107909894D01*
X133903015Y-108006585D01*
X133999706Y-108085937D01*
X134110020Y-108144902D01*
X134229718Y-108181212D01*
X134354200Y-108193472D01*
X136054200Y-108193472D01*
X136178682Y-108181212D01*
X136298380Y-108144902D01*
X136408694Y-108085937D01*
X136505385Y-108006585D01*
X136584737Y-107909894D01*
X136643702Y-107799580D01*
X136680012Y-107679882D01*
X136692272Y-107555400D01*
X136692272Y-105855400D01*
X136680012Y-105730918D01*
X136643702Y-105611220D01*
X136584737Y-105500906D01*
X136505385Y-105404215D01*
X136408694Y-105324863D01*
X136298380Y-105265898D01*
X136178682Y-105229588D01*
X136054200Y-105217328D01*
X134354200Y-105217328D01*
X134229718Y-105229588D01*
X134110020Y-105265898D01*
X133999706Y-105324863D01*
X133903015Y-105404215D01*
X133823663Y-105500906D01*
X133764698Y-105611220D01*
X133728388Y-105730918D01*
X133716128Y-105855400D01*
X133110872Y-105855400D01*
X133098612Y-105730918D01*
X133062302Y-105611220D01*
X133003337Y-105500906D01*
X132923985Y-105404215D01*
X132827294Y-105324863D01*
X132716980Y-105265898D01*
X132597282Y-105229588D01*
X132472800Y-105217328D01*
X131908550Y-105220400D01*
X131749800Y-105379150D01*
X131495800Y-105379150D01*
X131337050Y-105220400D01*
X130772800Y-105217328D01*
X130648318Y-105229588D01*
X130528620Y-105265898D01*
X130418306Y-105324863D01*
X130321615Y-105404215D01*
X130242263Y-105500906D01*
X130183298Y-105611220D01*
X130146988Y-105730918D01*
X130134728Y-105855400D01*
X129529472Y-105855400D01*
X129517212Y-105730918D01*
X129480902Y-105611220D01*
X129421937Y-105500906D01*
X129342585Y-105404215D01*
X129245894Y-105324863D01*
X129135580Y-105265898D01*
X129015882Y-105229588D01*
X128891400Y-105217328D01*
X127191400Y-105217328D01*
X127066918Y-105229588D01*
X126947220Y-105265898D01*
X126836906Y-105324863D01*
X126740215Y-105404215D01*
X126660863Y-105500906D01*
X126601898Y-105611220D01*
X126565588Y-105730918D01*
X126553328Y-105855400D01*
X125922672Y-105855400D01*
X125910412Y-105730918D01*
X125874102Y-105611220D01*
X125815137Y-105500906D01*
X125735785Y-105404215D01*
X125639094Y-105324863D01*
X125528780Y-105265898D01*
X125409082Y-105229588D01*
X125284600Y-105217328D01*
X123584600Y-105217328D01*
X123460118Y-105229588D01*
X123340420Y-105265898D01*
X123230106Y-105324863D01*
X123133415Y-105404215D01*
X123054063Y-105500906D01*
X122995098Y-105611220D01*
X122958788Y-105730918D01*
X122946528Y-105855400D01*
X121919600Y-105855400D01*
X121919600Y-90160000D01*
X123137044Y-90160000D01*
X123113801Y-96900562D01*
M02*
