G04 #@! TF.GenerationSoftware,KiCad,Pcbnew,(5.1.4)-1*
G04 #@! TF.CreationDate,2020-05-08T13:54:39-05:00*
G04 #@! TF.ProjectId,RN4871Board,524e3438-3731-4426-9f61-72642e6b6963,rev?*
G04 #@! TF.SameCoordinates,Original*
G04 #@! TF.FileFunction,Soldermask,Bot*
G04 #@! TF.FilePolarity,Negative*
%FSLAX46Y46*%
G04 Gerber Fmt 4.6, Leading zero omitted, Abs format (unit mm)*
G04 Created by KiCad (PCBNEW (5.1.4)-1) date 2020-05-08 13:54:39*
%MOMM*%
%LPD*%
G04 APERTURE LIST*
%ADD10C,0.100000*%
G04 APERTURE END LIST*
D10*
G36*
X136105200Y-107606400D02*
G01*
X134303200Y-107606400D01*
X134303200Y-105804400D01*
X136105200Y-105804400D01*
X136105200Y-107606400D01*
X136105200Y-107606400D01*
G37*
G36*
X132523800Y-107606400D02*
G01*
X130721800Y-107606400D01*
X130721800Y-105804400D01*
X132523800Y-105804400D01*
X132523800Y-107606400D01*
X132523800Y-107606400D01*
G37*
G36*
X128942400Y-107606400D02*
G01*
X127140400Y-107606400D01*
X127140400Y-105804400D01*
X128942400Y-105804400D01*
X128942400Y-107606400D01*
X128942400Y-107606400D01*
G37*
G36*
X125335600Y-107606400D02*
G01*
X123533600Y-107606400D01*
X123533600Y-105804400D01*
X125335600Y-105804400D01*
X125335600Y-107606400D01*
X125335600Y-107606400D01*
G37*
G36*
X141298195Y-96748546D02*
G01*
X141471266Y-96820234D01*
X141471267Y-96820235D01*
X141627027Y-96924310D01*
X141759490Y-97056773D01*
X141759491Y-97056775D01*
X141863566Y-97212534D01*
X141935254Y-97385605D01*
X141971800Y-97569333D01*
X141971800Y-97756667D01*
X141935254Y-97940395D01*
X141863566Y-98113466D01*
X141863565Y-98113467D01*
X141759490Y-98269227D01*
X141627027Y-98401690D01*
X141548618Y-98454081D01*
X141471266Y-98505766D01*
X141298195Y-98577454D01*
X141114467Y-98614000D01*
X140927133Y-98614000D01*
X140743405Y-98577454D01*
X140570334Y-98505766D01*
X140492982Y-98454081D01*
X140414573Y-98401690D01*
X140282110Y-98269227D01*
X140178035Y-98113467D01*
X140178034Y-98113466D01*
X140106346Y-97940395D01*
X140069800Y-97756667D01*
X140069800Y-97569333D01*
X140106346Y-97385605D01*
X140178034Y-97212534D01*
X140282109Y-97056775D01*
X140282110Y-97056773D01*
X140414573Y-96924310D01*
X140570333Y-96820235D01*
X140570334Y-96820234D01*
X140743405Y-96748546D01*
X140927133Y-96712000D01*
X141114467Y-96712000D01*
X141298195Y-96748546D01*
X141298195Y-96748546D01*
G37*
G36*
X139431800Y-98614000D02*
G01*
X137529800Y-98614000D01*
X137529800Y-96712000D01*
X139431800Y-96712000D01*
X139431800Y-98614000D01*
X139431800Y-98614000D01*
G37*
M02*
