G04 #@! TF.GenerationSoftware,KiCad,Pcbnew,(5.1.4)-1*
G04 #@! TF.CreationDate,2020-05-08T13:54:39-05:00*
G04 #@! TF.ProjectId,RN4871Board,524e3438-3731-4426-9f61-72642e6b6963,rev?*
G04 #@! TF.SameCoordinates,Original*
G04 #@! TF.FileFunction,Paste,Top*
G04 #@! TF.FilePolarity,Positive*
%FSLAX46Y46*%
G04 Gerber Fmt 4.6, Leading zero omitted, Abs format (unit mm)*
G04 Created by KiCad (PCBNEW (5.1.4)-1) date 2020-05-08 13:54:39*
%MOMM*%
%LPD*%
G04 APERTURE LIST*
%ADD10R,0.700000X1.500000*%
%ADD11R,1.500000X0.700000*%
%ADD12C,0.100000*%
%ADD13C,0.950000*%
G04 APERTURE END LIST*
D10*
X130694601Y-96742001D03*
X129494601Y-96742001D03*
X128294601Y-96742001D03*
X127094601Y-96742001D03*
X125894601Y-96742001D03*
X124694601Y-96742001D03*
D11*
X131944601Y-90292001D03*
X131944601Y-91492001D03*
X131944601Y-92692001D03*
X131944601Y-93892001D03*
X131944601Y-95092001D03*
X123444601Y-90292001D03*
X123444601Y-91492001D03*
X123444601Y-92692001D03*
X123444601Y-93892001D03*
X123444601Y-95092001D03*
D12*
G36*
X129853379Y-100770544D02*
G01*
X129876434Y-100773963D01*
X129899043Y-100779627D01*
X129920987Y-100787479D01*
X129942057Y-100797444D01*
X129962048Y-100809426D01*
X129980768Y-100823310D01*
X129998038Y-100838962D01*
X130013690Y-100856232D01*
X130027574Y-100874952D01*
X130039556Y-100894943D01*
X130049521Y-100916013D01*
X130057373Y-100937957D01*
X130063037Y-100960566D01*
X130066456Y-100983621D01*
X130067600Y-101006900D01*
X130067600Y-101481900D01*
X130066456Y-101505179D01*
X130063037Y-101528234D01*
X130057373Y-101550843D01*
X130049521Y-101572787D01*
X130039556Y-101593857D01*
X130027574Y-101613848D01*
X130013690Y-101632568D01*
X129998038Y-101649838D01*
X129980768Y-101665490D01*
X129962048Y-101679374D01*
X129942057Y-101691356D01*
X129920987Y-101701321D01*
X129899043Y-101709173D01*
X129876434Y-101714837D01*
X129853379Y-101718256D01*
X129830100Y-101719400D01*
X129255100Y-101719400D01*
X129231821Y-101718256D01*
X129208766Y-101714837D01*
X129186157Y-101709173D01*
X129164213Y-101701321D01*
X129143143Y-101691356D01*
X129123152Y-101679374D01*
X129104432Y-101665490D01*
X129087162Y-101649838D01*
X129071510Y-101632568D01*
X129057626Y-101613848D01*
X129045644Y-101593857D01*
X129035679Y-101572787D01*
X129027827Y-101550843D01*
X129022163Y-101528234D01*
X129018744Y-101505179D01*
X129017600Y-101481900D01*
X129017600Y-101006900D01*
X129018744Y-100983621D01*
X129022163Y-100960566D01*
X129027827Y-100937957D01*
X129035679Y-100916013D01*
X129045644Y-100894943D01*
X129057626Y-100874952D01*
X129071510Y-100856232D01*
X129087162Y-100838962D01*
X129104432Y-100823310D01*
X129123152Y-100809426D01*
X129143143Y-100797444D01*
X129164213Y-100787479D01*
X129186157Y-100779627D01*
X129208766Y-100773963D01*
X129231821Y-100770544D01*
X129255100Y-100769400D01*
X129830100Y-100769400D01*
X129853379Y-100770544D01*
X129853379Y-100770544D01*
G37*
D13*
X129542600Y-101244400D03*
D12*
G36*
X131603379Y-100770544D02*
G01*
X131626434Y-100773963D01*
X131649043Y-100779627D01*
X131670987Y-100787479D01*
X131692057Y-100797444D01*
X131712048Y-100809426D01*
X131730768Y-100823310D01*
X131748038Y-100838962D01*
X131763690Y-100856232D01*
X131777574Y-100874952D01*
X131789556Y-100894943D01*
X131799521Y-100916013D01*
X131807373Y-100937957D01*
X131813037Y-100960566D01*
X131816456Y-100983621D01*
X131817600Y-101006900D01*
X131817600Y-101481900D01*
X131816456Y-101505179D01*
X131813037Y-101528234D01*
X131807373Y-101550843D01*
X131799521Y-101572787D01*
X131789556Y-101593857D01*
X131777574Y-101613848D01*
X131763690Y-101632568D01*
X131748038Y-101649838D01*
X131730768Y-101665490D01*
X131712048Y-101679374D01*
X131692057Y-101691356D01*
X131670987Y-101701321D01*
X131649043Y-101709173D01*
X131626434Y-101714837D01*
X131603379Y-101718256D01*
X131580100Y-101719400D01*
X131005100Y-101719400D01*
X130981821Y-101718256D01*
X130958766Y-101714837D01*
X130936157Y-101709173D01*
X130914213Y-101701321D01*
X130893143Y-101691356D01*
X130873152Y-101679374D01*
X130854432Y-101665490D01*
X130837162Y-101649838D01*
X130821510Y-101632568D01*
X130807626Y-101613848D01*
X130795644Y-101593857D01*
X130785679Y-101572787D01*
X130777827Y-101550843D01*
X130772163Y-101528234D01*
X130768744Y-101505179D01*
X130767600Y-101481900D01*
X130767600Y-101006900D01*
X130768744Y-100983621D01*
X130772163Y-100960566D01*
X130777827Y-100937957D01*
X130785679Y-100916013D01*
X130795644Y-100894943D01*
X130807626Y-100874952D01*
X130821510Y-100856232D01*
X130837162Y-100838962D01*
X130854432Y-100823310D01*
X130873152Y-100809426D01*
X130893143Y-100797444D01*
X130914213Y-100787479D01*
X130936157Y-100779627D01*
X130958766Y-100773963D01*
X130981821Y-100770544D01*
X131005100Y-100769400D01*
X131580100Y-100769400D01*
X131603379Y-100770544D01*
X131603379Y-100770544D01*
G37*
D13*
X131292600Y-101244400D03*
D12*
G36*
X136176179Y-93823144D02*
G01*
X136199234Y-93826563D01*
X136221843Y-93832227D01*
X136243787Y-93840079D01*
X136264857Y-93850044D01*
X136284848Y-93862026D01*
X136303568Y-93875910D01*
X136320838Y-93891562D01*
X136336490Y-93908832D01*
X136350374Y-93927552D01*
X136362356Y-93947543D01*
X136372321Y-93968613D01*
X136380173Y-93990557D01*
X136385837Y-94013166D01*
X136389256Y-94036221D01*
X136390400Y-94059500D01*
X136390400Y-94634500D01*
X136389256Y-94657779D01*
X136385837Y-94680834D01*
X136380173Y-94703443D01*
X136372321Y-94725387D01*
X136362356Y-94746457D01*
X136350374Y-94766448D01*
X136336490Y-94785168D01*
X136320838Y-94802438D01*
X136303568Y-94818090D01*
X136284848Y-94831974D01*
X136264857Y-94843956D01*
X136243787Y-94853921D01*
X136221843Y-94861773D01*
X136199234Y-94867437D01*
X136176179Y-94870856D01*
X136152900Y-94872000D01*
X135677900Y-94872000D01*
X135654621Y-94870856D01*
X135631566Y-94867437D01*
X135608957Y-94861773D01*
X135587013Y-94853921D01*
X135565943Y-94843956D01*
X135545952Y-94831974D01*
X135527232Y-94818090D01*
X135509962Y-94802438D01*
X135494310Y-94785168D01*
X135480426Y-94766448D01*
X135468444Y-94746457D01*
X135458479Y-94725387D01*
X135450627Y-94703443D01*
X135444963Y-94680834D01*
X135441544Y-94657779D01*
X135440400Y-94634500D01*
X135440400Y-94059500D01*
X135441544Y-94036221D01*
X135444963Y-94013166D01*
X135450627Y-93990557D01*
X135458479Y-93968613D01*
X135468444Y-93947543D01*
X135480426Y-93927552D01*
X135494310Y-93908832D01*
X135509962Y-93891562D01*
X135527232Y-93875910D01*
X135545952Y-93862026D01*
X135565943Y-93850044D01*
X135587013Y-93840079D01*
X135608957Y-93832227D01*
X135631566Y-93826563D01*
X135654621Y-93823144D01*
X135677900Y-93822000D01*
X136152900Y-93822000D01*
X136176179Y-93823144D01*
X136176179Y-93823144D01*
G37*
D13*
X135915400Y-94347000D03*
D12*
G36*
X136176179Y-92073144D02*
G01*
X136199234Y-92076563D01*
X136221843Y-92082227D01*
X136243787Y-92090079D01*
X136264857Y-92100044D01*
X136284848Y-92112026D01*
X136303568Y-92125910D01*
X136320838Y-92141562D01*
X136336490Y-92158832D01*
X136350374Y-92177552D01*
X136362356Y-92197543D01*
X136372321Y-92218613D01*
X136380173Y-92240557D01*
X136385837Y-92263166D01*
X136389256Y-92286221D01*
X136390400Y-92309500D01*
X136390400Y-92884500D01*
X136389256Y-92907779D01*
X136385837Y-92930834D01*
X136380173Y-92953443D01*
X136372321Y-92975387D01*
X136362356Y-92996457D01*
X136350374Y-93016448D01*
X136336490Y-93035168D01*
X136320838Y-93052438D01*
X136303568Y-93068090D01*
X136284848Y-93081974D01*
X136264857Y-93093956D01*
X136243787Y-93103921D01*
X136221843Y-93111773D01*
X136199234Y-93117437D01*
X136176179Y-93120856D01*
X136152900Y-93122000D01*
X135677900Y-93122000D01*
X135654621Y-93120856D01*
X135631566Y-93117437D01*
X135608957Y-93111773D01*
X135587013Y-93103921D01*
X135565943Y-93093956D01*
X135545952Y-93081974D01*
X135527232Y-93068090D01*
X135509962Y-93052438D01*
X135494310Y-93035168D01*
X135480426Y-93016448D01*
X135468444Y-92996457D01*
X135458479Y-92975387D01*
X135450627Y-92953443D01*
X135444963Y-92930834D01*
X135441544Y-92907779D01*
X135440400Y-92884500D01*
X135440400Y-92309500D01*
X135441544Y-92286221D01*
X135444963Y-92263166D01*
X135450627Y-92240557D01*
X135458479Y-92218613D01*
X135468444Y-92197543D01*
X135480426Y-92177552D01*
X135494310Y-92158832D01*
X135509962Y-92141562D01*
X135527232Y-92125910D01*
X135545952Y-92112026D01*
X135565943Y-92100044D01*
X135587013Y-92090079D01*
X135608957Y-92082227D01*
X135631566Y-92076563D01*
X135654621Y-92073144D01*
X135677900Y-92072000D01*
X136152900Y-92072000D01*
X136176179Y-92073144D01*
X136176179Y-92073144D01*
G37*
D13*
X135915400Y-92597000D03*
D12*
G36*
X136237579Y-97265344D02*
G01*
X136260634Y-97268763D01*
X136283243Y-97274427D01*
X136305187Y-97282279D01*
X136326257Y-97292244D01*
X136346248Y-97304226D01*
X136364968Y-97318110D01*
X136382238Y-97333762D01*
X136397890Y-97351032D01*
X136411774Y-97369752D01*
X136423756Y-97389743D01*
X136433721Y-97410813D01*
X136441573Y-97432757D01*
X136447237Y-97455366D01*
X136450656Y-97478421D01*
X136451800Y-97501700D01*
X136451800Y-97976700D01*
X136450656Y-97999979D01*
X136447237Y-98023034D01*
X136441573Y-98045643D01*
X136433721Y-98067587D01*
X136423756Y-98088657D01*
X136411774Y-98108648D01*
X136397890Y-98127368D01*
X136382238Y-98144638D01*
X136364968Y-98160290D01*
X136346248Y-98174174D01*
X136326257Y-98186156D01*
X136305187Y-98196121D01*
X136283243Y-98203973D01*
X136260634Y-98209637D01*
X136237579Y-98213056D01*
X136214300Y-98214200D01*
X135639300Y-98214200D01*
X135616021Y-98213056D01*
X135592966Y-98209637D01*
X135570357Y-98203973D01*
X135548413Y-98196121D01*
X135527343Y-98186156D01*
X135507352Y-98174174D01*
X135488632Y-98160290D01*
X135471362Y-98144638D01*
X135455710Y-98127368D01*
X135441826Y-98108648D01*
X135429844Y-98088657D01*
X135419879Y-98067587D01*
X135412027Y-98045643D01*
X135406363Y-98023034D01*
X135402944Y-97999979D01*
X135401800Y-97976700D01*
X135401800Y-97501700D01*
X135402944Y-97478421D01*
X135406363Y-97455366D01*
X135412027Y-97432757D01*
X135419879Y-97410813D01*
X135429844Y-97389743D01*
X135441826Y-97369752D01*
X135455710Y-97351032D01*
X135471362Y-97333762D01*
X135488632Y-97318110D01*
X135507352Y-97304226D01*
X135527343Y-97292244D01*
X135548413Y-97282279D01*
X135570357Y-97274427D01*
X135592966Y-97268763D01*
X135616021Y-97265344D01*
X135639300Y-97264200D01*
X136214300Y-97264200D01*
X136237579Y-97265344D01*
X136237579Y-97265344D01*
G37*
D13*
X135926800Y-97739200D03*
D12*
G36*
X134487579Y-97265344D02*
G01*
X134510634Y-97268763D01*
X134533243Y-97274427D01*
X134555187Y-97282279D01*
X134576257Y-97292244D01*
X134596248Y-97304226D01*
X134614968Y-97318110D01*
X134632238Y-97333762D01*
X134647890Y-97351032D01*
X134661774Y-97369752D01*
X134673756Y-97389743D01*
X134683721Y-97410813D01*
X134691573Y-97432757D01*
X134697237Y-97455366D01*
X134700656Y-97478421D01*
X134701800Y-97501700D01*
X134701800Y-97976700D01*
X134700656Y-97999979D01*
X134697237Y-98023034D01*
X134691573Y-98045643D01*
X134683721Y-98067587D01*
X134673756Y-98088657D01*
X134661774Y-98108648D01*
X134647890Y-98127368D01*
X134632238Y-98144638D01*
X134614968Y-98160290D01*
X134596248Y-98174174D01*
X134576257Y-98186156D01*
X134555187Y-98196121D01*
X134533243Y-98203973D01*
X134510634Y-98209637D01*
X134487579Y-98213056D01*
X134464300Y-98214200D01*
X133889300Y-98214200D01*
X133866021Y-98213056D01*
X133842966Y-98209637D01*
X133820357Y-98203973D01*
X133798413Y-98196121D01*
X133777343Y-98186156D01*
X133757352Y-98174174D01*
X133738632Y-98160290D01*
X133721362Y-98144638D01*
X133705710Y-98127368D01*
X133691826Y-98108648D01*
X133679844Y-98088657D01*
X133669879Y-98067587D01*
X133662027Y-98045643D01*
X133656363Y-98023034D01*
X133652944Y-97999979D01*
X133651800Y-97976700D01*
X133651800Y-97501700D01*
X133652944Y-97478421D01*
X133656363Y-97455366D01*
X133662027Y-97432757D01*
X133669879Y-97410813D01*
X133679844Y-97389743D01*
X133691826Y-97369752D01*
X133705710Y-97351032D01*
X133721362Y-97333762D01*
X133738632Y-97318110D01*
X133757352Y-97304226D01*
X133777343Y-97292244D01*
X133798413Y-97282279D01*
X133820357Y-97274427D01*
X133842966Y-97268763D01*
X133866021Y-97265344D01*
X133889300Y-97264200D01*
X134464300Y-97264200D01*
X134487579Y-97265344D01*
X134487579Y-97265344D01*
G37*
D13*
X134176800Y-97739200D03*
D12*
G36*
X133217579Y-100770544D02*
G01*
X133240634Y-100773963D01*
X133263243Y-100779627D01*
X133285187Y-100787479D01*
X133306257Y-100797444D01*
X133326248Y-100809426D01*
X133344968Y-100823310D01*
X133362238Y-100838962D01*
X133377890Y-100856232D01*
X133391774Y-100874952D01*
X133403756Y-100894943D01*
X133413721Y-100916013D01*
X133421573Y-100937957D01*
X133427237Y-100960566D01*
X133430656Y-100983621D01*
X133431800Y-101006900D01*
X133431800Y-101481900D01*
X133430656Y-101505179D01*
X133427237Y-101528234D01*
X133421573Y-101550843D01*
X133413721Y-101572787D01*
X133403756Y-101593857D01*
X133391774Y-101613848D01*
X133377890Y-101632568D01*
X133362238Y-101649838D01*
X133344968Y-101665490D01*
X133326248Y-101679374D01*
X133306257Y-101691356D01*
X133285187Y-101701321D01*
X133263243Y-101709173D01*
X133240634Y-101714837D01*
X133217579Y-101718256D01*
X133194300Y-101719400D01*
X132619300Y-101719400D01*
X132596021Y-101718256D01*
X132572966Y-101714837D01*
X132550357Y-101709173D01*
X132528413Y-101701321D01*
X132507343Y-101691356D01*
X132487352Y-101679374D01*
X132468632Y-101665490D01*
X132451362Y-101649838D01*
X132435710Y-101632568D01*
X132421826Y-101613848D01*
X132409844Y-101593857D01*
X132399879Y-101572787D01*
X132392027Y-101550843D01*
X132386363Y-101528234D01*
X132382944Y-101505179D01*
X132381800Y-101481900D01*
X132381800Y-101006900D01*
X132382944Y-100983621D01*
X132386363Y-100960566D01*
X132392027Y-100937957D01*
X132399879Y-100916013D01*
X132409844Y-100894943D01*
X132421826Y-100874952D01*
X132435710Y-100856232D01*
X132451362Y-100838962D01*
X132468632Y-100823310D01*
X132487352Y-100809426D01*
X132507343Y-100797444D01*
X132528413Y-100787479D01*
X132550357Y-100779627D01*
X132572966Y-100773963D01*
X132596021Y-100770544D01*
X132619300Y-100769400D01*
X133194300Y-100769400D01*
X133217579Y-100770544D01*
X133217579Y-100770544D01*
G37*
D13*
X132906800Y-101244400D03*
D12*
G36*
X134967579Y-100770544D02*
G01*
X134990634Y-100773963D01*
X135013243Y-100779627D01*
X135035187Y-100787479D01*
X135056257Y-100797444D01*
X135076248Y-100809426D01*
X135094968Y-100823310D01*
X135112238Y-100838962D01*
X135127890Y-100856232D01*
X135141774Y-100874952D01*
X135153756Y-100894943D01*
X135163721Y-100916013D01*
X135171573Y-100937957D01*
X135177237Y-100960566D01*
X135180656Y-100983621D01*
X135181800Y-101006900D01*
X135181800Y-101481900D01*
X135180656Y-101505179D01*
X135177237Y-101528234D01*
X135171573Y-101550843D01*
X135163721Y-101572787D01*
X135153756Y-101593857D01*
X135141774Y-101613848D01*
X135127890Y-101632568D01*
X135112238Y-101649838D01*
X135094968Y-101665490D01*
X135076248Y-101679374D01*
X135056257Y-101691356D01*
X135035187Y-101701321D01*
X135013243Y-101709173D01*
X134990634Y-101714837D01*
X134967579Y-101718256D01*
X134944300Y-101719400D01*
X134369300Y-101719400D01*
X134346021Y-101718256D01*
X134322966Y-101714837D01*
X134300357Y-101709173D01*
X134278413Y-101701321D01*
X134257343Y-101691356D01*
X134237352Y-101679374D01*
X134218632Y-101665490D01*
X134201362Y-101649838D01*
X134185710Y-101632568D01*
X134171826Y-101613848D01*
X134159844Y-101593857D01*
X134149879Y-101572787D01*
X134142027Y-101550843D01*
X134136363Y-101528234D01*
X134132944Y-101505179D01*
X134131800Y-101481900D01*
X134131800Y-101006900D01*
X134132944Y-100983621D01*
X134136363Y-100960566D01*
X134142027Y-100937957D01*
X134149879Y-100916013D01*
X134159844Y-100894943D01*
X134171826Y-100874952D01*
X134185710Y-100856232D01*
X134201362Y-100838962D01*
X134218632Y-100823310D01*
X134237352Y-100809426D01*
X134257343Y-100797444D01*
X134278413Y-100787479D01*
X134300357Y-100779627D01*
X134322966Y-100773963D01*
X134346021Y-100770544D01*
X134369300Y-100769400D01*
X134944300Y-100769400D01*
X134967579Y-100770544D01*
X134967579Y-100770544D01*
G37*
D13*
X134656800Y-101244400D03*
M02*
