G04 #@! TF.GenerationSoftware,KiCad,Pcbnew,(5.1.6)-1*
G04 #@! TF.CreationDate,2021-04-29T20:19:19-05:00*
G04 #@! TF.ProjectId,BEncoderBoard3(4),42456e63-6f64-4657-9242-6f6172643328,v1.0*
G04 #@! TF.SameCoordinates,Original*
G04 #@! TF.FileFunction,Soldermask,Top*
G04 #@! TF.FilePolarity,Negative*
%FSLAX46Y46*%
G04 Gerber Fmt 4.6, Leading zero omitted, Abs format (unit mm)*
G04 Created by KiCad (PCBNEW (5.1.6)-1) date 2021-04-29 20:19:19*
%MOMM*%
%LPD*%
G01*
G04 APERTURE LIST*
%ADD10C,0.100000*%
G04 APERTURE END LIST*
D10*
G36*
X147719000Y-93426800D02*
G01*
X145817000Y-93426800D01*
X145817000Y-90824800D01*
X147719000Y-90824800D01*
X147719000Y-93426800D01*
G37*
G36*
X150119000Y-93426800D02*
G01*
X148217000Y-93426800D01*
X148217000Y-90824800D01*
X150119000Y-90824800D01*
X150119000Y-93426800D01*
G37*
G36*
X145319000Y-93426800D02*
G01*
X143417000Y-93426800D01*
X143417000Y-90824800D01*
X145319000Y-90824800D01*
X145319000Y-93426800D01*
G37*
G36*
X147538000Y-87468801D02*
G01*
X147540402Y-87493187D01*
X147547515Y-87516636D01*
X147559066Y-87538247D01*
X147574611Y-87557189D01*
X147593553Y-87572734D01*
X147615164Y-87584285D01*
X147638613Y-87591398D01*
X147662999Y-87593800D01*
X148328000Y-87593800D01*
X148328000Y-89545800D01*
X147662999Y-89545800D01*
X147638613Y-89548202D01*
X147615164Y-89555315D01*
X147593553Y-89566866D01*
X147574611Y-89582411D01*
X147559066Y-89601353D01*
X147547515Y-89622964D01*
X147540402Y-89646413D01*
X147538000Y-89670799D01*
X147538000Y-89835800D01*
X146086000Y-89835800D01*
X146086000Y-89670799D01*
X146083598Y-89646413D01*
X146076485Y-89622964D01*
X146064934Y-89601353D01*
X146049389Y-89582411D01*
X146030447Y-89566866D01*
X146008836Y-89555315D01*
X145985387Y-89548202D01*
X145961001Y-89545800D01*
X145296000Y-89545800D01*
X145296000Y-88140799D01*
X146008000Y-88140799D01*
X146008000Y-88998801D01*
X146010402Y-89023187D01*
X146017515Y-89046636D01*
X146029066Y-89068247D01*
X146044611Y-89087189D01*
X146063553Y-89102734D01*
X146085164Y-89114285D01*
X146108613Y-89121398D01*
X146132999Y-89123800D01*
X147491001Y-89123800D01*
X147515387Y-89121398D01*
X147538836Y-89114285D01*
X147560447Y-89102734D01*
X147579389Y-89087189D01*
X147594934Y-89068247D01*
X147606485Y-89046636D01*
X147613598Y-89023187D01*
X147616000Y-88998801D01*
X147616000Y-88140799D01*
X147613598Y-88116413D01*
X147606485Y-88092964D01*
X147594934Y-88071353D01*
X147579389Y-88052411D01*
X147560447Y-88036866D01*
X147538836Y-88025315D01*
X147515387Y-88018202D01*
X147491001Y-88015800D01*
X146132999Y-88015800D01*
X146108613Y-88018202D01*
X146085164Y-88025315D01*
X146063553Y-88036866D01*
X146044611Y-88052411D01*
X146029066Y-88071353D01*
X146017515Y-88092964D01*
X146010402Y-88116413D01*
X146008000Y-88140799D01*
X145296000Y-88140799D01*
X145296000Y-87593800D01*
X145961001Y-87593800D01*
X145985387Y-87591398D01*
X146008836Y-87584285D01*
X146030447Y-87572734D01*
X146049389Y-87557189D01*
X146064934Y-87538247D01*
X146076485Y-87516636D01*
X146083598Y-87493187D01*
X146086000Y-87468801D01*
X146086000Y-87303800D01*
X147538000Y-87303800D01*
X147538000Y-87468801D01*
G37*
G36*
X144636499Y-87476245D02*
G01*
X144673995Y-87487620D01*
X144708554Y-87506092D01*
X144738847Y-87530953D01*
X144763708Y-87561246D01*
X144782180Y-87595805D01*
X144793555Y-87633301D01*
X144798000Y-87678438D01*
X144798000Y-88417162D01*
X144793555Y-88462299D01*
X144782180Y-88499795D01*
X144763708Y-88534354D01*
X144738847Y-88564647D01*
X144708554Y-88589508D01*
X144673995Y-88607980D01*
X144636499Y-88619355D01*
X144591362Y-88623800D01*
X143952638Y-88623800D01*
X143907501Y-88619355D01*
X143870005Y-88607980D01*
X143835446Y-88589508D01*
X143805153Y-88564647D01*
X143780292Y-88534354D01*
X143761820Y-88499795D01*
X143750445Y-88462299D01*
X143746000Y-88417162D01*
X143746000Y-87678438D01*
X143750445Y-87633301D01*
X143761820Y-87595805D01*
X143780292Y-87561246D01*
X143805153Y-87530953D01*
X143835446Y-87506092D01*
X143870005Y-87487620D01*
X143907501Y-87476245D01*
X143952638Y-87471800D01*
X144591362Y-87471800D01*
X144636499Y-87476245D01*
G37*
G36*
X144636499Y-85726245D02*
G01*
X144673995Y-85737620D01*
X144708554Y-85756092D01*
X144738847Y-85780953D01*
X144763708Y-85811246D01*
X144782180Y-85845805D01*
X144793555Y-85883301D01*
X144798000Y-85928438D01*
X144798000Y-86667162D01*
X144793555Y-86712299D01*
X144782180Y-86749795D01*
X144763708Y-86784354D01*
X144738847Y-86814647D01*
X144708554Y-86839508D01*
X144673995Y-86857980D01*
X144636499Y-86869355D01*
X144591362Y-86873800D01*
X143952638Y-86873800D01*
X143907501Y-86869355D01*
X143870005Y-86857980D01*
X143835446Y-86839508D01*
X143805153Y-86814647D01*
X143780292Y-86784354D01*
X143761820Y-86749795D01*
X143750445Y-86712299D01*
X143746000Y-86667162D01*
X143746000Y-85928438D01*
X143750445Y-85883301D01*
X143761820Y-85845805D01*
X143780292Y-85811246D01*
X143805153Y-85780953D01*
X143835446Y-85756092D01*
X143870005Y-85737620D01*
X143907501Y-85726245D01*
X143952638Y-85721800D01*
X144591362Y-85721800D01*
X144636499Y-85726245D01*
G37*
G36*
X149498499Y-85762245D02*
G01*
X149535995Y-85773620D01*
X149570554Y-85792092D01*
X149600847Y-85816953D01*
X149625708Y-85847246D01*
X149644180Y-85881805D01*
X149655555Y-85919301D01*
X149660000Y-85964438D01*
X149660000Y-86603162D01*
X149655555Y-86648299D01*
X149644180Y-86685795D01*
X149625708Y-86720354D01*
X149600847Y-86750647D01*
X149570554Y-86775508D01*
X149535995Y-86793980D01*
X149498499Y-86805355D01*
X149453362Y-86809800D01*
X148714638Y-86809800D01*
X148669501Y-86805355D01*
X148632005Y-86793980D01*
X148597446Y-86775508D01*
X148567153Y-86750647D01*
X148542292Y-86720354D01*
X148523820Y-86685795D01*
X148512445Y-86648299D01*
X148508000Y-86603162D01*
X148508000Y-85964438D01*
X148512445Y-85919301D01*
X148523820Y-85881805D01*
X148542292Y-85847246D01*
X148567153Y-85816953D01*
X148597446Y-85792092D01*
X148632005Y-85773620D01*
X148669501Y-85762245D01*
X148714638Y-85757800D01*
X149453362Y-85757800D01*
X149498499Y-85762245D01*
G37*
G36*
X147748499Y-85762245D02*
G01*
X147785995Y-85773620D01*
X147820554Y-85792092D01*
X147850847Y-85816953D01*
X147875708Y-85847246D01*
X147894180Y-85881805D01*
X147905555Y-85919301D01*
X147910000Y-85964438D01*
X147910000Y-86603162D01*
X147905555Y-86648299D01*
X147894180Y-86685795D01*
X147875708Y-86720354D01*
X147850847Y-86750647D01*
X147820554Y-86775508D01*
X147785995Y-86793980D01*
X147748499Y-86805355D01*
X147703362Y-86809800D01*
X146964638Y-86809800D01*
X146919501Y-86805355D01*
X146882005Y-86793980D01*
X146847446Y-86775508D01*
X146817153Y-86750647D01*
X146792292Y-86720354D01*
X146773820Y-86685795D01*
X146762445Y-86648299D01*
X146758000Y-86603162D01*
X146758000Y-85964438D01*
X146762445Y-85919301D01*
X146773820Y-85881805D01*
X146792292Y-85847246D01*
X146817153Y-85816953D01*
X146847446Y-85792092D01*
X146882005Y-85773620D01*
X146919501Y-85762245D01*
X146964638Y-85757800D01*
X147703362Y-85757800D01*
X147748499Y-85762245D01*
G37*
G36*
X150412200Y-85140800D02*
G01*
X143110200Y-85140800D01*
X143110200Y-81838800D01*
X150412200Y-81838800D01*
X150412200Y-85140800D01*
G37*
M02*
