G04 #@! TF.GenerationSoftware,KiCad,Pcbnew,(5.1.6)-1*
G04 #@! TF.CreationDate,2021-04-29T20:17:03-05:00*
G04 #@! TF.ProjectId,BEncoderBoard3(3.2),42456e63-6f64-4657-9242-6f6172643328,rev?*
G04 #@! TF.SameCoordinates,Original*
G04 #@! TF.FileFunction,Copper,L1,Top*
G04 #@! TF.FilePolarity,Positive*
%FSLAX46Y46*%
G04 Gerber Fmt 4.6, Leading zero omitted, Abs format (unit mm)*
G04 Created by KiCad (PCBNEW (5.1.6)-1) date 2021-04-29 20:17:03*
%MOMM*%
%LPD*%
G01*
G04 APERTURE LIST*
G04 #@! TA.AperFunction,EtchedComponent*
%ADD10C,0.010000*%
G04 #@! TD*
G04 #@! TA.AperFunction,ComponentPad*
%ADD11C,7.500000*%
G04 #@! TD*
G04 #@! TA.AperFunction,Conductor*
%ADD12R,13.000000X0.800000*%
G04 #@! TD*
G04 #@! TA.AperFunction,Conductor*
%ADD13R,10.200000X0.800000*%
G04 #@! TD*
G04 #@! TA.AperFunction,SMDPad,CuDef*
%ADD14R,1.500000X0.700000*%
G04 #@! TD*
G04 #@! TA.AperFunction,SMDPad,CuDef*
%ADD15R,0.700000X1.500000*%
G04 #@! TD*
G04 #@! TA.AperFunction,SMDPad,CuDef*
%ADD16R,1.800000X2.500000*%
G04 #@! TD*
G04 #@! TA.AperFunction,ViaPad*
%ADD17C,0.450000*%
G04 #@! TD*
G04 #@! TA.AperFunction,Conductor*
%ADD18C,0.254000*%
G04 #@! TD*
G04 #@! TA.AperFunction,Conductor*
%ADD19C,0.293370*%
G04 #@! TD*
G04 #@! TA.AperFunction,Conductor*
%ADD20C,0.635000*%
G04 #@! TD*
G04 APERTURE END LIST*
D10*
G36*
X138580729Y-82119004D02*
G01*
X138787607Y-82119004D01*
X138992023Y-82119005D01*
X139193994Y-82119005D01*
X139393534Y-82119006D01*
X139590655Y-82119007D01*
X139785374Y-82119008D01*
X139977704Y-82119009D01*
X140167659Y-82119010D01*
X140355255Y-82119011D01*
X140540504Y-82119012D01*
X140723421Y-82119013D01*
X140904022Y-82119015D01*
X141082319Y-82119016D01*
X141258327Y-82119018D01*
X141432061Y-82119019D01*
X141603535Y-82119021D01*
X141772763Y-82119023D01*
X141939760Y-82119025D01*
X142104539Y-82119027D01*
X142267115Y-82119030D01*
X142427503Y-82119032D01*
X142585716Y-82119035D01*
X142741769Y-82119037D01*
X142895676Y-82119040D01*
X143047452Y-82119043D01*
X143197110Y-82119046D01*
X143344666Y-82119049D01*
X143490133Y-82119052D01*
X143633526Y-82119056D01*
X143774859Y-82119059D01*
X143914146Y-82119063D01*
X144051401Y-82119067D01*
X144186640Y-82119071D01*
X144319875Y-82119075D01*
X144451122Y-82119079D01*
X144580395Y-82119083D01*
X144707708Y-82119088D01*
X144833075Y-82119093D01*
X144956511Y-82119097D01*
X145078029Y-82119102D01*
X145197645Y-82119108D01*
X145315373Y-82119113D01*
X145431226Y-82119118D01*
X145545220Y-82119124D01*
X145657367Y-82119130D01*
X145767684Y-82119136D01*
X145876183Y-82119142D01*
X145982880Y-82119148D01*
X146087789Y-82119155D01*
X146190923Y-82119161D01*
X146292297Y-82119168D01*
X146391926Y-82119175D01*
X146489824Y-82119183D01*
X146586005Y-82119190D01*
X146680483Y-82119198D01*
X146773273Y-82119205D01*
X146864388Y-82119213D01*
X146953844Y-82119222D01*
X147041655Y-82119230D01*
X147127834Y-82119239D01*
X147212397Y-82119247D01*
X147295356Y-82119256D01*
X147376728Y-82119265D01*
X147456526Y-82119275D01*
X147534764Y-82119284D01*
X147611456Y-82119294D01*
X147686618Y-82119304D01*
X147760262Y-82119315D01*
X147832404Y-82119325D01*
X147903058Y-82119336D01*
X147972238Y-82119347D01*
X148039959Y-82119358D01*
X148106234Y-82119369D01*
X148171078Y-82119381D01*
X148234505Y-82119392D01*
X148296530Y-82119404D01*
X148357167Y-82119417D01*
X148416430Y-82119429D01*
X148474333Y-82119442D01*
X148530891Y-82119455D01*
X148586118Y-82119468D01*
X148640028Y-82119482D01*
X148692636Y-82119495D01*
X148743956Y-82119509D01*
X148794003Y-82119524D01*
X148842789Y-82119538D01*
X148890331Y-82119553D01*
X148936641Y-82119568D01*
X148981735Y-82119583D01*
X149025627Y-82119598D01*
X149068331Y-82119614D01*
X149109861Y-82119630D01*
X149150231Y-82119647D01*
X149189457Y-82119663D01*
X149227551Y-82119680D01*
X149264529Y-82119697D01*
X149300405Y-82119715D01*
X149335193Y-82119732D01*
X149368907Y-82119750D01*
X149401562Y-82119768D01*
X149433172Y-82119787D01*
X149463751Y-82119806D01*
X149493313Y-82119825D01*
X149521874Y-82119844D01*
X149549446Y-82119864D01*
X149576045Y-82119884D01*
X149601685Y-82119904D01*
X149626379Y-82119925D01*
X149650143Y-82119946D01*
X149672991Y-82119967D01*
X149694936Y-82119988D01*
X149715994Y-82120010D01*
X149736178Y-82120032D01*
X149755503Y-82120055D01*
X149773983Y-82120077D01*
X149791632Y-82120100D01*
X149808465Y-82120124D01*
X149824496Y-82120147D01*
X149839739Y-82120171D01*
X149854209Y-82120196D01*
X149867919Y-82120220D01*
X149880885Y-82120245D01*
X149893120Y-82120271D01*
X149904639Y-82120296D01*
X149915456Y-82120322D01*
X149925585Y-82120349D01*
X149935041Y-82120375D01*
X149943838Y-82120402D01*
X149951990Y-82120430D01*
X149959511Y-82120457D01*
X149966417Y-82120485D01*
X149972720Y-82120514D01*
X149978436Y-82120542D01*
X149983578Y-82120572D01*
X149988162Y-82120601D01*
X149992200Y-82120631D01*
X149995709Y-82120661D01*
X149998701Y-82120691D01*
X150001191Y-82120722D01*
X150003194Y-82120754D01*
X150004723Y-82120785D01*
X150005794Y-82120817D01*
X150006420Y-82120850D01*
X150006586Y-82120869D01*
X150022464Y-82125440D01*
X150036966Y-82132146D01*
X150050009Y-82140907D01*
X150061506Y-82151647D01*
X150071373Y-82164288D01*
X150079525Y-82178752D01*
X150085106Y-82192613D01*
X150088134Y-82201574D01*
X150088484Y-82721326D01*
X150088513Y-82765045D01*
X150088539Y-82806276D01*
X150088561Y-82845095D01*
X150088580Y-82881574D01*
X150088595Y-82915787D01*
X150088605Y-82947807D01*
X150088612Y-82977708D01*
X150088614Y-83005564D01*
X150088611Y-83031448D01*
X150088603Y-83055433D01*
X150088590Y-83077594D01*
X150088571Y-83098003D01*
X150088547Y-83116735D01*
X150088516Y-83133863D01*
X150088480Y-83149460D01*
X150088437Y-83163600D01*
X150088387Y-83176356D01*
X150088331Y-83187803D01*
X150088267Y-83198013D01*
X150088196Y-83207061D01*
X150088118Y-83215019D01*
X150088032Y-83221962D01*
X150087937Y-83227962D01*
X150087835Y-83233094D01*
X150087724Y-83237431D01*
X150087604Y-83241047D01*
X150087475Y-83244014D01*
X150087337Y-83246407D01*
X150087190Y-83248300D01*
X150087033Y-83249765D01*
X150086866Y-83250877D01*
X150086811Y-83251169D01*
X150082671Y-83266128D01*
X150076443Y-83279850D01*
X150067991Y-83292576D01*
X150057179Y-83304544D01*
X150055610Y-83306041D01*
X150043387Y-83315787D01*
X150029708Y-83323541D01*
X150014952Y-83329098D01*
X150011323Y-83330074D01*
X150011096Y-83330129D01*
X150010849Y-83330183D01*
X150010562Y-83330236D01*
X150010216Y-83330289D01*
X150009794Y-83330340D01*
X150009277Y-83330391D01*
X150008645Y-83330441D01*
X150007882Y-83330491D01*
X150006967Y-83330540D01*
X150005884Y-83330588D01*
X150004612Y-83330635D01*
X150003134Y-83330681D01*
X150001431Y-83330727D01*
X149999484Y-83330772D01*
X149997276Y-83330816D01*
X149994787Y-83330860D01*
X149991998Y-83330903D01*
X149988892Y-83330945D01*
X149985450Y-83330987D01*
X149981653Y-83331028D01*
X149977483Y-83331068D01*
X149972922Y-83331108D01*
X149967950Y-83331147D01*
X149962549Y-83331185D01*
X149956700Y-83331222D01*
X149950386Y-83331259D01*
X149943588Y-83331296D01*
X149936286Y-83331332D01*
X149928463Y-83331367D01*
X149920100Y-83331401D01*
X149911179Y-83331435D01*
X149901680Y-83331468D01*
X149891586Y-83331501D01*
X149880877Y-83331533D01*
X149869536Y-83331565D01*
X149857544Y-83331596D01*
X149844882Y-83331626D01*
X149831531Y-83331656D01*
X149817474Y-83331685D01*
X149802692Y-83331714D01*
X149787165Y-83331742D01*
X149770877Y-83331770D01*
X149753807Y-83331797D01*
X149735938Y-83331824D01*
X149717250Y-83331850D01*
X149697727Y-83331876D01*
X149677348Y-83331901D01*
X149656096Y-83331926D01*
X149633951Y-83331950D01*
X149610896Y-83331973D01*
X149586912Y-83331997D01*
X149561980Y-83332019D01*
X149536081Y-83332042D01*
X149509198Y-83332063D01*
X149481312Y-83332085D01*
X149452404Y-83332106D01*
X149422455Y-83332126D01*
X149391447Y-83332146D01*
X149359362Y-83332166D01*
X149326181Y-83332185D01*
X149291886Y-83332204D01*
X149256457Y-83332222D01*
X149219877Y-83332240D01*
X149182127Y-83332258D01*
X149143188Y-83332275D01*
X149103042Y-83332292D01*
X149061670Y-83332308D01*
X149019054Y-83332325D01*
X148975175Y-83332340D01*
X148930015Y-83332356D01*
X148883555Y-83332371D01*
X148835777Y-83332386D01*
X148786662Y-83332400D01*
X148736191Y-83332414D01*
X148684347Y-83332428D01*
X148631110Y-83332441D01*
X148576462Y-83332454D01*
X148520384Y-83332467D01*
X148462858Y-83332480D01*
X148403866Y-83332492D01*
X148343389Y-83332504D01*
X148281407Y-83332516D01*
X148217904Y-83332527D01*
X148152860Y-83332538D01*
X148086256Y-83332549D01*
X148018075Y-83332560D01*
X147948298Y-83332570D01*
X147876905Y-83332581D01*
X147803879Y-83332591D01*
X147729202Y-83332600D01*
X147652853Y-83332610D01*
X147574816Y-83332619D01*
X147495071Y-83332628D01*
X147413600Y-83332637D01*
X147330385Y-83332646D01*
X147245406Y-83332655D01*
X147158646Y-83332663D01*
X147070085Y-83332671D01*
X146979706Y-83332679D01*
X146887490Y-83332687D01*
X146793417Y-83332695D01*
X146697471Y-83332703D01*
X146599631Y-83332710D01*
X146499881Y-83332717D01*
X146398200Y-83332725D01*
X146294571Y-83332732D01*
X146188974Y-83332739D01*
X146081393Y-83332746D01*
X145971807Y-83332752D01*
X145860198Y-83332759D01*
X145746549Y-83332766D01*
X145630840Y-83332772D01*
X145513053Y-83332779D01*
X145393169Y-83332785D01*
X145271169Y-83332792D01*
X145147036Y-83332798D01*
X145020751Y-83332804D01*
X144892295Y-83332810D01*
X144761649Y-83332816D01*
X144628796Y-83332823D01*
X144493716Y-83332829D01*
X144356391Y-83332835D01*
X144216803Y-83332841D01*
X144074933Y-83332847D01*
X143930762Y-83332853D01*
X143784272Y-83332859D01*
X143635444Y-83332865D01*
X143484260Y-83332872D01*
X143330702Y-83332878D01*
X143174750Y-83332884D01*
X143016386Y-83332890D01*
X142855593Y-83332897D01*
X142692350Y-83332903D01*
X142526640Y-83332909D01*
X142358444Y-83332916D01*
X142187744Y-83332923D01*
X142014521Y-83332929D01*
X141838756Y-83332936D01*
X141835470Y-83332936D01*
X133669858Y-83333251D01*
X133669537Y-84230975D01*
X133669216Y-85128700D01*
X134123568Y-85128700D01*
X134164553Y-85128699D01*
X134203058Y-85128696D01*
X134239162Y-85128694D01*
X134272946Y-85128693D01*
X134304491Y-85128694D01*
X134333875Y-85128699D01*
X134361179Y-85128708D01*
X134386483Y-85128724D01*
X134409867Y-85128747D01*
X134431411Y-85128779D01*
X134451195Y-85128820D01*
X134469300Y-85128873D01*
X134485804Y-85128937D01*
X134500789Y-85129015D01*
X134514335Y-85129108D01*
X134526521Y-85129216D01*
X134537427Y-85129342D01*
X134547133Y-85129486D01*
X134555721Y-85129649D01*
X134563269Y-85129833D01*
X134569857Y-85130040D01*
X134575566Y-85130269D01*
X134580476Y-85130523D01*
X134584667Y-85130803D01*
X134588219Y-85131109D01*
X134591211Y-85131444D01*
X134593724Y-85131808D01*
X134595839Y-85132202D01*
X134597634Y-85132629D01*
X134599191Y-85133088D01*
X134600589Y-85133582D01*
X134601907Y-85134111D01*
X134603228Y-85134677D01*
X134604629Y-85135281D01*
X134606192Y-85135924D01*
X134606620Y-85136092D01*
X134620090Y-85142654D01*
X134632591Y-85151373D01*
X134643803Y-85161930D01*
X134653406Y-85174006D01*
X134661078Y-85187280D01*
X134663494Y-85192754D01*
X134664218Y-85194500D01*
X134664889Y-85196084D01*
X134665509Y-85197605D01*
X134666079Y-85199160D01*
X134666602Y-85200849D01*
X134667080Y-85202772D01*
X134667515Y-85205027D01*
X134667908Y-85207713D01*
X134668263Y-85210929D01*
X134668580Y-85214774D01*
X134668863Y-85219347D01*
X134669112Y-85224747D01*
X134669331Y-85231073D01*
X134669520Y-85238425D01*
X134669683Y-85246900D01*
X134669822Y-85256599D01*
X134669937Y-85267619D01*
X134670032Y-85280061D01*
X134670108Y-85294023D01*
X134670168Y-85309603D01*
X134670213Y-85326902D01*
X134670245Y-85346017D01*
X134670268Y-85367049D01*
X134670281Y-85390096D01*
X134670289Y-85415256D01*
X134670292Y-85442630D01*
X134670293Y-85472316D01*
X134670294Y-85504412D01*
X134670295Y-85521715D01*
X134670317Y-85825758D01*
X135095465Y-86250776D01*
X135123213Y-86278519D01*
X135150539Y-86305849D01*
X135177388Y-86332707D01*
X135203700Y-86359037D01*
X135229418Y-86384780D01*
X135254485Y-86409879D01*
X135278842Y-86434275D01*
X135302433Y-86457910D01*
X135325199Y-86480727D01*
X135347083Y-86502667D01*
X135368027Y-86523673D01*
X135387973Y-86543687D01*
X135406864Y-86562650D01*
X135424641Y-86580506D01*
X135441248Y-86597196D01*
X135456627Y-86612661D01*
X135470719Y-86626845D01*
X135483468Y-86639690D01*
X135494815Y-86651136D01*
X135504703Y-86661127D01*
X135513074Y-86669605D01*
X135519871Y-86676511D01*
X135525035Y-86681788D01*
X135528509Y-86685378D01*
X135530236Y-86687223D01*
X135530315Y-86687316D01*
X135545218Y-86706863D01*
X135557733Y-86727306D01*
X135567908Y-86748748D01*
X135575789Y-86771288D01*
X135581423Y-86795030D01*
X135582396Y-86800611D01*
X135582503Y-86801440D01*
X135582607Y-86802617D01*
X135582706Y-86804189D01*
X135582802Y-86806201D01*
X135582894Y-86808700D01*
X135582983Y-86811731D01*
X135583068Y-86815342D01*
X135583149Y-86819578D01*
X135583227Y-86824485D01*
X135583302Y-86830110D01*
X135583374Y-86836498D01*
X135583442Y-86843697D01*
X135583507Y-86851751D01*
X135583569Y-86860708D01*
X135583629Y-86870613D01*
X135583685Y-86881513D01*
X135583738Y-86893453D01*
X135583789Y-86906481D01*
X135583837Y-86920641D01*
X135583882Y-86935981D01*
X135583924Y-86952546D01*
X135583965Y-86970382D01*
X135584002Y-86989536D01*
X135584038Y-87010055D01*
X135584071Y-87031983D01*
X135584101Y-87055368D01*
X135584130Y-87080255D01*
X135584157Y-87106690D01*
X135584181Y-87134721D01*
X135584204Y-87164392D01*
X135584225Y-87195750D01*
X135584244Y-87228842D01*
X135584261Y-87263713D01*
X135584277Y-87300409D01*
X135584291Y-87338978D01*
X135584303Y-87379464D01*
X135584314Y-87421915D01*
X135584324Y-87466375D01*
X135584332Y-87512892D01*
X135584339Y-87561512D01*
X135584345Y-87612281D01*
X135584350Y-87665244D01*
X135584354Y-87720449D01*
X135584357Y-87777941D01*
X135584359Y-87837766D01*
X135584360Y-87899971D01*
X135584360Y-88031704D01*
X135584359Y-88095285D01*
X135584357Y-88164783D01*
X135584355Y-88231767D01*
X135584353Y-88296282D01*
X135584349Y-88358375D01*
X135584345Y-88418092D01*
X135584340Y-88475478D01*
X135584334Y-88530579D01*
X135584327Y-88583443D01*
X135584319Y-88634114D01*
X135584310Y-88682638D01*
X135584300Y-88729062D01*
X135584288Y-88773432D01*
X135584275Y-88815793D01*
X135584261Y-88856191D01*
X135584245Y-88894673D01*
X135584228Y-88931285D01*
X135584209Y-88966072D01*
X135584188Y-88999081D01*
X135584166Y-89030357D01*
X135584141Y-89059947D01*
X135584115Y-89087896D01*
X135584087Y-89114251D01*
X135584057Y-89139057D01*
X135584024Y-89162360D01*
X135583990Y-89184207D01*
X135583953Y-89204643D01*
X135583914Y-89223715D01*
X135583872Y-89241468D01*
X135583828Y-89257949D01*
X135583782Y-89273203D01*
X135583733Y-89287277D01*
X135583681Y-89300215D01*
X135583626Y-89312066D01*
X135583569Y-89322873D01*
X135583509Y-89332684D01*
X135583446Y-89341544D01*
X135583380Y-89349500D01*
X135583310Y-89356597D01*
X135583238Y-89362881D01*
X135583162Y-89368398D01*
X135583083Y-89373195D01*
X135583001Y-89377317D01*
X135582915Y-89380811D01*
X135582826Y-89383722D01*
X135582733Y-89386095D01*
X135582636Y-89387979D01*
X135582536Y-89389417D01*
X135582432Y-89390457D01*
X135582388Y-89390776D01*
X135577580Y-89414410D01*
X135570457Y-89437114D01*
X135561133Y-89458748D01*
X135549721Y-89479175D01*
X135536335Y-89498257D01*
X135521090Y-89515856D01*
X135504097Y-89531835D01*
X135485473Y-89546055D01*
X135465329Y-89558379D01*
X135443780Y-89568669D01*
X135431922Y-89573217D01*
X135414921Y-89578324D01*
X135396648Y-89582219D01*
X135377880Y-89584801D01*
X135359395Y-89585968D01*
X135341970Y-89585617D01*
X135339210Y-89585402D01*
X135314944Y-89582049D01*
X135291438Y-89576304D01*
X135268835Y-89568230D01*
X135247279Y-89557892D01*
X135226912Y-89545355D01*
X135207879Y-89530681D01*
X135199554Y-89523176D01*
X135182941Y-89505716D01*
X135168383Y-89486746D01*
X135155914Y-89466325D01*
X135145566Y-89444514D01*
X135137372Y-89421370D01*
X135132219Y-89401136D01*
X135129261Y-89387210D01*
X135128937Y-88158880D01*
X135128613Y-86930549D01*
X134829375Y-86631306D01*
X134530138Y-86332062D01*
X133042477Y-86332070D01*
X132760090Y-86332070D01*
X132695566Y-86332069D01*
X132633385Y-86332068D01*
X132573503Y-86332066D01*
X132515875Y-86332064D01*
X132460459Y-86332061D01*
X132407210Y-86332057D01*
X132356086Y-86332053D01*
X132307041Y-86332048D01*
X132260034Y-86332041D01*
X132215019Y-86332034D01*
X132171955Y-86332026D01*
X132130796Y-86332016D01*
X132091499Y-86332006D01*
X132054021Y-86331994D01*
X132018317Y-86331980D01*
X131984345Y-86331965D01*
X131952061Y-86331949D01*
X131921421Y-86331931D01*
X131892381Y-86331911D01*
X131864898Y-86331890D01*
X131838929Y-86331867D01*
X131814428Y-86331842D01*
X131791354Y-86331815D01*
X131769662Y-86331786D01*
X131749308Y-86331755D01*
X131730250Y-86331722D01*
X131712443Y-86331686D01*
X131695843Y-86331649D01*
X131680408Y-86331608D01*
X131666093Y-86331566D01*
X131652855Y-86331521D01*
X131640651Y-86331473D01*
X131629435Y-86331423D01*
X131619166Y-86331370D01*
X131609799Y-86331314D01*
X131601291Y-86331255D01*
X131593597Y-86331194D01*
X131586676Y-86331129D01*
X131580481Y-86331061D01*
X131574971Y-86330990D01*
X131570102Y-86330916D01*
X131565829Y-86330839D01*
X131562110Y-86330758D01*
X131558900Y-86330673D01*
X131556156Y-86330586D01*
X131553835Y-86330494D01*
X131551892Y-86330399D01*
X131550284Y-86330300D01*
X131548968Y-86330198D01*
X131547899Y-86330091D01*
X131547035Y-86329981D01*
X131546331Y-86329867D01*
X131545744Y-86329748D01*
X131545231Y-86329625D01*
X131545190Y-86329615D01*
X131529680Y-86324388D01*
X131515553Y-86317059D01*
X131502941Y-86307763D01*
X131491976Y-86296632D01*
X131482792Y-86283800D01*
X131475520Y-86269400D01*
X131470543Y-86254537D01*
X131470375Y-86253712D01*
X131470217Y-86252511D01*
X131470069Y-86250862D01*
X131469929Y-86248690D01*
X131469798Y-86245923D01*
X131469675Y-86242487D01*
X131469561Y-86238311D01*
X131469454Y-86233319D01*
X131469356Y-86227440D01*
X131469264Y-86220599D01*
X131469180Y-86212725D01*
X131469102Y-86203744D01*
X131469031Y-86193582D01*
X131468966Y-86182166D01*
X131468908Y-86169425D01*
X131468855Y-86155283D01*
X131468807Y-86139668D01*
X131468764Y-86122508D01*
X131468727Y-86103728D01*
X131468693Y-86083256D01*
X131468664Y-86061019D01*
X131468640Y-86036943D01*
X131468619Y-86010956D01*
X131468601Y-85982983D01*
X131468586Y-85952953D01*
X131468575Y-85920792D01*
X131468566Y-85886426D01*
X131468559Y-85849783D01*
X131468555Y-85810790D01*
X131468552Y-85769373D01*
X131468551Y-85731332D01*
X131468551Y-85687617D01*
X131468553Y-85646390D01*
X131468557Y-85607579D01*
X131468563Y-85571110D01*
X131468572Y-85536912D01*
X131468584Y-85504911D01*
X131468599Y-85475036D01*
X131468618Y-85447213D01*
X131468640Y-85421371D01*
X131468666Y-85397436D01*
X131468696Y-85375336D01*
X131468731Y-85354998D01*
X131468770Y-85336351D01*
X131468815Y-85319321D01*
X131468864Y-85303837D01*
X131468920Y-85289824D01*
X131468980Y-85277212D01*
X131469048Y-85265927D01*
X131469121Y-85255897D01*
X131469201Y-85247049D01*
X131469288Y-85239311D01*
X131469382Y-85232610D01*
X131469483Y-85226874D01*
X131469592Y-85222031D01*
X131469708Y-85218007D01*
X131469833Y-85214730D01*
X131469967Y-85212128D01*
X131470109Y-85210128D01*
X131470260Y-85208657D01*
X131470420Y-85207644D01*
X131470459Y-85207465D01*
X131475251Y-85192293D01*
X131482236Y-85178296D01*
X131491256Y-85165636D01*
X131502151Y-85154477D01*
X131514762Y-85144983D01*
X131528931Y-85137317D01*
X131544124Y-85131749D01*
X131544920Y-85131535D01*
X131545835Y-85131334D01*
X131546948Y-85131146D01*
X131548339Y-85130969D01*
X131550087Y-85130804D01*
X131552272Y-85130651D01*
X131554974Y-85130507D01*
X131558272Y-85130374D01*
X131562246Y-85130251D01*
X131566975Y-85130136D01*
X131572540Y-85130031D01*
X131579020Y-85129934D01*
X131586494Y-85129844D01*
X131595042Y-85129762D01*
X131604743Y-85129687D01*
X131615678Y-85129618D01*
X131627926Y-85129555D01*
X131641567Y-85129497D01*
X131656680Y-85129445D01*
X131673344Y-85129397D01*
X131691640Y-85129353D01*
X131711648Y-85129312D01*
X131733446Y-85129275D01*
X131757114Y-85129240D01*
X131782732Y-85129208D01*
X131810380Y-85129177D01*
X131840138Y-85129148D01*
X131872084Y-85129119D01*
X131906299Y-85129090D01*
X131942862Y-85129062D01*
X131981852Y-85129032D01*
X132009148Y-85129012D01*
X132465851Y-85128679D01*
X132465851Y-84331149D01*
X126669207Y-84331149D01*
X126669528Y-85663494D01*
X126669848Y-86995838D01*
X130626877Y-86996109D01*
X130749272Y-86996117D01*
X130869133Y-86996125D01*
X130986487Y-86996134D01*
X131101359Y-86996142D01*
X131213777Y-86996150D01*
X131323766Y-86996159D01*
X131431353Y-86996167D01*
X131536565Y-86996176D01*
X131639427Y-86996184D01*
X131739966Y-86996193D01*
X131838209Y-86996201D01*
X131934181Y-86996210D01*
X132027910Y-86996219D01*
X132119421Y-86996228D01*
X132208742Y-86996238D01*
X132295897Y-86996247D01*
X132380915Y-86996257D01*
X132463820Y-86996267D01*
X132544640Y-86996277D01*
X132623401Y-86996287D01*
X132700129Y-86996297D01*
X132774850Y-86996308D01*
X132847592Y-86996319D01*
X132918380Y-86996331D01*
X132987241Y-86996343D01*
X133054201Y-86996355D01*
X133119287Y-86996367D01*
X133182524Y-86996380D01*
X133243940Y-86996393D01*
X133303560Y-86996407D01*
X133361412Y-86996421D01*
X133417521Y-86996435D01*
X133471913Y-86996450D01*
X133524616Y-86996466D01*
X133575656Y-86996481D01*
X133625058Y-86996498D01*
X133672850Y-86996515D01*
X133719058Y-86996532D01*
X133763707Y-86996550D01*
X133806825Y-86996568D01*
X133848438Y-86996587D01*
X133888573Y-86996607D01*
X133927254Y-86996627D01*
X133964510Y-86996648D01*
X134000366Y-86996670D01*
X134034849Y-86996692D01*
X134067985Y-86996715D01*
X134099801Y-86996738D01*
X134130323Y-86996762D01*
X134159576Y-86996787D01*
X134187589Y-86996813D01*
X134214386Y-86996839D01*
X134239995Y-86996867D01*
X134264442Y-86996894D01*
X134287753Y-86996923D01*
X134309954Y-86996953D01*
X134331073Y-86996983D01*
X134351135Y-86997014D01*
X134370166Y-86997046D01*
X134388193Y-86997079D01*
X134405243Y-86997113D01*
X134421342Y-86997148D01*
X134436516Y-86997184D01*
X134450792Y-86997220D01*
X134464196Y-86997258D01*
X134476754Y-86997296D01*
X134488492Y-86997336D01*
X134499438Y-86997377D01*
X134509618Y-86997418D01*
X134519057Y-86997461D01*
X134527783Y-86997504D01*
X134535821Y-86997549D01*
X134543198Y-86997595D01*
X134549941Y-86997642D01*
X134556075Y-86997690D01*
X134561628Y-86997739D01*
X134566625Y-86997789D01*
X134571093Y-86997840D01*
X134575058Y-86997893D01*
X134578547Y-86997947D01*
X134581587Y-86998002D01*
X134584202Y-86998058D01*
X134586421Y-86998115D01*
X134588268Y-86998174D01*
X134589771Y-86998234D01*
X134590957Y-86998295D01*
X134591850Y-86998358D01*
X134592479Y-86998422D01*
X134592866Y-86998487D01*
X134607824Y-87003282D01*
X134621661Y-87010267D01*
X134634180Y-87019244D01*
X134645183Y-87030014D01*
X134654474Y-87042380D01*
X134661855Y-87056143D01*
X134667129Y-87071105D01*
X134667809Y-87073784D01*
X134667954Y-87074417D01*
X134668094Y-87075113D01*
X134668228Y-87075922D01*
X134668357Y-87076896D01*
X134668480Y-87078087D01*
X134668598Y-87079545D01*
X134668711Y-87081322D01*
X134668818Y-87083470D01*
X134668921Y-87086040D01*
X134669018Y-87089083D01*
X134669111Y-87092650D01*
X134669200Y-87096794D01*
X134669284Y-87101564D01*
X134669363Y-87107014D01*
X134669438Y-87113194D01*
X134669510Y-87120155D01*
X134669577Y-87127950D01*
X134669640Y-87136628D01*
X134669699Y-87146242D01*
X134669755Y-87156844D01*
X134669807Y-87168483D01*
X134669856Y-87181213D01*
X134669901Y-87195084D01*
X134669943Y-87210147D01*
X134669982Y-87226455D01*
X134670019Y-87244057D01*
X134670052Y-87263007D01*
X134670082Y-87283354D01*
X134670110Y-87305152D01*
X134670136Y-87328450D01*
X134670159Y-87353300D01*
X134670179Y-87379754D01*
X134670198Y-87407863D01*
X134670215Y-87437678D01*
X134670229Y-87469251D01*
X134670242Y-87502634D01*
X134670253Y-87537877D01*
X134670263Y-87575032D01*
X134670271Y-87614150D01*
X134670278Y-87655283D01*
X134670283Y-87698482D01*
X134670288Y-87743799D01*
X134670292Y-87791284D01*
X134670294Y-87840990D01*
X134670296Y-87892967D01*
X134670298Y-87947268D01*
X134670298Y-88003943D01*
X134670299Y-88063043D01*
X134670299Y-88287765D01*
X134670298Y-88345935D01*
X134670297Y-88401699D01*
X134670296Y-88455108D01*
X134670293Y-88506214D01*
X134670290Y-88555068D01*
X134670286Y-88601721D01*
X134670281Y-88646225D01*
X134670275Y-88688631D01*
X134670268Y-88728990D01*
X134670259Y-88767354D01*
X134670249Y-88803774D01*
X134670237Y-88838302D01*
X134670224Y-88870989D01*
X134670208Y-88901887D01*
X134670191Y-88931046D01*
X134670172Y-88958518D01*
X134670150Y-88984355D01*
X134670126Y-89008608D01*
X134670100Y-89031328D01*
X134670071Y-89052567D01*
X134670039Y-89072376D01*
X134670005Y-89090806D01*
X134669968Y-89107909D01*
X134669928Y-89123737D01*
X134669884Y-89138340D01*
X134669838Y-89151769D01*
X134669788Y-89164078D01*
X134669734Y-89175316D01*
X134669677Y-89185535D01*
X134669616Y-89194787D01*
X134669552Y-89203122D01*
X134669483Y-89210593D01*
X134669410Y-89217251D01*
X134669333Y-89223146D01*
X134669252Y-89228331D01*
X134669167Y-89232857D01*
X134669077Y-89236775D01*
X134668982Y-89240136D01*
X134668882Y-89242993D01*
X134668778Y-89245396D01*
X134668668Y-89247396D01*
X134668554Y-89249046D01*
X134668434Y-89250396D01*
X134668309Y-89251498D01*
X134668178Y-89252403D01*
X134668042Y-89253163D01*
X134667900Y-89253829D01*
X134667809Y-89254217D01*
X134662856Y-89269601D01*
X134655766Y-89283695D01*
X134646703Y-89296332D01*
X134635830Y-89307347D01*
X134623309Y-89316575D01*
X134609305Y-89323849D01*
X134594188Y-89328951D01*
X134593317Y-89329170D01*
X134592418Y-89329376D01*
X134591413Y-89329570D01*
X134590229Y-89329752D01*
X134588790Y-89329923D01*
X134587020Y-89330083D01*
X134584846Y-89330231D01*
X134582191Y-89330370D01*
X134578981Y-89330498D01*
X134575140Y-89330617D01*
X134570594Y-89330727D01*
X134565266Y-89330828D01*
X134559083Y-89330920D01*
X134551968Y-89331004D01*
X134543847Y-89331081D01*
X134534644Y-89331150D01*
X134524285Y-89331212D01*
X134512695Y-89331268D01*
X134499797Y-89331317D01*
X134485518Y-89331360D01*
X134469781Y-89331398D01*
X134452512Y-89331431D01*
X134433636Y-89331459D01*
X134413077Y-89331483D01*
X134390760Y-89331502D01*
X134366611Y-89331518D01*
X134340553Y-89331531D01*
X134312513Y-89331541D01*
X134282414Y-89331548D01*
X134250182Y-89331553D01*
X134215742Y-89331557D01*
X134179018Y-89331559D01*
X134139935Y-89331560D01*
X134025408Y-89331560D01*
X133984669Y-89331559D01*
X133946339Y-89331558D01*
X133910344Y-89331555D01*
X133876609Y-89331551D01*
X133845059Y-89331545D01*
X133815618Y-89331537D01*
X133788212Y-89331526D01*
X133762766Y-89331512D01*
X133739203Y-89331494D01*
X133717450Y-89331473D01*
X133697431Y-89331448D01*
X133679071Y-89331418D01*
X133662294Y-89331383D01*
X133647026Y-89331343D01*
X133633192Y-89331298D01*
X133620716Y-89331246D01*
X133609523Y-89331188D01*
X133599539Y-89331124D01*
X133590688Y-89331052D01*
X133582894Y-89330973D01*
X133576083Y-89330886D01*
X133570180Y-89330791D01*
X133565110Y-89330687D01*
X133560797Y-89330575D01*
X133557166Y-89330453D01*
X133554143Y-89330322D01*
X133551652Y-89330180D01*
X133549617Y-89330029D01*
X133547965Y-89329866D01*
X133546619Y-89329693D01*
X133545505Y-89329507D01*
X133544547Y-89329310D01*
X133543671Y-89329101D01*
X133543236Y-89328991D01*
X133529046Y-89324145D01*
X133515489Y-89317159D01*
X133503092Y-89308364D01*
X133492380Y-89298089D01*
X133490403Y-89295786D01*
X133485187Y-89288594D01*
X133479950Y-89279818D01*
X133475178Y-89270384D01*
X133471357Y-89261219D01*
X133469838Y-89256632D01*
X133469638Y-89255855D01*
X133469450Y-89254881D01*
X133469274Y-89253631D01*
X133469108Y-89252026D01*
X133468954Y-89249986D01*
X133468809Y-89247433D01*
X133468675Y-89244288D01*
X133468550Y-89240470D01*
X133468434Y-89235902D01*
X133468326Y-89230505D01*
X133468226Y-89224198D01*
X133468134Y-89216904D01*
X133468050Y-89208542D01*
X133467972Y-89199035D01*
X133467900Y-89188302D01*
X133467834Y-89176265D01*
X133467774Y-89162845D01*
X133467718Y-89147962D01*
X133467668Y-89131538D01*
X133467621Y-89113494D01*
X133467578Y-89093749D01*
X133467538Y-89072226D01*
X133467502Y-89048845D01*
X133467467Y-89023528D01*
X133467435Y-88996194D01*
X133467404Y-88966765D01*
X133467374Y-88935162D01*
X133467345Y-88901306D01*
X133467315Y-88865118D01*
X133467286Y-88826518D01*
X133467260Y-88790327D01*
X133466929Y-88331703D01*
X132669400Y-88331703D01*
X132669355Y-88785206D01*
X132669352Y-88826155D01*
X132669350Y-88864624D01*
X132669348Y-88900693D01*
X132669344Y-88934442D01*
X132669339Y-88965950D01*
X132669329Y-88995299D01*
X132669316Y-89022569D01*
X132669296Y-89047838D01*
X132669269Y-89071189D01*
X132669235Y-89092700D01*
X132669191Y-89112452D01*
X132669137Y-89130524D01*
X132669071Y-89146998D01*
X132668992Y-89161953D01*
X132668900Y-89175469D01*
X132668793Y-89187626D01*
X132668669Y-89198505D01*
X132668528Y-89208186D01*
X132668369Y-89216748D01*
X132668190Y-89224272D01*
X132667991Y-89230838D01*
X132667769Y-89236526D01*
X132667525Y-89241416D01*
X132667256Y-89245589D01*
X132666962Y-89249124D01*
X132666641Y-89252101D01*
X132666293Y-89254601D01*
X132665916Y-89256704D01*
X132665509Y-89258489D01*
X132665071Y-89260038D01*
X132664601Y-89261429D01*
X132664097Y-89262744D01*
X132663559Y-89264062D01*
X132662985Y-89265464D01*
X132662439Y-89266857D01*
X132656464Y-89279453D01*
X132648414Y-89291646D01*
X132638763Y-89302819D01*
X132627987Y-89312357D01*
X132626514Y-89313455D01*
X132618975Y-89318223D01*
X132609972Y-89322785D01*
X132600585Y-89326642D01*
X132592953Y-89329032D01*
X132592150Y-89329231D01*
X132591290Y-89329419D01*
X132590301Y-89329596D01*
X132589115Y-89329763D01*
X132587660Y-89329921D01*
X132585868Y-89330069D01*
X132583667Y-89330208D01*
X132580988Y-89330338D01*
X132577761Y-89330459D01*
X132573916Y-89330572D01*
X132569383Y-89330677D01*
X132564091Y-89330774D01*
X132557971Y-89330864D01*
X132550952Y-89330947D01*
X132542965Y-89331022D01*
X132533939Y-89331092D01*
X132523805Y-89331155D01*
X132512492Y-89331212D01*
X132499930Y-89331263D01*
X132486050Y-89331309D01*
X132470780Y-89331350D01*
X132454052Y-89331387D01*
X132435795Y-89331418D01*
X132415939Y-89331446D01*
X132394414Y-89331470D01*
X132371150Y-89331490D01*
X132346077Y-89331506D01*
X132319124Y-89331520D01*
X132290223Y-89331531D01*
X132259302Y-89331540D01*
X132226292Y-89331547D01*
X132191122Y-89331551D01*
X132153723Y-89331554D01*
X132114024Y-89331556D01*
X132071956Y-89331558D01*
X131993665Y-89331558D01*
X131947128Y-89331557D01*
X131903082Y-89331556D01*
X131861459Y-89331553D01*
X131822189Y-89331548D01*
X131785202Y-89331542D01*
X131750431Y-89331533D01*
X131717806Y-89331522D01*
X131687258Y-89331509D01*
X131658717Y-89331492D01*
X131632115Y-89331473D01*
X131607383Y-89331450D01*
X131584452Y-89331424D01*
X131563252Y-89331394D01*
X131543715Y-89331360D01*
X131525771Y-89331321D01*
X131509351Y-89331278D01*
X131494387Y-89331231D01*
X131480809Y-89331178D01*
X131468548Y-89331120D01*
X131457536Y-89331057D01*
X131447702Y-89330988D01*
X131438978Y-89330912D01*
X131431296Y-89330831D01*
X131424585Y-89330743D01*
X131418777Y-89330649D01*
X131413802Y-89330548D01*
X131409592Y-89330439D01*
X131406078Y-89330323D01*
X131403191Y-89330199D01*
X131400860Y-89330068D01*
X131399019Y-89329928D01*
X131397596Y-89329780D01*
X131396524Y-89329624D01*
X131395777Y-89329469D01*
X131381122Y-89324588D01*
X131367411Y-89317523D01*
X131354893Y-89308519D01*
X131343817Y-89297820D01*
X131334431Y-89285672D01*
X131326986Y-89272317D01*
X131321729Y-89258002D01*
X131321285Y-89256342D01*
X131321063Y-89255452D01*
X131320853Y-89254514D01*
X131320657Y-89253451D01*
X131320473Y-89252184D01*
X131320301Y-89250635D01*
X131320141Y-89248727D01*
X131319992Y-89246380D01*
X131319855Y-89243516D01*
X131319727Y-89240059D01*
X131319610Y-89235929D01*
X131319503Y-89231048D01*
X131319405Y-89225339D01*
X131319316Y-89218722D01*
X131319235Y-89211121D01*
X131319163Y-89202456D01*
X131319098Y-89192650D01*
X131319040Y-89181625D01*
X131318990Y-89169302D01*
X131318946Y-89155603D01*
X131318908Y-89140450D01*
X131318876Y-89123766D01*
X131318850Y-89105471D01*
X131318828Y-89085488D01*
X131318811Y-89063739D01*
X131318798Y-89040145D01*
X131318789Y-89014629D01*
X131318783Y-88987111D01*
X131318780Y-88957515D01*
X131318779Y-88925762D01*
X131318781Y-88891774D01*
X131318785Y-88855472D01*
X131318790Y-88816779D01*
X131318795Y-88775616D01*
X131318796Y-88768713D01*
X131318866Y-88291036D01*
X131274993Y-88290281D01*
X131270110Y-88290215D01*
X131262780Y-88290141D01*
X131253118Y-88290061D01*
X131241236Y-88289974D01*
X131227249Y-88289881D01*
X131211270Y-88289783D01*
X131193413Y-88289681D01*
X131173792Y-88289574D01*
X131152521Y-88289464D01*
X131129713Y-88289351D01*
X131105482Y-88289235D01*
X131079942Y-88289118D01*
X131053207Y-88288999D01*
X131025390Y-88288879D01*
X130996605Y-88288759D01*
X130966966Y-88288639D01*
X130936586Y-88288521D01*
X130905580Y-88288403D01*
X130874060Y-88288288D01*
X130842587Y-88288177D01*
X130807059Y-88288052D01*
X130770105Y-88287922D01*
X130731954Y-88287785D01*
X130692832Y-88287644D01*
X130652969Y-88287499D01*
X130612594Y-88287351D01*
X130571934Y-88287201D01*
X130531218Y-88287050D01*
X130490675Y-88286898D01*
X130450532Y-88286746D01*
X130411019Y-88286596D01*
X130372363Y-88286447D01*
X130334793Y-88286302D01*
X130298538Y-88286161D01*
X130263826Y-88286024D01*
X130230885Y-88285893D01*
X130199943Y-88285768D01*
X130171230Y-88285651D01*
X130158972Y-88285600D01*
X130128349Y-88285473D01*
X130095452Y-88285337D01*
X130060568Y-88285193D01*
X130023985Y-88285043D01*
X129985989Y-88284886D01*
X129946866Y-88284726D01*
X129906904Y-88284562D01*
X129866389Y-88284397D01*
X129825608Y-88284231D01*
X129784848Y-88284065D01*
X129744396Y-88283900D01*
X129704539Y-88283738D01*
X129665562Y-88283580D01*
X129627754Y-88283428D01*
X129591401Y-88283281D01*
X129556790Y-88283142D01*
X129538086Y-88283066D01*
X129504206Y-88282931D01*
X129468210Y-88282786D01*
X129430401Y-88282634D01*
X129391081Y-88282476D01*
X129350555Y-88282313D01*
X129309124Y-88282147D01*
X129267093Y-88281978D01*
X129224764Y-88281807D01*
X129182440Y-88281637D01*
X129140425Y-88281468D01*
X129099021Y-88281301D01*
X129058532Y-88281138D01*
X129019261Y-88280980D01*
X128981510Y-88280828D01*
X128945584Y-88280683D01*
X128911784Y-88280547D01*
X128897997Y-88280491D01*
X128843602Y-88280272D01*
X128787840Y-88280047D01*
X128730644Y-88279816D01*
X128671943Y-88279579D01*
X128611668Y-88279336D01*
X128549752Y-88279086D01*
X128486123Y-88278830D01*
X128420714Y-88278566D01*
X128353456Y-88278295D01*
X128284278Y-88278016D01*
X128213113Y-88277729D01*
X128139890Y-88277434D01*
X128064542Y-88277130D01*
X127986999Y-88276818D01*
X127907191Y-88276496D01*
X127825050Y-88276165D01*
X127740507Y-88275825D01*
X127653492Y-88275474D01*
X127628061Y-88275372D01*
X127594444Y-88275236D01*
X127558680Y-88275092D01*
X127521077Y-88274940D01*
X127481944Y-88274783D01*
X127441590Y-88274620D01*
X127400324Y-88274453D01*
X127358454Y-88274284D01*
X127316289Y-88274114D01*
X127274139Y-88273944D01*
X127232311Y-88273775D01*
X127191115Y-88273609D01*
X127150859Y-88273446D01*
X127111853Y-88273289D01*
X127074405Y-88273137D01*
X127038823Y-88272993D01*
X127005417Y-88272858D01*
X126997574Y-88272827D01*
X126965600Y-88272697D01*
X126931357Y-88272559D01*
X126895135Y-88272413D01*
X126857225Y-88272260D01*
X126817918Y-88272102D01*
X126777505Y-88271940D01*
X126736276Y-88271774D01*
X126694523Y-88271606D01*
X126652535Y-88271438D01*
X126610605Y-88271270D01*
X126569022Y-88271103D01*
X126528078Y-88270939D01*
X126488063Y-88270779D01*
X126449268Y-88270624D01*
X126411985Y-88270475D01*
X126376503Y-88270334D01*
X126353004Y-88270240D01*
X126319680Y-88270106D01*
X126284753Y-88269965D01*
X126248485Y-88269816D01*
X126211135Y-88269661D01*
X126172966Y-88269502D01*
X126134238Y-88269339D01*
X126095211Y-88269173D01*
X126056146Y-88269006D01*
X126017304Y-88268839D01*
X125978946Y-88268673D01*
X125941333Y-88268509D01*
X125904724Y-88268347D01*
X125869382Y-88268190D01*
X125835566Y-88268038D01*
X125803538Y-88267893D01*
X125773558Y-88267756D01*
X125746840Y-88267631D01*
X125723388Y-88267525D01*
X125697557Y-88267417D01*
X125669531Y-88267307D01*
X125639491Y-88267196D01*
X125607621Y-88267083D01*
X125574102Y-88266970D01*
X125539117Y-88266857D01*
X125502849Y-88266745D01*
X125465479Y-88266634D01*
X125427190Y-88266525D01*
X125388165Y-88266417D01*
X125348586Y-88266313D01*
X125308635Y-88266211D01*
X125268494Y-88266113D01*
X125228347Y-88266019D01*
X125188375Y-88265930D01*
X125148760Y-88265846D01*
X125109686Y-88265768D01*
X125071335Y-88265696D01*
X125033888Y-88265631D01*
X125024180Y-88265615D01*
X124982662Y-88265545D01*
X124943633Y-88265477D01*
X124907019Y-88265409D01*
X124872749Y-88265342D01*
X124840750Y-88265274D01*
X124810950Y-88265206D01*
X124783277Y-88265137D01*
X124757658Y-88265066D01*
X124734022Y-88264994D01*
X124712296Y-88264920D01*
X124692407Y-88264843D01*
X124674284Y-88264763D01*
X124657854Y-88264681D01*
X124643045Y-88264594D01*
X124629785Y-88264504D01*
X124618001Y-88264409D01*
X124607621Y-88264309D01*
X124598573Y-88264204D01*
X124590785Y-88264094D01*
X124584184Y-88263978D01*
X124578699Y-88263855D01*
X124574256Y-88263726D01*
X124570784Y-88263589D01*
X124568210Y-88263446D01*
X124566462Y-88263294D01*
X124565649Y-88263174D01*
X124552112Y-88259466D01*
X124539628Y-88253857D01*
X124527803Y-88246130D01*
X124516248Y-88236070D01*
X124515861Y-88235690D01*
X124507084Y-88226178D01*
X124500142Y-88216535D01*
X124494517Y-88205934D01*
X124490092Y-88194724D01*
X124485866Y-88182563D01*
X124485866Y-82202854D01*
X124488866Y-82193298D01*
X124495025Y-82177641D01*
X124503114Y-82163545D01*
X124513002Y-82151132D01*
X124524555Y-82140525D01*
X124537640Y-82131848D01*
X124552123Y-82125224D01*
X124567119Y-82120931D01*
X124567461Y-82120897D01*
X124568175Y-82120864D01*
X124569276Y-82120831D01*
X124570778Y-82120799D01*
X124572695Y-82120767D01*
X124575043Y-82120735D01*
X124577835Y-82120704D01*
X124581086Y-82120673D01*
X124584811Y-82120642D01*
X124589023Y-82120612D01*
X124593737Y-82120582D01*
X124598969Y-82120553D01*
X124604731Y-82120524D01*
X124611039Y-82120495D01*
X124617907Y-82120467D01*
X124625349Y-82120439D01*
X124633381Y-82120411D01*
X124642016Y-82120384D01*
X124651268Y-82120357D01*
X124661153Y-82120330D01*
X124671685Y-82120304D01*
X124682877Y-82120278D01*
X124694746Y-82120252D01*
X124707304Y-82120227D01*
X124720567Y-82120202D01*
X124734549Y-82120177D01*
X124749264Y-82120153D01*
X124764727Y-82120129D01*
X124780952Y-82120106D01*
X124797954Y-82120082D01*
X124815747Y-82120059D01*
X124834345Y-82120037D01*
X124853764Y-82120015D01*
X124874017Y-82119993D01*
X124895119Y-82119971D01*
X124917085Y-82119949D01*
X124939928Y-82119928D01*
X124963663Y-82119908D01*
X124988306Y-82119887D01*
X125013869Y-82119867D01*
X125040368Y-82119847D01*
X125067817Y-82119828D01*
X125096230Y-82119808D01*
X125125623Y-82119790D01*
X125156008Y-82119771D01*
X125187402Y-82119752D01*
X125219818Y-82119734D01*
X125253270Y-82119717D01*
X125287774Y-82119699D01*
X125323343Y-82119682D01*
X125359992Y-82119665D01*
X125397736Y-82119648D01*
X125436589Y-82119632D01*
X125476565Y-82119616D01*
X125517679Y-82119600D01*
X125559945Y-82119584D01*
X125603378Y-82119569D01*
X125647992Y-82119554D01*
X125693801Y-82119539D01*
X125740821Y-82119525D01*
X125789065Y-82119510D01*
X125838548Y-82119496D01*
X125889284Y-82119482D01*
X125941288Y-82119469D01*
X125994575Y-82119456D01*
X126049158Y-82119443D01*
X126105052Y-82119430D01*
X126162272Y-82119417D01*
X126220831Y-82119405D01*
X126280746Y-82119393D01*
X126342029Y-82119381D01*
X126404696Y-82119369D01*
X126468760Y-82119358D01*
X126534237Y-82119347D01*
X126601140Y-82119336D01*
X126669484Y-82119325D01*
X126739284Y-82119315D01*
X126810555Y-82119305D01*
X126883309Y-82119295D01*
X126957563Y-82119285D01*
X127033329Y-82119275D01*
X127110624Y-82119266D01*
X127189461Y-82119257D01*
X127269855Y-82119248D01*
X127351819Y-82119239D01*
X127435370Y-82119230D01*
X127520520Y-82119222D01*
X127607285Y-82119214D01*
X127695678Y-82119206D01*
X127785716Y-82119198D01*
X127877410Y-82119190D01*
X127970778Y-82119183D01*
X128065831Y-82119176D01*
X128162586Y-82119169D01*
X128261057Y-82119162D01*
X128361257Y-82119155D01*
X128463202Y-82119149D01*
X128566906Y-82119143D01*
X128672384Y-82119136D01*
X128779649Y-82119130D01*
X128888716Y-82119125D01*
X128999600Y-82119119D01*
X129112315Y-82119114D01*
X129226876Y-82119108D01*
X129343297Y-82119103D01*
X129461592Y-82119098D01*
X129581776Y-82119093D01*
X129703864Y-82119089D01*
X129827869Y-82119084D01*
X129953807Y-82119080D01*
X130081691Y-82119076D01*
X130211536Y-82119071D01*
X130343357Y-82119067D01*
X130477168Y-82119064D01*
X130612984Y-82119060D01*
X130750818Y-82119057D01*
X130890686Y-82119053D01*
X131032601Y-82119050D01*
X131176579Y-82119047D01*
X131322633Y-82119044D01*
X131470779Y-82119041D01*
X131621030Y-82119038D01*
X131773401Y-82119036D01*
X131927907Y-82119033D01*
X132084561Y-82119031D01*
X132243379Y-82119028D01*
X132404375Y-82119026D01*
X132567563Y-82119024D01*
X132732958Y-82119022D01*
X132900573Y-82119020D01*
X133070425Y-82119019D01*
X133242526Y-82119017D01*
X133416892Y-82119016D01*
X133593537Y-82119014D01*
X133772475Y-82119013D01*
X133953720Y-82119012D01*
X134137289Y-82119010D01*
X134323193Y-82119009D01*
X134511449Y-82119008D01*
X134702071Y-82119007D01*
X134895072Y-82119007D01*
X135090468Y-82119006D01*
X135288273Y-82119005D01*
X135488501Y-82119005D01*
X135691167Y-82119004D01*
X135896286Y-82119004D01*
X136103870Y-82119003D01*
X138371378Y-82119003D01*
X138580729Y-82119004D01*
G37*
X138580729Y-82119004D02*
X138787607Y-82119004D01*
X138992023Y-82119005D01*
X139193994Y-82119005D01*
X139393534Y-82119006D01*
X139590655Y-82119007D01*
X139785374Y-82119008D01*
X139977704Y-82119009D01*
X140167659Y-82119010D01*
X140355255Y-82119011D01*
X140540504Y-82119012D01*
X140723421Y-82119013D01*
X140904022Y-82119015D01*
X141082319Y-82119016D01*
X141258327Y-82119018D01*
X141432061Y-82119019D01*
X141603535Y-82119021D01*
X141772763Y-82119023D01*
X141939760Y-82119025D01*
X142104539Y-82119027D01*
X142267115Y-82119030D01*
X142427503Y-82119032D01*
X142585716Y-82119035D01*
X142741769Y-82119037D01*
X142895676Y-82119040D01*
X143047452Y-82119043D01*
X143197110Y-82119046D01*
X143344666Y-82119049D01*
X143490133Y-82119052D01*
X143633526Y-82119056D01*
X143774859Y-82119059D01*
X143914146Y-82119063D01*
X144051401Y-82119067D01*
X144186640Y-82119071D01*
X144319875Y-82119075D01*
X144451122Y-82119079D01*
X144580395Y-82119083D01*
X144707708Y-82119088D01*
X144833075Y-82119093D01*
X144956511Y-82119097D01*
X145078029Y-82119102D01*
X145197645Y-82119108D01*
X145315373Y-82119113D01*
X145431226Y-82119118D01*
X145545220Y-82119124D01*
X145657367Y-82119130D01*
X145767684Y-82119136D01*
X145876183Y-82119142D01*
X145982880Y-82119148D01*
X146087789Y-82119155D01*
X146190923Y-82119161D01*
X146292297Y-82119168D01*
X146391926Y-82119175D01*
X146489824Y-82119183D01*
X146586005Y-82119190D01*
X146680483Y-82119198D01*
X146773273Y-82119205D01*
X146864388Y-82119213D01*
X146953844Y-82119222D01*
X147041655Y-82119230D01*
X147127834Y-82119239D01*
X147212397Y-82119247D01*
X147295356Y-82119256D01*
X147376728Y-82119265D01*
X147456526Y-82119275D01*
X147534764Y-82119284D01*
X147611456Y-82119294D01*
X147686618Y-82119304D01*
X147760262Y-82119315D01*
X147832404Y-82119325D01*
X147903058Y-82119336D01*
X147972238Y-82119347D01*
X148039959Y-82119358D01*
X148106234Y-82119369D01*
X148171078Y-82119381D01*
X148234505Y-82119392D01*
X148296530Y-82119404D01*
X148357167Y-82119417D01*
X148416430Y-82119429D01*
X148474333Y-82119442D01*
X148530891Y-82119455D01*
X148586118Y-82119468D01*
X148640028Y-82119482D01*
X148692636Y-82119495D01*
X148743956Y-82119509D01*
X148794003Y-82119524D01*
X148842789Y-82119538D01*
X148890331Y-82119553D01*
X148936641Y-82119568D01*
X148981735Y-82119583D01*
X149025627Y-82119598D01*
X149068331Y-82119614D01*
X149109861Y-82119630D01*
X149150231Y-82119647D01*
X149189457Y-82119663D01*
X149227551Y-82119680D01*
X149264529Y-82119697D01*
X149300405Y-82119715D01*
X149335193Y-82119732D01*
X149368907Y-82119750D01*
X149401562Y-82119768D01*
X149433172Y-82119787D01*
X149463751Y-82119806D01*
X149493313Y-82119825D01*
X149521874Y-82119844D01*
X149549446Y-82119864D01*
X149576045Y-82119884D01*
X149601685Y-82119904D01*
X149626379Y-82119925D01*
X149650143Y-82119946D01*
X149672991Y-82119967D01*
X149694936Y-82119988D01*
X149715994Y-82120010D01*
X149736178Y-82120032D01*
X149755503Y-82120055D01*
X149773983Y-82120077D01*
X149791632Y-82120100D01*
X149808465Y-82120124D01*
X149824496Y-82120147D01*
X149839739Y-82120171D01*
X149854209Y-82120196D01*
X149867919Y-82120220D01*
X149880885Y-82120245D01*
X149893120Y-82120271D01*
X149904639Y-82120296D01*
X149915456Y-82120322D01*
X149925585Y-82120349D01*
X149935041Y-82120375D01*
X149943838Y-82120402D01*
X149951990Y-82120430D01*
X149959511Y-82120457D01*
X149966417Y-82120485D01*
X149972720Y-82120514D01*
X149978436Y-82120542D01*
X149983578Y-82120572D01*
X149988162Y-82120601D01*
X149992200Y-82120631D01*
X149995709Y-82120661D01*
X149998701Y-82120691D01*
X150001191Y-82120722D01*
X150003194Y-82120754D01*
X150004723Y-82120785D01*
X150005794Y-82120817D01*
X150006420Y-82120850D01*
X150006586Y-82120869D01*
X150022464Y-82125440D01*
X150036966Y-82132146D01*
X150050009Y-82140907D01*
X150061506Y-82151647D01*
X150071373Y-82164288D01*
X150079525Y-82178752D01*
X150085106Y-82192613D01*
X150088134Y-82201574D01*
X150088484Y-82721326D01*
X150088513Y-82765045D01*
X150088539Y-82806276D01*
X150088561Y-82845095D01*
X150088580Y-82881574D01*
X150088595Y-82915787D01*
X150088605Y-82947807D01*
X150088612Y-82977708D01*
X150088614Y-83005564D01*
X150088611Y-83031448D01*
X150088603Y-83055433D01*
X150088590Y-83077594D01*
X150088571Y-83098003D01*
X150088547Y-83116735D01*
X150088516Y-83133863D01*
X150088480Y-83149460D01*
X150088437Y-83163600D01*
X150088387Y-83176356D01*
X150088331Y-83187803D01*
X150088267Y-83198013D01*
X150088196Y-83207061D01*
X150088118Y-83215019D01*
X150088032Y-83221962D01*
X150087937Y-83227962D01*
X150087835Y-83233094D01*
X150087724Y-83237431D01*
X150087604Y-83241047D01*
X150087475Y-83244014D01*
X150087337Y-83246407D01*
X150087190Y-83248300D01*
X150087033Y-83249765D01*
X150086866Y-83250877D01*
X150086811Y-83251169D01*
X150082671Y-83266128D01*
X150076443Y-83279850D01*
X150067991Y-83292576D01*
X150057179Y-83304544D01*
X150055610Y-83306041D01*
X150043387Y-83315787D01*
X150029708Y-83323541D01*
X150014952Y-83329098D01*
X150011323Y-83330074D01*
X150011096Y-83330129D01*
X150010849Y-83330183D01*
X150010562Y-83330236D01*
X150010216Y-83330289D01*
X150009794Y-83330340D01*
X150009277Y-83330391D01*
X150008645Y-83330441D01*
X150007882Y-83330491D01*
X150006967Y-83330540D01*
X150005884Y-83330588D01*
X150004612Y-83330635D01*
X150003134Y-83330681D01*
X150001431Y-83330727D01*
X149999484Y-83330772D01*
X149997276Y-83330816D01*
X149994787Y-83330860D01*
X149991998Y-83330903D01*
X149988892Y-83330945D01*
X149985450Y-83330987D01*
X149981653Y-83331028D01*
X149977483Y-83331068D01*
X149972922Y-83331108D01*
X149967950Y-83331147D01*
X149962549Y-83331185D01*
X149956700Y-83331222D01*
X149950386Y-83331259D01*
X149943588Y-83331296D01*
X149936286Y-83331332D01*
X149928463Y-83331367D01*
X149920100Y-83331401D01*
X149911179Y-83331435D01*
X149901680Y-83331468D01*
X149891586Y-83331501D01*
X149880877Y-83331533D01*
X149869536Y-83331565D01*
X149857544Y-83331596D01*
X149844882Y-83331626D01*
X149831531Y-83331656D01*
X149817474Y-83331685D01*
X149802692Y-83331714D01*
X149787165Y-83331742D01*
X149770877Y-83331770D01*
X149753807Y-83331797D01*
X149735938Y-83331824D01*
X149717250Y-83331850D01*
X149697727Y-83331876D01*
X149677348Y-83331901D01*
X149656096Y-83331926D01*
X149633951Y-83331950D01*
X149610896Y-83331973D01*
X149586912Y-83331997D01*
X149561980Y-83332019D01*
X149536081Y-83332042D01*
X149509198Y-83332063D01*
X149481312Y-83332085D01*
X149452404Y-83332106D01*
X149422455Y-83332126D01*
X149391447Y-83332146D01*
X149359362Y-83332166D01*
X149326181Y-83332185D01*
X149291886Y-83332204D01*
X149256457Y-83332222D01*
X149219877Y-83332240D01*
X149182127Y-83332258D01*
X149143188Y-83332275D01*
X149103042Y-83332292D01*
X149061670Y-83332308D01*
X149019054Y-83332325D01*
X148975175Y-83332340D01*
X148930015Y-83332356D01*
X148883555Y-83332371D01*
X148835777Y-83332386D01*
X148786662Y-83332400D01*
X148736191Y-83332414D01*
X148684347Y-83332428D01*
X148631110Y-83332441D01*
X148576462Y-83332454D01*
X148520384Y-83332467D01*
X148462858Y-83332480D01*
X148403866Y-83332492D01*
X148343389Y-83332504D01*
X148281407Y-83332516D01*
X148217904Y-83332527D01*
X148152860Y-83332538D01*
X148086256Y-83332549D01*
X148018075Y-83332560D01*
X147948298Y-83332570D01*
X147876905Y-83332581D01*
X147803879Y-83332591D01*
X147729202Y-83332600D01*
X147652853Y-83332610D01*
X147574816Y-83332619D01*
X147495071Y-83332628D01*
X147413600Y-83332637D01*
X147330385Y-83332646D01*
X147245406Y-83332655D01*
X147158646Y-83332663D01*
X147070085Y-83332671D01*
X146979706Y-83332679D01*
X146887490Y-83332687D01*
X146793417Y-83332695D01*
X146697471Y-83332703D01*
X146599631Y-83332710D01*
X146499881Y-83332717D01*
X146398200Y-83332725D01*
X146294571Y-83332732D01*
X146188974Y-83332739D01*
X146081393Y-83332746D01*
X145971807Y-83332752D01*
X145860198Y-83332759D01*
X145746549Y-83332766D01*
X145630840Y-83332772D01*
X145513053Y-83332779D01*
X145393169Y-83332785D01*
X145271169Y-83332792D01*
X145147036Y-83332798D01*
X145020751Y-83332804D01*
X144892295Y-83332810D01*
X144761649Y-83332816D01*
X144628796Y-83332823D01*
X144493716Y-83332829D01*
X144356391Y-83332835D01*
X144216803Y-83332841D01*
X144074933Y-83332847D01*
X143930762Y-83332853D01*
X143784272Y-83332859D01*
X143635444Y-83332865D01*
X143484260Y-83332872D01*
X143330702Y-83332878D01*
X143174750Y-83332884D01*
X143016386Y-83332890D01*
X142855593Y-83332897D01*
X142692350Y-83332903D01*
X142526640Y-83332909D01*
X142358444Y-83332916D01*
X142187744Y-83332923D01*
X142014521Y-83332929D01*
X141838756Y-83332936D01*
X141835470Y-83332936D01*
X133669858Y-83333251D01*
X133669537Y-84230975D01*
X133669216Y-85128700D01*
X134123568Y-85128700D01*
X134164553Y-85128699D01*
X134203058Y-85128696D01*
X134239162Y-85128694D01*
X134272946Y-85128693D01*
X134304491Y-85128694D01*
X134333875Y-85128699D01*
X134361179Y-85128708D01*
X134386483Y-85128724D01*
X134409867Y-85128747D01*
X134431411Y-85128779D01*
X134451195Y-85128820D01*
X134469300Y-85128873D01*
X134485804Y-85128937D01*
X134500789Y-85129015D01*
X134514335Y-85129108D01*
X134526521Y-85129216D01*
X134537427Y-85129342D01*
X134547133Y-85129486D01*
X134555721Y-85129649D01*
X134563269Y-85129833D01*
X134569857Y-85130040D01*
X134575566Y-85130269D01*
X134580476Y-85130523D01*
X134584667Y-85130803D01*
X134588219Y-85131109D01*
X134591211Y-85131444D01*
X134593724Y-85131808D01*
X134595839Y-85132202D01*
X134597634Y-85132629D01*
X134599191Y-85133088D01*
X134600589Y-85133582D01*
X134601907Y-85134111D01*
X134603228Y-85134677D01*
X134604629Y-85135281D01*
X134606192Y-85135924D01*
X134606620Y-85136092D01*
X134620090Y-85142654D01*
X134632591Y-85151373D01*
X134643803Y-85161930D01*
X134653406Y-85174006D01*
X134661078Y-85187280D01*
X134663494Y-85192754D01*
X134664218Y-85194500D01*
X134664889Y-85196084D01*
X134665509Y-85197605D01*
X134666079Y-85199160D01*
X134666602Y-85200849D01*
X134667080Y-85202772D01*
X134667515Y-85205027D01*
X134667908Y-85207713D01*
X134668263Y-85210929D01*
X134668580Y-85214774D01*
X134668863Y-85219347D01*
X134669112Y-85224747D01*
X134669331Y-85231073D01*
X134669520Y-85238425D01*
X134669683Y-85246900D01*
X134669822Y-85256599D01*
X134669937Y-85267619D01*
X134670032Y-85280061D01*
X134670108Y-85294023D01*
X134670168Y-85309603D01*
X134670213Y-85326902D01*
X134670245Y-85346017D01*
X134670268Y-85367049D01*
X134670281Y-85390096D01*
X134670289Y-85415256D01*
X134670292Y-85442630D01*
X134670293Y-85472316D01*
X134670294Y-85504412D01*
X134670295Y-85521715D01*
X134670317Y-85825758D01*
X135095465Y-86250776D01*
X135123213Y-86278519D01*
X135150539Y-86305849D01*
X135177388Y-86332707D01*
X135203700Y-86359037D01*
X135229418Y-86384780D01*
X135254485Y-86409879D01*
X135278842Y-86434275D01*
X135302433Y-86457910D01*
X135325199Y-86480727D01*
X135347083Y-86502667D01*
X135368027Y-86523673D01*
X135387973Y-86543687D01*
X135406864Y-86562650D01*
X135424641Y-86580506D01*
X135441248Y-86597196D01*
X135456627Y-86612661D01*
X135470719Y-86626845D01*
X135483468Y-86639690D01*
X135494815Y-86651136D01*
X135504703Y-86661127D01*
X135513074Y-86669605D01*
X135519871Y-86676511D01*
X135525035Y-86681788D01*
X135528509Y-86685378D01*
X135530236Y-86687223D01*
X135530315Y-86687316D01*
X135545218Y-86706863D01*
X135557733Y-86727306D01*
X135567908Y-86748748D01*
X135575789Y-86771288D01*
X135581423Y-86795030D01*
X135582396Y-86800611D01*
X135582503Y-86801440D01*
X135582607Y-86802617D01*
X135582706Y-86804189D01*
X135582802Y-86806201D01*
X135582894Y-86808700D01*
X135582983Y-86811731D01*
X135583068Y-86815342D01*
X135583149Y-86819578D01*
X135583227Y-86824485D01*
X135583302Y-86830110D01*
X135583374Y-86836498D01*
X135583442Y-86843697D01*
X135583507Y-86851751D01*
X135583569Y-86860708D01*
X135583629Y-86870613D01*
X135583685Y-86881513D01*
X135583738Y-86893453D01*
X135583789Y-86906481D01*
X135583837Y-86920641D01*
X135583882Y-86935981D01*
X135583924Y-86952546D01*
X135583965Y-86970382D01*
X135584002Y-86989536D01*
X135584038Y-87010055D01*
X135584071Y-87031983D01*
X135584101Y-87055368D01*
X135584130Y-87080255D01*
X135584157Y-87106690D01*
X135584181Y-87134721D01*
X135584204Y-87164392D01*
X135584225Y-87195750D01*
X135584244Y-87228842D01*
X135584261Y-87263713D01*
X135584277Y-87300409D01*
X135584291Y-87338978D01*
X135584303Y-87379464D01*
X135584314Y-87421915D01*
X135584324Y-87466375D01*
X135584332Y-87512892D01*
X135584339Y-87561512D01*
X135584345Y-87612281D01*
X135584350Y-87665244D01*
X135584354Y-87720449D01*
X135584357Y-87777941D01*
X135584359Y-87837766D01*
X135584360Y-87899971D01*
X135584360Y-88031704D01*
X135584359Y-88095285D01*
X135584357Y-88164783D01*
X135584355Y-88231767D01*
X135584353Y-88296282D01*
X135584349Y-88358375D01*
X135584345Y-88418092D01*
X135584340Y-88475478D01*
X135584334Y-88530579D01*
X135584327Y-88583443D01*
X135584319Y-88634114D01*
X135584310Y-88682638D01*
X135584300Y-88729062D01*
X135584288Y-88773432D01*
X135584275Y-88815793D01*
X135584261Y-88856191D01*
X135584245Y-88894673D01*
X135584228Y-88931285D01*
X135584209Y-88966072D01*
X135584188Y-88999081D01*
X135584166Y-89030357D01*
X135584141Y-89059947D01*
X135584115Y-89087896D01*
X135584087Y-89114251D01*
X135584057Y-89139057D01*
X135584024Y-89162360D01*
X135583990Y-89184207D01*
X135583953Y-89204643D01*
X135583914Y-89223715D01*
X135583872Y-89241468D01*
X135583828Y-89257949D01*
X135583782Y-89273203D01*
X135583733Y-89287277D01*
X135583681Y-89300215D01*
X135583626Y-89312066D01*
X135583569Y-89322873D01*
X135583509Y-89332684D01*
X135583446Y-89341544D01*
X135583380Y-89349500D01*
X135583310Y-89356597D01*
X135583238Y-89362881D01*
X135583162Y-89368398D01*
X135583083Y-89373195D01*
X135583001Y-89377317D01*
X135582915Y-89380811D01*
X135582826Y-89383722D01*
X135582733Y-89386095D01*
X135582636Y-89387979D01*
X135582536Y-89389417D01*
X135582432Y-89390457D01*
X135582388Y-89390776D01*
X135577580Y-89414410D01*
X135570457Y-89437114D01*
X135561133Y-89458748D01*
X135549721Y-89479175D01*
X135536335Y-89498257D01*
X135521090Y-89515856D01*
X135504097Y-89531835D01*
X135485473Y-89546055D01*
X135465329Y-89558379D01*
X135443780Y-89568669D01*
X135431922Y-89573217D01*
X135414921Y-89578324D01*
X135396648Y-89582219D01*
X135377880Y-89584801D01*
X135359395Y-89585968D01*
X135341970Y-89585617D01*
X135339210Y-89585402D01*
X135314944Y-89582049D01*
X135291438Y-89576304D01*
X135268835Y-89568230D01*
X135247279Y-89557892D01*
X135226912Y-89545355D01*
X135207879Y-89530681D01*
X135199554Y-89523176D01*
X135182941Y-89505716D01*
X135168383Y-89486746D01*
X135155914Y-89466325D01*
X135145566Y-89444514D01*
X135137372Y-89421370D01*
X135132219Y-89401136D01*
X135129261Y-89387210D01*
X135128937Y-88158880D01*
X135128613Y-86930549D01*
X134829375Y-86631306D01*
X134530138Y-86332062D01*
X133042477Y-86332070D01*
X132760090Y-86332070D01*
X132695566Y-86332069D01*
X132633385Y-86332068D01*
X132573503Y-86332066D01*
X132515875Y-86332064D01*
X132460459Y-86332061D01*
X132407210Y-86332057D01*
X132356086Y-86332053D01*
X132307041Y-86332048D01*
X132260034Y-86332041D01*
X132215019Y-86332034D01*
X132171955Y-86332026D01*
X132130796Y-86332016D01*
X132091499Y-86332006D01*
X132054021Y-86331994D01*
X132018317Y-86331980D01*
X131984345Y-86331965D01*
X131952061Y-86331949D01*
X131921421Y-86331931D01*
X131892381Y-86331911D01*
X131864898Y-86331890D01*
X131838929Y-86331867D01*
X131814428Y-86331842D01*
X131791354Y-86331815D01*
X131769662Y-86331786D01*
X131749308Y-86331755D01*
X131730250Y-86331722D01*
X131712443Y-86331686D01*
X131695843Y-86331649D01*
X131680408Y-86331608D01*
X131666093Y-86331566D01*
X131652855Y-86331521D01*
X131640651Y-86331473D01*
X131629435Y-86331423D01*
X131619166Y-86331370D01*
X131609799Y-86331314D01*
X131601291Y-86331255D01*
X131593597Y-86331194D01*
X131586676Y-86331129D01*
X131580481Y-86331061D01*
X131574971Y-86330990D01*
X131570102Y-86330916D01*
X131565829Y-86330839D01*
X131562110Y-86330758D01*
X131558900Y-86330673D01*
X131556156Y-86330586D01*
X131553835Y-86330494D01*
X131551892Y-86330399D01*
X131550284Y-86330300D01*
X131548968Y-86330198D01*
X131547899Y-86330091D01*
X131547035Y-86329981D01*
X131546331Y-86329867D01*
X131545744Y-86329748D01*
X131545231Y-86329625D01*
X131545190Y-86329615D01*
X131529680Y-86324388D01*
X131515553Y-86317059D01*
X131502941Y-86307763D01*
X131491976Y-86296632D01*
X131482792Y-86283800D01*
X131475520Y-86269400D01*
X131470543Y-86254537D01*
X131470375Y-86253712D01*
X131470217Y-86252511D01*
X131470069Y-86250862D01*
X131469929Y-86248690D01*
X131469798Y-86245923D01*
X131469675Y-86242487D01*
X131469561Y-86238311D01*
X131469454Y-86233319D01*
X131469356Y-86227440D01*
X131469264Y-86220599D01*
X131469180Y-86212725D01*
X131469102Y-86203744D01*
X131469031Y-86193582D01*
X131468966Y-86182166D01*
X131468908Y-86169425D01*
X131468855Y-86155283D01*
X131468807Y-86139668D01*
X131468764Y-86122508D01*
X131468727Y-86103728D01*
X131468693Y-86083256D01*
X131468664Y-86061019D01*
X131468640Y-86036943D01*
X131468619Y-86010956D01*
X131468601Y-85982983D01*
X131468586Y-85952953D01*
X131468575Y-85920792D01*
X131468566Y-85886426D01*
X131468559Y-85849783D01*
X131468555Y-85810790D01*
X131468552Y-85769373D01*
X131468551Y-85731332D01*
X131468551Y-85687617D01*
X131468553Y-85646390D01*
X131468557Y-85607579D01*
X131468563Y-85571110D01*
X131468572Y-85536912D01*
X131468584Y-85504911D01*
X131468599Y-85475036D01*
X131468618Y-85447213D01*
X131468640Y-85421371D01*
X131468666Y-85397436D01*
X131468696Y-85375336D01*
X131468731Y-85354998D01*
X131468770Y-85336351D01*
X131468815Y-85319321D01*
X131468864Y-85303837D01*
X131468920Y-85289824D01*
X131468980Y-85277212D01*
X131469048Y-85265927D01*
X131469121Y-85255897D01*
X131469201Y-85247049D01*
X131469288Y-85239311D01*
X131469382Y-85232610D01*
X131469483Y-85226874D01*
X131469592Y-85222031D01*
X131469708Y-85218007D01*
X131469833Y-85214730D01*
X131469967Y-85212128D01*
X131470109Y-85210128D01*
X131470260Y-85208657D01*
X131470420Y-85207644D01*
X131470459Y-85207465D01*
X131475251Y-85192293D01*
X131482236Y-85178296D01*
X131491256Y-85165636D01*
X131502151Y-85154477D01*
X131514762Y-85144983D01*
X131528931Y-85137317D01*
X131544124Y-85131749D01*
X131544920Y-85131535D01*
X131545835Y-85131334D01*
X131546948Y-85131146D01*
X131548339Y-85130969D01*
X131550087Y-85130804D01*
X131552272Y-85130651D01*
X131554974Y-85130507D01*
X131558272Y-85130374D01*
X131562246Y-85130251D01*
X131566975Y-85130136D01*
X131572540Y-85130031D01*
X131579020Y-85129934D01*
X131586494Y-85129844D01*
X131595042Y-85129762D01*
X131604743Y-85129687D01*
X131615678Y-85129618D01*
X131627926Y-85129555D01*
X131641567Y-85129497D01*
X131656680Y-85129445D01*
X131673344Y-85129397D01*
X131691640Y-85129353D01*
X131711648Y-85129312D01*
X131733446Y-85129275D01*
X131757114Y-85129240D01*
X131782732Y-85129208D01*
X131810380Y-85129177D01*
X131840138Y-85129148D01*
X131872084Y-85129119D01*
X131906299Y-85129090D01*
X131942862Y-85129062D01*
X131981852Y-85129032D01*
X132009148Y-85129012D01*
X132465851Y-85128679D01*
X132465851Y-84331149D01*
X126669207Y-84331149D01*
X126669528Y-85663494D01*
X126669848Y-86995838D01*
X130626877Y-86996109D01*
X130749272Y-86996117D01*
X130869133Y-86996125D01*
X130986487Y-86996134D01*
X131101359Y-86996142D01*
X131213777Y-86996150D01*
X131323766Y-86996159D01*
X131431353Y-86996167D01*
X131536565Y-86996176D01*
X131639427Y-86996184D01*
X131739966Y-86996193D01*
X131838209Y-86996201D01*
X131934181Y-86996210D01*
X132027910Y-86996219D01*
X132119421Y-86996228D01*
X132208742Y-86996238D01*
X132295897Y-86996247D01*
X132380915Y-86996257D01*
X132463820Y-86996267D01*
X132544640Y-86996277D01*
X132623401Y-86996287D01*
X132700129Y-86996297D01*
X132774850Y-86996308D01*
X132847592Y-86996319D01*
X132918380Y-86996331D01*
X132987241Y-86996343D01*
X133054201Y-86996355D01*
X133119287Y-86996367D01*
X133182524Y-86996380D01*
X133243940Y-86996393D01*
X133303560Y-86996407D01*
X133361412Y-86996421D01*
X133417521Y-86996435D01*
X133471913Y-86996450D01*
X133524616Y-86996466D01*
X133575656Y-86996481D01*
X133625058Y-86996498D01*
X133672850Y-86996515D01*
X133719058Y-86996532D01*
X133763707Y-86996550D01*
X133806825Y-86996568D01*
X133848438Y-86996587D01*
X133888573Y-86996607D01*
X133927254Y-86996627D01*
X133964510Y-86996648D01*
X134000366Y-86996670D01*
X134034849Y-86996692D01*
X134067985Y-86996715D01*
X134099801Y-86996738D01*
X134130323Y-86996762D01*
X134159576Y-86996787D01*
X134187589Y-86996813D01*
X134214386Y-86996839D01*
X134239995Y-86996867D01*
X134264442Y-86996894D01*
X134287753Y-86996923D01*
X134309954Y-86996953D01*
X134331073Y-86996983D01*
X134351135Y-86997014D01*
X134370166Y-86997046D01*
X134388193Y-86997079D01*
X134405243Y-86997113D01*
X134421342Y-86997148D01*
X134436516Y-86997184D01*
X134450792Y-86997220D01*
X134464196Y-86997258D01*
X134476754Y-86997296D01*
X134488492Y-86997336D01*
X134499438Y-86997377D01*
X134509618Y-86997418D01*
X134519057Y-86997461D01*
X134527783Y-86997504D01*
X134535821Y-86997549D01*
X134543198Y-86997595D01*
X134549941Y-86997642D01*
X134556075Y-86997690D01*
X134561628Y-86997739D01*
X134566625Y-86997789D01*
X134571093Y-86997840D01*
X134575058Y-86997893D01*
X134578547Y-86997947D01*
X134581587Y-86998002D01*
X134584202Y-86998058D01*
X134586421Y-86998115D01*
X134588268Y-86998174D01*
X134589771Y-86998234D01*
X134590957Y-86998295D01*
X134591850Y-86998358D01*
X134592479Y-86998422D01*
X134592866Y-86998487D01*
X134607824Y-87003282D01*
X134621661Y-87010267D01*
X134634180Y-87019244D01*
X134645183Y-87030014D01*
X134654474Y-87042380D01*
X134661855Y-87056143D01*
X134667129Y-87071105D01*
X134667809Y-87073784D01*
X134667954Y-87074417D01*
X134668094Y-87075113D01*
X134668228Y-87075922D01*
X134668357Y-87076896D01*
X134668480Y-87078087D01*
X134668598Y-87079545D01*
X134668711Y-87081322D01*
X134668818Y-87083470D01*
X134668921Y-87086040D01*
X134669018Y-87089083D01*
X134669111Y-87092650D01*
X134669200Y-87096794D01*
X134669284Y-87101564D01*
X134669363Y-87107014D01*
X134669438Y-87113194D01*
X134669510Y-87120155D01*
X134669577Y-87127950D01*
X134669640Y-87136628D01*
X134669699Y-87146242D01*
X134669755Y-87156844D01*
X134669807Y-87168483D01*
X134669856Y-87181213D01*
X134669901Y-87195084D01*
X134669943Y-87210147D01*
X134669982Y-87226455D01*
X134670019Y-87244057D01*
X134670052Y-87263007D01*
X134670082Y-87283354D01*
X134670110Y-87305152D01*
X134670136Y-87328450D01*
X134670159Y-87353300D01*
X134670179Y-87379754D01*
X134670198Y-87407863D01*
X134670215Y-87437678D01*
X134670229Y-87469251D01*
X134670242Y-87502634D01*
X134670253Y-87537877D01*
X134670263Y-87575032D01*
X134670271Y-87614150D01*
X134670278Y-87655283D01*
X134670283Y-87698482D01*
X134670288Y-87743799D01*
X134670292Y-87791284D01*
X134670294Y-87840990D01*
X134670296Y-87892967D01*
X134670298Y-87947268D01*
X134670298Y-88003943D01*
X134670299Y-88063043D01*
X134670299Y-88287765D01*
X134670298Y-88345935D01*
X134670297Y-88401699D01*
X134670296Y-88455108D01*
X134670293Y-88506214D01*
X134670290Y-88555068D01*
X134670286Y-88601721D01*
X134670281Y-88646225D01*
X134670275Y-88688631D01*
X134670268Y-88728990D01*
X134670259Y-88767354D01*
X134670249Y-88803774D01*
X134670237Y-88838302D01*
X134670224Y-88870989D01*
X134670208Y-88901887D01*
X134670191Y-88931046D01*
X134670172Y-88958518D01*
X134670150Y-88984355D01*
X134670126Y-89008608D01*
X134670100Y-89031328D01*
X134670071Y-89052567D01*
X134670039Y-89072376D01*
X134670005Y-89090806D01*
X134669968Y-89107909D01*
X134669928Y-89123737D01*
X134669884Y-89138340D01*
X134669838Y-89151769D01*
X134669788Y-89164078D01*
X134669734Y-89175316D01*
X134669677Y-89185535D01*
X134669616Y-89194787D01*
X134669552Y-89203122D01*
X134669483Y-89210593D01*
X134669410Y-89217251D01*
X134669333Y-89223146D01*
X134669252Y-89228331D01*
X134669167Y-89232857D01*
X134669077Y-89236775D01*
X134668982Y-89240136D01*
X134668882Y-89242993D01*
X134668778Y-89245396D01*
X134668668Y-89247396D01*
X134668554Y-89249046D01*
X134668434Y-89250396D01*
X134668309Y-89251498D01*
X134668178Y-89252403D01*
X134668042Y-89253163D01*
X134667900Y-89253829D01*
X134667809Y-89254217D01*
X134662856Y-89269601D01*
X134655766Y-89283695D01*
X134646703Y-89296332D01*
X134635830Y-89307347D01*
X134623309Y-89316575D01*
X134609305Y-89323849D01*
X134594188Y-89328951D01*
X134593317Y-89329170D01*
X134592418Y-89329376D01*
X134591413Y-89329570D01*
X134590229Y-89329752D01*
X134588790Y-89329923D01*
X134587020Y-89330083D01*
X134584846Y-89330231D01*
X134582191Y-89330370D01*
X134578981Y-89330498D01*
X134575140Y-89330617D01*
X134570594Y-89330727D01*
X134565266Y-89330828D01*
X134559083Y-89330920D01*
X134551968Y-89331004D01*
X134543847Y-89331081D01*
X134534644Y-89331150D01*
X134524285Y-89331212D01*
X134512695Y-89331268D01*
X134499797Y-89331317D01*
X134485518Y-89331360D01*
X134469781Y-89331398D01*
X134452512Y-89331431D01*
X134433636Y-89331459D01*
X134413077Y-89331483D01*
X134390760Y-89331502D01*
X134366611Y-89331518D01*
X134340553Y-89331531D01*
X134312513Y-89331541D01*
X134282414Y-89331548D01*
X134250182Y-89331553D01*
X134215742Y-89331557D01*
X134179018Y-89331559D01*
X134139935Y-89331560D01*
X134025408Y-89331560D01*
X133984669Y-89331559D01*
X133946339Y-89331558D01*
X133910344Y-89331555D01*
X133876609Y-89331551D01*
X133845059Y-89331545D01*
X133815618Y-89331537D01*
X133788212Y-89331526D01*
X133762766Y-89331512D01*
X133739203Y-89331494D01*
X133717450Y-89331473D01*
X133697431Y-89331448D01*
X133679071Y-89331418D01*
X133662294Y-89331383D01*
X133647026Y-89331343D01*
X133633192Y-89331298D01*
X133620716Y-89331246D01*
X133609523Y-89331188D01*
X133599539Y-89331124D01*
X133590688Y-89331052D01*
X133582894Y-89330973D01*
X133576083Y-89330886D01*
X133570180Y-89330791D01*
X133565110Y-89330687D01*
X133560797Y-89330575D01*
X133557166Y-89330453D01*
X133554143Y-89330322D01*
X133551652Y-89330180D01*
X133549617Y-89330029D01*
X133547965Y-89329866D01*
X133546619Y-89329693D01*
X133545505Y-89329507D01*
X133544547Y-89329310D01*
X133543671Y-89329101D01*
X133543236Y-89328991D01*
X133529046Y-89324145D01*
X133515489Y-89317159D01*
X133503092Y-89308364D01*
X133492380Y-89298089D01*
X133490403Y-89295786D01*
X133485187Y-89288594D01*
X133479950Y-89279818D01*
X133475178Y-89270384D01*
X133471357Y-89261219D01*
X133469838Y-89256632D01*
X133469638Y-89255855D01*
X133469450Y-89254881D01*
X133469274Y-89253631D01*
X133469108Y-89252026D01*
X133468954Y-89249986D01*
X133468809Y-89247433D01*
X133468675Y-89244288D01*
X133468550Y-89240470D01*
X133468434Y-89235902D01*
X133468326Y-89230505D01*
X133468226Y-89224198D01*
X133468134Y-89216904D01*
X133468050Y-89208542D01*
X133467972Y-89199035D01*
X133467900Y-89188302D01*
X133467834Y-89176265D01*
X133467774Y-89162845D01*
X133467718Y-89147962D01*
X133467668Y-89131538D01*
X133467621Y-89113494D01*
X133467578Y-89093749D01*
X133467538Y-89072226D01*
X133467502Y-89048845D01*
X133467467Y-89023528D01*
X133467435Y-88996194D01*
X133467404Y-88966765D01*
X133467374Y-88935162D01*
X133467345Y-88901306D01*
X133467315Y-88865118D01*
X133467286Y-88826518D01*
X133467260Y-88790327D01*
X133466929Y-88331703D01*
X132669400Y-88331703D01*
X132669355Y-88785206D01*
X132669352Y-88826155D01*
X132669350Y-88864624D01*
X132669348Y-88900693D01*
X132669344Y-88934442D01*
X132669339Y-88965950D01*
X132669329Y-88995299D01*
X132669316Y-89022569D01*
X132669296Y-89047838D01*
X132669269Y-89071189D01*
X132669235Y-89092700D01*
X132669191Y-89112452D01*
X132669137Y-89130524D01*
X132669071Y-89146998D01*
X132668992Y-89161953D01*
X132668900Y-89175469D01*
X132668793Y-89187626D01*
X132668669Y-89198505D01*
X132668528Y-89208186D01*
X132668369Y-89216748D01*
X132668190Y-89224272D01*
X132667991Y-89230838D01*
X132667769Y-89236526D01*
X132667525Y-89241416D01*
X132667256Y-89245589D01*
X132666962Y-89249124D01*
X132666641Y-89252101D01*
X132666293Y-89254601D01*
X132665916Y-89256704D01*
X132665509Y-89258489D01*
X132665071Y-89260038D01*
X132664601Y-89261429D01*
X132664097Y-89262744D01*
X132663559Y-89264062D01*
X132662985Y-89265464D01*
X132662439Y-89266857D01*
X132656464Y-89279453D01*
X132648414Y-89291646D01*
X132638763Y-89302819D01*
X132627987Y-89312357D01*
X132626514Y-89313455D01*
X132618975Y-89318223D01*
X132609972Y-89322785D01*
X132600585Y-89326642D01*
X132592953Y-89329032D01*
X132592150Y-89329231D01*
X132591290Y-89329419D01*
X132590301Y-89329596D01*
X132589115Y-89329763D01*
X132587660Y-89329921D01*
X132585868Y-89330069D01*
X132583667Y-89330208D01*
X132580988Y-89330338D01*
X132577761Y-89330459D01*
X132573916Y-89330572D01*
X132569383Y-89330677D01*
X132564091Y-89330774D01*
X132557971Y-89330864D01*
X132550952Y-89330947D01*
X132542965Y-89331022D01*
X132533939Y-89331092D01*
X132523805Y-89331155D01*
X132512492Y-89331212D01*
X132499930Y-89331263D01*
X132486050Y-89331309D01*
X132470780Y-89331350D01*
X132454052Y-89331387D01*
X132435795Y-89331418D01*
X132415939Y-89331446D01*
X132394414Y-89331470D01*
X132371150Y-89331490D01*
X132346077Y-89331506D01*
X132319124Y-89331520D01*
X132290223Y-89331531D01*
X132259302Y-89331540D01*
X132226292Y-89331547D01*
X132191122Y-89331551D01*
X132153723Y-89331554D01*
X132114024Y-89331556D01*
X132071956Y-89331558D01*
X131993665Y-89331558D01*
X131947128Y-89331557D01*
X131903082Y-89331556D01*
X131861459Y-89331553D01*
X131822189Y-89331548D01*
X131785202Y-89331542D01*
X131750431Y-89331533D01*
X131717806Y-89331522D01*
X131687258Y-89331509D01*
X131658717Y-89331492D01*
X131632115Y-89331473D01*
X131607383Y-89331450D01*
X131584452Y-89331424D01*
X131563252Y-89331394D01*
X131543715Y-89331360D01*
X131525771Y-89331321D01*
X131509351Y-89331278D01*
X131494387Y-89331231D01*
X131480809Y-89331178D01*
X131468548Y-89331120D01*
X131457536Y-89331057D01*
X131447702Y-89330988D01*
X131438978Y-89330912D01*
X131431296Y-89330831D01*
X131424585Y-89330743D01*
X131418777Y-89330649D01*
X131413802Y-89330548D01*
X131409592Y-89330439D01*
X131406078Y-89330323D01*
X131403191Y-89330199D01*
X131400860Y-89330068D01*
X131399019Y-89329928D01*
X131397596Y-89329780D01*
X131396524Y-89329624D01*
X131395777Y-89329469D01*
X131381122Y-89324588D01*
X131367411Y-89317523D01*
X131354893Y-89308519D01*
X131343817Y-89297820D01*
X131334431Y-89285672D01*
X131326986Y-89272317D01*
X131321729Y-89258002D01*
X131321285Y-89256342D01*
X131321063Y-89255452D01*
X131320853Y-89254514D01*
X131320657Y-89253451D01*
X131320473Y-89252184D01*
X131320301Y-89250635D01*
X131320141Y-89248727D01*
X131319992Y-89246380D01*
X131319855Y-89243516D01*
X131319727Y-89240059D01*
X131319610Y-89235929D01*
X131319503Y-89231048D01*
X131319405Y-89225339D01*
X131319316Y-89218722D01*
X131319235Y-89211121D01*
X131319163Y-89202456D01*
X131319098Y-89192650D01*
X131319040Y-89181625D01*
X131318990Y-89169302D01*
X131318946Y-89155603D01*
X131318908Y-89140450D01*
X131318876Y-89123766D01*
X131318850Y-89105471D01*
X131318828Y-89085488D01*
X131318811Y-89063739D01*
X131318798Y-89040145D01*
X131318789Y-89014629D01*
X131318783Y-88987111D01*
X131318780Y-88957515D01*
X131318779Y-88925762D01*
X131318781Y-88891774D01*
X131318785Y-88855472D01*
X131318790Y-88816779D01*
X131318795Y-88775616D01*
X131318796Y-88768713D01*
X131318866Y-88291036D01*
X131274993Y-88290281D01*
X131270110Y-88290215D01*
X131262780Y-88290141D01*
X131253118Y-88290061D01*
X131241236Y-88289974D01*
X131227249Y-88289881D01*
X131211270Y-88289783D01*
X131193413Y-88289681D01*
X131173792Y-88289574D01*
X131152521Y-88289464D01*
X131129713Y-88289351D01*
X131105482Y-88289235D01*
X131079942Y-88289118D01*
X131053207Y-88288999D01*
X131025390Y-88288879D01*
X130996605Y-88288759D01*
X130966966Y-88288639D01*
X130936586Y-88288521D01*
X130905580Y-88288403D01*
X130874060Y-88288288D01*
X130842587Y-88288177D01*
X130807059Y-88288052D01*
X130770105Y-88287922D01*
X130731954Y-88287785D01*
X130692832Y-88287644D01*
X130652969Y-88287499D01*
X130612594Y-88287351D01*
X130571934Y-88287201D01*
X130531218Y-88287050D01*
X130490675Y-88286898D01*
X130450532Y-88286746D01*
X130411019Y-88286596D01*
X130372363Y-88286447D01*
X130334793Y-88286302D01*
X130298538Y-88286161D01*
X130263826Y-88286024D01*
X130230885Y-88285893D01*
X130199943Y-88285768D01*
X130171230Y-88285651D01*
X130158972Y-88285600D01*
X130128349Y-88285473D01*
X130095452Y-88285337D01*
X130060568Y-88285193D01*
X130023985Y-88285043D01*
X129985989Y-88284886D01*
X129946866Y-88284726D01*
X129906904Y-88284562D01*
X129866389Y-88284397D01*
X129825608Y-88284231D01*
X129784848Y-88284065D01*
X129744396Y-88283900D01*
X129704539Y-88283738D01*
X129665562Y-88283580D01*
X129627754Y-88283428D01*
X129591401Y-88283281D01*
X129556790Y-88283142D01*
X129538086Y-88283066D01*
X129504206Y-88282931D01*
X129468210Y-88282786D01*
X129430401Y-88282634D01*
X129391081Y-88282476D01*
X129350555Y-88282313D01*
X129309124Y-88282147D01*
X129267093Y-88281978D01*
X129224764Y-88281807D01*
X129182440Y-88281637D01*
X129140425Y-88281468D01*
X129099021Y-88281301D01*
X129058532Y-88281138D01*
X129019261Y-88280980D01*
X128981510Y-88280828D01*
X128945584Y-88280683D01*
X128911784Y-88280547D01*
X128897997Y-88280491D01*
X128843602Y-88280272D01*
X128787840Y-88280047D01*
X128730644Y-88279816D01*
X128671943Y-88279579D01*
X128611668Y-88279336D01*
X128549752Y-88279086D01*
X128486123Y-88278830D01*
X128420714Y-88278566D01*
X128353456Y-88278295D01*
X128284278Y-88278016D01*
X128213113Y-88277729D01*
X128139890Y-88277434D01*
X128064542Y-88277130D01*
X127986999Y-88276818D01*
X127907191Y-88276496D01*
X127825050Y-88276165D01*
X127740507Y-88275825D01*
X127653492Y-88275474D01*
X127628061Y-88275372D01*
X127594444Y-88275236D01*
X127558680Y-88275092D01*
X127521077Y-88274940D01*
X127481944Y-88274783D01*
X127441590Y-88274620D01*
X127400324Y-88274453D01*
X127358454Y-88274284D01*
X127316289Y-88274114D01*
X127274139Y-88273944D01*
X127232311Y-88273775D01*
X127191115Y-88273609D01*
X127150859Y-88273446D01*
X127111853Y-88273289D01*
X127074405Y-88273137D01*
X127038823Y-88272993D01*
X127005417Y-88272858D01*
X126997574Y-88272827D01*
X126965600Y-88272697D01*
X126931357Y-88272559D01*
X126895135Y-88272413D01*
X126857225Y-88272260D01*
X126817918Y-88272102D01*
X126777505Y-88271940D01*
X126736276Y-88271774D01*
X126694523Y-88271606D01*
X126652535Y-88271438D01*
X126610605Y-88271270D01*
X126569022Y-88271103D01*
X126528078Y-88270939D01*
X126488063Y-88270779D01*
X126449268Y-88270624D01*
X126411985Y-88270475D01*
X126376503Y-88270334D01*
X126353004Y-88270240D01*
X126319680Y-88270106D01*
X126284753Y-88269965D01*
X126248485Y-88269816D01*
X126211135Y-88269661D01*
X126172966Y-88269502D01*
X126134238Y-88269339D01*
X126095211Y-88269173D01*
X126056146Y-88269006D01*
X126017304Y-88268839D01*
X125978946Y-88268673D01*
X125941333Y-88268509D01*
X125904724Y-88268347D01*
X125869382Y-88268190D01*
X125835566Y-88268038D01*
X125803538Y-88267893D01*
X125773558Y-88267756D01*
X125746840Y-88267631D01*
X125723388Y-88267525D01*
X125697557Y-88267417D01*
X125669531Y-88267307D01*
X125639491Y-88267196D01*
X125607621Y-88267083D01*
X125574102Y-88266970D01*
X125539117Y-88266857D01*
X125502849Y-88266745D01*
X125465479Y-88266634D01*
X125427190Y-88266525D01*
X125388165Y-88266417D01*
X125348586Y-88266313D01*
X125308635Y-88266211D01*
X125268494Y-88266113D01*
X125228347Y-88266019D01*
X125188375Y-88265930D01*
X125148760Y-88265846D01*
X125109686Y-88265768D01*
X125071335Y-88265696D01*
X125033888Y-88265631D01*
X125024180Y-88265615D01*
X124982662Y-88265545D01*
X124943633Y-88265477D01*
X124907019Y-88265409D01*
X124872749Y-88265342D01*
X124840750Y-88265274D01*
X124810950Y-88265206D01*
X124783277Y-88265137D01*
X124757658Y-88265066D01*
X124734022Y-88264994D01*
X124712296Y-88264920D01*
X124692407Y-88264843D01*
X124674284Y-88264763D01*
X124657854Y-88264681D01*
X124643045Y-88264594D01*
X124629785Y-88264504D01*
X124618001Y-88264409D01*
X124607621Y-88264309D01*
X124598573Y-88264204D01*
X124590785Y-88264094D01*
X124584184Y-88263978D01*
X124578699Y-88263855D01*
X124574256Y-88263726D01*
X124570784Y-88263589D01*
X124568210Y-88263446D01*
X124566462Y-88263294D01*
X124565649Y-88263174D01*
X124552112Y-88259466D01*
X124539628Y-88253857D01*
X124527803Y-88246130D01*
X124516248Y-88236070D01*
X124515861Y-88235690D01*
X124507084Y-88226178D01*
X124500142Y-88216535D01*
X124494517Y-88205934D01*
X124490092Y-88194724D01*
X124485866Y-88182563D01*
X124485866Y-82202854D01*
X124488866Y-82193298D01*
X124495025Y-82177641D01*
X124503114Y-82163545D01*
X124513002Y-82151132D01*
X124524555Y-82140525D01*
X124537640Y-82131848D01*
X124552123Y-82125224D01*
X124567119Y-82120931D01*
X124567461Y-82120897D01*
X124568175Y-82120864D01*
X124569276Y-82120831D01*
X124570778Y-82120799D01*
X124572695Y-82120767D01*
X124575043Y-82120735D01*
X124577835Y-82120704D01*
X124581086Y-82120673D01*
X124584811Y-82120642D01*
X124589023Y-82120612D01*
X124593737Y-82120582D01*
X124598969Y-82120553D01*
X124604731Y-82120524D01*
X124611039Y-82120495D01*
X124617907Y-82120467D01*
X124625349Y-82120439D01*
X124633381Y-82120411D01*
X124642016Y-82120384D01*
X124651268Y-82120357D01*
X124661153Y-82120330D01*
X124671685Y-82120304D01*
X124682877Y-82120278D01*
X124694746Y-82120252D01*
X124707304Y-82120227D01*
X124720567Y-82120202D01*
X124734549Y-82120177D01*
X124749264Y-82120153D01*
X124764727Y-82120129D01*
X124780952Y-82120106D01*
X124797954Y-82120082D01*
X124815747Y-82120059D01*
X124834345Y-82120037D01*
X124853764Y-82120015D01*
X124874017Y-82119993D01*
X124895119Y-82119971D01*
X124917085Y-82119949D01*
X124939928Y-82119928D01*
X124963663Y-82119908D01*
X124988306Y-82119887D01*
X125013869Y-82119867D01*
X125040368Y-82119847D01*
X125067817Y-82119828D01*
X125096230Y-82119808D01*
X125125623Y-82119790D01*
X125156008Y-82119771D01*
X125187402Y-82119752D01*
X125219818Y-82119734D01*
X125253270Y-82119717D01*
X125287774Y-82119699D01*
X125323343Y-82119682D01*
X125359992Y-82119665D01*
X125397736Y-82119648D01*
X125436589Y-82119632D01*
X125476565Y-82119616D01*
X125517679Y-82119600D01*
X125559945Y-82119584D01*
X125603378Y-82119569D01*
X125647992Y-82119554D01*
X125693801Y-82119539D01*
X125740821Y-82119525D01*
X125789065Y-82119510D01*
X125838548Y-82119496D01*
X125889284Y-82119482D01*
X125941288Y-82119469D01*
X125994575Y-82119456D01*
X126049158Y-82119443D01*
X126105052Y-82119430D01*
X126162272Y-82119417D01*
X126220831Y-82119405D01*
X126280746Y-82119393D01*
X126342029Y-82119381D01*
X126404696Y-82119369D01*
X126468760Y-82119358D01*
X126534237Y-82119347D01*
X126601140Y-82119336D01*
X126669484Y-82119325D01*
X126739284Y-82119315D01*
X126810555Y-82119305D01*
X126883309Y-82119295D01*
X126957563Y-82119285D01*
X127033329Y-82119275D01*
X127110624Y-82119266D01*
X127189461Y-82119257D01*
X127269855Y-82119248D01*
X127351819Y-82119239D01*
X127435370Y-82119230D01*
X127520520Y-82119222D01*
X127607285Y-82119214D01*
X127695678Y-82119206D01*
X127785716Y-82119198D01*
X127877410Y-82119190D01*
X127970778Y-82119183D01*
X128065831Y-82119176D01*
X128162586Y-82119169D01*
X128261057Y-82119162D01*
X128361257Y-82119155D01*
X128463202Y-82119149D01*
X128566906Y-82119143D01*
X128672384Y-82119136D01*
X128779649Y-82119130D01*
X128888716Y-82119125D01*
X128999600Y-82119119D01*
X129112315Y-82119114D01*
X129226876Y-82119108D01*
X129343297Y-82119103D01*
X129461592Y-82119098D01*
X129581776Y-82119093D01*
X129703864Y-82119089D01*
X129827869Y-82119084D01*
X129953807Y-82119080D01*
X130081691Y-82119076D01*
X130211536Y-82119071D01*
X130343357Y-82119067D01*
X130477168Y-82119064D01*
X130612984Y-82119060D01*
X130750818Y-82119057D01*
X130890686Y-82119053D01*
X131032601Y-82119050D01*
X131176579Y-82119047D01*
X131322633Y-82119044D01*
X131470779Y-82119041D01*
X131621030Y-82119038D01*
X131773401Y-82119036D01*
X131927907Y-82119033D01*
X132084561Y-82119031D01*
X132243379Y-82119028D01*
X132404375Y-82119026D01*
X132567563Y-82119024D01*
X132732958Y-82119022D01*
X132900573Y-82119020D01*
X133070425Y-82119019D01*
X133242526Y-82119017D01*
X133416892Y-82119016D01*
X133593537Y-82119014D01*
X133772475Y-82119013D01*
X133953720Y-82119012D01*
X134137289Y-82119010D01*
X134323193Y-82119009D01*
X134511449Y-82119008D01*
X134702071Y-82119007D01*
X134895072Y-82119007D01*
X135090468Y-82119006D01*
X135288273Y-82119005D01*
X135488501Y-82119005D01*
X135691167Y-82119004D01*
X135896286Y-82119004D01*
X136103870Y-82119003D01*
X138371378Y-82119003D01*
X138580729Y-82119004D01*
D11*
X145351500Y-99822000D03*
X121539000Y-99822000D03*
G04 #@! TA.AperFunction,SMDPad,CuDef*
G36*
G01*
X137213000Y-91739500D02*
X137213000Y-91394500D01*
G75*
G02*
X137360500Y-91247000I147500J0D01*
G01*
X137655500Y-91247000D01*
G75*
G02*
X137803000Y-91394500I0J-147500D01*
G01*
X137803000Y-91739500D01*
G75*
G02*
X137655500Y-91887000I-147500J0D01*
G01*
X137360500Y-91887000D01*
G75*
G02*
X137213000Y-91739500I0J147500D01*
G01*
G37*
G04 #@! TD.AperFunction*
G04 #@! TA.AperFunction,SMDPad,CuDef*
G36*
G01*
X136243000Y-91739500D02*
X136243000Y-91394500D01*
G75*
G02*
X136390500Y-91247000I147500J0D01*
G01*
X136685500Y-91247000D01*
G75*
G02*
X136833000Y-91394500I0J-147500D01*
G01*
X136833000Y-91739500D01*
G75*
G02*
X136685500Y-91887000I-147500J0D01*
G01*
X136390500Y-91887000D01*
G75*
G02*
X136243000Y-91739500I0J147500D01*
G01*
G37*
G04 #@! TD.AperFunction*
D12*
X143383000Y-89408000D03*
D13*
X129565400Y-89422000D03*
D14*
X135899600Y-94559200D03*
X135899600Y-95759200D03*
X135899600Y-96959200D03*
X135899600Y-98159200D03*
X135899600Y-99359200D03*
D15*
X134549600Y-100357530D03*
X133349600Y-100357530D03*
X132149600Y-100357530D03*
X130949600Y-100357530D03*
D14*
X130399600Y-98759200D03*
X130399600Y-97559200D03*
X130399600Y-96359200D03*
X130399600Y-95159200D03*
X130399600Y-93959200D03*
D15*
X131749600Y-92909200D03*
X132949600Y-92909200D03*
X134149600Y-92909200D03*
X135349600Y-92909200D03*
G04 #@! TA.AperFunction,SMDPad,CuDef*
G36*
G01*
X128096000Y-97632000D02*
X128571000Y-97632000D01*
G75*
G02*
X128808500Y-97869500I0J-237500D01*
G01*
X128808500Y-98444500D01*
G75*
G02*
X128571000Y-98682000I-237500J0D01*
G01*
X128096000Y-98682000D01*
G75*
G02*
X127858500Y-98444500I0J237500D01*
G01*
X127858500Y-97869500D01*
G75*
G02*
X128096000Y-97632000I237500J0D01*
G01*
G37*
G04 #@! TD.AperFunction*
G04 #@! TA.AperFunction,SMDPad,CuDef*
G36*
G01*
X128096000Y-95882000D02*
X128571000Y-95882000D01*
G75*
G02*
X128808500Y-96119500I0J-237500D01*
G01*
X128808500Y-96694500D01*
G75*
G02*
X128571000Y-96932000I-237500J0D01*
G01*
X128096000Y-96932000D01*
G75*
G02*
X127858500Y-96694500I0J237500D01*
G01*
X127858500Y-96119500D01*
G75*
G02*
X128096000Y-95882000I237500J0D01*
G01*
G37*
G04 #@! TD.AperFunction*
G04 #@! TA.AperFunction,SMDPad,CuDef*
G36*
G01*
X138540500Y-95789000D02*
X138065500Y-95789000D01*
G75*
G02*
X137828000Y-95551500I0J237500D01*
G01*
X137828000Y-94976500D01*
G75*
G02*
X138065500Y-94739000I237500J0D01*
G01*
X138540500Y-94739000D01*
G75*
G02*
X138778000Y-94976500I0J-237500D01*
G01*
X138778000Y-95551500D01*
G75*
G02*
X138540500Y-95789000I-237500J0D01*
G01*
G37*
G04 #@! TD.AperFunction*
G04 #@! TA.AperFunction,SMDPad,CuDef*
G36*
G01*
X138540500Y-97539000D02*
X138065500Y-97539000D01*
G75*
G02*
X137828000Y-97301500I0J237500D01*
G01*
X137828000Y-96726500D01*
G75*
G02*
X138065500Y-96489000I237500J0D01*
G01*
X138540500Y-96489000D01*
G75*
G02*
X138778000Y-96726500I0J-237500D01*
G01*
X138778000Y-97301500D01*
G75*
G02*
X138540500Y-97539000I-237500J0D01*
G01*
G37*
G04 #@! TD.AperFunction*
D16*
X130893000Y-103632000D03*
X135693000Y-103632000D03*
X133293000Y-103632000D03*
X138093000Y-103632000D03*
G04 #@! TA.AperFunction,SMDPad,CuDef*
G36*
G01*
X137213000Y-90723500D02*
X137213000Y-90378500D01*
G75*
G02*
X137360500Y-90231000I147500J0D01*
G01*
X137655500Y-90231000D01*
G75*
G02*
X137803000Y-90378500I0J-147500D01*
G01*
X137803000Y-90723500D01*
G75*
G02*
X137655500Y-90871000I-147500J0D01*
G01*
X137360500Y-90871000D01*
G75*
G02*
X137213000Y-90723500I0J147500D01*
G01*
G37*
G04 #@! TD.AperFunction*
G04 #@! TA.AperFunction,SMDPad,CuDef*
G36*
G01*
X136243000Y-90723500D02*
X136243000Y-90378500D01*
G75*
G02*
X136390500Y-90231000I147500J0D01*
G01*
X136685500Y-90231000D01*
G75*
G02*
X136833000Y-90378500I0J-147500D01*
G01*
X136833000Y-90723500D01*
G75*
G02*
X136685500Y-90871000I-147500J0D01*
G01*
X136390500Y-90871000D01*
G75*
G02*
X136243000Y-90723500I0J147500D01*
G01*
G37*
G04 #@! TD.AperFunction*
G04 #@! TA.AperFunction,SMDPad,CuDef*
G36*
G01*
X135544500Y-90869000D02*
X135199500Y-90869000D01*
G75*
G02*
X135052000Y-90721500I0J147500D01*
G01*
X135052000Y-90426500D01*
G75*
G02*
X135199500Y-90279000I147500J0D01*
G01*
X135544500Y-90279000D01*
G75*
G02*
X135692000Y-90426500I0J-147500D01*
G01*
X135692000Y-90721500D01*
G75*
G02*
X135544500Y-90869000I-147500J0D01*
G01*
G37*
G04 #@! TD.AperFunction*
G04 #@! TA.AperFunction,SMDPad,CuDef*
G36*
G01*
X135544500Y-91839000D02*
X135199500Y-91839000D01*
G75*
G02*
X135052000Y-91691500I0J147500D01*
G01*
X135052000Y-91396500D01*
G75*
G02*
X135199500Y-91249000I147500J0D01*
G01*
X135544500Y-91249000D01*
G75*
G02*
X135692000Y-91396500I0J-147500D01*
G01*
X135692000Y-91691500D01*
G75*
G02*
X135544500Y-91839000I-147500J0D01*
G01*
G37*
G04 #@! TD.AperFunction*
D17*
X148082000Y-89662000D03*
X145796000Y-89662000D03*
X143510000Y-89662000D03*
X141224000Y-89662000D03*
X139192000Y-89662000D03*
X137414000Y-89662000D03*
X126238000Y-89662000D03*
X128270000Y-89662000D03*
X130302000Y-89662000D03*
X132080000Y-89662000D03*
X134112000Y-89662000D03*
X133349600Y-98704800D03*
X138303000Y-94107000D03*
X128320800Y-99517200D03*
X129108200Y-102565200D03*
X138420000Y-90551000D03*
X138420000Y-91567000D03*
X134112000Y-90424000D03*
X134112000Y-91059000D03*
X134112000Y-91694000D03*
X137160000Y-93116400D03*
D18*
X133349600Y-100357530D02*
X133349600Y-98704800D01*
X128320800Y-98106200D02*
X128320800Y-99517200D01*
X130842200Y-102565200D02*
X129108200Y-102565200D01*
D19*
X137508000Y-90551000D02*
X138420000Y-90551000D01*
X137508000Y-91567000D02*
X138420000Y-91567000D01*
D20*
X135899600Y-94559200D02*
X136580800Y-94559200D01*
X135899600Y-94559200D02*
X136834800Y-94559200D01*
X137160000Y-94234000D02*
X137160000Y-93116400D01*
X136834800Y-94559200D02*
X137160000Y-94234000D01*
D18*
X138303000Y-95264000D02*
X138303000Y-94107000D01*
D20*
X130396600Y-96356200D02*
X130399600Y-96359200D01*
X128320800Y-96356200D02*
X130396600Y-96356200D01*
X138307000Y-96959200D02*
X138328400Y-96937800D01*
X135899600Y-96959200D02*
X138307000Y-96959200D01*
X132579600Y-96359200D02*
X130399600Y-96359200D01*
X133179600Y-96959200D02*
X132579600Y-96359200D01*
X134348000Y-96959200D02*
X134180800Y-96959200D01*
X134348000Y-96959200D02*
X133179600Y-96959200D01*
X135899600Y-96959200D02*
X134348000Y-96959200D01*
X134180800Y-96959200D02*
X133299200Y-97840800D01*
X133299200Y-97840800D02*
X132943600Y-97840800D01*
X132149600Y-98634800D02*
X132149600Y-100357530D01*
X132943600Y-97840800D02*
X132149600Y-98634800D01*
X138093000Y-101937000D02*
X138093000Y-103632000D01*
X138328400Y-96937800D02*
X138328400Y-101701600D01*
X138328400Y-101701600D02*
X138093000Y-101937000D01*
D19*
X135372000Y-90574000D02*
X135372000Y-89418000D01*
X136515000Y-90574000D02*
X136538000Y-90551000D01*
X135372000Y-90574000D02*
X136515000Y-90574000D01*
D18*
X135339600Y-91576400D02*
X135372000Y-91544000D01*
D19*
X135349600Y-91566400D02*
X135372000Y-91544000D01*
X135349600Y-92909200D02*
X135349600Y-91566400D01*
X136515000Y-91544000D02*
X136538000Y-91567000D01*
X135372000Y-91544000D02*
X136515000Y-91544000D01*
D18*
X135693000Y-102128000D02*
X135693000Y-103632000D01*
X135419000Y-101854000D02*
X135693000Y-102128000D01*
X130399600Y-93959200D02*
X128163800Y-93959200D01*
X127381000Y-94742000D02*
X127381000Y-99949000D01*
X129286000Y-101854000D02*
X135419000Y-101854000D01*
X128163800Y-93959200D02*
X127381000Y-94742000D01*
X127381000Y-99949000D02*
X129286000Y-101854000D01*
X133293000Y-105136000D02*
X133293000Y-103632000D01*
X132511000Y-105918000D02*
X133293000Y-105136000D01*
X129286000Y-105918000D02*
X132511000Y-105918000D01*
X126746000Y-103378000D02*
X129286000Y-105918000D01*
X131749600Y-92909200D02*
X131749600Y-92887600D01*
X131318000Y-92456000D02*
X128778000Y-92456000D01*
X126746000Y-94488000D02*
X126746000Y-103378000D01*
X131749600Y-92887600D02*
X131318000Y-92456000D01*
X128778000Y-92456000D02*
X126746000Y-94488000D01*
G36*
X130736948Y-89157062D02*
G01*
X130736950Y-89157087D01*
X130736949Y-89157472D01*
X130736993Y-89171171D01*
X130736996Y-89171204D01*
X130736995Y-89171663D01*
X130737045Y-89183986D01*
X130737049Y-89184027D01*
X130737048Y-89184687D01*
X130737106Y-89195712D01*
X130737111Y-89195763D01*
X130737111Y-89196508D01*
X130737176Y-89206314D01*
X130737182Y-89206370D01*
X130737183Y-89207292D01*
X130737255Y-89215957D01*
X130737263Y-89216034D01*
X130737268Y-89217323D01*
X130737349Y-89224923D01*
X130737359Y-89225015D01*
X130737369Y-89226549D01*
X130737458Y-89233167D01*
X130737470Y-89233275D01*
X130737491Y-89235328D01*
X130737589Y-89241037D01*
X130737604Y-89241164D01*
X130737643Y-89243803D01*
X130737750Y-89248684D01*
X130737767Y-89248822D01*
X130737843Y-89252410D01*
X130737960Y-89256540D01*
X130737979Y-89256687D01*
X130738126Y-89261594D01*
X130738254Y-89265050D01*
X130738268Y-89265150D01*
X130738520Y-89271324D01*
X130738657Y-89274188D01*
X130738726Y-89274660D01*
X130738703Y-89275141D01*
X130739161Y-89283254D01*
X130739310Y-89285601D01*
X130739606Y-89287419D01*
X130739554Y-89289259D01*
X130740177Y-89297361D01*
X130740337Y-89299270D01*
X130741020Y-89302995D01*
X130741016Y-89306783D01*
X130741856Y-89314865D01*
X130742028Y-89316415D01*
X130743216Y-89322036D01*
X130743403Y-89327778D01*
X130744515Y-89335827D01*
X130744699Y-89337094D01*
X130746390Y-89343947D01*
X130746888Y-89350982D01*
X130748305Y-89358983D01*
X130748501Y-89360047D01*
X130750436Y-89366773D01*
X130751193Y-89373723D01*
X130752912Y-89381665D01*
X130753122Y-89382603D01*
X130754058Y-89385447D01*
X130754454Y-89388411D01*
X130756365Y-89396309D01*
X130756587Y-89397199D01*
X130756876Y-89398011D01*
X130757004Y-89398858D01*
X130759049Y-89406723D01*
X130759493Y-89408383D01*
X130764017Y-89420436D01*
X130765520Y-89427545D01*
X130768787Y-89435190D01*
X130770470Y-89442063D01*
X130770829Y-89443820D01*
X130771002Y-89444232D01*
X130772656Y-89450985D01*
X130775404Y-89458633D01*
X130780661Y-89472948D01*
X130787574Y-89487270D01*
X130788635Y-89490494D01*
X130791849Y-89496194D01*
X130794701Y-89504200D01*
X130796746Y-89507630D01*
X130799409Y-89514724D01*
X130802920Y-89520393D01*
X130807724Y-89531855D01*
X130809964Y-89537979D01*
X130811016Y-89539710D01*
X130814733Y-89548579D01*
X130818640Y-89555704D01*
X130826085Y-89569059D01*
X130829262Y-89573641D01*
X130830035Y-89575242D01*
X130834327Y-89580945D01*
X130848515Y-89601406D01*
X130857319Y-89615891D01*
X130861271Y-89623202D01*
X130863127Y-89625446D01*
X130868960Y-89635043D01*
X130873883Y-89641509D01*
X130883269Y-89653657D01*
X130888870Y-89659603D01*
X130890810Y-89662400D01*
X130898687Y-89670023D01*
X130909393Y-89681387D01*
X130919269Y-89693329D01*
X130924244Y-89700010D01*
X130926428Y-89701986D01*
X130933662Y-89710732D01*
X130939467Y-89716419D01*
X130950543Y-89727118D01*
X130958172Y-89733166D01*
X130961156Y-89736334D01*
X130971271Y-89743551D01*
X130980315Y-89750721D01*
X130994166Y-89763249D01*
X130999089Y-89768148D01*
X131000962Y-89769395D01*
X131008487Y-89776201D01*
X131015050Y-89780992D01*
X131027569Y-89789996D01*
X131036090Y-89794941D01*
X131039550Y-89797684D01*
X131050658Y-89803395D01*
X131061236Y-89809534D01*
X131083888Y-89824618D01*
X131086427Y-89826464D01*
X131087191Y-89826817D01*
X131093631Y-89831106D01*
X131100828Y-89834879D01*
X131114539Y-89841944D01*
X131122611Y-89845150D01*
X131125811Y-89847007D01*
X131136614Y-89850711D01*
X131151642Y-89856680D01*
X131161635Y-89862293D01*
X131169365Y-89864823D01*
X131189521Y-89874145D01*
X131197213Y-89876767D01*
X131211868Y-89881648D01*
X131216584Y-89882721D01*
X131218349Y-89883490D01*
X131228569Y-89885725D01*
X131235196Y-89888396D01*
X131243811Y-89890031D01*
X131248103Y-89891663D01*
X131254886Y-89892812D01*
X131269588Y-89897624D01*
X131277533Y-89899331D01*
X131278280Y-89899486D01*
X131291666Y-89900922D01*
X131304680Y-89904331D01*
X131312713Y-89905558D01*
X131313784Y-89905714D01*
X131318609Y-89905940D01*
X131322622Y-89906853D01*
X131325544Y-89906936D01*
X131329313Y-89907760D01*
X131337389Y-89908658D01*
X131338813Y-89908806D01*
X131342843Y-89908830D01*
X131346790Y-89909579D01*
X131354888Y-89910252D01*
X131356729Y-89910392D01*
X131358424Y-89910355D01*
X131360094Y-89910638D01*
X131368204Y-89911151D01*
X131370535Y-89911282D01*
X131370570Y-89911281D01*
X131378216Y-89911663D01*
X131381104Y-89911787D01*
X131381231Y-89911780D01*
X131386876Y-89912006D01*
X131390390Y-89912122D01*
X131390534Y-89912113D01*
X131394529Y-89912244D01*
X131398738Y-89912353D01*
X131398877Y-89912343D01*
X131401989Y-89912428D01*
X131406964Y-89912529D01*
X131407080Y-89912520D01*
X131409359Y-89912573D01*
X131415167Y-89912667D01*
X131415266Y-89912659D01*
X131416954Y-89912693D01*
X131423665Y-89912781D01*
X131423746Y-89912774D01*
X131425160Y-89912799D01*
X131432841Y-89912880D01*
X131432907Y-89912874D01*
X131433908Y-89912890D01*
X131442632Y-89912966D01*
X131442689Y-89912961D01*
X131443619Y-89912974D01*
X131453452Y-89913043D01*
X131453506Y-89913038D01*
X131454206Y-89913047D01*
X131465218Y-89913110D01*
X131465254Y-89913107D01*
X131465795Y-89913113D01*
X131478056Y-89913171D01*
X131478078Y-89913169D01*
X131478537Y-89913174D01*
X131492115Y-89913227D01*
X131492148Y-89913224D01*
X131492559Y-89913228D01*
X131507523Y-89913275D01*
X131507541Y-89913273D01*
X131507827Y-89913276D01*
X131524247Y-89913319D01*
X131524260Y-89913318D01*
X131524506Y-89913320D01*
X131542450Y-89913359D01*
X131542471Y-89913357D01*
X131542702Y-89913359D01*
X131562239Y-89913393D01*
X131562254Y-89913392D01*
X131562428Y-89913393D01*
X131583628Y-89913423D01*
X131583631Y-89913423D01*
X131583792Y-89913424D01*
X131606723Y-89913450D01*
X131606732Y-89913449D01*
X131606842Y-89913450D01*
X131631574Y-89913473D01*
X131631583Y-89913472D01*
X131631699Y-89913473D01*
X131658301Y-89913492D01*
X131658370Y-89913492D01*
X131686911Y-89913509D01*
X131686918Y-89913508D01*
X131687010Y-89913509D01*
X131717558Y-89913522D01*
X131717610Y-89913522D01*
X131750235Y-89913533D01*
X131750280Y-89913533D01*
X131785051Y-89913542D01*
X131785108Y-89913542D01*
X131822095Y-89913548D01*
X131822115Y-89913548D01*
X131861385Y-89913553D01*
X131861417Y-89913553D01*
X131903040Y-89913556D01*
X131903069Y-89913556D01*
X131947115Y-89913557D01*
X131993652Y-89913558D01*
X132071984Y-89913558D01*
X132114052Y-89913556D01*
X132114053Y-89913556D01*
X132153752Y-89913554D01*
X132153770Y-89913554D01*
X132191169Y-89913551D01*
X132191188Y-89913551D01*
X132226358Y-89913547D01*
X132226415Y-89913547D01*
X132259425Y-89913540D01*
X132259471Y-89913540D01*
X132290392Y-89913531D01*
X132290445Y-89913531D01*
X132319346Y-89913520D01*
X132319426Y-89913520D01*
X132346379Y-89913506D01*
X132346448Y-89913506D01*
X132371521Y-89913490D01*
X132371529Y-89913489D01*
X132371650Y-89913490D01*
X132394914Y-89913470D01*
X132394922Y-89913469D01*
X132395063Y-89913470D01*
X132416588Y-89913446D01*
X132416607Y-89913444D01*
X132416760Y-89913445D01*
X132436616Y-89913417D01*
X132436624Y-89913416D01*
X132436783Y-89913417D01*
X132455040Y-89913386D01*
X132455054Y-89913385D01*
X132455339Y-89913386D01*
X132472067Y-89913349D01*
X132472088Y-89913347D01*
X132472343Y-89913348D01*
X132487613Y-89913307D01*
X132487636Y-89913305D01*
X132487979Y-89913306D01*
X132501859Y-89913260D01*
X132501890Y-89913257D01*
X132502293Y-89913258D01*
X132514855Y-89913207D01*
X132514885Y-89913204D01*
X132515424Y-89913205D01*
X132526737Y-89913148D01*
X132526781Y-89913143D01*
X132527423Y-89913144D01*
X132537557Y-89913081D01*
X132537617Y-89913075D01*
X132538452Y-89913074D01*
X132547478Y-89913005D01*
X132547542Y-89912998D01*
X132548430Y-89912996D01*
X132556417Y-89912921D01*
X132556497Y-89912912D01*
X132557834Y-89912906D01*
X132564852Y-89912823D01*
X132564940Y-89912813D01*
X132566529Y-89912801D01*
X132572649Y-89912711D01*
X132572759Y-89912699D01*
X132574757Y-89912676D01*
X132580049Y-89912579D01*
X132580175Y-89912564D01*
X132582861Y-89912521D01*
X132587393Y-89912416D01*
X132587533Y-89912399D01*
X132591013Y-89912321D01*
X132594858Y-89912208D01*
X132595004Y-89912189D01*
X132599568Y-89912050D01*
X132602795Y-89911929D01*
X132602893Y-89911916D01*
X132609197Y-89911654D01*
X132611876Y-89911524D01*
X132612057Y-89911497D01*
X132612236Y-89911506D01*
X132620349Y-89911051D01*
X132622550Y-89910912D01*
X132624103Y-89910660D01*
X132625669Y-89910706D01*
X132633772Y-89910094D01*
X132635564Y-89909946D01*
X132638958Y-89909328D01*
X132642406Y-89909340D01*
X132650491Y-89908520D01*
X132651946Y-89908362D01*
X132657030Y-89907300D01*
X132662211Y-89907154D01*
X132670266Y-89906078D01*
X132671452Y-89905911D01*
X132678052Y-89904312D01*
X132684823Y-89903869D01*
X132692832Y-89902493D01*
X132693821Y-89902316D01*
X132700611Y-89900401D01*
X132707632Y-89899672D01*
X132715583Y-89897992D01*
X132716442Y-89897804D01*
X132720262Y-89896568D01*
X132724246Y-89896042D01*
X132732147Y-89894142D01*
X132732949Y-89893943D01*
X132742999Y-89890380D01*
X132747312Y-89889595D01*
X132749782Y-89888621D01*
X132759109Y-89886810D01*
X132766881Y-89884436D01*
X132774512Y-89882046D01*
X132780537Y-89879490D01*
X132781846Y-89879173D01*
X132788092Y-89876285D01*
X132791957Y-89874645D01*
X132803144Y-89871491D01*
X132804564Y-89870769D01*
X132814240Y-89868006D01*
X132821778Y-89864971D01*
X132831165Y-89861114D01*
X132847960Y-89852208D01*
X132865763Y-89845561D01*
X132873038Y-89841939D01*
X132882041Y-89837377D01*
X132901946Y-89824710D01*
X132907079Y-89822216D01*
X132914688Y-89818842D01*
X132916173Y-89817798D01*
X132923165Y-89814401D01*
X132930063Y-89810105D01*
X132937602Y-89805337D01*
X132952019Y-89794110D01*
X132967795Y-89784890D01*
X132974344Y-89780079D01*
X132975817Y-89778981D01*
X132987489Y-89768359D01*
X132990480Y-89766521D01*
X132994852Y-89762475D01*
X133007605Y-89753508D01*
X133013727Y-89748165D01*
X133024503Y-89738627D01*
X133047658Y-89713698D01*
X133056825Y-89706284D01*
X133061057Y-89701210D01*
X133068549Y-89694278D01*
X133069954Y-89695964D01*
X133075002Y-89702652D01*
X133077039Y-89704471D01*
X133083675Y-89712437D01*
X133089500Y-89718103D01*
X133100212Y-89728378D01*
X133122897Y-89746234D01*
X133132820Y-89755735D01*
X133138611Y-89759432D01*
X133140184Y-89760836D01*
X133147157Y-89767776D01*
X133150312Y-89769877D01*
X133159740Y-89778293D01*
X133166334Y-89783041D01*
X133178731Y-89791836D01*
X133186406Y-89796223D01*
X133189466Y-89798632D01*
X133200112Y-89804058D01*
X133210882Y-89810215D01*
X133224287Y-89819142D01*
X133230553Y-89823771D01*
X133232902Y-89824879D01*
X133241698Y-89830737D01*
X133248895Y-89834510D01*
X133262452Y-89841496D01*
X133272783Y-89845599D01*
X133277343Y-89848206D01*
X133286351Y-89851229D01*
X133286360Y-89851235D01*
X133290719Y-89852873D01*
X133293856Y-89854759D01*
X133303891Y-89858376D01*
X133311356Y-89862551D01*
X133315876Y-89864021D01*
X133333283Y-89872233D01*
X133340954Y-89874913D01*
X133355145Y-89879759D01*
X133364100Y-89881868D01*
X133368016Y-89883424D01*
X133369927Y-89883777D01*
X133371646Y-89884515D01*
X133379268Y-89886140D01*
X133392691Y-89891183D01*
X133400555Y-89893230D01*
X133400990Y-89893340D01*
X133401014Y-89893344D01*
X133408606Y-89895212D01*
X133409482Y-89895421D01*
X133414530Y-89896114D01*
X133419371Y-89897689D01*
X133427319Y-89899382D01*
X133428277Y-89899579D01*
X133435079Y-89900296D01*
X133441652Y-89902166D01*
X133449658Y-89903560D01*
X133450771Y-89903746D01*
X133457663Y-89904213D01*
X133464373Y-89905852D01*
X133472425Y-89906945D01*
X133473771Y-89907118D01*
X133478306Y-89907254D01*
X133482736Y-89908199D01*
X133490818Y-89909054D01*
X133492470Y-89909217D01*
X133495492Y-89909219D01*
X133498451Y-89909775D01*
X133506550Y-89910433D01*
X133508586Y-89910584D01*
X133509509Y-89910562D01*
X133510419Y-89910717D01*
X133518529Y-89911237D01*
X133521020Y-89911379D01*
X133521036Y-89911378D01*
X133528946Y-89911776D01*
X133531969Y-89911907D01*
X133532093Y-89911900D01*
X133537622Y-89912125D01*
X133541253Y-89912247D01*
X133541401Y-89912238D01*
X133545689Y-89912379D01*
X133550001Y-89912491D01*
X133550137Y-89912481D01*
X133553174Y-89912565D01*
X133558244Y-89912669D01*
X133558368Y-89912659D01*
X133560815Y-89912716D01*
X133566718Y-89912811D01*
X133566819Y-89912803D01*
X133568649Y-89912839D01*
X133575461Y-89912926D01*
X133575551Y-89912918D01*
X133576995Y-89912943D01*
X133584789Y-89913022D01*
X133584853Y-89913016D01*
X133585954Y-89913033D01*
X133594804Y-89913105D01*
X133594867Y-89913099D01*
X133595808Y-89913112D01*
X133605792Y-89913176D01*
X133605837Y-89913172D01*
X133606507Y-89913180D01*
X133617700Y-89913238D01*
X133617735Y-89913235D01*
X133618290Y-89913241D01*
X133630766Y-89913293D01*
X133630800Y-89913290D01*
X133631299Y-89913295D01*
X133645133Y-89913340D01*
X133645157Y-89913338D01*
X133645501Y-89913341D01*
X133660769Y-89913381D01*
X133660787Y-89913379D01*
X133661080Y-89913382D01*
X133677857Y-89913417D01*
X133677879Y-89913415D01*
X133678120Y-89913417D01*
X133696480Y-89913447D01*
X133696488Y-89913446D01*
X133696704Y-89913448D01*
X133716723Y-89913473D01*
X133716736Y-89913472D01*
X133716888Y-89913473D01*
X133738641Y-89913494D01*
X133738650Y-89913493D01*
X133738758Y-89913494D01*
X133762321Y-89913512D01*
X133762330Y-89913511D01*
X133762446Y-89913512D01*
X133787892Y-89913526D01*
X133787898Y-89913525D01*
X133787978Y-89913526D01*
X133815384Y-89913537D01*
X133815389Y-89913536D01*
X133815460Y-89913537D01*
X133844901Y-89913545D01*
X133844948Y-89913545D01*
X133876498Y-89913551D01*
X133876540Y-89913551D01*
X133910275Y-89913555D01*
X133910295Y-89913555D01*
X133946290Y-89913558D01*
X133946324Y-89913558D01*
X133984654Y-89913559D01*
X133984655Y-89913559D01*
X134025394Y-89913560D01*
X134139950Y-89913560D01*
X134179033Y-89913559D01*
X134179050Y-89913559D01*
X134215774Y-89913557D01*
X134215810Y-89913557D01*
X134250250Y-89913553D01*
X134250272Y-89913553D01*
X134282504Y-89913548D01*
X134282549Y-89913548D01*
X134312648Y-89913541D01*
X134312721Y-89913541D01*
X134340761Y-89913531D01*
X134340766Y-89913530D01*
X134340843Y-89913531D01*
X134366901Y-89913518D01*
X134366907Y-89913517D01*
X134366997Y-89913518D01*
X134391146Y-89913502D01*
X134391152Y-89913501D01*
X134391255Y-89913502D01*
X134413572Y-89913483D01*
X134413582Y-89913482D01*
X134413756Y-89913483D01*
X134434315Y-89913459D01*
X134434334Y-89913457D01*
X134434499Y-89913458D01*
X134453375Y-89913430D01*
X134453387Y-89913429D01*
X134453624Y-89913430D01*
X134470893Y-89913397D01*
X134470915Y-89913395D01*
X134471186Y-89913396D01*
X134486923Y-89913358D01*
X134486946Y-89913356D01*
X134487271Y-89913357D01*
X134501550Y-89913314D01*
X134501574Y-89913312D01*
X134502008Y-89913313D01*
X134514906Y-89913264D01*
X134514948Y-89913260D01*
X134515507Y-89913261D01*
X134527097Y-89913205D01*
X134527133Y-89913201D01*
X134527768Y-89913202D01*
X134538127Y-89913140D01*
X134538181Y-89913134D01*
X134539007Y-89913134D01*
X134548210Y-89913065D01*
X134548279Y-89913058D01*
X134549365Y-89913055D01*
X134557486Y-89912978D01*
X134557569Y-89912969D01*
X134558839Y-89912963D01*
X134565953Y-89912879D01*
X134566042Y-89912869D01*
X134567742Y-89912856D01*
X134573925Y-89912764D01*
X134574050Y-89912750D01*
X134576297Y-89912723D01*
X134581625Y-89912622D01*
X134581753Y-89912607D01*
X134584673Y-89912557D01*
X134589218Y-89912447D01*
X134589363Y-89912429D01*
X134593163Y-89912338D01*
X134597004Y-89912219D01*
X134597140Y-89912201D01*
X134602170Y-89912036D01*
X134605380Y-89911908D01*
X134605442Y-89911899D01*
X134612619Y-89911574D01*
X134615275Y-89911435D01*
X134615769Y-89911360D01*
X134616264Y-89911382D01*
X134624375Y-89910887D01*
X134626549Y-89910739D01*
X134628921Y-89910342D01*
X134631318Y-89910394D01*
X134639417Y-89909720D01*
X134641186Y-89909560D01*
X134645256Y-89908786D01*
X134648316Y-89908766D01*
X134648316Y-89957206D01*
X134594780Y-90022439D01*
X134527571Y-90148178D01*
X134486184Y-90284613D01*
X134472209Y-90426500D01*
X134472209Y-90721500D01*
X134486184Y-90863387D01*
X134527571Y-90999822D01*
X134559202Y-91059000D01*
X134527571Y-91118178D01*
X134486184Y-91254613D01*
X134472209Y-91396500D01*
X134472209Y-91579409D01*
X133799600Y-91579409D01*
X133686488Y-91590550D01*
X133577724Y-91623543D01*
X133549600Y-91638575D01*
X133521476Y-91623543D01*
X133412712Y-91590550D01*
X133299600Y-91579409D01*
X132599600Y-91579409D01*
X132486488Y-91590550D01*
X132377724Y-91623543D01*
X132349600Y-91638575D01*
X132321476Y-91623543D01*
X132212712Y-91590550D01*
X132099600Y-91579409D01*
X131399600Y-91579409D01*
X131286488Y-91590550D01*
X131177724Y-91623543D01*
X131077485Y-91677121D01*
X130989626Y-91749226D01*
X130987349Y-91752000D01*
X128812581Y-91752000D01*
X128778000Y-91748594D01*
X128639991Y-91762187D01*
X128507287Y-91802442D01*
X128384986Y-91867813D01*
X128277788Y-91955788D01*
X128255738Y-91982656D01*
X126272657Y-93965738D01*
X126245788Y-93987789D01*
X126157813Y-94094987D01*
X126126370Y-94153813D01*
X126092442Y-94217288D01*
X126052187Y-94349992D01*
X126038594Y-94488000D01*
X126042000Y-94522581D01*
X126042001Y-103343409D01*
X126038594Y-103378000D01*
X126052187Y-103516008D01*
X126092442Y-103648712D01*
X126106997Y-103675942D01*
X126157814Y-103771014D01*
X126245789Y-103878212D01*
X126272657Y-103900262D01*
X128763743Y-106391350D01*
X128785788Y-106418212D01*
X128892986Y-106506187D01*
X129015287Y-106571558D01*
X129117105Y-106602444D01*
X129147991Y-106611813D01*
X129285999Y-106625406D01*
X129320580Y-106622000D01*
X132476419Y-106622000D01*
X132511000Y-106625406D01*
X132649008Y-106611813D01*
X132781713Y-106571558D01*
X132904014Y-106506187D01*
X133011212Y-106418212D01*
X133033266Y-106391339D01*
X133766348Y-105658258D01*
X133793211Y-105636212D01*
X133881187Y-105529014D01*
X133917118Y-105461791D01*
X134193000Y-105461791D01*
X134306112Y-105450650D01*
X134414876Y-105417657D01*
X134493000Y-105375900D01*
X134571124Y-105417657D01*
X134679888Y-105450650D01*
X134793000Y-105461791D01*
X136593000Y-105461791D01*
X136706112Y-105450650D01*
X136814876Y-105417657D01*
X136893000Y-105375900D01*
X136971124Y-105417657D01*
X137079888Y-105450650D01*
X137193000Y-105461791D01*
X138993000Y-105461791D01*
X139106112Y-105450650D01*
X139214876Y-105417657D01*
X139315115Y-105364079D01*
X139402974Y-105291974D01*
X139475079Y-105204115D01*
X139528657Y-105103876D01*
X139561650Y-104995112D01*
X139572791Y-104882000D01*
X139572791Y-102382000D01*
X139561650Y-102268888D01*
X139528657Y-102160124D01*
X139475079Y-102059885D01*
X139402974Y-101972026D01*
X139315115Y-101899921D01*
X139214876Y-101846343D01*
X139213027Y-101845782D01*
X139222900Y-101745542D01*
X139222900Y-101745535D01*
X139227227Y-101701600D01*
X139222900Y-101657666D01*
X139222900Y-99395828D01*
X141024500Y-99395828D01*
X141024500Y-100248172D01*
X141190784Y-101084139D01*
X141516962Y-101871603D01*
X141990499Y-102580302D01*
X142593198Y-103183001D01*
X143301897Y-103656538D01*
X144089361Y-103982716D01*
X144925328Y-104149000D01*
X145777672Y-104149000D01*
X146613639Y-103982716D01*
X147401103Y-103656538D01*
X148109802Y-103183001D01*
X148712501Y-102580302D01*
X149186038Y-101871603D01*
X149512216Y-101084139D01*
X149678500Y-100248172D01*
X149678500Y-99395828D01*
X149512216Y-98559861D01*
X149186038Y-97772397D01*
X148712501Y-97063698D01*
X148109802Y-96460999D01*
X147401103Y-95987462D01*
X146613639Y-95661284D01*
X145777672Y-95495000D01*
X144925328Y-95495000D01*
X144089361Y-95661284D01*
X143301897Y-95987462D01*
X142593198Y-96460999D01*
X141990499Y-97063698D01*
X141516962Y-97772397D01*
X141190784Y-98559861D01*
X141024500Y-99395828D01*
X139222900Y-99395828D01*
X139222900Y-97750237D01*
X139295578Y-97614264D01*
X139342087Y-97460946D01*
X139357791Y-97301500D01*
X139357791Y-96726500D01*
X139342087Y-96567054D01*
X139295578Y-96413736D01*
X139220053Y-96272437D01*
X139207912Y-96257643D01*
X139229185Y-96240185D01*
X139308537Y-96143494D01*
X139367502Y-96033180D01*
X139403812Y-95913482D01*
X139416072Y-95789000D01*
X139413000Y-95549750D01*
X139254250Y-95391000D01*
X138430000Y-95391000D01*
X138430000Y-95411000D01*
X138176000Y-95411000D01*
X138176000Y-95391000D01*
X138156000Y-95391000D01*
X138156000Y-95137000D01*
X138176000Y-95137000D01*
X138176000Y-94262750D01*
X138430000Y-94262750D01*
X138430000Y-95137000D01*
X139254250Y-95137000D01*
X139413000Y-94978250D01*
X139416072Y-94739000D01*
X139403812Y-94614518D01*
X139367502Y-94494820D01*
X139308537Y-94384506D01*
X139229185Y-94287815D01*
X139132494Y-94208463D01*
X139022180Y-94149498D01*
X138902482Y-94113188D01*
X138778000Y-94100928D01*
X138588750Y-94104000D01*
X138430000Y-94262750D01*
X138176000Y-94262750D01*
X138017250Y-94104000D01*
X137828000Y-94100928D01*
X137703518Y-94113188D01*
X137583820Y-94149498D01*
X137473506Y-94208463D01*
X137376815Y-94287815D01*
X137297463Y-94384506D01*
X137271971Y-94432198D01*
X137125852Y-94432198D01*
X137284600Y-94273450D01*
X137287672Y-94209200D01*
X137275412Y-94084718D01*
X137239102Y-93965020D01*
X137180137Y-93854706D01*
X137100785Y-93758015D01*
X137004094Y-93678663D01*
X136893780Y-93619698D01*
X136774082Y-93583388D01*
X136649600Y-93571128D01*
X136279391Y-93573578D01*
X136279391Y-92455847D01*
X136390500Y-92466791D01*
X136685500Y-92466791D01*
X136827387Y-92452816D01*
X136889345Y-92434021D01*
X136968820Y-92476502D01*
X137088518Y-92512812D01*
X137213000Y-92525072D01*
X137222250Y-92522000D01*
X137381000Y-92363250D01*
X137381000Y-91940119D01*
X137398816Y-91881387D01*
X137412791Y-91739500D01*
X137412791Y-91694000D01*
X137635000Y-91694000D01*
X137635000Y-92363250D01*
X137793750Y-92522000D01*
X137803000Y-92525072D01*
X137927482Y-92512812D01*
X138047180Y-92476502D01*
X138157494Y-92417537D01*
X138254185Y-92338185D01*
X138333537Y-92241494D01*
X138392502Y-92131180D01*
X138428812Y-92011482D01*
X138441072Y-91887000D01*
X138438000Y-91852750D01*
X138279250Y-91694000D01*
X137635000Y-91694000D01*
X137412791Y-91694000D01*
X137412791Y-91394500D01*
X137398816Y-91252613D01*
X137381000Y-91193881D01*
X137381000Y-90924119D01*
X137398816Y-90865387D01*
X137412791Y-90723500D01*
X137412791Y-90678000D01*
X137635000Y-90678000D01*
X137635000Y-91440000D01*
X137727750Y-91440000D01*
X137793750Y-91506000D01*
X137803000Y-91509072D01*
X137927482Y-91496812D01*
X138047180Y-91460502D01*
X138085536Y-91440000D01*
X138279250Y-91440000D01*
X138438000Y-91281250D01*
X138441072Y-91247000D01*
X138428812Y-91122518D01*
X138409544Y-91059000D01*
X138428812Y-90995482D01*
X138441072Y-90871000D01*
X138438000Y-90836750D01*
X138279250Y-90678000D01*
X138085536Y-90678000D01*
X138047180Y-90657498D01*
X137927482Y-90621188D01*
X137803000Y-90608928D01*
X137793750Y-90612000D01*
X137727750Y-90678000D01*
X137635000Y-90678000D01*
X137412791Y-90678000D01*
X137412791Y-90378500D01*
X137398816Y-90236613D01*
X137381000Y-90177881D01*
X137381000Y-89754750D01*
X137635000Y-89754750D01*
X137635000Y-90424000D01*
X138279250Y-90424000D01*
X138438000Y-90265250D01*
X138441072Y-90231000D01*
X138428812Y-90106518D01*
X138392502Y-89986820D01*
X138333537Y-89876506D01*
X138254185Y-89779815D01*
X138157494Y-89700463D01*
X138047180Y-89641498D01*
X137927482Y-89605188D01*
X137803000Y-89592928D01*
X137793750Y-89596000D01*
X137635000Y-89754750D01*
X137381000Y-89754750D01*
X137222250Y-89596000D01*
X137213000Y-89592928D01*
X137088518Y-89605188D01*
X136968820Y-89641498D01*
X136889345Y-89683979D01*
X136827387Y-89665184D01*
X136685500Y-89651209D01*
X136390500Y-89651209D01*
X136248613Y-89665184D01*
X136112178Y-89706571D01*
X136095685Y-89715387D01*
X136095685Y-89688919D01*
X136104931Y-89667466D01*
X136112819Y-89642773D01*
X136123282Y-89619070D01*
X136125769Y-89611334D01*
X136132892Y-89588630D01*
X136138167Y-89563419D01*
X136139494Y-89559266D01*
X136139503Y-89559190D01*
X136146222Y-89538385D01*
X136147898Y-89530433D01*
X136152706Y-89506799D01*
X136154195Y-89492386D01*
X136157763Y-89478341D01*
X136158929Y-89470299D01*
X136158973Y-89469980D01*
X136159242Y-89463140D01*
X136160678Y-89456448D01*
X136161544Y-89448368D01*
X136161648Y-89447328D01*
X136161657Y-89442568D01*
X136162513Y-89437895D01*
X136163134Y-89429792D01*
X136163234Y-89428355D01*
X136163201Y-89427174D01*
X136163391Y-89426017D01*
X136163866Y-89417904D01*
X136163963Y-89416021D01*
X136163960Y-89415951D01*
X136164287Y-89408887D01*
X136164380Y-89406513D01*
X136164371Y-89406368D01*
X136164554Y-89401508D01*
X136164643Y-89398597D01*
X136164634Y-89398459D01*
X136164739Y-89395132D01*
X136164825Y-89391638D01*
X136164815Y-89391508D01*
X136164886Y-89388893D01*
X136164968Y-89384770D01*
X136164960Y-89384663D01*
X136165004Y-89382778D01*
X136165083Y-89377981D01*
X136165076Y-89377897D01*
X136165107Y-89376415D01*
X136165183Y-89370897D01*
X136165177Y-89370820D01*
X136165200Y-89369549D01*
X136165272Y-89363265D01*
X136165267Y-89363204D01*
X136165282Y-89362337D01*
X136165352Y-89355241D01*
X136165347Y-89355184D01*
X136165360Y-89354328D01*
X136165426Y-89346372D01*
X136165422Y-89346327D01*
X136165431Y-89345682D01*
X136165494Y-89336822D01*
X136165491Y-89336787D01*
X136165498Y-89336243D01*
X136165558Y-89326432D01*
X136165555Y-89326403D01*
X136165561Y-89325943D01*
X136165618Y-89315136D01*
X136165616Y-89315114D01*
X136165620Y-89314767D01*
X136165675Y-89302916D01*
X136165672Y-89302888D01*
X136165676Y-89302554D01*
X136165728Y-89289616D01*
X136165726Y-89289594D01*
X136165729Y-89289303D01*
X136165778Y-89275229D01*
X136165776Y-89275213D01*
X136165779Y-89274958D01*
X136165825Y-89259704D01*
X136165824Y-89259695D01*
X136165826Y-89259503D01*
X136165870Y-89243022D01*
X136165868Y-89243006D01*
X136165870Y-89242845D01*
X136165912Y-89225092D01*
X136165911Y-89225085D01*
X136165913Y-89224905D01*
X136165952Y-89205833D01*
X136165951Y-89205822D01*
X136165952Y-89205697D01*
X136165989Y-89185261D01*
X136165988Y-89185249D01*
X136165989Y-89185113D01*
X136166023Y-89163266D01*
X136166022Y-89163259D01*
X136166023Y-89163184D01*
X136166036Y-89154000D01*
X149898000Y-89154000D01*
X149898001Y-109380000D01*
X117102000Y-109380000D01*
X117102000Y-99395828D01*
X117212000Y-99395828D01*
X117212000Y-100248172D01*
X117378284Y-101084139D01*
X117704462Y-101871603D01*
X118177999Y-102580302D01*
X118780698Y-103183001D01*
X119489397Y-103656538D01*
X120276861Y-103982716D01*
X121112828Y-104149000D01*
X121965172Y-104149000D01*
X122801139Y-103982716D01*
X123588603Y-103656538D01*
X124297302Y-103183001D01*
X124900001Y-102580302D01*
X125373538Y-101871603D01*
X125699716Y-101084139D01*
X125866000Y-100248172D01*
X125866000Y-99395828D01*
X125699716Y-98559861D01*
X125373538Y-97772397D01*
X124900001Y-97063698D01*
X124297302Y-96460999D01*
X123588603Y-95987462D01*
X122801139Y-95661284D01*
X121965172Y-95495000D01*
X121112828Y-95495000D01*
X120276861Y-95661284D01*
X119489397Y-95987462D01*
X118780698Y-96460999D01*
X118177999Y-97063698D01*
X117704462Y-97772397D01*
X117378284Y-98559861D01*
X117212000Y-99395828D01*
X117102000Y-99395828D01*
X117102000Y-89154000D01*
X130736940Y-89154000D01*
X130736948Y-89157062D01*
G37*
X130736948Y-89157062D02*
X130736950Y-89157087D01*
X130736949Y-89157472D01*
X130736993Y-89171171D01*
X130736996Y-89171204D01*
X130736995Y-89171663D01*
X130737045Y-89183986D01*
X130737049Y-89184027D01*
X130737048Y-89184687D01*
X130737106Y-89195712D01*
X130737111Y-89195763D01*
X130737111Y-89196508D01*
X130737176Y-89206314D01*
X130737182Y-89206370D01*
X130737183Y-89207292D01*
X130737255Y-89215957D01*
X130737263Y-89216034D01*
X130737268Y-89217323D01*
X130737349Y-89224923D01*
X130737359Y-89225015D01*
X130737369Y-89226549D01*
X130737458Y-89233167D01*
X130737470Y-89233275D01*
X130737491Y-89235328D01*
X130737589Y-89241037D01*
X130737604Y-89241164D01*
X130737643Y-89243803D01*
X130737750Y-89248684D01*
X130737767Y-89248822D01*
X130737843Y-89252410D01*
X130737960Y-89256540D01*
X130737979Y-89256687D01*
X130738126Y-89261594D01*
X130738254Y-89265050D01*
X130738268Y-89265150D01*
X130738520Y-89271324D01*
X130738657Y-89274188D01*
X130738726Y-89274660D01*
X130738703Y-89275141D01*
X130739161Y-89283254D01*
X130739310Y-89285601D01*
X130739606Y-89287419D01*
X130739554Y-89289259D01*
X130740177Y-89297361D01*
X130740337Y-89299270D01*
X130741020Y-89302995D01*
X130741016Y-89306783D01*
X130741856Y-89314865D01*
X130742028Y-89316415D01*
X130743216Y-89322036D01*
X130743403Y-89327778D01*
X130744515Y-89335827D01*
X130744699Y-89337094D01*
X130746390Y-89343947D01*
X130746888Y-89350982D01*
X130748305Y-89358983D01*
X130748501Y-89360047D01*
X130750436Y-89366773D01*
X130751193Y-89373723D01*
X130752912Y-89381665D01*
X130753122Y-89382603D01*
X130754058Y-89385447D01*
X130754454Y-89388411D01*
X130756365Y-89396309D01*
X130756587Y-89397199D01*
X130756876Y-89398011D01*
X130757004Y-89398858D01*
X130759049Y-89406723D01*
X130759493Y-89408383D01*
X130764017Y-89420436D01*
X130765520Y-89427545D01*
X130768787Y-89435190D01*
X130770470Y-89442063D01*
X130770829Y-89443820D01*
X130771002Y-89444232D01*
X130772656Y-89450985D01*
X130775404Y-89458633D01*
X130780661Y-89472948D01*
X130787574Y-89487270D01*
X130788635Y-89490494D01*
X130791849Y-89496194D01*
X130794701Y-89504200D01*
X130796746Y-89507630D01*
X130799409Y-89514724D01*
X130802920Y-89520393D01*
X130807724Y-89531855D01*
X130809964Y-89537979D01*
X130811016Y-89539710D01*
X130814733Y-89548579D01*
X130818640Y-89555704D01*
X130826085Y-89569059D01*
X130829262Y-89573641D01*
X130830035Y-89575242D01*
X130834327Y-89580945D01*
X130848515Y-89601406D01*
X130857319Y-89615891D01*
X130861271Y-89623202D01*
X130863127Y-89625446D01*
X130868960Y-89635043D01*
X130873883Y-89641509D01*
X130883269Y-89653657D01*
X130888870Y-89659603D01*
X130890810Y-89662400D01*
X130898687Y-89670023D01*
X130909393Y-89681387D01*
X130919269Y-89693329D01*
X130924244Y-89700010D01*
X130926428Y-89701986D01*
X130933662Y-89710732D01*
X130939467Y-89716419D01*
X130950543Y-89727118D01*
X130958172Y-89733166D01*
X130961156Y-89736334D01*
X130971271Y-89743551D01*
X130980315Y-89750721D01*
X130994166Y-89763249D01*
X130999089Y-89768148D01*
X131000962Y-89769395D01*
X131008487Y-89776201D01*
X131015050Y-89780992D01*
X131027569Y-89789996D01*
X131036090Y-89794941D01*
X131039550Y-89797684D01*
X131050658Y-89803395D01*
X131061236Y-89809534D01*
X131083888Y-89824618D01*
X131086427Y-89826464D01*
X131087191Y-89826817D01*
X131093631Y-89831106D01*
X131100828Y-89834879D01*
X131114539Y-89841944D01*
X131122611Y-89845150D01*
X131125811Y-89847007D01*
X131136614Y-89850711D01*
X131151642Y-89856680D01*
X131161635Y-89862293D01*
X131169365Y-89864823D01*
X131189521Y-89874145D01*
X131197213Y-89876767D01*
X131211868Y-89881648D01*
X131216584Y-89882721D01*
X131218349Y-89883490D01*
X131228569Y-89885725D01*
X131235196Y-89888396D01*
X131243811Y-89890031D01*
X131248103Y-89891663D01*
X131254886Y-89892812D01*
X131269588Y-89897624D01*
X131277533Y-89899331D01*
X131278280Y-89899486D01*
X131291666Y-89900922D01*
X131304680Y-89904331D01*
X131312713Y-89905558D01*
X131313784Y-89905714D01*
X131318609Y-89905940D01*
X131322622Y-89906853D01*
X131325544Y-89906936D01*
X131329313Y-89907760D01*
X131337389Y-89908658D01*
X131338813Y-89908806D01*
X131342843Y-89908830D01*
X131346790Y-89909579D01*
X131354888Y-89910252D01*
X131356729Y-89910392D01*
X131358424Y-89910355D01*
X131360094Y-89910638D01*
X131368204Y-89911151D01*
X131370535Y-89911282D01*
X131370570Y-89911281D01*
X131378216Y-89911663D01*
X131381104Y-89911787D01*
X131381231Y-89911780D01*
X131386876Y-89912006D01*
X131390390Y-89912122D01*
X131390534Y-89912113D01*
X131394529Y-89912244D01*
X131398738Y-89912353D01*
X131398877Y-89912343D01*
X131401989Y-89912428D01*
X131406964Y-89912529D01*
X131407080Y-89912520D01*
X131409359Y-89912573D01*
X131415167Y-89912667D01*
X131415266Y-89912659D01*
X131416954Y-89912693D01*
X131423665Y-89912781D01*
X131423746Y-89912774D01*
X131425160Y-89912799D01*
X131432841Y-89912880D01*
X131432907Y-89912874D01*
X131433908Y-89912890D01*
X131442632Y-89912966D01*
X131442689Y-89912961D01*
X131443619Y-89912974D01*
X131453452Y-89913043D01*
X131453506Y-89913038D01*
X131454206Y-89913047D01*
X131465218Y-89913110D01*
X131465254Y-89913107D01*
X131465795Y-89913113D01*
X131478056Y-89913171D01*
X131478078Y-89913169D01*
X131478537Y-89913174D01*
X131492115Y-89913227D01*
X131492148Y-89913224D01*
X131492559Y-89913228D01*
X131507523Y-89913275D01*
X131507541Y-89913273D01*
X131507827Y-89913276D01*
X131524247Y-89913319D01*
X131524260Y-89913318D01*
X131524506Y-89913320D01*
X131542450Y-89913359D01*
X131542471Y-89913357D01*
X131542702Y-89913359D01*
X131562239Y-89913393D01*
X131562254Y-89913392D01*
X131562428Y-89913393D01*
X131583628Y-89913423D01*
X131583631Y-89913423D01*
X131583792Y-89913424D01*
X131606723Y-89913450D01*
X131606732Y-89913449D01*
X131606842Y-89913450D01*
X131631574Y-89913473D01*
X131631583Y-89913472D01*
X131631699Y-89913473D01*
X131658301Y-89913492D01*
X131658370Y-89913492D01*
X131686911Y-89913509D01*
X131686918Y-89913508D01*
X131687010Y-89913509D01*
X131717558Y-89913522D01*
X131717610Y-89913522D01*
X131750235Y-89913533D01*
X131750280Y-89913533D01*
X131785051Y-89913542D01*
X131785108Y-89913542D01*
X131822095Y-89913548D01*
X131822115Y-89913548D01*
X131861385Y-89913553D01*
X131861417Y-89913553D01*
X131903040Y-89913556D01*
X131903069Y-89913556D01*
X131947115Y-89913557D01*
X131993652Y-89913558D01*
X132071984Y-89913558D01*
X132114052Y-89913556D01*
X132114053Y-89913556D01*
X132153752Y-89913554D01*
X132153770Y-89913554D01*
X132191169Y-89913551D01*
X132191188Y-89913551D01*
X132226358Y-89913547D01*
X132226415Y-89913547D01*
X132259425Y-89913540D01*
X132259471Y-89913540D01*
X132290392Y-89913531D01*
X132290445Y-89913531D01*
X132319346Y-89913520D01*
X132319426Y-89913520D01*
X132346379Y-89913506D01*
X132346448Y-89913506D01*
X132371521Y-89913490D01*
X132371529Y-89913489D01*
X132371650Y-89913490D01*
X132394914Y-89913470D01*
X132394922Y-89913469D01*
X132395063Y-89913470D01*
X132416588Y-89913446D01*
X132416607Y-89913444D01*
X132416760Y-89913445D01*
X132436616Y-89913417D01*
X132436624Y-89913416D01*
X132436783Y-89913417D01*
X132455040Y-89913386D01*
X132455054Y-89913385D01*
X132455339Y-89913386D01*
X132472067Y-89913349D01*
X132472088Y-89913347D01*
X132472343Y-89913348D01*
X132487613Y-89913307D01*
X132487636Y-89913305D01*
X132487979Y-89913306D01*
X132501859Y-89913260D01*
X132501890Y-89913257D01*
X132502293Y-89913258D01*
X132514855Y-89913207D01*
X132514885Y-89913204D01*
X132515424Y-89913205D01*
X132526737Y-89913148D01*
X132526781Y-89913143D01*
X132527423Y-89913144D01*
X132537557Y-89913081D01*
X132537617Y-89913075D01*
X132538452Y-89913074D01*
X132547478Y-89913005D01*
X132547542Y-89912998D01*
X132548430Y-89912996D01*
X132556417Y-89912921D01*
X132556497Y-89912912D01*
X132557834Y-89912906D01*
X132564852Y-89912823D01*
X132564940Y-89912813D01*
X132566529Y-89912801D01*
X132572649Y-89912711D01*
X132572759Y-89912699D01*
X132574757Y-89912676D01*
X132580049Y-89912579D01*
X132580175Y-89912564D01*
X132582861Y-89912521D01*
X132587393Y-89912416D01*
X132587533Y-89912399D01*
X132591013Y-89912321D01*
X132594858Y-89912208D01*
X132595004Y-89912189D01*
X132599568Y-89912050D01*
X132602795Y-89911929D01*
X132602893Y-89911916D01*
X132609197Y-89911654D01*
X132611876Y-89911524D01*
X132612057Y-89911497D01*
X132612236Y-89911506D01*
X132620349Y-89911051D01*
X132622550Y-89910912D01*
X132624103Y-89910660D01*
X132625669Y-89910706D01*
X132633772Y-89910094D01*
X132635564Y-89909946D01*
X132638958Y-89909328D01*
X132642406Y-89909340D01*
X132650491Y-89908520D01*
X132651946Y-89908362D01*
X132657030Y-89907300D01*
X132662211Y-89907154D01*
X132670266Y-89906078D01*
X132671452Y-89905911D01*
X132678052Y-89904312D01*
X132684823Y-89903869D01*
X132692832Y-89902493D01*
X132693821Y-89902316D01*
X132700611Y-89900401D01*
X132707632Y-89899672D01*
X132715583Y-89897992D01*
X132716442Y-89897804D01*
X132720262Y-89896568D01*
X132724246Y-89896042D01*
X132732147Y-89894142D01*
X132732949Y-89893943D01*
X132742999Y-89890380D01*
X132747312Y-89889595D01*
X132749782Y-89888621D01*
X132759109Y-89886810D01*
X132766881Y-89884436D01*
X132774512Y-89882046D01*
X132780537Y-89879490D01*
X132781846Y-89879173D01*
X132788092Y-89876285D01*
X132791957Y-89874645D01*
X132803144Y-89871491D01*
X132804564Y-89870769D01*
X132814240Y-89868006D01*
X132821778Y-89864971D01*
X132831165Y-89861114D01*
X132847960Y-89852208D01*
X132865763Y-89845561D01*
X132873038Y-89841939D01*
X132882041Y-89837377D01*
X132901946Y-89824710D01*
X132907079Y-89822216D01*
X132914688Y-89818842D01*
X132916173Y-89817798D01*
X132923165Y-89814401D01*
X132930063Y-89810105D01*
X132937602Y-89805337D01*
X132952019Y-89794110D01*
X132967795Y-89784890D01*
X132974344Y-89780079D01*
X132975817Y-89778981D01*
X132987489Y-89768359D01*
X132990480Y-89766521D01*
X132994852Y-89762475D01*
X133007605Y-89753508D01*
X133013727Y-89748165D01*
X133024503Y-89738627D01*
X133047658Y-89713698D01*
X133056825Y-89706284D01*
X133061057Y-89701210D01*
X133068549Y-89694278D01*
X133069954Y-89695964D01*
X133075002Y-89702652D01*
X133077039Y-89704471D01*
X133083675Y-89712437D01*
X133089500Y-89718103D01*
X133100212Y-89728378D01*
X133122897Y-89746234D01*
X133132820Y-89755735D01*
X133138611Y-89759432D01*
X133140184Y-89760836D01*
X133147157Y-89767776D01*
X133150312Y-89769877D01*
X133159740Y-89778293D01*
X133166334Y-89783041D01*
X133178731Y-89791836D01*
X133186406Y-89796223D01*
X133189466Y-89798632D01*
X133200112Y-89804058D01*
X133210882Y-89810215D01*
X133224287Y-89819142D01*
X133230553Y-89823771D01*
X133232902Y-89824879D01*
X133241698Y-89830737D01*
X133248895Y-89834510D01*
X133262452Y-89841496D01*
X133272783Y-89845599D01*
X133277343Y-89848206D01*
X133286351Y-89851229D01*
X133286360Y-89851235D01*
X133290719Y-89852873D01*
X133293856Y-89854759D01*
X133303891Y-89858376D01*
X133311356Y-89862551D01*
X133315876Y-89864021D01*
X133333283Y-89872233D01*
X133340954Y-89874913D01*
X133355145Y-89879759D01*
X133364100Y-89881868D01*
X133368016Y-89883424D01*
X133369927Y-89883777D01*
X133371646Y-89884515D01*
X133379268Y-89886140D01*
X133392691Y-89891183D01*
X133400555Y-89893230D01*
X133400990Y-89893340D01*
X133401014Y-89893344D01*
X133408606Y-89895212D01*
X133409482Y-89895421D01*
X133414530Y-89896114D01*
X133419371Y-89897689D01*
X133427319Y-89899382D01*
X133428277Y-89899579D01*
X133435079Y-89900296D01*
X133441652Y-89902166D01*
X133449658Y-89903560D01*
X133450771Y-89903746D01*
X133457663Y-89904213D01*
X133464373Y-89905852D01*
X133472425Y-89906945D01*
X133473771Y-89907118D01*
X133478306Y-89907254D01*
X133482736Y-89908199D01*
X133490818Y-89909054D01*
X133492470Y-89909217D01*
X133495492Y-89909219D01*
X133498451Y-89909775D01*
X133506550Y-89910433D01*
X133508586Y-89910584D01*
X133509509Y-89910562D01*
X133510419Y-89910717D01*
X133518529Y-89911237D01*
X133521020Y-89911379D01*
X133521036Y-89911378D01*
X133528946Y-89911776D01*
X133531969Y-89911907D01*
X133532093Y-89911900D01*
X133537622Y-89912125D01*
X133541253Y-89912247D01*
X133541401Y-89912238D01*
X133545689Y-89912379D01*
X133550001Y-89912491D01*
X133550137Y-89912481D01*
X133553174Y-89912565D01*
X133558244Y-89912669D01*
X133558368Y-89912659D01*
X133560815Y-89912716D01*
X133566718Y-89912811D01*
X133566819Y-89912803D01*
X133568649Y-89912839D01*
X133575461Y-89912926D01*
X133575551Y-89912918D01*
X133576995Y-89912943D01*
X133584789Y-89913022D01*
X133584853Y-89913016D01*
X133585954Y-89913033D01*
X133594804Y-89913105D01*
X133594867Y-89913099D01*
X133595808Y-89913112D01*
X133605792Y-89913176D01*
X133605837Y-89913172D01*
X133606507Y-89913180D01*
X133617700Y-89913238D01*
X133617735Y-89913235D01*
X133618290Y-89913241D01*
X133630766Y-89913293D01*
X133630800Y-89913290D01*
X133631299Y-89913295D01*
X133645133Y-89913340D01*
X133645157Y-89913338D01*
X133645501Y-89913341D01*
X133660769Y-89913381D01*
X133660787Y-89913379D01*
X133661080Y-89913382D01*
X133677857Y-89913417D01*
X133677879Y-89913415D01*
X133678120Y-89913417D01*
X133696480Y-89913447D01*
X133696488Y-89913446D01*
X133696704Y-89913448D01*
X133716723Y-89913473D01*
X133716736Y-89913472D01*
X133716888Y-89913473D01*
X133738641Y-89913494D01*
X133738650Y-89913493D01*
X133738758Y-89913494D01*
X133762321Y-89913512D01*
X133762330Y-89913511D01*
X133762446Y-89913512D01*
X133787892Y-89913526D01*
X133787898Y-89913525D01*
X133787978Y-89913526D01*
X133815384Y-89913537D01*
X133815389Y-89913536D01*
X133815460Y-89913537D01*
X133844901Y-89913545D01*
X133844948Y-89913545D01*
X133876498Y-89913551D01*
X133876540Y-89913551D01*
X133910275Y-89913555D01*
X133910295Y-89913555D01*
X133946290Y-89913558D01*
X133946324Y-89913558D01*
X133984654Y-89913559D01*
X133984655Y-89913559D01*
X134025394Y-89913560D01*
X134139950Y-89913560D01*
X134179033Y-89913559D01*
X134179050Y-89913559D01*
X134215774Y-89913557D01*
X134215810Y-89913557D01*
X134250250Y-89913553D01*
X134250272Y-89913553D01*
X134282504Y-89913548D01*
X134282549Y-89913548D01*
X134312648Y-89913541D01*
X134312721Y-89913541D01*
X134340761Y-89913531D01*
X134340766Y-89913530D01*
X134340843Y-89913531D01*
X134366901Y-89913518D01*
X134366907Y-89913517D01*
X134366997Y-89913518D01*
X134391146Y-89913502D01*
X134391152Y-89913501D01*
X134391255Y-89913502D01*
X134413572Y-89913483D01*
X134413582Y-89913482D01*
X134413756Y-89913483D01*
X134434315Y-89913459D01*
X134434334Y-89913457D01*
X134434499Y-89913458D01*
X134453375Y-89913430D01*
X134453387Y-89913429D01*
X134453624Y-89913430D01*
X134470893Y-89913397D01*
X134470915Y-89913395D01*
X134471186Y-89913396D01*
X134486923Y-89913358D01*
X134486946Y-89913356D01*
X134487271Y-89913357D01*
X134501550Y-89913314D01*
X134501574Y-89913312D01*
X134502008Y-89913313D01*
X134514906Y-89913264D01*
X134514948Y-89913260D01*
X134515507Y-89913261D01*
X134527097Y-89913205D01*
X134527133Y-89913201D01*
X134527768Y-89913202D01*
X134538127Y-89913140D01*
X134538181Y-89913134D01*
X134539007Y-89913134D01*
X134548210Y-89913065D01*
X134548279Y-89913058D01*
X134549365Y-89913055D01*
X134557486Y-89912978D01*
X134557569Y-89912969D01*
X134558839Y-89912963D01*
X134565953Y-89912879D01*
X134566042Y-89912869D01*
X134567742Y-89912856D01*
X134573925Y-89912764D01*
X134574050Y-89912750D01*
X134576297Y-89912723D01*
X134581625Y-89912622D01*
X134581753Y-89912607D01*
X134584673Y-89912557D01*
X134589218Y-89912447D01*
X134589363Y-89912429D01*
X134593163Y-89912338D01*
X134597004Y-89912219D01*
X134597140Y-89912201D01*
X134602170Y-89912036D01*
X134605380Y-89911908D01*
X134605442Y-89911899D01*
X134612619Y-89911574D01*
X134615275Y-89911435D01*
X134615769Y-89911360D01*
X134616264Y-89911382D01*
X134624375Y-89910887D01*
X134626549Y-89910739D01*
X134628921Y-89910342D01*
X134631318Y-89910394D01*
X134639417Y-89909720D01*
X134641186Y-89909560D01*
X134645256Y-89908786D01*
X134648316Y-89908766D01*
X134648316Y-89957206D01*
X134594780Y-90022439D01*
X134527571Y-90148178D01*
X134486184Y-90284613D01*
X134472209Y-90426500D01*
X134472209Y-90721500D01*
X134486184Y-90863387D01*
X134527571Y-90999822D01*
X134559202Y-91059000D01*
X134527571Y-91118178D01*
X134486184Y-91254613D01*
X134472209Y-91396500D01*
X134472209Y-91579409D01*
X133799600Y-91579409D01*
X133686488Y-91590550D01*
X133577724Y-91623543D01*
X133549600Y-91638575D01*
X133521476Y-91623543D01*
X133412712Y-91590550D01*
X133299600Y-91579409D01*
X132599600Y-91579409D01*
X132486488Y-91590550D01*
X132377724Y-91623543D01*
X132349600Y-91638575D01*
X132321476Y-91623543D01*
X132212712Y-91590550D01*
X132099600Y-91579409D01*
X131399600Y-91579409D01*
X131286488Y-91590550D01*
X131177724Y-91623543D01*
X131077485Y-91677121D01*
X130989626Y-91749226D01*
X130987349Y-91752000D01*
X128812581Y-91752000D01*
X128778000Y-91748594D01*
X128639991Y-91762187D01*
X128507287Y-91802442D01*
X128384986Y-91867813D01*
X128277788Y-91955788D01*
X128255738Y-91982656D01*
X126272657Y-93965738D01*
X126245788Y-93987789D01*
X126157813Y-94094987D01*
X126126370Y-94153813D01*
X126092442Y-94217288D01*
X126052187Y-94349992D01*
X126038594Y-94488000D01*
X126042000Y-94522581D01*
X126042001Y-103343409D01*
X126038594Y-103378000D01*
X126052187Y-103516008D01*
X126092442Y-103648712D01*
X126106997Y-103675942D01*
X126157814Y-103771014D01*
X126245789Y-103878212D01*
X126272657Y-103900262D01*
X128763743Y-106391350D01*
X128785788Y-106418212D01*
X128892986Y-106506187D01*
X129015287Y-106571558D01*
X129117105Y-106602444D01*
X129147991Y-106611813D01*
X129285999Y-106625406D01*
X129320580Y-106622000D01*
X132476419Y-106622000D01*
X132511000Y-106625406D01*
X132649008Y-106611813D01*
X132781713Y-106571558D01*
X132904014Y-106506187D01*
X133011212Y-106418212D01*
X133033266Y-106391339D01*
X133766348Y-105658258D01*
X133793211Y-105636212D01*
X133881187Y-105529014D01*
X133917118Y-105461791D01*
X134193000Y-105461791D01*
X134306112Y-105450650D01*
X134414876Y-105417657D01*
X134493000Y-105375900D01*
X134571124Y-105417657D01*
X134679888Y-105450650D01*
X134793000Y-105461791D01*
X136593000Y-105461791D01*
X136706112Y-105450650D01*
X136814876Y-105417657D01*
X136893000Y-105375900D01*
X136971124Y-105417657D01*
X137079888Y-105450650D01*
X137193000Y-105461791D01*
X138993000Y-105461791D01*
X139106112Y-105450650D01*
X139214876Y-105417657D01*
X139315115Y-105364079D01*
X139402974Y-105291974D01*
X139475079Y-105204115D01*
X139528657Y-105103876D01*
X139561650Y-104995112D01*
X139572791Y-104882000D01*
X139572791Y-102382000D01*
X139561650Y-102268888D01*
X139528657Y-102160124D01*
X139475079Y-102059885D01*
X139402974Y-101972026D01*
X139315115Y-101899921D01*
X139214876Y-101846343D01*
X139213027Y-101845782D01*
X139222900Y-101745542D01*
X139222900Y-101745535D01*
X139227227Y-101701600D01*
X139222900Y-101657666D01*
X139222900Y-99395828D01*
X141024500Y-99395828D01*
X141024500Y-100248172D01*
X141190784Y-101084139D01*
X141516962Y-101871603D01*
X141990499Y-102580302D01*
X142593198Y-103183001D01*
X143301897Y-103656538D01*
X144089361Y-103982716D01*
X144925328Y-104149000D01*
X145777672Y-104149000D01*
X146613639Y-103982716D01*
X147401103Y-103656538D01*
X148109802Y-103183001D01*
X148712501Y-102580302D01*
X149186038Y-101871603D01*
X149512216Y-101084139D01*
X149678500Y-100248172D01*
X149678500Y-99395828D01*
X149512216Y-98559861D01*
X149186038Y-97772397D01*
X148712501Y-97063698D01*
X148109802Y-96460999D01*
X147401103Y-95987462D01*
X146613639Y-95661284D01*
X145777672Y-95495000D01*
X144925328Y-95495000D01*
X144089361Y-95661284D01*
X143301897Y-95987462D01*
X142593198Y-96460999D01*
X141990499Y-97063698D01*
X141516962Y-97772397D01*
X141190784Y-98559861D01*
X141024500Y-99395828D01*
X139222900Y-99395828D01*
X139222900Y-97750237D01*
X139295578Y-97614264D01*
X139342087Y-97460946D01*
X139357791Y-97301500D01*
X139357791Y-96726500D01*
X139342087Y-96567054D01*
X139295578Y-96413736D01*
X139220053Y-96272437D01*
X139207912Y-96257643D01*
X139229185Y-96240185D01*
X139308537Y-96143494D01*
X139367502Y-96033180D01*
X139403812Y-95913482D01*
X139416072Y-95789000D01*
X139413000Y-95549750D01*
X139254250Y-95391000D01*
X138430000Y-95391000D01*
X138430000Y-95411000D01*
X138176000Y-95411000D01*
X138176000Y-95391000D01*
X138156000Y-95391000D01*
X138156000Y-95137000D01*
X138176000Y-95137000D01*
X138176000Y-94262750D01*
X138430000Y-94262750D01*
X138430000Y-95137000D01*
X139254250Y-95137000D01*
X139413000Y-94978250D01*
X139416072Y-94739000D01*
X139403812Y-94614518D01*
X139367502Y-94494820D01*
X139308537Y-94384506D01*
X139229185Y-94287815D01*
X139132494Y-94208463D01*
X139022180Y-94149498D01*
X138902482Y-94113188D01*
X138778000Y-94100928D01*
X138588750Y-94104000D01*
X138430000Y-94262750D01*
X138176000Y-94262750D01*
X138017250Y-94104000D01*
X137828000Y-94100928D01*
X137703518Y-94113188D01*
X137583820Y-94149498D01*
X137473506Y-94208463D01*
X137376815Y-94287815D01*
X137297463Y-94384506D01*
X137271971Y-94432198D01*
X137125852Y-94432198D01*
X137284600Y-94273450D01*
X137287672Y-94209200D01*
X137275412Y-94084718D01*
X137239102Y-93965020D01*
X137180137Y-93854706D01*
X137100785Y-93758015D01*
X137004094Y-93678663D01*
X136893780Y-93619698D01*
X136774082Y-93583388D01*
X136649600Y-93571128D01*
X136279391Y-93573578D01*
X136279391Y-92455847D01*
X136390500Y-92466791D01*
X136685500Y-92466791D01*
X136827387Y-92452816D01*
X136889345Y-92434021D01*
X136968820Y-92476502D01*
X137088518Y-92512812D01*
X137213000Y-92525072D01*
X137222250Y-92522000D01*
X137381000Y-92363250D01*
X137381000Y-91940119D01*
X137398816Y-91881387D01*
X137412791Y-91739500D01*
X137412791Y-91694000D01*
X137635000Y-91694000D01*
X137635000Y-92363250D01*
X137793750Y-92522000D01*
X137803000Y-92525072D01*
X137927482Y-92512812D01*
X138047180Y-92476502D01*
X138157494Y-92417537D01*
X138254185Y-92338185D01*
X138333537Y-92241494D01*
X138392502Y-92131180D01*
X138428812Y-92011482D01*
X138441072Y-91887000D01*
X138438000Y-91852750D01*
X138279250Y-91694000D01*
X137635000Y-91694000D01*
X137412791Y-91694000D01*
X137412791Y-91394500D01*
X137398816Y-91252613D01*
X137381000Y-91193881D01*
X137381000Y-90924119D01*
X137398816Y-90865387D01*
X137412791Y-90723500D01*
X137412791Y-90678000D01*
X137635000Y-90678000D01*
X137635000Y-91440000D01*
X137727750Y-91440000D01*
X137793750Y-91506000D01*
X137803000Y-91509072D01*
X137927482Y-91496812D01*
X138047180Y-91460502D01*
X138085536Y-91440000D01*
X138279250Y-91440000D01*
X138438000Y-91281250D01*
X138441072Y-91247000D01*
X138428812Y-91122518D01*
X138409544Y-91059000D01*
X138428812Y-90995482D01*
X138441072Y-90871000D01*
X138438000Y-90836750D01*
X138279250Y-90678000D01*
X138085536Y-90678000D01*
X138047180Y-90657498D01*
X137927482Y-90621188D01*
X137803000Y-90608928D01*
X137793750Y-90612000D01*
X137727750Y-90678000D01*
X137635000Y-90678000D01*
X137412791Y-90678000D01*
X137412791Y-90378500D01*
X137398816Y-90236613D01*
X137381000Y-90177881D01*
X137381000Y-89754750D01*
X137635000Y-89754750D01*
X137635000Y-90424000D01*
X138279250Y-90424000D01*
X138438000Y-90265250D01*
X138441072Y-90231000D01*
X138428812Y-90106518D01*
X138392502Y-89986820D01*
X138333537Y-89876506D01*
X138254185Y-89779815D01*
X138157494Y-89700463D01*
X138047180Y-89641498D01*
X137927482Y-89605188D01*
X137803000Y-89592928D01*
X137793750Y-89596000D01*
X137635000Y-89754750D01*
X137381000Y-89754750D01*
X137222250Y-89596000D01*
X137213000Y-89592928D01*
X137088518Y-89605188D01*
X136968820Y-89641498D01*
X136889345Y-89683979D01*
X136827387Y-89665184D01*
X136685500Y-89651209D01*
X136390500Y-89651209D01*
X136248613Y-89665184D01*
X136112178Y-89706571D01*
X136095685Y-89715387D01*
X136095685Y-89688919D01*
X136104931Y-89667466D01*
X136112819Y-89642773D01*
X136123282Y-89619070D01*
X136125769Y-89611334D01*
X136132892Y-89588630D01*
X136138167Y-89563419D01*
X136139494Y-89559266D01*
X136139503Y-89559190D01*
X136146222Y-89538385D01*
X136147898Y-89530433D01*
X136152706Y-89506799D01*
X136154195Y-89492386D01*
X136157763Y-89478341D01*
X136158929Y-89470299D01*
X136158973Y-89469980D01*
X136159242Y-89463140D01*
X136160678Y-89456448D01*
X136161544Y-89448368D01*
X136161648Y-89447328D01*
X136161657Y-89442568D01*
X136162513Y-89437895D01*
X136163134Y-89429792D01*
X136163234Y-89428355D01*
X136163201Y-89427174D01*
X136163391Y-89426017D01*
X136163866Y-89417904D01*
X136163963Y-89416021D01*
X136163960Y-89415951D01*
X136164287Y-89408887D01*
X136164380Y-89406513D01*
X136164371Y-89406368D01*
X136164554Y-89401508D01*
X136164643Y-89398597D01*
X136164634Y-89398459D01*
X136164739Y-89395132D01*
X136164825Y-89391638D01*
X136164815Y-89391508D01*
X136164886Y-89388893D01*
X136164968Y-89384770D01*
X136164960Y-89384663D01*
X136165004Y-89382778D01*
X136165083Y-89377981D01*
X136165076Y-89377897D01*
X136165107Y-89376415D01*
X136165183Y-89370897D01*
X136165177Y-89370820D01*
X136165200Y-89369549D01*
X136165272Y-89363265D01*
X136165267Y-89363204D01*
X136165282Y-89362337D01*
X136165352Y-89355241D01*
X136165347Y-89355184D01*
X136165360Y-89354328D01*
X136165426Y-89346372D01*
X136165422Y-89346327D01*
X136165431Y-89345682D01*
X136165494Y-89336822D01*
X136165491Y-89336787D01*
X136165498Y-89336243D01*
X136165558Y-89326432D01*
X136165555Y-89326403D01*
X136165561Y-89325943D01*
X136165618Y-89315136D01*
X136165616Y-89315114D01*
X136165620Y-89314767D01*
X136165675Y-89302916D01*
X136165672Y-89302888D01*
X136165676Y-89302554D01*
X136165728Y-89289616D01*
X136165726Y-89289594D01*
X136165729Y-89289303D01*
X136165778Y-89275229D01*
X136165776Y-89275213D01*
X136165779Y-89274958D01*
X136165825Y-89259704D01*
X136165824Y-89259695D01*
X136165826Y-89259503D01*
X136165870Y-89243022D01*
X136165868Y-89243006D01*
X136165870Y-89242845D01*
X136165912Y-89225092D01*
X136165911Y-89225085D01*
X136165913Y-89224905D01*
X136165952Y-89205833D01*
X136165951Y-89205822D01*
X136165952Y-89205697D01*
X136165989Y-89185261D01*
X136165988Y-89185249D01*
X136165989Y-89185113D01*
X136166023Y-89163266D01*
X136166022Y-89163259D01*
X136166023Y-89163184D01*
X136166036Y-89154000D01*
X149898000Y-89154000D01*
X149898001Y-109380000D01*
X117102000Y-109380000D01*
X117102000Y-99395828D01*
X117212000Y-99395828D01*
X117212000Y-100248172D01*
X117378284Y-101084139D01*
X117704462Y-101871603D01*
X118177999Y-102580302D01*
X118780698Y-103183001D01*
X119489397Y-103656538D01*
X120276861Y-103982716D01*
X121112828Y-104149000D01*
X121965172Y-104149000D01*
X122801139Y-103982716D01*
X123588603Y-103656538D01*
X124297302Y-103183001D01*
X124900001Y-102580302D01*
X125373538Y-101871603D01*
X125699716Y-101084139D01*
X125866000Y-100248172D01*
X125866000Y-99395828D01*
X125699716Y-98559861D01*
X125373538Y-97772397D01*
X124900001Y-97063698D01*
X124297302Y-96460999D01*
X123588603Y-95987462D01*
X122801139Y-95661284D01*
X121965172Y-95495000D01*
X121112828Y-95495000D01*
X120276861Y-95661284D01*
X119489397Y-95987462D01*
X118780698Y-96460999D01*
X118177999Y-97063698D01*
X117704462Y-97772397D01*
X117378284Y-98559861D01*
X117212000Y-99395828D01*
X117102000Y-99395828D01*
X117102000Y-89154000D01*
X130736940Y-89154000D01*
X130736948Y-89157062D01*
G36*
X128763738Y-102327344D02*
G01*
X128785788Y-102354212D01*
X128892986Y-102442187D01*
X129015287Y-102507558D01*
X129147991Y-102547813D01*
X129286000Y-102561406D01*
X129320581Y-102558000D01*
X129355489Y-102558000D01*
X129358000Y-103346250D01*
X129516750Y-103505000D01*
X130766000Y-103505000D01*
X130766000Y-103485000D01*
X131020000Y-103485000D01*
X131020000Y-103505000D01*
X131040000Y-103505000D01*
X131040000Y-103759000D01*
X131020000Y-103759000D01*
X131020000Y-103779000D01*
X130766000Y-103779000D01*
X130766000Y-103759000D01*
X129516750Y-103759000D01*
X129358000Y-103917750D01*
X129354928Y-104882000D01*
X129366871Y-105003264D01*
X127450000Y-103086395D01*
X127450000Y-101013605D01*
X128763738Y-102327344D01*
G37*
X128763738Y-102327344D02*
X128785788Y-102354212D01*
X128892986Y-102442187D01*
X129015287Y-102507558D01*
X129147991Y-102547813D01*
X129286000Y-102561406D01*
X129320581Y-102558000D01*
X129355489Y-102558000D01*
X129358000Y-103346250D01*
X129516750Y-103505000D01*
X130766000Y-103505000D01*
X130766000Y-103485000D01*
X131020000Y-103485000D01*
X131020000Y-103505000D01*
X131040000Y-103505000D01*
X131040000Y-103759000D01*
X131020000Y-103759000D01*
X131020000Y-103779000D01*
X130766000Y-103779000D01*
X130766000Y-103759000D01*
X129516750Y-103759000D01*
X129358000Y-103917750D01*
X129354928Y-104882000D01*
X129366871Y-105003264D01*
X127450000Y-103086395D01*
X127450000Y-101013605D01*
X128763738Y-102327344D01*
G36*
X128460500Y-98030000D02*
G01*
X128480500Y-98030000D01*
X128480500Y-98284000D01*
X128460500Y-98284000D01*
X128460500Y-99158250D01*
X128619250Y-99317000D01*
X128808500Y-99320072D01*
X128932982Y-99307812D01*
X129052680Y-99271502D01*
X129089845Y-99251636D01*
X129113943Y-99331076D01*
X129167521Y-99431315D01*
X129239626Y-99519174D01*
X129327485Y-99591279D01*
X129427724Y-99644857D01*
X129536488Y-99677850D01*
X129649600Y-99688991D01*
X130019809Y-99688991D01*
X130019809Y-101107530D01*
X130023992Y-101150000D01*
X129577606Y-101150000D01*
X128085000Y-99657395D01*
X128085000Y-99279750D01*
X128206500Y-99158250D01*
X128206500Y-98284000D01*
X128186500Y-98284000D01*
X128186500Y-98030000D01*
X128206500Y-98030000D01*
X128206500Y-98010000D01*
X128460500Y-98010000D01*
X128460500Y-98030000D01*
G37*
X128460500Y-98030000D02*
X128480500Y-98030000D01*
X128480500Y-98284000D01*
X128460500Y-98284000D01*
X128460500Y-99158250D01*
X128619250Y-99317000D01*
X128808500Y-99320072D01*
X128932982Y-99307812D01*
X129052680Y-99271502D01*
X129089845Y-99251636D01*
X129113943Y-99331076D01*
X129167521Y-99431315D01*
X129239626Y-99519174D01*
X129327485Y-99591279D01*
X129427724Y-99644857D01*
X129536488Y-99677850D01*
X129649600Y-99688991D01*
X130019809Y-99688991D01*
X130019809Y-101107530D01*
X130023992Y-101150000D01*
X129577606Y-101150000D01*
X128085000Y-99657395D01*
X128085000Y-99279750D01*
X128206500Y-99158250D01*
X128206500Y-98284000D01*
X128186500Y-98284000D01*
X128186500Y-98030000D01*
X128206500Y-98030000D01*
X128206500Y-98010000D01*
X128460500Y-98010000D01*
X128460500Y-98030000D01*
G36*
X134569809Y-98509200D02*
G01*
X134580950Y-98622312D01*
X134613943Y-98731076D01*
X134628975Y-98759200D01*
X134613943Y-98787324D01*
X134580950Y-98896088D01*
X134569809Y-99009200D01*
X134569809Y-99027739D01*
X134199600Y-99027739D01*
X134086488Y-99038880D01*
X134020334Y-99058948D01*
X133943780Y-99018028D01*
X133824082Y-98981718D01*
X133699600Y-98969458D01*
X133635350Y-98972530D01*
X133476600Y-99131280D01*
X133476600Y-100230530D01*
X133496600Y-100230530D01*
X133496600Y-100484530D01*
X133476600Y-100484530D01*
X133476600Y-100504530D01*
X133222600Y-100504530D01*
X133222600Y-100484530D01*
X133202600Y-100484530D01*
X133202600Y-100230530D01*
X133222600Y-100230530D01*
X133222600Y-99131280D01*
X133070367Y-98979047D01*
X133310944Y-98738470D01*
X133343134Y-98735300D01*
X133343142Y-98735300D01*
X133474553Y-98722357D01*
X133643167Y-98671209D01*
X133798562Y-98588148D01*
X133934767Y-98476367D01*
X133962781Y-98442232D01*
X134551314Y-97853700D01*
X134569809Y-97853700D01*
X134569809Y-98509200D01*
G37*
X134569809Y-98509200D02*
X134580950Y-98622312D01*
X134613943Y-98731076D01*
X134628975Y-98759200D01*
X134613943Y-98787324D01*
X134580950Y-98896088D01*
X134569809Y-99009200D01*
X134569809Y-99027739D01*
X134199600Y-99027739D01*
X134086488Y-99038880D01*
X134020334Y-99058948D01*
X133943780Y-99018028D01*
X133824082Y-98981718D01*
X133699600Y-98969458D01*
X133635350Y-98972530D01*
X133476600Y-99131280D01*
X133476600Y-100230530D01*
X133496600Y-100230530D01*
X133496600Y-100484530D01*
X133476600Y-100484530D01*
X133476600Y-100504530D01*
X133222600Y-100504530D01*
X133222600Y-100484530D01*
X133202600Y-100484530D01*
X133202600Y-100230530D01*
X133222600Y-100230530D01*
X133222600Y-99131280D01*
X133070367Y-98979047D01*
X133310944Y-98738470D01*
X133343134Y-98735300D01*
X133343142Y-98735300D01*
X133474553Y-98722357D01*
X133643167Y-98671209D01*
X133798562Y-98588148D01*
X133934767Y-98476367D01*
X133962781Y-98442232D01*
X134551314Y-97853700D01*
X134569809Y-97853700D01*
X134569809Y-98509200D01*
G36*
X133577724Y-94194857D02*
G01*
X133686488Y-94227850D01*
X133799600Y-94238991D01*
X134499600Y-94238991D01*
X134512890Y-94237682D01*
X134514600Y-94273450D01*
X134673350Y-94432200D01*
X135772600Y-94432200D01*
X135772600Y-94412200D01*
X136026600Y-94412200D01*
X136026600Y-94432200D01*
X136046600Y-94432200D01*
X136046600Y-94686200D01*
X136026600Y-94686200D01*
X136026600Y-94706200D01*
X135772600Y-94706200D01*
X135772600Y-94686200D01*
X134673350Y-94686200D01*
X134514600Y-94844950D01*
X134511528Y-94909200D01*
X134523788Y-95033682D01*
X134560098Y-95153380D01*
X134601018Y-95229934D01*
X134580950Y-95296088D01*
X134569809Y-95409200D01*
X134569809Y-96064700D01*
X134224734Y-96064700D01*
X134180800Y-96060373D01*
X134136865Y-96064700D01*
X133550113Y-96064700D01*
X133243181Y-95757768D01*
X133215167Y-95723633D01*
X133078962Y-95611852D01*
X132923567Y-95528791D01*
X132754953Y-95477643D01*
X132623542Y-95464700D01*
X132623534Y-95464700D01*
X132579600Y-95460373D01*
X132535666Y-95464700D01*
X131729391Y-95464700D01*
X131729391Y-94809200D01*
X131718250Y-94696088D01*
X131685257Y-94587324D01*
X131670225Y-94559200D01*
X131685257Y-94531076D01*
X131718250Y-94422312D01*
X131729391Y-94309200D01*
X131729391Y-94238991D01*
X132099600Y-94238991D01*
X132212712Y-94227850D01*
X132321476Y-94194857D01*
X132349600Y-94179825D01*
X132377724Y-94194857D01*
X132486488Y-94227850D01*
X132599600Y-94238991D01*
X133299600Y-94238991D01*
X133412712Y-94227850D01*
X133521476Y-94194857D01*
X133549600Y-94179825D01*
X133577724Y-94194857D01*
G37*
X133577724Y-94194857D02*
X133686488Y-94227850D01*
X133799600Y-94238991D01*
X134499600Y-94238991D01*
X134512890Y-94237682D01*
X134514600Y-94273450D01*
X134673350Y-94432200D01*
X135772600Y-94432200D01*
X135772600Y-94412200D01*
X136026600Y-94412200D01*
X136026600Y-94432200D01*
X136046600Y-94432200D01*
X136046600Y-94686200D01*
X136026600Y-94686200D01*
X136026600Y-94706200D01*
X135772600Y-94706200D01*
X135772600Y-94686200D01*
X134673350Y-94686200D01*
X134514600Y-94844950D01*
X134511528Y-94909200D01*
X134523788Y-95033682D01*
X134560098Y-95153380D01*
X134601018Y-95229934D01*
X134580950Y-95296088D01*
X134569809Y-95409200D01*
X134569809Y-96064700D01*
X134224734Y-96064700D01*
X134180800Y-96060373D01*
X134136865Y-96064700D01*
X133550113Y-96064700D01*
X133243181Y-95757768D01*
X133215167Y-95723633D01*
X133078962Y-95611852D01*
X132923567Y-95528791D01*
X132754953Y-95477643D01*
X132623542Y-95464700D01*
X132623534Y-95464700D01*
X132579600Y-95460373D01*
X132535666Y-95464700D01*
X131729391Y-95464700D01*
X131729391Y-94809200D01*
X131718250Y-94696088D01*
X131685257Y-94587324D01*
X131670225Y-94559200D01*
X131685257Y-94531076D01*
X131718250Y-94422312D01*
X131729391Y-94309200D01*
X131729391Y-94238991D01*
X132099600Y-94238991D01*
X132212712Y-94227850D01*
X132321476Y-94194857D01*
X132349600Y-94179825D01*
X132377724Y-94194857D01*
X132486488Y-94227850D01*
X132599600Y-94238991D01*
X133299600Y-94238991D01*
X133412712Y-94227850D01*
X133521476Y-94194857D01*
X133549600Y-94179825D01*
X133577724Y-94194857D01*
M02*
