G04 #@! TF.GenerationSoftware,KiCad,Pcbnew,(5.1.6)-1*
G04 #@! TF.CreationDate,2021-04-29T20:17:03-05:00*
G04 #@! TF.ProjectId,BEncoderBoard3(3.2),42456e63-6f64-4657-9242-6f6172643328,rev?*
G04 #@! TF.SameCoordinates,Original*
G04 #@! TF.FileFunction,Soldermask,Bot*
G04 #@! TF.FilePolarity,Negative*
%FSLAX46Y46*%
G04 Gerber Fmt 4.6, Leading zero omitted, Abs format (unit mm)*
G04 Created by KiCad (PCBNEW (5.1.6)-1) date 2021-04-29 20:17:03*
%MOMM*%
%LPD*%
G01*
G04 APERTURE LIST*
%ADD10C,0.100000*%
G04 APERTURE END LIST*
D10*
G36*
X146460210Y-96167070D02*
G01*
X147151947Y-96453597D01*
X147151948Y-96453598D01*
X147774496Y-96869571D01*
X148303929Y-97399004D01*
X148581874Y-97814978D01*
X148719903Y-98021553D01*
X149006430Y-98713290D01*
X149152500Y-99447633D01*
X149152500Y-100196367D01*
X149006430Y-100930710D01*
X148719903Y-101622447D01*
X148719902Y-101622448D01*
X148303929Y-102244996D01*
X147774496Y-102774429D01*
X147358522Y-103052374D01*
X147151947Y-103190403D01*
X146460210Y-103476930D01*
X145725867Y-103623000D01*
X144977133Y-103623000D01*
X144242790Y-103476930D01*
X143551053Y-103190403D01*
X143344478Y-103052374D01*
X142928504Y-102774429D01*
X142399071Y-102244996D01*
X141983098Y-101622448D01*
X141983097Y-101622447D01*
X141696570Y-100930710D01*
X141550500Y-100196367D01*
X141550500Y-99447633D01*
X141696570Y-98713290D01*
X141983097Y-98021553D01*
X142121126Y-97814978D01*
X142399071Y-97399004D01*
X142928504Y-96869571D01*
X143551052Y-96453598D01*
X143551053Y-96453597D01*
X144242790Y-96167070D01*
X144977133Y-96021000D01*
X145725867Y-96021000D01*
X146460210Y-96167070D01*
G37*
G36*
X122647710Y-96167070D02*
G01*
X123339447Y-96453597D01*
X123339448Y-96453598D01*
X123961996Y-96869571D01*
X124491429Y-97399004D01*
X124769374Y-97814978D01*
X124907403Y-98021553D01*
X125193930Y-98713290D01*
X125340000Y-99447633D01*
X125340000Y-100196367D01*
X125193930Y-100930710D01*
X124907403Y-101622447D01*
X124907402Y-101622448D01*
X124491429Y-102244996D01*
X123961996Y-102774429D01*
X123546022Y-103052374D01*
X123339447Y-103190403D01*
X122647710Y-103476930D01*
X121913367Y-103623000D01*
X121164633Y-103623000D01*
X120430290Y-103476930D01*
X119738553Y-103190403D01*
X119531978Y-103052374D01*
X119116004Y-102774429D01*
X118586571Y-102244996D01*
X118170598Y-101622448D01*
X118170597Y-101622447D01*
X117884070Y-100930710D01*
X117738000Y-100196367D01*
X117738000Y-99447633D01*
X117884070Y-98713290D01*
X118170597Y-98021553D01*
X118308626Y-97814978D01*
X118586571Y-97399004D01*
X119116004Y-96869571D01*
X119738552Y-96453598D01*
X119738553Y-96453597D01*
X120430290Y-96167070D01*
X121164633Y-96021000D01*
X121913367Y-96021000D01*
X122647710Y-96167070D01*
G37*
M02*
