M48
;DRILL file {KiCad 5.0.2+dfsg1-1~bpo9+1} date vie 15 feb 2019 20:18:08 CST
;FORMAT={-:-/ absolute / inch / decimal}
FMAT,2
INCH,TZ
T1C0.0354
T2C0.0394
T3C0.0433
T4C0.0472
T5C0.0630
T6C0.0787
T7C0.1260
%
G90
G05
T1
X4.14Y-5.65
X4.2384Y-5.65
X4.3369Y-5.65
T2
X4.4145Y-2.8375
X4.7625Y-4.701
X4.764Y-4.959
X5.1971Y-5.2641
X5.765Y-5.2645
X3.6369Y-4.5547
X3.6369Y-5.1453
X4.5621Y-4.5547
X4.5621Y-5.1453
X3.9295Y-3.3385
X5.0115Y-4.425
X5.0115Y-4.6219
X5.4835Y-5.263
X4.267Y-2.8375
X5.6235Y-5.263
X3.932Y-3.14
X5.013Y-4.8006
X5.013Y-4.9975
X5.3408Y-5.2641
T3
X3.92Y-4.3
X4.585Y-2.874
X4.585Y-2.974
X4.585Y-3.074
X4.02Y-4.3
X4.12Y-4.3
T4
X4.64Y-3.58
X4.64Y-4.18
T5
X3.95Y-5.4
X4.55Y-5.4
X3.69Y-3.6545
X3.69Y-4.2545
X4.39Y-3.59
X4.39Y-4.19
T6
X5.5254Y-3.5206
X5.5254Y-4.7411
X5.8206Y-3.5206
X5.8206Y-4.7411
T7
X3.7Y-2.9
X3.7Y-5.375
X3.7Y-5.625
X4.05Y-2.9
X5.65Y-2.9
X6.Y-2.9
X6.Y-5.375
X6.Y-5.625
T0
M30
