G04 #@! TF.GenerationSoftware,KiCad,Pcbnew,5.0.2+dfsg1-1~bpo9+1*
G04 #@! TF.CreationDate,2019-02-15T20:18:05-06:00*
G04 #@! TF.ProjectId,BatteryBoard,42617474-6572-4794-926f-6172642e6b69,rev?*
G04 #@! TF.SameCoordinates,Original*
G04 #@! TF.FileFunction,Copper,L2,Bot*
G04 #@! TF.FilePolarity,Positive*
%FSLAX46Y46*%
G04 Gerber Fmt 4.6, Leading zero omitted, Abs format (unit mm)*
G04 Created by KiCad (PCBNEW 5.0.2+dfsg1-1~bpo9+1) date vie 15 feb 2019 20:18:05 CST*
%MOMM*%
%LPD*%
G01*
G04 APERTURE LIST*
G04 #@! TA.AperFunction,ComponentPad*
%ADD10R,3.000000X6.000000*%
G04 #@! TD*
G04 #@! TA.AperFunction,ComponentPad*
%ADD11R,4.000000X2.000000*%
G04 #@! TD*
G04 #@! TA.AperFunction,ComponentPad*
%ADD12C,2.000000*%
G04 #@! TD*
G04 #@! TA.AperFunction,ComponentPad*
%ADD13O,3.200000X3.200000*%
G04 #@! TD*
G04 #@! TA.AperFunction,ComponentPad*
%ADD14R,3.200000X3.200000*%
G04 #@! TD*
G04 #@! TA.AperFunction,ComponentPad*
%ADD15R,1.700000X1.700000*%
G04 #@! TD*
G04 #@! TA.AperFunction,ComponentPad*
%ADD16O,1.905000X2.000000*%
G04 #@! TD*
G04 #@! TA.AperFunction,ComponentPad*
%ADD17R,1.905000X2.000000*%
G04 #@! TD*
G04 #@! TA.AperFunction,ComponentPad*
%ADD18O,2.400000X2.400000*%
G04 #@! TD*
G04 #@! TA.AperFunction,ComponentPad*
%ADD19C,2.400000*%
G04 #@! TD*
G04 #@! TA.AperFunction,ComponentPad*
%ADD20O,2.000000X1.905000*%
G04 #@! TD*
G04 #@! TA.AperFunction,ComponentPad*
%ADD21R,2.000000X1.905000*%
G04 #@! TD*
G04 #@! TA.AperFunction,ComponentPad*
%ADD22C,1.900000*%
G04 #@! TD*
G04 #@! TA.AperFunction,ComponentPad*
%ADD23R,1.900000X1.900000*%
G04 #@! TD*
G04 #@! TA.AperFunction,ViaPad*
%ADD24C,3.400000*%
G04 #@! TD*
G04 #@! TA.AperFunction,Conductor*
%ADD25C,0.254000*%
G04 #@! TD*
G04 APERTURE END LIST*
D10*
G04 #@! TO.P,U3,3*
G04 #@! TO.N,+5V*
X147844200Y-89422700D03*
G04 #@! TO.P,U3,4*
G04 #@! TO.N,GND*
X140344200Y-89422700D03*
G04 #@! TO.P,U3,1*
G04 #@! TO.N,Net-(S1-Pad2)*
X147844200Y-120422700D03*
G04 #@! TO.P,U3,2*
G04 #@! TO.N,GND*
X140344200Y-120422700D03*
G04 #@! TD*
D11*
G04 #@! TO.P,U1,2*
G04 #@! TO.N,GND*
X92378000Y-130690000D03*
G04 #@! TO.P,U1,1*
G04 #@! TO.N,VCC*
X92378000Y-115690000D03*
G04 #@! TO.P,U1,6*
G04 #@! TO.N,GND*
X115878000Y-130690000D03*
G04 #@! TO.P,U1,5*
G04 #@! TO.N,Net-(Q1-Pad3)*
X115878000Y-115690000D03*
G04 #@! TD*
D12*
G04 #@! TO.P,C1,1*
G04 #@! TO.N,+5V*
X127292100Y-112395000D03*
G04 #@! TO.P,C1,2*
G04 #@! TO.N,GND*
X127292100Y-117395000D03*
G04 #@! TD*
G04 #@! TO.P,C2,1*
G04 #@! TO.N,+3V3*
X127330200Y-126936500D03*
G04 #@! TO.P,C2,2*
G04 #@! TO.N,GND*
X127330200Y-121936500D03*
G04 #@! TD*
D13*
G04 #@! TO.P,D1,2*
G04 #@! TO.N,VCC*
X111506000Y-91186000D03*
D14*
G04 #@! TO.P,D1,1*
G04 #@! TO.N,Net-(D1-Pad1)*
X111506000Y-106426000D03*
G04 #@! TD*
D15*
G04 #@! TO.P,J1,1*
G04 #@! TO.N,+3V3*
X142836900Y-133680200D03*
G04 #@! TD*
G04 #@! TO.P,J2,1*
G04 #@! TO.N,+3V3*
X139280900Y-133680200D03*
G04 #@! TD*
G04 #@! TO.P,J3,1*
G04 #@! TO.N,+5V*
X146431000Y-133718300D03*
G04 #@! TD*
G04 #@! TO.P,J4,1*
G04 #@! TO.N,GND*
X132005101Y-133709401D03*
G04 #@! TD*
G04 #@! TO.P,J5,1*
G04 #@! TO.N,GND*
X135655101Y-133709401D03*
G04 #@! TD*
D16*
G04 #@! TO.P,Q1,3*
G04 #@! TO.N,Net-(Q1-Pad3)*
X104648000Y-109220000D03*
G04 #@! TO.P,Q1,2*
G04 #@! TO.N,Net-(D1-Pad1)*
X102108000Y-109220000D03*
D17*
G04 #@! TO.P,Q1,1*
G04 #@! TO.N,VCC*
X99568000Y-109220000D03*
G04 #@! TD*
D18*
G04 #@! TO.P,R1,2*
G04 #@! TO.N,GND*
X117856000Y-106172000D03*
D19*
G04 #@! TO.P,R1,1*
G04 #@! TO.N,VCC*
X117856000Y-90932000D03*
G04 #@! TD*
D20*
G04 #@! TO.P,U2,3*
G04 #@! TO.N,+5V*
X116459000Y-78079600D03*
G04 #@! TO.P,U2,2*
G04 #@! TO.N,+3V3*
X116459000Y-75539600D03*
D21*
G04 #@! TO.P,U2,1*
G04 #@! TO.N,GND*
X116459000Y-72999600D03*
G04 #@! TD*
D22*
G04 #@! TO.P,S1,3*
G04 #@! TO.N,GND*
X110156000Y-143510000D03*
G04 #@! TO.P,S1,2*
G04 #@! TO.N,Net-(S1-Pad2)*
X107656000Y-143510000D03*
D23*
G04 #@! TO.P,S1,1*
G04 #@! TO.N,Net-(D1-Pad1)*
X105156000Y-143510000D03*
G04 #@! TD*
D14*
G04 #@! TO.P,D2,1*
G04 #@! TO.N,VCC*
X93726000Y-108064300D03*
D13*
G04 #@! TO.P,D2,2*
G04 #@! TO.N,GND*
X93726000Y-92824300D03*
G04 #@! TD*
G04 #@! TO.P,D3,2*
G04 #@! TO.N,GND*
X115570000Y-137160000D03*
D14*
G04 #@! TO.P,D3,1*
G04 #@! TO.N,Net-(D1-Pad1)*
X100330000Y-137160000D03*
G04 #@! TD*
D15*
G04 #@! TO.P,J6,1*
G04 #@! TO.N,VCC*
X99872800Y-79756000D03*
G04 #@! TD*
G04 #@! TO.P,J7,1*
G04 #@! TO.N,Net-(J10-Pad1)*
X108381800Y-72072500D03*
G04 #@! TD*
G04 #@! TO.P,J8,1*
G04 #@! TO.N,Net-(J10-Pad1)*
X99809300Y-84797900D03*
G04 #@! TD*
G04 #@! TO.P,J9,1*
G04 #@! TO.N,Net-(J11-Pad1)*
X112128300Y-72072500D03*
G04 #@! TD*
G04 #@! TO.P,J10,1*
G04 #@! TO.N,Net-(J10-Pad1)*
X120967500Y-119405400D03*
G04 #@! TD*
G04 #@! TO.P,J11,1*
G04 #@! TO.N,Net-(J11-Pad1)*
X121005600Y-125958600D03*
G04 #@! TD*
D24*
G04 #@! TO.N,*
X152400000Y-142875000D03*
X93980000Y-142875000D03*
X152400000Y-136525000D03*
X93980000Y-136525000D03*
X93980000Y-73660000D03*
X102870000Y-73660000D03*
X143510000Y-73660000D03*
X152400000Y-73660000D03*
G04 #@! TD*
D25*
G04 #@! TO.N,GND*
G36*
X97739200Y-144589500D02*
X97748867Y-144638101D01*
X97776397Y-144679303D01*
X97817599Y-144706833D01*
X97866200Y-144716500D01*
X99136200Y-144716500D01*
X99184801Y-144706833D01*
X99226003Y-144679303D01*
X99253533Y-144638101D01*
X99263200Y-144589500D01*
X99263200Y-142560000D01*
X103558560Y-142560000D01*
X103558560Y-144460000D01*
X103607843Y-144707765D01*
X103748191Y-144917809D01*
X103958235Y-145058157D01*
X104206000Y-145107440D01*
X106106000Y-145107440D01*
X106353765Y-145058157D01*
X106563809Y-144917809D01*
X106667339Y-144762867D01*
X106758170Y-144853698D01*
X107340724Y-145095000D01*
X107971276Y-145095000D01*
X108553830Y-144853698D01*
X108781178Y-144626350D01*
X109219255Y-144626350D01*
X109311792Y-144888019D01*
X109903398Y-145106188D01*
X110533461Y-145081352D01*
X111000208Y-144888019D01*
X111092745Y-144626350D01*
X110156000Y-143689605D01*
X109219255Y-144626350D01*
X108781178Y-144626350D01*
X108981387Y-144426141D01*
X109039650Y-144446745D01*
X109976395Y-143510000D01*
X110335605Y-143510000D01*
X111272350Y-144446745D01*
X111534019Y-144354208D01*
X111752188Y-143762602D01*
X111727352Y-143132539D01*
X111534019Y-142665792D01*
X111272350Y-142573255D01*
X110335605Y-143510000D01*
X109976395Y-143510000D01*
X109039650Y-142573255D01*
X108981387Y-142593859D01*
X108781178Y-142393650D01*
X109219255Y-142393650D01*
X110156000Y-143330395D01*
X111092745Y-142393650D01*
X111000208Y-142131981D01*
X110408602Y-141913812D01*
X109778539Y-141938648D01*
X109311792Y-142131981D01*
X109219255Y-142393650D01*
X108781178Y-142393650D01*
X108553830Y-142166302D01*
X107971276Y-141925000D01*
X107340724Y-141925000D01*
X106758170Y-142166302D01*
X106667339Y-142257133D01*
X106563809Y-142102191D01*
X106353765Y-141961843D01*
X106106000Y-141912560D01*
X104206000Y-141912560D01*
X103958235Y-141961843D01*
X103748191Y-142102191D01*
X103607843Y-142312235D01*
X103558560Y-142560000D01*
X99263200Y-142560000D01*
X99263200Y-139407440D01*
X101930000Y-139407440D01*
X102177765Y-139358157D01*
X102387809Y-139217809D01*
X102528157Y-139007765D01*
X102577440Y-138760000D01*
X102577440Y-137634503D01*
X113385950Y-137634503D01*
X113690114Y-138368836D01*
X114295813Y-138996220D01*
X115095496Y-139344056D01*
X115443000Y-139232645D01*
X115443000Y-137287000D01*
X115697000Y-137287000D01*
X115697000Y-139232645D01*
X116044504Y-139344056D01*
X116844187Y-138996220D01*
X117449886Y-138368836D01*
X117754050Y-137634503D01*
X117642362Y-137287000D01*
X115697000Y-137287000D01*
X115443000Y-137287000D01*
X113497638Y-137287000D01*
X113385950Y-137634503D01*
X102577440Y-137634503D01*
X102577440Y-136685497D01*
X113385950Y-136685497D01*
X113497638Y-137033000D01*
X115443000Y-137033000D01*
X115443000Y-135087355D01*
X115697000Y-135087355D01*
X115697000Y-137033000D01*
X117642362Y-137033000D01*
X117754050Y-136685497D01*
X117449886Y-135951164D01*
X116844187Y-135323780D01*
X116044504Y-134975944D01*
X115697000Y-135087355D01*
X115443000Y-135087355D01*
X115095496Y-134975944D01*
X114295813Y-135323780D01*
X113690114Y-135951164D01*
X113385950Y-136685497D01*
X102577440Y-136685497D01*
X102577440Y-135560000D01*
X102528157Y-135312235D01*
X102387809Y-135102191D01*
X102177765Y-134961843D01*
X101930000Y-134912560D01*
X99263200Y-134912560D01*
X99263200Y-132733091D01*
X130520101Y-132733091D01*
X130520101Y-133423651D01*
X130678851Y-133582401D01*
X131878101Y-133582401D01*
X131878101Y-132383151D01*
X132132101Y-132383151D01*
X132132101Y-133582401D01*
X133331351Y-133582401D01*
X133490101Y-133423651D01*
X133490101Y-132733091D01*
X134170101Y-132733091D01*
X134170101Y-133423651D01*
X134328851Y-133582401D01*
X135528101Y-133582401D01*
X135528101Y-132383151D01*
X135782101Y-132383151D01*
X135782101Y-133582401D01*
X136981351Y-133582401D01*
X137140101Y-133423651D01*
X137140101Y-132733091D01*
X137043428Y-132499702D01*
X136864799Y-132321074D01*
X136631410Y-132224401D01*
X135940851Y-132224401D01*
X135782101Y-132383151D01*
X135528101Y-132383151D01*
X135369351Y-132224401D01*
X134678792Y-132224401D01*
X134445403Y-132321074D01*
X134266774Y-132499702D01*
X134170101Y-132733091D01*
X133490101Y-132733091D01*
X133393428Y-132499702D01*
X133214799Y-132321074D01*
X132981410Y-132224401D01*
X132290851Y-132224401D01*
X132132101Y-132383151D01*
X131878101Y-132383151D01*
X131719351Y-132224401D01*
X131028792Y-132224401D01*
X130795403Y-132321074D01*
X130616774Y-132499702D01*
X130520101Y-132733091D01*
X99263200Y-132733091D01*
X99263200Y-130975750D01*
X113243000Y-130975750D01*
X113243000Y-131816310D01*
X113339673Y-132049699D01*
X113518302Y-132228327D01*
X113751691Y-132325000D01*
X115592250Y-132325000D01*
X115751000Y-132166250D01*
X115751000Y-130817000D01*
X116005000Y-130817000D01*
X116005000Y-132166250D01*
X116163750Y-132325000D01*
X118004309Y-132325000D01*
X118237698Y-132228327D01*
X118416327Y-132049699D01*
X118513000Y-131816310D01*
X118513000Y-130975750D01*
X118354250Y-130817000D01*
X116005000Y-130817000D01*
X115751000Y-130817000D01*
X113401750Y-130817000D01*
X113243000Y-130975750D01*
X99263200Y-130975750D01*
X99263200Y-129563690D01*
X113243000Y-129563690D01*
X113243000Y-130404250D01*
X113401750Y-130563000D01*
X115751000Y-130563000D01*
X115751000Y-129213750D01*
X116005000Y-129213750D01*
X116005000Y-130563000D01*
X118354250Y-130563000D01*
X118513000Y-130404250D01*
X118513000Y-129563690D01*
X118416327Y-129330301D01*
X118237698Y-129151673D01*
X118004309Y-129055000D01*
X116163750Y-129055000D01*
X116005000Y-129213750D01*
X115751000Y-129213750D01*
X115592250Y-129055000D01*
X113751691Y-129055000D01*
X113518302Y-129151673D01*
X113339673Y-129330301D01*
X113243000Y-129563690D01*
X99263200Y-129563690D01*
X99263200Y-125108600D01*
X119508160Y-125108600D01*
X119508160Y-126808600D01*
X119557443Y-127056365D01*
X119697791Y-127266409D01*
X119907835Y-127406757D01*
X120155600Y-127456040D01*
X121855600Y-127456040D01*
X122103365Y-127406757D01*
X122313409Y-127266409D01*
X122453757Y-127056365D01*
X122503040Y-126808600D01*
X122503040Y-126611278D01*
X125695200Y-126611278D01*
X125695200Y-127261722D01*
X125944114Y-127862653D01*
X126404047Y-128322586D01*
X127004978Y-128571500D01*
X127655422Y-128571500D01*
X128256353Y-128322586D01*
X128716286Y-127862653D01*
X128965200Y-127261722D01*
X128965200Y-126611278D01*
X128716286Y-126010347D01*
X128256353Y-125550414D01*
X127655422Y-125301500D01*
X127004978Y-125301500D01*
X126404047Y-125550414D01*
X125944114Y-126010347D01*
X125695200Y-126611278D01*
X122503040Y-126611278D01*
X122503040Y-125108600D01*
X122453757Y-124860835D01*
X122313409Y-124650791D01*
X122103365Y-124510443D01*
X121855600Y-124461160D01*
X120155600Y-124461160D01*
X119907835Y-124510443D01*
X119697791Y-124650791D01*
X119557443Y-124860835D01*
X119508160Y-125108600D01*
X99263200Y-125108600D01*
X99263200Y-123089032D01*
X126357273Y-123089032D01*
X126455936Y-123355887D01*
X127065661Y-123582408D01*
X127715660Y-123558356D01*
X128204464Y-123355887D01*
X128303127Y-123089032D01*
X127330200Y-122116105D01*
X126357273Y-123089032D01*
X99263200Y-123089032D01*
X99263200Y-121671961D01*
X125684292Y-121671961D01*
X125708344Y-122321960D01*
X125910813Y-122810764D01*
X126177668Y-122909427D01*
X127150595Y-121936500D01*
X127509805Y-121936500D01*
X128482732Y-122909427D01*
X128749587Y-122810764D01*
X128976108Y-122201039D01*
X128952056Y-121551040D01*
X128749587Y-121062236D01*
X128482732Y-120963573D01*
X127509805Y-121936500D01*
X127150595Y-121936500D01*
X126177668Y-120963573D01*
X125910813Y-121062236D01*
X125684292Y-121671961D01*
X99263200Y-121671961D01*
X99263200Y-118555400D01*
X119470060Y-118555400D01*
X119470060Y-120255400D01*
X119519343Y-120503165D01*
X119659691Y-120713209D01*
X119869735Y-120853557D01*
X120117500Y-120902840D01*
X121817500Y-120902840D01*
X122065265Y-120853557D01*
X122169411Y-120783968D01*
X126357273Y-120783968D01*
X127330200Y-121756895D01*
X128303127Y-120783968D01*
X128275207Y-120708450D01*
X138209200Y-120708450D01*
X138209200Y-123549009D01*
X138305873Y-123782398D01*
X138484501Y-123961027D01*
X138717890Y-124057700D01*
X140058450Y-124057700D01*
X140217200Y-123898950D01*
X140217200Y-120549700D01*
X140471200Y-120549700D01*
X140471200Y-123898950D01*
X140629950Y-124057700D01*
X141970510Y-124057700D01*
X142203899Y-123961027D01*
X142382527Y-123782398D01*
X142479200Y-123549009D01*
X142479200Y-120708450D01*
X142320450Y-120549700D01*
X140471200Y-120549700D01*
X140217200Y-120549700D01*
X138367950Y-120549700D01*
X138209200Y-120708450D01*
X128275207Y-120708450D01*
X128204464Y-120517113D01*
X127594739Y-120290592D01*
X126944740Y-120314644D01*
X126455936Y-120517113D01*
X126357273Y-120783968D01*
X122169411Y-120783968D01*
X122275309Y-120713209D01*
X122415657Y-120503165D01*
X122464940Y-120255400D01*
X122464940Y-118555400D01*
X122463375Y-118547532D01*
X126319173Y-118547532D01*
X126417836Y-118814387D01*
X127027561Y-119040908D01*
X127677560Y-119016856D01*
X128166364Y-118814387D01*
X128265027Y-118547532D01*
X127292100Y-117574605D01*
X126319173Y-118547532D01*
X122463375Y-118547532D01*
X122415657Y-118307635D01*
X122275309Y-118097591D01*
X122065265Y-117957243D01*
X121817500Y-117907960D01*
X120117500Y-117907960D01*
X119869735Y-117957243D01*
X119659691Y-118097591D01*
X119519343Y-118307635D01*
X119470060Y-118555400D01*
X99263200Y-118555400D01*
X99263200Y-114690000D01*
X113230560Y-114690000D01*
X113230560Y-116690000D01*
X113279843Y-116937765D01*
X113420191Y-117147809D01*
X113630235Y-117288157D01*
X113878000Y-117337440D01*
X117878000Y-117337440D01*
X118125765Y-117288157D01*
X118335809Y-117147809D01*
X118347400Y-117130461D01*
X125646192Y-117130461D01*
X125670244Y-117780460D01*
X125872713Y-118269264D01*
X126139568Y-118367927D01*
X127112495Y-117395000D01*
X127471705Y-117395000D01*
X128444632Y-118367927D01*
X128711487Y-118269264D01*
X128938008Y-117659539D01*
X128924571Y-117296391D01*
X138209200Y-117296391D01*
X138209200Y-120136950D01*
X138367950Y-120295700D01*
X140217200Y-120295700D01*
X140217200Y-116946450D01*
X140471200Y-116946450D01*
X140471200Y-120295700D01*
X142320450Y-120295700D01*
X142479200Y-120136950D01*
X142479200Y-117422700D01*
X145696760Y-117422700D01*
X145696760Y-123422700D01*
X145746043Y-123670465D01*
X145886391Y-123880509D01*
X146096435Y-124020857D01*
X146344200Y-124070140D01*
X149344200Y-124070140D01*
X149591965Y-124020857D01*
X149802009Y-123880509D01*
X149942357Y-123670465D01*
X149991640Y-123422700D01*
X149991640Y-117422700D01*
X149942357Y-117174935D01*
X149802009Y-116964891D01*
X149591965Y-116824543D01*
X149344200Y-116775260D01*
X146344200Y-116775260D01*
X146096435Y-116824543D01*
X145886391Y-116964891D01*
X145746043Y-117174935D01*
X145696760Y-117422700D01*
X142479200Y-117422700D01*
X142479200Y-117296391D01*
X142382527Y-117063002D01*
X142203899Y-116884373D01*
X141970510Y-116787700D01*
X140629950Y-116787700D01*
X140471200Y-116946450D01*
X140217200Y-116946450D01*
X140058450Y-116787700D01*
X138717890Y-116787700D01*
X138484501Y-116884373D01*
X138305873Y-117063002D01*
X138209200Y-117296391D01*
X128924571Y-117296391D01*
X128913956Y-117009540D01*
X128711487Y-116520736D01*
X128444632Y-116422073D01*
X127471705Y-117395000D01*
X127112495Y-117395000D01*
X126139568Y-116422073D01*
X125872713Y-116520736D01*
X125646192Y-117130461D01*
X118347400Y-117130461D01*
X118476157Y-116937765D01*
X118525440Y-116690000D01*
X118525440Y-116242468D01*
X126319173Y-116242468D01*
X127292100Y-117215395D01*
X128265027Y-116242468D01*
X128166364Y-115975613D01*
X127556639Y-115749092D01*
X126906640Y-115773144D01*
X126417836Y-115975613D01*
X126319173Y-116242468D01*
X118525440Y-116242468D01*
X118525440Y-114690000D01*
X118476157Y-114442235D01*
X118335809Y-114232191D01*
X118125765Y-114091843D01*
X117878000Y-114042560D01*
X113878000Y-114042560D01*
X113630235Y-114091843D01*
X113420191Y-114232191D01*
X113279843Y-114442235D01*
X113230560Y-114690000D01*
X99263200Y-114690000D01*
X99263200Y-112069778D01*
X125657100Y-112069778D01*
X125657100Y-112720222D01*
X125906014Y-113321153D01*
X126365947Y-113781086D01*
X126966878Y-114030000D01*
X127617322Y-114030000D01*
X128218253Y-113781086D01*
X128678186Y-113321153D01*
X128927100Y-112720222D01*
X128927100Y-112069778D01*
X128678186Y-111468847D01*
X128218253Y-111008914D01*
X127617322Y-110760000D01*
X126966878Y-110760000D01*
X126365947Y-111008914D01*
X125906014Y-111468847D01*
X125657100Y-112069778D01*
X99263200Y-112069778D01*
X99263200Y-110867440D01*
X100520500Y-110867440D01*
X100768265Y-110818157D01*
X100978309Y-110677809D01*
X101096509Y-110500912D01*
X101488590Y-110762891D01*
X102108000Y-110886100D01*
X102727411Y-110762891D01*
X103252523Y-110412023D01*
X103378000Y-110224233D01*
X103503477Y-110412023D01*
X104028590Y-110762891D01*
X104648000Y-110886100D01*
X105267411Y-110762891D01*
X105792523Y-110412023D01*
X106143391Y-109886910D01*
X106235500Y-109423849D01*
X106235500Y-109016150D01*
X106143391Y-108553089D01*
X105792523Y-108027977D01*
X105267410Y-107677109D01*
X104648000Y-107553900D01*
X104028589Y-107677109D01*
X103503477Y-108027977D01*
X103378000Y-108215767D01*
X103252523Y-108027977D01*
X102727410Y-107677109D01*
X102108000Y-107553900D01*
X101488589Y-107677109D01*
X101096509Y-107939088D01*
X100978309Y-107762191D01*
X100768265Y-107621843D01*
X100520500Y-107572560D01*
X99263200Y-107572560D01*
X99263200Y-104826000D01*
X109258560Y-104826000D01*
X109258560Y-108026000D01*
X109307843Y-108273765D01*
X109448191Y-108483809D01*
X109658235Y-108624157D01*
X109906000Y-108673440D01*
X113106000Y-108673440D01*
X113353765Y-108624157D01*
X113563809Y-108483809D01*
X113704157Y-108273765D01*
X113753440Y-108026000D01*
X113753440Y-106583807D01*
X116067797Y-106583807D01*
X116361508Y-107236776D01*
X116882742Y-107727642D01*
X117444195Y-107960195D01*
X117729000Y-107843432D01*
X117729000Y-106299000D01*
X117983000Y-106299000D01*
X117983000Y-107843432D01*
X118267805Y-107960195D01*
X118829258Y-107727642D01*
X119350492Y-107236776D01*
X119644203Y-106583807D01*
X119527858Y-106299000D01*
X117983000Y-106299000D01*
X117729000Y-106299000D01*
X116184142Y-106299000D01*
X116067797Y-106583807D01*
X113753440Y-106583807D01*
X113753440Y-105760193D01*
X116067797Y-105760193D01*
X116184142Y-106045000D01*
X117729000Y-106045000D01*
X117729000Y-104500568D01*
X117983000Y-104500568D01*
X117983000Y-106045000D01*
X119527858Y-106045000D01*
X119644203Y-105760193D01*
X119350492Y-105107224D01*
X118829258Y-104616358D01*
X118267805Y-104383805D01*
X117983000Y-104500568D01*
X117729000Y-104500568D01*
X117444195Y-104383805D01*
X116882742Y-104616358D01*
X116361508Y-105107224D01*
X116067797Y-105760193D01*
X113753440Y-105760193D01*
X113753440Y-104826000D01*
X113704157Y-104578235D01*
X113563809Y-104368191D01*
X113353765Y-104227843D01*
X113106000Y-104178560D01*
X109906000Y-104178560D01*
X109658235Y-104227843D01*
X109448191Y-104368191D01*
X109307843Y-104578235D01*
X109258560Y-104826000D01*
X99263200Y-104826000D01*
X99263200Y-92560000D01*
X99676276Y-92560000D01*
X99861380Y-93490580D01*
X100388511Y-94279489D01*
X101177420Y-94806620D01*
X101873103Y-94945000D01*
X102342897Y-94945000D01*
X103038580Y-94806620D01*
X103827489Y-94279489D01*
X104354620Y-93490580D01*
X104539724Y-92560000D01*
X104354620Y-91629420D01*
X104058337Y-91186000D01*
X109227214Y-91186000D01*
X109400676Y-92058054D01*
X109894655Y-92797345D01*
X110633946Y-93291324D01*
X111285872Y-93421000D01*
X111726128Y-93421000D01*
X112378054Y-93291324D01*
X113117345Y-92797345D01*
X113611324Y-92058054D01*
X113784786Y-91186000D01*
X113661659Y-90566996D01*
X116021000Y-90566996D01*
X116021000Y-91297004D01*
X116300362Y-91971444D01*
X116816556Y-92487638D01*
X117490996Y-92767000D01*
X118221004Y-92767000D01*
X118895444Y-92487638D01*
X119411638Y-91971444D01*
X119691000Y-91297004D01*
X119691000Y-90566996D01*
X119411638Y-89892556D01*
X119227532Y-89708450D01*
X138209200Y-89708450D01*
X138209200Y-92549009D01*
X138305873Y-92782398D01*
X138484501Y-92961027D01*
X138717890Y-93057700D01*
X140058450Y-93057700D01*
X140217200Y-92898950D01*
X140217200Y-89549700D01*
X140471200Y-89549700D01*
X140471200Y-92898950D01*
X140629950Y-93057700D01*
X141970510Y-93057700D01*
X142203899Y-92961027D01*
X142382527Y-92782398D01*
X142479200Y-92549009D01*
X142479200Y-89708450D01*
X142320450Y-89549700D01*
X140471200Y-89549700D01*
X140217200Y-89549700D01*
X138367950Y-89549700D01*
X138209200Y-89708450D01*
X119227532Y-89708450D01*
X118895444Y-89376362D01*
X118221004Y-89097000D01*
X117490996Y-89097000D01*
X116816556Y-89376362D01*
X116300362Y-89892556D01*
X116021000Y-90566996D01*
X113661659Y-90566996D01*
X113611324Y-90313946D01*
X113117345Y-89574655D01*
X112378054Y-89080676D01*
X111726128Y-88951000D01*
X111285872Y-88951000D01*
X110633946Y-89080676D01*
X109894655Y-89574655D01*
X109400676Y-90313946D01*
X109227214Y-91186000D01*
X104058337Y-91186000D01*
X103827489Y-90840511D01*
X103038580Y-90313380D01*
X102342897Y-90175000D01*
X101873103Y-90175000D01*
X101177420Y-90313380D01*
X100388511Y-90840511D01*
X99861380Y-91629420D01*
X99676276Y-92560000D01*
X99263200Y-92560000D01*
X99263200Y-86296391D01*
X138209200Y-86296391D01*
X138209200Y-89136950D01*
X138367950Y-89295700D01*
X140217200Y-89295700D01*
X140217200Y-85946450D01*
X140471200Y-85946450D01*
X140471200Y-89295700D01*
X142320450Y-89295700D01*
X142479200Y-89136950D01*
X142479200Y-86422700D01*
X145696760Y-86422700D01*
X145696760Y-92422700D01*
X145746043Y-92670465D01*
X145886391Y-92880509D01*
X146096435Y-93020857D01*
X146344200Y-93070140D01*
X149344200Y-93070140D01*
X149591965Y-93020857D01*
X149802009Y-92880509D01*
X149942357Y-92670465D01*
X149991640Y-92422700D01*
X149991640Y-86422700D01*
X149942357Y-86174935D01*
X149802009Y-85964891D01*
X149591965Y-85824543D01*
X149344200Y-85775260D01*
X146344200Y-85775260D01*
X146096435Y-85824543D01*
X145886391Y-85964891D01*
X145746043Y-86174935D01*
X145696760Y-86422700D01*
X142479200Y-86422700D01*
X142479200Y-86296391D01*
X142382527Y-86063002D01*
X142203899Y-85884373D01*
X141970510Y-85787700D01*
X140629950Y-85787700D01*
X140471200Y-85946450D01*
X140217200Y-85946450D01*
X140058450Y-85787700D01*
X138717890Y-85787700D01*
X138484501Y-85884373D01*
X138305873Y-86063002D01*
X138209200Y-86296391D01*
X99263200Y-86296391D01*
X99263200Y-86295340D01*
X100659300Y-86295340D01*
X100907065Y-86246057D01*
X101117109Y-86105709D01*
X101257457Y-85895665D01*
X101306740Y-85647900D01*
X101306740Y-83947900D01*
X101257457Y-83700135D01*
X101117109Y-83490091D01*
X100907065Y-83349743D01*
X100659300Y-83300460D01*
X99263200Y-83300460D01*
X99263200Y-81253440D01*
X100722800Y-81253440D01*
X100970565Y-81204157D01*
X101180609Y-81063809D01*
X101320957Y-80853765D01*
X101370240Y-80606000D01*
X101370240Y-78906000D01*
X101320957Y-78658235D01*
X101180609Y-78448191D01*
X100970565Y-78307843D01*
X100722800Y-78258560D01*
X99263200Y-78258560D01*
X99263200Y-73195540D01*
X100535000Y-73195540D01*
X100535000Y-74124460D01*
X100890483Y-74982671D01*
X101547329Y-75639517D01*
X102405540Y-75995000D01*
X103334460Y-75995000D01*
X104192671Y-75639517D01*
X104292588Y-75539600D01*
X114792900Y-75539600D01*
X114916109Y-76159011D01*
X115266977Y-76684123D01*
X115454767Y-76809600D01*
X115266977Y-76935077D01*
X114916109Y-77460189D01*
X114792900Y-78079600D01*
X114916109Y-78699011D01*
X115266977Y-79224123D01*
X115792089Y-79574991D01*
X116255150Y-79667100D01*
X116662850Y-79667100D01*
X117125911Y-79574991D01*
X117651023Y-79224123D01*
X118001891Y-78699011D01*
X118125100Y-78079600D01*
X118001891Y-77460189D01*
X117651023Y-76935077D01*
X117463233Y-76809600D01*
X117651023Y-76684123D01*
X118001891Y-76159011D01*
X118125100Y-75539600D01*
X130687276Y-75539600D01*
X130872380Y-76470180D01*
X131399511Y-77259089D01*
X132188420Y-77786220D01*
X132884103Y-77924600D01*
X133353897Y-77924600D01*
X134049580Y-77786220D01*
X134838489Y-77259089D01*
X135365620Y-76470180D01*
X135550724Y-75539600D01*
X135365620Y-74609020D01*
X134838489Y-73820111D01*
X134049580Y-73292980D01*
X133559717Y-73195540D01*
X141175000Y-73195540D01*
X141175000Y-74124460D01*
X141530483Y-74982671D01*
X142187329Y-75639517D01*
X143045540Y-75995000D01*
X143974460Y-75995000D01*
X144832671Y-75639517D01*
X145489517Y-74982671D01*
X145845000Y-74124460D01*
X145845000Y-73195540D01*
X150065000Y-73195540D01*
X150065000Y-74124460D01*
X150420483Y-74982671D01*
X151077329Y-75639517D01*
X151935540Y-75995000D01*
X152864460Y-75995000D01*
X153722671Y-75639517D01*
X154379517Y-74982671D01*
X154735000Y-74124460D01*
X154735000Y-73195540D01*
X154379517Y-72337329D01*
X153722671Y-71680483D01*
X152864460Y-71325000D01*
X151935540Y-71325000D01*
X151077329Y-71680483D01*
X150420483Y-72337329D01*
X150065000Y-73195540D01*
X145845000Y-73195540D01*
X145489517Y-72337329D01*
X144832671Y-71680483D01*
X143974460Y-71325000D01*
X143045540Y-71325000D01*
X142187329Y-71680483D01*
X141530483Y-72337329D01*
X141175000Y-73195540D01*
X133559717Y-73195540D01*
X133353897Y-73154600D01*
X132884103Y-73154600D01*
X132188420Y-73292980D01*
X131399511Y-73820111D01*
X130872380Y-74609020D01*
X130687276Y-75539600D01*
X118125100Y-75539600D01*
X118001891Y-74920189D01*
X117737271Y-74524156D01*
X117818699Y-74490427D01*
X117997327Y-74311798D01*
X118094000Y-74078409D01*
X118094000Y-73285350D01*
X117935250Y-73126600D01*
X116586000Y-73126600D01*
X116586000Y-73146600D01*
X116332000Y-73146600D01*
X116332000Y-73126600D01*
X114982750Y-73126600D01*
X114824000Y-73285350D01*
X114824000Y-74078409D01*
X114920673Y-74311798D01*
X115099301Y-74490427D01*
X115180729Y-74524156D01*
X114916109Y-74920189D01*
X114792900Y-75539600D01*
X104292588Y-75539600D01*
X104849517Y-74982671D01*
X105205000Y-74124460D01*
X105205000Y-73195540D01*
X104849517Y-72337329D01*
X104192671Y-71680483D01*
X103334460Y-71325000D01*
X102405540Y-71325000D01*
X101547329Y-71680483D01*
X100890483Y-72337329D01*
X100535000Y-73195540D01*
X99263200Y-73195540D01*
X99263200Y-71222500D01*
X106884360Y-71222500D01*
X106884360Y-72922500D01*
X106933643Y-73170265D01*
X107073991Y-73380309D01*
X107284035Y-73520657D01*
X107531800Y-73569940D01*
X109231800Y-73569940D01*
X109479565Y-73520657D01*
X109689609Y-73380309D01*
X109829957Y-73170265D01*
X109879240Y-72922500D01*
X109879240Y-71222500D01*
X110630860Y-71222500D01*
X110630860Y-72922500D01*
X110680143Y-73170265D01*
X110820491Y-73380309D01*
X111030535Y-73520657D01*
X111278300Y-73569940D01*
X112978300Y-73569940D01*
X113226065Y-73520657D01*
X113436109Y-73380309D01*
X113576457Y-73170265D01*
X113625740Y-72922500D01*
X113625740Y-71920791D01*
X114824000Y-71920791D01*
X114824000Y-72713850D01*
X114982750Y-72872600D01*
X116332000Y-72872600D01*
X116332000Y-71570850D01*
X116586000Y-71570850D01*
X116586000Y-72872600D01*
X117935250Y-72872600D01*
X118094000Y-72713850D01*
X118094000Y-71920791D01*
X117997327Y-71687402D01*
X117818699Y-71508773D01*
X117585310Y-71412100D01*
X116744750Y-71412100D01*
X116586000Y-71570850D01*
X116332000Y-71570850D01*
X116173250Y-71412100D01*
X115332690Y-71412100D01*
X115099301Y-71508773D01*
X114920673Y-71687402D01*
X114824000Y-71920791D01*
X113625740Y-71920791D01*
X113625740Y-71222500D01*
X113576457Y-70974735D01*
X113436109Y-70764691D01*
X113226065Y-70624343D01*
X112978300Y-70575060D01*
X111278300Y-70575060D01*
X111030535Y-70624343D01*
X110820491Y-70764691D01*
X110680143Y-70974735D01*
X110630860Y-71222500D01*
X109879240Y-71222500D01*
X109829957Y-70974735D01*
X109689609Y-70764691D01*
X109479565Y-70624343D01*
X109231800Y-70575060D01*
X107531800Y-70575060D01*
X107284035Y-70624343D01*
X107073991Y-70764691D01*
X106933643Y-70974735D01*
X106884360Y-71222500D01*
X99263200Y-71222500D01*
X99263200Y-70560000D01*
X155500000Y-70560000D01*
X155500001Y-146585000D01*
X149325000Y-146585000D01*
X149325000Y-142410540D01*
X150065000Y-142410540D01*
X150065000Y-143339460D01*
X150420483Y-144197671D01*
X151077329Y-144854517D01*
X151935540Y-145210000D01*
X152864460Y-145210000D01*
X153722671Y-144854517D01*
X154379517Y-144197671D01*
X154735000Y-143339460D01*
X154735000Y-142410540D01*
X154379517Y-141552329D01*
X153722671Y-140895483D01*
X152864460Y-140540000D01*
X151935540Y-140540000D01*
X151077329Y-140895483D01*
X150420483Y-141552329D01*
X150065000Y-142410540D01*
X149325000Y-142410540D01*
X149325000Y-136060540D01*
X150065000Y-136060540D01*
X150065000Y-136989460D01*
X150420483Y-137847671D01*
X151077329Y-138504517D01*
X151935540Y-138860000D01*
X152864460Y-138860000D01*
X153722671Y-138504517D01*
X154379517Y-137847671D01*
X154735000Y-136989460D01*
X154735000Y-136060540D01*
X154379517Y-135202329D01*
X153722671Y-134545483D01*
X152864460Y-134190000D01*
X151935540Y-134190000D01*
X151077329Y-134545483D01*
X150420483Y-135202329D01*
X150065000Y-136060540D01*
X149325000Y-136060540D01*
X149325000Y-135962388D01*
X149339399Y-135890000D01*
X149282354Y-135603217D01*
X149119905Y-135360095D01*
X148876783Y-135197646D01*
X148860469Y-135194401D01*
X148590000Y-135140601D01*
X148517612Y-135155000D01*
X147545911Y-135155000D01*
X147738809Y-135026109D01*
X147879157Y-134816065D01*
X147928440Y-134568300D01*
X147928440Y-132868300D01*
X147879157Y-132620535D01*
X147738809Y-132410491D01*
X147528765Y-132270143D01*
X147281000Y-132220860D01*
X145581000Y-132220860D01*
X145333235Y-132270143D01*
X145123191Y-132410491D01*
X144982843Y-132620535D01*
X144933560Y-132868300D01*
X144933560Y-134568300D01*
X144982843Y-134816065D01*
X145123191Y-135026109D01*
X145316089Y-135155000D01*
X143800720Y-135155000D01*
X143934665Y-135128357D01*
X144144709Y-134988009D01*
X144285057Y-134777965D01*
X144334340Y-134530200D01*
X144334340Y-132830200D01*
X144285057Y-132582435D01*
X144144709Y-132372391D01*
X143934665Y-132232043D01*
X143686900Y-132182760D01*
X141986900Y-132182760D01*
X141739135Y-132232043D01*
X141529091Y-132372391D01*
X141388743Y-132582435D01*
X141339460Y-132830200D01*
X141339460Y-134530200D01*
X141388743Y-134777965D01*
X141529091Y-134988009D01*
X141739135Y-135128357D01*
X141873080Y-135155000D01*
X140244720Y-135155000D01*
X140378665Y-135128357D01*
X140588709Y-134988009D01*
X140729057Y-134777965D01*
X140778340Y-134530200D01*
X140778340Y-132830200D01*
X140729057Y-132582435D01*
X140588709Y-132372391D01*
X140378665Y-132232043D01*
X140130900Y-132182760D01*
X138430900Y-132182760D01*
X138183135Y-132232043D01*
X137973091Y-132372391D01*
X137832743Y-132582435D01*
X137783460Y-132830200D01*
X137783460Y-134530200D01*
X137832743Y-134777965D01*
X137973091Y-134988009D01*
X138183135Y-135128357D01*
X138317080Y-135155000D01*
X136726532Y-135155000D01*
X136864799Y-135097728D01*
X137043428Y-134919100D01*
X137140101Y-134685711D01*
X137140101Y-133995151D01*
X136981351Y-133836401D01*
X135782101Y-133836401D01*
X135782101Y-133856401D01*
X135528101Y-133856401D01*
X135528101Y-133836401D01*
X134328851Y-133836401D01*
X134170101Y-133995151D01*
X134170101Y-134685711D01*
X134266774Y-134919100D01*
X134445403Y-135097728D01*
X134583670Y-135155000D01*
X133076532Y-135155000D01*
X133214799Y-135097728D01*
X133393428Y-134919100D01*
X133490101Y-134685711D01*
X133490101Y-133995151D01*
X133331351Y-133836401D01*
X132132101Y-133836401D01*
X132132101Y-133856401D01*
X131878101Y-133856401D01*
X131878101Y-133836401D01*
X130678851Y-133836401D01*
X130520101Y-133995151D01*
X130520101Y-134685711D01*
X130616774Y-134919100D01*
X130795403Y-135097728D01*
X130933670Y-135155000D01*
X119452388Y-135155000D01*
X119380000Y-135140601D01*
X119109531Y-135194401D01*
X119093217Y-135197646D01*
X118850095Y-135360095D01*
X118687646Y-135603217D01*
X118630601Y-135890000D01*
X118645000Y-135962388D01*
X118645001Y-146585000D01*
X90880000Y-146585000D01*
X90880000Y-142410540D01*
X91645000Y-142410540D01*
X91645000Y-143339460D01*
X92000483Y-144197671D01*
X92657329Y-144854517D01*
X93515540Y-145210000D01*
X94444460Y-145210000D01*
X95302671Y-144854517D01*
X95959517Y-144197671D01*
X96315000Y-143339460D01*
X96315000Y-142410540D01*
X95959517Y-141552329D01*
X95302671Y-140895483D01*
X94444460Y-140540000D01*
X93515540Y-140540000D01*
X92657329Y-140895483D01*
X92000483Y-141552329D01*
X91645000Y-142410540D01*
X90880000Y-142410540D01*
X90880000Y-136060540D01*
X91645000Y-136060540D01*
X91645000Y-136989460D01*
X92000483Y-137847671D01*
X92657329Y-138504517D01*
X93515540Y-138860000D01*
X94444460Y-138860000D01*
X95302671Y-138504517D01*
X95959517Y-137847671D01*
X96315000Y-136989460D01*
X96315000Y-136060540D01*
X95959517Y-135202329D01*
X95302671Y-134545483D01*
X94444460Y-134190000D01*
X93515540Y-134190000D01*
X92657329Y-134545483D01*
X92000483Y-135202329D01*
X91645000Y-136060540D01*
X90880000Y-136060540D01*
X90880000Y-132325000D01*
X92092250Y-132325000D01*
X92251000Y-132166250D01*
X92251000Y-130817000D01*
X92505000Y-130817000D01*
X92505000Y-132166250D01*
X92663750Y-132325000D01*
X94504309Y-132325000D01*
X94737698Y-132228327D01*
X94916327Y-132049699D01*
X95013000Y-131816310D01*
X95013000Y-130975750D01*
X94854250Y-130817000D01*
X92505000Y-130817000D01*
X92251000Y-130817000D01*
X92231000Y-130817000D01*
X92231000Y-130563000D01*
X92251000Y-130563000D01*
X92251000Y-129213750D01*
X92505000Y-129213750D01*
X92505000Y-130563000D01*
X94854250Y-130563000D01*
X95013000Y-130404250D01*
X95013000Y-129563690D01*
X94916327Y-129330301D01*
X94737698Y-129151673D01*
X94504309Y-129055000D01*
X92663750Y-129055000D01*
X92505000Y-129213750D01*
X92251000Y-129213750D01*
X92092250Y-129055000D01*
X90880000Y-129055000D01*
X90880000Y-117337440D01*
X94378000Y-117337440D01*
X94625765Y-117288157D01*
X94835809Y-117147809D01*
X94976157Y-116937765D01*
X95025440Y-116690000D01*
X95025440Y-114690000D01*
X94976157Y-114442235D01*
X94835809Y-114232191D01*
X94625765Y-114091843D01*
X94378000Y-114042560D01*
X90880000Y-114042560D01*
X90880000Y-106464300D01*
X91478560Y-106464300D01*
X91478560Y-109664300D01*
X91527843Y-109912065D01*
X91668191Y-110122109D01*
X91878235Y-110262457D01*
X92126000Y-110311740D01*
X95326000Y-110311740D01*
X95573765Y-110262457D01*
X95783809Y-110122109D01*
X95924157Y-109912065D01*
X95973440Y-109664300D01*
X95973440Y-106464300D01*
X95924157Y-106216535D01*
X95783809Y-106006491D01*
X95573765Y-105866143D01*
X95326000Y-105816860D01*
X92126000Y-105816860D01*
X91878235Y-105866143D01*
X91668191Y-106006491D01*
X91527843Y-106216535D01*
X91478560Y-106464300D01*
X90880000Y-106464300D01*
X90880000Y-93298804D01*
X91541944Y-93298804D01*
X91889780Y-94098487D01*
X92517164Y-94704186D01*
X93251497Y-95008350D01*
X93599000Y-94896662D01*
X93599000Y-92951300D01*
X93853000Y-92951300D01*
X93853000Y-94896662D01*
X94200503Y-95008350D01*
X94934836Y-94704186D01*
X95562220Y-94098487D01*
X95910056Y-93298804D01*
X95798645Y-92951300D01*
X93853000Y-92951300D01*
X93599000Y-92951300D01*
X91653355Y-92951300D01*
X91541944Y-93298804D01*
X90880000Y-93298804D01*
X90880000Y-90710000D01*
X93083102Y-90710000D01*
X92517164Y-90944414D01*
X91889780Y-91550113D01*
X91541944Y-92349796D01*
X91653355Y-92697300D01*
X93599000Y-92697300D01*
X93599000Y-92677300D01*
X93853000Y-92677300D01*
X93853000Y-92697300D01*
X95798645Y-92697300D01*
X95910056Y-92349796D01*
X95562220Y-91550113D01*
X94934836Y-90944414D01*
X94368898Y-90710000D01*
X96348474Y-90710000D01*
X96418400Y-90723909D01*
X96488325Y-90710000D01*
X96488326Y-90710000D01*
X96695428Y-90668805D01*
X96930281Y-90511881D01*
X97087205Y-90277028D01*
X97142309Y-90000000D01*
X97128400Y-89930074D01*
X97128400Y-76816026D01*
X97142309Y-76746100D01*
X97087205Y-76469072D01*
X96930281Y-76234219D01*
X96695428Y-76077295D01*
X96488326Y-76036100D01*
X96418400Y-76022191D01*
X96348475Y-76036100D01*
X90917700Y-76036100D01*
X90917700Y-73195540D01*
X91645000Y-73195540D01*
X91645000Y-74124460D01*
X92000483Y-74982671D01*
X92657329Y-75639517D01*
X93515540Y-75995000D01*
X94444460Y-75995000D01*
X95302671Y-75639517D01*
X95959517Y-74982671D01*
X96315000Y-74124460D01*
X96315000Y-73195540D01*
X95959517Y-72337329D01*
X95302671Y-71680483D01*
X94444460Y-71325000D01*
X93515540Y-71325000D01*
X92657329Y-71680483D01*
X92000483Y-72337329D01*
X91645000Y-73195540D01*
X90917700Y-73195540D01*
X90917700Y-70560000D01*
X97739200Y-70560000D01*
X97739200Y-144589500D01*
X97739200Y-144589500D01*
G37*
X97739200Y-144589500D02*
X97748867Y-144638101D01*
X97776397Y-144679303D01*
X97817599Y-144706833D01*
X97866200Y-144716500D01*
X99136200Y-144716500D01*
X99184801Y-144706833D01*
X99226003Y-144679303D01*
X99253533Y-144638101D01*
X99263200Y-144589500D01*
X99263200Y-142560000D01*
X103558560Y-142560000D01*
X103558560Y-144460000D01*
X103607843Y-144707765D01*
X103748191Y-144917809D01*
X103958235Y-145058157D01*
X104206000Y-145107440D01*
X106106000Y-145107440D01*
X106353765Y-145058157D01*
X106563809Y-144917809D01*
X106667339Y-144762867D01*
X106758170Y-144853698D01*
X107340724Y-145095000D01*
X107971276Y-145095000D01*
X108553830Y-144853698D01*
X108781178Y-144626350D01*
X109219255Y-144626350D01*
X109311792Y-144888019D01*
X109903398Y-145106188D01*
X110533461Y-145081352D01*
X111000208Y-144888019D01*
X111092745Y-144626350D01*
X110156000Y-143689605D01*
X109219255Y-144626350D01*
X108781178Y-144626350D01*
X108981387Y-144426141D01*
X109039650Y-144446745D01*
X109976395Y-143510000D01*
X110335605Y-143510000D01*
X111272350Y-144446745D01*
X111534019Y-144354208D01*
X111752188Y-143762602D01*
X111727352Y-143132539D01*
X111534019Y-142665792D01*
X111272350Y-142573255D01*
X110335605Y-143510000D01*
X109976395Y-143510000D01*
X109039650Y-142573255D01*
X108981387Y-142593859D01*
X108781178Y-142393650D01*
X109219255Y-142393650D01*
X110156000Y-143330395D01*
X111092745Y-142393650D01*
X111000208Y-142131981D01*
X110408602Y-141913812D01*
X109778539Y-141938648D01*
X109311792Y-142131981D01*
X109219255Y-142393650D01*
X108781178Y-142393650D01*
X108553830Y-142166302D01*
X107971276Y-141925000D01*
X107340724Y-141925000D01*
X106758170Y-142166302D01*
X106667339Y-142257133D01*
X106563809Y-142102191D01*
X106353765Y-141961843D01*
X106106000Y-141912560D01*
X104206000Y-141912560D01*
X103958235Y-141961843D01*
X103748191Y-142102191D01*
X103607843Y-142312235D01*
X103558560Y-142560000D01*
X99263200Y-142560000D01*
X99263200Y-139407440D01*
X101930000Y-139407440D01*
X102177765Y-139358157D01*
X102387809Y-139217809D01*
X102528157Y-139007765D01*
X102577440Y-138760000D01*
X102577440Y-137634503D01*
X113385950Y-137634503D01*
X113690114Y-138368836D01*
X114295813Y-138996220D01*
X115095496Y-139344056D01*
X115443000Y-139232645D01*
X115443000Y-137287000D01*
X115697000Y-137287000D01*
X115697000Y-139232645D01*
X116044504Y-139344056D01*
X116844187Y-138996220D01*
X117449886Y-138368836D01*
X117754050Y-137634503D01*
X117642362Y-137287000D01*
X115697000Y-137287000D01*
X115443000Y-137287000D01*
X113497638Y-137287000D01*
X113385950Y-137634503D01*
X102577440Y-137634503D01*
X102577440Y-136685497D01*
X113385950Y-136685497D01*
X113497638Y-137033000D01*
X115443000Y-137033000D01*
X115443000Y-135087355D01*
X115697000Y-135087355D01*
X115697000Y-137033000D01*
X117642362Y-137033000D01*
X117754050Y-136685497D01*
X117449886Y-135951164D01*
X116844187Y-135323780D01*
X116044504Y-134975944D01*
X115697000Y-135087355D01*
X115443000Y-135087355D01*
X115095496Y-134975944D01*
X114295813Y-135323780D01*
X113690114Y-135951164D01*
X113385950Y-136685497D01*
X102577440Y-136685497D01*
X102577440Y-135560000D01*
X102528157Y-135312235D01*
X102387809Y-135102191D01*
X102177765Y-134961843D01*
X101930000Y-134912560D01*
X99263200Y-134912560D01*
X99263200Y-132733091D01*
X130520101Y-132733091D01*
X130520101Y-133423651D01*
X130678851Y-133582401D01*
X131878101Y-133582401D01*
X131878101Y-132383151D01*
X132132101Y-132383151D01*
X132132101Y-133582401D01*
X133331351Y-133582401D01*
X133490101Y-133423651D01*
X133490101Y-132733091D01*
X134170101Y-132733091D01*
X134170101Y-133423651D01*
X134328851Y-133582401D01*
X135528101Y-133582401D01*
X135528101Y-132383151D01*
X135782101Y-132383151D01*
X135782101Y-133582401D01*
X136981351Y-133582401D01*
X137140101Y-133423651D01*
X137140101Y-132733091D01*
X137043428Y-132499702D01*
X136864799Y-132321074D01*
X136631410Y-132224401D01*
X135940851Y-132224401D01*
X135782101Y-132383151D01*
X135528101Y-132383151D01*
X135369351Y-132224401D01*
X134678792Y-132224401D01*
X134445403Y-132321074D01*
X134266774Y-132499702D01*
X134170101Y-132733091D01*
X133490101Y-132733091D01*
X133393428Y-132499702D01*
X133214799Y-132321074D01*
X132981410Y-132224401D01*
X132290851Y-132224401D01*
X132132101Y-132383151D01*
X131878101Y-132383151D01*
X131719351Y-132224401D01*
X131028792Y-132224401D01*
X130795403Y-132321074D01*
X130616774Y-132499702D01*
X130520101Y-132733091D01*
X99263200Y-132733091D01*
X99263200Y-130975750D01*
X113243000Y-130975750D01*
X113243000Y-131816310D01*
X113339673Y-132049699D01*
X113518302Y-132228327D01*
X113751691Y-132325000D01*
X115592250Y-132325000D01*
X115751000Y-132166250D01*
X115751000Y-130817000D01*
X116005000Y-130817000D01*
X116005000Y-132166250D01*
X116163750Y-132325000D01*
X118004309Y-132325000D01*
X118237698Y-132228327D01*
X118416327Y-132049699D01*
X118513000Y-131816310D01*
X118513000Y-130975750D01*
X118354250Y-130817000D01*
X116005000Y-130817000D01*
X115751000Y-130817000D01*
X113401750Y-130817000D01*
X113243000Y-130975750D01*
X99263200Y-130975750D01*
X99263200Y-129563690D01*
X113243000Y-129563690D01*
X113243000Y-130404250D01*
X113401750Y-130563000D01*
X115751000Y-130563000D01*
X115751000Y-129213750D01*
X116005000Y-129213750D01*
X116005000Y-130563000D01*
X118354250Y-130563000D01*
X118513000Y-130404250D01*
X118513000Y-129563690D01*
X118416327Y-129330301D01*
X118237698Y-129151673D01*
X118004309Y-129055000D01*
X116163750Y-129055000D01*
X116005000Y-129213750D01*
X115751000Y-129213750D01*
X115592250Y-129055000D01*
X113751691Y-129055000D01*
X113518302Y-129151673D01*
X113339673Y-129330301D01*
X113243000Y-129563690D01*
X99263200Y-129563690D01*
X99263200Y-125108600D01*
X119508160Y-125108600D01*
X119508160Y-126808600D01*
X119557443Y-127056365D01*
X119697791Y-127266409D01*
X119907835Y-127406757D01*
X120155600Y-127456040D01*
X121855600Y-127456040D01*
X122103365Y-127406757D01*
X122313409Y-127266409D01*
X122453757Y-127056365D01*
X122503040Y-126808600D01*
X122503040Y-126611278D01*
X125695200Y-126611278D01*
X125695200Y-127261722D01*
X125944114Y-127862653D01*
X126404047Y-128322586D01*
X127004978Y-128571500D01*
X127655422Y-128571500D01*
X128256353Y-128322586D01*
X128716286Y-127862653D01*
X128965200Y-127261722D01*
X128965200Y-126611278D01*
X128716286Y-126010347D01*
X128256353Y-125550414D01*
X127655422Y-125301500D01*
X127004978Y-125301500D01*
X126404047Y-125550414D01*
X125944114Y-126010347D01*
X125695200Y-126611278D01*
X122503040Y-126611278D01*
X122503040Y-125108600D01*
X122453757Y-124860835D01*
X122313409Y-124650791D01*
X122103365Y-124510443D01*
X121855600Y-124461160D01*
X120155600Y-124461160D01*
X119907835Y-124510443D01*
X119697791Y-124650791D01*
X119557443Y-124860835D01*
X119508160Y-125108600D01*
X99263200Y-125108600D01*
X99263200Y-123089032D01*
X126357273Y-123089032D01*
X126455936Y-123355887D01*
X127065661Y-123582408D01*
X127715660Y-123558356D01*
X128204464Y-123355887D01*
X128303127Y-123089032D01*
X127330200Y-122116105D01*
X126357273Y-123089032D01*
X99263200Y-123089032D01*
X99263200Y-121671961D01*
X125684292Y-121671961D01*
X125708344Y-122321960D01*
X125910813Y-122810764D01*
X126177668Y-122909427D01*
X127150595Y-121936500D01*
X127509805Y-121936500D01*
X128482732Y-122909427D01*
X128749587Y-122810764D01*
X128976108Y-122201039D01*
X128952056Y-121551040D01*
X128749587Y-121062236D01*
X128482732Y-120963573D01*
X127509805Y-121936500D01*
X127150595Y-121936500D01*
X126177668Y-120963573D01*
X125910813Y-121062236D01*
X125684292Y-121671961D01*
X99263200Y-121671961D01*
X99263200Y-118555400D01*
X119470060Y-118555400D01*
X119470060Y-120255400D01*
X119519343Y-120503165D01*
X119659691Y-120713209D01*
X119869735Y-120853557D01*
X120117500Y-120902840D01*
X121817500Y-120902840D01*
X122065265Y-120853557D01*
X122169411Y-120783968D01*
X126357273Y-120783968D01*
X127330200Y-121756895D01*
X128303127Y-120783968D01*
X128275207Y-120708450D01*
X138209200Y-120708450D01*
X138209200Y-123549009D01*
X138305873Y-123782398D01*
X138484501Y-123961027D01*
X138717890Y-124057700D01*
X140058450Y-124057700D01*
X140217200Y-123898950D01*
X140217200Y-120549700D01*
X140471200Y-120549700D01*
X140471200Y-123898950D01*
X140629950Y-124057700D01*
X141970510Y-124057700D01*
X142203899Y-123961027D01*
X142382527Y-123782398D01*
X142479200Y-123549009D01*
X142479200Y-120708450D01*
X142320450Y-120549700D01*
X140471200Y-120549700D01*
X140217200Y-120549700D01*
X138367950Y-120549700D01*
X138209200Y-120708450D01*
X128275207Y-120708450D01*
X128204464Y-120517113D01*
X127594739Y-120290592D01*
X126944740Y-120314644D01*
X126455936Y-120517113D01*
X126357273Y-120783968D01*
X122169411Y-120783968D01*
X122275309Y-120713209D01*
X122415657Y-120503165D01*
X122464940Y-120255400D01*
X122464940Y-118555400D01*
X122463375Y-118547532D01*
X126319173Y-118547532D01*
X126417836Y-118814387D01*
X127027561Y-119040908D01*
X127677560Y-119016856D01*
X128166364Y-118814387D01*
X128265027Y-118547532D01*
X127292100Y-117574605D01*
X126319173Y-118547532D01*
X122463375Y-118547532D01*
X122415657Y-118307635D01*
X122275309Y-118097591D01*
X122065265Y-117957243D01*
X121817500Y-117907960D01*
X120117500Y-117907960D01*
X119869735Y-117957243D01*
X119659691Y-118097591D01*
X119519343Y-118307635D01*
X119470060Y-118555400D01*
X99263200Y-118555400D01*
X99263200Y-114690000D01*
X113230560Y-114690000D01*
X113230560Y-116690000D01*
X113279843Y-116937765D01*
X113420191Y-117147809D01*
X113630235Y-117288157D01*
X113878000Y-117337440D01*
X117878000Y-117337440D01*
X118125765Y-117288157D01*
X118335809Y-117147809D01*
X118347400Y-117130461D01*
X125646192Y-117130461D01*
X125670244Y-117780460D01*
X125872713Y-118269264D01*
X126139568Y-118367927D01*
X127112495Y-117395000D01*
X127471705Y-117395000D01*
X128444632Y-118367927D01*
X128711487Y-118269264D01*
X128938008Y-117659539D01*
X128924571Y-117296391D01*
X138209200Y-117296391D01*
X138209200Y-120136950D01*
X138367950Y-120295700D01*
X140217200Y-120295700D01*
X140217200Y-116946450D01*
X140471200Y-116946450D01*
X140471200Y-120295700D01*
X142320450Y-120295700D01*
X142479200Y-120136950D01*
X142479200Y-117422700D01*
X145696760Y-117422700D01*
X145696760Y-123422700D01*
X145746043Y-123670465D01*
X145886391Y-123880509D01*
X146096435Y-124020857D01*
X146344200Y-124070140D01*
X149344200Y-124070140D01*
X149591965Y-124020857D01*
X149802009Y-123880509D01*
X149942357Y-123670465D01*
X149991640Y-123422700D01*
X149991640Y-117422700D01*
X149942357Y-117174935D01*
X149802009Y-116964891D01*
X149591965Y-116824543D01*
X149344200Y-116775260D01*
X146344200Y-116775260D01*
X146096435Y-116824543D01*
X145886391Y-116964891D01*
X145746043Y-117174935D01*
X145696760Y-117422700D01*
X142479200Y-117422700D01*
X142479200Y-117296391D01*
X142382527Y-117063002D01*
X142203899Y-116884373D01*
X141970510Y-116787700D01*
X140629950Y-116787700D01*
X140471200Y-116946450D01*
X140217200Y-116946450D01*
X140058450Y-116787700D01*
X138717890Y-116787700D01*
X138484501Y-116884373D01*
X138305873Y-117063002D01*
X138209200Y-117296391D01*
X128924571Y-117296391D01*
X128913956Y-117009540D01*
X128711487Y-116520736D01*
X128444632Y-116422073D01*
X127471705Y-117395000D01*
X127112495Y-117395000D01*
X126139568Y-116422073D01*
X125872713Y-116520736D01*
X125646192Y-117130461D01*
X118347400Y-117130461D01*
X118476157Y-116937765D01*
X118525440Y-116690000D01*
X118525440Y-116242468D01*
X126319173Y-116242468D01*
X127292100Y-117215395D01*
X128265027Y-116242468D01*
X128166364Y-115975613D01*
X127556639Y-115749092D01*
X126906640Y-115773144D01*
X126417836Y-115975613D01*
X126319173Y-116242468D01*
X118525440Y-116242468D01*
X118525440Y-114690000D01*
X118476157Y-114442235D01*
X118335809Y-114232191D01*
X118125765Y-114091843D01*
X117878000Y-114042560D01*
X113878000Y-114042560D01*
X113630235Y-114091843D01*
X113420191Y-114232191D01*
X113279843Y-114442235D01*
X113230560Y-114690000D01*
X99263200Y-114690000D01*
X99263200Y-112069778D01*
X125657100Y-112069778D01*
X125657100Y-112720222D01*
X125906014Y-113321153D01*
X126365947Y-113781086D01*
X126966878Y-114030000D01*
X127617322Y-114030000D01*
X128218253Y-113781086D01*
X128678186Y-113321153D01*
X128927100Y-112720222D01*
X128927100Y-112069778D01*
X128678186Y-111468847D01*
X128218253Y-111008914D01*
X127617322Y-110760000D01*
X126966878Y-110760000D01*
X126365947Y-111008914D01*
X125906014Y-111468847D01*
X125657100Y-112069778D01*
X99263200Y-112069778D01*
X99263200Y-110867440D01*
X100520500Y-110867440D01*
X100768265Y-110818157D01*
X100978309Y-110677809D01*
X101096509Y-110500912D01*
X101488590Y-110762891D01*
X102108000Y-110886100D01*
X102727411Y-110762891D01*
X103252523Y-110412023D01*
X103378000Y-110224233D01*
X103503477Y-110412023D01*
X104028590Y-110762891D01*
X104648000Y-110886100D01*
X105267411Y-110762891D01*
X105792523Y-110412023D01*
X106143391Y-109886910D01*
X106235500Y-109423849D01*
X106235500Y-109016150D01*
X106143391Y-108553089D01*
X105792523Y-108027977D01*
X105267410Y-107677109D01*
X104648000Y-107553900D01*
X104028589Y-107677109D01*
X103503477Y-108027977D01*
X103378000Y-108215767D01*
X103252523Y-108027977D01*
X102727410Y-107677109D01*
X102108000Y-107553900D01*
X101488589Y-107677109D01*
X101096509Y-107939088D01*
X100978309Y-107762191D01*
X100768265Y-107621843D01*
X100520500Y-107572560D01*
X99263200Y-107572560D01*
X99263200Y-104826000D01*
X109258560Y-104826000D01*
X109258560Y-108026000D01*
X109307843Y-108273765D01*
X109448191Y-108483809D01*
X109658235Y-108624157D01*
X109906000Y-108673440D01*
X113106000Y-108673440D01*
X113353765Y-108624157D01*
X113563809Y-108483809D01*
X113704157Y-108273765D01*
X113753440Y-108026000D01*
X113753440Y-106583807D01*
X116067797Y-106583807D01*
X116361508Y-107236776D01*
X116882742Y-107727642D01*
X117444195Y-107960195D01*
X117729000Y-107843432D01*
X117729000Y-106299000D01*
X117983000Y-106299000D01*
X117983000Y-107843432D01*
X118267805Y-107960195D01*
X118829258Y-107727642D01*
X119350492Y-107236776D01*
X119644203Y-106583807D01*
X119527858Y-106299000D01*
X117983000Y-106299000D01*
X117729000Y-106299000D01*
X116184142Y-106299000D01*
X116067797Y-106583807D01*
X113753440Y-106583807D01*
X113753440Y-105760193D01*
X116067797Y-105760193D01*
X116184142Y-106045000D01*
X117729000Y-106045000D01*
X117729000Y-104500568D01*
X117983000Y-104500568D01*
X117983000Y-106045000D01*
X119527858Y-106045000D01*
X119644203Y-105760193D01*
X119350492Y-105107224D01*
X118829258Y-104616358D01*
X118267805Y-104383805D01*
X117983000Y-104500568D01*
X117729000Y-104500568D01*
X117444195Y-104383805D01*
X116882742Y-104616358D01*
X116361508Y-105107224D01*
X116067797Y-105760193D01*
X113753440Y-105760193D01*
X113753440Y-104826000D01*
X113704157Y-104578235D01*
X113563809Y-104368191D01*
X113353765Y-104227843D01*
X113106000Y-104178560D01*
X109906000Y-104178560D01*
X109658235Y-104227843D01*
X109448191Y-104368191D01*
X109307843Y-104578235D01*
X109258560Y-104826000D01*
X99263200Y-104826000D01*
X99263200Y-92560000D01*
X99676276Y-92560000D01*
X99861380Y-93490580D01*
X100388511Y-94279489D01*
X101177420Y-94806620D01*
X101873103Y-94945000D01*
X102342897Y-94945000D01*
X103038580Y-94806620D01*
X103827489Y-94279489D01*
X104354620Y-93490580D01*
X104539724Y-92560000D01*
X104354620Y-91629420D01*
X104058337Y-91186000D01*
X109227214Y-91186000D01*
X109400676Y-92058054D01*
X109894655Y-92797345D01*
X110633946Y-93291324D01*
X111285872Y-93421000D01*
X111726128Y-93421000D01*
X112378054Y-93291324D01*
X113117345Y-92797345D01*
X113611324Y-92058054D01*
X113784786Y-91186000D01*
X113661659Y-90566996D01*
X116021000Y-90566996D01*
X116021000Y-91297004D01*
X116300362Y-91971444D01*
X116816556Y-92487638D01*
X117490996Y-92767000D01*
X118221004Y-92767000D01*
X118895444Y-92487638D01*
X119411638Y-91971444D01*
X119691000Y-91297004D01*
X119691000Y-90566996D01*
X119411638Y-89892556D01*
X119227532Y-89708450D01*
X138209200Y-89708450D01*
X138209200Y-92549009D01*
X138305873Y-92782398D01*
X138484501Y-92961027D01*
X138717890Y-93057700D01*
X140058450Y-93057700D01*
X140217200Y-92898950D01*
X140217200Y-89549700D01*
X140471200Y-89549700D01*
X140471200Y-92898950D01*
X140629950Y-93057700D01*
X141970510Y-93057700D01*
X142203899Y-92961027D01*
X142382527Y-92782398D01*
X142479200Y-92549009D01*
X142479200Y-89708450D01*
X142320450Y-89549700D01*
X140471200Y-89549700D01*
X140217200Y-89549700D01*
X138367950Y-89549700D01*
X138209200Y-89708450D01*
X119227532Y-89708450D01*
X118895444Y-89376362D01*
X118221004Y-89097000D01*
X117490996Y-89097000D01*
X116816556Y-89376362D01*
X116300362Y-89892556D01*
X116021000Y-90566996D01*
X113661659Y-90566996D01*
X113611324Y-90313946D01*
X113117345Y-89574655D01*
X112378054Y-89080676D01*
X111726128Y-88951000D01*
X111285872Y-88951000D01*
X110633946Y-89080676D01*
X109894655Y-89574655D01*
X109400676Y-90313946D01*
X109227214Y-91186000D01*
X104058337Y-91186000D01*
X103827489Y-90840511D01*
X103038580Y-90313380D01*
X102342897Y-90175000D01*
X101873103Y-90175000D01*
X101177420Y-90313380D01*
X100388511Y-90840511D01*
X99861380Y-91629420D01*
X99676276Y-92560000D01*
X99263200Y-92560000D01*
X99263200Y-86296391D01*
X138209200Y-86296391D01*
X138209200Y-89136950D01*
X138367950Y-89295700D01*
X140217200Y-89295700D01*
X140217200Y-85946450D01*
X140471200Y-85946450D01*
X140471200Y-89295700D01*
X142320450Y-89295700D01*
X142479200Y-89136950D01*
X142479200Y-86422700D01*
X145696760Y-86422700D01*
X145696760Y-92422700D01*
X145746043Y-92670465D01*
X145886391Y-92880509D01*
X146096435Y-93020857D01*
X146344200Y-93070140D01*
X149344200Y-93070140D01*
X149591965Y-93020857D01*
X149802009Y-92880509D01*
X149942357Y-92670465D01*
X149991640Y-92422700D01*
X149991640Y-86422700D01*
X149942357Y-86174935D01*
X149802009Y-85964891D01*
X149591965Y-85824543D01*
X149344200Y-85775260D01*
X146344200Y-85775260D01*
X146096435Y-85824543D01*
X145886391Y-85964891D01*
X145746043Y-86174935D01*
X145696760Y-86422700D01*
X142479200Y-86422700D01*
X142479200Y-86296391D01*
X142382527Y-86063002D01*
X142203899Y-85884373D01*
X141970510Y-85787700D01*
X140629950Y-85787700D01*
X140471200Y-85946450D01*
X140217200Y-85946450D01*
X140058450Y-85787700D01*
X138717890Y-85787700D01*
X138484501Y-85884373D01*
X138305873Y-86063002D01*
X138209200Y-86296391D01*
X99263200Y-86296391D01*
X99263200Y-86295340D01*
X100659300Y-86295340D01*
X100907065Y-86246057D01*
X101117109Y-86105709D01*
X101257457Y-85895665D01*
X101306740Y-85647900D01*
X101306740Y-83947900D01*
X101257457Y-83700135D01*
X101117109Y-83490091D01*
X100907065Y-83349743D01*
X100659300Y-83300460D01*
X99263200Y-83300460D01*
X99263200Y-81253440D01*
X100722800Y-81253440D01*
X100970565Y-81204157D01*
X101180609Y-81063809D01*
X101320957Y-80853765D01*
X101370240Y-80606000D01*
X101370240Y-78906000D01*
X101320957Y-78658235D01*
X101180609Y-78448191D01*
X100970565Y-78307843D01*
X100722800Y-78258560D01*
X99263200Y-78258560D01*
X99263200Y-73195540D01*
X100535000Y-73195540D01*
X100535000Y-74124460D01*
X100890483Y-74982671D01*
X101547329Y-75639517D01*
X102405540Y-75995000D01*
X103334460Y-75995000D01*
X104192671Y-75639517D01*
X104292588Y-75539600D01*
X114792900Y-75539600D01*
X114916109Y-76159011D01*
X115266977Y-76684123D01*
X115454767Y-76809600D01*
X115266977Y-76935077D01*
X114916109Y-77460189D01*
X114792900Y-78079600D01*
X114916109Y-78699011D01*
X115266977Y-79224123D01*
X115792089Y-79574991D01*
X116255150Y-79667100D01*
X116662850Y-79667100D01*
X117125911Y-79574991D01*
X117651023Y-79224123D01*
X118001891Y-78699011D01*
X118125100Y-78079600D01*
X118001891Y-77460189D01*
X117651023Y-76935077D01*
X117463233Y-76809600D01*
X117651023Y-76684123D01*
X118001891Y-76159011D01*
X118125100Y-75539600D01*
X130687276Y-75539600D01*
X130872380Y-76470180D01*
X131399511Y-77259089D01*
X132188420Y-77786220D01*
X132884103Y-77924600D01*
X133353897Y-77924600D01*
X134049580Y-77786220D01*
X134838489Y-77259089D01*
X135365620Y-76470180D01*
X135550724Y-75539600D01*
X135365620Y-74609020D01*
X134838489Y-73820111D01*
X134049580Y-73292980D01*
X133559717Y-73195540D01*
X141175000Y-73195540D01*
X141175000Y-74124460D01*
X141530483Y-74982671D01*
X142187329Y-75639517D01*
X143045540Y-75995000D01*
X143974460Y-75995000D01*
X144832671Y-75639517D01*
X145489517Y-74982671D01*
X145845000Y-74124460D01*
X145845000Y-73195540D01*
X150065000Y-73195540D01*
X150065000Y-74124460D01*
X150420483Y-74982671D01*
X151077329Y-75639517D01*
X151935540Y-75995000D01*
X152864460Y-75995000D01*
X153722671Y-75639517D01*
X154379517Y-74982671D01*
X154735000Y-74124460D01*
X154735000Y-73195540D01*
X154379517Y-72337329D01*
X153722671Y-71680483D01*
X152864460Y-71325000D01*
X151935540Y-71325000D01*
X151077329Y-71680483D01*
X150420483Y-72337329D01*
X150065000Y-73195540D01*
X145845000Y-73195540D01*
X145489517Y-72337329D01*
X144832671Y-71680483D01*
X143974460Y-71325000D01*
X143045540Y-71325000D01*
X142187329Y-71680483D01*
X141530483Y-72337329D01*
X141175000Y-73195540D01*
X133559717Y-73195540D01*
X133353897Y-73154600D01*
X132884103Y-73154600D01*
X132188420Y-73292980D01*
X131399511Y-73820111D01*
X130872380Y-74609020D01*
X130687276Y-75539600D01*
X118125100Y-75539600D01*
X118001891Y-74920189D01*
X117737271Y-74524156D01*
X117818699Y-74490427D01*
X117997327Y-74311798D01*
X118094000Y-74078409D01*
X118094000Y-73285350D01*
X117935250Y-73126600D01*
X116586000Y-73126600D01*
X116586000Y-73146600D01*
X116332000Y-73146600D01*
X116332000Y-73126600D01*
X114982750Y-73126600D01*
X114824000Y-73285350D01*
X114824000Y-74078409D01*
X114920673Y-74311798D01*
X115099301Y-74490427D01*
X115180729Y-74524156D01*
X114916109Y-74920189D01*
X114792900Y-75539600D01*
X104292588Y-75539600D01*
X104849517Y-74982671D01*
X105205000Y-74124460D01*
X105205000Y-73195540D01*
X104849517Y-72337329D01*
X104192671Y-71680483D01*
X103334460Y-71325000D01*
X102405540Y-71325000D01*
X101547329Y-71680483D01*
X100890483Y-72337329D01*
X100535000Y-73195540D01*
X99263200Y-73195540D01*
X99263200Y-71222500D01*
X106884360Y-71222500D01*
X106884360Y-72922500D01*
X106933643Y-73170265D01*
X107073991Y-73380309D01*
X107284035Y-73520657D01*
X107531800Y-73569940D01*
X109231800Y-73569940D01*
X109479565Y-73520657D01*
X109689609Y-73380309D01*
X109829957Y-73170265D01*
X109879240Y-72922500D01*
X109879240Y-71222500D01*
X110630860Y-71222500D01*
X110630860Y-72922500D01*
X110680143Y-73170265D01*
X110820491Y-73380309D01*
X111030535Y-73520657D01*
X111278300Y-73569940D01*
X112978300Y-73569940D01*
X113226065Y-73520657D01*
X113436109Y-73380309D01*
X113576457Y-73170265D01*
X113625740Y-72922500D01*
X113625740Y-71920791D01*
X114824000Y-71920791D01*
X114824000Y-72713850D01*
X114982750Y-72872600D01*
X116332000Y-72872600D01*
X116332000Y-71570850D01*
X116586000Y-71570850D01*
X116586000Y-72872600D01*
X117935250Y-72872600D01*
X118094000Y-72713850D01*
X118094000Y-71920791D01*
X117997327Y-71687402D01*
X117818699Y-71508773D01*
X117585310Y-71412100D01*
X116744750Y-71412100D01*
X116586000Y-71570850D01*
X116332000Y-71570850D01*
X116173250Y-71412100D01*
X115332690Y-71412100D01*
X115099301Y-71508773D01*
X114920673Y-71687402D01*
X114824000Y-71920791D01*
X113625740Y-71920791D01*
X113625740Y-71222500D01*
X113576457Y-70974735D01*
X113436109Y-70764691D01*
X113226065Y-70624343D01*
X112978300Y-70575060D01*
X111278300Y-70575060D01*
X111030535Y-70624343D01*
X110820491Y-70764691D01*
X110680143Y-70974735D01*
X110630860Y-71222500D01*
X109879240Y-71222500D01*
X109829957Y-70974735D01*
X109689609Y-70764691D01*
X109479565Y-70624343D01*
X109231800Y-70575060D01*
X107531800Y-70575060D01*
X107284035Y-70624343D01*
X107073991Y-70764691D01*
X106933643Y-70974735D01*
X106884360Y-71222500D01*
X99263200Y-71222500D01*
X99263200Y-70560000D01*
X155500000Y-70560000D01*
X155500001Y-146585000D01*
X149325000Y-146585000D01*
X149325000Y-142410540D01*
X150065000Y-142410540D01*
X150065000Y-143339460D01*
X150420483Y-144197671D01*
X151077329Y-144854517D01*
X151935540Y-145210000D01*
X152864460Y-145210000D01*
X153722671Y-144854517D01*
X154379517Y-144197671D01*
X154735000Y-143339460D01*
X154735000Y-142410540D01*
X154379517Y-141552329D01*
X153722671Y-140895483D01*
X152864460Y-140540000D01*
X151935540Y-140540000D01*
X151077329Y-140895483D01*
X150420483Y-141552329D01*
X150065000Y-142410540D01*
X149325000Y-142410540D01*
X149325000Y-136060540D01*
X150065000Y-136060540D01*
X150065000Y-136989460D01*
X150420483Y-137847671D01*
X151077329Y-138504517D01*
X151935540Y-138860000D01*
X152864460Y-138860000D01*
X153722671Y-138504517D01*
X154379517Y-137847671D01*
X154735000Y-136989460D01*
X154735000Y-136060540D01*
X154379517Y-135202329D01*
X153722671Y-134545483D01*
X152864460Y-134190000D01*
X151935540Y-134190000D01*
X151077329Y-134545483D01*
X150420483Y-135202329D01*
X150065000Y-136060540D01*
X149325000Y-136060540D01*
X149325000Y-135962388D01*
X149339399Y-135890000D01*
X149282354Y-135603217D01*
X149119905Y-135360095D01*
X148876783Y-135197646D01*
X148860469Y-135194401D01*
X148590000Y-135140601D01*
X148517612Y-135155000D01*
X147545911Y-135155000D01*
X147738809Y-135026109D01*
X147879157Y-134816065D01*
X147928440Y-134568300D01*
X147928440Y-132868300D01*
X147879157Y-132620535D01*
X147738809Y-132410491D01*
X147528765Y-132270143D01*
X147281000Y-132220860D01*
X145581000Y-132220860D01*
X145333235Y-132270143D01*
X145123191Y-132410491D01*
X144982843Y-132620535D01*
X144933560Y-132868300D01*
X144933560Y-134568300D01*
X144982843Y-134816065D01*
X145123191Y-135026109D01*
X145316089Y-135155000D01*
X143800720Y-135155000D01*
X143934665Y-135128357D01*
X144144709Y-134988009D01*
X144285057Y-134777965D01*
X144334340Y-134530200D01*
X144334340Y-132830200D01*
X144285057Y-132582435D01*
X144144709Y-132372391D01*
X143934665Y-132232043D01*
X143686900Y-132182760D01*
X141986900Y-132182760D01*
X141739135Y-132232043D01*
X141529091Y-132372391D01*
X141388743Y-132582435D01*
X141339460Y-132830200D01*
X141339460Y-134530200D01*
X141388743Y-134777965D01*
X141529091Y-134988009D01*
X141739135Y-135128357D01*
X141873080Y-135155000D01*
X140244720Y-135155000D01*
X140378665Y-135128357D01*
X140588709Y-134988009D01*
X140729057Y-134777965D01*
X140778340Y-134530200D01*
X140778340Y-132830200D01*
X140729057Y-132582435D01*
X140588709Y-132372391D01*
X140378665Y-132232043D01*
X140130900Y-132182760D01*
X138430900Y-132182760D01*
X138183135Y-132232043D01*
X137973091Y-132372391D01*
X137832743Y-132582435D01*
X137783460Y-132830200D01*
X137783460Y-134530200D01*
X137832743Y-134777965D01*
X137973091Y-134988009D01*
X138183135Y-135128357D01*
X138317080Y-135155000D01*
X136726532Y-135155000D01*
X136864799Y-135097728D01*
X137043428Y-134919100D01*
X137140101Y-134685711D01*
X137140101Y-133995151D01*
X136981351Y-133836401D01*
X135782101Y-133836401D01*
X135782101Y-133856401D01*
X135528101Y-133856401D01*
X135528101Y-133836401D01*
X134328851Y-133836401D01*
X134170101Y-133995151D01*
X134170101Y-134685711D01*
X134266774Y-134919100D01*
X134445403Y-135097728D01*
X134583670Y-135155000D01*
X133076532Y-135155000D01*
X133214799Y-135097728D01*
X133393428Y-134919100D01*
X133490101Y-134685711D01*
X133490101Y-133995151D01*
X133331351Y-133836401D01*
X132132101Y-133836401D01*
X132132101Y-133856401D01*
X131878101Y-133856401D01*
X131878101Y-133836401D01*
X130678851Y-133836401D01*
X130520101Y-133995151D01*
X130520101Y-134685711D01*
X130616774Y-134919100D01*
X130795403Y-135097728D01*
X130933670Y-135155000D01*
X119452388Y-135155000D01*
X119380000Y-135140601D01*
X119109531Y-135194401D01*
X119093217Y-135197646D01*
X118850095Y-135360095D01*
X118687646Y-135603217D01*
X118630601Y-135890000D01*
X118645000Y-135962388D01*
X118645001Y-146585000D01*
X90880000Y-146585000D01*
X90880000Y-142410540D01*
X91645000Y-142410540D01*
X91645000Y-143339460D01*
X92000483Y-144197671D01*
X92657329Y-144854517D01*
X93515540Y-145210000D01*
X94444460Y-145210000D01*
X95302671Y-144854517D01*
X95959517Y-144197671D01*
X96315000Y-143339460D01*
X96315000Y-142410540D01*
X95959517Y-141552329D01*
X95302671Y-140895483D01*
X94444460Y-140540000D01*
X93515540Y-140540000D01*
X92657329Y-140895483D01*
X92000483Y-141552329D01*
X91645000Y-142410540D01*
X90880000Y-142410540D01*
X90880000Y-136060540D01*
X91645000Y-136060540D01*
X91645000Y-136989460D01*
X92000483Y-137847671D01*
X92657329Y-138504517D01*
X93515540Y-138860000D01*
X94444460Y-138860000D01*
X95302671Y-138504517D01*
X95959517Y-137847671D01*
X96315000Y-136989460D01*
X96315000Y-136060540D01*
X95959517Y-135202329D01*
X95302671Y-134545483D01*
X94444460Y-134190000D01*
X93515540Y-134190000D01*
X92657329Y-134545483D01*
X92000483Y-135202329D01*
X91645000Y-136060540D01*
X90880000Y-136060540D01*
X90880000Y-132325000D01*
X92092250Y-132325000D01*
X92251000Y-132166250D01*
X92251000Y-130817000D01*
X92505000Y-130817000D01*
X92505000Y-132166250D01*
X92663750Y-132325000D01*
X94504309Y-132325000D01*
X94737698Y-132228327D01*
X94916327Y-132049699D01*
X95013000Y-131816310D01*
X95013000Y-130975750D01*
X94854250Y-130817000D01*
X92505000Y-130817000D01*
X92251000Y-130817000D01*
X92231000Y-130817000D01*
X92231000Y-130563000D01*
X92251000Y-130563000D01*
X92251000Y-129213750D01*
X92505000Y-129213750D01*
X92505000Y-130563000D01*
X94854250Y-130563000D01*
X95013000Y-130404250D01*
X95013000Y-129563690D01*
X94916327Y-129330301D01*
X94737698Y-129151673D01*
X94504309Y-129055000D01*
X92663750Y-129055000D01*
X92505000Y-129213750D01*
X92251000Y-129213750D01*
X92092250Y-129055000D01*
X90880000Y-129055000D01*
X90880000Y-117337440D01*
X94378000Y-117337440D01*
X94625765Y-117288157D01*
X94835809Y-117147809D01*
X94976157Y-116937765D01*
X95025440Y-116690000D01*
X95025440Y-114690000D01*
X94976157Y-114442235D01*
X94835809Y-114232191D01*
X94625765Y-114091843D01*
X94378000Y-114042560D01*
X90880000Y-114042560D01*
X90880000Y-106464300D01*
X91478560Y-106464300D01*
X91478560Y-109664300D01*
X91527843Y-109912065D01*
X91668191Y-110122109D01*
X91878235Y-110262457D01*
X92126000Y-110311740D01*
X95326000Y-110311740D01*
X95573765Y-110262457D01*
X95783809Y-110122109D01*
X95924157Y-109912065D01*
X95973440Y-109664300D01*
X95973440Y-106464300D01*
X95924157Y-106216535D01*
X95783809Y-106006491D01*
X95573765Y-105866143D01*
X95326000Y-105816860D01*
X92126000Y-105816860D01*
X91878235Y-105866143D01*
X91668191Y-106006491D01*
X91527843Y-106216535D01*
X91478560Y-106464300D01*
X90880000Y-106464300D01*
X90880000Y-93298804D01*
X91541944Y-93298804D01*
X91889780Y-94098487D01*
X92517164Y-94704186D01*
X93251497Y-95008350D01*
X93599000Y-94896662D01*
X93599000Y-92951300D01*
X93853000Y-92951300D01*
X93853000Y-94896662D01*
X94200503Y-95008350D01*
X94934836Y-94704186D01*
X95562220Y-94098487D01*
X95910056Y-93298804D01*
X95798645Y-92951300D01*
X93853000Y-92951300D01*
X93599000Y-92951300D01*
X91653355Y-92951300D01*
X91541944Y-93298804D01*
X90880000Y-93298804D01*
X90880000Y-90710000D01*
X93083102Y-90710000D01*
X92517164Y-90944414D01*
X91889780Y-91550113D01*
X91541944Y-92349796D01*
X91653355Y-92697300D01*
X93599000Y-92697300D01*
X93599000Y-92677300D01*
X93853000Y-92677300D01*
X93853000Y-92697300D01*
X95798645Y-92697300D01*
X95910056Y-92349796D01*
X95562220Y-91550113D01*
X94934836Y-90944414D01*
X94368898Y-90710000D01*
X96348474Y-90710000D01*
X96418400Y-90723909D01*
X96488325Y-90710000D01*
X96488326Y-90710000D01*
X96695428Y-90668805D01*
X96930281Y-90511881D01*
X97087205Y-90277028D01*
X97142309Y-90000000D01*
X97128400Y-89930074D01*
X97128400Y-76816026D01*
X97142309Y-76746100D01*
X97087205Y-76469072D01*
X96930281Y-76234219D01*
X96695428Y-76077295D01*
X96488326Y-76036100D01*
X96418400Y-76022191D01*
X96348475Y-76036100D01*
X90917700Y-76036100D01*
X90917700Y-73195540D01*
X91645000Y-73195540D01*
X91645000Y-74124460D01*
X92000483Y-74982671D01*
X92657329Y-75639517D01*
X93515540Y-75995000D01*
X94444460Y-75995000D01*
X95302671Y-75639517D01*
X95959517Y-74982671D01*
X96315000Y-74124460D01*
X96315000Y-73195540D01*
X95959517Y-72337329D01*
X95302671Y-71680483D01*
X94444460Y-71325000D01*
X93515540Y-71325000D01*
X92657329Y-71680483D01*
X92000483Y-72337329D01*
X91645000Y-73195540D01*
X90917700Y-73195540D01*
X90917700Y-70560000D01*
X97739200Y-70560000D01*
X97739200Y-144589500D01*
G04 #@! TD*
M02*
