G04 #@! TF.GenerationSoftware,KiCad,Pcbnew,5.0.2+dfsg1-1~bpo9+1*
G04 #@! TF.CreationDate,2019-02-15T20:18:05-06:00*
G04 #@! TF.ProjectId,BatteryBoard,42617474-6572-4794-926f-6172642e6b69,rev?*
G04 #@! TF.SameCoordinates,Original*
G04 #@! TF.FileFunction,Copper,L1,Top*
G04 #@! TF.FilePolarity,Positive*
%FSLAX46Y46*%
G04 Gerber Fmt 4.6, Leading zero omitted, Abs format (unit mm)*
G04 Created by KiCad (PCBNEW 5.0.2+dfsg1-1~bpo9+1) date vie 15 feb 2019 20:18:05 CST*
%MOMM*%
%LPD*%
G01*
G04 APERTURE LIST*
G04 #@! TA.AperFunction,ComponentPad*
%ADD10R,3.000000X6.000000*%
G04 #@! TD*
G04 #@! TA.AperFunction,ComponentPad*
%ADD11R,4.000000X2.000000*%
G04 #@! TD*
G04 #@! TA.AperFunction,ComponentPad*
%ADD12C,2.000000*%
G04 #@! TD*
G04 #@! TA.AperFunction,ComponentPad*
%ADD13O,3.200000X3.200000*%
G04 #@! TD*
G04 #@! TA.AperFunction,ComponentPad*
%ADD14R,3.200000X3.200000*%
G04 #@! TD*
G04 #@! TA.AperFunction,ComponentPad*
%ADD15R,1.700000X1.700000*%
G04 #@! TD*
G04 #@! TA.AperFunction,ComponentPad*
%ADD16O,1.905000X2.000000*%
G04 #@! TD*
G04 #@! TA.AperFunction,ComponentPad*
%ADD17R,1.905000X2.000000*%
G04 #@! TD*
G04 #@! TA.AperFunction,ComponentPad*
%ADD18O,2.400000X2.400000*%
G04 #@! TD*
G04 #@! TA.AperFunction,ComponentPad*
%ADD19C,2.400000*%
G04 #@! TD*
G04 #@! TA.AperFunction,ComponentPad*
%ADD20O,2.000000X1.905000*%
G04 #@! TD*
G04 #@! TA.AperFunction,ComponentPad*
%ADD21R,2.000000X1.905000*%
G04 #@! TD*
G04 #@! TA.AperFunction,ComponentPad*
%ADD22C,1.900000*%
G04 #@! TD*
G04 #@! TA.AperFunction,ComponentPad*
%ADD23R,1.900000X1.900000*%
G04 #@! TD*
G04 #@! TA.AperFunction,ViaPad*
%ADD24C,3.400000*%
G04 #@! TD*
G04 #@! TA.AperFunction,Conductor*
%ADD25C,1.270000*%
G04 #@! TD*
G04 APERTURE END LIST*
D10*
G04 #@! TO.P,U3,3*
G04 #@! TO.N,+5V*
X147844200Y-89422700D03*
G04 #@! TO.P,U3,4*
G04 #@! TO.N,GND*
X140344200Y-89422700D03*
G04 #@! TO.P,U3,1*
G04 #@! TO.N,Net-(S1-Pad2)*
X147844200Y-120422700D03*
G04 #@! TO.P,U3,2*
G04 #@! TO.N,GND*
X140344200Y-120422700D03*
G04 #@! TD*
D11*
G04 #@! TO.P,U1,2*
G04 #@! TO.N,GND*
X92378000Y-130690000D03*
G04 #@! TO.P,U1,1*
G04 #@! TO.N,VCC*
X92378000Y-115690000D03*
G04 #@! TO.P,U1,6*
G04 #@! TO.N,GND*
X115878000Y-130690000D03*
G04 #@! TO.P,U1,5*
G04 #@! TO.N,Net-(Q1-Pad3)*
X115878000Y-115690000D03*
G04 #@! TD*
D12*
G04 #@! TO.P,C1,1*
G04 #@! TO.N,+5V*
X127292100Y-112395000D03*
G04 #@! TO.P,C1,2*
G04 #@! TO.N,GND*
X127292100Y-117395000D03*
G04 #@! TD*
G04 #@! TO.P,C2,1*
G04 #@! TO.N,+3V3*
X127330200Y-126936500D03*
G04 #@! TO.P,C2,2*
G04 #@! TO.N,GND*
X127330200Y-121936500D03*
G04 #@! TD*
D13*
G04 #@! TO.P,D1,2*
G04 #@! TO.N,VCC*
X111506000Y-91186000D03*
D14*
G04 #@! TO.P,D1,1*
G04 #@! TO.N,Net-(D1-Pad1)*
X111506000Y-106426000D03*
G04 #@! TD*
D15*
G04 #@! TO.P,J1,1*
G04 #@! TO.N,+3V3*
X142836900Y-133680200D03*
G04 #@! TD*
G04 #@! TO.P,J2,1*
G04 #@! TO.N,+3V3*
X139280900Y-133680200D03*
G04 #@! TD*
G04 #@! TO.P,J3,1*
G04 #@! TO.N,+5V*
X146431000Y-133718300D03*
G04 #@! TD*
G04 #@! TO.P,J4,1*
G04 #@! TO.N,GND*
X132005101Y-133709401D03*
G04 #@! TD*
G04 #@! TO.P,J5,1*
G04 #@! TO.N,GND*
X135655101Y-133709401D03*
G04 #@! TD*
D16*
G04 #@! TO.P,Q1,3*
G04 #@! TO.N,Net-(Q1-Pad3)*
X104648000Y-109220000D03*
G04 #@! TO.P,Q1,2*
G04 #@! TO.N,Net-(D1-Pad1)*
X102108000Y-109220000D03*
D17*
G04 #@! TO.P,Q1,1*
G04 #@! TO.N,VCC*
X99568000Y-109220000D03*
G04 #@! TD*
D18*
G04 #@! TO.P,R1,2*
G04 #@! TO.N,GND*
X117856000Y-106172000D03*
D19*
G04 #@! TO.P,R1,1*
G04 #@! TO.N,VCC*
X117856000Y-90932000D03*
G04 #@! TD*
D20*
G04 #@! TO.P,U2,3*
G04 #@! TO.N,+5V*
X116459000Y-78079600D03*
G04 #@! TO.P,U2,2*
G04 #@! TO.N,+3V3*
X116459000Y-75539600D03*
D21*
G04 #@! TO.P,U2,1*
G04 #@! TO.N,GND*
X116459000Y-72999600D03*
G04 #@! TD*
D22*
G04 #@! TO.P,S1,3*
G04 #@! TO.N,GND*
X110156000Y-143510000D03*
G04 #@! TO.P,S1,2*
G04 #@! TO.N,Net-(S1-Pad2)*
X107656000Y-143510000D03*
D23*
G04 #@! TO.P,S1,1*
G04 #@! TO.N,Net-(D1-Pad1)*
X105156000Y-143510000D03*
G04 #@! TD*
D14*
G04 #@! TO.P,D2,1*
G04 #@! TO.N,VCC*
X93726000Y-108064300D03*
D13*
G04 #@! TO.P,D2,2*
G04 #@! TO.N,GND*
X93726000Y-92824300D03*
G04 #@! TD*
G04 #@! TO.P,D3,2*
G04 #@! TO.N,GND*
X115570000Y-137160000D03*
D14*
G04 #@! TO.P,D3,1*
G04 #@! TO.N,Net-(D1-Pad1)*
X100330000Y-137160000D03*
G04 #@! TD*
D15*
G04 #@! TO.P,J6,1*
G04 #@! TO.N,VCC*
X99872800Y-79756000D03*
G04 #@! TD*
G04 #@! TO.P,J7,1*
G04 #@! TO.N,Net-(J10-Pad1)*
X108381800Y-72072500D03*
G04 #@! TD*
G04 #@! TO.P,J8,1*
G04 #@! TO.N,Net-(J10-Pad1)*
X99809300Y-84797900D03*
G04 #@! TD*
G04 #@! TO.P,J9,1*
G04 #@! TO.N,Net-(J11-Pad1)*
X112128300Y-72072500D03*
G04 #@! TD*
G04 #@! TO.P,J10,1*
G04 #@! TO.N,Net-(J10-Pad1)*
X120967500Y-119405400D03*
G04 #@! TD*
G04 #@! TO.P,J11,1*
G04 #@! TO.N,Net-(J11-Pad1)*
X121005600Y-125958600D03*
G04 #@! TD*
D24*
G04 #@! TO.N,*
X152400000Y-142875000D03*
X93980000Y-142875000D03*
X152400000Y-136525000D03*
X93980000Y-136525000D03*
X93980000Y-73660000D03*
X102870000Y-73660000D03*
X143510000Y-73660000D03*
X152400000Y-73660000D03*
G04 #@! TD*
D25*
G04 #@! TO.N,+5V*
X146431000Y-133718300D02*
X148590000Y-131559300D01*
X127292100Y-111474800D02*
X127292100Y-112395000D01*
X147844200Y-90922700D02*
X127292100Y-111474800D01*
X147844200Y-89422700D02*
X147844200Y-90922700D01*
X147844200Y-93692700D02*
X152831800Y-98680300D01*
X147844200Y-89422700D02*
X147844200Y-93692700D01*
X152831800Y-127317500D02*
X148590000Y-131559300D01*
X152831800Y-98680300D02*
X152831800Y-127317500D01*
X147844200Y-87922700D02*
X141569800Y-81648300D01*
X147844200Y-89422700D02*
X147844200Y-87922700D01*
X118729000Y-78079600D02*
X116459000Y-78079600D01*
X122297700Y-81648300D02*
X118729000Y-78079600D01*
X141569800Y-81648300D02*
X122297700Y-81648300D01*
G04 #@! TO.N,+3V3*
X142836900Y-133680200D02*
X139280900Y-133680200D01*
X142836900Y-131495800D02*
X142836900Y-133680200D01*
X146570700Y-127762000D02*
X142836900Y-131495800D01*
X151231600Y-123913900D02*
X147383500Y-127762000D01*
X127330200Y-126936500D02*
X140855700Y-113411000D01*
X148551900Y-113411000D02*
X151231600Y-116090700D01*
X140855700Y-113411000D02*
X148551900Y-113411000D01*
X147383500Y-127762000D02*
X146570700Y-127762000D01*
X151231600Y-116090700D02*
X151231600Y-123913900D01*
X126330201Y-125936501D02*
X127330200Y-126936500D01*
X116459000Y-75539600D02*
X116347212Y-75539600D01*
X116347212Y-75539600D02*
X114569990Y-77316822D01*
X114569990Y-77316822D02*
X114569990Y-81308690D01*
X114569990Y-81308690D02*
X116433610Y-83172310D01*
X116433610Y-83172310D02*
X122656610Y-83172310D01*
X122656610Y-83172310D02*
X127241300Y-87757000D01*
X127241300Y-87757000D02*
X127241300Y-109370326D01*
X127241300Y-109370326D02*
X125403099Y-111208527D01*
X125403099Y-111208527D02*
X125403099Y-125009399D01*
X125403099Y-125009399D02*
X126330201Y-125936501D01*
G04 #@! TO.N,Net-(D1-Pad1)*
X102108000Y-106950000D02*
X102108000Y-109220000D01*
X102632000Y-106426000D02*
X102108000Y-106950000D01*
X111506000Y-106426000D02*
X102632000Y-106426000D01*
X102108000Y-111490000D02*
X97790000Y-115808000D01*
X102108000Y-109220000D02*
X102108000Y-111490000D01*
X97790000Y-115808000D02*
X97790000Y-140970000D01*
X97790000Y-140970000D02*
X100330000Y-143510000D01*
X102870000Y-142570000D02*
X102870000Y-143510000D01*
X100330000Y-140030000D02*
X102870000Y-142570000D01*
X100330000Y-137160000D02*
X100330000Y-140030000D01*
X100330000Y-143510000D02*
X102870000Y-143510000D01*
X102870000Y-143510000D02*
X105156000Y-143510000D01*
G04 #@! TO.N,VCC*
X111506000Y-91186000D02*
X117602000Y-91186000D01*
X99568000Y-97790000D02*
X101600000Y-95758000D01*
X99568000Y-109220000D02*
X99568000Y-97790000D01*
X106934000Y-95758000D02*
X111506000Y-91186000D01*
X93098000Y-115690000D02*
X99568000Y-109220000D01*
X93726000Y-114342000D02*
X92378000Y-115690000D01*
X93726000Y-108064300D02*
X93726000Y-114342000D01*
X101600000Y-95758000D02*
X104648000Y-95758000D01*
X104648000Y-95758000D02*
X106934000Y-95758000D01*
X97752800Y-79756000D02*
X99872800Y-79756000D01*
X97536000Y-86690200D02*
X97536000Y-79972800D01*
X98628200Y-87782400D02*
X97536000Y-86690200D01*
X104190800Y-87782400D02*
X98628200Y-87782400D01*
X104648000Y-95758000D02*
X104648000Y-95669100D01*
X104648000Y-95669100D02*
X106438700Y-93878400D01*
X106438700Y-93878400D02*
X106438700Y-90030300D01*
X97536000Y-79972800D02*
X97752800Y-79756000D01*
X106438700Y-90030300D02*
X104190800Y-87782400D01*
G04 #@! TO.N,Net-(Q1-Pad3)*
X112608000Y-115690000D02*
X115878000Y-115690000D01*
X104648000Y-109267500D02*
X111070500Y-115690000D01*
X104648000Y-109220000D02*
X104648000Y-109267500D01*
X111070500Y-115690000D02*
X112608000Y-115690000D01*
G04 #@! TO.N,Net-(S1-Pad2)*
X107656000Y-143510000D02*
X107656000Y-143804000D01*
X147844200Y-121922700D02*
X147844200Y-120422700D01*
X115443722Y-140970000D02*
X118110000Y-138303722D01*
X142766900Y-127000000D02*
X147844200Y-121922700D01*
X134124700Y-127000000D02*
X142766900Y-127000000D01*
X107656000Y-142166498D02*
X108852498Y-140970000D01*
X108852498Y-140970000D02*
X115443722Y-140970000D01*
X129154300Y-131970400D02*
X134124700Y-127000000D01*
X107656000Y-143510000D02*
X107656000Y-142166498D01*
X118110000Y-138303722D02*
X118110000Y-135761329D01*
X118110000Y-135761329D02*
X121900929Y-131970400D01*
X121900929Y-131970400D02*
X129154300Y-131970400D01*
G04 #@! TO.N,Net-(J10-Pad1)*
X108381800Y-74192500D02*
X108381800Y-72072500D01*
X108381800Y-74903700D02*
X108381800Y-74192500D01*
X121031000Y-89928700D02*
X121031000Y-91015278D01*
X108381800Y-74903700D02*
X108381800Y-84378078D01*
X112497322Y-88493600D02*
X119595900Y-88493600D01*
X119595900Y-88493600D02*
X121031000Y-89928700D01*
X120967500Y-91078778D02*
X121031000Y-91015278D01*
X120967500Y-119405400D02*
X120967500Y-91078778D01*
X111049522Y-87045800D02*
X107353100Y-87045800D01*
X108381800Y-84378078D02*
X111049522Y-87045800D01*
X111049522Y-87045800D02*
X112497322Y-88493600D01*
X105105200Y-84797900D02*
X99809300Y-84797900D01*
X107353100Y-87045800D02*
X105105200Y-84797900D01*
G04 #@! TO.N,Net-(J11-Pad1)*
X123101100Y-89843525D02*
X123101100Y-121743100D01*
X119947775Y-86690200D02*
X123101100Y-89843525D01*
X116890800Y-86690200D02*
X119947775Y-86690200D01*
X121005600Y-123838600D02*
X121005600Y-125958600D01*
X123101100Y-121743100D02*
X121005600Y-123838600D01*
X112128300Y-81022274D02*
X112179100Y-81073074D01*
X112128300Y-72072500D02*
X112128300Y-81022274D01*
X112179100Y-81073074D02*
X112179100Y-81978500D01*
X112179100Y-81978500D02*
X116890800Y-86690200D01*
G04 #@! TD*
M02*
