G04 #@! TF.GenerationSoftware,KiCad,Pcbnew,(5.1.6)-1*
G04 #@! TF.CreationDate,2021-04-29T20:19:57-05:00*
G04 #@! TF.ProjectId,BEncoderBoard3(RN4871),42456e63-6f64-4657-9242-6f6172643328,rev?*
G04 #@! TF.SameCoordinates,Original*
G04 #@! TF.FileFunction,Soldermask,Bot*
G04 #@! TF.FilePolarity,Negative*
%FSLAX46Y46*%
G04 Gerber Fmt 4.6, Leading zero omitted, Abs format (unit mm)*
G04 Created by KiCad (PCBNEW (5.1.6)-1) date 2021-04-29 20:19:57*
%MOMM*%
%LPD*%
G01*
G04 APERTURE LIST*
%ADD10C,0.100000*%
G04 APERTURE END LIST*
D10*
G36*
X146450787Y-96407462D02*
G01*
X146450790Y-96407463D01*
X146450789Y-96407463D01*
X147097029Y-96675144D01*
X147678631Y-97063758D01*
X148173242Y-97558369D01*
X148561856Y-98139971D01*
X148561856Y-98139972D01*
X148829538Y-98786213D01*
X148966000Y-99472256D01*
X148966000Y-100171744D01*
X148829538Y-100857787D01*
X148829537Y-100857789D01*
X148561856Y-101504029D01*
X148173242Y-102085631D01*
X147678631Y-102580242D01*
X147097029Y-102968856D01*
X146640068Y-103158135D01*
X146450787Y-103236538D01*
X145764744Y-103373000D01*
X145065256Y-103373000D01*
X144379213Y-103236538D01*
X144189932Y-103158135D01*
X143732971Y-102968856D01*
X143151369Y-102580242D01*
X142656758Y-102085631D01*
X142268144Y-101504029D01*
X142000463Y-100857789D01*
X142000462Y-100857787D01*
X141864000Y-100171744D01*
X141864000Y-99472256D01*
X142000462Y-98786213D01*
X142268144Y-98139972D01*
X142268144Y-98139971D01*
X142656758Y-97558369D01*
X143151369Y-97063758D01*
X143732971Y-96675144D01*
X144379211Y-96407463D01*
X144379210Y-96407463D01*
X144379213Y-96407462D01*
X145065256Y-96271000D01*
X145764744Y-96271000D01*
X146450787Y-96407462D01*
G37*
G36*
X122320787Y-96407462D02*
G01*
X122320790Y-96407463D01*
X122320789Y-96407463D01*
X122967029Y-96675144D01*
X123548631Y-97063758D01*
X124043242Y-97558369D01*
X124431856Y-98139971D01*
X124431856Y-98139972D01*
X124699538Y-98786213D01*
X124836000Y-99472256D01*
X124836000Y-100171744D01*
X124699538Y-100857787D01*
X124699537Y-100857789D01*
X124431856Y-101504029D01*
X124043242Y-102085631D01*
X123548631Y-102580242D01*
X122967029Y-102968856D01*
X122510068Y-103158135D01*
X122320787Y-103236538D01*
X121634744Y-103373000D01*
X120935256Y-103373000D01*
X120249213Y-103236538D01*
X120059932Y-103158135D01*
X119602971Y-102968856D01*
X119021369Y-102580242D01*
X118526758Y-102085631D01*
X118138144Y-101504029D01*
X117870463Y-100857789D01*
X117870462Y-100857787D01*
X117734000Y-100171744D01*
X117734000Y-99472256D01*
X117870462Y-98786213D01*
X118138144Y-98139972D01*
X118138144Y-98139971D01*
X118526758Y-97558369D01*
X119021369Y-97063758D01*
X119602971Y-96675144D01*
X120249211Y-96407463D01*
X120249210Y-96407463D01*
X120249213Y-96407462D01*
X120935256Y-96271000D01*
X121634744Y-96271000D01*
X122320787Y-96407462D01*
G37*
M02*
