G04 #@! TF.GenerationSoftware,KiCad,Pcbnew,(5.1.6)-1*
G04 #@! TF.CreationDate,2021-04-29T20:19:57-05:00*
G04 #@! TF.ProjectId,BEncoderBoard3(RN4871),42456e63-6f64-4657-9242-6f6172643328,rev?*
G04 #@! TF.SameCoordinates,Original*
G04 #@! TF.FileFunction,Paste,Top*
G04 #@! TF.FilePolarity,Positive*
%FSLAX46Y46*%
G04 Gerber Fmt 4.6, Leading zero omitted, Abs format (unit mm)*
G04 Created by KiCad (PCBNEW (5.1.6)-1) date 2021-04-29 20:19:57*
%MOMM*%
%LPD*%
G01*
G04 APERTURE LIST*
%ADD10R,1.800000X2.500000*%
%ADD11R,1.500000X0.700000*%
%ADD12R,0.700000X1.500000*%
G04 APERTURE END LIST*
G36*
G01*
X135845000Y-99043500D02*
X135845000Y-98568500D01*
G75*
G02*
X136082500Y-98331000I237500J0D01*
G01*
X136657500Y-98331000D01*
G75*
G02*
X136895000Y-98568500I0J-237500D01*
G01*
X136895000Y-99043500D01*
G75*
G02*
X136657500Y-99281000I-237500J0D01*
G01*
X136082500Y-99281000D01*
G75*
G02*
X135845000Y-99043500I0J237500D01*
G01*
G37*
G36*
G01*
X134095000Y-99043500D02*
X134095000Y-98568500D01*
G75*
G02*
X134332500Y-98331000I237500J0D01*
G01*
X134907500Y-98331000D01*
G75*
G02*
X135145000Y-98568500I0J-237500D01*
G01*
X135145000Y-99043500D01*
G75*
G02*
X134907500Y-99281000I-237500J0D01*
G01*
X134332500Y-99281000D01*
G75*
G02*
X134095000Y-99043500I0J237500D01*
G01*
G37*
D10*
X130893000Y-103632000D03*
X135693000Y-103632000D03*
X133293000Y-103632000D03*
X138093000Y-103632000D03*
G36*
G01*
X139570000Y-90661500D02*
X139570000Y-90186500D01*
G75*
G02*
X139807500Y-89949000I237500J0D01*
G01*
X140382500Y-89949000D01*
G75*
G02*
X140620000Y-90186500I0J-237500D01*
G01*
X140620000Y-90661500D01*
G75*
G02*
X140382500Y-90899000I-237500J0D01*
G01*
X139807500Y-90899000D01*
G75*
G02*
X139570000Y-90661500I0J237500D01*
G01*
G37*
G36*
G01*
X141320000Y-90661500D02*
X141320000Y-90186500D01*
G75*
G02*
X141557500Y-89949000I237500J0D01*
G01*
X142132500Y-89949000D01*
G75*
G02*
X142370000Y-90186500I0J-237500D01*
G01*
X142370000Y-90661500D01*
G75*
G02*
X142132500Y-90899000I-237500J0D01*
G01*
X141557500Y-90899000D01*
G75*
G02*
X141320000Y-90661500I0J237500D01*
G01*
G37*
D11*
X128592000Y-95036000D03*
X128592000Y-93836000D03*
X128592000Y-92636000D03*
X128592000Y-91436000D03*
X128592000Y-90236000D03*
X137092000Y-95036000D03*
X137092000Y-93836000D03*
X137092000Y-92636000D03*
X137092000Y-91436000D03*
X137092000Y-90236000D03*
D12*
X129842000Y-96686000D03*
X131042000Y-96686000D03*
X132242000Y-96686000D03*
X133442000Y-96686000D03*
X134642000Y-96686000D03*
X135842000Y-96686000D03*
M02*
