G04 #@! TF.GenerationSoftware,KiCad,Pcbnew,(5.1.6)-1*
G04 #@! TF.CreationDate,2021-04-29T20:19:57-05:00*
G04 #@! TF.ProjectId,BEncoderBoard3(RN4871),42456e63-6f64-4657-9242-6f6172643328,rev?*
G04 #@! TF.SameCoordinates,Original*
G04 #@! TF.FileFunction,Soldermask,Top*
G04 #@! TF.FilePolarity,Negative*
%FSLAX46Y46*%
G04 Gerber Fmt 4.6, Leading zero omitted, Abs format (unit mm)*
G04 Created by KiCad (PCBNEW (5.1.6)-1) date 2021-04-29 20:19:57*
%MOMM*%
%LPD*%
G01*
G04 APERTURE LIST*
%ADD10C,0.100000*%
G04 APERTURE END LIST*
D10*
G36*
X134244000Y-104933000D02*
G01*
X132342000Y-104933000D01*
X132342000Y-102331000D01*
X134244000Y-102331000D01*
X134244000Y-104933000D01*
G37*
G36*
X131844000Y-104933000D02*
G01*
X129942000Y-104933000D01*
X129942000Y-102331000D01*
X131844000Y-102331000D01*
X131844000Y-104933000D01*
G37*
G36*
X139044000Y-104933000D02*
G01*
X137142000Y-104933000D01*
X137142000Y-102331000D01*
X139044000Y-102331000D01*
X139044000Y-104933000D01*
G37*
G36*
X136644000Y-104933000D02*
G01*
X134742000Y-104933000D01*
X134742000Y-102331000D01*
X136644000Y-102331000D01*
X136644000Y-104933000D01*
G37*
G36*
X146450787Y-96407462D02*
G01*
X146450790Y-96407463D01*
X146450789Y-96407463D01*
X147097029Y-96675144D01*
X147678631Y-97063758D01*
X148173242Y-97558369D01*
X148561856Y-98139971D01*
X148668273Y-98396885D01*
X148829538Y-98786213D01*
X148966000Y-99472256D01*
X148966000Y-100171744D01*
X148829538Y-100857787D01*
X148829537Y-100857789D01*
X148561856Y-101504029D01*
X148173242Y-102085631D01*
X147678631Y-102580242D01*
X147097029Y-102968856D01*
X146640068Y-103158135D01*
X146450787Y-103236538D01*
X145764744Y-103373000D01*
X145065256Y-103373000D01*
X144379213Y-103236538D01*
X144189932Y-103158135D01*
X143732971Y-102968856D01*
X143151369Y-102580242D01*
X142656758Y-102085631D01*
X142268144Y-101504029D01*
X142000463Y-100857789D01*
X142000462Y-100857787D01*
X141864000Y-100171744D01*
X141864000Y-99472256D01*
X142000462Y-98786213D01*
X142161727Y-98396885D01*
X142268144Y-98139971D01*
X142656758Y-97558369D01*
X143151369Y-97063758D01*
X143732971Y-96675144D01*
X144379211Y-96407463D01*
X144379210Y-96407463D01*
X144379213Y-96407462D01*
X145065256Y-96271000D01*
X145764744Y-96271000D01*
X146450787Y-96407462D01*
G37*
G36*
X122320787Y-96407462D02*
G01*
X122320790Y-96407463D01*
X122320789Y-96407463D01*
X122967029Y-96675144D01*
X123548631Y-97063758D01*
X124043242Y-97558369D01*
X124431856Y-98139971D01*
X124538273Y-98396885D01*
X124699538Y-98786213D01*
X124836000Y-99472256D01*
X124836000Y-100171744D01*
X124699538Y-100857787D01*
X124699537Y-100857789D01*
X124431856Y-101504029D01*
X124043242Y-102085631D01*
X123548631Y-102580242D01*
X122967029Y-102968856D01*
X122510068Y-103158135D01*
X122320787Y-103236538D01*
X121634744Y-103373000D01*
X120935256Y-103373000D01*
X120249213Y-103236538D01*
X120059932Y-103158135D01*
X119602971Y-102968856D01*
X119021369Y-102580242D01*
X118526758Y-102085631D01*
X118138144Y-101504029D01*
X117870463Y-100857789D01*
X117870462Y-100857787D01*
X117734000Y-100171744D01*
X117734000Y-99472256D01*
X117870462Y-98786213D01*
X118031727Y-98396885D01*
X118138144Y-98139971D01*
X118526758Y-97558369D01*
X119021369Y-97063758D01*
X119602971Y-96675144D01*
X120249211Y-96407463D01*
X120249210Y-96407463D01*
X120249213Y-96407462D01*
X120935256Y-96271000D01*
X121634744Y-96271000D01*
X122320787Y-96407462D01*
G37*
G36*
X136784499Y-98284445D02*
G01*
X136821995Y-98295820D01*
X136856554Y-98314292D01*
X136886847Y-98339153D01*
X136911708Y-98369446D01*
X136930180Y-98404005D01*
X136941555Y-98441501D01*
X136946000Y-98486638D01*
X136946000Y-99125362D01*
X136941555Y-99170499D01*
X136930180Y-99207995D01*
X136911708Y-99242554D01*
X136886847Y-99272847D01*
X136856554Y-99297708D01*
X136821995Y-99316180D01*
X136784499Y-99327555D01*
X136739362Y-99332000D01*
X136000638Y-99332000D01*
X135955501Y-99327555D01*
X135918005Y-99316180D01*
X135883446Y-99297708D01*
X135853153Y-99272847D01*
X135828292Y-99242554D01*
X135809820Y-99207995D01*
X135798445Y-99170499D01*
X135794000Y-99125362D01*
X135794000Y-98486638D01*
X135798445Y-98441501D01*
X135809820Y-98404005D01*
X135828292Y-98369446D01*
X135853153Y-98339153D01*
X135883446Y-98314292D01*
X135918005Y-98295820D01*
X135955501Y-98284445D01*
X136000638Y-98280000D01*
X136739362Y-98280000D01*
X136784499Y-98284445D01*
G37*
G36*
X135034499Y-98284445D02*
G01*
X135071995Y-98295820D01*
X135106554Y-98314292D01*
X135136847Y-98339153D01*
X135161708Y-98369446D01*
X135180180Y-98404005D01*
X135191555Y-98441501D01*
X135196000Y-98486638D01*
X135196000Y-99125362D01*
X135191555Y-99170499D01*
X135180180Y-99207995D01*
X135161708Y-99242554D01*
X135136847Y-99272847D01*
X135106554Y-99297708D01*
X135071995Y-99316180D01*
X135034499Y-99327555D01*
X134989362Y-99332000D01*
X134250638Y-99332000D01*
X134205501Y-99327555D01*
X134168005Y-99316180D01*
X134133446Y-99297708D01*
X134103153Y-99272847D01*
X134078292Y-99242554D01*
X134059820Y-99207995D01*
X134048445Y-99170499D01*
X134044000Y-99125362D01*
X134044000Y-98486638D01*
X134048445Y-98441501D01*
X134059820Y-98404005D01*
X134078292Y-98369446D01*
X134103153Y-98339153D01*
X134133446Y-98314292D01*
X134168005Y-98295820D01*
X134205501Y-98284445D01*
X134250638Y-98280000D01*
X134989362Y-98280000D01*
X135034499Y-98284445D01*
G37*
G36*
X130243000Y-97487000D02*
G01*
X129441000Y-97487000D01*
X129441000Y-95885000D01*
X130243000Y-95885000D01*
X130243000Y-97487000D01*
G37*
G36*
X131443000Y-97487000D02*
G01*
X130641000Y-97487000D01*
X130641000Y-95885000D01*
X131443000Y-95885000D01*
X131443000Y-97487000D01*
G37*
G36*
X132643000Y-97487000D02*
G01*
X131841000Y-97487000D01*
X131841000Y-95885000D01*
X132643000Y-95885000D01*
X132643000Y-97487000D01*
G37*
G36*
X135043000Y-97487000D02*
G01*
X134241000Y-97487000D01*
X134241000Y-95885000D01*
X135043000Y-95885000D01*
X135043000Y-97487000D01*
G37*
G36*
X133843000Y-97487000D02*
G01*
X133041000Y-97487000D01*
X133041000Y-95885000D01*
X133843000Y-95885000D01*
X133843000Y-97487000D01*
G37*
G36*
X136243000Y-97487000D02*
G01*
X135441000Y-97487000D01*
X135441000Y-95885000D01*
X136243000Y-95885000D01*
X136243000Y-97487000D01*
G37*
G36*
X137893000Y-95437000D02*
G01*
X136291000Y-95437000D01*
X136291000Y-94635000D01*
X137893000Y-94635000D01*
X137893000Y-95437000D01*
G37*
G36*
X129393000Y-95437000D02*
G01*
X127791000Y-95437000D01*
X127791000Y-94635000D01*
X129393000Y-94635000D01*
X129393000Y-95437000D01*
G37*
G36*
X137893000Y-94237000D02*
G01*
X136291000Y-94237000D01*
X136291000Y-93435000D01*
X137893000Y-93435000D01*
X137893000Y-94237000D01*
G37*
G36*
X129393000Y-94237000D02*
G01*
X127791000Y-94237000D01*
X127791000Y-93435000D01*
X129393000Y-93435000D01*
X129393000Y-94237000D01*
G37*
G36*
X129393000Y-93037000D02*
G01*
X127791000Y-93037000D01*
X127791000Y-92235000D01*
X129393000Y-92235000D01*
X129393000Y-93037000D01*
G37*
G36*
X137893000Y-93037000D02*
G01*
X136291000Y-93037000D01*
X136291000Y-92235000D01*
X137893000Y-92235000D01*
X137893000Y-93037000D01*
G37*
G36*
X129393000Y-91837000D02*
G01*
X127791000Y-91837000D01*
X127791000Y-91035000D01*
X129393000Y-91035000D01*
X129393000Y-91837000D01*
G37*
G36*
X137893000Y-91837000D02*
G01*
X136291000Y-91837000D01*
X136291000Y-91035000D01*
X137893000Y-91035000D01*
X137893000Y-91837000D01*
G37*
G36*
X142259499Y-89902445D02*
G01*
X142296995Y-89913820D01*
X142331554Y-89932292D01*
X142361847Y-89957153D01*
X142386708Y-89987446D01*
X142405180Y-90022005D01*
X142416555Y-90059501D01*
X142421000Y-90104638D01*
X142421000Y-90743362D01*
X142416555Y-90788499D01*
X142405180Y-90825995D01*
X142386708Y-90860554D01*
X142361847Y-90890847D01*
X142331554Y-90915708D01*
X142296995Y-90934180D01*
X142259499Y-90945555D01*
X142214362Y-90950000D01*
X141475638Y-90950000D01*
X141430501Y-90945555D01*
X141393005Y-90934180D01*
X141358446Y-90915708D01*
X141328153Y-90890847D01*
X141303292Y-90860554D01*
X141284820Y-90825995D01*
X141273445Y-90788499D01*
X141269000Y-90743362D01*
X141269000Y-90104638D01*
X141273445Y-90059501D01*
X141284820Y-90022005D01*
X141303292Y-89987446D01*
X141328153Y-89957153D01*
X141358446Y-89932292D01*
X141393005Y-89913820D01*
X141430501Y-89902445D01*
X141475638Y-89898000D01*
X142214362Y-89898000D01*
X142259499Y-89902445D01*
G37*
G36*
X140509499Y-89902445D02*
G01*
X140546995Y-89913820D01*
X140581554Y-89932292D01*
X140611847Y-89957153D01*
X140636708Y-89987446D01*
X140655180Y-90022005D01*
X140666555Y-90059501D01*
X140671000Y-90104638D01*
X140671000Y-90743362D01*
X140666555Y-90788499D01*
X140655180Y-90825995D01*
X140636708Y-90860554D01*
X140611847Y-90890847D01*
X140581554Y-90915708D01*
X140546995Y-90934180D01*
X140509499Y-90945555D01*
X140464362Y-90950000D01*
X139725638Y-90950000D01*
X139680501Y-90945555D01*
X139643005Y-90934180D01*
X139608446Y-90915708D01*
X139578153Y-90890847D01*
X139553292Y-90860554D01*
X139534820Y-90825995D01*
X139523445Y-90788499D01*
X139519000Y-90743362D01*
X139519000Y-90104638D01*
X139523445Y-90059501D01*
X139534820Y-90022005D01*
X139553292Y-89987446D01*
X139578153Y-89957153D01*
X139608446Y-89932292D01*
X139643005Y-89913820D01*
X139680501Y-89902445D01*
X139725638Y-89898000D01*
X140464362Y-89898000D01*
X140509499Y-89902445D01*
G37*
G36*
X129393000Y-90637000D02*
G01*
X127791000Y-90637000D01*
X127791000Y-89835000D01*
X129393000Y-89835000D01*
X129393000Y-90637000D01*
G37*
G36*
X137893000Y-90637000D02*
G01*
X136291000Y-90637000D01*
X136291000Y-89835000D01*
X137893000Y-89835000D01*
X137893000Y-90637000D01*
G37*
M02*
