G04 #@! TF.GenerationSoftware,KiCad,Pcbnew,(5.1.6)-1*
G04 #@! TF.CreationDate,2021-04-29T20:19:57-05:00*
G04 #@! TF.ProjectId,BEncoderBoard3(RN4871),42456e63-6f64-4657-9242-6f6172643328,rev?*
G04 #@! TF.SameCoordinates,Original*
G04 #@! TF.FileFunction,Copper,L2,Inr*
G04 #@! TF.FilePolarity,Positive*
%FSLAX46Y46*%
G04 Gerber Fmt 4.6, Leading zero omitted, Abs format (unit mm)*
G04 Created by KiCad (PCBNEW (5.1.6)-1) date 2021-04-29 20:19:57*
%MOMM*%
%LPD*%
G01*
G04 APERTURE LIST*
G04 #@! TA.AperFunction,ViaPad*
%ADD10C,7.000000*%
G04 #@! TD*
G04 #@! TA.AperFunction,ViaPad*
%ADD11C,0.450000*%
G04 #@! TD*
G04 #@! TA.AperFunction,Conductor*
%ADD12C,0.254000*%
G04 #@! TD*
G04 APERTURE END LIST*
D10*
X145415000Y-99822000D03*
X121285000Y-99822000D03*
D11*
X137922000Y-98806000D03*
X143510000Y-90424000D03*
D12*
G36*
X149840001Y-109322000D02*
G01*
X117160000Y-109322000D01*
X117160000Y-100279535D01*
X117308906Y-101028135D01*
X117620611Y-101780657D01*
X118073136Y-102457909D01*
X118649091Y-103033864D01*
X119326343Y-103486389D01*
X120078865Y-103798094D01*
X120877738Y-103957000D01*
X121692262Y-103957000D01*
X122491135Y-103798094D01*
X123243657Y-103486389D01*
X123920909Y-103033864D01*
X124496864Y-102457909D01*
X124949389Y-101780657D01*
X125261094Y-101028135D01*
X125420000Y-100229262D01*
X125420000Y-99414738D01*
X141280000Y-99414738D01*
X141280000Y-100229262D01*
X141438906Y-101028135D01*
X141750611Y-101780657D01*
X142203136Y-102457909D01*
X142779091Y-103033864D01*
X143456343Y-103486389D01*
X144208865Y-103798094D01*
X145007738Y-103957000D01*
X145822262Y-103957000D01*
X146621135Y-103798094D01*
X147373657Y-103486389D01*
X148050909Y-103033864D01*
X148626864Y-102457909D01*
X149079389Y-101780657D01*
X149391094Y-101028135D01*
X149550000Y-100229262D01*
X149550000Y-99414738D01*
X149391094Y-98615865D01*
X149079389Y-97863343D01*
X148626864Y-97186091D01*
X148050909Y-96610136D01*
X147373657Y-96157611D01*
X146621135Y-95845906D01*
X145822262Y-95687000D01*
X145007738Y-95687000D01*
X144208865Y-95845906D01*
X143456343Y-96157611D01*
X142779091Y-96610136D01*
X142203136Y-97186091D01*
X141750611Y-97863343D01*
X141438906Y-98615865D01*
X141280000Y-99414738D01*
X125420000Y-99414738D01*
X125261094Y-98615865D01*
X124949389Y-97863343D01*
X124496864Y-97186091D01*
X123920909Y-96610136D01*
X123243657Y-96157611D01*
X122491135Y-95845906D01*
X121692262Y-95687000D01*
X120877738Y-95687000D01*
X120078865Y-95845906D01*
X119326343Y-96157611D01*
X118649091Y-96610136D01*
X118073136Y-97186091D01*
X117620611Y-97863343D01*
X117308906Y-98615865D01*
X117160000Y-99364465D01*
X117160000Y-89154000D01*
X149840000Y-89154000D01*
X149840001Y-109322000D01*
G37*
X149840001Y-109322000D02*
X117160000Y-109322000D01*
X117160000Y-100279535D01*
X117308906Y-101028135D01*
X117620611Y-101780657D01*
X118073136Y-102457909D01*
X118649091Y-103033864D01*
X119326343Y-103486389D01*
X120078865Y-103798094D01*
X120877738Y-103957000D01*
X121692262Y-103957000D01*
X122491135Y-103798094D01*
X123243657Y-103486389D01*
X123920909Y-103033864D01*
X124496864Y-102457909D01*
X124949389Y-101780657D01*
X125261094Y-101028135D01*
X125420000Y-100229262D01*
X125420000Y-99414738D01*
X141280000Y-99414738D01*
X141280000Y-100229262D01*
X141438906Y-101028135D01*
X141750611Y-101780657D01*
X142203136Y-102457909D01*
X142779091Y-103033864D01*
X143456343Y-103486389D01*
X144208865Y-103798094D01*
X145007738Y-103957000D01*
X145822262Y-103957000D01*
X146621135Y-103798094D01*
X147373657Y-103486389D01*
X148050909Y-103033864D01*
X148626864Y-102457909D01*
X149079389Y-101780657D01*
X149391094Y-101028135D01*
X149550000Y-100229262D01*
X149550000Y-99414738D01*
X149391094Y-98615865D01*
X149079389Y-97863343D01*
X148626864Y-97186091D01*
X148050909Y-96610136D01*
X147373657Y-96157611D01*
X146621135Y-95845906D01*
X145822262Y-95687000D01*
X145007738Y-95687000D01*
X144208865Y-95845906D01*
X143456343Y-96157611D01*
X142779091Y-96610136D01*
X142203136Y-97186091D01*
X141750611Y-97863343D01*
X141438906Y-98615865D01*
X141280000Y-99414738D01*
X125420000Y-99414738D01*
X125261094Y-98615865D01*
X124949389Y-97863343D01*
X124496864Y-97186091D01*
X123920909Y-96610136D01*
X123243657Y-96157611D01*
X122491135Y-95845906D01*
X121692262Y-95687000D01*
X120877738Y-95687000D01*
X120078865Y-95845906D01*
X119326343Y-96157611D01*
X118649091Y-96610136D01*
X118073136Y-97186091D01*
X117620611Y-97863343D01*
X117308906Y-98615865D01*
X117160000Y-99364465D01*
X117160000Y-89154000D01*
X149840000Y-89154000D01*
X149840001Y-109322000D01*
M02*
