G04 #@! TF.GenerationSoftware,KiCad,Pcbnew,5.0.2+dfsg1-1~bpo9+1*
G04 #@! TF.CreationDate,2019-02-15T21:28:05-06:00*
G04 #@! TF.ProjectId,CommunicationBoard,436f6d6d-756e-4696-9361-74696f6e426f,rev?*
G04 #@! TF.SameCoordinates,Original*
G04 #@! TF.FileFunction,Copper,L1,Top*
G04 #@! TF.FilePolarity,Positive*
%FSLAX46Y46*%
G04 Gerber Fmt 4.6, Leading zero omitted, Abs format (unit mm)*
G04 Created by KiCad (PCBNEW 5.0.2+dfsg1-1~bpo9+1) date vie 15 feb 2019 21:28:05 CST*
%MOMM*%
%LPD*%
G01*
G04 APERTURE LIST*
G04 #@! TA.AperFunction,ComponentPad*
%ADD10C,1.524000*%
G04 #@! TD*
G04 #@! TA.AperFunction,SMDPad,CuDef*
%ADD11R,0.800000X3.000000*%
G04 #@! TD*
G04 #@! TA.AperFunction,SMDPad,CuDef*
%ADD12R,3.000000X0.800000*%
G04 #@! TD*
G04 #@! TA.AperFunction,ComponentPad*
%ADD13R,1.700000X1.700000*%
G04 #@! TD*
G04 #@! TA.AperFunction,ComponentPad*
%ADD14C,2.000000*%
G04 #@! TD*
G04 #@! TA.AperFunction,ComponentPad*
%ADD15R,3.200000X3.200000*%
G04 #@! TD*
G04 #@! TA.AperFunction,ComponentPad*
%ADD16O,3.200000X3.200000*%
G04 #@! TD*
G04 #@! TA.AperFunction,ViaPad*
%ADD17C,3.400000*%
G04 #@! TD*
G04 #@! TA.AperFunction,ViaPad*
%ADD18C,1.270000*%
G04 #@! TD*
G04 #@! TA.AperFunction,Conductor*
%ADD19C,0.635000*%
G04 #@! TD*
G04 #@! TA.AperFunction,Conductor*
%ADD20C,1.270000*%
G04 #@! TD*
G04 APERTURE END LIST*
D10*
G04 #@! TO.P,U1,4*
G04 #@! TO.N,Net-(D1-Pad1)*
X107607100Y-88747600D03*
G04 #@! TO.P,U1,3*
G04 #@! TO.N,Net-(D2-Pad1)*
X107607100Y-91287600D03*
G04 #@! TO.P,U1,2*
G04 #@! TO.N,+3V3*
X107607100Y-93827600D03*
G04 #@! TO.P,U1,1*
G04 #@! TO.N,GND*
X107607100Y-96367600D03*
G04 #@! TD*
D11*
G04 #@! TO.P,IC1,24*
G04 #@! TO.N,GND*
X118286100Y-112029100D03*
G04 #@! TO.P,IC1,23*
G04 #@! TO.N,+3V3*
X119486100Y-112029100D03*
G04 #@! TO.P,IC1,22*
G04 #@! TO.N,N/C*
X120686100Y-112029100D03*
G04 #@! TO.P,IC1,21*
X121886100Y-112029100D03*
G04 #@! TO.P,IC1,20*
X123086100Y-112029100D03*
G04 #@! TO.P,IC1,19*
X124286100Y-112029100D03*
G04 #@! TO.P,IC1,18*
G04 #@! TO.N,Net-(IC1-Pad18)*
X125486100Y-112029100D03*
G04 #@! TO.P,IC1,17*
G04 #@! TO.N,N/C*
X126686100Y-112029100D03*
D12*
G04 #@! TO.P,IC1,15*
X129936100Y-115529100D03*
G04 #@! TO.P,IC1,14*
G04 #@! TO.N,Net-(IC1-Pad14)*
X129936100Y-116729100D03*
G04 #@! TO.P,IC1,13*
G04 #@! TO.N,N/C*
X129936100Y-117929100D03*
G04 #@! TO.P,IC1,12*
X129936100Y-119129100D03*
G04 #@! TO.P,IC1,11*
X129936100Y-120329100D03*
G04 #@! TO.P,IC1,10*
X129936100Y-121529100D03*
D11*
G04 #@! TO.P,IC1,8*
G04 #@! TO.N,Net-(IC1-Pad8)*
X126686100Y-125029100D03*
G04 #@! TO.P,IC1,7*
G04 #@! TO.N,Net-(IC1-Pad7)*
X125486100Y-125029100D03*
G04 #@! TO.P,IC1,6*
G04 #@! TO.N,Net-(IC1-Pad6)*
X124286100Y-125029100D03*
G04 #@! TO.P,IC1,5*
G04 #@! TO.N,Net-(IC1-Pad5)*
X123086100Y-125029100D03*
G04 #@! TO.P,IC1,4*
G04 #@! TO.N,N/C*
X121886100Y-125029100D03*
G04 #@! TO.P,IC1,3*
X120686100Y-125029100D03*
G04 #@! TO.P,IC1,2*
X119486100Y-125029100D03*
G04 #@! TO.P,IC1,1*
X118286100Y-125029100D03*
G04 #@! TD*
D13*
G04 #@! TO.P,J6,1*
G04 #@! TO.N,Net-(IC1-Pad6)*
X125209300Y-133832600D03*
G04 #@! TD*
G04 #@! TO.P,J1,1*
G04 #@! TO.N,+3V3*
X146850100Y-133819900D03*
G04 #@! TD*
G04 #@! TO.P,J2,1*
G04 #@! TO.N,GND*
X143192500Y-133845300D03*
G04 #@! TD*
G04 #@! TO.P,J3,1*
G04 #@! TO.N,Net-(D1-Pad1)*
X117513100Y-138595100D03*
G04 #@! TD*
G04 #@! TO.P,J4,1*
G04 #@! TO.N,Net-(D2-Pad1)*
X117513100Y-143929100D03*
G04 #@! TD*
G04 #@! TO.P,J5,1*
G04 #@! TO.N,Net-(IC1-Pad5)*
X121627900Y-133858000D03*
G04 #@! TD*
G04 #@! TO.P,J7,1*
G04 #@! TO.N,Net-(IC1-Pad7)*
X128803400Y-133845300D03*
G04 #@! TD*
G04 #@! TO.P,J8,1*
G04 #@! TO.N,Net-(IC1-Pad8)*
X132384800Y-133845300D03*
G04 #@! TD*
G04 #@! TO.P,J9,1*
G04 #@! TO.N,Net-(IC1-Pad18)*
X139585700Y-133845300D03*
G04 #@! TD*
G04 #@! TO.P,J10,1*
G04 #@! TO.N,Net-(IC1-Pad14)*
X136004300Y-133845300D03*
G04 #@! TD*
D14*
G04 #@! TO.P,C1,1*
G04 #@! TO.N,+3V3*
X117563900Y-104965500D03*
G04 #@! TO.P,C1,2*
G04 #@! TO.N,GND*
X112563900Y-104965500D03*
G04 #@! TD*
D15*
G04 #@! TO.P,D1,1*
G04 #@! TO.N,Net-(D1-Pad1)*
X108115100Y-79832200D03*
D16*
G04 #@! TO.P,D1,2*
G04 #@! TO.N,GND*
X123355100Y-79832200D03*
G04 #@! TD*
G04 #@! TO.P,D2,2*
G04 #@! TO.N,GND*
X126123700Y-85674200D03*
D15*
G04 #@! TO.P,D2,1*
G04 #@! TO.N,Net-(D2-Pad1)*
X110883700Y-85674200D03*
G04 #@! TD*
G04 #@! TO.P,D3,1*
G04 #@! TO.N,+3V3*
X112458500Y-91414600D03*
D16*
G04 #@! TO.P,D3,2*
G04 #@! TO.N,GND*
X127698500Y-91414600D03*
G04 #@! TD*
D17*
G04 #@! TO.N,*
X152400000Y-136525000D03*
X152400000Y-142875000D03*
X152400000Y-73660000D03*
X143510000Y-73660000D03*
X102870000Y-73660000D03*
X93980000Y-73660000D03*
X93980000Y-136525000D03*
X93980000Y-142875000D03*
D18*
G04 #@! TO.N,GND*
X118300500Y-108572300D03*
G04 #@! TD*
D19*
G04 #@! TO.N,GND*
X118286100Y-108586700D02*
X118300500Y-108572300D01*
X118286100Y-112029100D02*
X118286100Y-108586700D01*
D20*
G04 #@! TO.N,+3V3*
X146850100Y-133819900D02*
X146850100Y-111163100D01*
X110045500Y-93827600D02*
X112458500Y-91414600D01*
X107607100Y-93827600D02*
X110045500Y-93827600D01*
X115328500Y-91414600D02*
X112458500Y-91414600D01*
X143802299Y-88925599D02*
X117817501Y-88925599D01*
X146850100Y-91973400D02*
X143802299Y-88925599D01*
X117817501Y-88925599D02*
X115328500Y-91414600D01*
D19*
X118563899Y-105965499D02*
X117563900Y-104965500D01*
X119507001Y-106908601D02*
X118563899Y-105965499D01*
X119486100Y-109894100D02*
X119507001Y-109873199D01*
X119486100Y-112029100D02*
X119486100Y-109894100D01*
X119507001Y-108826300D02*
X119634000Y-108826300D01*
X119507001Y-109873199D02*
X119507001Y-108826300D01*
X119507001Y-108826300D02*
X119507001Y-106908601D01*
X119634000Y-108826300D02*
X121018300Y-107442000D01*
X121018300Y-107442000D02*
X143929100Y-107442000D01*
D20*
X146850100Y-110363000D02*
X146850100Y-91973400D01*
D19*
X143929100Y-107442000D02*
X146850100Y-110363000D01*
D20*
X146850100Y-111163100D02*
X146850100Y-110363000D01*
D19*
G04 #@! TO.N,Net-(IC1-Pad5)*
X123086100Y-130914800D02*
X123086100Y-125029100D01*
X121627900Y-132373000D02*
X123086100Y-130914800D01*
X121627900Y-133858000D02*
X121627900Y-132373000D01*
G04 #@! TO.N,Net-(IC1-Pad6)*
X124273400Y-132896700D02*
X125209300Y-133832600D01*
X124286100Y-132884000D02*
X124286100Y-125029100D01*
X124273400Y-132896700D02*
X124286100Y-132884000D01*
G04 #@! TO.N,Net-(IC1-Pad18)*
X139585700Y-133845300D02*
X139585700Y-118770400D01*
X139585700Y-118770400D02*
X130327400Y-109512100D01*
X125486100Y-109894100D02*
X125486100Y-112029100D01*
X125868100Y-109512100D02*
X125486100Y-109894100D01*
X130327400Y-109512100D02*
X125868100Y-109512100D01*
G04 #@! TO.N,Net-(IC1-Pad7)*
X125473400Y-129512000D02*
X126746000Y-130784600D01*
X128803400Y-132360300D02*
X128803400Y-133845300D01*
X127227700Y-130784600D02*
X128803400Y-132360300D01*
X126746000Y-130784600D02*
X127227700Y-130784600D01*
X125486100Y-129499300D02*
X125486100Y-125029100D01*
X125473400Y-129512000D02*
X125486100Y-129499300D01*
G04 #@! TO.N,Net-(IC1-Pad8)*
X126673400Y-128133900D02*
X132384800Y-133845300D01*
X126686100Y-128121200D02*
X126686100Y-125029100D01*
X126673400Y-128133900D02*
X126686100Y-128121200D01*
G04 #@! TO.N,Net-(IC1-Pad14)*
X136004300Y-132360300D02*
X133972300Y-130328300D01*
X136004300Y-133845300D02*
X136004300Y-132360300D01*
X131664802Y-116729100D02*
X129936100Y-116729100D01*
X133972300Y-119036598D02*
X131664802Y-116729100D01*
X133972300Y-130328300D02*
X133972300Y-119036598D01*
D20*
G04 #@! TO.N,Net-(D1-Pad1)*
X107607100Y-80340200D02*
X108115100Y-79832200D01*
X107607100Y-88747600D02*
X107607100Y-80340200D01*
X114731800Y-138595100D02*
X117513100Y-138595100D01*
X103581200Y-127444500D02*
X114731800Y-138595100D01*
X103581200Y-92773500D02*
X103581200Y-127444500D01*
X107607100Y-88747600D02*
X103581200Y-92773500D01*
G04 #@! TO.N,Net-(D2-Pad1)*
X110883700Y-88011000D02*
X110883700Y-85674200D01*
X107607100Y-91287600D02*
X110883700Y-88011000D01*
X99085400Y-130111500D02*
X99085400Y-94825818D01*
X117513100Y-143929100D02*
X112903000Y-143929100D01*
X99085400Y-94825818D02*
X99085400Y-83985100D01*
X112903000Y-143929100D02*
X99085400Y-130111500D01*
X99085400Y-83985100D02*
X99085400Y-83693000D01*
X113753900Y-85674200D02*
X110883700Y-85674200D01*
X115633500Y-83794600D02*
X113753900Y-85674200D01*
X115633500Y-78714600D02*
X115633500Y-83794600D01*
X99085400Y-83985100D02*
X99085400Y-82969100D01*
X99085400Y-82969100D02*
X105549700Y-76504800D01*
X105549700Y-76504800D02*
X113423700Y-76504800D01*
X113423700Y-76504800D02*
X115633500Y-78714600D01*
G04 #@! TD*
M02*
