M48
;DRILL file {KiCad 5.0.2+dfsg1-1~bpo9+1} date vie 15 feb 2019 21:28:08 CST
;FORMAT={-:-/ absolute / inch / decimal}
FMAT,2
INCH,TZ
T1C0.0250
T2C0.0394
T3C0.0400
T4C0.0420
T5C0.0630
T6C0.1260
%
G90
G05
T1
X4.6575Y-4.2745
T2
X4.6265Y-5.6665
X4.6265Y-5.4565
X4.9295Y-5.269
X4.4316Y-4.1325
X4.6285Y-4.1325
X5.3545Y-5.2695
X5.7815Y-5.2685
X5.4955Y-5.2695
X5.071Y-5.2695
X4.7885Y-5.27
X5.212Y-5.2695
X5.6375Y-5.2695
T3
X4.2365Y-3.494
X4.2365Y-3.694
X4.2365Y-3.794
T4
X4.2365Y-3.594
T5
X4.3655Y-3.373
X4.9655Y-3.373
X4.4275Y-3.599
X5.0275Y-3.599
X4.2565Y-3.143
X4.8565Y-3.143
T6
X3.7Y-2.9
X3.7Y-5.375
X3.7Y-5.625
X4.05Y-2.9
X5.65Y-2.9
X6.Y-2.9
X6.Y-5.375
X6.Y-5.625
T0
M30
