G04 #@! TF.GenerationSoftware,KiCad,Pcbnew,5.0.2+dfsg1-1~bpo9+1*
G04 #@! TF.CreationDate,2019-02-15T21:28:05-06:00*
G04 #@! TF.ProjectId,CommunicationBoard,436f6d6d-756e-4696-9361-74696f6e426f,rev?*
G04 #@! TF.SameCoordinates,Original*
G04 #@! TF.FileFunction,Copper,L2,Bot*
G04 #@! TF.FilePolarity,Positive*
%FSLAX46Y46*%
G04 Gerber Fmt 4.6, Leading zero omitted, Abs format (unit mm)*
G04 Created by KiCad (PCBNEW 5.0.2+dfsg1-1~bpo9+1) date vie 15 feb 2019 21:28:05 CST*
%MOMM*%
%LPD*%
G01*
G04 APERTURE LIST*
G04 #@! TA.AperFunction,ComponentPad*
%ADD10C,1.524000*%
G04 #@! TD*
G04 #@! TA.AperFunction,ComponentPad*
%ADD11R,1.700000X1.700000*%
G04 #@! TD*
G04 #@! TA.AperFunction,ComponentPad*
%ADD12C,2.000000*%
G04 #@! TD*
G04 #@! TA.AperFunction,ComponentPad*
%ADD13R,3.200000X3.200000*%
G04 #@! TD*
G04 #@! TA.AperFunction,ComponentPad*
%ADD14O,3.200000X3.200000*%
G04 #@! TD*
G04 #@! TA.AperFunction,ViaPad*
%ADD15C,3.400000*%
G04 #@! TD*
G04 #@! TA.AperFunction,ViaPad*
%ADD16C,1.270000*%
G04 #@! TD*
G04 #@! TA.AperFunction,Conductor*
%ADD17C,0.254000*%
G04 #@! TD*
G04 APERTURE END LIST*
D10*
G04 #@! TO.P,U1,4*
G04 #@! TO.N,Net-(D1-Pad1)*
X107607100Y-88747600D03*
G04 #@! TO.P,U1,3*
G04 #@! TO.N,Net-(D2-Pad1)*
X107607100Y-91287600D03*
G04 #@! TO.P,U1,2*
G04 #@! TO.N,+3V3*
X107607100Y-93827600D03*
G04 #@! TO.P,U1,1*
G04 #@! TO.N,GND*
X107607100Y-96367600D03*
G04 #@! TD*
D11*
G04 #@! TO.P,J6,1*
G04 #@! TO.N,Net-(IC1-Pad6)*
X125209300Y-133832600D03*
G04 #@! TD*
G04 #@! TO.P,J1,1*
G04 #@! TO.N,+3V3*
X146850100Y-133819900D03*
G04 #@! TD*
G04 #@! TO.P,J2,1*
G04 #@! TO.N,GND*
X143192500Y-133845300D03*
G04 #@! TD*
G04 #@! TO.P,J3,1*
G04 #@! TO.N,Net-(D1-Pad1)*
X117513100Y-138595100D03*
G04 #@! TD*
G04 #@! TO.P,J4,1*
G04 #@! TO.N,Net-(D2-Pad1)*
X117513100Y-143929100D03*
G04 #@! TD*
G04 #@! TO.P,J5,1*
G04 #@! TO.N,Net-(IC1-Pad5)*
X121627900Y-133858000D03*
G04 #@! TD*
G04 #@! TO.P,J7,1*
G04 #@! TO.N,Net-(IC1-Pad7)*
X128803400Y-133845300D03*
G04 #@! TD*
G04 #@! TO.P,J8,1*
G04 #@! TO.N,Net-(IC1-Pad8)*
X132384800Y-133845300D03*
G04 #@! TD*
G04 #@! TO.P,J9,1*
G04 #@! TO.N,Net-(IC1-Pad18)*
X139585700Y-133845300D03*
G04 #@! TD*
G04 #@! TO.P,J10,1*
G04 #@! TO.N,Net-(IC1-Pad14)*
X136004300Y-133845300D03*
G04 #@! TD*
D12*
G04 #@! TO.P,C1,1*
G04 #@! TO.N,+3V3*
X117563900Y-104965500D03*
G04 #@! TO.P,C1,2*
G04 #@! TO.N,GND*
X112563900Y-104965500D03*
G04 #@! TD*
D13*
G04 #@! TO.P,D1,1*
G04 #@! TO.N,Net-(D1-Pad1)*
X108115100Y-79832200D03*
D14*
G04 #@! TO.P,D1,2*
G04 #@! TO.N,GND*
X123355100Y-79832200D03*
G04 #@! TD*
G04 #@! TO.P,D2,2*
G04 #@! TO.N,GND*
X126123700Y-85674200D03*
D13*
G04 #@! TO.P,D2,1*
G04 #@! TO.N,Net-(D2-Pad1)*
X110883700Y-85674200D03*
G04 #@! TD*
G04 #@! TO.P,D3,1*
G04 #@! TO.N,+3V3*
X112458500Y-91414600D03*
D14*
G04 #@! TO.P,D3,2*
G04 #@! TO.N,GND*
X127698500Y-91414600D03*
G04 #@! TD*
D15*
G04 #@! TO.N,*
X152400000Y-136525000D03*
X152400000Y-142875000D03*
X152400000Y-73660000D03*
X143510000Y-73660000D03*
X102870000Y-73660000D03*
X93980000Y-73660000D03*
X93980000Y-136525000D03*
X93980000Y-142875000D03*
D16*
G04 #@! TO.N,GND*
X118300500Y-108572300D03*
G04 #@! TD*
D17*
G04 #@! TO.N,GND*
G36*
X155500001Y-146585000D02*
X149325000Y-146585000D01*
X149325000Y-142410540D01*
X150065000Y-142410540D01*
X150065000Y-143339460D01*
X150420483Y-144197671D01*
X151077329Y-144854517D01*
X151935540Y-145210000D01*
X152864460Y-145210000D01*
X153722671Y-144854517D01*
X154379517Y-144197671D01*
X154735000Y-143339460D01*
X154735000Y-142410540D01*
X154379517Y-141552329D01*
X153722671Y-140895483D01*
X152864460Y-140540000D01*
X151935540Y-140540000D01*
X151077329Y-140895483D01*
X150420483Y-141552329D01*
X150065000Y-142410540D01*
X149325000Y-142410540D01*
X149325000Y-136060540D01*
X150065000Y-136060540D01*
X150065000Y-136989460D01*
X150420483Y-137847671D01*
X151077329Y-138504517D01*
X151935540Y-138860000D01*
X152864460Y-138860000D01*
X153722671Y-138504517D01*
X154379517Y-137847671D01*
X154735000Y-136989460D01*
X154735000Y-136060540D01*
X154379517Y-135202329D01*
X153722671Y-134545483D01*
X152864460Y-134190000D01*
X151935540Y-134190000D01*
X151077329Y-134545483D01*
X150420483Y-135202329D01*
X150065000Y-136060540D01*
X149325000Y-136060540D01*
X149325000Y-135962388D01*
X149339399Y-135890000D01*
X149282354Y-135603217D01*
X149119905Y-135360095D01*
X148876783Y-135197646D01*
X148662388Y-135155000D01*
X148590000Y-135140601D01*
X148517612Y-135155000D01*
X148117065Y-135155000D01*
X148157909Y-135127709D01*
X148298257Y-134917665D01*
X148347540Y-134669900D01*
X148347540Y-132969900D01*
X148298257Y-132722135D01*
X148157909Y-132512091D01*
X147947865Y-132371743D01*
X147700100Y-132322460D01*
X146000100Y-132322460D01*
X145752335Y-132371743D01*
X145542291Y-132512091D01*
X145401943Y-132722135D01*
X145352660Y-132969900D01*
X145352660Y-134669900D01*
X145401943Y-134917665D01*
X145542291Y-135127709D01*
X145583135Y-135155000D01*
X144480825Y-135155000D01*
X144580827Y-135054999D01*
X144677500Y-134821610D01*
X144677500Y-134131050D01*
X144518750Y-133972300D01*
X143319500Y-133972300D01*
X143319500Y-133992300D01*
X143065500Y-133992300D01*
X143065500Y-133972300D01*
X141866250Y-133972300D01*
X141707500Y-134131050D01*
X141707500Y-134821610D01*
X141804173Y-135054999D01*
X141904175Y-135155000D01*
X140890679Y-135155000D01*
X140893509Y-135153109D01*
X141033857Y-134943065D01*
X141083140Y-134695300D01*
X141083140Y-132995300D01*
X141058016Y-132868990D01*
X141707500Y-132868990D01*
X141707500Y-133559550D01*
X141866250Y-133718300D01*
X143065500Y-133718300D01*
X143065500Y-132519050D01*
X143319500Y-132519050D01*
X143319500Y-133718300D01*
X144518750Y-133718300D01*
X144677500Y-133559550D01*
X144677500Y-132868990D01*
X144580827Y-132635601D01*
X144402198Y-132456973D01*
X144168809Y-132360300D01*
X143478250Y-132360300D01*
X143319500Y-132519050D01*
X143065500Y-132519050D01*
X142906750Y-132360300D01*
X142216191Y-132360300D01*
X141982802Y-132456973D01*
X141804173Y-132635601D01*
X141707500Y-132868990D01*
X141058016Y-132868990D01*
X141033857Y-132747535D01*
X140893509Y-132537491D01*
X140683465Y-132397143D01*
X140435700Y-132347860D01*
X138735700Y-132347860D01*
X138487935Y-132397143D01*
X138277891Y-132537491D01*
X138137543Y-132747535D01*
X138088260Y-132995300D01*
X138088260Y-134695300D01*
X138137543Y-134943065D01*
X138277891Y-135153109D01*
X138280721Y-135155000D01*
X137309279Y-135155000D01*
X137312109Y-135153109D01*
X137452457Y-134943065D01*
X137501740Y-134695300D01*
X137501740Y-132995300D01*
X137452457Y-132747535D01*
X137312109Y-132537491D01*
X137102065Y-132397143D01*
X136854300Y-132347860D01*
X135154300Y-132347860D01*
X134906535Y-132397143D01*
X134696491Y-132537491D01*
X134556143Y-132747535D01*
X134506860Y-132995300D01*
X134506860Y-134695300D01*
X134556143Y-134943065D01*
X134696491Y-135153109D01*
X134699321Y-135155000D01*
X133689779Y-135155000D01*
X133692609Y-135153109D01*
X133832957Y-134943065D01*
X133882240Y-134695300D01*
X133882240Y-132995300D01*
X133832957Y-132747535D01*
X133692609Y-132537491D01*
X133482565Y-132397143D01*
X133234800Y-132347860D01*
X131534800Y-132347860D01*
X131287035Y-132397143D01*
X131076991Y-132537491D01*
X130936643Y-132747535D01*
X130887360Y-132995300D01*
X130887360Y-134695300D01*
X130936643Y-134943065D01*
X131076991Y-135153109D01*
X131079821Y-135155000D01*
X130108379Y-135155000D01*
X130111209Y-135153109D01*
X130251557Y-134943065D01*
X130300840Y-134695300D01*
X130300840Y-132995300D01*
X130251557Y-132747535D01*
X130111209Y-132537491D01*
X129901165Y-132397143D01*
X129653400Y-132347860D01*
X127953400Y-132347860D01*
X127705635Y-132397143D01*
X127495591Y-132537491D01*
X127355243Y-132747535D01*
X127305960Y-132995300D01*
X127305960Y-134695300D01*
X127355243Y-134943065D01*
X127495591Y-135153109D01*
X127498421Y-135155000D01*
X126495272Y-135155000D01*
X126517109Y-135140409D01*
X126657457Y-134930365D01*
X126706740Y-134682600D01*
X126706740Y-132982600D01*
X126657457Y-132734835D01*
X126517109Y-132524791D01*
X126307065Y-132384443D01*
X126059300Y-132335160D01*
X124359300Y-132335160D01*
X124111535Y-132384443D01*
X123901491Y-132524791D01*
X123761143Y-132734835D01*
X123711860Y-132982600D01*
X123711860Y-134682600D01*
X123761143Y-134930365D01*
X123901491Y-135140409D01*
X123923328Y-135155000D01*
X122942931Y-135155000D01*
X123076057Y-134955765D01*
X123125340Y-134708000D01*
X123125340Y-133008000D01*
X123076057Y-132760235D01*
X122935709Y-132550191D01*
X122725665Y-132409843D01*
X122477900Y-132360560D01*
X120777900Y-132360560D01*
X120530135Y-132409843D01*
X120320091Y-132550191D01*
X120179743Y-132760235D01*
X120130460Y-133008000D01*
X120130460Y-134708000D01*
X120179743Y-134955765D01*
X120312869Y-135155000D01*
X119452388Y-135155000D01*
X119380000Y-135140601D01*
X119307612Y-135155000D01*
X119093217Y-135197646D01*
X118850095Y-135360095D01*
X118687646Y-135603217D01*
X118630601Y-135890000D01*
X118645000Y-135962388D01*
X118645000Y-137169752D01*
X118610865Y-137146943D01*
X118363100Y-137097660D01*
X116663100Y-137097660D01*
X116415335Y-137146943D01*
X116205291Y-137287291D01*
X116064943Y-137497335D01*
X116015660Y-137745100D01*
X116015660Y-139445100D01*
X116064943Y-139692865D01*
X116205291Y-139902909D01*
X116415335Y-140043257D01*
X116663100Y-140092540D01*
X118363100Y-140092540D01*
X118610865Y-140043257D01*
X118645000Y-140020448D01*
X118645001Y-142503752D01*
X118610865Y-142480943D01*
X118363100Y-142431660D01*
X116663100Y-142431660D01*
X116415335Y-142480943D01*
X116205291Y-142621291D01*
X116064943Y-142831335D01*
X116015660Y-143079100D01*
X116015660Y-144779100D01*
X116064943Y-145026865D01*
X116205291Y-145236909D01*
X116415335Y-145377257D01*
X116663100Y-145426540D01*
X118363100Y-145426540D01*
X118610865Y-145377257D01*
X118645001Y-145354448D01*
X118645001Y-146585000D01*
X90880000Y-146585000D01*
X90880000Y-142410540D01*
X91645000Y-142410540D01*
X91645000Y-143339460D01*
X92000483Y-144197671D01*
X92657329Y-144854517D01*
X93515540Y-145210000D01*
X94444460Y-145210000D01*
X95302671Y-144854517D01*
X95959517Y-144197671D01*
X96315000Y-143339460D01*
X96315000Y-142410540D01*
X95959517Y-141552329D01*
X95302671Y-140895483D01*
X94444460Y-140540000D01*
X93515540Y-140540000D01*
X92657329Y-140895483D01*
X92000483Y-141552329D01*
X91645000Y-142410540D01*
X90880000Y-142410540D01*
X90880000Y-136060540D01*
X91645000Y-136060540D01*
X91645000Y-136989460D01*
X92000483Y-137847671D01*
X92657329Y-138504517D01*
X93515540Y-138860000D01*
X94444460Y-138860000D01*
X95302671Y-138504517D01*
X95959517Y-137847671D01*
X96315000Y-136989460D01*
X96315000Y-136060540D01*
X95959517Y-135202329D01*
X95302671Y-134545483D01*
X94444460Y-134190000D01*
X93515540Y-134190000D01*
X92657329Y-134545483D01*
X92000483Y-135202329D01*
X91645000Y-136060540D01*
X90880000Y-136060540D01*
X90880000Y-110266878D01*
X107327700Y-110266878D01*
X107327700Y-126776878D01*
X107337367Y-126825479D01*
X107364897Y-126866681D01*
X107406099Y-126894211D01*
X107454700Y-126903878D01*
X117614700Y-126903878D01*
X117663301Y-126894211D01*
X117704503Y-126866681D01*
X117732033Y-126825479D01*
X117741700Y-126776878D01*
X117741700Y-110266878D01*
X117732033Y-110218277D01*
X117704503Y-110177075D01*
X117663301Y-110149545D01*
X117614700Y-110139878D01*
X107454700Y-110139878D01*
X107406099Y-110149545D01*
X107364897Y-110177075D01*
X107337367Y-110218277D01*
X107327700Y-110266878D01*
X90880000Y-110266878D01*
X90880000Y-106118032D01*
X111590973Y-106118032D01*
X111689636Y-106384887D01*
X112299361Y-106611408D01*
X112949360Y-106587356D01*
X113438164Y-106384887D01*
X113536827Y-106118032D01*
X112563900Y-105145105D01*
X111590973Y-106118032D01*
X90880000Y-106118032D01*
X90880000Y-104700961D01*
X110917992Y-104700961D01*
X110942044Y-105350960D01*
X111144513Y-105839764D01*
X111411368Y-105938427D01*
X112384295Y-104965500D01*
X112743505Y-104965500D01*
X113716432Y-105938427D01*
X113983287Y-105839764D01*
X114209808Y-105230039D01*
X114187985Y-104640278D01*
X115928900Y-104640278D01*
X115928900Y-105290722D01*
X116177814Y-105891653D01*
X116637747Y-106351586D01*
X117238678Y-106600500D01*
X117889122Y-106600500D01*
X118490053Y-106351586D01*
X118949986Y-105891653D01*
X119198900Y-105290722D01*
X119198900Y-104640278D01*
X118949986Y-104039347D01*
X118490053Y-103579414D01*
X117889122Y-103330500D01*
X117238678Y-103330500D01*
X116637747Y-103579414D01*
X116177814Y-104039347D01*
X115928900Y-104640278D01*
X114187985Y-104640278D01*
X114185756Y-104580040D01*
X113983287Y-104091236D01*
X113716432Y-103992573D01*
X112743505Y-104965500D01*
X112384295Y-104965500D01*
X111411368Y-103992573D01*
X111144513Y-104091236D01*
X110917992Y-104700961D01*
X90880000Y-104700961D01*
X90880000Y-103812968D01*
X111590973Y-103812968D01*
X112563900Y-104785895D01*
X113536827Y-103812968D01*
X113438164Y-103546113D01*
X112828439Y-103319592D01*
X112178440Y-103343644D01*
X111689636Y-103546113D01*
X111590973Y-103812968D01*
X90880000Y-103812968D01*
X90880000Y-101334501D01*
X141807981Y-101422200D01*
X141856208Y-101412777D01*
X141897548Y-101385455D01*
X141925286Y-101344393D01*
X141935198Y-101295841D01*
X141947898Y-98781241D01*
X141938221Y-98731970D01*
X141910680Y-98690775D01*
X141869472Y-98663255D01*
X141820869Y-98653600D01*
X90880000Y-98666132D01*
X90880000Y-97347813D01*
X106806492Y-97347813D01*
X106875957Y-97589997D01*
X107399402Y-97776744D01*
X107954468Y-97748962D01*
X108338243Y-97589997D01*
X108407708Y-97347813D01*
X107607100Y-96547205D01*
X106806492Y-97347813D01*
X90880000Y-97347813D01*
X90880000Y-96159902D01*
X106197956Y-96159902D01*
X106225738Y-96714968D01*
X106384703Y-97098743D01*
X106626887Y-97168208D01*
X107427495Y-96367600D01*
X107786705Y-96367600D01*
X108587313Y-97168208D01*
X108829497Y-97098743D01*
X109016244Y-96575298D01*
X108988462Y-96020232D01*
X108829497Y-95636457D01*
X108587313Y-95566992D01*
X107786705Y-96367600D01*
X107427495Y-96367600D01*
X106626887Y-95566992D01*
X106384703Y-95636457D01*
X106197956Y-96159902D01*
X90880000Y-96159902D01*
X90880000Y-88469719D01*
X106210100Y-88469719D01*
X106210100Y-89025481D01*
X106422780Y-89538937D01*
X106815763Y-89931920D01*
X107022613Y-90017600D01*
X106815763Y-90103280D01*
X106422780Y-90496263D01*
X106210100Y-91009719D01*
X106210100Y-91565481D01*
X106422780Y-92078937D01*
X106815763Y-92471920D01*
X107022613Y-92557600D01*
X106815763Y-92643280D01*
X106422780Y-93036263D01*
X106210100Y-93549719D01*
X106210100Y-94105481D01*
X106422780Y-94618937D01*
X106815763Y-95011920D01*
X107006747Y-95091028D01*
X106875957Y-95145203D01*
X106806492Y-95387387D01*
X107607100Y-96187995D01*
X108407708Y-95387387D01*
X108338243Y-95145203D01*
X108197707Y-95095065D01*
X108398437Y-95011920D01*
X108791420Y-94618937D01*
X109004100Y-94105481D01*
X109004100Y-93549719D01*
X108791420Y-93036263D01*
X108398437Y-92643280D01*
X108191587Y-92557600D01*
X108398437Y-92471920D01*
X108791420Y-92078937D01*
X109004100Y-91565481D01*
X109004100Y-91009719D01*
X108791420Y-90496263D01*
X108398437Y-90103280D01*
X108191587Y-90017600D01*
X108398437Y-89931920D01*
X108515757Y-89814600D01*
X110211060Y-89814600D01*
X110211060Y-93014600D01*
X110260343Y-93262365D01*
X110400691Y-93472409D01*
X110610735Y-93612757D01*
X110858500Y-93662040D01*
X114058500Y-93662040D01*
X114306265Y-93612757D01*
X114516309Y-93472409D01*
X114656657Y-93262365D01*
X114705940Y-93014600D01*
X114705940Y-91889103D01*
X125514450Y-91889103D01*
X125818614Y-92623436D01*
X126424313Y-93250820D01*
X127223996Y-93598656D01*
X127571500Y-93487245D01*
X127571500Y-91541600D01*
X127825500Y-91541600D01*
X127825500Y-93487245D01*
X128173004Y-93598656D01*
X128972687Y-93250820D01*
X129578386Y-92623436D01*
X129882550Y-91889103D01*
X129770862Y-91541600D01*
X127825500Y-91541600D01*
X127571500Y-91541600D01*
X125626138Y-91541600D01*
X125514450Y-91889103D01*
X114705940Y-91889103D01*
X114705940Y-90940097D01*
X125514450Y-90940097D01*
X125626138Y-91287600D01*
X127571500Y-91287600D01*
X127571500Y-89341955D01*
X127825500Y-89341955D01*
X127825500Y-91287600D01*
X129770862Y-91287600D01*
X129882550Y-90940097D01*
X129578386Y-90205764D01*
X128972687Y-89578380D01*
X128173004Y-89230544D01*
X127825500Y-89341955D01*
X127571500Y-89341955D01*
X127223996Y-89230544D01*
X126424313Y-89578380D01*
X125818614Y-90205764D01*
X125514450Y-90940097D01*
X114705940Y-90940097D01*
X114705940Y-89814600D01*
X114656657Y-89566835D01*
X114516309Y-89356791D01*
X114306265Y-89216443D01*
X114058500Y-89167160D01*
X110858500Y-89167160D01*
X110610735Y-89216443D01*
X110400691Y-89356791D01*
X110260343Y-89566835D01*
X110211060Y-89814600D01*
X108515757Y-89814600D01*
X108791420Y-89538937D01*
X109004100Y-89025481D01*
X109004100Y-88469719D01*
X108791420Y-87956263D01*
X108398437Y-87563280D01*
X107884981Y-87350600D01*
X107329219Y-87350600D01*
X106815763Y-87563280D01*
X106422780Y-87956263D01*
X106210100Y-88469719D01*
X90880000Y-88469719D01*
X90880000Y-84074200D01*
X108636260Y-84074200D01*
X108636260Y-87274200D01*
X108685543Y-87521965D01*
X108825891Y-87732009D01*
X109035935Y-87872357D01*
X109283700Y-87921640D01*
X112483700Y-87921640D01*
X112731465Y-87872357D01*
X112941509Y-87732009D01*
X113081857Y-87521965D01*
X113131140Y-87274200D01*
X113131140Y-86148703D01*
X123939650Y-86148703D01*
X124243814Y-86883036D01*
X124849513Y-87510420D01*
X125649196Y-87858256D01*
X125996700Y-87746845D01*
X125996700Y-85801200D01*
X126250700Y-85801200D01*
X126250700Y-87746845D01*
X126598204Y-87858256D01*
X127397887Y-87510420D01*
X128003586Y-86883036D01*
X128307750Y-86148703D01*
X128196062Y-85801200D01*
X126250700Y-85801200D01*
X125996700Y-85801200D01*
X124051338Y-85801200D01*
X123939650Y-86148703D01*
X113131140Y-86148703D01*
X113131140Y-85199697D01*
X123939650Y-85199697D01*
X124051338Y-85547200D01*
X125996700Y-85547200D01*
X125996700Y-83601555D01*
X126250700Y-83601555D01*
X126250700Y-85547200D01*
X128196062Y-85547200D01*
X128307750Y-85199697D01*
X128003586Y-84465364D01*
X127397887Y-83837980D01*
X126598204Y-83490144D01*
X126250700Y-83601555D01*
X125996700Y-83601555D01*
X125649196Y-83490144D01*
X124849513Y-83837980D01*
X124243814Y-84465364D01*
X123939650Y-85199697D01*
X113131140Y-85199697D01*
X113131140Y-84074200D01*
X113081857Y-83826435D01*
X112941509Y-83616391D01*
X112731465Y-83476043D01*
X112483700Y-83426760D01*
X109283700Y-83426760D01*
X109035935Y-83476043D01*
X108825891Y-83616391D01*
X108685543Y-83826435D01*
X108636260Y-84074200D01*
X90880000Y-84074200D01*
X90880000Y-78232200D01*
X105867660Y-78232200D01*
X105867660Y-81432200D01*
X105916943Y-81679965D01*
X106057291Y-81890009D01*
X106267335Y-82030357D01*
X106515100Y-82079640D01*
X109715100Y-82079640D01*
X109962865Y-82030357D01*
X110172909Y-81890009D01*
X110313257Y-81679965D01*
X110362540Y-81432200D01*
X110362540Y-80306703D01*
X121171050Y-80306703D01*
X121475214Y-81041036D01*
X122080913Y-81668420D01*
X122880596Y-82016256D01*
X123228100Y-81904845D01*
X123228100Y-79959200D01*
X123482100Y-79959200D01*
X123482100Y-81904845D01*
X123829604Y-82016256D01*
X124629287Y-81668420D01*
X125234986Y-81041036D01*
X125539150Y-80306703D01*
X125427462Y-79959200D01*
X123482100Y-79959200D01*
X123228100Y-79959200D01*
X121282738Y-79959200D01*
X121171050Y-80306703D01*
X110362540Y-80306703D01*
X110362540Y-79357697D01*
X121171050Y-79357697D01*
X121282738Y-79705200D01*
X123228100Y-79705200D01*
X123228100Y-77759555D01*
X123482100Y-77759555D01*
X123482100Y-79705200D01*
X125427462Y-79705200D01*
X125539150Y-79357697D01*
X125234986Y-78623364D01*
X124629287Y-77995980D01*
X123829604Y-77648144D01*
X123482100Y-77759555D01*
X123228100Y-77759555D01*
X122880596Y-77648144D01*
X122080913Y-77995980D01*
X121475214Y-78623364D01*
X121171050Y-79357697D01*
X110362540Y-79357697D01*
X110362540Y-78232200D01*
X110313257Y-77984435D01*
X110172909Y-77774391D01*
X109962865Y-77634043D01*
X109715100Y-77584760D01*
X106515100Y-77584760D01*
X106267335Y-77634043D01*
X106057291Y-77774391D01*
X105916943Y-77984435D01*
X105867660Y-78232200D01*
X90880000Y-78232200D01*
X90880000Y-73195540D01*
X91645000Y-73195540D01*
X91645000Y-74124460D01*
X92000483Y-74982671D01*
X92657329Y-75639517D01*
X93515540Y-75995000D01*
X94444460Y-75995000D01*
X95302671Y-75639517D01*
X95959517Y-74982671D01*
X96315000Y-74124460D01*
X96315000Y-73195540D01*
X100535000Y-73195540D01*
X100535000Y-74124460D01*
X100890483Y-74982671D01*
X101547329Y-75639517D01*
X102405540Y-75995000D01*
X103334460Y-75995000D01*
X104192671Y-75639517D01*
X104849517Y-74982671D01*
X105205000Y-74124460D01*
X105205000Y-73195540D01*
X141175000Y-73195540D01*
X141175000Y-74124460D01*
X141530483Y-74982671D01*
X142187329Y-75639517D01*
X143045540Y-75995000D01*
X143974460Y-75995000D01*
X144832671Y-75639517D01*
X145489517Y-74982671D01*
X145845000Y-74124460D01*
X145845000Y-73195540D01*
X150065000Y-73195540D01*
X150065000Y-74124460D01*
X150420483Y-74982671D01*
X151077329Y-75639517D01*
X151935540Y-75995000D01*
X152864460Y-75995000D01*
X153722671Y-75639517D01*
X154379517Y-74982671D01*
X154735000Y-74124460D01*
X154735000Y-73195540D01*
X154379517Y-72337329D01*
X153722671Y-71680483D01*
X152864460Y-71325000D01*
X151935540Y-71325000D01*
X151077329Y-71680483D01*
X150420483Y-72337329D01*
X150065000Y-73195540D01*
X145845000Y-73195540D01*
X145489517Y-72337329D01*
X144832671Y-71680483D01*
X143974460Y-71325000D01*
X143045540Y-71325000D01*
X142187329Y-71680483D01*
X141530483Y-72337329D01*
X141175000Y-73195540D01*
X105205000Y-73195540D01*
X104849517Y-72337329D01*
X104192671Y-71680483D01*
X103334460Y-71325000D01*
X102405540Y-71325000D01*
X101547329Y-71680483D01*
X100890483Y-72337329D01*
X100535000Y-73195540D01*
X96315000Y-73195540D01*
X95959517Y-72337329D01*
X95302671Y-71680483D01*
X94444460Y-71325000D01*
X93515540Y-71325000D01*
X92657329Y-71680483D01*
X92000483Y-72337329D01*
X91645000Y-73195540D01*
X90880000Y-73195540D01*
X90880000Y-70560000D01*
X155500000Y-70560000D01*
X155500001Y-146585000D01*
X155500001Y-146585000D01*
G37*
X155500001Y-146585000D02*
X149325000Y-146585000D01*
X149325000Y-142410540D01*
X150065000Y-142410540D01*
X150065000Y-143339460D01*
X150420483Y-144197671D01*
X151077329Y-144854517D01*
X151935540Y-145210000D01*
X152864460Y-145210000D01*
X153722671Y-144854517D01*
X154379517Y-144197671D01*
X154735000Y-143339460D01*
X154735000Y-142410540D01*
X154379517Y-141552329D01*
X153722671Y-140895483D01*
X152864460Y-140540000D01*
X151935540Y-140540000D01*
X151077329Y-140895483D01*
X150420483Y-141552329D01*
X150065000Y-142410540D01*
X149325000Y-142410540D01*
X149325000Y-136060540D01*
X150065000Y-136060540D01*
X150065000Y-136989460D01*
X150420483Y-137847671D01*
X151077329Y-138504517D01*
X151935540Y-138860000D01*
X152864460Y-138860000D01*
X153722671Y-138504517D01*
X154379517Y-137847671D01*
X154735000Y-136989460D01*
X154735000Y-136060540D01*
X154379517Y-135202329D01*
X153722671Y-134545483D01*
X152864460Y-134190000D01*
X151935540Y-134190000D01*
X151077329Y-134545483D01*
X150420483Y-135202329D01*
X150065000Y-136060540D01*
X149325000Y-136060540D01*
X149325000Y-135962388D01*
X149339399Y-135890000D01*
X149282354Y-135603217D01*
X149119905Y-135360095D01*
X148876783Y-135197646D01*
X148662388Y-135155000D01*
X148590000Y-135140601D01*
X148517612Y-135155000D01*
X148117065Y-135155000D01*
X148157909Y-135127709D01*
X148298257Y-134917665D01*
X148347540Y-134669900D01*
X148347540Y-132969900D01*
X148298257Y-132722135D01*
X148157909Y-132512091D01*
X147947865Y-132371743D01*
X147700100Y-132322460D01*
X146000100Y-132322460D01*
X145752335Y-132371743D01*
X145542291Y-132512091D01*
X145401943Y-132722135D01*
X145352660Y-132969900D01*
X145352660Y-134669900D01*
X145401943Y-134917665D01*
X145542291Y-135127709D01*
X145583135Y-135155000D01*
X144480825Y-135155000D01*
X144580827Y-135054999D01*
X144677500Y-134821610D01*
X144677500Y-134131050D01*
X144518750Y-133972300D01*
X143319500Y-133972300D01*
X143319500Y-133992300D01*
X143065500Y-133992300D01*
X143065500Y-133972300D01*
X141866250Y-133972300D01*
X141707500Y-134131050D01*
X141707500Y-134821610D01*
X141804173Y-135054999D01*
X141904175Y-135155000D01*
X140890679Y-135155000D01*
X140893509Y-135153109D01*
X141033857Y-134943065D01*
X141083140Y-134695300D01*
X141083140Y-132995300D01*
X141058016Y-132868990D01*
X141707500Y-132868990D01*
X141707500Y-133559550D01*
X141866250Y-133718300D01*
X143065500Y-133718300D01*
X143065500Y-132519050D01*
X143319500Y-132519050D01*
X143319500Y-133718300D01*
X144518750Y-133718300D01*
X144677500Y-133559550D01*
X144677500Y-132868990D01*
X144580827Y-132635601D01*
X144402198Y-132456973D01*
X144168809Y-132360300D01*
X143478250Y-132360300D01*
X143319500Y-132519050D01*
X143065500Y-132519050D01*
X142906750Y-132360300D01*
X142216191Y-132360300D01*
X141982802Y-132456973D01*
X141804173Y-132635601D01*
X141707500Y-132868990D01*
X141058016Y-132868990D01*
X141033857Y-132747535D01*
X140893509Y-132537491D01*
X140683465Y-132397143D01*
X140435700Y-132347860D01*
X138735700Y-132347860D01*
X138487935Y-132397143D01*
X138277891Y-132537491D01*
X138137543Y-132747535D01*
X138088260Y-132995300D01*
X138088260Y-134695300D01*
X138137543Y-134943065D01*
X138277891Y-135153109D01*
X138280721Y-135155000D01*
X137309279Y-135155000D01*
X137312109Y-135153109D01*
X137452457Y-134943065D01*
X137501740Y-134695300D01*
X137501740Y-132995300D01*
X137452457Y-132747535D01*
X137312109Y-132537491D01*
X137102065Y-132397143D01*
X136854300Y-132347860D01*
X135154300Y-132347860D01*
X134906535Y-132397143D01*
X134696491Y-132537491D01*
X134556143Y-132747535D01*
X134506860Y-132995300D01*
X134506860Y-134695300D01*
X134556143Y-134943065D01*
X134696491Y-135153109D01*
X134699321Y-135155000D01*
X133689779Y-135155000D01*
X133692609Y-135153109D01*
X133832957Y-134943065D01*
X133882240Y-134695300D01*
X133882240Y-132995300D01*
X133832957Y-132747535D01*
X133692609Y-132537491D01*
X133482565Y-132397143D01*
X133234800Y-132347860D01*
X131534800Y-132347860D01*
X131287035Y-132397143D01*
X131076991Y-132537491D01*
X130936643Y-132747535D01*
X130887360Y-132995300D01*
X130887360Y-134695300D01*
X130936643Y-134943065D01*
X131076991Y-135153109D01*
X131079821Y-135155000D01*
X130108379Y-135155000D01*
X130111209Y-135153109D01*
X130251557Y-134943065D01*
X130300840Y-134695300D01*
X130300840Y-132995300D01*
X130251557Y-132747535D01*
X130111209Y-132537491D01*
X129901165Y-132397143D01*
X129653400Y-132347860D01*
X127953400Y-132347860D01*
X127705635Y-132397143D01*
X127495591Y-132537491D01*
X127355243Y-132747535D01*
X127305960Y-132995300D01*
X127305960Y-134695300D01*
X127355243Y-134943065D01*
X127495591Y-135153109D01*
X127498421Y-135155000D01*
X126495272Y-135155000D01*
X126517109Y-135140409D01*
X126657457Y-134930365D01*
X126706740Y-134682600D01*
X126706740Y-132982600D01*
X126657457Y-132734835D01*
X126517109Y-132524791D01*
X126307065Y-132384443D01*
X126059300Y-132335160D01*
X124359300Y-132335160D01*
X124111535Y-132384443D01*
X123901491Y-132524791D01*
X123761143Y-132734835D01*
X123711860Y-132982600D01*
X123711860Y-134682600D01*
X123761143Y-134930365D01*
X123901491Y-135140409D01*
X123923328Y-135155000D01*
X122942931Y-135155000D01*
X123076057Y-134955765D01*
X123125340Y-134708000D01*
X123125340Y-133008000D01*
X123076057Y-132760235D01*
X122935709Y-132550191D01*
X122725665Y-132409843D01*
X122477900Y-132360560D01*
X120777900Y-132360560D01*
X120530135Y-132409843D01*
X120320091Y-132550191D01*
X120179743Y-132760235D01*
X120130460Y-133008000D01*
X120130460Y-134708000D01*
X120179743Y-134955765D01*
X120312869Y-135155000D01*
X119452388Y-135155000D01*
X119380000Y-135140601D01*
X119307612Y-135155000D01*
X119093217Y-135197646D01*
X118850095Y-135360095D01*
X118687646Y-135603217D01*
X118630601Y-135890000D01*
X118645000Y-135962388D01*
X118645000Y-137169752D01*
X118610865Y-137146943D01*
X118363100Y-137097660D01*
X116663100Y-137097660D01*
X116415335Y-137146943D01*
X116205291Y-137287291D01*
X116064943Y-137497335D01*
X116015660Y-137745100D01*
X116015660Y-139445100D01*
X116064943Y-139692865D01*
X116205291Y-139902909D01*
X116415335Y-140043257D01*
X116663100Y-140092540D01*
X118363100Y-140092540D01*
X118610865Y-140043257D01*
X118645000Y-140020448D01*
X118645001Y-142503752D01*
X118610865Y-142480943D01*
X118363100Y-142431660D01*
X116663100Y-142431660D01*
X116415335Y-142480943D01*
X116205291Y-142621291D01*
X116064943Y-142831335D01*
X116015660Y-143079100D01*
X116015660Y-144779100D01*
X116064943Y-145026865D01*
X116205291Y-145236909D01*
X116415335Y-145377257D01*
X116663100Y-145426540D01*
X118363100Y-145426540D01*
X118610865Y-145377257D01*
X118645001Y-145354448D01*
X118645001Y-146585000D01*
X90880000Y-146585000D01*
X90880000Y-142410540D01*
X91645000Y-142410540D01*
X91645000Y-143339460D01*
X92000483Y-144197671D01*
X92657329Y-144854517D01*
X93515540Y-145210000D01*
X94444460Y-145210000D01*
X95302671Y-144854517D01*
X95959517Y-144197671D01*
X96315000Y-143339460D01*
X96315000Y-142410540D01*
X95959517Y-141552329D01*
X95302671Y-140895483D01*
X94444460Y-140540000D01*
X93515540Y-140540000D01*
X92657329Y-140895483D01*
X92000483Y-141552329D01*
X91645000Y-142410540D01*
X90880000Y-142410540D01*
X90880000Y-136060540D01*
X91645000Y-136060540D01*
X91645000Y-136989460D01*
X92000483Y-137847671D01*
X92657329Y-138504517D01*
X93515540Y-138860000D01*
X94444460Y-138860000D01*
X95302671Y-138504517D01*
X95959517Y-137847671D01*
X96315000Y-136989460D01*
X96315000Y-136060540D01*
X95959517Y-135202329D01*
X95302671Y-134545483D01*
X94444460Y-134190000D01*
X93515540Y-134190000D01*
X92657329Y-134545483D01*
X92000483Y-135202329D01*
X91645000Y-136060540D01*
X90880000Y-136060540D01*
X90880000Y-110266878D01*
X107327700Y-110266878D01*
X107327700Y-126776878D01*
X107337367Y-126825479D01*
X107364897Y-126866681D01*
X107406099Y-126894211D01*
X107454700Y-126903878D01*
X117614700Y-126903878D01*
X117663301Y-126894211D01*
X117704503Y-126866681D01*
X117732033Y-126825479D01*
X117741700Y-126776878D01*
X117741700Y-110266878D01*
X117732033Y-110218277D01*
X117704503Y-110177075D01*
X117663301Y-110149545D01*
X117614700Y-110139878D01*
X107454700Y-110139878D01*
X107406099Y-110149545D01*
X107364897Y-110177075D01*
X107337367Y-110218277D01*
X107327700Y-110266878D01*
X90880000Y-110266878D01*
X90880000Y-106118032D01*
X111590973Y-106118032D01*
X111689636Y-106384887D01*
X112299361Y-106611408D01*
X112949360Y-106587356D01*
X113438164Y-106384887D01*
X113536827Y-106118032D01*
X112563900Y-105145105D01*
X111590973Y-106118032D01*
X90880000Y-106118032D01*
X90880000Y-104700961D01*
X110917992Y-104700961D01*
X110942044Y-105350960D01*
X111144513Y-105839764D01*
X111411368Y-105938427D01*
X112384295Y-104965500D01*
X112743505Y-104965500D01*
X113716432Y-105938427D01*
X113983287Y-105839764D01*
X114209808Y-105230039D01*
X114187985Y-104640278D01*
X115928900Y-104640278D01*
X115928900Y-105290722D01*
X116177814Y-105891653D01*
X116637747Y-106351586D01*
X117238678Y-106600500D01*
X117889122Y-106600500D01*
X118490053Y-106351586D01*
X118949986Y-105891653D01*
X119198900Y-105290722D01*
X119198900Y-104640278D01*
X118949986Y-104039347D01*
X118490053Y-103579414D01*
X117889122Y-103330500D01*
X117238678Y-103330500D01*
X116637747Y-103579414D01*
X116177814Y-104039347D01*
X115928900Y-104640278D01*
X114187985Y-104640278D01*
X114185756Y-104580040D01*
X113983287Y-104091236D01*
X113716432Y-103992573D01*
X112743505Y-104965500D01*
X112384295Y-104965500D01*
X111411368Y-103992573D01*
X111144513Y-104091236D01*
X110917992Y-104700961D01*
X90880000Y-104700961D01*
X90880000Y-103812968D01*
X111590973Y-103812968D01*
X112563900Y-104785895D01*
X113536827Y-103812968D01*
X113438164Y-103546113D01*
X112828439Y-103319592D01*
X112178440Y-103343644D01*
X111689636Y-103546113D01*
X111590973Y-103812968D01*
X90880000Y-103812968D01*
X90880000Y-101334501D01*
X141807981Y-101422200D01*
X141856208Y-101412777D01*
X141897548Y-101385455D01*
X141925286Y-101344393D01*
X141935198Y-101295841D01*
X141947898Y-98781241D01*
X141938221Y-98731970D01*
X141910680Y-98690775D01*
X141869472Y-98663255D01*
X141820869Y-98653600D01*
X90880000Y-98666132D01*
X90880000Y-97347813D01*
X106806492Y-97347813D01*
X106875957Y-97589997D01*
X107399402Y-97776744D01*
X107954468Y-97748962D01*
X108338243Y-97589997D01*
X108407708Y-97347813D01*
X107607100Y-96547205D01*
X106806492Y-97347813D01*
X90880000Y-97347813D01*
X90880000Y-96159902D01*
X106197956Y-96159902D01*
X106225738Y-96714968D01*
X106384703Y-97098743D01*
X106626887Y-97168208D01*
X107427495Y-96367600D01*
X107786705Y-96367600D01*
X108587313Y-97168208D01*
X108829497Y-97098743D01*
X109016244Y-96575298D01*
X108988462Y-96020232D01*
X108829497Y-95636457D01*
X108587313Y-95566992D01*
X107786705Y-96367600D01*
X107427495Y-96367600D01*
X106626887Y-95566992D01*
X106384703Y-95636457D01*
X106197956Y-96159902D01*
X90880000Y-96159902D01*
X90880000Y-88469719D01*
X106210100Y-88469719D01*
X106210100Y-89025481D01*
X106422780Y-89538937D01*
X106815763Y-89931920D01*
X107022613Y-90017600D01*
X106815763Y-90103280D01*
X106422780Y-90496263D01*
X106210100Y-91009719D01*
X106210100Y-91565481D01*
X106422780Y-92078937D01*
X106815763Y-92471920D01*
X107022613Y-92557600D01*
X106815763Y-92643280D01*
X106422780Y-93036263D01*
X106210100Y-93549719D01*
X106210100Y-94105481D01*
X106422780Y-94618937D01*
X106815763Y-95011920D01*
X107006747Y-95091028D01*
X106875957Y-95145203D01*
X106806492Y-95387387D01*
X107607100Y-96187995D01*
X108407708Y-95387387D01*
X108338243Y-95145203D01*
X108197707Y-95095065D01*
X108398437Y-95011920D01*
X108791420Y-94618937D01*
X109004100Y-94105481D01*
X109004100Y-93549719D01*
X108791420Y-93036263D01*
X108398437Y-92643280D01*
X108191587Y-92557600D01*
X108398437Y-92471920D01*
X108791420Y-92078937D01*
X109004100Y-91565481D01*
X109004100Y-91009719D01*
X108791420Y-90496263D01*
X108398437Y-90103280D01*
X108191587Y-90017600D01*
X108398437Y-89931920D01*
X108515757Y-89814600D01*
X110211060Y-89814600D01*
X110211060Y-93014600D01*
X110260343Y-93262365D01*
X110400691Y-93472409D01*
X110610735Y-93612757D01*
X110858500Y-93662040D01*
X114058500Y-93662040D01*
X114306265Y-93612757D01*
X114516309Y-93472409D01*
X114656657Y-93262365D01*
X114705940Y-93014600D01*
X114705940Y-91889103D01*
X125514450Y-91889103D01*
X125818614Y-92623436D01*
X126424313Y-93250820D01*
X127223996Y-93598656D01*
X127571500Y-93487245D01*
X127571500Y-91541600D01*
X127825500Y-91541600D01*
X127825500Y-93487245D01*
X128173004Y-93598656D01*
X128972687Y-93250820D01*
X129578386Y-92623436D01*
X129882550Y-91889103D01*
X129770862Y-91541600D01*
X127825500Y-91541600D01*
X127571500Y-91541600D01*
X125626138Y-91541600D01*
X125514450Y-91889103D01*
X114705940Y-91889103D01*
X114705940Y-90940097D01*
X125514450Y-90940097D01*
X125626138Y-91287600D01*
X127571500Y-91287600D01*
X127571500Y-89341955D01*
X127825500Y-89341955D01*
X127825500Y-91287600D01*
X129770862Y-91287600D01*
X129882550Y-90940097D01*
X129578386Y-90205764D01*
X128972687Y-89578380D01*
X128173004Y-89230544D01*
X127825500Y-89341955D01*
X127571500Y-89341955D01*
X127223996Y-89230544D01*
X126424313Y-89578380D01*
X125818614Y-90205764D01*
X125514450Y-90940097D01*
X114705940Y-90940097D01*
X114705940Y-89814600D01*
X114656657Y-89566835D01*
X114516309Y-89356791D01*
X114306265Y-89216443D01*
X114058500Y-89167160D01*
X110858500Y-89167160D01*
X110610735Y-89216443D01*
X110400691Y-89356791D01*
X110260343Y-89566835D01*
X110211060Y-89814600D01*
X108515757Y-89814600D01*
X108791420Y-89538937D01*
X109004100Y-89025481D01*
X109004100Y-88469719D01*
X108791420Y-87956263D01*
X108398437Y-87563280D01*
X107884981Y-87350600D01*
X107329219Y-87350600D01*
X106815763Y-87563280D01*
X106422780Y-87956263D01*
X106210100Y-88469719D01*
X90880000Y-88469719D01*
X90880000Y-84074200D01*
X108636260Y-84074200D01*
X108636260Y-87274200D01*
X108685543Y-87521965D01*
X108825891Y-87732009D01*
X109035935Y-87872357D01*
X109283700Y-87921640D01*
X112483700Y-87921640D01*
X112731465Y-87872357D01*
X112941509Y-87732009D01*
X113081857Y-87521965D01*
X113131140Y-87274200D01*
X113131140Y-86148703D01*
X123939650Y-86148703D01*
X124243814Y-86883036D01*
X124849513Y-87510420D01*
X125649196Y-87858256D01*
X125996700Y-87746845D01*
X125996700Y-85801200D01*
X126250700Y-85801200D01*
X126250700Y-87746845D01*
X126598204Y-87858256D01*
X127397887Y-87510420D01*
X128003586Y-86883036D01*
X128307750Y-86148703D01*
X128196062Y-85801200D01*
X126250700Y-85801200D01*
X125996700Y-85801200D01*
X124051338Y-85801200D01*
X123939650Y-86148703D01*
X113131140Y-86148703D01*
X113131140Y-85199697D01*
X123939650Y-85199697D01*
X124051338Y-85547200D01*
X125996700Y-85547200D01*
X125996700Y-83601555D01*
X126250700Y-83601555D01*
X126250700Y-85547200D01*
X128196062Y-85547200D01*
X128307750Y-85199697D01*
X128003586Y-84465364D01*
X127397887Y-83837980D01*
X126598204Y-83490144D01*
X126250700Y-83601555D01*
X125996700Y-83601555D01*
X125649196Y-83490144D01*
X124849513Y-83837980D01*
X124243814Y-84465364D01*
X123939650Y-85199697D01*
X113131140Y-85199697D01*
X113131140Y-84074200D01*
X113081857Y-83826435D01*
X112941509Y-83616391D01*
X112731465Y-83476043D01*
X112483700Y-83426760D01*
X109283700Y-83426760D01*
X109035935Y-83476043D01*
X108825891Y-83616391D01*
X108685543Y-83826435D01*
X108636260Y-84074200D01*
X90880000Y-84074200D01*
X90880000Y-78232200D01*
X105867660Y-78232200D01*
X105867660Y-81432200D01*
X105916943Y-81679965D01*
X106057291Y-81890009D01*
X106267335Y-82030357D01*
X106515100Y-82079640D01*
X109715100Y-82079640D01*
X109962865Y-82030357D01*
X110172909Y-81890009D01*
X110313257Y-81679965D01*
X110362540Y-81432200D01*
X110362540Y-80306703D01*
X121171050Y-80306703D01*
X121475214Y-81041036D01*
X122080913Y-81668420D01*
X122880596Y-82016256D01*
X123228100Y-81904845D01*
X123228100Y-79959200D01*
X123482100Y-79959200D01*
X123482100Y-81904845D01*
X123829604Y-82016256D01*
X124629287Y-81668420D01*
X125234986Y-81041036D01*
X125539150Y-80306703D01*
X125427462Y-79959200D01*
X123482100Y-79959200D01*
X123228100Y-79959200D01*
X121282738Y-79959200D01*
X121171050Y-80306703D01*
X110362540Y-80306703D01*
X110362540Y-79357697D01*
X121171050Y-79357697D01*
X121282738Y-79705200D01*
X123228100Y-79705200D01*
X123228100Y-77759555D01*
X123482100Y-77759555D01*
X123482100Y-79705200D01*
X125427462Y-79705200D01*
X125539150Y-79357697D01*
X125234986Y-78623364D01*
X124629287Y-77995980D01*
X123829604Y-77648144D01*
X123482100Y-77759555D01*
X123228100Y-77759555D01*
X122880596Y-77648144D01*
X122080913Y-77995980D01*
X121475214Y-78623364D01*
X121171050Y-79357697D01*
X110362540Y-79357697D01*
X110362540Y-78232200D01*
X110313257Y-77984435D01*
X110172909Y-77774391D01*
X109962865Y-77634043D01*
X109715100Y-77584760D01*
X106515100Y-77584760D01*
X106267335Y-77634043D01*
X106057291Y-77774391D01*
X105916943Y-77984435D01*
X105867660Y-78232200D01*
X90880000Y-78232200D01*
X90880000Y-73195540D01*
X91645000Y-73195540D01*
X91645000Y-74124460D01*
X92000483Y-74982671D01*
X92657329Y-75639517D01*
X93515540Y-75995000D01*
X94444460Y-75995000D01*
X95302671Y-75639517D01*
X95959517Y-74982671D01*
X96315000Y-74124460D01*
X96315000Y-73195540D01*
X100535000Y-73195540D01*
X100535000Y-74124460D01*
X100890483Y-74982671D01*
X101547329Y-75639517D01*
X102405540Y-75995000D01*
X103334460Y-75995000D01*
X104192671Y-75639517D01*
X104849517Y-74982671D01*
X105205000Y-74124460D01*
X105205000Y-73195540D01*
X141175000Y-73195540D01*
X141175000Y-74124460D01*
X141530483Y-74982671D01*
X142187329Y-75639517D01*
X143045540Y-75995000D01*
X143974460Y-75995000D01*
X144832671Y-75639517D01*
X145489517Y-74982671D01*
X145845000Y-74124460D01*
X145845000Y-73195540D01*
X150065000Y-73195540D01*
X150065000Y-74124460D01*
X150420483Y-74982671D01*
X151077329Y-75639517D01*
X151935540Y-75995000D01*
X152864460Y-75995000D01*
X153722671Y-75639517D01*
X154379517Y-74982671D01*
X154735000Y-74124460D01*
X154735000Y-73195540D01*
X154379517Y-72337329D01*
X153722671Y-71680483D01*
X152864460Y-71325000D01*
X151935540Y-71325000D01*
X151077329Y-71680483D01*
X150420483Y-72337329D01*
X150065000Y-73195540D01*
X145845000Y-73195540D01*
X145489517Y-72337329D01*
X144832671Y-71680483D01*
X143974460Y-71325000D01*
X143045540Y-71325000D01*
X142187329Y-71680483D01*
X141530483Y-72337329D01*
X141175000Y-73195540D01*
X105205000Y-73195540D01*
X104849517Y-72337329D01*
X104192671Y-71680483D01*
X103334460Y-71325000D01*
X102405540Y-71325000D01*
X101547329Y-71680483D01*
X100890483Y-72337329D01*
X100535000Y-73195540D01*
X96315000Y-73195540D01*
X95959517Y-72337329D01*
X95302671Y-71680483D01*
X94444460Y-71325000D01*
X93515540Y-71325000D01*
X92657329Y-71680483D01*
X92000483Y-72337329D01*
X91645000Y-73195540D01*
X90880000Y-73195540D01*
X90880000Y-70560000D01*
X155500000Y-70560000D01*
X155500001Y-146585000D01*
G04 #@! TD*
M02*
