G04 #@! TF.GenerationSoftware,KiCad,Pcbnew,5.0.2+dfsg1-1~bpo9+1*
G04 #@! TF.CreationDate,2019-02-15T21:28:06-06:00*
G04 #@! TF.ProjectId,CommunicationBoard,436f6d6d-756e-4696-9361-74696f6e426f,rev?*
G04 #@! TF.SameCoordinates,Original*
G04 #@! TF.FileFunction,Soldermask,Top*
G04 #@! TF.FilePolarity,Negative*
%FSLAX46Y46*%
G04 Gerber Fmt 4.6, Leading zero omitted, Abs format (unit mm)*
G04 Created by KiCad (PCBNEW 5.0.2+dfsg1-1~bpo9+1) date vie 15 feb 2019 21:28:06 CST*
%MOMM*%
%LPD*%
G01*
G04 APERTURE LIST*
G04 #@! TA.AperFunction,NonConductor*
%ADD10C,0.100000*%
G04 #@! TD*
G04 APERTURE END LIST*
D10*
G36*
X118414100Y-144830100D02*
X116612100Y-144830100D01*
X116612100Y-143028100D01*
X118414100Y-143028100D01*
X118414100Y-144830100D01*
X118414100Y-144830100D01*
G37*
G36*
X118414100Y-139496100D02*
X116612100Y-139496100D01*
X116612100Y-137694100D01*
X118414100Y-137694100D01*
X118414100Y-139496100D01*
X118414100Y-139496100D01*
G37*
G36*
X122528900Y-134759000D02*
X120726900Y-134759000D01*
X120726900Y-132957000D01*
X122528900Y-132957000D01*
X122528900Y-134759000D01*
X122528900Y-134759000D01*
G37*
G36*
X136905300Y-134746300D02*
X135103300Y-134746300D01*
X135103300Y-132944300D01*
X136905300Y-132944300D01*
X136905300Y-134746300D01*
X136905300Y-134746300D01*
G37*
G36*
X133285800Y-134746300D02*
X131483800Y-134746300D01*
X131483800Y-132944300D01*
X133285800Y-132944300D01*
X133285800Y-134746300D01*
X133285800Y-134746300D01*
G37*
G36*
X129704400Y-134746300D02*
X127902400Y-134746300D01*
X127902400Y-132944300D01*
X129704400Y-132944300D01*
X129704400Y-134746300D01*
X129704400Y-134746300D01*
G37*
G36*
X140486700Y-134746300D02*
X138684700Y-134746300D01*
X138684700Y-132944300D01*
X140486700Y-132944300D01*
X140486700Y-134746300D01*
X140486700Y-134746300D01*
G37*
G36*
X144093500Y-134746300D02*
X142291500Y-134746300D01*
X142291500Y-132944300D01*
X144093500Y-132944300D01*
X144093500Y-134746300D01*
X144093500Y-134746300D01*
G37*
G36*
X126110300Y-134733600D02*
X124308300Y-134733600D01*
X124308300Y-132931600D01*
X126110300Y-132931600D01*
X126110300Y-134733600D01*
X126110300Y-134733600D01*
G37*
G36*
X147751100Y-134720900D02*
X145949100Y-134720900D01*
X145949100Y-132918900D01*
X147751100Y-132918900D01*
X147751100Y-134720900D01*
X147751100Y-134720900D01*
G37*
G36*
X121137100Y-126580100D02*
X120235100Y-126580100D01*
X120235100Y-123478100D01*
X121137100Y-123478100D01*
X121137100Y-126580100D01*
X121137100Y-126580100D01*
G37*
G36*
X127137100Y-126580100D02*
X126235100Y-126580100D01*
X126235100Y-123478100D01*
X127137100Y-123478100D01*
X127137100Y-126580100D01*
X127137100Y-126580100D01*
G37*
G36*
X124737100Y-126580100D02*
X123835100Y-126580100D01*
X123835100Y-123478100D01*
X124737100Y-123478100D01*
X124737100Y-126580100D01*
X124737100Y-126580100D01*
G37*
G36*
X123537100Y-126580100D02*
X122635100Y-126580100D01*
X122635100Y-123478100D01*
X123537100Y-123478100D01*
X123537100Y-126580100D01*
X123537100Y-126580100D01*
G37*
G36*
X122337100Y-126580100D02*
X121435100Y-126580100D01*
X121435100Y-123478100D01*
X122337100Y-123478100D01*
X122337100Y-126580100D01*
X122337100Y-126580100D01*
G37*
G36*
X119937100Y-126580100D02*
X119035100Y-126580100D01*
X119035100Y-123478100D01*
X119937100Y-123478100D01*
X119937100Y-126580100D01*
X119937100Y-126580100D01*
G37*
G36*
X118737100Y-126580100D02*
X117835100Y-126580100D01*
X117835100Y-123478100D01*
X118737100Y-123478100D01*
X118737100Y-126580100D01*
X118737100Y-126580100D01*
G37*
G36*
X125937100Y-126580100D02*
X125035100Y-126580100D01*
X125035100Y-123478100D01*
X125937100Y-123478100D01*
X125937100Y-126580100D01*
X125937100Y-126580100D01*
G37*
G36*
X131487100Y-121980100D02*
X128385100Y-121980100D01*
X128385100Y-121078100D01*
X131487100Y-121078100D01*
X131487100Y-121980100D01*
X131487100Y-121980100D01*
G37*
G36*
X131487100Y-120780100D02*
X128385100Y-120780100D01*
X128385100Y-119878100D01*
X131487100Y-119878100D01*
X131487100Y-120780100D01*
X131487100Y-120780100D01*
G37*
G36*
X131487100Y-119580100D02*
X128385100Y-119580100D01*
X128385100Y-118678100D01*
X131487100Y-118678100D01*
X131487100Y-119580100D01*
X131487100Y-119580100D01*
G37*
G36*
X131487100Y-118380100D02*
X128385100Y-118380100D01*
X128385100Y-117478100D01*
X131487100Y-117478100D01*
X131487100Y-118380100D01*
X131487100Y-118380100D01*
G37*
G36*
X131487100Y-117180100D02*
X128385100Y-117180100D01*
X128385100Y-116278100D01*
X131487100Y-116278100D01*
X131487100Y-117180100D01*
X131487100Y-117180100D01*
G37*
G36*
X131487100Y-115980100D02*
X128385100Y-115980100D01*
X128385100Y-115078100D01*
X131487100Y-115078100D01*
X131487100Y-115980100D01*
X131487100Y-115980100D01*
G37*
G36*
X121137100Y-113580100D02*
X120235100Y-113580100D01*
X120235100Y-110478100D01*
X121137100Y-110478100D01*
X121137100Y-113580100D01*
X121137100Y-113580100D01*
G37*
G36*
X118737100Y-113580100D02*
X117835100Y-113580100D01*
X117835100Y-110478100D01*
X118737100Y-110478100D01*
X118737100Y-113580100D01*
X118737100Y-113580100D01*
G37*
G36*
X127137100Y-113580100D02*
X126235100Y-113580100D01*
X126235100Y-110478100D01*
X127137100Y-110478100D01*
X127137100Y-113580100D01*
X127137100Y-113580100D01*
G37*
G36*
X125937100Y-113580100D02*
X125035100Y-113580100D01*
X125035100Y-110478100D01*
X125937100Y-110478100D01*
X125937100Y-113580100D01*
X125937100Y-113580100D01*
G37*
G36*
X124737100Y-113580100D02*
X123835100Y-113580100D01*
X123835100Y-110478100D01*
X124737100Y-110478100D01*
X124737100Y-113580100D01*
X124737100Y-113580100D01*
G37*
G36*
X123537100Y-113580100D02*
X122635100Y-113580100D01*
X122635100Y-110478100D01*
X123537100Y-110478100D01*
X123537100Y-113580100D01*
X123537100Y-113580100D01*
G37*
G36*
X122337100Y-113580100D02*
X121435100Y-113580100D01*
X121435100Y-110478100D01*
X122337100Y-110478100D01*
X122337100Y-113580100D01*
X122337100Y-113580100D01*
G37*
G36*
X119937100Y-113580100D02*
X119035100Y-113580100D01*
X119035100Y-110478100D01*
X119937100Y-110478100D01*
X119937100Y-113580100D01*
X119937100Y-113580100D01*
G37*
G36*
X112870465Y-103954889D02*
X113061734Y-104034115D01*
X113233876Y-104149137D01*
X113380263Y-104295524D01*
X113495285Y-104467666D01*
X113574511Y-104658935D01*
X113614900Y-104861984D01*
X113614900Y-105069016D01*
X113574511Y-105272065D01*
X113495285Y-105463334D01*
X113380263Y-105635476D01*
X113233876Y-105781863D01*
X113061734Y-105896885D01*
X112870465Y-105976111D01*
X112667416Y-106016500D01*
X112460384Y-106016500D01*
X112257335Y-105976111D01*
X112066066Y-105896885D01*
X111893924Y-105781863D01*
X111747537Y-105635476D01*
X111632515Y-105463334D01*
X111553289Y-105272065D01*
X111512900Y-105069016D01*
X111512900Y-104861984D01*
X111553289Y-104658935D01*
X111632515Y-104467666D01*
X111747537Y-104295524D01*
X111893924Y-104149137D01*
X112066066Y-104034115D01*
X112257335Y-103954889D01*
X112460384Y-103914500D01*
X112667416Y-103914500D01*
X112870465Y-103954889D01*
X112870465Y-103954889D01*
G37*
G36*
X117870465Y-103954889D02*
X118061734Y-104034115D01*
X118233876Y-104149137D01*
X118380263Y-104295524D01*
X118495285Y-104467666D01*
X118574511Y-104658935D01*
X118614900Y-104861984D01*
X118614900Y-105069016D01*
X118574511Y-105272065D01*
X118495285Y-105463334D01*
X118380263Y-105635476D01*
X118233876Y-105781863D01*
X118061734Y-105896885D01*
X117870465Y-105976111D01*
X117667416Y-106016500D01*
X117460384Y-106016500D01*
X117257335Y-105976111D01*
X117066066Y-105896885D01*
X116893924Y-105781863D01*
X116747537Y-105635476D01*
X116632515Y-105463334D01*
X116553289Y-105272065D01*
X116512900Y-105069016D01*
X116512900Y-104861984D01*
X116553289Y-104658935D01*
X116632515Y-104467666D01*
X116747537Y-104295524D01*
X116893924Y-104149137D01*
X117066066Y-104034115D01*
X117257335Y-103954889D01*
X117460384Y-103914500D01*
X117667416Y-103914500D01*
X117870465Y-103954889D01*
X117870465Y-103954889D01*
G37*
G36*
X107844242Y-95585842D02*
X107992202Y-95647130D01*
X108125358Y-95736102D01*
X108238598Y-95849342D01*
X108327570Y-95982498D01*
X108388858Y-96130458D01*
X108420100Y-96287525D01*
X108420100Y-96447675D01*
X108388858Y-96604742D01*
X108327570Y-96752702D01*
X108238598Y-96885858D01*
X108125358Y-96999098D01*
X107992202Y-97088070D01*
X107844242Y-97149358D01*
X107687175Y-97180600D01*
X107527025Y-97180600D01*
X107369958Y-97149358D01*
X107221998Y-97088070D01*
X107088842Y-96999098D01*
X106975602Y-96885858D01*
X106886630Y-96752702D01*
X106825342Y-96604742D01*
X106794100Y-96447675D01*
X106794100Y-96287525D01*
X106825342Y-96130458D01*
X106886630Y-95982498D01*
X106975602Y-95849342D01*
X107088842Y-95736102D01*
X107221998Y-95647130D01*
X107369958Y-95585842D01*
X107527025Y-95554600D01*
X107687175Y-95554600D01*
X107844242Y-95585842D01*
X107844242Y-95585842D01*
G37*
G36*
X107844242Y-93045842D02*
X107992202Y-93107130D01*
X108125358Y-93196102D01*
X108238598Y-93309342D01*
X108327570Y-93442498D01*
X108388858Y-93590458D01*
X108420100Y-93747525D01*
X108420100Y-93907675D01*
X108388858Y-94064742D01*
X108327570Y-94212702D01*
X108238598Y-94345858D01*
X108125358Y-94459098D01*
X107992202Y-94548070D01*
X107844242Y-94609358D01*
X107687175Y-94640600D01*
X107527025Y-94640600D01*
X107369958Y-94609358D01*
X107221998Y-94548070D01*
X107088842Y-94459098D01*
X106975602Y-94345858D01*
X106886630Y-94212702D01*
X106825342Y-94064742D01*
X106794100Y-93907675D01*
X106794100Y-93747525D01*
X106825342Y-93590458D01*
X106886630Y-93442498D01*
X106975602Y-93309342D01*
X107088842Y-93196102D01*
X107221998Y-93107130D01*
X107369958Y-93045842D01*
X107527025Y-93014600D01*
X107687175Y-93014600D01*
X107844242Y-93045842D01*
X107844242Y-93045842D01*
G37*
G36*
X114109500Y-93065600D02*
X110807500Y-93065600D01*
X110807500Y-89763600D01*
X114109500Y-89763600D01*
X114109500Y-93065600D01*
X114109500Y-93065600D01*
G37*
G36*
X128022154Y-89787488D02*
X128333365Y-89881894D01*
X128620186Y-90035203D01*
X128871582Y-90241518D01*
X129077897Y-90492914D01*
X129231206Y-90779735D01*
X129325612Y-91090946D01*
X129357488Y-91414600D01*
X129325612Y-91738254D01*
X129231206Y-92049465D01*
X129077897Y-92336286D01*
X128871582Y-92587682D01*
X128620186Y-92793997D01*
X128333365Y-92947306D01*
X128022154Y-93041712D01*
X127779607Y-93065600D01*
X127617393Y-93065600D01*
X127374846Y-93041712D01*
X127063635Y-92947306D01*
X126776814Y-92793997D01*
X126525418Y-92587682D01*
X126319103Y-92336286D01*
X126165794Y-92049465D01*
X126071388Y-91738254D01*
X126039512Y-91414600D01*
X126071388Y-91090946D01*
X126165794Y-90779735D01*
X126319103Y-90492914D01*
X126525418Y-90241518D01*
X126776814Y-90035203D01*
X127063635Y-89881894D01*
X127374846Y-89787488D01*
X127617393Y-89763600D01*
X127779607Y-89763600D01*
X128022154Y-89787488D01*
X128022154Y-89787488D01*
G37*
G36*
X107844242Y-90505842D02*
X107992202Y-90567130D01*
X108059230Y-90611917D01*
X108125357Y-90656101D01*
X108238599Y-90769343D01*
X108282783Y-90835470D01*
X108327570Y-90902498D01*
X108388858Y-91050458D01*
X108420100Y-91207525D01*
X108420100Y-91367675D01*
X108388858Y-91524742D01*
X108327570Y-91672702D01*
X108238598Y-91805858D01*
X108125358Y-91919098D01*
X107992202Y-92008070D01*
X107844242Y-92069358D01*
X107687175Y-92100600D01*
X107527025Y-92100600D01*
X107369958Y-92069358D01*
X107221998Y-92008070D01*
X107088842Y-91919098D01*
X106975602Y-91805858D01*
X106886630Y-91672702D01*
X106825342Y-91524742D01*
X106794100Y-91367675D01*
X106794100Y-91207525D01*
X106825342Y-91050458D01*
X106886630Y-90902498D01*
X106931417Y-90835470D01*
X106975601Y-90769343D01*
X107088843Y-90656101D01*
X107154970Y-90611917D01*
X107221998Y-90567130D01*
X107369958Y-90505842D01*
X107527025Y-90474600D01*
X107687175Y-90474600D01*
X107844242Y-90505842D01*
X107844242Y-90505842D01*
G37*
G36*
X107844242Y-87965842D02*
X107992202Y-88027130D01*
X108125358Y-88116102D01*
X108238598Y-88229342D01*
X108327570Y-88362498D01*
X108388858Y-88510458D01*
X108420100Y-88667525D01*
X108420100Y-88827675D01*
X108388858Y-88984742D01*
X108327570Y-89132702D01*
X108238598Y-89265858D01*
X108125358Y-89379098D01*
X107992202Y-89468070D01*
X107844242Y-89529358D01*
X107687175Y-89560600D01*
X107527025Y-89560600D01*
X107369958Y-89529358D01*
X107221998Y-89468070D01*
X107088842Y-89379098D01*
X106975602Y-89265858D01*
X106886630Y-89132702D01*
X106825342Y-88984742D01*
X106794100Y-88827675D01*
X106794100Y-88667525D01*
X106825342Y-88510458D01*
X106886630Y-88362498D01*
X106975602Y-88229342D01*
X107088842Y-88116102D01*
X107221998Y-88027130D01*
X107369958Y-87965842D01*
X107527025Y-87934600D01*
X107687175Y-87934600D01*
X107844242Y-87965842D01*
X107844242Y-87965842D01*
G37*
G36*
X112534700Y-87325200D02*
X109232700Y-87325200D01*
X109232700Y-84023200D01*
X112534700Y-84023200D01*
X112534700Y-87325200D01*
X112534700Y-87325200D01*
G37*
G36*
X126447354Y-84047088D02*
X126758565Y-84141494D01*
X127045386Y-84294803D01*
X127296782Y-84501118D01*
X127503097Y-84752514D01*
X127656406Y-85039335D01*
X127750812Y-85350546D01*
X127782688Y-85674200D01*
X127750812Y-85997854D01*
X127656406Y-86309065D01*
X127503097Y-86595886D01*
X127296782Y-86847282D01*
X127045386Y-87053597D01*
X126758565Y-87206906D01*
X126447354Y-87301312D01*
X126204807Y-87325200D01*
X126042593Y-87325200D01*
X125800046Y-87301312D01*
X125488835Y-87206906D01*
X125202014Y-87053597D01*
X124950618Y-86847282D01*
X124744303Y-86595886D01*
X124590994Y-86309065D01*
X124496588Y-85997854D01*
X124464712Y-85674200D01*
X124496588Y-85350546D01*
X124590994Y-85039335D01*
X124744303Y-84752514D01*
X124950618Y-84501118D01*
X125202014Y-84294803D01*
X125488835Y-84141494D01*
X125800046Y-84047088D01*
X126042593Y-84023200D01*
X126204807Y-84023200D01*
X126447354Y-84047088D01*
X126447354Y-84047088D01*
G37*
G36*
X109766100Y-81483200D02*
X106464100Y-81483200D01*
X106464100Y-78181200D01*
X109766100Y-78181200D01*
X109766100Y-81483200D01*
X109766100Y-81483200D01*
G37*
G36*
X123678754Y-78205088D02*
X123989965Y-78299494D01*
X124276786Y-78452803D01*
X124528182Y-78659118D01*
X124734497Y-78910514D01*
X124887806Y-79197335D01*
X124982212Y-79508546D01*
X125014088Y-79832200D01*
X124982212Y-80155854D01*
X124887806Y-80467065D01*
X124734497Y-80753886D01*
X124528182Y-81005282D01*
X124276786Y-81211597D01*
X123989965Y-81364906D01*
X123678754Y-81459312D01*
X123436207Y-81483200D01*
X123273993Y-81483200D01*
X123031446Y-81459312D01*
X122720235Y-81364906D01*
X122433414Y-81211597D01*
X122182018Y-81005282D01*
X121975703Y-80753886D01*
X121822394Y-80467065D01*
X121727988Y-80155854D01*
X121696112Y-79832200D01*
X121727988Y-79508546D01*
X121822394Y-79197335D01*
X121975703Y-78910514D01*
X122182018Y-78659118D01*
X122433414Y-78452803D01*
X122720235Y-78299494D01*
X123031446Y-78205088D01*
X123273993Y-78181200D01*
X123436207Y-78181200D01*
X123678754Y-78205088D01*
X123678754Y-78205088D01*
G37*
M02*
