G04 #@! TF.GenerationSoftware,KiCad,Pcbnew,5.0.2+dfsg1-1~bpo9+1*
G04 #@! TF.CreationDate,2019-02-15T20:10:49-06:00*
G04 #@! TF.ProjectId,EncoderandSensorsBoard,456e636f-6465-4726-916e-6453656e736f,v1.0*
G04 #@! TF.SameCoordinates,Original*
G04 #@! TF.FileFunction,Legend,Top*
G04 #@! TF.FilePolarity,Positive*
%FSLAX46Y46*%
G04 Gerber Fmt 4.6, Leading zero omitted, Abs format (unit mm)*
G04 Created by KiCad (PCBNEW 5.0.2+dfsg1-1~bpo9+1) date vie 15 feb 2019 20:10:49 CST*
%MOMM*%
%LPD*%
G01*
G04 APERTURE LIST*
%ADD10C,0.200000*%
%ADD11C,0.250000*%
%ADD12C,0.177800*%
%ADD13C,0.300000*%
%ADD14C,0.120000*%
%ADD15C,0.150000*%
G04 APERTURE END LIST*
D10*
X156210000Y-99314000D02*
X156210000Y-89916000D01*
X156210000Y-125222000D02*
X156210000Y-115824000D01*
X157227677Y-99312215D02*
X157227677Y-89914215D01*
X157227677Y-125220215D02*
X157227677Y-115822215D01*
X90170000Y-90000000D02*
X96418400Y-90000000D01*
X96418400Y-90000000D02*
X96418400Y-76746100D01*
X96418400Y-76746100D02*
X90182700Y-76746100D01*
X156210000Y-147320000D02*
X148590000Y-147320000D01*
X148590000Y-147320000D02*
X148590000Y-135890000D01*
X148590000Y-135890000D02*
X119380000Y-135890000D01*
X119380000Y-135890000D02*
X119380000Y-147320000D01*
X90170000Y-147320000D02*
X119380000Y-147320000D01*
X154689525Y-73660000D02*
G75*
G03X154689525Y-73660000I-2289525J0D01*
G01*
X145799525Y-73660000D02*
G75*
G03X145799525Y-73660000I-2289525J0D01*
G01*
X105159525Y-73660000D02*
G75*
G03X105159525Y-73660000I-2289525J0D01*
G01*
X96269525Y-73660000D02*
G75*
G03X96269525Y-73660000I-2289525J0D01*
G01*
X96269525Y-136525000D02*
G75*
G03X96269525Y-136525000I-2289525J0D01*
G01*
X96269525Y-142875000D02*
G75*
G03X96269525Y-142875000I-2289525J0D01*
G01*
X154689525Y-142875000D02*
G75*
G03X154689525Y-142875000I-2289525J0D01*
G01*
X154689525Y-136525000D02*
G75*
G03X154689525Y-136525000I-2289525J0D01*
G01*
D11*
X130471871Y-77614471D02*
X130519490Y-77471614D01*
X130567109Y-77423995D01*
X130662347Y-77376376D01*
X130805204Y-77376376D01*
X130900442Y-77423995D01*
X130948061Y-77471614D01*
X130995680Y-77566852D01*
X130995680Y-77947804D01*
X129995680Y-77947804D01*
X129995680Y-77614471D01*
X130043300Y-77519233D01*
X130090919Y-77471614D01*
X130186157Y-77423995D01*
X130281395Y-77423995D01*
X130376633Y-77471614D01*
X130424252Y-77519233D01*
X130471871Y-77614471D01*
X130471871Y-77947804D01*
X122096233Y-77936695D02*
X122096233Y-77460504D01*
X121810519Y-78031933D02*
X122810519Y-77698600D01*
X121810519Y-77365266D01*
X91241619Y-78843428D02*
X92241619Y-78843428D01*
X92241619Y-79224380D01*
X92194000Y-79319619D01*
X92146380Y-79367238D01*
X92051142Y-79414857D01*
X91908285Y-79414857D01*
X91813047Y-79367238D01*
X91765428Y-79319619D01*
X91717809Y-79224380D01*
X91717809Y-78843428D01*
X91289238Y-79795809D02*
X91241619Y-79938666D01*
X91241619Y-80176761D01*
X91289238Y-80272000D01*
X91336857Y-80319619D01*
X91432095Y-80367238D01*
X91527333Y-80367238D01*
X91622571Y-80319619D01*
X91670190Y-80272000D01*
X91717809Y-80176761D01*
X91765428Y-79986285D01*
X91813047Y-79891047D01*
X91860666Y-79843428D01*
X91955904Y-79795809D01*
X92051142Y-79795809D01*
X92146380Y-79843428D01*
X92194000Y-79891047D01*
X92241619Y-79986285D01*
X92241619Y-80224380D01*
X92194000Y-80367238D01*
X92241619Y-80652952D02*
X92241619Y-81224380D01*
X91241619Y-80938666D02*
X92241619Y-80938666D01*
X91527333Y-81510095D02*
X91527333Y-81986285D01*
X91241619Y-81414857D02*
X92241619Y-81748190D01*
X91241619Y-82081523D01*
X92241619Y-82272000D02*
X92241619Y-82843428D01*
X91241619Y-82557714D02*
X92241619Y-82557714D01*
X91638428Y-85196561D02*
X91590809Y-85339419D01*
X91543190Y-85387038D01*
X91447952Y-85434657D01*
X91305095Y-85434657D01*
X91209857Y-85387038D01*
X91162238Y-85339419D01*
X91114619Y-85244180D01*
X91114619Y-84863228D01*
X92114619Y-84863228D01*
X92114619Y-85196561D01*
X92067000Y-85291800D01*
X92019380Y-85339419D01*
X91924142Y-85387038D01*
X91828904Y-85387038D01*
X91733666Y-85339419D01*
X91686047Y-85291800D01*
X91638428Y-85196561D01*
X91638428Y-84863228D01*
X91400333Y-85815609D02*
X91400333Y-86291800D01*
X91114619Y-85720371D02*
X92114619Y-86053704D01*
X91114619Y-86387038D01*
X92114619Y-86577514D02*
X92114619Y-87148942D01*
X91114619Y-86863228D02*
X92114619Y-86863228D01*
X92114619Y-87339419D02*
X92114619Y-87910847D01*
X91114619Y-87625133D02*
X92114619Y-87625133D01*
X91162238Y-88196561D02*
X91114619Y-88339419D01*
X91114619Y-88577514D01*
X91162238Y-88672752D01*
X91209857Y-88720371D01*
X91305095Y-88767990D01*
X91400333Y-88767990D01*
X91495571Y-88720371D01*
X91543190Y-88672752D01*
X91590809Y-88577514D01*
X91638428Y-88387038D01*
X91686047Y-88291800D01*
X91733666Y-88244180D01*
X91828904Y-88196561D01*
X91924142Y-88196561D01*
X92019380Y-88244180D01*
X92067000Y-88291800D01*
X92114619Y-88387038D01*
X92114619Y-88625133D01*
X92067000Y-88767990D01*
X123931514Y-143330561D02*
X124074371Y-143378180D01*
X124312466Y-143378180D01*
X124407704Y-143330561D01*
X124455323Y-143282942D01*
X124502942Y-143187704D01*
X124502942Y-143092466D01*
X124455323Y-142997228D01*
X124407704Y-142949609D01*
X124312466Y-142901990D01*
X124121990Y-142854371D01*
X124026752Y-142806752D01*
X123979133Y-142759133D01*
X123931514Y-142663895D01*
X123931514Y-142568657D01*
X123979133Y-142473419D01*
X124026752Y-142425800D01*
X124121990Y-142378180D01*
X124360085Y-142378180D01*
X124502942Y-142425800D01*
X124931514Y-143378180D02*
X124931514Y-142378180D01*
X125169609Y-142378180D01*
X125312466Y-142425800D01*
X125407704Y-142521038D01*
X125455323Y-142616276D01*
X125502942Y-142806752D01*
X125502942Y-142949609D01*
X125455323Y-143140085D01*
X125407704Y-143235323D01*
X125312466Y-143330561D01*
X125169609Y-143378180D01*
X124931514Y-143378180D01*
X125883895Y-143092466D02*
X126360085Y-143092466D01*
X125788657Y-143378180D02*
X126121990Y-142378180D01*
X126455323Y-143378180D01*
X120424723Y-143343261D02*
X120567580Y-143390880D01*
X120805676Y-143390880D01*
X120900914Y-143343261D01*
X120948533Y-143295642D01*
X120996152Y-143200404D01*
X120996152Y-143105166D01*
X120948533Y-143009928D01*
X120900914Y-142962309D01*
X120805676Y-142914690D01*
X120615200Y-142867071D01*
X120519961Y-142819452D01*
X120472342Y-142771833D01*
X120424723Y-142676595D01*
X120424723Y-142581357D01*
X120472342Y-142486119D01*
X120519961Y-142438500D01*
X120615200Y-142390880D01*
X120853295Y-142390880D01*
X120996152Y-142438500D01*
X121996152Y-143295642D02*
X121948533Y-143343261D01*
X121805676Y-143390880D01*
X121710438Y-143390880D01*
X121567580Y-143343261D01*
X121472342Y-143248023D01*
X121424723Y-143152785D01*
X121377104Y-142962309D01*
X121377104Y-142819452D01*
X121424723Y-142628976D01*
X121472342Y-142533738D01*
X121567580Y-142438500D01*
X121710438Y-142390880D01*
X121805676Y-142390880D01*
X121948533Y-142438500D01*
X121996152Y-142486119D01*
X122900914Y-143390880D02*
X122424723Y-143390880D01*
X122424723Y-142390880D01*
X138798395Y-142375000D02*
X138703157Y-142327380D01*
X138560300Y-142327380D01*
X138417442Y-142375000D01*
X138322204Y-142470238D01*
X138274585Y-142565476D01*
X138226966Y-142755952D01*
X138226966Y-142898809D01*
X138274585Y-143089285D01*
X138322204Y-143184523D01*
X138417442Y-143279761D01*
X138560300Y-143327380D01*
X138655538Y-143327380D01*
X138798395Y-143279761D01*
X138846014Y-143232142D01*
X138846014Y-142898809D01*
X138655538Y-142898809D01*
X139274585Y-143327380D02*
X139274585Y-142327380D01*
X139846014Y-143327380D01*
X139846014Y-142327380D01*
X140322204Y-143327380D02*
X140322204Y-142327380D01*
X140560300Y-142327380D01*
X140703157Y-142375000D01*
X140798395Y-142470238D01*
X140846014Y-142565476D01*
X140893633Y-142755952D01*
X140893633Y-142898809D01*
X140846014Y-143089285D01*
X140798395Y-143184523D01*
X140703157Y-143279761D01*
X140560300Y-143327380D01*
X140322204Y-143327380D01*
X141652809Y-142289280D02*
X142271857Y-142289280D01*
X141938523Y-142670233D01*
X142081380Y-142670233D01*
X142176619Y-142717852D01*
X142224238Y-142765471D01*
X142271857Y-142860709D01*
X142271857Y-143098804D01*
X142224238Y-143194042D01*
X142176619Y-143241661D01*
X142081380Y-143289280D01*
X141795666Y-143289280D01*
X141700428Y-143241661D01*
X141652809Y-143194042D01*
X142700428Y-143194042D02*
X142748047Y-143241661D01*
X142700428Y-143289280D01*
X142652809Y-143241661D01*
X142700428Y-143194042D01*
X142700428Y-143289280D01*
X143081380Y-142289280D02*
X143700428Y-142289280D01*
X143367095Y-142670233D01*
X143509952Y-142670233D01*
X143605190Y-142717852D01*
X143652809Y-142765471D01*
X143700428Y-142860709D01*
X143700428Y-143098804D01*
X143652809Y-143194042D01*
X143605190Y-143241661D01*
X143509952Y-143289280D01*
X143224238Y-143289280D01*
X143129000Y-143241661D01*
X143081380Y-143194042D01*
X143986142Y-142289280D02*
X144319476Y-143289280D01*
X144652809Y-142289280D01*
X146532623Y-142327380D02*
X146056433Y-142327380D01*
X146008814Y-142803571D01*
X146056433Y-142755952D01*
X146151671Y-142708333D01*
X146389766Y-142708333D01*
X146485004Y-142755952D01*
X146532623Y-142803571D01*
X146580242Y-142898809D01*
X146580242Y-143136904D01*
X146532623Y-143232142D01*
X146485004Y-143279761D01*
X146389766Y-143327380D01*
X146151671Y-143327380D01*
X146056433Y-143279761D01*
X146008814Y-143232142D01*
X146865957Y-142327380D02*
X147199290Y-143327380D01*
X147532623Y-142327380D01*
X135242395Y-143155942D02*
X135194776Y-143203561D01*
X135051919Y-143251180D01*
X134956680Y-143251180D01*
X134813823Y-143203561D01*
X134718585Y-143108323D01*
X134670966Y-143013085D01*
X134623347Y-142822609D01*
X134623347Y-142679752D01*
X134670966Y-142489276D01*
X134718585Y-142394038D01*
X134813823Y-142298800D01*
X134956680Y-142251180D01*
X135051919Y-142251180D01*
X135194776Y-142298800D01*
X135242395Y-142346419D01*
X135670966Y-143251180D02*
X135670966Y-142251180D01*
X136004300Y-142965466D01*
X136337633Y-142251180D01*
X136337633Y-143251180D01*
X136813823Y-143251180D02*
X136813823Y-142251180D01*
X137051919Y-142251180D01*
X137194776Y-142298800D01*
X137290014Y-142394038D01*
X137337633Y-142489276D01*
X137385252Y-142679752D01*
X137385252Y-142822609D01*
X137337633Y-143013085D01*
X137290014Y-143108323D01*
X137194776Y-143203561D01*
X137051919Y-143251180D01*
X136813823Y-143251180D01*
X128674833Y-143352780D02*
X128341500Y-142876590D01*
X128103404Y-143352780D02*
X128103404Y-142352780D01*
X128484357Y-142352780D01*
X128579595Y-142400400D01*
X128627214Y-142448019D01*
X128674833Y-142543257D01*
X128674833Y-142686114D01*
X128627214Y-142781352D01*
X128579595Y-142828971D01*
X128484357Y-142876590D01*
X128103404Y-142876590D01*
X129008166Y-142352780D02*
X129674833Y-143352780D01*
X129674833Y-142352780D02*
X129008166Y-143352780D01*
X131546695Y-142352780D02*
X132118123Y-142352780D01*
X131832409Y-143352780D02*
X131832409Y-142352780D01*
X132356219Y-142352780D02*
X133022885Y-143352780D01*
X133022885Y-142352780D02*
X132356219Y-143352780D01*
D12*
X159071759Y-92963901D02*
X159071759Y-93217901D01*
X158606092Y-93326758D02*
X158606092Y-92963901D01*
X159495092Y-92963901D01*
X159495092Y-93326758D01*
X158944759Y-93653329D02*
X158944759Y-94233901D01*
X158606092Y-95340615D02*
X159495092Y-95340615D01*
X159495092Y-95522043D01*
X159452759Y-95630901D01*
X159368092Y-95703472D01*
X159283425Y-95739758D01*
X159114092Y-95776043D01*
X158987092Y-95776043D01*
X158817759Y-95739758D01*
X158733092Y-95703472D01*
X158648425Y-95630901D01*
X158606092Y-95522043D01*
X158606092Y-95340615D01*
X158944759Y-96102615D02*
X158944759Y-96683186D01*
X158606092Y-96392901D02*
X159283425Y-96392901D01*
X162881759Y-92836901D02*
X162881759Y-93090901D01*
X162416092Y-93199758D02*
X162416092Y-92836901D01*
X163305092Y-92836901D01*
X163305092Y-93199758D01*
X162754759Y-93526329D02*
X162754759Y-94106901D01*
X162416092Y-93816615D02*
X163093425Y-93816615D01*
X162416092Y-95340615D02*
X163305092Y-95340615D01*
X163305092Y-95522043D01*
X163262759Y-95630901D01*
X163178092Y-95703472D01*
X163093425Y-95739758D01*
X162924092Y-95776043D01*
X162797092Y-95776043D01*
X162627759Y-95739758D01*
X162543092Y-95703472D01*
X162458425Y-95630901D01*
X162416092Y-95522043D01*
X162416092Y-95340615D01*
X162754759Y-96102615D02*
X162754759Y-96683186D01*
X162416092Y-121248615D02*
X163305092Y-121248615D01*
X163305092Y-121430043D01*
X163262759Y-121538901D01*
X163178092Y-121611472D01*
X163093425Y-121647758D01*
X162924092Y-121684043D01*
X162797092Y-121684043D01*
X162627759Y-121647758D01*
X162543092Y-121611472D01*
X162458425Y-121538901D01*
X162416092Y-121430043D01*
X162416092Y-121248615D01*
X162754759Y-122010615D02*
X162754759Y-122591186D01*
X162881759Y-118744901D02*
X162881759Y-118998901D01*
X162416092Y-119107758D02*
X162416092Y-118744901D01*
X163305092Y-118744901D01*
X163305092Y-119107758D01*
X162754759Y-119434329D02*
X162754759Y-120014901D01*
X162416092Y-119724615D02*
X163093425Y-119724615D01*
X159071759Y-118871901D02*
X159071759Y-119125901D01*
X158606092Y-119234758D02*
X158606092Y-118871901D01*
X159495092Y-118871901D01*
X159495092Y-119234758D01*
X158944759Y-119561329D02*
X158944759Y-120141901D01*
X158606092Y-121248615D02*
X159495092Y-121248615D01*
X159495092Y-121430043D01*
X159452759Y-121538901D01*
X159368092Y-121611472D01*
X159283425Y-121647758D01*
X159114092Y-121684043D01*
X158987092Y-121684043D01*
X158817759Y-121647758D01*
X158733092Y-121611472D01*
X158648425Y-121538901D01*
X158606092Y-121430043D01*
X158606092Y-121248615D01*
X158944759Y-122010615D02*
X158944759Y-122591186D01*
X158606092Y-122300901D02*
X159283425Y-122300901D01*
D13*
X168005401Y-129012043D02*
X167933973Y-129226329D01*
X167862544Y-129297758D01*
X167719687Y-129369186D01*
X167505401Y-129369186D01*
X167362544Y-129297758D01*
X167291116Y-129226329D01*
X167219687Y-129083472D01*
X167219687Y-128512043D01*
X168719687Y-128512043D01*
X168719687Y-129012043D01*
X168648259Y-129154901D01*
X168576830Y-129226329D01*
X168433973Y-129297758D01*
X168291116Y-129297758D01*
X168148259Y-129226329D01*
X168076830Y-129154901D01*
X168005401Y-129012043D01*
X168005401Y-128512043D01*
X167648259Y-85875758D02*
X167648259Y-86590043D01*
X167219687Y-85732901D02*
X168719687Y-86232901D01*
X167219687Y-86732901D01*
D14*
G04 #@! TO.C,U1*
X94021600Y-98402900D02*
G75*
G02X94021600Y-100402900I0J-1000000D01*
G01*
X94021600Y-100402900D02*
X94021600Y-101652900D01*
X94021600Y-101652900D02*
X129701600Y-101652900D01*
X129701600Y-101652900D02*
X129701600Y-97152900D01*
X129701600Y-97152900D02*
X94021600Y-97152900D01*
X94021600Y-97152900D02*
X94021600Y-98402900D01*
G04 #@! TO.C,R3*
X146286400Y-85420200D02*
X146176400Y-85420200D01*
X133926400Y-85420200D02*
X134036400Y-85420200D01*
X146176400Y-83050200D02*
X134036400Y-83050200D01*
X146176400Y-87790200D02*
X146176400Y-83050200D01*
X134036400Y-87790200D02*
X146176400Y-87790200D01*
X134036400Y-83050200D02*
X134036400Y-87790200D01*
G04 #@! TO.C,Q2*
X105803784Y-140365595D02*
G75*
G02X105279600Y-141092800I-2324184J1122795D01*
G01*
X105836000Y-138143993D02*
G75*
G03X103479600Y-136642800I-2356400J-1098807D01*
G01*
X101123200Y-138143993D02*
G75*
G02X103479600Y-136642800I2356400J-1098807D01*
G01*
X101155416Y-140365595D02*
G75*
G03X101679600Y-141092800I2324184J1122795D01*
G01*
X101679600Y-141092800D02*
X105279600Y-141092800D01*
G04 #@! TO.C,Q1*
X128054184Y-140238595D02*
G75*
G02X127530000Y-140965800I-2324184J1122795D01*
G01*
X128086400Y-138016993D02*
G75*
G03X125730000Y-136515800I-2356400J-1098807D01*
G01*
X123373600Y-138016993D02*
G75*
G02X125730000Y-136515800I2356400J-1098807D01*
G01*
X123405816Y-140238595D02*
G75*
G03X123930000Y-140965800I2324184J1122795D01*
G01*
X123930000Y-140965800D02*
X127530000Y-140965800D01*
G04 #@! TO.C,Q3*
X116611484Y-140340195D02*
G75*
G02X116087300Y-141067400I-2324184J1122795D01*
G01*
X116643700Y-138118593D02*
G75*
G03X114287300Y-136617400I-2356400J-1098807D01*
G01*
X111930900Y-138118593D02*
G75*
G02X114287300Y-136617400I2356400J-1098807D01*
G01*
X111963116Y-140340195D02*
G75*
G03X112487300Y-141067400I2324184J1122795D01*
G01*
X112487300Y-141067400D02*
X116087300Y-141067400D01*
D15*
G04 #@! TO.C,U3*
X115452900Y-72618600D02*
X115452900Y-82778600D01*
X121452900Y-72618600D02*
X115452900Y-72618600D01*
X121452900Y-82778600D02*
X121452900Y-72618600D01*
X115452900Y-82778600D02*
X121452900Y-82778600D01*
G04 #@! TO.C,U2*
X137353300Y-82765900D02*
X137353300Y-72605900D01*
X131353300Y-82765900D02*
X137353300Y-82765900D01*
X131353300Y-72605900D02*
X131353300Y-82765900D01*
X137353300Y-72605900D02*
X131353300Y-72605900D01*
D14*
G04 #@! TO.C,J10*
X95619880Y-87867800D02*
X95619880Y-85207800D01*
X95559880Y-87867800D02*
X95619880Y-87867800D01*
X95559880Y-85207800D02*
X95619880Y-85207800D01*
X95559880Y-87867800D02*
X95559880Y-85207800D01*
X94289880Y-87867800D02*
X92959880Y-87867800D01*
X92959880Y-87867800D02*
X92959880Y-86537800D01*
G04 #@! TO.C,J4*
X127486100Y-147316500D02*
X130146100Y-147316500D01*
X127486100Y-147256500D02*
X127486100Y-147316500D01*
X130146100Y-147256500D02*
X130146100Y-147316500D01*
X127486100Y-147256500D02*
X130146100Y-147256500D01*
X127486100Y-145986500D02*
X127486100Y-144656500D01*
X127486100Y-144656500D02*
X128816100Y-144656500D01*
G04 #@! TO.C,J1*
X145520100Y-147367300D02*
X148180100Y-147367300D01*
X145520100Y-147307300D02*
X145520100Y-147367300D01*
X148180100Y-147307300D02*
X148180100Y-147367300D01*
X145520100Y-147307300D02*
X148180100Y-147307300D01*
X145520100Y-146037300D02*
X145520100Y-144707300D01*
X145520100Y-144707300D02*
X146850100Y-144707300D01*
G04 #@! TO.C,J7*
X126539300Y-147316500D02*
X125209300Y-147316500D01*
X126539300Y-145986500D02*
X126539300Y-147316500D01*
X126539300Y-144716500D02*
X123879300Y-144716500D01*
X123879300Y-144716500D02*
X123879300Y-144656500D01*
X126539300Y-144716500D02*
X126539300Y-144656500D01*
X126539300Y-144656500D02*
X123879300Y-144656500D01*
G04 #@! TO.C,J5*
X131054800Y-144669200D02*
X132384800Y-144669200D01*
X131054800Y-145999200D02*
X131054800Y-144669200D01*
X131054800Y-147269200D02*
X133714800Y-147269200D01*
X133714800Y-147269200D02*
X133714800Y-147329200D01*
X131054800Y-147269200D02*
X131054800Y-147329200D01*
X131054800Y-147329200D02*
X133714800Y-147329200D01*
G04 #@! TO.C,J8*
X122932500Y-144656500D02*
X120272500Y-144656500D01*
X122932500Y-144716500D02*
X122932500Y-144656500D01*
X120272500Y-144716500D02*
X120272500Y-144656500D01*
X122932500Y-144716500D02*
X120272500Y-144716500D01*
X122932500Y-145986500D02*
X122932500Y-147316500D01*
X122932500Y-147316500D02*
X121602500Y-147316500D01*
G04 #@! TO.C,J6*
X141875200Y-147354600D02*
X144535200Y-147354600D01*
X141875200Y-147294600D02*
X141875200Y-147354600D01*
X144535200Y-147294600D02*
X144535200Y-147354600D01*
X141875200Y-147294600D02*
X144535200Y-147294600D01*
X141875200Y-146024600D02*
X141875200Y-144694600D01*
X141875200Y-144694600D02*
X143205200Y-144694600D01*
G04 #@! TO.C,J9*
X92904000Y-82102000D02*
X92904000Y-80772000D01*
X94234000Y-82102000D02*
X92904000Y-82102000D01*
X95504000Y-82102000D02*
X95504000Y-79442000D01*
X95504000Y-79442000D02*
X95564000Y-79442000D01*
X95504000Y-82102000D02*
X95564000Y-82102000D01*
X95564000Y-82102000D02*
X95564000Y-79442000D01*
G04 #@! TO.C,J3*
X134674300Y-144643800D02*
X136004300Y-144643800D01*
X134674300Y-145973800D02*
X134674300Y-144643800D01*
X134674300Y-147243800D02*
X137334300Y-147243800D01*
X137334300Y-147243800D02*
X137334300Y-147303800D01*
X134674300Y-147243800D02*
X134674300Y-147303800D01*
X134674300Y-147303800D02*
X137334300Y-147303800D01*
G04 #@! TO.C,J2*
X138281100Y-144694600D02*
X139611100Y-144694600D01*
X138281100Y-146024600D02*
X138281100Y-144694600D01*
X138281100Y-147294600D02*
X140941100Y-147294600D01*
X140941100Y-147294600D02*
X140941100Y-147354600D01*
X138281100Y-147294600D02*
X138281100Y-147354600D01*
X138281100Y-147354600D02*
X140941100Y-147354600D01*
G04 #@! TO.C,C1*
X111158400Y-88134200D02*
X111158400Y-93374200D01*
X101918400Y-88134200D02*
X101918400Y-93374200D01*
X101918400Y-93374200D02*
X111158400Y-93374200D01*
X101918400Y-88134200D02*
X111158400Y-88134200D01*
G04 #@! TO.C,C2*
X110290600Y-105791900D02*
X110290600Y-115031900D01*
X105050600Y-105791900D02*
X105050600Y-115031900D01*
X110290600Y-105791900D02*
X105050600Y-105791900D01*
X110290600Y-115031900D02*
X105050600Y-115031900D01*
G04 #@! TO.C,C3*
X112234600Y-117389900D02*
X112234600Y-112149900D01*
X121474600Y-117389900D02*
X121474600Y-112149900D01*
X121474600Y-112149900D02*
X112234600Y-112149900D01*
X121474600Y-117389900D02*
X112234600Y-117389900D01*
G04 #@! TO.C,C4*
X123846600Y-115365900D02*
X123846600Y-106125900D01*
X129086600Y-115365900D02*
X129086600Y-106125900D01*
X123846600Y-115365900D02*
X129086600Y-115365900D01*
X123846600Y-106125900D02*
X129086600Y-106125900D01*
G04 #@! TO.C,R1*
X146303400Y-93124200D02*
X146303400Y-88384200D01*
X146303400Y-88384200D02*
X134163400Y-88384200D01*
X134163400Y-88384200D02*
X134163400Y-93124200D01*
X134163400Y-93124200D02*
X146303400Y-93124200D01*
X146413400Y-90754200D02*
X146303400Y-90754200D01*
X134053400Y-90754200D02*
X134163400Y-90754200D01*
G04 #@! TO.C,R2*
X114876400Y-90754200D02*
X114986400Y-90754200D01*
X127236400Y-90754200D02*
X127126400Y-90754200D01*
X114986400Y-93124200D02*
X127126400Y-93124200D01*
X114986400Y-88384200D02*
X114986400Y-93124200D01*
X127126400Y-88384200D02*
X114986400Y-88384200D01*
X127126400Y-93124200D02*
X127126400Y-88384200D01*
G04 #@! TO.C,R4*
X127236400Y-85420200D02*
X127126400Y-85420200D01*
X114876400Y-85420200D02*
X114986400Y-85420200D01*
X127126400Y-83050200D02*
X114986400Y-83050200D01*
X127126400Y-87790200D02*
X127126400Y-83050200D01*
X114986400Y-87790200D02*
X127126400Y-87790200D01*
X114986400Y-83050200D02*
X114986400Y-87790200D01*
G04 #@! TO.C,R5*
X125560000Y-120930000D02*
X120820000Y-120930000D01*
X120820000Y-120930000D02*
X120820000Y-133070000D01*
X120820000Y-133070000D02*
X125560000Y-133070000D01*
X125560000Y-133070000D02*
X125560000Y-120930000D01*
X123190000Y-120820000D02*
X123190000Y-120930000D01*
X123190000Y-133180000D02*
X123190000Y-133070000D01*
G04 #@! TO.C,R6*
X102700000Y-120930000D02*
X97960000Y-120930000D01*
X97960000Y-120930000D02*
X97960000Y-133070000D01*
X97960000Y-133070000D02*
X102700000Y-133070000D01*
X102700000Y-133070000D02*
X102700000Y-120930000D01*
X100330000Y-120820000D02*
X100330000Y-120930000D01*
X100330000Y-133180000D02*
X100330000Y-133070000D01*
G04 #@! TO.C,R7*
X111760000Y-133180000D02*
X111760000Y-133070000D01*
X111760000Y-120820000D02*
X111760000Y-120930000D01*
X114130000Y-133070000D02*
X114130000Y-120930000D01*
X109390000Y-133070000D02*
X114130000Y-133070000D01*
X109390000Y-120930000D02*
X109390000Y-133070000D01*
X114130000Y-120930000D02*
X109390000Y-120930000D01*
G04 #@! TO.C,R8*
X128905000Y-133180000D02*
X128905000Y-133070000D01*
X128905000Y-120820000D02*
X128905000Y-120930000D01*
X131275000Y-133070000D02*
X131275000Y-120930000D01*
X126535000Y-133070000D02*
X131275000Y-133070000D01*
X126535000Y-120930000D02*
X126535000Y-133070000D01*
X131275000Y-120930000D02*
X126535000Y-120930000D01*
G04 #@! TO.C,R9*
X106045000Y-133180000D02*
X106045000Y-133070000D01*
X106045000Y-120820000D02*
X106045000Y-120930000D01*
X108415000Y-133070000D02*
X108415000Y-120930000D01*
X103675000Y-133070000D02*
X108415000Y-133070000D01*
X103675000Y-120930000D02*
X103675000Y-133070000D01*
X108415000Y-120930000D02*
X103675000Y-120930000D01*
G04 #@! TO.C,R10*
X119845000Y-120930000D02*
X115105000Y-120930000D01*
X115105000Y-120930000D02*
X115105000Y-133070000D01*
X115105000Y-133070000D02*
X119845000Y-133070000D01*
X119845000Y-133070000D02*
X119845000Y-120930000D01*
X117475000Y-120820000D02*
X117475000Y-120930000D01*
X117475000Y-133180000D02*
X117475000Y-133070000D01*
G04 #@! TO.C,Y1*
X113648020Y-106324160D02*
X119898020Y-106324160D01*
X113648020Y-111374160D02*
X119898020Y-111374160D01*
X113648020Y-111374160D02*
G75*
G02X113648020Y-106324160I0J2525000D01*
G01*
X119898020Y-111374160D02*
G75*
G03X119898020Y-106324160I0J2525000D01*
G01*
D15*
G04 #@! TO.C,U4*
X142341600Y-97012900D02*
X143141600Y-97812900D01*
X143141600Y-97812900D02*
X143141600Y-109412900D01*
X143141600Y-109412900D02*
X133921600Y-109412900D01*
X133921600Y-109412900D02*
X133921600Y-97012900D01*
X133921600Y-97012900D02*
X142341600Y-97012900D01*
G04 #@! TO.C,U2*
X164871258Y-132532902D02*
X170871258Y-132532902D01*
X170871258Y-132532902D02*
X170871258Y-108532902D01*
X170871258Y-108532902D02*
X164871258Y-108532902D01*
X164871258Y-108532902D02*
X164871258Y-132532902D01*
G04 #@! TO.C,U1*
X164871258Y-82624902D02*
X164871258Y-106624902D01*
X170871258Y-82624902D02*
X164871258Y-82624902D01*
X170871258Y-106624902D02*
X170871258Y-82624902D01*
X164871258Y-106624902D02*
X170871258Y-106624902D01*
X97051880Y-100558504D02*
X97861404Y-100558504D01*
X97956642Y-100510885D01*
X98004261Y-100463266D01*
X98051880Y-100368028D01*
X98051880Y-100177552D01*
X98004261Y-100082314D01*
X97956642Y-100034695D01*
X97861404Y-99987076D01*
X97051880Y-99987076D01*
X98051880Y-98987076D02*
X98051880Y-99558504D01*
X98051880Y-99272790D02*
X97051880Y-99272790D01*
X97194738Y-99368028D01*
X97289976Y-99463266D01*
X97337595Y-99558504D01*
G04 #@! TO.C,R3*
X144511733Y-87396580D02*
X144178400Y-86920390D01*
X143940304Y-87396580D02*
X143940304Y-86396580D01*
X144321257Y-86396580D01*
X144416495Y-86444200D01*
X144464114Y-86491819D01*
X144511733Y-86587057D01*
X144511733Y-86729914D01*
X144464114Y-86825152D01*
X144416495Y-86872771D01*
X144321257Y-86920390D01*
X143940304Y-86920390D01*
X144845066Y-86396580D02*
X145464114Y-86396580D01*
X145130780Y-86777533D01*
X145273638Y-86777533D01*
X145368876Y-86825152D01*
X145416495Y-86872771D01*
X145464114Y-86968009D01*
X145464114Y-87206104D01*
X145416495Y-87301342D01*
X145368876Y-87348961D01*
X145273638Y-87396580D01*
X144987923Y-87396580D01*
X144892685Y-87348961D01*
X144845066Y-87301342D01*
G04 #@! TO.C,Q2*
X103308161Y-137974319D02*
X103212923Y-137926700D01*
X103117685Y-137831461D01*
X102974828Y-137688604D01*
X102879590Y-137640985D01*
X102784352Y-137640985D01*
X102831971Y-137879080D02*
X102736733Y-137831461D01*
X102641495Y-137736223D01*
X102593876Y-137545747D01*
X102593876Y-137212414D01*
X102641495Y-137021938D01*
X102736733Y-136926700D01*
X102831971Y-136879080D01*
X103022447Y-136879080D01*
X103117685Y-136926700D01*
X103212923Y-137021938D01*
X103260542Y-137212414D01*
X103260542Y-137545747D01*
X103212923Y-137736223D01*
X103117685Y-137831461D01*
X103022447Y-137879080D01*
X102831971Y-137879080D01*
X103641495Y-136974319D02*
X103689114Y-136926700D01*
X103784352Y-136879080D01*
X104022447Y-136879080D01*
X104117685Y-136926700D01*
X104165304Y-136974319D01*
X104212923Y-137069557D01*
X104212923Y-137164795D01*
X104165304Y-137307652D01*
X103593876Y-137879080D01*
X104212923Y-137879080D01*
G04 #@! TO.C,Q1*
X125596661Y-137771119D02*
X125501423Y-137723500D01*
X125406185Y-137628261D01*
X125263328Y-137485404D01*
X125168090Y-137437785D01*
X125072852Y-137437785D01*
X125120471Y-137675880D02*
X125025233Y-137628261D01*
X124929995Y-137533023D01*
X124882376Y-137342547D01*
X124882376Y-137009214D01*
X124929995Y-136818738D01*
X125025233Y-136723500D01*
X125120471Y-136675880D01*
X125310947Y-136675880D01*
X125406185Y-136723500D01*
X125501423Y-136818738D01*
X125549042Y-137009214D01*
X125549042Y-137342547D01*
X125501423Y-137533023D01*
X125406185Y-137628261D01*
X125310947Y-137675880D01*
X125120471Y-137675880D01*
X126501423Y-137675880D02*
X125929995Y-137675880D01*
X126215709Y-137675880D02*
X126215709Y-136675880D01*
X126120471Y-136818738D01*
X126025233Y-136913976D01*
X125929995Y-136961595D01*
G04 #@! TO.C,Q3*
X114077761Y-137771119D02*
X113982523Y-137723500D01*
X113887285Y-137628261D01*
X113744428Y-137485404D01*
X113649190Y-137437785D01*
X113553952Y-137437785D01*
X113601571Y-137675880D02*
X113506333Y-137628261D01*
X113411095Y-137533023D01*
X113363476Y-137342547D01*
X113363476Y-137009214D01*
X113411095Y-136818738D01*
X113506333Y-136723500D01*
X113601571Y-136675880D01*
X113792047Y-136675880D01*
X113887285Y-136723500D01*
X113982523Y-136818738D01*
X114030142Y-137009214D01*
X114030142Y-137342547D01*
X113982523Y-137533023D01*
X113887285Y-137628261D01*
X113792047Y-137675880D01*
X113601571Y-137675880D01*
X114363476Y-136675880D02*
X114982523Y-136675880D01*
X114649190Y-137056833D01*
X114792047Y-137056833D01*
X114887285Y-137104452D01*
X114934904Y-137152071D01*
X114982523Y-137247309D01*
X114982523Y-137485404D01*
X114934904Y-137580642D01*
X114887285Y-137628261D01*
X114792047Y-137675880D01*
X114506333Y-137675880D01*
X114411095Y-137628261D01*
X114363476Y-137580642D01*
G04 #@! TO.C,U3*
X115317519Y-76936695D02*
X114507995Y-76936695D01*
X114412757Y-76984314D01*
X114365138Y-77031933D01*
X114317519Y-77127171D01*
X114317519Y-77317647D01*
X114365138Y-77412885D01*
X114412757Y-77460504D01*
X114507995Y-77508123D01*
X115317519Y-77508123D01*
X115317519Y-77889076D02*
X115317519Y-78508123D01*
X114936566Y-78174790D01*
X114936566Y-78317647D01*
X114888947Y-78412885D01*
X114841328Y-78460504D01*
X114746090Y-78508123D01*
X114507995Y-78508123D01*
X114412757Y-78460504D01*
X114365138Y-78412885D01*
X114317519Y-78317647D01*
X114317519Y-78031933D01*
X114365138Y-77936695D01*
X114412757Y-77889076D01*
X119270519Y-78087647D02*
X120270519Y-78087647D01*
X120270519Y-78325742D01*
X120222900Y-78468600D01*
X120127661Y-78563838D01*
X120032423Y-78611457D01*
X119841947Y-78659076D01*
X119699090Y-78659076D01*
X119508614Y-78611457D01*
X119413376Y-78563838D01*
X119318138Y-78468600D01*
X119270519Y-78325742D01*
X119270519Y-78087647D01*
X119651471Y-79087647D02*
X119651471Y-79849552D01*
X116730519Y-78087647D02*
X117730519Y-78087647D01*
X117730519Y-78325742D01*
X117682900Y-78468600D01*
X117587661Y-78563838D01*
X117492423Y-78611457D01*
X117301947Y-78659076D01*
X117159090Y-78659076D01*
X116968614Y-78611457D01*
X116873376Y-78563838D01*
X116778138Y-78468600D01*
X116730519Y-78325742D01*
X116730519Y-78087647D01*
X117111471Y-79087647D02*
X117111471Y-79849552D01*
X116730519Y-79468600D02*
X117492423Y-79468600D01*
X117254328Y-75595266D02*
X117254328Y-75928600D01*
X116730519Y-76071457D02*
X116730519Y-75595266D01*
X117730519Y-75595266D01*
X117730519Y-76071457D01*
X117111471Y-76500028D02*
X117111471Y-77261933D01*
X119794328Y-75595266D02*
X119794328Y-75928600D01*
X119270519Y-76071457D02*
X119270519Y-75595266D01*
X120270519Y-75595266D01*
X120270519Y-76071457D01*
X119651471Y-76500028D02*
X119651471Y-77261933D01*
X119270519Y-76880980D02*
X120032423Y-76880980D01*
G04 #@! TO.C,U2*
X137615680Y-78447804D02*
X138425204Y-78447804D01*
X138520442Y-78400185D01*
X138568061Y-78352566D01*
X138615680Y-78257328D01*
X138615680Y-78066852D01*
X138568061Y-77971614D01*
X138520442Y-77923995D01*
X138425204Y-77876376D01*
X137615680Y-77876376D01*
X137710919Y-77447804D02*
X137663300Y-77400185D01*
X137615680Y-77304947D01*
X137615680Y-77066852D01*
X137663300Y-76971614D01*
X137710919Y-76923995D01*
X137806157Y-76876376D01*
X137901395Y-76876376D01*
X138044252Y-76923995D01*
X138615680Y-77495423D01*
X138615680Y-76876376D01*
X133535680Y-77296852D02*
X132535680Y-77296852D01*
X132535680Y-77058757D01*
X132583300Y-76915900D01*
X132678538Y-76820661D01*
X132773776Y-76773042D01*
X132964252Y-76725423D01*
X133107109Y-76725423D01*
X133297585Y-76773042D01*
X133392823Y-76820661D01*
X133488061Y-76915900D01*
X133535680Y-77058757D01*
X133535680Y-77296852D01*
X133154728Y-76296852D02*
X133154728Y-75534947D01*
X136075680Y-77296852D02*
X135075680Y-77296852D01*
X135075680Y-77058757D01*
X135123300Y-76915900D01*
X135218538Y-76820661D01*
X135313776Y-76773042D01*
X135504252Y-76725423D01*
X135647109Y-76725423D01*
X135837585Y-76773042D01*
X135932823Y-76820661D01*
X136028061Y-76915900D01*
X136075680Y-77058757D01*
X136075680Y-77296852D01*
X135694728Y-76296852D02*
X135694728Y-75534947D01*
X136075680Y-75915900D02*
X135313776Y-75915900D01*
X135551871Y-79789233D02*
X135551871Y-79455900D01*
X136075680Y-79313042D02*
X136075680Y-79789233D01*
X135075680Y-79789233D01*
X135075680Y-79313042D01*
X135694728Y-78884471D02*
X135694728Y-78122566D01*
X133011871Y-79789233D02*
X133011871Y-79455900D01*
X133535680Y-79313042D02*
X133535680Y-79789233D01*
X132535680Y-79789233D01*
X132535680Y-79313042D01*
X133154728Y-78884471D02*
X133154728Y-78122566D01*
X133535680Y-78503519D02*
X132773776Y-78503519D01*
G04 #@! TO.C,C1*
X106371733Y-91085942D02*
X106324114Y-91133561D01*
X106181257Y-91181180D01*
X106086019Y-91181180D01*
X105943161Y-91133561D01*
X105847923Y-91038323D01*
X105800304Y-90943085D01*
X105752685Y-90752609D01*
X105752685Y-90609752D01*
X105800304Y-90419276D01*
X105847923Y-90324038D01*
X105943161Y-90228800D01*
X106086019Y-90181180D01*
X106181257Y-90181180D01*
X106324114Y-90228800D01*
X106371733Y-90276419D01*
X107324114Y-91181180D02*
X106752685Y-91181180D01*
X107038400Y-91181180D02*
X107038400Y-90181180D01*
X106943161Y-90324038D01*
X106847923Y-90419276D01*
X106752685Y-90466895D01*
G04 #@! TO.C,C2*
X107938842Y-110593166D02*
X107986461Y-110640785D01*
X108034080Y-110783642D01*
X108034080Y-110878880D01*
X107986461Y-111021738D01*
X107891223Y-111116976D01*
X107795985Y-111164595D01*
X107605509Y-111212214D01*
X107462652Y-111212214D01*
X107272176Y-111164595D01*
X107176938Y-111116976D01*
X107081700Y-111021738D01*
X107034080Y-110878880D01*
X107034080Y-110783642D01*
X107081700Y-110640785D01*
X107129319Y-110593166D01*
X107129319Y-110212214D02*
X107081700Y-110164595D01*
X107034080Y-110069357D01*
X107034080Y-109831261D01*
X107081700Y-109736023D01*
X107129319Y-109688404D01*
X107224557Y-109640785D01*
X107319795Y-109640785D01*
X107462652Y-109688404D01*
X108034080Y-110259833D01*
X108034080Y-109640785D01*
G04 #@! TO.C,C3*
X116724133Y-115152442D02*
X116676514Y-115200061D01*
X116533657Y-115247680D01*
X116438419Y-115247680D01*
X116295561Y-115200061D01*
X116200323Y-115104823D01*
X116152704Y-115009585D01*
X116105085Y-114819109D01*
X116105085Y-114676252D01*
X116152704Y-114485776D01*
X116200323Y-114390538D01*
X116295561Y-114295300D01*
X116438419Y-114247680D01*
X116533657Y-114247680D01*
X116676514Y-114295300D01*
X116724133Y-114342919D01*
X117057466Y-114247680D02*
X117676514Y-114247680D01*
X117343180Y-114628633D01*
X117486038Y-114628633D01*
X117581276Y-114676252D01*
X117628895Y-114723871D01*
X117676514Y-114819109D01*
X117676514Y-115057204D01*
X117628895Y-115152442D01*
X117581276Y-115200061D01*
X117486038Y-115247680D01*
X117200323Y-115247680D01*
X117105085Y-115200061D01*
X117057466Y-115152442D01*
G04 #@! TO.C,C4*
X126912642Y-110986866D02*
X126960261Y-111034485D01*
X127007880Y-111177342D01*
X127007880Y-111272580D01*
X126960261Y-111415438D01*
X126865023Y-111510676D01*
X126769785Y-111558295D01*
X126579309Y-111605914D01*
X126436452Y-111605914D01*
X126245976Y-111558295D01*
X126150738Y-111510676D01*
X126055500Y-111415438D01*
X126007880Y-111272580D01*
X126007880Y-111177342D01*
X126055500Y-111034485D01*
X126103119Y-110986866D01*
X126341214Y-110129723D02*
X127007880Y-110129723D01*
X125960261Y-110367819D02*
X126674547Y-110605914D01*
X126674547Y-109986866D01*
G04 #@! TO.C,R1*
X144511733Y-92476580D02*
X144178400Y-92000390D01*
X143940304Y-92476580D02*
X143940304Y-91476580D01*
X144321257Y-91476580D01*
X144416495Y-91524200D01*
X144464114Y-91571819D01*
X144511733Y-91667057D01*
X144511733Y-91809914D01*
X144464114Y-91905152D01*
X144416495Y-91952771D01*
X144321257Y-92000390D01*
X143940304Y-92000390D01*
X145464114Y-92476580D02*
X144892685Y-92476580D01*
X145178400Y-92476580D02*
X145178400Y-91476580D01*
X145083161Y-91619438D01*
X144987923Y-91714676D01*
X144892685Y-91762295D01*
G04 #@! TO.C,R2*
X124826733Y-92476580D02*
X124493400Y-92000390D01*
X124255304Y-92476580D02*
X124255304Y-91476580D01*
X124636257Y-91476580D01*
X124731495Y-91524200D01*
X124779114Y-91571819D01*
X124826733Y-91667057D01*
X124826733Y-91809914D01*
X124779114Y-91905152D01*
X124731495Y-91952771D01*
X124636257Y-92000390D01*
X124255304Y-92000390D01*
X125207685Y-91571819D02*
X125255304Y-91524200D01*
X125350542Y-91476580D01*
X125588638Y-91476580D01*
X125683876Y-91524200D01*
X125731495Y-91571819D01*
X125779114Y-91667057D01*
X125779114Y-91762295D01*
X125731495Y-91905152D01*
X125160066Y-92476580D01*
X125779114Y-92476580D01*
G04 #@! TO.C,R4*
X124826733Y-87396580D02*
X124493400Y-86920390D01*
X124255304Y-87396580D02*
X124255304Y-86396580D01*
X124636257Y-86396580D01*
X124731495Y-86444200D01*
X124779114Y-86491819D01*
X124826733Y-86587057D01*
X124826733Y-86729914D01*
X124779114Y-86825152D01*
X124731495Y-86872771D01*
X124636257Y-86920390D01*
X124255304Y-86920390D01*
X125683876Y-86729914D02*
X125683876Y-87396580D01*
X125445780Y-86348961D02*
X125207685Y-87063247D01*
X125826733Y-87063247D01*
G04 #@! TO.C,R5*
X123642380Y-127166666D02*
X123166190Y-127500000D01*
X123642380Y-127738095D02*
X122642380Y-127738095D01*
X122642380Y-127357142D01*
X122690000Y-127261904D01*
X122737619Y-127214285D01*
X122832857Y-127166666D01*
X122975714Y-127166666D01*
X123070952Y-127214285D01*
X123118571Y-127261904D01*
X123166190Y-127357142D01*
X123166190Y-127738095D01*
X122642380Y-126261904D02*
X122642380Y-126738095D01*
X123118571Y-126785714D01*
X123070952Y-126738095D01*
X123023333Y-126642857D01*
X123023333Y-126404761D01*
X123070952Y-126309523D01*
X123118571Y-126261904D01*
X123213809Y-126214285D01*
X123451904Y-126214285D01*
X123547142Y-126261904D01*
X123594761Y-126309523D01*
X123642380Y-126404761D01*
X123642380Y-126642857D01*
X123594761Y-126738095D01*
X123547142Y-126785714D01*
G04 #@! TO.C,R6*
X100782380Y-127166666D02*
X100306190Y-127500000D01*
X100782380Y-127738095D02*
X99782380Y-127738095D01*
X99782380Y-127357142D01*
X99830000Y-127261904D01*
X99877619Y-127214285D01*
X99972857Y-127166666D01*
X100115714Y-127166666D01*
X100210952Y-127214285D01*
X100258571Y-127261904D01*
X100306190Y-127357142D01*
X100306190Y-127738095D01*
X99782380Y-126309523D02*
X99782380Y-126500000D01*
X99830000Y-126595238D01*
X99877619Y-126642857D01*
X100020476Y-126738095D01*
X100210952Y-126785714D01*
X100591904Y-126785714D01*
X100687142Y-126738095D01*
X100734761Y-126690476D01*
X100782380Y-126595238D01*
X100782380Y-126404761D01*
X100734761Y-126309523D01*
X100687142Y-126261904D01*
X100591904Y-126214285D01*
X100353809Y-126214285D01*
X100258571Y-126261904D01*
X100210952Y-126309523D01*
X100163333Y-126404761D01*
X100163333Y-126595238D01*
X100210952Y-126690476D01*
X100258571Y-126738095D01*
X100353809Y-126785714D01*
G04 #@! TO.C,R7*
X112212380Y-127166666D02*
X111736190Y-127500000D01*
X112212380Y-127738095D02*
X111212380Y-127738095D01*
X111212380Y-127357142D01*
X111260000Y-127261904D01*
X111307619Y-127214285D01*
X111402857Y-127166666D01*
X111545714Y-127166666D01*
X111640952Y-127214285D01*
X111688571Y-127261904D01*
X111736190Y-127357142D01*
X111736190Y-127738095D01*
X111212380Y-126833333D02*
X111212380Y-126166666D01*
X112212380Y-126595238D01*
G04 #@! TO.C,R8*
X129357380Y-127166666D02*
X128881190Y-127500000D01*
X129357380Y-127738095D02*
X128357380Y-127738095D01*
X128357380Y-127357142D01*
X128405000Y-127261904D01*
X128452619Y-127214285D01*
X128547857Y-127166666D01*
X128690714Y-127166666D01*
X128785952Y-127214285D01*
X128833571Y-127261904D01*
X128881190Y-127357142D01*
X128881190Y-127738095D01*
X128785952Y-126595238D02*
X128738333Y-126690476D01*
X128690714Y-126738095D01*
X128595476Y-126785714D01*
X128547857Y-126785714D01*
X128452619Y-126738095D01*
X128405000Y-126690476D01*
X128357380Y-126595238D01*
X128357380Y-126404761D01*
X128405000Y-126309523D01*
X128452619Y-126261904D01*
X128547857Y-126214285D01*
X128595476Y-126214285D01*
X128690714Y-126261904D01*
X128738333Y-126309523D01*
X128785952Y-126404761D01*
X128785952Y-126595238D01*
X128833571Y-126690476D01*
X128881190Y-126738095D01*
X128976428Y-126785714D01*
X129166904Y-126785714D01*
X129262142Y-126738095D01*
X129309761Y-126690476D01*
X129357380Y-126595238D01*
X129357380Y-126404761D01*
X129309761Y-126309523D01*
X129262142Y-126261904D01*
X129166904Y-126214285D01*
X128976428Y-126214285D01*
X128881190Y-126261904D01*
X128833571Y-126309523D01*
X128785952Y-126404761D01*
G04 #@! TO.C,R9*
X106497380Y-127166666D02*
X106021190Y-127500000D01*
X106497380Y-127738095D02*
X105497380Y-127738095D01*
X105497380Y-127357142D01*
X105545000Y-127261904D01*
X105592619Y-127214285D01*
X105687857Y-127166666D01*
X105830714Y-127166666D01*
X105925952Y-127214285D01*
X105973571Y-127261904D01*
X106021190Y-127357142D01*
X106021190Y-127738095D01*
X106497380Y-126690476D02*
X106497380Y-126500000D01*
X106449761Y-126404761D01*
X106402142Y-126357142D01*
X106259285Y-126261904D01*
X106068809Y-126214285D01*
X105687857Y-126214285D01*
X105592619Y-126261904D01*
X105545000Y-126309523D01*
X105497380Y-126404761D01*
X105497380Y-126595238D01*
X105545000Y-126690476D01*
X105592619Y-126738095D01*
X105687857Y-126785714D01*
X105925952Y-126785714D01*
X106021190Y-126738095D01*
X106068809Y-126690476D01*
X106116428Y-126595238D01*
X106116428Y-126404761D01*
X106068809Y-126309523D01*
X106021190Y-126261904D01*
X105925952Y-126214285D01*
G04 #@! TO.C,R10*
X117927380Y-127642857D02*
X117451190Y-127976190D01*
X117927380Y-128214285D02*
X116927380Y-128214285D01*
X116927380Y-127833333D01*
X116975000Y-127738095D01*
X117022619Y-127690476D01*
X117117857Y-127642857D01*
X117260714Y-127642857D01*
X117355952Y-127690476D01*
X117403571Y-127738095D01*
X117451190Y-127833333D01*
X117451190Y-128214285D01*
X117927380Y-126690476D02*
X117927380Y-127261904D01*
X117927380Y-126976190D02*
X116927380Y-126976190D01*
X117070238Y-127071428D01*
X117165476Y-127166666D01*
X117213095Y-127261904D01*
X116927380Y-126071428D02*
X116927380Y-125976190D01*
X116975000Y-125880952D01*
X117022619Y-125833333D01*
X117117857Y-125785714D01*
X117308333Y-125738095D01*
X117546428Y-125738095D01*
X117736904Y-125785714D01*
X117832142Y-125833333D01*
X117879761Y-125880952D01*
X117927380Y-125976190D01*
X117927380Y-126071428D01*
X117879761Y-126166666D01*
X117832142Y-126214285D01*
X117736904Y-126261904D01*
X117546428Y-126309523D01*
X117308333Y-126309523D01*
X117117857Y-126261904D01*
X117022619Y-126214285D01*
X116975000Y-126166666D01*
X116927380Y-126071428D01*
G04 #@! TO.C,Y1*
X116236809Y-108726290D02*
X116236809Y-109202480D01*
X115903476Y-108202480D02*
X116236809Y-108726290D01*
X116570142Y-108202480D01*
X117427285Y-109202480D02*
X116855857Y-109202480D01*
X117141571Y-109202480D02*
X117141571Y-108202480D01*
X117046333Y-108345338D01*
X116951095Y-108440576D01*
X116855857Y-108488195D01*
G04 #@! TO.C,U4*
X137920480Y-104101804D02*
X138730004Y-104101804D01*
X138825242Y-104054185D01*
X138872861Y-104006566D01*
X138920480Y-103911328D01*
X138920480Y-103720852D01*
X138872861Y-103625614D01*
X138825242Y-103577995D01*
X138730004Y-103530376D01*
X137920480Y-103530376D01*
X138253814Y-102625614D02*
X138920480Y-102625614D01*
X137872861Y-102863709D02*
X138587147Y-103101804D01*
X138587147Y-102482757D01*
G04 #@! TD*
M02*
