M48
;DRILL file {KiCad 5.0.2+dfsg1-1~bpo9+1} date vie 15 feb 2019 20:10:51 CST
;FORMAT={-:-/ absolute / inch / decimal}
FMAT,2
INCH,TZ
T1C0.0250
T2C0.0315
T3C0.0394
T4C0.0472
T5C0.1260
%
G90
G05
T1
X5.304Y-3.7635
T2
X4.85Y-5.477
X4.3995Y-5.481
X4.4995Y-5.481
X4.5995Y-5.481
X4.5013Y-4.2854
X4.6934Y-4.2854
X3.974Y-5.482
X4.074Y-5.482
X3.754Y-4.0635
X5.05Y-5.477
X4.174Y-5.482
X3.854Y-4.0635
X3.954Y-4.0635
X4.054Y-4.0635
X4.354Y-3.7635
X4.95Y-5.477
X3.754Y-3.7635
X3.854Y-3.7635
X3.954Y-3.7635
X4.054Y-3.7635
X4.154Y-3.7635
X4.154Y-4.0635
X4.254Y-3.7635
X4.254Y-4.0635
X4.354Y-4.0635
X4.454Y-3.7635
X4.454Y-4.0635
X4.554Y-3.7635
X4.554Y-4.0635
X4.654Y-3.7635
X4.654Y-4.0635
X4.754Y-3.7635
X4.754Y-4.0635
X4.854Y-3.7635
X4.854Y-4.0635
X4.954Y-3.7635
X4.954Y-4.0635
X5.054Y-3.7635
X5.054Y-4.0635
T3
X5.2395Y-2.9266
X5.2395Y-3.1904
X5.3395Y-2.9266
X5.3395Y-3.1904
X6.4102Y-3.6
X4.096Y-3.573
X4.2929Y-3.573
X6.5591Y-4.6135
X6.5591Y-4.8773
X6.6591Y-4.6135
X6.6591Y-4.8773
X5.7815Y-5.7495
X6.2702Y-3.854
X6.2702Y-3.6
X6.2702Y-4.62
X5.0715Y-5.7475
X6.4102Y-4.62
X4.5021Y-4.5185
X4.699Y-4.5185
X6.5591Y-3.5935
X5.4965Y-5.749
X5.3545Y-5.747
X5.212Y-5.748
X3.71Y-3.18
X4.7135Y-2.9271
X4.7135Y-3.1909
X6.5591Y-3.8573
X4.979Y-4.2616
X4.979Y-4.4585
X6.6591Y-3.5935
X6.6591Y-3.8573
X3.7122Y-3.407
X6.2702Y-4.874
X4.239Y-4.2485
X4.239Y-4.4454
X4.6135Y-2.9271
X4.6135Y-3.1909
X6.4131Y-3.854
X6.4131Y-4.874
X4.9295Y-5.7475
X5.638Y-5.749
X4.7875Y-5.7475
T4
X5.216Y-3.363
X5.816Y-3.363
X4.85Y-4.7
X4.85Y-5.3
X4.466Y-3.363
X5.066Y-3.363
X5.221Y-3.573
X5.821Y-3.573
X5.075Y-4.7
X5.075Y-5.3
X4.625Y-4.7
X4.625Y-5.3
X4.466Y-3.573
X5.066Y-3.573
X4.4Y-4.7
X4.4Y-5.3
X4.175Y-4.7
X4.175Y-5.3
X3.95Y-4.7
X3.95Y-5.3
T5
X3.7Y-2.9
X3.7Y-5.375
X3.7Y-5.625
X4.05Y-2.9
X5.65Y-2.9
X6.Y-2.9
X6.Y-5.375
X6.Y-5.625
T0
M30
