G04 #@! TF.GenerationSoftware,KiCad,Pcbnew,5.0.2+dfsg1-1~bpo9+1*
G04 #@! TF.CreationDate,2019-02-15T20:10:49-06:00*
G04 #@! TF.ProjectId,EncoderandSensorsBoard,456e636f-6465-4726-916e-6453656e736f,v1.0*
G04 #@! TF.SameCoordinates,Original*
G04 #@! TF.FileFunction,Copper,L2,Bot*
G04 #@! TF.FilePolarity,Positive*
%FSLAX46Y46*%
G04 Gerber Fmt 4.6, Leading zero omitted, Abs format (unit mm)*
G04 Created by KiCad (PCBNEW 5.0.2+dfsg1-1~bpo9+1) date vie 15 feb 2019 20:10:49 CST*
%MOMM*%
%LPD*%
G01*
G04 APERTURE LIST*
G04 #@! TA.AperFunction,ComponentPad*
%ADD10R,1.600000X2.400000*%
G04 #@! TD*
G04 #@! TA.AperFunction,ComponentPad*
%ADD11O,1.600000X2.400000*%
G04 #@! TD*
G04 #@! TA.AperFunction,ComponentPad*
%ADD12O,2.400000X2.400000*%
G04 #@! TD*
G04 #@! TA.AperFunction,ComponentPad*
%ADD13C,2.400000*%
G04 #@! TD*
G04 #@! TA.AperFunction,ComponentPad*
%ADD14R,1.500000X1.500000*%
G04 #@! TD*
G04 #@! TA.AperFunction,ComponentPad*
%ADD15C,1.500000*%
G04 #@! TD*
G04 #@! TA.AperFunction,ComponentPad*
%ADD16C,1.778000*%
G04 #@! TD*
G04 #@! TA.AperFunction,ComponentPad*
%ADD17R,1.700000X1.700000*%
G04 #@! TD*
G04 #@! TA.AperFunction,ComponentPad*
%ADD18C,2.000000*%
G04 #@! TD*
G04 #@! TA.AperFunction,ViaPad*
%ADD19C,3.400000*%
G04 #@! TD*
G04 #@! TA.AperFunction,ViaPad*
%ADD20C,1.270000*%
G04 #@! TD*
G04 #@! TA.AperFunction,Conductor*
%ADD21C,1.270000*%
G04 #@! TD*
G04 #@! TA.AperFunction,Conductor*
%ADD22C,0.254000*%
G04 #@! TD*
G04 APERTURE END LIST*
D10*
G04 #@! TO.P,U1,1*
G04 #@! TO.N,N/C*
X95351600Y-103212900D03*
D11*
G04 #@! TO.P,U1,15*
G04 #@! TO.N,/PowSupStat*
X128371600Y-95592900D03*
G04 #@! TO.P,U1,2*
G04 #@! TO.N,/RX*
X97891600Y-103212900D03*
G04 #@! TO.P,U1,16*
G04 #@! TO.N,N/C*
X125831600Y-95592900D03*
G04 #@! TO.P,U1,3*
G04 #@! TO.N,/TX*
X100431600Y-103212900D03*
G04 #@! TO.P,U1,17*
G04 #@! TO.N,N/C*
X123291600Y-95592900D03*
G04 #@! TO.P,U1,4*
G04 #@! TO.N,/OUTA*
X102971600Y-103212900D03*
G04 #@! TO.P,U1,18*
G04 #@! TO.N,N/C*
X120751600Y-95592900D03*
G04 #@! TO.P,U1,5*
G04 #@! TO.N,/OUTB*
X105511600Y-103212900D03*
G04 #@! TO.P,U1,19*
G04 #@! TO.N,N/C*
X118211600Y-95592900D03*
G04 #@! TO.P,U1,6*
G04 #@! TO.N,/CMD*
X108051600Y-103212900D03*
G04 #@! TO.P,U1,20*
G04 #@! TO.N,+5V*
X115671600Y-95592900D03*
G04 #@! TO.P,U1,7*
X110591600Y-103212900D03*
G04 #@! TO.P,U1,21*
G04 #@! TO.N,N/C*
X113131600Y-95592900D03*
G04 #@! TO.P,U1,8*
G04 #@! TO.N,GND*
X113131600Y-103212900D03*
G04 #@! TO.P,U1,22*
X110591600Y-95592900D03*
G04 #@! TO.P,U1,9*
G04 #@! TO.N,Net-(C3-Pad2)*
X115671600Y-103212900D03*
G04 #@! TO.P,U1,23*
G04 #@! TO.N,/BattVoltSens*
X108051600Y-95592900D03*
G04 #@! TO.P,U1,10*
G04 #@! TO.N,Net-(C4-Pad2)*
X118211600Y-103212900D03*
G04 #@! TO.P,U1,24*
G04 #@! TO.N,N/C*
X105511600Y-95592900D03*
G04 #@! TO.P,U1,11*
X120751600Y-103212900D03*
G04 #@! TO.P,U1,25*
X102971600Y-95592900D03*
G04 #@! TO.P,U1,12*
X123291600Y-103212900D03*
G04 #@! TO.P,U1,26*
X100431600Y-95592900D03*
G04 #@! TO.P,U1,13*
X125831600Y-103212900D03*
G04 #@! TO.P,U1,27*
G04 #@! TO.N,/SDA*
X97891600Y-95592900D03*
G04 #@! TO.P,U1,14*
G04 #@! TO.N,N/C*
X128371600Y-103212900D03*
G04 #@! TO.P,U1,28*
G04 #@! TO.N,/SCL*
X95351600Y-95592900D03*
G04 #@! TD*
D12*
G04 #@! TO.P,R3,2*
G04 #@! TO.N,/SIGB*
X147726400Y-85420200D03*
D13*
G04 #@! TO.P,R3,1*
G04 #@! TO.N,+5V*
X132486400Y-85420200D03*
G04 #@! TD*
D14*
G04 #@! TO.P,Q2,1*
G04 #@! TO.N,/3VTX*
X100939600Y-139242800D03*
D15*
G04 #@! TO.P,Q2,3*
G04 #@! TO.N,/RX*
X106019600Y-139242800D03*
G04 #@! TO.P,Q2,2*
G04 #@! TO.N,+3V3*
X103479600Y-139242800D03*
G04 #@! TD*
D14*
G04 #@! TO.P,Q1,1*
G04 #@! TO.N,/3VCMD*
X123190000Y-139115800D03*
D15*
G04 #@! TO.P,Q1,3*
G04 #@! TO.N,/CMD*
X128270000Y-139115800D03*
G04 #@! TO.P,Q1,2*
G04 #@! TO.N,+3V3*
X125730000Y-139115800D03*
G04 #@! TD*
D14*
G04 #@! TO.P,Q3,1*
G04 #@! TO.N,/3VRX*
X111747300Y-139217400D03*
D15*
G04 #@! TO.P,Q3,3*
G04 #@! TO.N,/TX*
X116827300Y-139217400D03*
G04 #@! TO.P,Q3,2*
G04 #@! TO.N,+3V3*
X114287300Y-139217400D03*
G04 #@! TD*
D16*
G04 #@! TO.P,U3,4*
G04 #@! TO.N,GND*
X119722900Y-81048600D03*
G04 #@! TO.P,U3,1*
G04 #@! TO.N,+5V*
X119722900Y-74348600D03*
G04 #@! TO.P,U3,3*
G04 #@! TO.N,/SIGA*
X117182900Y-81048600D03*
G04 #@! TO.P,U3,2*
G04 #@! TO.N,Net-(R2-Pad1)*
X117182900Y-74348600D03*
G04 #@! TD*
G04 #@! TO.P,U2,4*
G04 #@! TO.N,GND*
X133083300Y-74335900D03*
G04 #@! TO.P,U2,1*
G04 #@! TO.N,+5V*
X133083300Y-81035900D03*
G04 #@! TO.P,U2,3*
G04 #@! TO.N,/SIGB*
X135623300Y-74335900D03*
G04 #@! TO.P,U2,2*
G04 #@! TO.N,Net-(R1-Pad1)*
X135623300Y-81035900D03*
G04 #@! TD*
D17*
G04 #@! TO.P,J10,1*
G04 #@! TO.N,/BattVoltSens*
X94289880Y-86537800D03*
G04 #@! TD*
G04 #@! TO.P,J4,1*
G04 #@! TO.N,/3VTX*
X128816100Y-145986500D03*
G04 #@! TD*
G04 #@! TO.P,J1,1*
G04 #@! TO.N,+5V*
X146850100Y-146037300D03*
G04 #@! TD*
G04 #@! TO.P,J7,1*
G04 #@! TO.N,/SDA*
X125209300Y-145986500D03*
G04 #@! TD*
G04 #@! TO.P,J5,1*
G04 #@! TO.N,/3VRX*
X132384800Y-145999200D03*
G04 #@! TD*
G04 #@! TO.P,J8,1*
G04 #@! TO.N,/SCL*
X121602500Y-145986500D03*
G04 #@! TD*
G04 #@! TO.P,J6,1*
G04 #@! TO.N,+3V3*
X143205200Y-146024600D03*
G04 #@! TD*
G04 #@! TO.P,J9,1*
G04 #@! TO.N,/PowSupStat*
X94234000Y-80772000D03*
G04 #@! TD*
G04 #@! TO.P,J3,1*
G04 #@! TO.N,/3VCMD*
X136004300Y-145973800D03*
G04 #@! TD*
G04 #@! TO.P,J2,1*
G04 #@! TO.N,GND*
X139611100Y-146024600D03*
G04 #@! TD*
D18*
G04 #@! TO.P,C1,2*
G04 #@! TO.N,+5V*
X109038400Y-90754200D03*
G04 #@! TO.P,C1,1*
G04 #@! TO.N,GND*
X104038400Y-90754200D03*
G04 #@! TD*
G04 #@! TO.P,C2,1*
G04 #@! TO.N,+5V*
X107670600Y-107911900D03*
G04 #@! TO.P,C2,2*
G04 #@! TO.N,GND*
X107670600Y-112911900D03*
G04 #@! TD*
G04 #@! TO.P,C3,2*
G04 #@! TO.N,Net-(C3-Pad2)*
X114354600Y-114769900D03*
G04 #@! TO.P,C3,1*
G04 #@! TO.N,GND*
X119354600Y-114769900D03*
G04 #@! TD*
G04 #@! TO.P,C4,1*
G04 #@! TO.N,GND*
X126466600Y-113245900D03*
G04 #@! TO.P,C4,2*
G04 #@! TO.N,Net-(C4-Pad2)*
X126466600Y-108245900D03*
G04 #@! TD*
D13*
G04 #@! TO.P,R1,1*
G04 #@! TO.N,Net-(R1-Pad1)*
X147853400Y-90754200D03*
D12*
G04 #@! TO.P,R1,2*
G04 #@! TO.N,GND*
X132613400Y-90754200D03*
G04 #@! TD*
G04 #@! TO.P,R2,2*
G04 #@! TO.N,GND*
X113436400Y-90754200D03*
D13*
G04 #@! TO.P,R2,1*
G04 #@! TO.N,Net-(R2-Pad1)*
X128676400Y-90754200D03*
G04 #@! TD*
D12*
G04 #@! TO.P,R4,2*
G04 #@! TO.N,/SIGA*
X128676400Y-85420200D03*
D13*
G04 #@! TO.P,R4,1*
G04 #@! TO.N,+5V*
X113436400Y-85420200D03*
G04 #@! TD*
G04 #@! TO.P,R5,1*
G04 #@! TO.N,+3V3*
X123190000Y-119380000D03*
D12*
G04 #@! TO.P,R5,2*
G04 #@! TO.N,/3VCMD*
X123190000Y-134620000D03*
G04 #@! TD*
D13*
G04 #@! TO.P,R6,1*
G04 #@! TO.N,+3V3*
X100330000Y-119380000D03*
D12*
G04 #@! TO.P,R6,2*
G04 #@! TO.N,/3VTX*
X100330000Y-134620000D03*
G04 #@! TD*
G04 #@! TO.P,R7,2*
G04 #@! TO.N,/3VRX*
X111760000Y-134620000D03*
D13*
G04 #@! TO.P,R7,1*
G04 #@! TO.N,+3V3*
X111760000Y-119380000D03*
G04 #@! TD*
D12*
G04 #@! TO.P,R8,2*
G04 #@! TO.N,/CMD*
X128905000Y-134620000D03*
D13*
G04 #@! TO.P,R8,1*
G04 #@! TO.N,+5V*
X128905000Y-119380000D03*
G04 #@! TD*
D12*
G04 #@! TO.P,R9,2*
G04 #@! TO.N,/RX*
X106045000Y-134620000D03*
D13*
G04 #@! TO.P,R9,1*
G04 #@! TO.N,+5V*
X106045000Y-119380000D03*
G04 #@! TD*
G04 #@! TO.P,R10,1*
G04 #@! TO.N,+5V*
X117475000Y-119380000D03*
D12*
G04 #@! TO.P,R10,2*
G04 #@! TO.N,/TX*
X117475000Y-134620000D03*
G04 #@! TD*
D15*
G04 #@! TO.P,Y1,1*
G04 #@! TO.N,Net-(C3-Pad2)*
X114333020Y-108849160D03*
G04 #@! TO.P,Y1,2*
G04 #@! TO.N,Net-(C4-Pad2)*
X119213020Y-108849160D03*
G04 #@! TD*
D17*
G04 #@! TO.P,J8,1*
G04 #@! TO.N,Net-(J8-Pad1)*
X159262259Y-123798902D03*
G04 #@! TD*
G04 #@! TO.P,J7,1*
G04 #@! TO.N,Net-(J7-Pad1)*
X162893260Y-123798902D03*
G04 #@! TD*
G04 #@! TO.P,J5,1*
G04 #@! TO.N,Net-(J5-Pad1)*
X162818259Y-117347901D03*
G04 #@! TD*
D16*
G04 #@! TO.P,U2,2*
G04 #@! TO.N,Net-(J6-Pad1)*
X166601258Y-117182902D03*
G04 #@! TO.P,U2,3*
G04 #@! TO.N,Net-(J8-Pad1)*
X166601258Y-123882902D03*
G04 #@! TO.P,U2,1*
G04 #@! TO.N,Net-(J5-Pad1)*
X169141258Y-117182902D03*
G04 #@! TO.P,U2,4*
G04 #@! TO.N,Net-(J7-Pad1)*
X169141258Y-123882902D03*
G04 #@! TD*
D17*
G04 #@! TO.P,J6,1*
G04 #@! TO.N,Net-(J6-Pad1)*
X159262259Y-117347901D03*
G04 #@! TD*
G04 #@! TO.P,J1,1*
G04 #@! TO.N,Net-(J1-Pad1)*
X162818259Y-91439901D03*
G04 #@! TD*
G04 #@! TO.P,J2,1*
G04 #@! TO.N,Net-(J2-Pad1)*
X159262259Y-91439901D03*
G04 #@! TD*
G04 #@! TO.P,J4,1*
G04 #@! TO.N,Net-(J4-Pad1)*
X159262259Y-97890902D03*
G04 #@! TD*
G04 #@! TO.P,J3,1*
G04 #@! TO.N,Net-(J3-Pad1)*
X162893260Y-97890902D03*
G04 #@! TD*
D16*
G04 #@! TO.P,U1,4*
G04 #@! TO.N,Net-(J3-Pad1)*
X169141258Y-97974902D03*
G04 #@! TO.P,U1,1*
G04 #@! TO.N,Net-(J1-Pad1)*
X169141258Y-91274902D03*
G04 #@! TO.P,U1,3*
G04 #@! TO.N,Net-(J4-Pad1)*
X166601258Y-97974902D03*
G04 #@! TO.P,U1,2*
G04 #@! TO.N,Net-(J2-Pad1)*
X166601258Y-91274902D03*
G04 #@! TD*
D19*
G04 #@! TO.N,*
X152400000Y-136525000D03*
X152400000Y-142875000D03*
X152400000Y-73660000D03*
X143510000Y-73660000D03*
X93980000Y-142875000D03*
X102870000Y-73660000D03*
X93980000Y-73660000D03*
X93980000Y-136525000D03*
D20*
G04 #@! TO.N,GND*
X134721600Y-95592900D03*
G04 #@! TD*
D21*
G04 #@! TO.N,Net-(J2-Pad1)*
X165712259Y-92163901D02*
X166601258Y-91274902D01*
X161001260Y-93178902D02*
X164697258Y-93178902D01*
X164697258Y-93178902D02*
X165712259Y-92163901D01*
X159262259Y-91439901D02*
X161001260Y-93178902D01*
G04 #@! TO.N,Net-(J4-Pad1)*
X165712259Y-97085903D02*
X166601258Y-97974902D01*
X164778257Y-96151901D02*
X165712259Y-97085903D01*
X159262259Y-97890902D02*
X159288258Y-97890902D01*
X161027259Y-96151901D02*
X164778257Y-96151901D01*
X159288258Y-97890902D02*
X161027259Y-96151901D01*
G04 #@! TO.N,Net-(J6-Pad1)*
X159262259Y-117347901D02*
X159262259Y-117982901D01*
X165712259Y-118071901D02*
X166601258Y-117182902D01*
X164697258Y-119086902D02*
X165712259Y-118071901D01*
X160366260Y-119086902D02*
X164697258Y-119086902D01*
X159262259Y-117982901D02*
X160366260Y-119086902D01*
G04 #@! TO.N,Net-(J8-Pad1)*
X159262259Y-123798902D02*
X159262259Y-123316901D01*
X164778257Y-122059901D02*
X165712259Y-122993903D01*
X160519259Y-122059901D02*
X164778257Y-122059901D01*
X165712259Y-122993903D02*
X166601258Y-123882902D01*
X159262259Y-123316901D02*
X160519259Y-122059901D01*
G04 #@! TD*
D22*
G04 #@! TO.N,GND*
G36*
X155500000Y-89846074D02*
X155486091Y-89916000D01*
X155541195Y-90193028D01*
X155698119Y-90427881D01*
X155932972Y-90584805D01*
X156139577Y-90625901D01*
X156210000Y-90639909D01*
X156279925Y-90626000D01*
X157295926Y-90626000D01*
X157296424Y-90625901D01*
X157536586Y-90625901D01*
X157599405Y-98603901D01*
X157160333Y-98603901D01*
X157159835Y-98604000D01*
X156279926Y-98604000D01*
X156210000Y-98590091D01*
X156140075Y-98604000D01*
X156140074Y-98604000D01*
X155932972Y-98645195D01*
X155698119Y-98802119D01*
X155541195Y-99036972D01*
X155486091Y-99314000D01*
X155500001Y-99383931D01*
X155500000Y-115754074D01*
X155486091Y-115824000D01*
X155541195Y-116101028D01*
X155698119Y-116335881D01*
X155932972Y-116492805D01*
X156139577Y-116533901D01*
X156210000Y-116547909D01*
X156279925Y-116534000D01*
X157295926Y-116534000D01*
X157296424Y-116533901D01*
X157740586Y-116533901D01*
X157790097Y-122821820D01*
X157764819Y-122948902D01*
X157764819Y-124511901D01*
X157160333Y-124511901D01*
X157159835Y-124512000D01*
X156279925Y-124512000D01*
X156210000Y-124498091D01*
X156140074Y-124512000D01*
X155932972Y-124553195D01*
X155698119Y-124710119D01*
X155541195Y-124944972D01*
X155486091Y-125222000D01*
X155500000Y-125291926D01*
X155500001Y-146610000D01*
X148347540Y-146610000D01*
X148347540Y-145187300D01*
X148298257Y-144939535D01*
X148157909Y-144729491D01*
X147947865Y-144589143D01*
X147700100Y-144539860D01*
X146000100Y-144539860D01*
X145752335Y-144589143D01*
X145542291Y-144729491D01*
X145401943Y-144939535D01*
X145352660Y-145187300D01*
X145352660Y-146610000D01*
X144702640Y-146610000D01*
X144702640Y-145174600D01*
X144653357Y-144926835D01*
X144513009Y-144716791D01*
X144302965Y-144576443D01*
X144055200Y-144527160D01*
X142355200Y-144527160D01*
X142107435Y-144576443D01*
X141897391Y-144716791D01*
X141757043Y-144926835D01*
X141707760Y-145174600D01*
X141707760Y-146610000D01*
X141096100Y-146610000D01*
X141096100Y-146310350D01*
X140937350Y-146151600D01*
X139738100Y-146151600D01*
X139738100Y-146171600D01*
X139484100Y-146171600D01*
X139484100Y-146151600D01*
X138284850Y-146151600D01*
X138126100Y-146310350D01*
X138126100Y-146610000D01*
X137501740Y-146610000D01*
X137501740Y-145123800D01*
X137486721Y-145048290D01*
X138126100Y-145048290D01*
X138126100Y-145738850D01*
X138284850Y-145897600D01*
X139484100Y-145897600D01*
X139484100Y-144698350D01*
X139738100Y-144698350D01*
X139738100Y-145897600D01*
X140937350Y-145897600D01*
X141096100Y-145738850D01*
X141096100Y-145048290D01*
X140999427Y-144814901D01*
X140820798Y-144636273D01*
X140587409Y-144539600D01*
X139896850Y-144539600D01*
X139738100Y-144698350D01*
X139484100Y-144698350D01*
X139325350Y-144539600D01*
X138634791Y-144539600D01*
X138401402Y-144636273D01*
X138222773Y-144814901D01*
X138126100Y-145048290D01*
X137486721Y-145048290D01*
X137452457Y-144876035D01*
X137312109Y-144665991D01*
X137102065Y-144525643D01*
X136854300Y-144476360D01*
X135154300Y-144476360D01*
X134906535Y-144525643D01*
X134696491Y-144665991D01*
X134556143Y-144876035D01*
X134506860Y-145123800D01*
X134506860Y-146610000D01*
X133882240Y-146610000D01*
X133882240Y-145149200D01*
X133832957Y-144901435D01*
X133692609Y-144691391D01*
X133482565Y-144551043D01*
X133234800Y-144501760D01*
X131534800Y-144501760D01*
X131287035Y-144551043D01*
X131076991Y-144691391D01*
X130936643Y-144901435D01*
X130887360Y-145149200D01*
X130887360Y-146610000D01*
X130313540Y-146610000D01*
X130313540Y-145136500D01*
X130264257Y-144888735D01*
X130123909Y-144678691D01*
X129913865Y-144538343D01*
X129666100Y-144489060D01*
X127966100Y-144489060D01*
X127718335Y-144538343D01*
X127508291Y-144678691D01*
X127367943Y-144888735D01*
X127318660Y-145136500D01*
X127318660Y-146610000D01*
X126706740Y-146610000D01*
X126706740Y-145136500D01*
X126657457Y-144888735D01*
X126517109Y-144678691D01*
X126307065Y-144538343D01*
X126059300Y-144489060D01*
X124359300Y-144489060D01*
X124111535Y-144538343D01*
X123901491Y-144678691D01*
X123761143Y-144888735D01*
X123711860Y-145136500D01*
X123711860Y-146610000D01*
X123099940Y-146610000D01*
X123099940Y-145136500D01*
X123050657Y-144888735D01*
X122910309Y-144678691D01*
X122700265Y-144538343D01*
X122452500Y-144489060D01*
X120752500Y-144489060D01*
X120504735Y-144538343D01*
X120294691Y-144678691D01*
X120154343Y-144888735D01*
X120105060Y-145136500D01*
X120105060Y-146610000D01*
X90880000Y-146610000D01*
X90880000Y-142410540D01*
X91645000Y-142410540D01*
X91645000Y-143339460D01*
X92000483Y-144197671D01*
X92657329Y-144854517D01*
X93515540Y-145210000D01*
X94444460Y-145210000D01*
X95302671Y-144854517D01*
X95959517Y-144197671D01*
X96315000Y-143339460D01*
X96315000Y-142410540D01*
X150065000Y-142410540D01*
X150065000Y-143339460D01*
X150420483Y-144197671D01*
X151077329Y-144854517D01*
X151935540Y-145210000D01*
X152864460Y-145210000D01*
X153722671Y-144854517D01*
X154379517Y-144197671D01*
X154735000Y-143339460D01*
X154735000Y-142410540D01*
X154379517Y-141552329D01*
X153722671Y-140895483D01*
X152864460Y-140540000D01*
X151935540Y-140540000D01*
X151077329Y-140895483D01*
X150420483Y-141552329D01*
X150065000Y-142410540D01*
X96315000Y-142410540D01*
X95959517Y-141552329D01*
X95302671Y-140895483D01*
X94444460Y-140540000D01*
X93515540Y-140540000D01*
X92657329Y-140895483D01*
X92000483Y-141552329D01*
X91645000Y-142410540D01*
X90880000Y-142410540D01*
X90880000Y-136060540D01*
X91645000Y-136060540D01*
X91645000Y-136989460D01*
X92000483Y-137847671D01*
X92657329Y-138504517D01*
X93515540Y-138860000D01*
X94444460Y-138860000D01*
X95302671Y-138504517D01*
X95314388Y-138492800D01*
X99542160Y-138492800D01*
X99542160Y-139992800D01*
X99591443Y-140240565D01*
X99731791Y-140450609D01*
X99941835Y-140590957D01*
X100189600Y-140640240D01*
X101689600Y-140640240D01*
X101937365Y-140590957D01*
X102147409Y-140450609D01*
X102287757Y-140240565D01*
X102326069Y-140047956D01*
X102695060Y-140416947D01*
X103204106Y-140627800D01*
X103755094Y-140627800D01*
X104264140Y-140416947D01*
X104653747Y-140027340D01*
X104749600Y-139795930D01*
X104845453Y-140027340D01*
X105235060Y-140416947D01*
X105744106Y-140627800D01*
X106295094Y-140627800D01*
X106804140Y-140416947D01*
X107193747Y-140027340D01*
X107404600Y-139518294D01*
X107404600Y-138967306D01*
X107197533Y-138467400D01*
X110349860Y-138467400D01*
X110349860Y-139967400D01*
X110399143Y-140215165D01*
X110539491Y-140425209D01*
X110749535Y-140565557D01*
X110997300Y-140614840D01*
X112497300Y-140614840D01*
X112745065Y-140565557D01*
X112955109Y-140425209D01*
X113095457Y-140215165D01*
X113133769Y-140022556D01*
X113502760Y-140391547D01*
X114011806Y-140602400D01*
X114562794Y-140602400D01*
X115071840Y-140391547D01*
X115461447Y-140001940D01*
X115557300Y-139770530D01*
X115653153Y-140001940D01*
X116042760Y-140391547D01*
X116551806Y-140602400D01*
X117102794Y-140602400D01*
X117611840Y-140391547D01*
X118001447Y-140001940D01*
X118212300Y-139492894D01*
X118212300Y-138941906D01*
X118001447Y-138432860D01*
X117934387Y-138365800D01*
X121792560Y-138365800D01*
X121792560Y-139865800D01*
X121841843Y-140113565D01*
X121982191Y-140323609D01*
X122192235Y-140463957D01*
X122440000Y-140513240D01*
X123940000Y-140513240D01*
X124187765Y-140463957D01*
X124397809Y-140323609D01*
X124538157Y-140113565D01*
X124576469Y-139920956D01*
X124945460Y-140289947D01*
X125454506Y-140500800D01*
X126005494Y-140500800D01*
X126514540Y-140289947D01*
X126904147Y-139900340D01*
X127000000Y-139668930D01*
X127095853Y-139900340D01*
X127485460Y-140289947D01*
X127994506Y-140500800D01*
X128545494Y-140500800D01*
X129054540Y-140289947D01*
X129444147Y-139900340D01*
X129655000Y-139391294D01*
X129655000Y-138840306D01*
X129444147Y-138331260D01*
X129054540Y-137941653D01*
X128545494Y-137730800D01*
X127994506Y-137730800D01*
X127485460Y-137941653D01*
X127095853Y-138331260D01*
X127000000Y-138562670D01*
X126904147Y-138331260D01*
X126514540Y-137941653D01*
X126005494Y-137730800D01*
X125454506Y-137730800D01*
X124945460Y-137941653D01*
X124576469Y-138310644D01*
X124538157Y-138118035D01*
X124397809Y-137907991D01*
X124187765Y-137767643D01*
X123940000Y-137718360D01*
X122440000Y-137718360D01*
X122192235Y-137767643D01*
X121982191Y-137907991D01*
X121841843Y-138118035D01*
X121792560Y-138365800D01*
X117934387Y-138365800D01*
X117611840Y-138043253D01*
X117102794Y-137832400D01*
X116551806Y-137832400D01*
X116042760Y-138043253D01*
X115653153Y-138432860D01*
X115557300Y-138664270D01*
X115461447Y-138432860D01*
X115071840Y-138043253D01*
X114562794Y-137832400D01*
X114011806Y-137832400D01*
X113502760Y-138043253D01*
X113133769Y-138412244D01*
X113095457Y-138219635D01*
X112955109Y-138009591D01*
X112745065Y-137869243D01*
X112497300Y-137819960D01*
X110997300Y-137819960D01*
X110749535Y-137869243D01*
X110539491Y-138009591D01*
X110399143Y-138219635D01*
X110349860Y-138467400D01*
X107197533Y-138467400D01*
X107193747Y-138458260D01*
X106804140Y-138068653D01*
X106295094Y-137857800D01*
X105744106Y-137857800D01*
X105235060Y-138068653D01*
X104845453Y-138458260D01*
X104749600Y-138689670D01*
X104653747Y-138458260D01*
X104264140Y-138068653D01*
X103755094Y-137857800D01*
X103204106Y-137857800D01*
X102695060Y-138068653D01*
X102326069Y-138437644D01*
X102287757Y-138245035D01*
X102147409Y-138034991D01*
X101937365Y-137894643D01*
X101689600Y-137845360D01*
X100189600Y-137845360D01*
X99941835Y-137894643D01*
X99731791Y-138034991D01*
X99591443Y-138245035D01*
X99542160Y-138492800D01*
X95314388Y-138492800D01*
X95959517Y-137847671D01*
X96315000Y-136989460D01*
X96315000Y-136060540D01*
X95959517Y-135202329D01*
X95377188Y-134620000D01*
X98459051Y-134620000D01*
X98601469Y-135335981D01*
X99007039Y-135942961D01*
X99614019Y-136348531D01*
X100149273Y-136455000D01*
X100510727Y-136455000D01*
X101045981Y-136348531D01*
X101652961Y-135942961D01*
X102058531Y-135335981D01*
X102200949Y-134620000D01*
X104174051Y-134620000D01*
X104316469Y-135335981D01*
X104722039Y-135942961D01*
X105329019Y-136348531D01*
X105864273Y-136455000D01*
X106225727Y-136455000D01*
X106760981Y-136348531D01*
X107367961Y-135942961D01*
X107773531Y-135335981D01*
X107915949Y-134620000D01*
X109889051Y-134620000D01*
X110031469Y-135335981D01*
X110437039Y-135942961D01*
X111044019Y-136348531D01*
X111579273Y-136455000D01*
X111940727Y-136455000D01*
X112475981Y-136348531D01*
X113082961Y-135942961D01*
X113488531Y-135335981D01*
X113630949Y-134620000D01*
X115604051Y-134620000D01*
X115746469Y-135335981D01*
X116152039Y-135942961D01*
X116759019Y-136348531D01*
X117294273Y-136455000D01*
X117655727Y-136455000D01*
X118190981Y-136348531D01*
X118797961Y-135942961D01*
X119203531Y-135335981D01*
X119345949Y-134620000D01*
X121319051Y-134620000D01*
X121461469Y-135335981D01*
X121867039Y-135942961D01*
X122474019Y-136348531D01*
X123009273Y-136455000D01*
X123370727Y-136455000D01*
X123905981Y-136348531D01*
X124512961Y-135942961D01*
X124918531Y-135335981D01*
X125060949Y-134620000D01*
X127034051Y-134620000D01*
X127176469Y-135335981D01*
X127582039Y-135942961D01*
X128189019Y-136348531D01*
X128724273Y-136455000D01*
X129085727Y-136455000D01*
X129620981Y-136348531D01*
X130051991Y-136060540D01*
X150065000Y-136060540D01*
X150065000Y-136989460D01*
X150420483Y-137847671D01*
X151077329Y-138504517D01*
X151935540Y-138860000D01*
X152864460Y-138860000D01*
X153722671Y-138504517D01*
X154379517Y-137847671D01*
X154735000Y-136989460D01*
X154735000Y-136060540D01*
X154379517Y-135202329D01*
X153722671Y-134545483D01*
X152864460Y-134190000D01*
X151935540Y-134190000D01*
X151077329Y-134545483D01*
X150420483Y-135202329D01*
X150065000Y-136060540D01*
X130051991Y-136060540D01*
X130227961Y-135942961D01*
X130633531Y-135335981D01*
X130775949Y-134620000D01*
X130633531Y-133904019D01*
X130227961Y-133297039D01*
X129620981Y-132891469D01*
X129085727Y-132785000D01*
X128724273Y-132785000D01*
X128189019Y-132891469D01*
X127582039Y-133297039D01*
X127176469Y-133904019D01*
X127034051Y-134620000D01*
X125060949Y-134620000D01*
X124918531Y-133904019D01*
X124512961Y-133297039D01*
X123905981Y-132891469D01*
X123370727Y-132785000D01*
X123009273Y-132785000D01*
X122474019Y-132891469D01*
X121867039Y-133297039D01*
X121461469Y-133904019D01*
X121319051Y-134620000D01*
X119345949Y-134620000D01*
X119203531Y-133904019D01*
X118797961Y-133297039D01*
X118190981Y-132891469D01*
X117655727Y-132785000D01*
X117294273Y-132785000D01*
X116759019Y-132891469D01*
X116152039Y-133297039D01*
X115746469Y-133904019D01*
X115604051Y-134620000D01*
X113630949Y-134620000D01*
X113488531Y-133904019D01*
X113082961Y-133297039D01*
X112475981Y-132891469D01*
X111940727Y-132785000D01*
X111579273Y-132785000D01*
X111044019Y-132891469D01*
X110437039Y-133297039D01*
X110031469Y-133904019D01*
X109889051Y-134620000D01*
X107915949Y-134620000D01*
X107773531Y-133904019D01*
X107367961Y-133297039D01*
X106760981Y-132891469D01*
X106225727Y-132785000D01*
X105864273Y-132785000D01*
X105329019Y-132891469D01*
X104722039Y-133297039D01*
X104316469Y-133904019D01*
X104174051Y-134620000D01*
X102200949Y-134620000D01*
X102058531Y-133904019D01*
X101652961Y-133297039D01*
X101045981Y-132891469D01*
X100510727Y-132785000D01*
X100149273Y-132785000D01*
X99614019Y-132891469D01*
X99007039Y-133297039D01*
X98601469Y-133904019D01*
X98459051Y-134620000D01*
X95377188Y-134620000D01*
X95302671Y-134545483D01*
X94444460Y-134190000D01*
X93515540Y-134190000D01*
X92657329Y-134545483D01*
X92000483Y-135202329D01*
X91645000Y-136060540D01*
X90880000Y-136060540D01*
X90880000Y-119014996D01*
X98495000Y-119014996D01*
X98495000Y-119745004D01*
X98774362Y-120419444D01*
X99290556Y-120935638D01*
X99964996Y-121215000D01*
X100695004Y-121215000D01*
X101369444Y-120935638D01*
X101885638Y-120419444D01*
X102165000Y-119745004D01*
X102165000Y-119014996D01*
X104210000Y-119014996D01*
X104210000Y-119745004D01*
X104489362Y-120419444D01*
X105005556Y-120935638D01*
X105679996Y-121215000D01*
X106410004Y-121215000D01*
X107084444Y-120935638D01*
X107600638Y-120419444D01*
X107880000Y-119745004D01*
X107880000Y-119014996D01*
X109925000Y-119014996D01*
X109925000Y-119745004D01*
X110204362Y-120419444D01*
X110720556Y-120935638D01*
X111394996Y-121215000D01*
X112125004Y-121215000D01*
X112799444Y-120935638D01*
X113315638Y-120419444D01*
X113595000Y-119745004D01*
X113595000Y-119014996D01*
X115640000Y-119014996D01*
X115640000Y-119745004D01*
X115919362Y-120419444D01*
X116435556Y-120935638D01*
X117109996Y-121215000D01*
X117840004Y-121215000D01*
X118514444Y-120935638D01*
X119030638Y-120419444D01*
X119310000Y-119745004D01*
X119310000Y-119014996D01*
X121355000Y-119014996D01*
X121355000Y-119745004D01*
X121634362Y-120419444D01*
X122150556Y-120935638D01*
X122824996Y-121215000D01*
X123555004Y-121215000D01*
X124229444Y-120935638D01*
X124745638Y-120419444D01*
X125025000Y-119745004D01*
X125025000Y-119014996D01*
X127070000Y-119014996D01*
X127070000Y-119745004D01*
X127349362Y-120419444D01*
X127865556Y-120935638D01*
X128539996Y-121215000D01*
X129270004Y-121215000D01*
X129944444Y-120935638D01*
X130460638Y-120419444D01*
X130740000Y-119745004D01*
X130740000Y-119014996D01*
X130460638Y-118340556D01*
X129944444Y-117824362D01*
X129270004Y-117545000D01*
X128539996Y-117545000D01*
X127865556Y-117824362D01*
X127349362Y-118340556D01*
X127070000Y-119014996D01*
X125025000Y-119014996D01*
X124745638Y-118340556D01*
X124229444Y-117824362D01*
X123555004Y-117545000D01*
X122824996Y-117545000D01*
X122150556Y-117824362D01*
X121634362Y-118340556D01*
X121355000Y-119014996D01*
X119310000Y-119014996D01*
X119030638Y-118340556D01*
X118514444Y-117824362D01*
X117840004Y-117545000D01*
X117109996Y-117545000D01*
X116435556Y-117824362D01*
X115919362Y-118340556D01*
X115640000Y-119014996D01*
X113595000Y-119014996D01*
X113315638Y-118340556D01*
X112799444Y-117824362D01*
X112125004Y-117545000D01*
X111394996Y-117545000D01*
X110720556Y-117824362D01*
X110204362Y-118340556D01*
X109925000Y-119014996D01*
X107880000Y-119014996D01*
X107600638Y-118340556D01*
X107084444Y-117824362D01*
X106410004Y-117545000D01*
X105679996Y-117545000D01*
X105005556Y-117824362D01*
X104489362Y-118340556D01*
X104210000Y-119014996D01*
X102165000Y-119014996D01*
X101885638Y-118340556D01*
X101369444Y-117824362D01*
X100695004Y-117545000D01*
X99964996Y-117545000D01*
X99290556Y-117824362D01*
X98774362Y-118340556D01*
X98495000Y-119014996D01*
X90880000Y-119014996D01*
X90880000Y-114064432D01*
X106697673Y-114064432D01*
X106796336Y-114331287D01*
X107406061Y-114557808D01*
X108056060Y-114533756D01*
X108271113Y-114444678D01*
X112719600Y-114444678D01*
X112719600Y-115095122D01*
X112968514Y-115696053D01*
X113428447Y-116155986D01*
X114029378Y-116404900D01*
X114679822Y-116404900D01*
X115280753Y-116155986D01*
X115514307Y-115922432D01*
X118381673Y-115922432D01*
X118480336Y-116189287D01*
X119090061Y-116415808D01*
X119740060Y-116391756D01*
X120228864Y-116189287D01*
X120327527Y-115922432D01*
X119354600Y-114949505D01*
X118381673Y-115922432D01*
X115514307Y-115922432D01*
X115740686Y-115696053D01*
X115989600Y-115095122D01*
X115989600Y-114505361D01*
X117708692Y-114505361D01*
X117732744Y-115155360D01*
X117935213Y-115644164D01*
X118202068Y-115742827D01*
X119174995Y-114769900D01*
X119534205Y-114769900D01*
X120507132Y-115742827D01*
X120773987Y-115644164D01*
X121000508Y-115034439D01*
X120976974Y-114398432D01*
X125493673Y-114398432D01*
X125592336Y-114665287D01*
X126202061Y-114891808D01*
X126852060Y-114867756D01*
X127340864Y-114665287D01*
X127439527Y-114398432D01*
X126466600Y-113425505D01*
X125493673Y-114398432D01*
X120976974Y-114398432D01*
X120976456Y-114384440D01*
X120773987Y-113895636D01*
X120507132Y-113796973D01*
X119534205Y-114769900D01*
X119174995Y-114769900D01*
X118202068Y-113796973D01*
X117935213Y-113895636D01*
X117708692Y-114505361D01*
X115989600Y-114505361D01*
X115989600Y-114444678D01*
X115740686Y-113843747D01*
X115514307Y-113617368D01*
X118381673Y-113617368D01*
X119354600Y-114590295D01*
X120327527Y-113617368D01*
X120228864Y-113350513D01*
X119619139Y-113123992D01*
X118969140Y-113148044D01*
X118480336Y-113350513D01*
X118381673Y-113617368D01*
X115514307Y-113617368D01*
X115280753Y-113383814D01*
X114679822Y-113134900D01*
X114029378Y-113134900D01*
X113428447Y-113383814D01*
X112968514Y-113843747D01*
X112719600Y-114444678D01*
X108271113Y-114444678D01*
X108544864Y-114331287D01*
X108643527Y-114064432D01*
X107670600Y-113091505D01*
X106697673Y-114064432D01*
X90880000Y-114064432D01*
X90880000Y-112647361D01*
X106024692Y-112647361D01*
X106048744Y-113297360D01*
X106251213Y-113786164D01*
X106518068Y-113884827D01*
X107490995Y-112911900D01*
X107850205Y-112911900D01*
X108823132Y-113884827D01*
X109089987Y-113786164D01*
X109316508Y-113176439D01*
X109309290Y-112981361D01*
X124820692Y-112981361D01*
X124844744Y-113631360D01*
X125047213Y-114120164D01*
X125314068Y-114218827D01*
X126286995Y-113245900D01*
X126646205Y-113245900D01*
X127619132Y-114218827D01*
X127885987Y-114120164D01*
X128112508Y-113510439D01*
X128088456Y-112860440D01*
X127885987Y-112371636D01*
X127619132Y-112272973D01*
X126646205Y-113245900D01*
X126286995Y-113245900D01*
X125314068Y-112272973D01*
X125047213Y-112371636D01*
X124820692Y-112981361D01*
X109309290Y-112981361D01*
X109292456Y-112526440D01*
X109113072Y-112093368D01*
X125493673Y-112093368D01*
X126466600Y-113066295D01*
X127439527Y-112093368D01*
X127340864Y-111826513D01*
X126731139Y-111599992D01*
X126081140Y-111624044D01*
X125592336Y-111826513D01*
X125493673Y-112093368D01*
X109113072Y-112093368D01*
X109089987Y-112037636D01*
X108823132Y-111938973D01*
X107850205Y-112911900D01*
X107490995Y-112911900D01*
X106518068Y-111938973D01*
X106251213Y-112037636D01*
X106024692Y-112647361D01*
X90880000Y-112647361D01*
X90880000Y-111759368D01*
X106697673Y-111759368D01*
X107670600Y-112732295D01*
X108643527Y-111759368D01*
X108544864Y-111492513D01*
X107935139Y-111265992D01*
X107285140Y-111290044D01*
X106796336Y-111492513D01*
X106697673Y-111759368D01*
X90880000Y-111759368D01*
X90880000Y-107586678D01*
X106035600Y-107586678D01*
X106035600Y-108237122D01*
X106284514Y-108838053D01*
X106744447Y-109297986D01*
X107345378Y-109546900D01*
X107995822Y-109546900D01*
X108596753Y-109297986D01*
X109056686Y-108838053D01*
X109166198Y-108573666D01*
X112948020Y-108573666D01*
X112948020Y-109124654D01*
X113158873Y-109633700D01*
X113548480Y-110023307D01*
X114057526Y-110234160D01*
X114608514Y-110234160D01*
X115117560Y-110023307D01*
X115507167Y-109633700D01*
X115718020Y-109124654D01*
X115718020Y-108573666D01*
X117828020Y-108573666D01*
X117828020Y-109124654D01*
X118038873Y-109633700D01*
X118428480Y-110023307D01*
X118937526Y-110234160D01*
X119488514Y-110234160D01*
X119997560Y-110023307D01*
X120387167Y-109633700D01*
X120598020Y-109124654D01*
X120598020Y-108573666D01*
X120387167Y-108064620D01*
X120243225Y-107920678D01*
X124831600Y-107920678D01*
X124831600Y-108571122D01*
X125080514Y-109172053D01*
X125540447Y-109631986D01*
X126141378Y-109880900D01*
X126791822Y-109880900D01*
X127392753Y-109631986D01*
X127852686Y-109172053D01*
X128101600Y-108571122D01*
X128101600Y-107920678D01*
X127852686Y-107319747D01*
X127392753Y-106859814D01*
X126791822Y-106610900D01*
X126141378Y-106610900D01*
X125540447Y-106859814D01*
X125080514Y-107319747D01*
X124831600Y-107920678D01*
X120243225Y-107920678D01*
X119997560Y-107675013D01*
X119488514Y-107464160D01*
X118937526Y-107464160D01*
X118428480Y-107675013D01*
X118038873Y-108064620D01*
X117828020Y-108573666D01*
X115718020Y-108573666D01*
X115507167Y-108064620D01*
X115117560Y-107675013D01*
X114608514Y-107464160D01*
X114057526Y-107464160D01*
X113548480Y-107675013D01*
X113158873Y-108064620D01*
X112948020Y-108573666D01*
X109166198Y-108573666D01*
X109305600Y-108237122D01*
X109305600Y-107586678D01*
X109056686Y-106985747D01*
X108596753Y-106525814D01*
X107995822Y-106276900D01*
X107345378Y-106276900D01*
X106744447Y-106525814D01*
X106284514Y-106985747D01*
X106035600Y-107586678D01*
X90880000Y-107586678D01*
X90880000Y-102012900D01*
X93904160Y-102012900D01*
X93904160Y-104412900D01*
X93953443Y-104660665D01*
X94093791Y-104870709D01*
X94303835Y-105011057D01*
X94551600Y-105060340D01*
X96151600Y-105060340D01*
X96399365Y-105011057D01*
X96609409Y-104870709D01*
X96749757Y-104660665D01*
X96776385Y-104526793D01*
X96857024Y-104647477D01*
X97331692Y-104964640D01*
X97891600Y-105076013D01*
X98451509Y-104964640D01*
X98926177Y-104647477D01*
X99161600Y-104295141D01*
X99397024Y-104647477D01*
X99871692Y-104964640D01*
X100431600Y-105076013D01*
X100991509Y-104964640D01*
X101466177Y-104647477D01*
X101701600Y-104295141D01*
X101937024Y-104647477D01*
X102411692Y-104964640D01*
X102971600Y-105076013D01*
X103531509Y-104964640D01*
X104006177Y-104647477D01*
X104241600Y-104295141D01*
X104477024Y-104647477D01*
X104951692Y-104964640D01*
X105511600Y-105076013D01*
X106071509Y-104964640D01*
X106546177Y-104647477D01*
X106781600Y-104295141D01*
X107017024Y-104647477D01*
X107491692Y-104964640D01*
X108051600Y-105076013D01*
X108611509Y-104964640D01*
X109086177Y-104647477D01*
X109321600Y-104295141D01*
X109557024Y-104647477D01*
X110031692Y-104964640D01*
X110591600Y-105076013D01*
X111151509Y-104964640D01*
X111626177Y-104647477D01*
X111864099Y-104291401D01*
X112206704Y-104717400D01*
X112699781Y-104987267D01*
X112782561Y-105004804D01*
X113004600Y-104882815D01*
X113004600Y-103339900D01*
X112984600Y-103339900D01*
X112984600Y-103085900D01*
X113004600Y-103085900D01*
X113004600Y-101542985D01*
X113258600Y-101542985D01*
X113258600Y-103085900D01*
X113278600Y-103085900D01*
X113278600Y-103339900D01*
X113258600Y-103339900D01*
X113258600Y-104882815D01*
X113480639Y-105004804D01*
X113563419Y-104987267D01*
X114056496Y-104717400D01*
X114399101Y-104291401D01*
X114637024Y-104647477D01*
X115111692Y-104964640D01*
X115671600Y-105076013D01*
X116231509Y-104964640D01*
X116706177Y-104647477D01*
X116941600Y-104295141D01*
X117177024Y-104647477D01*
X117651692Y-104964640D01*
X118211600Y-105076013D01*
X118771509Y-104964640D01*
X119246177Y-104647477D01*
X119481600Y-104295141D01*
X119717024Y-104647477D01*
X120191692Y-104964640D01*
X120751600Y-105076013D01*
X121311509Y-104964640D01*
X121786177Y-104647477D01*
X122021600Y-104295141D01*
X122257024Y-104647477D01*
X122731692Y-104964640D01*
X123291600Y-105076013D01*
X123851509Y-104964640D01*
X124326177Y-104647477D01*
X124561600Y-104295141D01*
X124797024Y-104647477D01*
X125271692Y-104964640D01*
X125831600Y-105076013D01*
X126391509Y-104964640D01*
X126866177Y-104647477D01*
X127101600Y-104295141D01*
X127337024Y-104647477D01*
X127811692Y-104964640D01*
X128371600Y-105076013D01*
X128931509Y-104964640D01*
X129406177Y-104647477D01*
X129723340Y-104172809D01*
X129806600Y-103754232D01*
X129806600Y-102671567D01*
X129723340Y-102252991D01*
X129406176Y-101778323D01*
X128931508Y-101461160D01*
X128371600Y-101349787D01*
X127811691Y-101461160D01*
X127337023Y-101778324D01*
X127101600Y-102130659D01*
X126866176Y-101778323D01*
X126391508Y-101461160D01*
X125831600Y-101349787D01*
X125271691Y-101461160D01*
X124797023Y-101778324D01*
X124561600Y-102130659D01*
X124326176Y-101778323D01*
X123851508Y-101461160D01*
X123291600Y-101349787D01*
X122731691Y-101461160D01*
X122257023Y-101778324D01*
X122021600Y-102130659D01*
X121786176Y-101778323D01*
X121311508Y-101461160D01*
X120751600Y-101349787D01*
X120191691Y-101461160D01*
X119717023Y-101778324D01*
X119481600Y-102130659D01*
X119246176Y-101778323D01*
X118771508Y-101461160D01*
X118211600Y-101349787D01*
X117651691Y-101461160D01*
X117177023Y-101778324D01*
X116941600Y-102130659D01*
X116706176Y-101778323D01*
X116231508Y-101461160D01*
X115671600Y-101349787D01*
X115111691Y-101461160D01*
X114637023Y-101778324D01*
X114399101Y-102134399D01*
X114056496Y-101708400D01*
X113563419Y-101438533D01*
X113480639Y-101420996D01*
X113258600Y-101542985D01*
X113004600Y-101542985D01*
X112782561Y-101420996D01*
X112699781Y-101438533D01*
X112206704Y-101708400D01*
X111864099Y-102134399D01*
X111626176Y-101778323D01*
X111151508Y-101461160D01*
X110591600Y-101349787D01*
X110031691Y-101461160D01*
X109557023Y-101778324D01*
X109321600Y-102130659D01*
X109086176Y-101778323D01*
X108611508Y-101461160D01*
X108051600Y-101349787D01*
X107491691Y-101461160D01*
X107017023Y-101778324D01*
X106781600Y-102130659D01*
X106546176Y-101778323D01*
X106071508Y-101461160D01*
X105511600Y-101349787D01*
X104951691Y-101461160D01*
X104477023Y-101778324D01*
X104241600Y-102130659D01*
X104006176Y-101778323D01*
X103531508Y-101461160D01*
X102971600Y-101349787D01*
X102411691Y-101461160D01*
X101937023Y-101778324D01*
X101701600Y-102130659D01*
X101466176Y-101778323D01*
X100991508Y-101461160D01*
X100431600Y-101349787D01*
X99871691Y-101461160D01*
X99397023Y-101778324D01*
X99161600Y-102130659D01*
X98926176Y-101778323D01*
X98451508Y-101461160D01*
X97891600Y-101349787D01*
X97331691Y-101461160D01*
X96857023Y-101778324D01*
X96776385Y-101899007D01*
X96749757Y-101765135D01*
X96609409Y-101555091D01*
X96399365Y-101414743D01*
X96151600Y-101365460D01*
X94551600Y-101365460D01*
X94303835Y-101414743D01*
X94093791Y-101555091D01*
X93953443Y-101765135D01*
X93904160Y-102012900D01*
X90880000Y-102012900D01*
X90880000Y-95051568D01*
X93916600Y-95051568D01*
X93916600Y-96134233D01*
X93999860Y-96552809D01*
X94317024Y-97027477D01*
X94791692Y-97344640D01*
X95351600Y-97456013D01*
X95911509Y-97344640D01*
X96386177Y-97027477D01*
X96621600Y-96675141D01*
X96857024Y-97027477D01*
X97331692Y-97344640D01*
X97891600Y-97456013D01*
X98451509Y-97344640D01*
X98926177Y-97027477D01*
X99161600Y-96675141D01*
X99397024Y-97027477D01*
X99871692Y-97344640D01*
X100431600Y-97456013D01*
X100991509Y-97344640D01*
X101466177Y-97027477D01*
X101701600Y-96675141D01*
X101937024Y-97027477D01*
X102411692Y-97344640D01*
X102971600Y-97456013D01*
X103531509Y-97344640D01*
X104006177Y-97027477D01*
X104241600Y-96675141D01*
X104477024Y-97027477D01*
X104951692Y-97344640D01*
X105511600Y-97456013D01*
X106071509Y-97344640D01*
X106546177Y-97027477D01*
X106781600Y-96675141D01*
X107017024Y-97027477D01*
X107491692Y-97344640D01*
X108051600Y-97456013D01*
X108611509Y-97344640D01*
X109086177Y-97027477D01*
X109324099Y-96671401D01*
X109666704Y-97097400D01*
X110159781Y-97367267D01*
X110242561Y-97384804D01*
X110464600Y-97262815D01*
X110464600Y-95719900D01*
X110444600Y-95719900D01*
X110444600Y-95465900D01*
X110464600Y-95465900D01*
X110464600Y-93922985D01*
X110718600Y-93922985D01*
X110718600Y-95465900D01*
X110738600Y-95465900D01*
X110738600Y-95719900D01*
X110718600Y-95719900D01*
X110718600Y-97262815D01*
X110940639Y-97384804D01*
X111023419Y-97367267D01*
X111516496Y-97097400D01*
X111859101Y-96671401D01*
X112097024Y-97027477D01*
X112571692Y-97344640D01*
X113131600Y-97456013D01*
X113691509Y-97344640D01*
X114166177Y-97027477D01*
X114401600Y-96675141D01*
X114637024Y-97027477D01*
X115111692Y-97344640D01*
X115671600Y-97456013D01*
X116231509Y-97344640D01*
X116706177Y-97027477D01*
X116941600Y-96675141D01*
X117177024Y-97027477D01*
X117651692Y-97344640D01*
X118211600Y-97456013D01*
X118771509Y-97344640D01*
X119246177Y-97027477D01*
X119481600Y-96675141D01*
X119717024Y-97027477D01*
X120191692Y-97344640D01*
X120751600Y-97456013D01*
X121311509Y-97344640D01*
X121786177Y-97027477D01*
X122021600Y-96675141D01*
X122257024Y-97027477D01*
X122731692Y-97344640D01*
X123291600Y-97456013D01*
X123851509Y-97344640D01*
X124326177Y-97027477D01*
X124561600Y-96675141D01*
X124797024Y-97027477D01*
X125271692Y-97344640D01*
X125831600Y-97456013D01*
X126391509Y-97344640D01*
X126866177Y-97027477D01*
X127101600Y-96675141D01*
X127337024Y-97027477D01*
X127811692Y-97344640D01*
X128371600Y-97456013D01*
X128931509Y-97344640D01*
X129406177Y-97027477D01*
X129723340Y-96552809D01*
X129806600Y-96134232D01*
X129806600Y-95051567D01*
X129723340Y-94632991D01*
X129406176Y-94158323D01*
X128931508Y-93841160D01*
X128371600Y-93729787D01*
X127811691Y-93841160D01*
X127337023Y-94158324D01*
X127101600Y-94510659D01*
X126866176Y-94158323D01*
X126391508Y-93841160D01*
X125831600Y-93729787D01*
X125271691Y-93841160D01*
X124797023Y-94158324D01*
X124561600Y-94510659D01*
X124326176Y-94158323D01*
X123851508Y-93841160D01*
X123291600Y-93729787D01*
X122731691Y-93841160D01*
X122257023Y-94158324D01*
X122021600Y-94510659D01*
X121786176Y-94158323D01*
X121311508Y-93841160D01*
X120751600Y-93729787D01*
X120191691Y-93841160D01*
X119717023Y-94158324D01*
X119481600Y-94510659D01*
X119246176Y-94158323D01*
X118771508Y-93841160D01*
X118211600Y-93729787D01*
X117651691Y-93841160D01*
X117177023Y-94158324D01*
X116941600Y-94510659D01*
X116706176Y-94158323D01*
X116231508Y-93841160D01*
X115671600Y-93729787D01*
X115111691Y-93841160D01*
X114637023Y-94158324D01*
X114401600Y-94510659D01*
X114166176Y-94158323D01*
X113691508Y-93841160D01*
X113131600Y-93729787D01*
X112571691Y-93841160D01*
X112097023Y-94158324D01*
X111859101Y-94514399D01*
X111516496Y-94088400D01*
X111023419Y-93818533D01*
X110940639Y-93800996D01*
X110718600Y-93922985D01*
X110464600Y-93922985D01*
X110242561Y-93800996D01*
X110159781Y-93818533D01*
X109666704Y-94088400D01*
X109324099Y-94514399D01*
X109086176Y-94158323D01*
X108611508Y-93841160D01*
X108051600Y-93729787D01*
X107491691Y-93841160D01*
X107017023Y-94158324D01*
X106781600Y-94510659D01*
X106546176Y-94158323D01*
X106071508Y-93841160D01*
X105511600Y-93729787D01*
X104951691Y-93841160D01*
X104477023Y-94158324D01*
X104241600Y-94510659D01*
X104006176Y-94158323D01*
X103531508Y-93841160D01*
X102971600Y-93729787D01*
X102411691Y-93841160D01*
X101937023Y-94158324D01*
X101701600Y-94510659D01*
X101466176Y-94158323D01*
X100991508Y-93841160D01*
X100431600Y-93729787D01*
X99871691Y-93841160D01*
X99397023Y-94158324D01*
X99161600Y-94510659D01*
X98926176Y-94158323D01*
X98451508Y-93841160D01*
X97891600Y-93729787D01*
X97331691Y-93841160D01*
X96857023Y-94158324D01*
X96621600Y-94510659D01*
X96386176Y-94158323D01*
X95911508Y-93841160D01*
X95351600Y-93729787D01*
X94791691Y-93841160D01*
X94317023Y-94158324D01*
X93999860Y-94632992D01*
X93916600Y-95051568D01*
X90880000Y-95051568D01*
X90880000Y-91906732D01*
X103065473Y-91906732D01*
X103164136Y-92173587D01*
X103773861Y-92400108D01*
X104423860Y-92376056D01*
X104912664Y-92173587D01*
X105011327Y-91906732D01*
X104038400Y-90933805D01*
X103065473Y-91906732D01*
X90880000Y-91906732D01*
X90880000Y-90489661D01*
X102392492Y-90489661D01*
X102416544Y-91139660D01*
X102619013Y-91628464D01*
X102885868Y-91727127D01*
X103858795Y-90754200D01*
X104218005Y-90754200D01*
X105190932Y-91727127D01*
X105457787Y-91628464D01*
X105684308Y-91018739D01*
X105662485Y-90428978D01*
X107403400Y-90428978D01*
X107403400Y-91079422D01*
X107652314Y-91680353D01*
X108112247Y-92140286D01*
X108713178Y-92389200D01*
X109363622Y-92389200D01*
X109964553Y-92140286D01*
X110424486Y-91680353D01*
X110637536Y-91166005D01*
X111648205Y-91166005D01*
X111880758Y-91727458D01*
X112371624Y-92248692D01*
X113024593Y-92542403D01*
X113309400Y-92426058D01*
X113309400Y-90881200D01*
X113563400Y-90881200D01*
X113563400Y-92426058D01*
X113848207Y-92542403D01*
X114501176Y-92248692D01*
X114992042Y-91727458D01*
X115224595Y-91166005D01*
X115107832Y-90881200D01*
X113563400Y-90881200D01*
X113309400Y-90881200D01*
X111764968Y-90881200D01*
X111648205Y-91166005D01*
X110637536Y-91166005D01*
X110673400Y-91079422D01*
X110673400Y-90428978D01*
X110637537Y-90342395D01*
X111648205Y-90342395D01*
X111764968Y-90627200D01*
X113309400Y-90627200D01*
X113309400Y-89082342D01*
X113563400Y-89082342D01*
X113563400Y-90627200D01*
X115107832Y-90627200D01*
X115205407Y-90389196D01*
X126841400Y-90389196D01*
X126841400Y-91119204D01*
X127120762Y-91793644D01*
X127636956Y-92309838D01*
X128311396Y-92589200D01*
X129041404Y-92589200D01*
X129715844Y-92309838D01*
X130232038Y-91793644D01*
X130492014Y-91166005D01*
X130825205Y-91166005D01*
X131057758Y-91727458D01*
X131548624Y-92248692D01*
X132201593Y-92542403D01*
X132486400Y-92426058D01*
X132486400Y-90881200D01*
X132740400Y-90881200D01*
X132740400Y-92426058D01*
X133025207Y-92542403D01*
X133678176Y-92248692D01*
X134169042Y-91727458D01*
X134401595Y-91166005D01*
X134284832Y-90881200D01*
X132740400Y-90881200D01*
X132486400Y-90881200D01*
X130941968Y-90881200D01*
X130825205Y-91166005D01*
X130492014Y-91166005D01*
X130511400Y-91119204D01*
X130511400Y-90389196D01*
X130492015Y-90342395D01*
X130825205Y-90342395D01*
X130941968Y-90627200D01*
X132486400Y-90627200D01*
X132486400Y-89082342D01*
X132740400Y-89082342D01*
X132740400Y-90627200D01*
X134284832Y-90627200D01*
X134382407Y-90389196D01*
X146018400Y-90389196D01*
X146018400Y-91119204D01*
X146297762Y-91793644D01*
X146813956Y-92309838D01*
X147488396Y-92589200D01*
X148218404Y-92589200D01*
X148892844Y-92309838D01*
X149409038Y-91793644D01*
X149688400Y-91119204D01*
X149688400Y-90389196D01*
X149409038Y-89714756D01*
X148892844Y-89198562D01*
X148218404Y-88919200D01*
X147488396Y-88919200D01*
X146813956Y-89198562D01*
X146297762Y-89714756D01*
X146018400Y-90389196D01*
X134382407Y-90389196D01*
X134401595Y-90342395D01*
X134169042Y-89780942D01*
X133678176Y-89259708D01*
X133025207Y-88965997D01*
X132740400Y-89082342D01*
X132486400Y-89082342D01*
X132201593Y-88965997D01*
X131548624Y-89259708D01*
X131057758Y-89780942D01*
X130825205Y-90342395D01*
X130492015Y-90342395D01*
X130232038Y-89714756D01*
X129715844Y-89198562D01*
X129041404Y-88919200D01*
X128311396Y-88919200D01*
X127636956Y-89198562D01*
X127120762Y-89714756D01*
X126841400Y-90389196D01*
X115205407Y-90389196D01*
X115224595Y-90342395D01*
X114992042Y-89780942D01*
X114501176Y-89259708D01*
X113848207Y-88965997D01*
X113563400Y-89082342D01*
X113309400Y-89082342D01*
X113024593Y-88965997D01*
X112371624Y-89259708D01*
X111880758Y-89780942D01*
X111648205Y-90342395D01*
X110637537Y-90342395D01*
X110424486Y-89828047D01*
X109964553Y-89368114D01*
X109363622Y-89119200D01*
X108713178Y-89119200D01*
X108112247Y-89368114D01*
X107652314Y-89828047D01*
X107403400Y-90428978D01*
X105662485Y-90428978D01*
X105660256Y-90368740D01*
X105457787Y-89879936D01*
X105190932Y-89781273D01*
X104218005Y-90754200D01*
X103858795Y-90754200D01*
X102885868Y-89781273D01*
X102619013Y-89879936D01*
X102392492Y-90489661D01*
X90880000Y-90489661D01*
X90880000Y-89601668D01*
X103065473Y-89601668D01*
X104038400Y-90574595D01*
X105011327Y-89601668D01*
X104912664Y-89334813D01*
X104302939Y-89108292D01*
X103652940Y-89132344D01*
X103164136Y-89334813D01*
X103065473Y-89601668D01*
X90880000Y-89601668D01*
X90880000Y-85687800D01*
X92792440Y-85687800D01*
X92792440Y-87387800D01*
X92841723Y-87635565D01*
X92982071Y-87845609D01*
X93192115Y-87985957D01*
X93439880Y-88035240D01*
X95139880Y-88035240D01*
X95387645Y-87985957D01*
X95597689Y-87845609D01*
X95738037Y-87635565D01*
X95787320Y-87387800D01*
X95787320Y-85687800D01*
X95738037Y-85440035D01*
X95597689Y-85229991D01*
X95387645Y-85089643D01*
X95214467Y-85055196D01*
X111601400Y-85055196D01*
X111601400Y-85785204D01*
X111880762Y-86459644D01*
X112396956Y-86975838D01*
X113071396Y-87255200D01*
X113801404Y-87255200D01*
X114475844Y-86975838D01*
X114992038Y-86459644D01*
X115271400Y-85785204D01*
X115271400Y-85420200D01*
X126805451Y-85420200D01*
X126947869Y-86136181D01*
X127353439Y-86743161D01*
X127960419Y-87148731D01*
X128495673Y-87255200D01*
X128857127Y-87255200D01*
X129392381Y-87148731D01*
X129999361Y-86743161D01*
X130404931Y-86136181D01*
X130547349Y-85420200D01*
X130474745Y-85055196D01*
X130651400Y-85055196D01*
X130651400Y-85785204D01*
X130930762Y-86459644D01*
X131446956Y-86975838D01*
X132121396Y-87255200D01*
X132851404Y-87255200D01*
X133525844Y-86975838D01*
X134042038Y-86459644D01*
X134321400Y-85785204D01*
X134321400Y-85420200D01*
X145855451Y-85420200D01*
X145997869Y-86136181D01*
X146403439Y-86743161D01*
X147010419Y-87148731D01*
X147545673Y-87255200D01*
X147907127Y-87255200D01*
X148442381Y-87148731D01*
X149049361Y-86743161D01*
X149454931Y-86136181D01*
X149597349Y-85420200D01*
X149454931Y-84704219D01*
X149049361Y-84097239D01*
X148442381Y-83691669D01*
X147907127Y-83585200D01*
X147545673Y-83585200D01*
X147010419Y-83691669D01*
X146403439Y-84097239D01*
X145997869Y-84704219D01*
X145855451Y-85420200D01*
X134321400Y-85420200D01*
X134321400Y-85055196D01*
X134042038Y-84380756D01*
X133525844Y-83864562D01*
X132851404Y-83585200D01*
X132121396Y-83585200D01*
X131446956Y-83864562D01*
X130930762Y-84380756D01*
X130651400Y-85055196D01*
X130474745Y-85055196D01*
X130404931Y-84704219D01*
X129999361Y-84097239D01*
X129392381Y-83691669D01*
X128857127Y-83585200D01*
X128495673Y-83585200D01*
X127960419Y-83691669D01*
X127353439Y-84097239D01*
X126947869Y-84704219D01*
X126805451Y-85420200D01*
X115271400Y-85420200D01*
X115271400Y-85055196D01*
X114992038Y-84380756D01*
X114475844Y-83864562D01*
X113801404Y-83585200D01*
X113071396Y-83585200D01*
X112396956Y-83864562D01*
X111880762Y-84380756D01*
X111601400Y-85055196D01*
X95214467Y-85055196D01*
X95139880Y-85040360D01*
X93439880Y-85040360D01*
X93192115Y-85089643D01*
X92982071Y-85229991D01*
X92841723Y-85440035D01*
X92792440Y-85687800D01*
X90880000Y-85687800D01*
X90880000Y-79922000D01*
X92736560Y-79922000D01*
X92736560Y-81622000D01*
X92785843Y-81869765D01*
X92926191Y-82079809D01*
X93136235Y-82220157D01*
X93384000Y-82269440D01*
X95084000Y-82269440D01*
X95331765Y-82220157D01*
X95541809Y-82079809D01*
X95682157Y-81869765D01*
X95731440Y-81622000D01*
X95731440Y-80745458D01*
X115658900Y-80745458D01*
X115658900Y-81351742D01*
X115890915Y-81911877D01*
X116319623Y-82340585D01*
X116879758Y-82572600D01*
X117486042Y-82572600D01*
X118046177Y-82340585D01*
X118265966Y-82120796D01*
X118830309Y-82120796D01*
X118915367Y-82376139D01*
X119484865Y-82584116D01*
X120090600Y-82558323D01*
X120530433Y-82376139D01*
X120615491Y-82120796D01*
X119722900Y-81228205D01*
X118830309Y-82120796D01*
X118265966Y-82120796D01*
X118474885Y-81911877D01*
X118485533Y-81886170D01*
X118650704Y-81941191D01*
X119543295Y-81048600D01*
X119902505Y-81048600D01*
X120795096Y-81941191D01*
X121050439Y-81856133D01*
X121258416Y-81286635D01*
X121234832Y-80732758D01*
X131559300Y-80732758D01*
X131559300Y-81339042D01*
X131791315Y-81899177D01*
X132220023Y-82327885D01*
X132780158Y-82559900D01*
X133386442Y-82559900D01*
X133946577Y-82327885D01*
X134353300Y-81921162D01*
X134760023Y-82327885D01*
X135320158Y-82559900D01*
X135926442Y-82559900D01*
X136486577Y-82327885D01*
X136915285Y-81899177D01*
X137147300Y-81339042D01*
X137147300Y-80732758D01*
X136915285Y-80172623D01*
X136486577Y-79743915D01*
X135926442Y-79511900D01*
X135320158Y-79511900D01*
X134760023Y-79743915D01*
X134353300Y-80150638D01*
X133946577Y-79743915D01*
X133386442Y-79511900D01*
X132780158Y-79511900D01*
X132220023Y-79743915D01*
X131791315Y-80172623D01*
X131559300Y-80732758D01*
X121234832Y-80732758D01*
X121232623Y-80680900D01*
X121050439Y-80241067D01*
X120795096Y-80156009D01*
X119902505Y-81048600D01*
X119543295Y-81048600D01*
X118650704Y-80156009D01*
X118485533Y-80211030D01*
X118474885Y-80185323D01*
X118265966Y-79976404D01*
X118830309Y-79976404D01*
X119722900Y-80868995D01*
X120615491Y-79976404D01*
X120530433Y-79721061D01*
X119960935Y-79513084D01*
X119355200Y-79538877D01*
X118915367Y-79721061D01*
X118830309Y-79976404D01*
X118265966Y-79976404D01*
X118046177Y-79756615D01*
X117486042Y-79524600D01*
X116879758Y-79524600D01*
X116319623Y-79756615D01*
X115890915Y-80185323D01*
X115658900Y-80745458D01*
X95731440Y-80745458D01*
X95731440Y-79922000D01*
X95682157Y-79674235D01*
X95541809Y-79464191D01*
X95331765Y-79323843D01*
X95084000Y-79274560D01*
X93384000Y-79274560D01*
X93136235Y-79323843D01*
X92926191Y-79464191D01*
X92785843Y-79674235D01*
X92736560Y-79922000D01*
X90880000Y-79922000D01*
X90880000Y-73195540D01*
X91645000Y-73195540D01*
X91645000Y-74124460D01*
X92000483Y-74982671D01*
X92657329Y-75639517D01*
X93515540Y-75995000D01*
X94444460Y-75995000D01*
X95302671Y-75639517D01*
X95959517Y-74982671D01*
X96315000Y-74124460D01*
X96315000Y-73195540D01*
X100535000Y-73195540D01*
X100535000Y-74124460D01*
X100890483Y-74982671D01*
X101547329Y-75639517D01*
X102405540Y-75995000D01*
X103334460Y-75995000D01*
X104192671Y-75639517D01*
X104849517Y-74982671D01*
X105205000Y-74124460D01*
X105205000Y-74045458D01*
X115658900Y-74045458D01*
X115658900Y-74651742D01*
X115890915Y-75211877D01*
X116319623Y-75640585D01*
X116879758Y-75872600D01*
X117486042Y-75872600D01*
X118046177Y-75640585D01*
X118452900Y-75233862D01*
X118859623Y-75640585D01*
X119419758Y-75872600D01*
X120026042Y-75872600D01*
X120586177Y-75640585D01*
X120818666Y-75408096D01*
X132190709Y-75408096D01*
X132275767Y-75663439D01*
X132845265Y-75871416D01*
X133451000Y-75845623D01*
X133890833Y-75663439D01*
X133975891Y-75408096D01*
X133083300Y-74515505D01*
X132190709Y-75408096D01*
X120818666Y-75408096D01*
X121014885Y-75211877D01*
X121246900Y-74651742D01*
X121246900Y-74097865D01*
X131547784Y-74097865D01*
X131573577Y-74703600D01*
X131755761Y-75143433D01*
X132011104Y-75228491D01*
X132903695Y-74335900D01*
X133262905Y-74335900D01*
X134155496Y-75228491D01*
X134320667Y-75173470D01*
X134331315Y-75199177D01*
X134760023Y-75627885D01*
X135320158Y-75859900D01*
X135926442Y-75859900D01*
X136486577Y-75627885D01*
X136915285Y-75199177D01*
X137147300Y-74639042D01*
X137147300Y-74032758D01*
X136915285Y-73472623D01*
X136638202Y-73195540D01*
X141175000Y-73195540D01*
X141175000Y-74124460D01*
X141530483Y-74982671D01*
X142187329Y-75639517D01*
X143045540Y-75995000D01*
X143974460Y-75995000D01*
X144832671Y-75639517D01*
X145489517Y-74982671D01*
X145845000Y-74124460D01*
X145845000Y-73195540D01*
X150065000Y-73195540D01*
X150065000Y-74124460D01*
X150420483Y-74982671D01*
X151077329Y-75639517D01*
X151935540Y-75995000D01*
X152864460Y-75995000D01*
X153722671Y-75639517D01*
X154379517Y-74982671D01*
X154735000Y-74124460D01*
X154735000Y-73195540D01*
X154379517Y-72337329D01*
X153722671Y-71680483D01*
X152864460Y-71325000D01*
X151935540Y-71325000D01*
X151077329Y-71680483D01*
X150420483Y-72337329D01*
X150065000Y-73195540D01*
X145845000Y-73195540D01*
X145489517Y-72337329D01*
X144832671Y-71680483D01*
X143974460Y-71325000D01*
X143045540Y-71325000D01*
X142187329Y-71680483D01*
X141530483Y-72337329D01*
X141175000Y-73195540D01*
X136638202Y-73195540D01*
X136486577Y-73043915D01*
X135926442Y-72811900D01*
X135320158Y-72811900D01*
X134760023Y-73043915D01*
X134331315Y-73472623D01*
X134320667Y-73498330D01*
X134155496Y-73443309D01*
X133262905Y-74335900D01*
X132903695Y-74335900D01*
X132011104Y-73443309D01*
X131755761Y-73528367D01*
X131547784Y-74097865D01*
X121246900Y-74097865D01*
X121246900Y-74045458D01*
X121014885Y-73485323D01*
X120793266Y-73263704D01*
X132190709Y-73263704D01*
X133083300Y-74156295D01*
X133975891Y-73263704D01*
X133890833Y-73008361D01*
X133321335Y-72800384D01*
X132715600Y-72826177D01*
X132275767Y-73008361D01*
X132190709Y-73263704D01*
X120793266Y-73263704D01*
X120586177Y-73056615D01*
X120026042Y-72824600D01*
X119419758Y-72824600D01*
X118859623Y-73056615D01*
X118452900Y-73463338D01*
X118046177Y-73056615D01*
X117486042Y-72824600D01*
X116879758Y-72824600D01*
X116319623Y-73056615D01*
X115890915Y-73485323D01*
X115658900Y-74045458D01*
X105205000Y-74045458D01*
X105205000Y-73195540D01*
X104849517Y-72337329D01*
X104192671Y-71680483D01*
X103334460Y-71325000D01*
X102405540Y-71325000D01*
X101547329Y-71680483D01*
X100890483Y-72337329D01*
X100535000Y-73195540D01*
X96315000Y-73195540D01*
X95959517Y-72337329D01*
X95302671Y-71680483D01*
X94444460Y-71325000D01*
X93515540Y-71325000D01*
X92657329Y-71680483D01*
X92000483Y-72337329D01*
X91645000Y-73195540D01*
X90880000Y-73195540D01*
X90880000Y-70560000D01*
X155500001Y-70560000D01*
X155500000Y-89846074D01*
X155500000Y-89846074D01*
G37*
X155500000Y-89846074D02*
X155486091Y-89916000D01*
X155541195Y-90193028D01*
X155698119Y-90427881D01*
X155932972Y-90584805D01*
X156139577Y-90625901D01*
X156210000Y-90639909D01*
X156279925Y-90626000D01*
X157295926Y-90626000D01*
X157296424Y-90625901D01*
X157536586Y-90625901D01*
X157599405Y-98603901D01*
X157160333Y-98603901D01*
X157159835Y-98604000D01*
X156279926Y-98604000D01*
X156210000Y-98590091D01*
X156140075Y-98604000D01*
X156140074Y-98604000D01*
X155932972Y-98645195D01*
X155698119Y-98802119D01*
X155541195Y-99036972D01*
X155486091Y-99314000D01*
X155500001Y-99383931D01*
X155500000Y-115754074D01*
X155486091Y-115824000D01*
X155541195Y-116101028D01*
X155698119Y-116335881D01*
X155932972Y-116492805D01*
X156139577Y-116533901D01*
X156210000Y-116547909D01*
X156279925Y-116534000D01*
X157295926Y-116534000D01*
X157296424Y-116533901D01*
X157740586Y-116533901D01*
X157790097Y-122821820D01*
X157764819Y-122948902D01*
X157764819Y-124511901D01*
X157160333Y-124511901D01*
X157159835Y-124512000D01*
X156279925Y-124512000D01*
X156210000Y-124498091D01*
X156140074Y-124512000D01*
X155932972Y-124553195D01*
X155698119Y-124710119D01*
X155541195Y-124944972D01*
X155486091Y-125222000D01*
X155500000Y-125291926D01*
X155500001Y-146610000D01*
X148347540Y-146610000D01*
X148347540Y-145187300D01*
X148298257Y-144939535D01*
X148157909Y-144729491D01*
X147947865Y-144589143D01*
X147700100Y-144539860D01*
X146000100Y-144539860D01*
X145752335Y-144589143D01*
X145542291Y-144729491D01*
X145401943Y-144939535D01*
X145352660Y-145187300D01*
X145352660Y-146610000D01*
X144702640Y-146610000D01*
X144702640Y-145174600D01*
X144653357Y-144926835D01*
X144513009Y-144716791D01*
X144302965Y-144576443D01*
X144055200Y-144527160D01*
X142355200Y-144527160D01*
X142107435Y-144576443D01*
X141897391Y-144716791D01*
X141757043Y-144926835D01*
X141707760Y-145174600D01*
X141707760Y-146610000D01*
X141096100Y-146610000D01*
X141096100Y-146310350D01*
X140937350Y-146151600D01*
X139738100Y-146151600D01*
X139738100Y-146171600D01*
X139484100Y-146171600D01*
X139484100Y-146151600D01*
X138284850Y-146151600D01*
X138126100Y-146310350D01*
X138126100Y-146610000D01*
X137501740Y-146610000D01*
X137501740Y-145123800D01*
X137486721Y-145048290D01*
X138126100Y-145048290D01*
X138126100Y-145738850D01*
X138284850Y-145897600D01*
X139484100Y-145897600D01*
X139484100Y-144698350D01*
X139738100Y-144698350D01*
X139738100Y-145897600D01*
X140937350Y-145897600D01*
X141096100Y-145738850D01*
X141096100Y-145048290D01*
X140999427Y-144814901D01*
X140820798Y-144636273D01*
X140587409Y-144539600D01*
X139896850Y-144539600D01*
X139738100Y-144698350D01*
X139484100Y-144698350D01*
X139325350Y-144539600D01*
X138634791Y-144539600D01*
X138401402Y-144636273D01*
X138222773Y-144814901D01*
X138126100Y-145048290D01*
X137486721Y-145048290D01*
X137452457Y-144876035D01*
X137312109Y-144665991D01*
X137102065Y-144525643D01*
X136854300Y-144476360D01*
X135154300Y-144476360D01*
X134906535Y-144525643D01*
X134696491Y-144665991D01*
X134556143Y-144876035D01*
X134506860Y-145123800D01*
X134506860Y-146610000D01*
X133882240Y-146610000D01*
X133882240Y-145149200D01*
X133832957Y-144901435D01*
X133692609Y-144691391D01*
X133482565Y-144551043D01*
X133234800Y-144501760D01*
X131534800Y-144501760D01*
X131287035Y-144551043D01*
X131076991Y-144691391D01*
X130936643Y-144901435D01*
X130887360Y-145149200D01*
X130887360Y-146610000D01*
X130313540Y-146610000D01*
X130313540Y-145136500D01*
X130264257Y-144888735D01*
X130123909Y-144678691D01*
X129913865Y-144538343D01*
X129666100Y-144489060D01*
X127966100Y-144489060D01*
X127718335Y-144538343D01*
X127508291Y-144678691D01*
X127367943Y-144888735D01*
X127318660Y-145136500D01*
X127318660Y-146610000D01*
X126706740Y-146610000D01*
X126706740Y-145136500D01*
X126657457Y-144888735D01*
X126517109Y-144678691D01*
X126307065Y-144538343D01*
X126059300Y-144489060D01*
X124359300Y-144489060D01*
X124111535Y-144538343D01*
X123901491Y-144678691D01*
X123761143Y-144888735D01*
X123711860Y-145136500D01*
X123711860Y-146610000D01*
X123099940Y-146610000D01*
X123099940Y-145136500D01*
X123050657Y-144888735D01*
X122910309Y-144678691D01*
X122700265Y-144538343D01*
X122452500Y-144489060D01*
X120752500Y-144489060D01*
X120504735Y-144538343D01*
X120294691Y-144678691D01*
X120154343Y-144888735D01*
X120105060Y-145136500D01*
X120105060Y-146610000D01*
X90880000Y-146610000D01*
X90880000Y-142410540D01*
X91645000Y-142410540D01*
X91645000Y-143339460D01*
X92000483Y-144197671D01*
X92657329Y-144854517D01*
X93515540Y-145210000D01*
X94444460Y-145210000D01*
X95302671Y-144854517D01*
X95959517Y-144197671D01*
X96315000Y-143339460D01*
X96315000Y-142410540D01*
X150065000Y-142410540D01*
X150065000Y-143339460D01*
X150420483Y-144197671D01*
X151077329Y-144854517D01*
X151935540Y-145210000D01*
X152864460Y-145210000D01*
X153722671Y-144854517D01*
X154379517Y-144197671D01*
X154735000Y-143339460D01*
X154735000Y-142410540D01*
X154379517Y-141552329D01*
X153722671Y-140895483D01*
X152864460Y-140540000D01*
X151935540Y-140540000D01*
X151077329Y-140895483D01*
X150420483Y-141552329D01*
X150065000Y-142410540D01*
X96315000Y-142410540D01*
X95959517Y-141552329D01*
X95302671Y-140895483D01*
X94444460Y-140540000D01*
X93515540Y-140540000D01*
X92657329Y-140895483D01*
X92000483Y-141552329D01*
X91645000Y-142410540D01*
X90880000Y-142410540D01*
X90880000Y-136060540D01*
X91645000Y-136060540D01*
X91645000Y-136989460D01*
X92000483Y-137847671D01*
X92657329Y-138504517D01*
X93515540Y-138860000D01*
X94444460Y-138860000D01*
X95302671Y-138504517D01*
X95314388Y-138492800D01*
X99542160Y-138492800D01*
X99542160Y-139992800D01*
X99591443Y-140240565D01*
X99731791Y-140450609D01*
X99941835Y-140590957D01*
X100189600Y-140640240D01*
X101689600Y-140640240D01*
X101937365Y-140590957D01*
X102147409Y-140450609D01*
X102287757Y-140240565D01*
X102326069Y-140047956D01*
X102695060Y-140416947D01*
X103204106Y-140627800D01*
X103755094Y-140627800D01*
X104264140Y-140416947D01*
X104653747Y-140027340D01*
X104749600Y-139795930D01*
X104845453Y-140027340D01*
X105235060Y-140416947D01*
X105744106Y-140627800D01*
X106295094Y-140627800D01*
X106804140Y-140416947D01*
X107193747Y-140027340D01*
X107404600Y-139518294D01*
X107404600Y-138967306D01*
X107197533Y-138467400D01*
X110349860Y-138467400D01*
X110349860Y-139967400D01*
X110399143Y-140215165D01*
X110539491Y-140425209D01*
X110749535Y-140565557D01*
X110997300Y-140614840D01*
X112497300Y-140614840D01*
X112745065Y-140565557D01*
X112955109Y-140425209D01*
X113095457Y-140215165D01*
X113133769Y-140022556D01*
X113502760Y-140391547D01*
X114011806Y-140602400D01*
X114562794Y-140602400D01*
X115071840Y-140391547D01*
X115461447Y-140001940D01*
X115557300Y-139770530D01*
X115653153Y-140001940D01*
X116042760Y-140391547D01*
X116551806Y-140602400D01*
X117102794Y-140602400D01*
X117611840Y-140391547D01*
X118001447Y-140001940D01*
X118212300Y-139492894D01*
X118212300Y-138941906D01*
X118001447Y-138432860D01*
X117934387Y-138365800D01*
X121792560Y-138365800D01*
X121792560Y-139865800D01*
X121841843Y-140113565D01*
X121982191Y-140323609D01*
X122192235Y-140463957D01*
X122440000Y-140513240D01*
X123940000Y-140513240D01*
X124187765Y-140463957D01*
X124397809Y-140323609D01*
X124538157Y-140113565D01*
X124576469Y-139920956D01*
X124945460Y-140289947D01*
X125454506Y-140500800D01*
X126005494Y-140500800D01*
X126514540Y-140289947D01*
X126904147Y-139900340D01*
X127000000Y-139668930D01*
X127095853Y-139900340D01*
X127485460Y-140289947D01*
X127994506Y-140500800D01*
X128545494Y-140500800D01*
X129054540Y-140289947D01*
X129444147Y-139900340D01*
X129655000Y-139391294D01*
X129655000Y-138840306D01*
X129444147Y-138331260D01*
X129054540Y-137941653D01*
X128545494Y-137730800D01*
X127994506Y-137730800D01*
X127485460Y-137941653D01*
X127095853Y-138331260D01*
X127000000Y-138562670D01*
X126904147Y-138331260D01*
X126514540Y-137941653D01*
X126005494Y-137730800D01*
X125454506Y-137730800D01*
X124945460Y-137941653D01*
X124576469Y-138310644D01*
X124538157Y-138118035D01*
X124397809Y-137907991D01*
X124187765Y-137767643D01*
X123940000Y-137718360D01*
X122440000Y-137718360D01*
X122192235Y-137767643D01*
X121982191Y-137907991D01*
X121841843Y-138118035D01*
X121792560Y-138365800D01*
X117934387Y-138365800D01*
X117611840Y-138043253D01*
X117102794Y-137832400D01*
X116551806Y-137832400D01*
X116042760Y-138043253D01*
X115653153Y-138432860D01*
X115557300Y-138664270D01*
X115461447Y-138432860D01*
X115071840Y-138043253D01*
X114562794Y-137832400D01*
X114011806Y-137832400D01*
X113502760Y-138043253D01*
X113133769Y-138412244D01*
X113095457Y-138219635D01*
X112955109Y-138009591D01*
X112745065Y-137869243D01*
X112497300Y-137819960D01*
X110997300Y-137819960D01*
X110749535Y-137869243D01*
X110539491Y-138009591D01*
X110399143Y-138219635D01*
X110349860Y-138467400D01*
X107197533Y-138467400D01*
X107193747Y-138458260D01*
X106804140Y-138068653D01*
X106295094Y-137857800D01*
X105744106Y-137857800D01*
X105235060Y-138068653D01*
X104845453Y-138458260D01*
X104749600Y-138689670D01*
X104653747Y-138458260D01*
X104264140Y-138068653D01*
X103755094Y-137857800D01*
X103204106Y-137857800D01*
X102695060Y-138068653D01*
X102326069Y-138437644D01*
X102287757Y-138245035D01*
X102147409Y-138034991D01*
X101937365Y-137894643D01*
X101689600Y-137845360D01*
X100189600Y-137845360D01*
X99941835Y-137894643D01*
X99731791Y-138034991D01*
X99591443Y-138245035D01*
X99542160Y-138492800D01*
X95314388Y-138492800D01*
X95959517Y-137847671D01*
X96315000Y-136989460D01*
X96315000Y-136060540D01*
X95959517Y-135202329D01*
X95377188Y-134620000D01*
X98459051Y-134620000D01*
X98601469Y-135335981D01*
X99007039Y-135942961D01*
X99614019Y-136348531D01*
X100149273Y-136455000D01*
X100510727Y-136455000D01*
X101045981Y-136348531D01*
X101652961Y-135942961D01*
X102058531Y-135335981D01*
X102200949Y-134620000D01*
X104174051Y-134620000D01*
X104316469Y-135335981D01*
X104722039Y-135942961D01*
X105329019Y-136348531D01*
X105864273Y-136455000D01*
X106225727Y-136455000D01*
X106760981Y-136348531D01*
X107367961Y-135942961D01*
X107773531Y-135335981D01*
X107915949Y-134620000D01*
X109889051Y-134620000D01*
X110031469Y-135335981D01*
X110437039Y-135942961D01*
X111044019Y-136348531D01*
X111579273Y-136455000D01*
X111940727Y-136455000D01*
X112475981Y-136348531D01*
X113082961Y-135942961D01*
X113488531Y-135335981D01*
X113630949Y-134620000D01*
X115604051Y-134620000D01*
X115746469Y-135335981D01*
X116152039Y-135942961D01*
X116759019Y-136348531D01*
X117294273Y-136455000D01*
X117655727Y-136455000D01*
X118190981Y-136348531D01*
X118797961Y-135942961D01*
X119203531Y-135335981D01*
X119345949Y-134620000D01*
X121319051Y-134620000D01*
X121461469Y-135335981D01*
X121867039Y-135942961D01*
X122474019Y-136348531D01*
X123009273Y-136455000D01*
X123370727Y-136455000D01*
X123905981Y-136348531D01*
X124512961Y-135942961D01*
X124918531Y-135335981D01*
X125060949Y-134620000D01*
X127034051Y-134620000D01*
X127176469Y-135335981D01*
X127582039Y-135942961D01*
X128189019Y-136348531D01*
X128724273Y-136455000D01*
X129085727Y-136455000D01*
X129620981Y-136348531D01*
X130051991Y-136060540D01*
X150065000Y-136060540D01*
X150065000Y-136989460D01*
X150420483Y-137847671D01*
X151077329Y-138504517D01*
X151935540Y-138860000D01*
X152864460Y-138860000D01*
X153722671Y-138504517D01*
X154379517Y-137847671D01*
X154735000Y-136989460D01*
X154735000Y-136060540D01*
X154379517Y-135202329D01*
X153722671Y-134545483D01*
X152864460Y-134190000D01*
X151935540Y-134190000D01*
X151077329Y-134545483D01*
X150420483Y-135202329D01*
X150065000Y-136060540D01*
X130051991Y-136060540D01*
X130227961Y-135942961D01*
X130633531Y-135335981D01*
X130775949Y-134620000D01*
X130633531Y-133904019D01*
X130227961Y-133297039D01*
X129620981Y-132891469D01*
X129085727Y-132785000D01*
X128724273Y-132785000D01*
X128189019Y-132891469D01*
X127582039Y-133297039D01*
X127176469Y-133904019D01*
X127034051Y-134620000D01*
X125060949Y-134620000D01*
X124918531Y-133904019D01*
X124512961Y-133297039D01*
X123905981Y-132891469D01*
X123370727Y-132785000D01*
X123009273Y-132785000D01*
X122474019Y-132891469D01*
X121867039Y-133297039D01*
X121461469Y-133904019D01*
X121319051Y-134620000D01*
X119345949Y-134620000D01*
X119203531Y-133904019D01*
X118797961Y-133297039D01*
X118190981Y-132891469D01*
X117655727Y-132785000D01*
X117294273Y-132785000D01*
X116759019Y-132891469D01*
X116152039Y-133297039D01*
X115746469Y-133904019D01*
X115604051Y-134620000D01*
X113630949Y-134620000D01*
X113488531Y-133904019D01*
X113082961Y-133297039D01*
X112475981Y-132891469D01*
X111940727Y-132785000D01*
X111579273Y-132785000D01*
X111044019Y-132891469D01*
X110437039Y-133297039D01*
X110031469Y-133904019D01*
X109889051Y-134620000D01*
X107915949Y-134620000D01*
X107773531Y-133904019D01*
X107367961Y-133297039D01*
X106760981Y-132891469D01*
X106225727Y-132785000D01*
X105864273Y-132785000D01*
X105329019Y-132891469D01*
X104722039Y-133297039D01*
X104316469Y-133904019D01*
X104174051Y-134620000D01*
X102200949Y-134620000D01*
X102058531Y-133904019D01*
X101652961Y-133297039D01*
X101045981Y-132891469D01*
X100510727Y-132785000D01*
X100149273Y-132785000D01*
X99614019Y-132891469D01*
X99007039Y-133297039D01*
X98601469Y-133904019D01*
X98459051Y-134620000D01*
X95377188Y-134620000D01*
X95302671Y-134545483D01*
X94444460Y-134190000D01*
X93515540Y-134190000D01*
X92657329Y-134545483D01*
X92000483Y-135202329D01*
X91645000Y-136060540D01*
X90880000Y-136060540D01*
X90880000Y-119014996D01*
X98495000Y-119014996D01*
X98495000Y-119745004D01*
X98774362Y-120419444D01*
X99290556Y-120935638D01*
X99964996Y-121215000D01*
X100695004Y-121215000D01*
X101369444Y-120935638D01*
X101885638Y-120419444D01*
X102165000Y-119745004D01*
X102165000Y-119014996D01*
X104210000Y-119014996D01*
X104210000Y-119745004D01*
X104489362Y-120419444D01*
X105005556Y-120935638D01*
X105679996Y-121215000D01*
X106410004Y-121215000D01*
X107084444Y-120935638D01*
X107600638Y-120419444D01*
X107880000Y-119745004D01*
X107880000Y-119014996D01*
X109925000Y-119014996D01*
X109925000Y-119745004D01*
X110204362Y-120419444D01*
X110720556Y-120935638D01*
X111394996Y-121215000D01*
X112125004Y-121215000D01*
X112799444Y-120935638D01*
X113315638Y-120419444D01*
X113595000Y-119745004D01*
X113595000Y-119014996D01*
X115640000Y-119014996D01*
X115640000Y-119745004D01*
X115919362Y-120419444D01*
X116435556Y-120935638D01*
X117109996Y-121215000D01*
X117840004Y-121215000D01*
X118514444Y-120935638D01*
X119030638Y-120419444D01*
X119310000Y-119745004D01*
X119310000Y-119014996D01*
X121355000Y-119014996D01*
X121355000Y-119745004D01*
X121634362Y-120419444D01*
X122150556Y-120935638D01*
X122824996Y-121215000D01*
X123555004Y-121215000D01*
X124229444Y-120935638D01*
X124745638Y-120419444D01*
X125025000Y-119745004D01*
X125025000Y-119014996D01*
X127070000Y-119014996D01*
X127070000Y-119745004D01*
X127349362Y-120419444D01*
X127865556Y-120935638D01*
X128539996Y-121215000D01*
X129270004Y-121215000D01*
X129944444Y-120935638D01*
X130460638Y-120419444D01*
X130740000Y-119745004D01*
X130740000Y-119014996D01*
X130460638Y-118340556D01*
X129944444Y-117824362D01*
X129270004Y-117545000D01*
X128539996Y-117545000D01*
X127865556Y-117824362D01*
X127349362Y-118340556D01*
X127070000Y-119014996D01*
X125025000Y-119014996D01*
X124745638Y-118340556D01*
X124229444Y-117824362D01*
X123555004Y-117545000D01*
X122824996Y-117545000D01*
X122150556Y-117824362D01*
X121634362Y-118340556D01*
X121355000Y-119014996D01*
X119310000Y-119014996D01*
X119030638Y-118340556D01*
X118514444Y-117824362D01*
X117840004Y-117545000D01*
X117109996Y-117545000D01*
X116435556Y-117824362D01*
X115919362Y-118340556D01*
X115640000Y-119014996D01*
X113595000Y-119014996D01*
X113315638Y-118340556D01*
X112799444Y-117824362D01*
X112125004Y-117545000D01*
X111394996Y-117545000D01*
X110720556Y-117824362D01*
X110204362Y-118340556D01*
X109925000Y-119014996D01*
X107880000Y-119014996D01*
X107600638Y-118340556D01*
X107084444Y-117824362D01*
X106410004Y-117545000D01*
X105679996Y-117545000D01*
X105005556Y-117824362D01*
X104489362Y-118340556D01*
X104210000Y-119014996D01*
X102165000Y-119014996D01*
X101885638Y-118340556D01*
X101369444Y-117824362D01*
X100695004Y-117545000D01*
X99964996Y-117545000D01*
X99290556Y-117824362D01*
X98774362Y-118340556D01*
X98495000Y-119014996D01*
X90880000Y-119014996D01*
X90880000Y-114064432D01*
X106697673Y-114064432D01*
X106796336Y-114331287D01*
X107406061Y-114557808D01*
X108056060Y-114533756D01*
X108271113Y-114444678D01*
X112719600Y-114444678D01*
X112719600Y-115095122D01*
X112968514Y-115696053D01*
X113428447Y-116155986D01*
X114029378Y-116404900D01*
X114679822Y-116404900D01*
X115280753Y-116155986D01*
X115514307Y-115922432D01*
X118381673Y-115922432D01*
X118480336Y-116189287D01*
X119090061Y-116415808D01*
X119740060Y-116391756D01*
X120228864Y-116189287D01*
X120327527Y-115922432D01*
X119354600Y-114949505D01*
X118381673Y-115922432D01*
X115514307Y-115922432D01*
X115740686Y-115696053D01*
X115989600Y-115095122D01*
X115989600Y-114505361D01*
X117708692Y-114505361D01*
X117732744Y-115155360D01*
X117935213Y-115644164D01*
X118202068Y-115742827D01*
X119174995Y-114769900D01*
X119534205Y-114769900D01*
X120507132Y-115742827D01*
X120773987Y-115644164D01*
X121000508Y-115034439D01*
X120976974Y-114398432D01*
X125493673Y-114398432D01*
X125592336Y-114665287D01*
X126202061Y-114891808D01*
X126852060Y-114867756D01*
X127340864Y-114665287D01*
X127439527Y-114398432D01*
X126466600Y-113425505D01*
X125493673Y-114398432D01*
X120976974Y-114398432D01*
X120976456Y-114384440D01*
X120773987Y-113895636D01*
X120507132Y-113796973D01*
X119534205Y-114769900D01*
X119174995Y-114769900D01*
X118202068Y-113796973D01*
X117935213Y-113895636D01*
X117708692Y-114505361D01*
X115989600Y-114505361D01*
X115989600Y-114444678D01*
X115740686Y-113843747D01*
X115514307Y-113617368D01*
X118381673Y-113617368D01*
X119354600Y-114590295D01*
X120327527Y-113617368D01*
X120228864Y-113350513D01*
X119619139Y-113123992D01*
X118969140Y-113148044D01*
X118480336Y-113350513D01*
X118381673Y-113617368D01*
X115514307Y-113617368D01*
X115280753Y-113383814D01*
X114679822Y-113134900D01*
X114029378Y-113134900D01*
X113428447Y-113383814D01*
X112968514Y-113843747D01*
X112719600Y-114444678D01*
X108271113Y-114444678D01*
X108544864Y-114331287D01*
X108643527Y-114064432D01*
X107670600Y-113091505D01*
X106697673Y-114064432D01*
X90880000Y-114064432D01*
X90880000Y-112647361D01*
X106024692Y-112647361D01*
X106048744Y-113297360D01*
X106251213Y-113786164D01*
X106518068Y-113884827D01*
X107490995Y-112911900D01*
X107850205Y-112911900D01*
X108823132Y-113884827D01*
X109089987Y-113786164D01*
X109316508Y-113176439D01*
X109309290Y-112981361D01*
X124820692Y-112981361D01*
X124844744Y-113631360D01*
X125047213Y-114120164D01*
X125314068Y-114218827D01*
X126286995Y-113245900D01*
X126646205Y-113245900D01*
X127619132Y-114218827D01*
X127885987Y-114120164D01*
X128112508Y-113510439D01*
X128088456Y-112860440D01*
X127885987Y-112371636D01*
X127619132Y-112272973D01*
X126646205Y-113245900D01*
X126286995Y-113245900D01*
X125314068Y-112272973D01*
X125047213Y-112371636D01*
X124820692Y-112981361D01*
X109309290Y-112981361D01*
X109292456Y-112526440D01*
X109113072Y-112093368D01*
X125493673Y-112093368D01*
X126466600Y-113066295D01*
X127439527Y-112093368D01*
X127340864Y-111826513D01*
X126731139Y-111599992D01*
X126081140Y-111624044D01*
X125592336Y-111826513D01*
X125493673Y-112093368D01*
X109113072Y-112093368D01*
X109089987Y-112037636D01*
X108823132Y-111938973D01*
X107850205Y-112911900D01*
X107490995Y-112911900D01*
X106518068Y-111938973D01*
X106251213Y-112037636D01*
X106024692Y-112647361D01*
X90880000Y-112647361D01*
X90880000Y-111759368D01*
X106697673Y-111759368D01*
X107670600Y-112732295D01*
X108643527Y-111759368D01*
X108544864Y-111492513D01*
X107935139Y-111265992D01*
X107285140Y-111290044D01*
X106796336Y-111492513D01*
X106697673Y-111759368D01*
X90880000Y-111759368D01*
X90880000Y-107586678D01*
X106035600Y-107586678D01*
X106035600Y-108237122D01*
X106284514Y-108838053D01*
X106744447Y-109297986D01*
X107345378Y-109546900D01*
X107995822Y-109546900D01*
X108596753Y-109297986D01*
X109056686Y-108838053D01*
X109166198Y-108573666D01*
X112948020Y-108573666D01*
X112948020Y-109124654D01*
X113158873Y-109633700D01*
X113548480Y-110023307D01*
X114057526Y-110234160D01*
X114608514Y-110234160D01*
X115117560Y-110023307D01*
X115507167Y-109633700D01*
X115718020Y-109124654D01*
X115718020Y-108573666D01*
X117828020Y-108573666D01*
X117828020Y-109124654D01*
X118038873Y-109633700D01*
X118428480Y-110023307D01*
X118937526Y-110234160D01*
X119488514Y-110234160D01*
X119997560Y-110023307D01*
X120387167Y-109633700D01*
X120598020Y-109124654D01*
X120598020Y-108573666D01*
X120387167Y-108064620D01*
X120243225Y-107920678D01*
X124831600Y-107920678D01*
X124831600Y-108571122D01*
X125080514Y-109172053D01*
X125540447Y-109631986D01*
X126141378Y-109880900D01*
X126791822Y-109880900D01*
X127392753Y-109631986D01*
X127852686Y-109172053D01*
X128101600Y-108571122D01*
X128101600Y-107920678D01*
X127852686Y-107319747D01*
X127392753Y-106859814D01*
X126791822Y-106610900D01*
X126141378Y-106610900D01*
X125540447Y-106859814D01*
X125080514Y-107319747D01*
X124831600Y-107920678D01*
X120243225Y-107920678D01*
X119997560Y-107675013D01*
X119488514Y-107464160D01*
X118937526Y-107464160D01*
X118428480Y-107675013D01*
X118038873Y-108064620D01*
X117828020Y-108573666D01*
X115718020Y-108573666D01*
X115507167Y-108064620D01*
X115117560Y-107675013D01*
X114608514Y-107464160D01*
X114057526Y-107464160D01*
X113548480Y-107675013D01*
X113158873Y-108064620D01*
X112948020Y-108573666D01*
X109166198Y-108573666D01*
X109305600Y-108237122D01*
X109305600Y-107586678D01*
X109056686Y-106985747D01*
X108596753Y-106525814D01*
X107995822Y-106276900D01*
X107345378Y-106276900D01*
X106744447Y-106525814D01*
X106284514Y-106985747D01*
X106035600Y-107586678D01*
X90880000Y-107586678D01*
X90880000Y-102012900D01*
X93904160Y-102012900D01*
X93904160Y-104412900D01*
X93953443Y-104660665D01*
X94093791Y-104870709D01*
X94303835Y-105011057D01*
X94551600Y-105060340D01*
X96151600Y-105060340D01*
X96399365Y-105011057D01*
X96609409Y-104870709D01*
X96749757Y-104660665D01*
X96776385Y-104526793D01*
X96857024Y-104647477D01*
X97331692Y-104964640D01*
X97891600Y-105076013D01*
X98451509Y-104964640D01*
X98926177Y-104647477D01*
X99161600Y-104295141D01*
X99397024Y-104647477D01*
X99871692Y-104964640D01*
X100431600Y-105076013D01*
X100991509Y-104964640D01*
X101466177Y-104647477D01*
X101701600Y-104295141D01*
X101937024Y-104647477D01*
X102411692Y-104964640D01*
X102971600Y-105076013D01*
X103531509Y-104964640D01*
X104006177Y-104647477D01*
X104241600Y-104295141D01*
X104477024Y-104647477D01*
X104951692Y-104964640D01*
X105511600Y-105076013D01*
X106071509Y-104964640D01*
X106546177Y-104647477D01*
X106781600Y-104295141D01*
X107017024Y-104647477D01*
X107491692Y-104964640D01*
X108051600Y-105076013D01*
X108611509Y-104964640D01*
X109086177Y-104647477D01*
X109321600Y-104295141D01*
X109557024Y-104647477D01*
X110031692Y-104964640D01*
X110591600Y-105076013D01*
X111151509Y-104964640D01*
X111626177Y-104647477D01*
X111864099Y-104291401D01*
X112206704Y-104717400D01*
X112699781Y-104987267D01*
X112782561Y-105004804D01*
X113004600Y-104882815D01*
X113004600Y-103339900D01*
X112984600Y-103339900D01*
X112984600Y-103085900D01*
X113004600Y-103085900D01*
X113004600Y-101542985D01*
X113258600Y-101542985D01*
X113258600Y-103085900D01*
X113278600Y-103085900D01*
X113278600Y-103339900D01*
X113258600Y-103339900D01*
X113258600Y-104882815D01*
X113480639Y-105004804D01*
X113563419Y-104987267D01*
X114056496Y-104717400D01*
X114399101Y-104291401D01*
X114637024Y-104647477D01*
X115111692Y-104964640D01*
X115671600Y-105076013D01*
X116231509Y-104964640D01*
X116706177Y-104647477D01*
X116941600Y-104295141D01*
X117177024Y-104647477D01*
X117651692Y-104964640D01*
X118211600Y-105076013D01*
X118771509Y-104964640D01*
X119246177Y-104647477D01*
X119481600Y-104295141D01*
X119717024Y-104647477D01*
X120191692Y-104964640D01*
X120751600Y-105076013D01*
X121311509Y-104964640D01*
X121786177Y-104647477D01*
X122021600Y-104295141D01*
X122257024Y-104647477D01*
X122731692Y-104964640D01*
X123291600Y-105076013D01*
X123851509Y-104964640D01*
X124326177Y-104647477D01*
X124561600Y-104295141D01*
X124797024Y-104647477D01*
X125271692Y-104964640D01*
X125831600Y-105076013D01*
X126391509Y-104964640D01*
X126866177Y-104647477D01*
X127101600Y-104295141D01*
X127337024Y-104647477D01*
X127811692Y-104964640D01*
X128371600Y-105076013D01*
X128931509Y-104964640D01*
X129406177Y-104647477D01*
X129723340Y-104172809D01*
X129806600Y-103754232D01*
X129806600Y-102671567D01*
X129723340Y-102252991D01*
X129406176Y-101778323D01*
X128931508Y-101461160D01*
X128371600Y-101349787D01*
X127811691Y-101461160D01*
X127337023Y-101778324D01*
X127101600Y-102130659D01*
X126866176Y-101778323D01*
X126391508Y-101461160D01*
X125831600Y-101349787D01*
X125271691Y-101461160D01*
X124797023Y-101778324D01*
X124561600Y-102130659D01*
X124326176Y-101778323D01*
X123851508Y-101461160D01*
X123291600Y-101349787D01*
X122731691Y-101461160D01*
X122257023Y-101778324D01*
X122021600Y-102130659D01*
X121786176Y-101778323D01*
X121311508Y-101461160D01*
X120751600Y-101349787D01*
X120191691Y-101461160D01*
X119717023Y-101778324D01*
X119481600Y-102130659D01*
X119246176Y-101778323D01*
X118771508Y-101461160D01*
X118211600Y-101349787D01*
X117651691Y-101461160D01*
X117177023Y-101778324D01*
X116941600Y-102130659D01*
X116706176Y-101778323D01*
X116231508Y-101461160D01*
X115671600Y-101349787D01*
X115111691Y-101461160D01*
X114637023Y-101778324D01*
X114399101Y-102134399D01*
X114056496Y-101708400D01*
X113563419Y-101438533D01*
X113480639Y-101420996D01*
X113258600Y-101542985D01*
X113004600Y-101542985D01*
X112782561Y-101420996D01*
X112699781Y-101438533D01*
X112206704Y-101708400D01*
X111864099Y-102134399D01*
X111626176Y-101778323D01*
X111151508Y-101461160D01*
X110591600Y-101349787D01*
X110031691Y-101461160D01*
X109557023Y-101778324D01*
X109321600Y-102130659D01*
X109086176Y-101778323D01*
X108611508Y-101461160D01*
X108051600Y-101349787D01*
X107491691Y-101461160D01*
X107017023Y-101778324D01*
X106781600Y-102130659D01*
X106546176Y-101778323D01*
X106071508Y-101461160D01*
X105511600Y-101349787D01*
X104951691Y-101461160D01*
X104477023Y-101778324D01*
X104241600Y-102130659D01*
X104006176Y-101778323D01*
X103531508Y-101461160D01*
X102971600Y-101349787D01*
X102411691Y-101461160D01*
X101937023Y-101778324D01*
X101701600Y-102130659D01*
X101466176Y-101778323D01*
X100991508Y-101461160D01*
X100431600Y-101349787D01*
X99871691Y-101461160D01*
X99397023Y-101778324D01*
X99161600Y-102130659D01*
X98926176Y-101778323D01*
X98451508Y-101461160D01*
X97891600Y-101349787D01*
X97331691Y-101461160D01*
X96857023Y-101778324D01*
X96776385Y-101899007D01*
X96749757Y-101765135D01*
X96609409Y-101555091D01*
X96399365Y-101414743D01*
X96151600Y-101365460D01*
X94551600Y-101365460D01*
X94303835Y-101414743D01*
X94093791Y-101555091D01*
X93953443Y-101765135D01*
X93904160Y-102012900D01*
X90880000Y-102012900D01*
X90880000Y-95051568D01*
X93916600Y-95051568D01*
X93916600Y-96134233D01*
X93999860Y-96552809D01*
X94317024Y-97027477D01*
X94791692Y-97344640D01*
X95351600Y-97456013D01*
X95911509Y-97344640D01*
X96386177Y-97027477D01*
X96621600Y-96675141D01*
X96857024Y-97027477D01*
X97331692Y-97344640D01*
X97891600Y-97456013D01*
X98451509Y-97344640D01*
X98926177Y-97027477D01*
X99161600Y-96675141D01*
X99397024Y-97027477D01*
X99871692Y-97344640D01*
X100431600Y-97456013D01*
X100991509Y-97344640D01*
X101466177Y-97027477D01*
X101701600Y-96675141D01*
X101937024Y-97027477D01*
X102411692Y-97344640D01*
X102971600Y-97456013D01*
X103531509Y-97344640D01*
X104006177Y-97027477D01*
X104241600Y-96675141D01*
X104477024Y-97027477D01*
X104951692Y-97344640D01*
X105511600Y-97456013D01*
X106071509Y-97344640D01*
X106546177Y-97027477D01*
X106781600Y-96675141D01*
X107017024Y-97027477D01*
X107491692Y-97344640D01*
X108051600Y-97456013D01*
X108611509Y-97344640D01*
X109086177Y-97027477D01*
X109324099Y-96671401D01*
X109666704Y-97097400D01*
X110159781Y-97367267D01*
X110242561Y-97384804D01*
X110464600Y-97262815D01*
X110464600Y-95719900D01*
X110444600Y-95719900D01*
X110444600Y-95465900D01*
X110464600Y-95465900D01*
X110464600Y-93922985D01*
X110718600Y-93922985D01*
X110718600Y-95465900D01*
X110738600Y-95465900D01*
X110738600Y-95719900D01*
X110718600Y-95719900D01*
X110718600Y-97262815D01*
X110940639Y-97384804D01*
X111023419Y-97367267D01*
X111516496Y-97097400D01*
X111859101Y-96671401D01*
X112097024Y-97027477D01*
X112571692Y-97344640D01*
X113131600Y-97456013D01*
X113691509Y-97344640D01*
X114166177Y-97027477D01*
X114401600Y-96675141D01*
X114637024Y-97027477D01*
X115111692Y-97344640D01*
X115671600Y-97456013D01*
X116231509Y-97344640D01*
X116706177Y-97027477D01*
X116941600Y-96675141D01*
X117177024Y-97027477D01*
X117651692Y-97344640D01*
X118211600Y-97456013D01*
X118771509Y-97344640D01*
X119246177Y-97027477D01*
X119481600Y-96675141D01*
X119717024Y-97027477D01*
X120191692Y-97344640D01*
X120751600Y-97456013D01*
X121311509Y-97344640D01*
X121786177Y-97027477D01*
X122021600Y-96675141D01*
X122257024Y-97027477D01*
X122731692Y-97344640D01*
X123291600Y-97456013D01*
X123851509Y-97344640D01*
X124326177Y-97027477D01*
X124561600Y-96675141D01*
X124797024Y-97027477D01*
X125271692Y-97344640D01*
X125831600Y-97456013D01*
X126391509Y-97344640D01*
X126866177Y-97027477D01*
X127101600Y-96675141D01*
X127337024Y-97027477D01*
X127811692Y-97344640D01*
X128371600Y-97456013D01*
X128931509Y-97344640D01*
X129406177Y-97027477D01*
X129723340Y-96552809D01*
X129806600Y-96134232D01*
X129806600Y-95051567D01*
X129723340Y-94632991D01*
X129406176Y-94158323D01*
X128931508Y-93841160D01*
X128371600Y-93729787D01*
X127811691Y-93841160D01*
X127337023Y-94158324D01*
X127101600Y-94510659D01*
X126866176Y-94158323D01*
X126391508Y-93841160D01*
X125831600Y-93729787D01*
X125271691Y-93841160D01*
X124797023Y-94158324D01*
X124561600Y-94510659D01*
X124326176Y-94158323D01*
X123851508Y-93841160D01*
X123291600Y-93729787D01*
X122731691Y-93841160D01*
X122257023Y-94158324D01*
X122021600Y-94510659D01*
X121786176Y-94158323D01*
X121311508Y-93841160D01*
X120751600Y-93729787D01*
X120191691Y-93841160D01*
X119717023Y-94158324D01*
X119481600Y-94510659D01*
X119246176Y-94158323D01*
X118771508Y-93841160D01*
X118211600Y-93729787D01*
X117651691Y-93841160D01*
X117177023Y-94158324D01*
X116941600Y-94510659D01*
X116706176Y-94158323D01*
X116231508Y-93841160D01*
X115671600Y-93729787D01*
X115111691Y-93841160D01*
X114637023Y-94158324D01*
X114401600Y-94510659D01*
X114166176Y-94158323D01*
X113691508Y-93841160D01*
X113131600Y-93729787D01*
X112571691Y-93841160D01*
X112097023Y-94158324D01*
X111859101Y-94514399D01*
X111516496Y-94088400D01*
X111023419Y-93818533D01*
X110940639Y-93800996D01*
X110718600Y-93922985D01*
X110464600Y-93922985D01*
X110242561Y-93800996D01*
X110159781Y-93818533D01*
X109666704Y-94088400D01*
X109324099Y-94514399D01*
X109086176Y-94158323D01*
X108611508Y-93841160D01*
X108051600Y-93729787D01*
X107491691Y-93841160D01*
X107017023Y-94158324D01*
X106781600Y-94510659D01*
X106546176Y-94158323D01*
X106071508Y-93841160D01*
X105511600Y-93729787D01*
X104951691Y-93841160D01*
X104477023Y-94158324D01*
X104241600Y-94510659D01*
X104006176Y-94158323D01*
X103531508Y-93841160D01*
X102971600Y-93729787D01*
X102411691Y-93841160D01*
X101937023Y-94158324D01*
X101701600Y-94510659D01*
X101466176Y-94158323D01*
X100991508Y-93841160D01*
X100431600Y-93729787D01*
X99871691Y-93841160D01*
X99397023Y-94158324D01*
X99161600Y-94510659D01*
X98926176Y-94158323D01*
X98451508Y-93841160D01*
X97891600Y-93729787D01*
X97331691Y-93841160D01*
X96857023Y-94158324D01*
X96621600Y-94510659D01*
X96386176Y-94158323D01*
X95911508Y-93841160D01*
X95351600Y-93729787D01*
X94791691Y-93841160D01*
X94317023Y-94158324D01*
X93999860Y-94632992D01*
X93916600Y-95051568D01*
X90880000Y-95051568D01*
X90880000Y-91906732D01*
X103065473Y-91906732D01*
X103164136Y-92173587D01*
X103773861Y-92400108D01*
X104423860Y-92376056D01*
X104912664Y-92173587D01*
X105011327Y-91906732D01*
X104038400Y-90933805D01*
X103065473Y-91906732D01*
X90880000Y-91906732D01*
X90880000Y-90489661D01*
X102392492Y-90489661D01*
X102416544Y-91139660D01*
X102619013Y-91628464D01*
X102885868Y-91727127D01*
X103858795Y-90754200D01*
X104218005Y-90754200D01*
X105190932Y-91727127D01*
X105457787Y-91628464D01*
X105684308Y-91018739D01*
X105662485Y-90428978D01*
X107403400Y-90428978D01*
X107403400Y-91079422D01*
X107652314Y-91680353D01*
X108112247Y-92140286D01*
X108713178Y-92389200D01*
X109363622Y-92389200D01*
X109964553Y-92140286D01*
X110424486Y-91680353D01*
X110637536Y-91166005D01*
X111648205Y-91166005D01*
X111880758Y-91727458D01*
X112371624Y-92248692D01*
X113024593Y-92542403D01*
X113309400Y-92426058D01*
X113309400Y-90881200D01*
X113563400Y-90881200D01*
X113563400Y-92426058D01*
X113848207Y-92542403D01*
X114501176Y-92248692D01*
X114992042Y-91727458D01*
X115224595Y-91166005D01*
X115107832Y-90881200D01*
X113563400Y-90881200D01*
X113309400Y-90881200D01*
X111764968Y-90881200D01*
X111648205Y-91166005D01*
X110637536Y-91166005D01*
X110673400Y-91079422D01*
X110673400Y-90428978D01*
X110637537Y-90342395D01*
X111648205Y-90342395D01*
X111764968Y-90627200D01*
X113309400Y-90627200D01*
X113309400Y-89082342D01*
X113563400Y-89082342D01*
X113563400Y-90627200D01*
X115107832Y-90627200D01*
X115205407Y-90389196D01*
X126841400Y-90389196D01*
X126841400Y-91119204D01*
X127120762Y-91793644D01*
X127636956Y-92309838D01*
X128311396Y-92589200D01*
X129041404Y-92589200D01*
X129715844Y-92309838D01*
X130232038Y-91793644D01*
X130492014Y-91166005D01*
X130825205Y-91166005D01*
X131057758Y-91727458D01*
X131548624Y-92248692D01*
X132201593Y-92542403D01*
X132486400Y-92426058D01*
X132486400Y-90881200D01*
X132740400Y-90881200D01*
X132740400Y-92426058D01*
X133025207Y-92542403D01*
X133678176Y-92248692D01*
X134169042Y-91727458D01*
X134401595Y-91166005D01*
X134284832Y-90881200D01*
X132740400Y-90881200D01*
X132486400Y-90881200D01*
X130941968Y-90881200D01*
X130825205Y-91166005D01*
X130492014Y-91166005D01*
X130511400Y-91119204D01*
X130511400Y-90389196D01*
X130492015Y-90342395D01*
X130825205Y-90342395D01*
X130941968Y-90627200D01*
X132486400Y-90627200D01*
X132486400Y-89082342D01*
X132740400Y-89082342D01*
X132740400Y-90627200D01*
X134284832Y-90627200D01*
X134382407Y-90389196D01*
X146018400Y-90389196D01*
X146018400Y-91119204D01*
X146297762Y-91793644D01*
X146813956Y-92309838D01*
X147488396Y-92589200D01*
X148218404Y-92589200D01*
X148892844Y-92309838D01*
X149409038Y-91793644D01*
X149688400Y-91119204D01*
X149688400Y-90389196D01*
X149409038Y-89714756D01*
X148892844Y-89198562D01*
X148218404Y-88919200D01*
X147488396Y-88919200D01*
X146813956Y-89198562D01*
X146297762Y-89714756D01*
X146018400Y-90389196D01*
X134382407Y-90389196D01*
X134401595Y-90342395D01*
X134169042Y-89780942D01*
X133678176Y-89259708D01*
X133025207Y-88965997D01*
X132740400Y-89082342D01*
X132486400Y-89082342D01*
X132201593Y-88965997D01*
X131548624Y-89259708D01*
X131057758Y-89780942D01*
X130825205Y-90342395D01*
X130492015Y-90342395D01*
X130232038Y-89714756D01*
X129715844Y-89198562D01*
X129041404Y-88919200D01*
X128311396Y-88919200D01*
X127636956Y-89198562D01*
X127120762Y-89714756D01*
X126841400Y-90389196D01*
X115205407Y-90389196D01*
X115224595Y-90342395D01*
X114992042Y-89780942D01*
X114501176Y-89259708D01*
X113848207Y-88965997D01*
X113563400Y-89082342D01*
X113309400Y-89082342D01*
X113024593Y-88965997D01*
X112371624Y-89259708D01*
X111880758Y-89780942D01*
X111648205Y-90342395D01*
X110637537Y-90342395D01*
X110424486Y-89828047D01*
X109964553Y-89368114D01*
X109363622Y-89119200D01*
X108713178Y-89119200D01*
X108112247Y-89368114D01*
X107652314Y-89828047D01*
X107403400Y-90428978D01*
X105662485Y-90428978D01*
X105660256Y-90368740D01*
X105457787Y-89879936D01*
X105190932Y-89781273D01*
X104218005Y-90754200D01*
X103858795Y-90754200D01*
X102885868Y-89781273D01*
X102619013Y-89879936D01*
X102392492Y-90489661D01*
X90880000Y-90489661D01*
X90880000Y-89601668D01*
X103065473Y-89601668D01*
X104038400Y-90574595D01*
X105011327Y-89601668D01*
X104912664Y-89334813D01*
X104302939Y-89108292D01*
X103652940Y-89132344D01*
X103164136Y-89334813D01*
X103065473Y-89601668D01*
X90880000Y-89601668D01*
X90880000Y-85687800D01*
X92792440Y-85687800D01*
X92792440Y-87387800D01*
X92841723Y-87635565D01*
X92982071Y-87845609D01*
X93192115Y-87985957D01*
X93439880Y-88035240D01*
X95139880Y-88035240D01*
X95387645Y-87985957D01*
X95597689Y-87845609D01*
X95738037Y-87635565D01*
X95787320Y-87387800D01*
X95787320Y-85687800D01*
X95738037Y-85440035D01*
X95597689Y-85229991D01*
X95387645Y-85089643D01*
X95214467Y-85055196D01*
X111601400Y-85055196D01*
X111601400Y-85785204D01*
X111880762Y-86459644D01*
X112396956Y-86975838D01*
X113071396Y-87255200D01*
X113801404Y-87255200D01*
X114475844Y-86975838D01*
X114992038Y-86459644D01*
X115271400Y-85785204D01*
X115271400Y-85420200D01*
X126805451Y-85420200D01*
X126947869Y-86136181D01*
X127353439Y-86743161D01*
X127960419Y-87148731D01*
X128495673Y-87255200D01*
X128857127Y-87255200D01*
X129392381Y-87148731D01*
X129999361Y-86743161D01*
X130404931Y-86136181D01*
X130547349Y-85420200D01*
X130474745Y-85055196D01*
X130651400Y-85055196D01*
X130651400Y-85785204D01*
X130930762Y-86459644D01*
X131446956Y-86975838D01*
X132121396Y-87255200D01*
X132851404Y-87255200D01*
X133525844Y-86975838D01*
X134042038Y-86459644D01*
X134321400Y-85785204D01*
X134321400Y-85420200D01*
X145855451Y-85420200D01*
X145997869Y-86136181D01*
X146403439Y-86743161D01*
X147010419Y-87148731D01*
X147545673Y-87255200D01*
X147907127Y-87255200D01*
X148442381Y-87148731D01*
X149049361Y-86743161D01*
X149454931Y-86136181D01*
X149597349Y-85420200D01*
X149454931Y-84704219D01*
X149049361Y-84097239D01*
X148442381Y-83691669D01*
X147907127Y-83585200D01*
X147545673Y-83585200D01*
X147010419Y-83691669D01*
X146403439Y-84097239D01*
X145997869Y-84704219D01*
X145855451Y-85420200D01*
X134321400Y-85420200D01*
X134321400Y-85055196D01*
X134042038Y-84380756D01*
X133525844Y-83864562D01*
X132851404Y-83585200D01*
X132121396Y-83585200D01*
X131446956Y-83864562D01*
X130930762Y-84380756D01*
X130651400Y-85055196D01*
X130474745Y-85055196D01*
X130404931Y-84704219D01*
X129999361Y-84097239D01*
X129392381Y-83691669D01*
X128857127Y-83585200D01*
X128495673Y-83585200D01*
X127960419Y-83691669D01*
X127353439Y-84097239D01*
X126947869Y-84704219D01*
X126805451Y-85420200D01*
X115271400Y-85420200D01*
X115271400Y-85055196D01*
X114992038Y-84380756D01*
X114475844Y-83864562D01*
X113801404Y-83585200D01*
X113071396Y-83585200D01*
X112396956Y-83864562D01*
X111880762Y-84380756D01*
X111601400Y-85055196D01*
X95214467Y-85055196D01*
X95139880Y-85040360D01*
X93439880Y-85040360D01*
X93192115Y-85089643D01*
X92982071Y-85229991D01*
X92841723Y-85440035D01*
X92792440Y-85687800D01*
X90880000Y-85687800D01*
X90880000Y-79922000D01*
X92736560Y-79922000D01*
X92736560Y-81622000D01*
X92785843Y-81869765D01*
X92926191Y-82079809D01*
X93136235Y-82220157D01*
X93384000Y-82269440D01*
X95084000Y-82269440D01*
X95331765Y-82220157D01*
X95541809Y-82079809D01*
X95682157Y-81869765D01*
X95731440Y-81622000D01*
X95731440Y-80745458D01*
X115658900Y-80745458D01*
X115658900Y-81351742D01*
X115890915Y-81911877D01*
X116319623Y-82340585D01*
X116879758Y-82572600D01*
X117486042Y-82572600D01*
X118046177Y-82340585D01*
X118265966Y-82120796D01*
X118830309Y-82120796D01*
X118915367Y-82376139D01*
X119484865Y-82584116D01*
X120090600Y-82558323D01*
X120530433Y-82376139D01*
X120615491Y-82120796D01*
X119722900Y-81228205D01*
X118830309Y-82120796D01*
X118265966Y-82120796D01*
X118474885Y-81911877D01*
X118485533Y-81886170D01*
X118650704Y-81941191D01*
X119543295Y-81048600D01*
X119902505Y-81048600D01*
X120795096Y-81941191D01*
X121050439Y-81856133D01*
X121258416Y-81286635D01*
X121234832Y-80732758D01*
X131559300Y-80732758D01*
X131559300Y-81339042D01*
X131791315Y-81899177D01*
X132220023Y-82327885D01*
X132780158Y-82559900D01*
X133386442Y-82559900D01*
X133946577Y-82327885D01*
X134353300Y-81921162D01*
X134760023Y-82327885D01*
X135320158Y-82559900D01*
X135926442Y-82559900D01*
X136486577Y-82327885D01*
X136915285Y-81899177D01*
X137147300Y-81339042D01*
X137147300Y-80732758D01*
X136915285Y-80172623D01*
X136486577Y-79743915D01*
X135926442Y-79511900D01*
X135320158Y-79511900D01*
X134760023Y-79743915D01*
X134353300Y-80150638D01*
X133946577Y-79743915D01*
X133386442Y-79511900D01*
X132780158Y-79511900D01*
X132220023Y-79743915D01*
X131791315Y-80172623D01*
X131559300Y-80732758D01*
X121234832Y-80732758D01*
X121232623Y-80680900D01*
X121050439Y-80241067D01*
X120795096Y-80156009D01*
X119902505Y-81048600D01*
X119543295Y-81048600D01*
X118650704Y-80156009D01*
X118485533Y-80211030D01*
X118474885Y-80185323D01*
X118265966Y-79976404D01*
X118830309Y-79976404D01*
X119722900Y-80868995D01*
X120615491Y-79976404D01*
X120530433Y-79721061D01*
X119960935Y-79513084D01*
X119355200Y-79538877D01*
X118915367Y-79721061D01*
X118830309Y-79976404D01*
X118265966Y-79976404D01*
X118046177Y-79756615D01*
X117486042Y-79524600D01*
X116879758Y-79524600D01*
X116319623Y-79756615D01*
X115890915Y-80185323D01*
X115658900Y-80745458D01*
X95731440Y-80745458D01*
X95731440Y-79922000D01*
X95682157Y-79674235D01*
X95541809Y-79464191D01*
X95331765Y-79323843D01*
X95084000Y-79274560D01*
X93384000Y-79274560D01*
X93136235Y-79323843D01*
X92926191Y-79464191D01*
X92785843Y-79674235D01*
X92736560Y-79922000D01*
X90880000Y-79922000D01*
X90880000Y-73195540D01*
X91645000Y-73195540D01*
X91645000Y-74124460D01*
X92000483Y-74982671D01*
X92657329Y-75639517D01*
X93515540Y-75995000D01*
X94444460Y-75995000D01*
X95302671Y-75639517D01*
X95959517Y-74982671D01*
X96315000Y-74124460D01*
X96315000Y-73195540D01*
X100535000Y-73195540D01*
X100535000Y-74124460D01*
X100890483Y-74982671D01*
X101547329Y-75639517D01*
X102405540Y-75995000D01*
X103334460Y-75995000D01*
X104192671Y-75639517D01*
X104849517Y-74982671D01*
X105205000Y-74124460D01*
X105205000Y-74045458D01*
X115658900Y-74045458D01*
X115658900Y-74651742D01*
X115890915Y-75211877D01*
X116319623Y-75640585D01*
X116879758Y-75872600D01*
X117486042Y-75872600D01*
X118046177Y-75640585D01*
X118452900Y-75233862D01*
X118859623Y-75640585D01*
X119419758Y-75872600D01*
X120026042Y-75872600D01*
X120586177Y-75640585D01*
X120818666Y-75408096D01*
X132190709Y-75408096D01*
X132275767Y-75663439D01*
X132845265Y-75871416D01*
X133451000Y-75845623D01*
X133890833Y-75663439D01*
X133975891Y-75408096D01*
X133083300Y-74515505D01*
X132190709Y-75408096D01*
X120818666Y-75408096D01*
X121014885Y-75211877D01*
X121246900Y-74651742D01*
X121246900Y-74097865D01*
X131547784Y-74097865D01*
X131573577Y-74703600D01*
X131755761Y-75143433D01*
X132011104Y-75228491D01*
X132903695Y-74335900D01*
X133262905Y-74335900D01*
X134155496Y-75228491D01*
X134320667Y-75173470D01*
X134331315Y-75199177D01*
X134760023Y-75627885D01*
X135320158Y-75859900D01*
X135926442Y-75859900D01*
X136486577Y-75627885D01*
X136915285Y-75199177D01*
X137147300Y-74639042D01*
X137147300Y-74032758D01*
X136915285Y-73472623D01*
X136638202Y-73195540D01*
X141175000Y-73195540D01*
X141175000Y-74124460D01*
X141530483Y-74982671D01*
X142187329Y-75639517D01*
X143045540Y-75995000D01*
X143974460Y-75995000D01*
X144832671Y-75639517D01*
X145489517Y-74982671D01*
X145845000Y-74124460D01*
X145845000Y-73195540D01*
X150065000Y-73195540D01*
X150065000Y-74124460D01*
X150420483Y-74982671D01*
X151077329Y-75639517D01*
X151935540Y-75995000D01*
X152864460Y-75995000D01*
X153722671Y-75639517D01*
X154379517Y-74982671D01*
X154735000Y-74124460D01*
X154735000Y-73195540D01*
X154379517Y-72337329D01*
X153722671Y-71680483D01*
X152864460Y-71325000D01*
X151935540Y-71325000D01*
X151077329Y-71680483D01*
X150420483Y-72337329D01*
X150065000Y-73195540D01*
X145845000Y-73195540D01*
X145489517Y-72337329D01*
X144832671Y-71680483D01*
X143974460Y-71325000D01*
X143045540Y-71325000D01*
X142187329Y-71680483D01*
X141530483Y-72337329D01*
X141175000Y-73195540D01*
X136638202Y-73195540D01*
X136486577Y-73043915D01*
X135926442Y-72811900D01*
X135320158Y-72811900D01*
X134760023Y-73043915D01*
X134331315Y-73472623D01*
X134320667Y-73498330D01*
X134155496Y-73443309D01*
X133262905Y-74335900D01*
X132903695Y-74335900D01*
X132011104Y-73443309D01*
X131755761Y-73528367D01*
X131547784Y-74097865D01*
X121246900Y-74097865D01*
X121246900Y-74045458D01*
X121014885Y-73485323D01*
X120793266Y-73263704D01*
X132190709Y-73263704D01*
X133083300Y-74156295D01*
X133975891Y-73263704D01*
X133890833Y-73008361D01*
X133321335Y-72800384D01*
X132715600Y-72826177D01*
X132275767Y-73008361D01*
X132190709Y-73263704D01*
X120793266Y-73263704D01*
X120586177Y-73056615D01*
X120026042Y-72824600D01*
X119419758Y-72824600D01*
X118859623Y-73056615D01*
X118452900Y-73463338D01*
X118046177Y-73056615D01*
X117486042Y-72824600D01*
X116879758Y-72824600D01*
X116319623Y-73056615D01*
X115890915Y-73485323D01*
X115658900Y-74045458D01*
X105205000Y-74045458D01*
X105205000Y-73195540D01*
X104849517Y-72337329D01*
X104192671Y-71680483D01*
X103334460Y-71325000D01*
X102405540Y-71325000D01*
X101547329Y-71680483D01*
X100890483Y-72337329D01*
X100535000Y-73195540D01*
X96315000Y-73195540D01*
X95959517Y-72337329D01*
X95302671Y-71680483D01*
X94444460Y-71325000D01*
X93515540Y-71325000D01*
X92657329Y-71680483D01*
X92000483Y-72337329D01*
X91645000Y-73195540D01*
X90880000Y-73195540D01*
X90880000Y-70560000D01*
X155500001Y-70560000D01*
X155500000Y-89846074D01*
G04 #@! TD*
M02*
