G04 #@! TF.GenerationSoftware,KiCad,Pcbnew,5.0.2+dfsg1-1~bpo9+1*
G04 #@! TF.CreationDate,2019-02-15T20:10:49-06:00*
G04 #@! TF.ProjectId,EncoderandSensorsBoard,456e636f-6465-4726-916e-6453656e736f,v1.0*
G04 #@! TF.SameCoordinates,Original*
G04 #@! TF.FileFunction,Soldermask,Bot*
G04 #@! TF.FilePolarity,Negative*
%FSLAX46Y46*%
G04 Gerber Fmt 4.6, Leading zero omitted, Abs format (unit mm)*
G04 Created by KiCad (PCBNEW 5.0.2+dfsg1-1~bpo9+1) date vie 15 feb 2019 20:10:49 CST*
%MOMM*%
%LPD*%
G01*
G04 APERTURE LIST*
%ADD10C,0.100000*%
G04 APERTURE END LIST*
D10*
G36*
X147751100Y-146938300D02*
X145949100Y-146938300D01*
X145949100Y-145136300D01*
X147751100Y-145136300D01*
X147751100Y-146938300D01*
X147751100Y-146938300D01*
G37*
G36*
X144106200Y-146925600D02*
X142304200Y-146925600D01*
X142304200Y-145123600D01*
X144106200Y-145123600D01*
X144106200Y-146925600D01*
X144106200Y-146925600D01*
G37*
G36*
X140512100Y-146925600D02*
X138710100Y-146925600D01*
X138710100Y-145123600D01*
X140512100Y-145123600D01*
X140512100Y-146925600D01*
X140512100Y-146925600D01*
G37*
G36*
X133285800Y-146900200D02*
X131483800Y-146900200D01*
X131483800Y-145098200D01*
X133285800Y-145098200D01*
X133285800Y-146900200D01*
X133285800Y-146900200D01*
G37*
G36*
X129717100Y-146887500D02*
X127915100Y-146887500D01*
X127915100Y-145085500D01*
X129717100Y-145085500D01*
X129717100Y-146887500D01*
X129717100Y-146887500D01*
G37*
G36*
X126110300Y-146887500D02*
X124308300Y-146887500D01*
X124308300Y-145085500D01*
X126110300Y-145085500D01*
X126110300Y-146887500D01*
X126110300Y-146887500D01*
G37*
G36*
X122503500Y-146887500D02*
X120701500Y-146887500D01*
X120701500Y-145085500D01*
X122503500Y-145085500D01*
X122503500Y-146887500D01*
X122503500Y-146887500D01*
G37*
G36*
X136905300Y-146874800D02*
X135103300Y-146874800D01*
X135103300Y-145072800D01*
X136905300Y-145072800D01*
X136905300Y-146874800D01*
X136905300Y-146874800D01*
G37*
G36*
X101740600Y-140043800D02*
X100138600Y-140043800D01*
X100138600Y-138441800D01*
X101740600Y-138441800D01*
X101740600Y-140043800D01*
X101740600Y-140043800D01*
G37*
G36*
X103713243Y-138472581D02*
X103859015Y-138532962D01*
X103990211Y-138620624D01*
X104101776Y-138732189D01*
X104189438Y-138863385D01*
X104249819Y-139009157D01*
X104280600Y-139163907D01*
X104280600Y-139321693D01*
X104249819Y-139476443D01*
X104189438Y-139622215D01*
X104101776Y-139753411D01*
X103990211Y-139864976D01*
X103859015Y-139952638D01*
X103713243Y-140013019D01*
X103558493Y-140043800D01*
X103400707Y-140043800D01*
X103245957Y-140013019D01*
X103100185Y-139952638D01*
X102968989Y-139864976D01*
X102857424Y-139753411D01*
X102769762Y-139622215D01*
X102709381Y-139476443D01*
X102678600Y-139321693D01*
X102678600Y-139163907D01*
X102709381Y-139009157D01*
X102769762Y-138863385D01*
X102857424Y-138732189D01*
X102968989Y-138620624D01*
X103100185Y-138532962D01*
X103245957Y-138472581D01*
X103400707Y-138441800D01*
X103558493Y-138441800D01*
X103713243Y-138472581D01*
X103713243Y-138472581D01*
G37*
G36*
X106253243Y-138472581D02*
X106399015Y-138532962D01*
X106530211Y-138620624D01*
X106641776Y-138732189D01*
X106729438Y-138863385D01*
X106789819Y-139009157D01*
X106820600Y-139163907D01*
X106820600Y-139321693D01*
X106789819Y-139476443D01*
X106729438Y-139622215D01*
X106641776Y-139753411D01*
X106530211Y-139864976D01*
X106399015Y-139952638D01*
X106253243Y-140013019D01*
X106098493Y-140043800D01*
X105940707Y-140043800D01*
X105785957Y-140013019D01*
X105640185Y-139952638D01*
X105508989Y-139864976D01*
X105397424Y-139753411D01*
X105309762Y-139622215D01*
X105249381Y-139476443D01*
X105218600Y-139321693D01*
X105218600Y-139163907D01*
X105249381Y-139009157D01*
X105309762Y-138863385D01*
X105397424Y-138732189D01*
X105508989Y-138620624D01*
X105640185Y-138532962D01*
X105785957Y-138472581D01*
X105940707Y-138441800D01*
X106098493Y-138441800D01*
X106253243Y-138472581D01*
X106253243Y-138472581D01*
G37*
G36*
X114520943Y-138447181D02*
X114666715Y-138507562D01*
X114797911Y-138595224D01*
X114909476Y-138706789D01*
X114997138Y-138837985D01*
X115057519Y-138983757D01*
X115088300Y-139138507D01*
X115088300Y-139296293D01*
X115057519Y-139451043D01*
X114997138Y-139596815D01*
X114909476Y-139728011D01*
X114797911Y-139839576D01*
X114666715Y-139927238D01*
X114520943Y-139987619D01*
X114366193Y-140018400D01*
X114208407Y-140018400D01*
X114053657Y-139987619D01*
X113907885Y-139927238D01*
X113776689Y-139839576D01*
X113665124Y-139728011D01*
X113577462Y-139596815D01*
X113517081Y-139451043D01*
X113486300Y-139296293D01*
X113486300Y-139138507D01*
X113517081Y-138983757D01*
X113577462Y-138837985D01*
X113665124Y-138706789D01*
X113776689Y-138595224D01*
X113907885Y-138507562D01*
X114053657Y-138447181D01*
X114208407Y-138416400D01*
X114366193Y-138416400D01*
X114520943Y-138447181D01*
X114520943Y-138447181D01*
G37*
G36*
X112548300Y-140018400D02*
X110946300Y-140018400D01*
X110946300Y-138416400D01*
X112548300Y-138416400D01*
X112548300Y-140018400D01*
X112548300Y-140018400D01*
G37*
G36*
X117060943Y-138447181D02*
X117206715Y-138507562D01*
X117337911Y-138595224D01*
X117449476Y-138706789D01*
X117537138Y-138837985D01*
X117597519Y-138983757D01*
X117628300Y-139138507D01*
X117628300Y-139296293D01*
X117597519Y-139451043D01*
X117537138Y-139596815D01*
X117449476Y-139728011D01*
X117337911Y-139839576D01*
X117206715Y-139927238D01*
X117060943Y-139987619D01*
X116906193Y-140018400D01*
X116748407Y-140018400D01*
X116593657Y-139987619D01*
X116447885Y-139927238D01*
X116316689Y-139839576D01*
X116205124Y-139728011D01*
X116117462Y-139596815D01*
X116057081Y-139451043D01*
X116026300Y-139296293D01*
X116026300Y-139138507D01*
X116057081Y-138983757D01*
X116117462Y-138837985D01*
X116205124Y-138706789D01*
X116316689Y-138595224D01*
X116447885Y-138507562D01*
X116593657Y-138447181D01*
X116748407Y-138416400D01*
X116906193Y-138416400D01*
X117060943Y-138447181D01*
X117060943Y-138447181D01*
G37*
G36*
X128503643Y-138345581D02*
X128649415Y-138405962D01*
X128780611Y-138493624D01*
X128892176Y-138605189D01*
X128979838Y-138736385D01*
X129040219Y-138882157D01*
X129071000Y-139036907D01*
X129071000Y-139194693D01*
X129040219Y-139349443D01*
X128979838Y-139495215D01*
X128892176Y-139626411D01*
X128780611Y-139737976D01*
X128649415Y-139825638D01*
X128503643Y-139886019D01*
X128348893Y-139916800D01*
X128191107Y-139916800D01*
X128036357Y-139886019D01*
X127890585Y-139825638D01*
X127759389Y-139737976D01*
X127647824Y-139626411D01*
X127560162Y-139495215D01*
X127499781Y-139349443D01*
X127469000Y-139194693D01*
X127469000Y-139036907D01*
X127499781Y-138882157D01*
X127560162Y-138736385D01*
X127647824Y-138605189D01*
X127759389Y-138493624D01*
X127890585Y-138405962D01*
X128036357Y-138345581D01*
X128191107Y-138314800D01*
X128348893Y-138314800D01*
X128503643Y-138345581D01*
X128503643Y-138345581D01*
G37*
G36*
X123991000Y-139916800D02*
X122389000Y-139916800D01*
X122389000Y-138314800D01*
X123991000Y-138314800D01*
X123991000Y-139916800D01*
X123991000Y-139916800D01*
G37*
G36*
X125963643Y-138345581D02*
X126109415Y-138405962D01*
X126240611Y-138493624D01*
X126352176Y-138605189D01*
X126439838Y-138736385D01*
X126500219Y-138882157D01*
X126531000Y-139036907D01*
X126531000Y-139194693D01*
X126500219Y-139349443D01*
X126439838Y-139495215D01*
X126352176Y-139626411D01*
X126240611Y-139737976D01*
X126109415Y-139825638D01*
X125963643Y-139886019D01*
X125808893Y-139916800D01*
X125651107Y-139916800D01*
X125496357Y-139886019D01*
X125350585Y-139825638D01*
X125219389Y-139737976D01*
X125107824Y-139626411D01*
X125020162Y-139495215D01*
X124959781Y-139349443D01*
X124929000Y-139194693D01*
X124929000Y-139036907D01*
X124959781Y-138882157D01*
X125020162Y-138736385D01*
X125107824Y-138605189D01*
X125219389Y-138493624D01*
X125350585Y-138405962D01*
X125496357Y-138345581D01*
X125651107Y-138314800D01*
X125808893Y-138314800D01*
X125963643Y-138345581D01*
X125963643Y-138345581D01*
G37*
G36*
X123435239Y-133387101D02*
X123671053Y-133458634D01*
X123888381Y-133574799D01*
X124078871Y-133731129D01*
X124235201Y-133921619D01*
X124351366Y-134138947D01*
X124422899Y-134374761D01*
X124447053Y-134620000D01*
X124422899Y-134865239D01*
X124351366Y-135101053D01*
X124235201Y-135318381D01*
X124078871Y-135508871D01*
X123888381Y-135665201D01*
X123671053Y-135781366D01*
X123435239Y-135852899D01*
X123251457Y-135871000D01*
X123128543Y-135871000D01*
X122944761Y-135852899D01*
X122708947Y-135781366D01*
X122491619Y-135665201D01*
X122301129Y-135508871D01*
X122144799Y-135318381D01*
X122028634Y-135101053D01*
X121957101Y-134865239D01*
X121932947Y-134620000D01*
X121957101Y-134374761D01*
X122028634Y-134138947D01*
X122144799Y-133921619D01*
X122301129Y-133731129D01*
X122491619Y-133574799D01*
X122708947Y-133458634D01*
X122944761Y-133387101D01*
X123128543Y-133369000D01*
X123251457Y-133369000D01*
X123435239Y-133387101D01*
X123435239Y-133387101D01*
G37*
G36*
X100575239Y-133387101D02*
X100811053Y-133458634D01*
X101028381Y-133574799D01*
X101218871Y-133731129D01*
X101375201Y-133921619D01*
X101491366Y-134138947D01*
X101562899Y-134374761D01*
X101587053Y-134620000D01*
X101562899Y-134865239D01*
X101491366Y-135101053D01*
X101375201Y-135318381D01*
X101218871Y-135508871D01*
X101028381Y-135665201D01*
X100811053Y-135781366D01*
X100575239Y-135852899D01*
X100391457Y-135871000D01*
X100268543Y-135871000D01*
X100084761Y-135852899D01*
X99848947Y-135781366D01*
X99631619Y-135665201D01*
X99441129Y-135508871D01*
X99284799Y-135318381D01*
X99168634Y-135101053D01*
X99097101Y-134865239D01*
X99072947Y-134620000D01*
X99097101Y-134374761D01*
X99168634Y-134138947D01*
X99284799Y-133921619D01*
X99441129Y-133731129D01*
X99631619Y-133574799D01*
X99848947Y-133458634D01*
X100084761Y-133387101D01*
X100268543Y-133369000D01*
X100391457Y-133369000D01*
X100575239Y-133387101D01*
X100575239Y-133387101D01*
G37*
G36*
X117720239Y-133387101D02*
X117956053Y-133458634D01*
X118173381Y-133574799D01*
X118363871Y-133731129D01*
X118520201Y-133921619D01*
X118636366Y-134138947D01*
X118707899Y-134374761D01*
X118732053Y-134620000D01*
X118707899Y-134865239D01*
X118636366Y-135101053D01*
X118520201Y-135318381D01*
X118363871Y-135508871D01*
X118173381Y-135665201D01*
X117956053Y-135781366D01*
X117720239Y-135852899D01*
X117536457Y-135871000D01*
X117413543Y-135871000D01*
X117229761Y-135852899D01*
X116993947Y-135781366D01*
X116776619Y-135665201D01*
X116586129Y-135508871D01*
X116429799Y-135318381D01*
X116313634Y-135101053D01*
X116242101Y-134865239D01*
X116217947Y-134620000D01*
X116242101Y-134374761D01*
X116313634Y-134138947D01*
X116429799Y-133921619D01*
X116586129Y-133731129D01*
X116776619Y-133574799D01*
X116993947Y-133458634D01*
X117229761Y-133387101D01*
X117413543Y-133369000D01*
X117536457Y-133369000D01*
X117720239Y-133387101D01*
X117720239Y-133387101D01*
G37*
G36*
X112005239Y-133387101D02*
X112241053Y-133458634D01*
X112458381Y-133574799D01*
X112648871Y-133731129D01*
X112805201Y-133921619D01*
X112921366Y-134138947D01*
X112992899Y-134374761D01*
X113017053Y-134620000D01*
X112992899Y-134865239D01*
X112921366Y-135101053D01*
X112805201Y-135318381D01*
X112648871Y-135508871D01*
X112458381Y-135665201D01*
X112241053Y-135781366D01*
X112005239Y-135852899D01*
X111821457Y-135871000D01*
X111698543Y-135871000D01*
X111514761Y-135852899D01*
X111278947Y-135781366D01*
X111061619Y-135665201D01*
X110871129Y-135508871D01*
X110714799Y-135318381D01*
X110598634Y-135101053D01*
X110527101Y-134865239D01*
X110502947Y-134620000D01*
X110527101Y-134374761D01*
X110598634Y-134138947D01*
X110714799Y-133921619D01*
X110871129Y-133731129D01*
X111061619Y-133574799D01*
X111278947Y-133458634D01*
X111514761Y-133387101D01*
X111698543Y-133369000D01*
X111821457Y-133369000D01*
X112005239Y-133387101D01*
X112005239Y-133387101D01*
G37*
G36*
X129150239Y-133387101D02*
X129386053Y-133458634D01*
X129603381Y-133574799D01*
X129793871Y-133731129D01*
X129950201Y-133921619D01*
X130066366Y-134138947D01*
X130137899Y-134374761D01*
X130162053Y-134620000D01*
X130137899Y-134865239D01*
X130066366Y-135101053D01*
X129950201Y-135318381D01*
X129793871Y-135508871D01*
X129603381Y-135665201D01*
X129386053Y-135781366D01*
X129150239Y-135852899D01*
X128966457Y-135871000D01*
X128843543Y-135871000D01*
X128659761Y-135852899D01*
X128423947Y-135781366D01*
X128206619Y-135665201D01*
X128016129Y-135508871D01*
X127859799Y-135318381D01*
X127743634Y-135101053D01*
X127672101Y-134865239D01*
X127647947Y-134620000D01*
X127672101Y-134374761D01*
X127743634Y-134138947D01*
X127859799Y-133921619D01*
X128016129Y-133731129D01*
X128206619Y-133574799D01*
X128423947Y-133458634D01*
X128659761Y-133387101D01*
X128843543Y-133369000D01*
X128966457Y-133369000D01*
X129150239Y-133387101D01*
X129150239Y-133387101D01*
G37*
G36*
X106290239Y-133387101D02*
X106526053Y-133458634D01*
X106743381Y-133574799D01*
X106933871Y-133731129D01*
X107090201Y-133921619D01*
X107206366Y-134138947D01*
X107277899Y-134374761D01*
X107302053Y-134620000D01*
X107277899Y-134865239D01*
X107206366Y-135101053D01*
X107090201Y-135318381D01*
X106933871Y-135508871D01*
X106743381Y-135665201D01*
X106526053Y-135781366D01*
X106290239Y-135852899D01*
X106106457Y-135871000D01*
X105983543Y-135871000D01*
X105799761Y-135852899D01*
X105563947Y-135781366D01*
X105346619Y-135665201D01*
X105156129Y-135508871D01*
X104999799Y-135318381D01*
X104883634Y-135101053D01*
X104812101Y-134865239D01*
X104787947Y-134620000D01*
X104812101Y-134374761D01*
X104883634Y-134138947D01*
X104999799Y-133921619D01*
X105156129Y-133731129D01*
X105346619Y-133574799D01*
X105563947Y-133458634D01*
X105799761Y-133387101D01*
X105983543Y-133369000D01*
X106106457Y-133369000D01*
X106290239Y-133387101D01*
X106290239Y-133387101D01*
G37*
G36*
X166875446Y-122979025D02*
X167046515Y-123049885D01*
X167200474Y-123152757D01*
X167331403Y-123283686D01*
X167434275Y-123437645D01*
X167505135Y-123608714D01*
X167541258Y-123790319D01*
X167541258Y-123975485D01*
X167505135Y-124157090D01*
X167434275Y-124328159D01*
X167331403Y-124482118D01*
X167200474Y-124613047D01*
X167046515Y-124715919D01*
X166875446Y-124786779D01*
X166693841Y-124822902D01*
X166508675Y-124822902D01*
X166327070Y-124786779D01*
X166156001Y-124715919D01*
X166002042Y-124613047D01*
X165871113Y-124482118D01*
X165768241Y-124328159D01*
X165697381Y-124157090D01*
X165661258Y-123975485D01*
X165661258Y-123790319D01*
X165697381Y-123608714D01*
X165768241Y-123437645D01*
X165871113Y-123283686D01*
X166002042Y-123152757D01*
X166156001Y-123049885D01*
X166327070Y-122979025D01*
X166508675Y-122942902D01*
X166693841Y-122942902D01*
X166875446Y-122979025D01*
X166875446Y-122979025D01*
G37*
G36*
X169415446Y-122979025D02*
X169586515Y-123049885D01*
X169740474Y-123152757D01*
X169871403Y-123283686D01*
X169974275Y-123437645D01*
X170045135Y-123608714D01*
X170081258Y-123790319D01*
X170081258Y-123975485D01*
X170045135Y-124157090D01*
X169974275Y-124328159D01*
X169871403Y-124482118D01*
X169740474Y-124613047D01*
X169586515Y-124715919D01*
X169415446Y-124786779D01*
X169233841Y-124822902D01*
X169048675Y-124822902D01*
X168867070Y-124786779D01*
X168696001Y-124715919D01*
X168542042Y-124613047D01*
X168411113Y-124482118D01*
X168308241Y-124328159D01*
X168237381Y-124157090D01*
X168201258Y-123975485D01*
X168201258Y-123790319D01*
X168237381Y-123608714D01*
X168308241Y-123437645D01*
X168411113Y-123283686D01*
X168542042Y-123152757D01*
X168696001Y-123049885D01*
X168867070Y-122979025D01*
X169048675Y-122942902D01*
X169233841Y-122942902D01*
X169415446Y-122979025D01*
X169415446Y-122979025D01*
G37*
G36*
X163794260Y-124699902D02*
X161992260Y-124699902D01*
X161992260Y-122897902D01*
X163794260Y-122897902D01*
X163794260Y-124699902D01*
X163794260Y-124699902D01*
G37*
G36*
X160163259Y-124699902D02*
X158361259Y-124699902D01*
X158361259Y-122897902D01*
X160163259Y-122897902D01*
X160163259Y-124699902D01*
X160163259Y-124699902D01*
G37*
G36*
X111943636Y-118141019D02*
X112124903Y-118177075D01*
X112352571Y-118271378D01*
X112556542Y-118407668D01*
X112557469Y-118408287D01*
X112731713Y-118582531D01*
X112731715Y-118582534D01*
X112868622Y-118787429D01*
X112962925Y-119015097D01*
X113011000Y-119256787D01*
X113011000Y-119503213D01*
X112962925Y-119744903D01*
X112868622Y-119972571D01*
X112732332Y-120176542D01*
X112731713Y-120177469D01*
X112557469Y-120351713D01*
X112557466Y-120351715D01*
X112352571Y-120488622D01*
X112124903Y-120582925D01*
X111943636Y-120618981D01*
X111883214Y-120631000D01*
X111636786Y-120631000D01*
X111576364Y-120618981D01*
X111395097Y-120582925D01*
X111167429Y-120488622D01*
X110962534Y-120351715D01*
X110962531Y-120351713D01*
X110788287Y-120177469D01*
X110787668Y-120176542D01*
X110651378Y-119972571D01*
X110557075Y-119744903D01*
X110509000Y-119503213D01*
X110509000Y-119256787D01*
X110557075Y-119015097D01*
X110651378Y-118787429D01*
X110788285Y-118582534D01*
X110788287Y-118582531D01*
X110962531Y-118408287D01*
X110963458Y-118407668D01*
X111167429Y-118271378D01*
X111395097Y-118177075D01*
X111576364Y-118141019D01*
X111636786Y-118129000D01*
X111883214Y-118129000D01*
X111943636Y-118141019D01*
X111943636Y-118141019D01*
G37*
G36*
X117658636Y-118141019D02*
X117839903Y-118177075D01*
X118067571Y-118271378D01*
X118271542Y-118407668D01*
X118272469Y-118408287D01*
X118446713Y-118582531D01*
X118446715Y-118582534D01*
X118583622Y-118787429D01*
X118677925Y-119015097D01*
X118726000Y-119256787D01*
X118726000Y-119503213D01*
X118677925Y-119744903D01*
X118583622Y-119972571D01*
X118447332Y-120176542D01*
X118446713Y-120177469D01*
X118272469Y-120351713D01*
X118272466Y-120351715D01*
X118067571Y-120488622D01*
X117839903Y-120582925D01*
X117658636Y-120618981D01*
X117598214Y-120631000D01*
X117351786Y-120631000D01*
X117291364Y-120618981D01*
X117110097Y-120582925D01*
X116882429Y-120488622D01*
X116677534Y-120351715D01*
X116677531Y-120351713D01*
X116503287Y-120177469D01*
X116502668Y-120176542D01*
X116366378Y-119972571D01*
X116272075Y-119744903D01*
X116224000Y-119503213D01*
X116224000Y-119256787D01*
X116272075Y-119015097D01*
X116366378Y-118787429D01*
X116503285Y-118582534D01*
X116503287Y-118582531D01*
X116677531Y-118408287D01*
X116678458Y-118407668D01*
X116882429Y-118271378D01*
X117110097Y-118177075D01*
X117291364Y-118141019D01*
X117351786Y-118129000D01*
X117598214Y-118129000D01*
X117658636Y-118141019D01*
X117658636Y-118141019D01*
G37*
G36*
X106228636Y-118141019D02*
X106409903Y-118177075D01*
X106637571Y-118271378D01*
X106841542Y-118407668D01*
X106842469Y-118408287D01*
X107016713Y-118582531D01*
X107016715Y-118582534D01*
X107153622Y-118787429D01*
X107247925Y-119015097D01*
X107296000Y-119256787D01*
X107296000Y-119503213D01*
X107247925Y-119744903D01*
X107153622Y-119972571D01*
X107017332Y-120176542D01*
X107016713Y-120177469D01*
X106842469Y-120351713D01*
X106842466Y-120351715D01*
X106637571Y-120488622D01*
X106409903Y-120582925D01*
X106228636Y-120618981D01*
X106168214Y-120631000D01*
X105921786Y-120631000D01*
X105861364Y-120618981D01*
X105680097Y-120582925D01*
X105452429Y-120488622D01*
X105247534Y-120351715D01*
X105247531Y-120351713D01*
X105073287Y-120177469D01*
X105072668Y-120176542D01*
X104936378Y-119972571D01*
X104842075Y-119744903D01*
X104794000Y-119503213D01*
X104794000Y-119256787D01*
X104842075Y-119015097D01*
X104936378Y-118787429D01*
X105073285Y-118582534D01*
X105073287Y-118582531D01*
X105247531Y-118408287D01*
X105248458Y-118407668D01*
X105452429Y-118271378D01*
X105680097Y-118177075D01*
X105861364Y-118141019D01*
X105921786Y-118129000D01*
X106168214Y-118129000D01*
X106228636Y-118141019D01*
X106228636Y-118141019D01*
G37*
G36*
X129088636Y-118141019D02*
X129269903Y-118177075D01*
X129497571Y-118271378D01*
X129701542Y-118407668D01*
X129702469Y-118408287D01*
X129876713Y-118582531D01*
X129876715Y-118582534D01*
X130013622Y-118787429D01*
X130107925Y-119015097D01*
X130156000Y-119256787D01*
X130156000Y-119503213D01*
X130107925Y-119744903D01*
X130013622Y-119972571D01*
X129877332Y-120176542D01*
X129876713Y-120177469D01*
X129702469Y-120351713D01*
X129702466Y-120351715D01*
X129497571Y-120488622D01*
X129269903Y-120582925D01*
X129088636Y-120618981D01*
X129028214Y-120631000D01*
X128781786Y-120631000D01*
X128721364Y-120618981D01*
X128540097Y-120582925D01*
X128312429Y-120488622D01*
X128107534Y-120351715D01*
X128107531Y-120351713D01*
X127933287Y-120177469D01*
X127932668Y-120176542D01*
X127796378Y-119972571D01*
X127702075Y-119744903D01*
X127654000Y-119503213D01*
X127654000Y-119256787D01*
X127702075Y-119015097D01*
X127796378Y-118787429D01*
X127933285Y-118582534D01*
X127933287Y-118582531D01*
X128107531Y-118408287D01*
X128108458Y-118407668D01*
X128312429Y-118271378D01*
X128540097Y-118177075D01*
X128721364Y-118141019D01*
X128781786Y-118129000D01*
X129028214Y-118129000D01*
X129088636Y-118141019D01*
X129088636Y-118141019D01*
G37*
G36*
X100513636Y-118141019D02*
X100694903Y-118177075D01*
X100922571Y-118271378D01*
X101126542Y-118407668D01*
X101127469Y-118408287D01*
X101301713Y-118582531D01*
X101301715Y-118582534D01*
X101438622Y-118787429D01*
X101532925Y-119015097D01*
X101581000Y-119256787D01*
X101581000Y-119503213D01*
X101532925Y-119744903D01*
X101438622Y-119972571D01*
X101302332Y-120176542D01*
X101301713Y-120177469D01*
X101127469Y-120351713D01*
X101127466Y-120351715D01*
X100922571Y-120488622D01*
X100694903Y-120582925D01*
X100513636Y-120618981D01*
X100453214Y-120631000D01*
X100206786Y-120631000D01*
X100146364Y-120618981D01*
X99965097Y-120582925D01*
X99737429Y-120488622D01*
X99532534Y-120351715D01*
X99532531Y-120351713D01*
X99358287Y-120177469D01*
X99357668Y-120176542D01*
X99221378Y-119972571D01*
X99127075Y-119744903D01*
X99079000Y-119503213D01*
X99079000Y-119256787D01*
X99127075Y-119015097D01*
X99221378Y-118787429D01*
X99358285Y-118582534D01*
X99358287Y-118582531D01*
X99532531Y-118408287D01*
X99533458Y-118407668D01*
X99737429Y-118271378D01*
X99965097Y-118177075D01*
X100146364Y-118141019D01*
X100206786Y-118129000D01*
X100453214Y-118129000D01*
X100513636Y-118141019D01*
X100513636Y-118141019D01*
G37*
G36*
X123373636Y-118141019D02*
X123554903Y-118177075D01*
X123782571Y-118271378D01*
X123986542Y-118407668D01*
X123987469Y-118408287D01*
X124161713Y-118582531D01*
X124161715Y-118582534D01*
X124298622Y-118787429D01*
X124392925Y-119015097D01*
X124441000Y-119256787D01*
X124441000Y-119503213D01*
X124392925Y-119744903D01*
X124298622Y-119972571D01*
X124162332Y-120176542D01*
X124161713Y-120177469D01*
X123987469Y-120351713D01*
X123987466Y-120351715D01*
X123782571Y-120488622D01*
X123554903Y-120582925D01*
X123373636Y-120618981D01*
X123313214Y-120631000D01*
X123066786Y-120631000D01*
X123006364Y-120618981D01*
X122825097Y-120582925D01*
X122597429Y-120488622D01*
X122392534Y-120351715D01*
X122392531Y-120351713D01*
X122218287Y-120177469D01*
X122217668Y-120176542D01*
X122081378Y-119972571D01*
X121987075Y-119744903D01*
X121939000Y-119503213D01*
X121939000Y-119256787D01*
X121987075Y-119015097D01*
X122081378Y-118787429D01*
X122218285Y-118582534D01*
X122218287Y-118582531D01*
X122392531Y-118408287D01*
X122393458Y-118407668D01*
X122597429Y-118271378D01*
X122825097Y-118177075D01*
X123006364Y-118141019D01*
X123066786Y-118129000D01*
X123313214Y-118129000D01*
X123373636Y-118141019D01*
X123373636Y-118141019D01*
G37*
G36*
X160163259Y-118248901D02*
X158361259Y-118248901D01*
X158361259Y-116446901D01*
X160163259Y-116446901D01*
X160163259Y-118248901D01*
X160163259Y-118248901D01*
G37*
G36*
X163719259Y-118248901D02*
X161917259Y-118248901D01*
X161917259Y-116446901D01*
X163719259Y-116446901D01*
X163719259Y-118248901D01*
X163719259Y-118248901D01*
G37*
G36*
X166875446Y-116279025D02*
X167046515Y-116349885D01*
X167200474Y-116452757D01*
X167331403Y-116583686D01*
X167434275Y-116737645D01*
X167505135Y-116908714D01*
X167541258Y-117090319D01*
X167541258Y-117275485D01*
X167505135Y-117457090D01*
X167434275Y-117628159D01*
X167331403Y-117782118D01*
X167200474Y-117913047D01*
X167046515Y-118015919D01*
X166875446Y-118086779D01*
X166693841Y-118122902D01*
X166508675Y-118122902D01*
X166327070Y-118086779D01*
X166156001Y-118015919D01*
X166002042Y-117913047D01*
X165871113Y-117782118D01*
X165768241Y-117628159D01*
X165697381Y-117457090D01*
X165661258Y-117275485D01*
X165661258Y-117090319D01*
X165697381Y-116908714D01*
X165768241Y-116737645D01*
X165871113Y-116583686D01*
X166002042Y-116452757D01*
X166156001Y-116349885D01*
X166327070Y-116279025D01*
X166508675Y-116242902D01*
X166693841Y-116242902D01*
X166875446Y-116279025D01*
X166875446Y-116279025D01*
G37*
G36*
X169415446Y-116279025D02*
X169586515Y-116349885D01*
X169740474Y-116452757D01*
X169871403Y-116583686D01*
X169974275Y-116737645D01*
X170045135Y-116908714D01*
X170081258Y-117090319D01*
X170081258Y-117275485D01*
X170045135Y-117457090D01*
X169974275Y-117628159D01*
X169871403Y-117782118D01*
X169740474Y-117913047D01*
X169586515Y-118015919D01*
X169415446Y-118086779D01*
X169233841Y-118122902D01*
X169048675Y-118122902D01*
X168867070Y-118086779D01*
X168696001Y-118015919D01*
X168542042Y-117913047D01*
X168411113Y-117782118D01*
X168308241Y-117628159D01*
X168237381Y-117457090D01*
X168201258Y-117275485D01*
X168201258Y-117090319D01*
X168237381Y-116908714D01*
X168308241Y-116737645D01*
X168411113Y-116583686D01*
X168542042Y-116452757D01*
X168696001Y-116349885D01*
X168867070Y-116279025D01*
X169048675Y-116242902D01*
X169233841Y-116242902D01*
X169415446Y-116279025D01*
X169415446Y-116279025D01*
G37*
G36*
X114661165Y-113759289D02*
X114852434Y-113838515D01*
X115024576Y-113953537D01*
X115170963Y-114099924D01*
X115285985Y-114272066D01*
X115365211Y-114463335D01*
X115405600Y-114666384D01*
X115405600Y-114873416D01*
X115365211Y-115076465D01*
X115285985Y-115267734D01*
X115170963Y-115439876D01*
X115024576Y-115586263D01*
X114852434Y-115701285D01*
X114661165Y-115780511D01*
X114458116Y-115820900D01*
X114251084Y-115820900D01*
X114048035Y-115780511D01*
X113856766Y-115701285D01*
X113684624Y-115586263D01*
X113538237Y-115439876D01*
X113423215Y-115267734D01*
X113343989Y-115076465D01*
X113303600Y-114873416D01*
X113303600Y-114666384D01*
X113343989Y-114463335D01*
X113423215Y-114272066D01*
X113538237Y-114099924D01*
X113684624Y-113953537D01*
X113856766Y-113838515D01*
X114048035Y-113759289D01*
X114251084Y-113718900D01*
X114458116Y-113718900D01*
X114661165Y-113759289D01*
X114661165Y-113759289D01*
G37*
G36*
X119661165Y-113759289D02*
X119852434Y-113838515D01*
X120024576Y-113953537D01*
X120170963Y-114099924D01*
X120285985Y-114272066D01*
X120365211Y-114463335D01*
X120405600Y-114666384D01*
X120405600Y-114873416D01*
X120365211Y-115076465D01*
X120285985Y-115267734D01*
X120170963Y-115439876D01*
X120024576Y-115586263D01*
X119852434Y-115701285D01*
X119661165Y-115780511D01*
X119458116Y-115820900D01*
X119251084Y-115820900D01*
X119048035Y-115780511D01*
X118856766Y-115701285D01*
X118684624Y-115586263D01*
X118538237Y-115439876D01*
X118423215Y-115267734D01*
X118343989Y-115076465D01*
X118303600Y-114873416D01*
X118303600Y-114666384D01*
X118343989Y-114463335D01*
X118423215Y-114272066D01*
X118538237Y-114099924D01*
X118684624Y-113953537D01*
X118856766Y-113838515D01*
X119048035Y-113759289D01*
X119251084Y-113718900D01*
X119458116Y-113718900D01*
X119661165Y-113759289D01*
X119661165Y-113759289D01*
G37*
G36*
X126773165Y-112235289D02*
X126964434Y-112314515D01*
X127136576Y-112429537D01*
X127282963Y-112575924D01*
X127397985Y-112748066D01*
X127477211Y-112939335D01*
X127517600Y-113142384D01*
X127517600Y-113349416D01*
X127477211Y-113552465D01*
X127397985Y-113743734D01*
X127282963Y-113915876D01*
X127136576Y-114062263D01*
X126964434Y-114177285D01*
X126773165Y-114256511D01*
X126570116Y-114296900D01*
X126363084Y-114296900D01*
X126160035Y-114256511D01*
X125968766Y-114177285D01*
X125796624Y-114062263D01*
X125650237Y-113915876D01*
X125535215Y-113743734D01*
X125455989Y-113552465D01*
X125415600Y-113349416D01*
X125415600Y-113142384D01*
X125455989Y-112939335D01*
X125535215Y-112748066D01*
X125650237Y-112575924D01*
X125796624Y-112429537D01*
X125968766Y-112314515D01*
X126160035Y-112235289D01*
X126363084Y-112194900D01*
X126570116Y-112194900D01*
X126773165Y-112235289D01*
X126773165Y-112235289D01*
G37*
G36*
X107977165Y-111901289D02*
X108168434Y-111980515D01*
X108340576Y-112095537D01*
X108486963Y-112241924D01*
X108601985Y-112414066D01*
X108681211Y-112605335D01*
X108721600Y-112808384D01*
X108721600Y-113015416D01*
X108681211Y-113218465D01*
X108601985Y-113409734D01*
X108486963Y-113581876D01*
X108340576Y-113728263D01*
X108168434Y-113843285D01*
X107977165Y-113922511D01*
X107774116Y-113962900D01*
X107567084Y-113962900D01*
X107364035Y-113922511D01*
X107172766Y-113843285D01*
X107000624Y-113728263D01*
X106854237Y-113581876D01*
X106739215Y-113409734D01*
X106659989Y-113218465D01*
X106619600Y-113015416D01*
X106619600Y-112808384D01*
X106659989Y-112605335D01*
X106739215Y-112414066D01*
X106854237Y-112241924D01*
X107000624Y-112095537D01*
X107172766Y-111980515D01*
X107364035Y-111901289D01*
X107567084Y-111860900D01*
X107774116Y-111860900D01*
X107977165Y-111901289D01*
X107977165Y-111901289D01*
G37*
G36*
X119446663Y-108078941D02*
X119592435Y-108139322D01*
X119723631Y-108226984D01*
X119835196Y-108338549D01*
X119922858Y-108469745D01*
X119983239Y-108615517D01*
X120014020Y-108770267D01*
X120014020Y-108928053D01*
X119983239Y-109082803D01*
X119922858Y-109228575D01*
X119835196Y-109359771D01*
X119723631Y-109471336D01*
X119592435Y-109558998D01*
X119446663Y-109619379D01*
X119291913Y-109650160D01*
X119134127Y-109650160D01*
X118979377Y-109619379D01*
X118833605Y-109558998D01*
X118702409Y-109471336D01*
X118590844Y-109359771D01*
X118503182Y-109228575D01*
X118442801Y-109082803D01*
X118412020Y-108928053D01*
X118412020Y-108770267D01*
X118442801Y-108615517D01*
X118503182Y-108469745D01*
X118590844Y-108338549D01*
X118702409Y-108226984D01*
X118833605Y-108139322D01*
X118979377Y-108078941D01*
X119134127Y-108048160D01*
X119291913Y-108048160D01*
X119446663Y-108078941D01*
X119446663Y-108078941D01*
G37*
G36*
X114566663Y-108078941D02*
X114712435Y-108139322D01*
X114843631Y-108226984D01*
X114955196Y-108338549D01*
X115042858Y-108469745D01*
X115103239Y-108615517D01*
X115134020Y-108770267D01*
X115134020Y-108928053D01*
X115103239Y-109082803D01*
X115042858Y-109228575D01*
X114955196Y-109359771D01*
X114843631Y-109471336D01*
X114712435Y-109558998D01*
X114566663Y-109619379D01*
X114411913Y-109650160D01*
X114254127Y-109650160D01*
X114099377Y-109619379D01*
X113953605Y-109558998D01*
X113822409Y-109471336D01*
X113710844Y-109359771D01*
X113623182Y-109228575D01*
X113562801Y-109082803D01*
X113532020Y-108928053D01*
X113532020Y-108770267D01*
X113562801Y-108615517D01*
X113623182Y-108469745D01*
X113710844Y-108338549D01*
X113822409Y-108226984D01*
X113953605Y-108139322D01*
X114099377Y-108078941D01*
X114254127Y-108048160D01*
X114411913Y-108048160D01*
X114566663Y-108078941D01*
X114566663Y-108078941D01*
G37*
G36*
X126773165Y-107235289D02*
X126964434Y-107314515D01*
X127136576Y-107429537D01*
X127282963Y-107575924D01*
X127397985Y-107748066D01*
X127477211Y-107939335D01*
X127517600Y-108142384D01*
X127517600Y-108349416D01*
X127477211Y-108552465D01*
X127397985Y-108743734D01*
X127282963Y-108915876D01*
X127136576Y-109062263D01*
X126964434Y-109177285D01*
X126773165Y-109256511D01*
X126570116Y-109296900D01*
X126363084Y-109296900D01*
X126160035Y-109256511D01*
X125968766Y-109177285D01*
X125796624Y-109062263D01*
X125650237Y-108915876D01*
X125535215Y-108743734D01*
X125455989Y-108552465D01*
X125415600Y-108349416D01*
X125415600Y-108142384D01*
X125455989Y-107939335D01*
X125535215Y-107748066D01*
X125650237Y-107575924D01*
X125796624Y-107429537D01*
X125968766Y-107314515D01*
X126160035Y-107235289D01*
X126363084Y-107194900D01*
X126570116Y-107194900D01*
X126773165Y-107235289D01*
X126773165Y-107235289D01*
G37*
G36*
X107977165Y-106901289D02*
X108168434Y-106980515D01*
X108340576Y-107095537D01*
X108486963Y-107241924D01*
X108601985Y-107414066D01*
X108681211Y-107605335D01*
X108721600Y-107808384D01*
X108721600Y-108015416D01*
X108681211Y-108218465D01*
X108601985Y-108409734D01*
X108486963Y-108581876D01*
X108340576Y-108728263D01*
X108168434Y-108843285D01*
X107977165Y-108922511D01*
X107774116Y-108962900D01*
X107567084Y-108962900D01*
X107364035Y-108922511D01*
X107172766Y-108843285D01*
X107000624Y-108728263D01*
X106854237Y-108581876D01*
X106739215Y-108409734D01*
X106659989Y-108218465D01*
X106619600Y-108015416D01*
X106619600Y-107808384D01*
X106659989Y-107605335D01*
X106739215Y-107414066D01*
X106854237Y-107241924D01*
X107000624Y-107095537D01*
X107172766Y-106980515D01*
X107364035Y-106901289D01*
X107567084Y-106860900D01*
X107774116Y-106860900D01*
X107977165Y-106901289D01*
X107977165Y-106901289D01*
G37*
G36*
X100598420Y-101974213D02*
X100598423Y-101974214D01*
X100598424Y-101974214D01*
X100758838Y-102022875D01*
X100758840Y-102022876D01*
X100758843Y-102022877D01*
X100906678Y-102101895D01*
X101036259Y-102208241D01*
X101142605Y-102337822D01*
X101221623Y-102485656D01*
X101270287Y-102646079D01*
X101282600Y-102771096D01*
X101282600Y-103654703D01*
X101270287Y-103779720D01*
X101270286Y-103779722D01*
X101270286Y-103779725D01*
X101221625Y-103940139D01*
X101221623Y-103940144D01*
X101142605Y-104087978D01*
X101036259Y-104217559D01*
X100906678Y-104323905D01*
X100758844Y-104402923D01*
X100758841Y-104402924D01*
X100758839Y-104402925D01*
X100598425Y-104451586D01*
X100598424Y-104451586D01*
X100598421Y-104451587D01*
X100431600Y-104468017D01*
X100264780Y-104451587D01*
X100264777Y-104451586D01*
X100264776Y-104451586D01*
X100104362Y-104402925D01*
X100104360Y-104402924D01*
X100104357Y-104402923D01*
X99956523Y-104323905D01*
X99826942Y-104217559D01*
X99720596Y-104087978D01*
X99641578Y-103940144D01*
X99592914Y-103779721D01*
X99580600Y-103654703D01*
X99580600Y-102771097D01*
X99592913Y-102646080D01*
X99592914Y-102646076D01*
X99641575Y-102485662D01*
X99641576Y-102485660D01*
X99641577Y-102485657D01*
X99720595Y-102337822D01*
X99826941Y-102208241D01*
X99956522Y-102101895D01*
X100104356Y-102022877D01*
X100104359Y-102022876D01*
X100104361Y-102022875D01*
X100264775Y-101974214D01*
X100264776Y-101974214D01*
X100264779Y-101974213D01*
X100431600Y-101957783D01*
X100598420Y-101974213D01*
X100598420Y-101974213D01*
G37*
G36*
X128538420Y-101974213D02*
X128538423Y-101974214D01*
X128538424Y-101974214D01*
X128698838Y-102022875D01*
X128698840Y-102022876D01*
X128698843Y-102022877D01*
X128846678Y-102101895D01*
X128976259Y-102208241D01*
X129082605Y-102337822D01*
X129161623Y-102485656D01*
X129210287Y-102646079D01*
X129222600Y-102771096D01*
X129222600Y-103654703D01*
X129210287Y-103779720D01*
X129210286Y-103779722D01*
X129210286Y-103779725D01*
X129161625Y-103940139D01*
X129161623Y-103940144D01*
X129082605Y-104087978D01*
X128976259Y-104217559D01*
X128846678Y-104323905D01*
X128698844Y-104402923D01*
X128698841Y-104402924D01*
X128698839Y-104402925D01*
X128538425Y-104451586D01*
X128538424Y-104451586D01*
X128538421Y-104451587D01*
X128371600Y-104468017D01*
X128204780Y-104451587D01*
X128204777Y-104451586D01*
X128204776Y-104451586D01*
X128044362Y-104402925D01*
X128044360Y-104402924D01*
X128044357Y-104402923D01*
X127896523Y-104323905D01*
X127766942Y-104217559D01*
X127660596Y-104087978D01*
X127581578Y-103940144D01*
X127532914Y-103779721D01*
X127520600Y-103654703D01*
X127520600Y-102771097D01*
X127532913Y-102646080D01*
X127532914Y-102646076D01*
X127581575Y-102485662D01*
X127581576Y-102485660D01*
X127581577Y-102485657D01*
X127660595Y-102337822D01*
X127766941Y-102208241D01*
X127896522Y-102101895D01*
X128044356Y-102022877D01*
X128044359Y-102022876D01*
X128044361Y-102022875D01*
X128204775Y-101974214D01*
X128204776Y-101974214D01*
X128204779Y-101974213D01*
X128371600Y-101957783D01*
X128538420Y-101974213D01*
X128538420Y-101974213D01*
G37*
G36*
X103138420Y-101974213D02*
X103138423Y-101974214D01*
X103138424Y-101974214D01*
X103298838Y-102022875D01*
X103298840Y-102022876D01*
X103298843Y-102022877D01*
X103446678Y-102101895D01*
X103576259Y-102208241D01*
X103682605Y-102337822D01*
X103761623Y-102485656D01*
X103810287Y-102646079D01*
X103822600Y-102771096D01*
X103822600Y-103654703D01*
X103810287Y-103779720D01*
X103810286Y-103779722D01*
X103810286Y-103779725D01*
X103761625Y-103940139D01*
X103761623Y-103940144D01*
X103682605Y-104087978D01*
X103576259Y-104217559D01*
X103446678Y-104323905D01*
X103298844Y-104402923D01*
X103298841Y-104402924D01*
X103298839Y-104402925D01*
X103138425Y-104451586D01*
X103138424Y-104451586D01*
X103138421Y-104451587D01*
X102971600Y-104468017D01*
X102804780Y-104451587D01*
X102804777Y-104451586D01*
X102804776Y-104451586D01*
X102644362Y-104402925D01*
X102644360Y-104402924D01*
X102644357Y-104402923D01*
X102496523Y-104323905D01*
X102366942Y-104217559D01*
X102260596Y-104087978D01*
X102181578Y-103940144D01*
X102132914Y-103779721D01*
X102120600Y-103654703D01*
X102120600Y-102771097D01*
X102132913Y-102646080D01*
X102132914Y-102646076D01*
X102181575Y-102485662D01*
X102181576Y-102485660D01*
X102181577Y-102485657D01*
X102260595Y-102337822D01*
X102366941Y-102208241D01*
X102496522Y-102101895D01*
X102644356Y-102022877D01*
X102644359Y-102022876D01*
X102644361Y-102022875D01*
X102804775Y-101974214D01*
X102804776Y-101974214D01*
X102804779Y-101974213D01*
X102971600Y-101957783D01*
X103138420Y-101974213D01*
X103138420Y-101974213D01*
G37*
G36*
X125998420Y-101974213D02*
X125998423Y-101974214D01*
X125998424Y-101974214D01*
X126158838Y-102022875D01*
X126158840Y-102022876D01*
X126158843Y-102022877D01*
X126306678Y-102101895D01*
X126436259Y-102208241D01*
X126542605Y-102337822D01*
X126621623Y-102485656D01*
X126670287Y-102646079D01*
X126682600Y-102771096D01*
X126682600Y-103654703D01*
X126670287Y-103779720D01*
X126670286Y-103779722D01*
X126670286Y-103779725D01*
X126621625Y-103940139D01*
X126621623Y-103940144D01*
X126542605Y-104087978D01*
X126436259Y-104217559D01*
X126306678Y-104323905D01*
X126158844Y-104402923D01*
X126158841Y-104402924D01*
X126158839Y-104402925D01*
X125998425Y-104451586D01*
X125998424Y-104451586D01*
X125998421Y-104451587D01*
X125831600Y-104468017D01*
X125664780Y-104451587D01*
X125664777Y-104451586D01*
X125664776Y-104451586D01*
X125504362Y-104402925D01*
X125504360Y-104402924D01*
X125504357Y-104402923D01*
X125356523Y-104323905D01*
X125226942Y-104217559D01*
X125120596Y-104087978D01*
X125041578Y-103940144D01*
X124992914Y-103779721D01*
X124980600Y-103654703D01*
X124980600Y-102771097D01*
X124992913Y-102646080D01*
X124992914Y-102646076D01*
X125041575Y-102485662D01*
X125041576Y-102485660D01*
X125041577Y-102485657D01*
X125120595Y-102337822D01*
X125226941Y-102208241D01*
X125356522Y-102101895D01*
X125504356Y-102022877D01*
X125504359Y-102022876D01*
X125504361Y-102022875D01*
X125664775Y-101974214D01*
X125664776Y-101974214D01*
X125664779Y-101974213D01*
X125831600Y-101957783D01*
X125998420Y-101974213D01*
X125998420Y-101974213D01*
G37*
G36*
X105678420Y-101974213D02*
X105678423Y-101974214D01*
X105678424Y-101974214D01*
X105838838Y-102022875D01*
X105838840Y-102022876D01*
X105838843Y-102022877D01*
X105986678Y-102101895D01*
X106116259Y-102208241D01*
X106222605Y-102337822D01*
X106301623Y-102485656D01*
X106350287Y-102646079D01*
X106362600Y-102771096D01*
X106362600Y-103654703D01*
X106350287Y-103779720D01*
X106350286Y-103779722D01*
X106350286Y-103779725D01*
X106301625Y-103940139D01*
X106301623Y-103940144D01*
X106222605Y-104087978D01*
X106116259Y-104217559D01*
X105986678Y-104323905D01*
X105838844Y-104402923D01*
X105838841Y-104402924D01*
X105838839Y-104402925D01*
X105678425Y-104451586D01*
X105678424Y-104451586D01*
X105678421Y-104451587D01*
X105511600Y-104468017D01*
X105344780Y-104451587D01*
X105344777Y-104451586D01*
X105344776Y-104451586D01*
X105184362Y-104402925D01*
X105184360Y-104402924D01*
X105184357Y-104402923D01*
X105036523Y-104323905D01*
X104906942Y-104217559D01*
X104800596Y-104087978D01*
X104721578Y-103940144D01*
X104672914Y-103779721D01*
X104660600Y-103654703D01*
X104660600Y-102771097D01*
X104672913Y-102646080D01*
X104672914Y-102646076D01*
X104721575Y-102485662D01*
X104721576Y-102485660D01*
X104721577Y-102485657D01*
X104800595Y-102337822D01*
X104906941Y-102208241D01*
X105036522Y-102101895D01*
X105184356Y-102022877D01*
X105184359Y-102022876D01*
X105184361Y-102022875D01*
X105344775Y-101974214D01*
X105344776Y-101974214D01*
X105344779Y-101974213D01*
X105511600Y-101957783D01*
X105678420Y-101974213D01*
X105678420Y-101974213D01*
G37*
G36*
X120918420Y-101974213D02*
X120918423Y-101974214D01*
X120918424Y-101974214D01*
X121078838Y-102022875D01*
X121078840Y-102022876D01*
X121078843Y-102022877D01*
X121226678Y-102101895D01*
X121356259Y-102208241D01*
X121462605Y-102337822D01*
X121541623Y-102485656D01*
X121590287Y-102646079D01*
X121602600Y-102771096D01*
X121602600Y-103654703D01*
X121590287Y-103779720D01*
X121590286Y-103779722D01*
X121590286Y-103779725D01*
X121541625Y-103940139D01*
X121541623Y-103940144D01*
X121462605Y-104087978D01*
X121356259Y-104217559D01*
X121226678Y-104323905D01*
X121078844Y-104402923D01*
X121078841Y-104402924D01*
X121078839Y-104402925D01*
X120918425Y-104451586D01*
X120918424Y-104451586D01*
X120918421Y-104451587D01*
X120751600Y-104468017D01*
X120584780Y-104451587D01*
X120584777Y-104451586D01*
X120584776Y-104451586D01*
X120424362Y-104402925D01*
X120424360Y-104402924D01*
X120424357Y-104402923D01*
X120276523Y-104323905D01*
X120146942Y-104217559D01*
X120040596Y-104087978D01*
X119961578Y-103940144D01*
X119912914Y-103779721D01*
X119900600Y-103654703D01*
X119900600Y-102771097D01*
X119912913Y-102646080D01*
X119912914Y-102646076D01*
X119961575Y-102485662D01*
X119961576Y-102485660D01*
X119961577Y-102485657D01*
X120040595Y-102337822D01*
X120146941Y-102208241D01*
X120276522Y-102101895D01*
X120424356Y-102022877D01*
X120424359Y-102022876D01*
X120424361Y-102022875D01*
X120584775Y-101974214D01*
X120584776Y-101974214D01*
X120584779Y-101974213D01*
X120751600Y-101957783D01*
X120918420Y-101974213D01*
X120918420Y-101974213D01*
G37*
G36*
X123458420Y-101974213D02*
X123458423Y-101974214D01*
X123458424Y-101974214D01*
X123618838Y-102022875D01*
X123618840Y-102022876D01*
X123618843Y-102022877D01*
X123766678Y-102101895D01*
X123896259Y-102208241D01*
X124002605Y-102337822D01*
X124081623Y-102485656D01*
X124130287Y-102646079D01*
X124142600Y-102771096D01*
X124142600Y-103654703D01*
X124130287Y-103779720D01*
X124130286Y-103779722D01*
X124130286Y-103779725D01*
X124081625Y-103940139D01*
X124081623Y-103940144D01*
X124002605Y-104087978D01*
X123896259Y-104217559D01*
X123766678Y-104323905D01*
X123618844Y-104402923D01*
X123618841Y-104402924D01*
X123618839Y-104402925D01*
X123458425Y-104451586D01*
X123458424Y-104451586D01*
X123458421Y-104451587D01*
X123291600Y-104468017D01*
X123124780Y-104451587D01*
X123124777Y-104451586D01*
X123124776Y-104451586D01*
X122964362Y-104402925D01*
X122964360Y-104402924D01*
X122964357Y-104402923D01*
X122816523Y-104323905D01*
X122686942Y-104217559D01*
X122580596Y-104087978D01*
X122501578Y-103940144D01*
X122452914Y-103779721D01*
X122440600Y-103654703D01*
X122440600Y-102771097D01*
X122452913Y-102646080D01*
X122452914Y-102646076D01*
X122501575Y-102485662D01*
X122501576Y-102485660D01*
X122501577Y-102485657D01*
X122580595Y-102337822D01*
X122686941Y-102208241D01*
X122816522Y-102101895D01*
X122964356Y-102022877D01*
X122964359Y-102022876D01*
X122964361Y-102022875D01*
X123124775Y-101974214D01*
X123124776Y-101974214D01*
X123124779Y-101974213D01*
X123291600Y-101957783D01*
X123458420Y-101974213D01*
X123458420Y-101974213D01*
G37*
G36*
X110758420Y-101974213D02*
X110758423Y-101974214D01*
X110758424Y-101974214D01*
X110918838Y-102022875D01*
X110918840Y-102022876D01*
X110918843Y-102022877D01*
X111066678Y-102101895D01*
X111196259Y-102208241D01*
X111302605Y-102337822D01*
X111381623Y-102485656D01*
X111430287Y-102646079D01*
X111442600Y-102771096D01*
X111442600Y-103654703D01*
X111430287Y-103779720D01*
X111430286Y-103779722D01*
X111430286Y-103779725D01*
X111381625Y-103940139D01*
X111381623Y-103940144D01*
X111302605Y-104087978D01*
X111196259Y-104217559D01*
X111066678Y-104323905D01*
X110918844Y-104402923D01*
X110918841Y-104402924D01*
X110918839Y-104402925D01*
X110758425Y-104451586D01*
X110758424Y-104451586D01*
X110758421Y-104451587D01*
X110591600Y-104468017D01*
X110424780Y-104451587D01*
X110424777Y-104451586D01*
X110424776Y-104451586D01*
X110264362Y-104402925D01*
X110264360Y-104402924D01*
X110264357Y-104402923D01*
X110116523Y-104323905D01*
X109986942Y-104217559D01*
X109880596Y-104087978D01*
X109801578Y-103940144D01*
X109752914Y-103779721D01*
X109740600Y-103654703D01*
X109740600Y-102771097D01*
X109752913Y-102646080D01*
X109752914Y-102646076D01*
X109801575Y-102485662D01*
X109801576Y-102485660D01*
X109801577Y-102485657D01*
X109880595Y-102337822D01*
X109986941Y-102208241D01*
X110116522Y-102101895D01*
X110264356Y-102022877D01*
X110264359Y-102022876D01*
X110264361Y-102022875D01*
X110424775Y-101974214D01*
X110424776Y-101974214D01*
X110424779Y-101974213D01*
X110591600Y-101957783D01*
X110758420Y-101974213D01*
X110758420Y-101974213D01*
G37*
G36*
X118378420Y-101974213D02*
X118378423Y-101974214D01*
X118378424Y-101974214D01*
X118538838Y-102022875D01*
X118538840Y-102022876D01*
X118538843Y-102022877D01*
X118686678Y-102101895D01*
X118816259Y-102208241D01*
X118922605Y-102337822D01*
X119001623Y-102485656D01*
X119050287Y-102646079D01*
X119062600Y-102771096D01*
X119062600Y-103654703D01*
X119050287Y-103779720D01*
X119050286Y-103779722D01*
X119050286Y-103779725D01*
X119001625Y-103940139D01*
X119001623Y-103940144D01*
X118922605Y-104087978D01*
X118816259Y-104217559D01*
X118686678Y-104323905D01*
X118538844Y-104402923D01*
X118538841Y-104402924D01*
X118538839Y-104402925D01*
X118378425Y-104451586D01*
X118378424Y-104451586D01*
X118378421Y-104451587D01*
X118211600Y-104468017D01*
X118044780Y-104451587D01*
X118044777Y-104451586D01*
X118044776Y-104451586D01*
X117884362Y-104402925D01*
X117884360Y-104402924D01*
X117884357Y-104402923D01*
X117736523Y-104323905D01*
X117606942Y-104217559D01*
X117500596Y-104087978D01*
X117421578Y-103940144D01*
X117372914Y-103779721D01*
X117360600Y-103654703D01*
X117360600Y-102771097D01*
X117372913Y-102646080D01*
X117372914Y-102646076D01*
X117421575Y-102485662D01*
X117421576Y-102485660D01*
X117421577Y-102485657D01*
X117500595Y-102337822D01*
X117606941Y-102208241D01*
X117736522Y-102101895D01*
X117884356Y-102022877D01*
X117884359Y-102022876D01*
X117884361Y-102022875D01*
X118044775Y-101974214D01*
X118044776Y-101974214D01*
X118044779Y-101974213D01*
X118211600Y-101957783D01*
X118378420Y-101974213D01*
X118378420Y-101974213D01*
G37*
G36*
X113298420Y-101974213D02*
X113298423Y-101974214D01*
X113298424Y-101974214D01*
X113458838Y-102022875D01*
X113458840Y-102022876D01*
X113458843Y-102022877D01*
X113606678Y-102101895D01*
X113736259Y-102208241D01*
X113842605Y-102337822D01*
X113921623Y-102485656D01*
X113970287Y-102646079D01*
X113982600Y-102771096D01*
X113982600Y-103654703D01*
X113970287Y-103779720D01*
X113970286Y-103779722D01*
X113970286Y-103779725D01*
X113921625Y-103940139D01*
X113921623Y-103940144D01*
X113842605Y-104087978D01*
X113736259Y-104217559D01*
X113606678Y-104323905D01*
X113458844Y-104402923D01*
X113458841Y-104402924D01*
X113458839Y-104402925D01*
X113298425Y-104451586D01*
X113298424Y-104451586D01*
X113298421Y-104451587D01*
X113131600Y-104468017D01*
X112964780Y-104451587D01*
X112964777Y-104451586D01*
X112964776Y-104451586D01*
X112804362Y-104402925D01*
X112804360Y-104402924D01*
X112804357Y-104402923D01*
X112656523Y-104323905D01*
X112526942Y-104217559D01*
X112420596Y-104087978D01*
X112341578Y-103940144D01*
X112292914Y-103779721D01*
X112280600Y-103654703D01*
X112280600Y-102771097D01*
X112292913Y-102646080D01*
X112292914Y-102646076D01*
X112341575Y-102485662D01*
X112341576Y-102485660D01*
X112341577Y-102485657D01*
X112420595Y-102337822D01*
X112526941Y-102208241D01*
X112656522Y-102101895D01*
X112804356Y-102022877D01*
X112804359Y-102022876D01*
X112804361Y-102022875D01*
X112964775Y-101974214D01*
X112964776Y-101974214D01*
X112964779Y-101974213D01*
X113131600Y-101957783D01*
X113298420Y-101974213D01*
X113298420Y-101974213D01*
G37*
G36*
X115838420Y-101974213D02*
X115838423Y-101974214D01*
X115838424Y-101974214D01*
X115998838Y-102022875D01*
X115998840Y-102022876D01*
X115998843Y-102022877D01*
X116146678Y-102101895D01*
X116276259Y-102208241D01*
X116382605Y-102337822D01*
X116461623Y-102485656D01*
X116510287Y-102646079D01*
X116522600Y-102771096D01*
X116522600Y-103654703D01*
X116510287Y-103779720D01*
X116510286Y-103779722D01*
X116510286Y-103779725D01*
X116461625Y-103940139D01*
X116461623Y-103940144D01*
X116382605Y-104087978D01*
X116276259Y-104217559D01*
X116146678Y-104323905D01*
X115998844Y-104402923D01*
X115998841Y-104402924D01*
X115998839Y-104402925D01*
X115838425Y-104451586D01*
X115838424Y-104451586D01*
X115838421Y-104451587D01*
X115671600Y-104468017D01*
X115504780Y-104451587D01*
X115504777Y-104451586D01*
X115504776Y-104451586D01*
X115344362Y-104402925D01*
X115344360Y-104402924D01*
X115344357Y-104402923D01*
X115196523Y-104323905D01*
X115066942Y-104217559D01*
X114960596Y-104087978D01*
X114881578Y-103940144D01*
X114832914Y-103779721D01*
X114820600Y-103654703D01*
X114820600Y-102771097D01*
X114832913Y-102646080D01*
X114832914Y-102646076D01*
X114881575Y-102485662D01*
X114881576Y-102485660D01*
X114881577Y-102485657D01*
X114960595Y-102337822D01*
X115066941Y-102208241D01*
X115196522Y-102101895D01*
X115344356Y-102022877D01*
X115344359Y-102022876D01*
X115344361Y-102022875D01*
X115504775Y-101974214D01*
X115504776Y-101974214D01*
X115504779Y-101974213D01*
X115671600Y-101957783D01*
X115838420Y-101974213D01*
X115838420Y-101974213D01*
G37*
G36*
X98058420Y-101974213D02*
X98058423Y-101974214D01*
X98058424Y-101974214D01*
X98218838Y-102022875D01*
X98218840Y-102022876D01*
X98218843Y-102022877D01*
X98366678Y-102101895D01*
X98496259Y-102208241D01*
X98602605Y-102337822D01*
X98681623Y-102485656D01*
X98730287Y-102646079D01*
X98742600Y-102771096D01*
X98742600Y-103654703D01*
X98730287Y-103779720D01*
X98730286Y-103779722D01*
X98730286Y-103779725D01*
X98681625Y-103940139D01*
X98681623Y-103940144D01*
X98602605Y-104087978D01*
X98496259Y-104217559D01*
X98366678Y-104323905D01*
X98218844Y-104402923D01*
X98218841Y-104402924D01*
X98218839Y-104402925D01*
X98058425Y-104451586D01*
X98058424Y-104451586D01*
X98058421Y-104451587D01*
X97891600Y-104468017D01*
X97724780Y-104451587D01*
X97724777Y-104451586D01*
X97724776Y-104451586D01*
X97564362Y-104402925D01*
X97564360Y-104402924D01*
X97564357Y-104402923D01*
X97416523Y-104323905D01*
X97286942Y-104217559D01*
X97180596Y-104087978D01*
X97101578Y-103940144D01*
X97052914Y-103779721D01*
X97040600Y-103654703D01*
X97040600Y-102771097D01*
X97052913Y-102646080D01*
X97052914Y-102646076D01*
X97101575Y-102485662D01*
X97101576Y-102485660D01*
X97101577Y-102485657D01*
X97180595Y-102337822D01*
X97286941Y-102208241D01*
X97416522Y-102101895D01*
X97564356Y-102022877D01*
X97564359Y-102022876D01*
X97564361Y-102022875D01*
X97724775Y-101974214D01*
X97724776Y-101974214D01*
X97724779Y-101974213D01*
X97891600Y-101957783D01*
X98058420Y-101974213D01*
X98058420Y-101974213D01*
G37*
G36*
X108218420Y-101974213D02*
X108218423Y-101974214D01*
X108218424Y-101974214D01*
X108378838Y-102022875D01*
X108378840Y-102022876D01*
X108378843Y-102022877D01*
X108526678Y-102101895D01*
X108656259Y-102208241D01*
X108762605Y-102337822D01*
X108841623Y-102485656D01*
X108890287Y-102646079D01*
X108902600Y-102771096D01*
X108902600Y-103654703D01*
X108890287Y-103779720D01*
X108890286Y-103779722D01*
X108890286Y-103779725D01*
X108841625Y-103940139D01*
X108841623Y-103940144D01*
X108762605Y-104087978D01*
X108656259Y-104217559D01*
X108526678Y-104323905D01*
X108378844Y-104402923D01*
X108378841Y-104402924D01*
X108378839Y-104402925D01*
X108218425Y-104451586D01*
X108218424Y-104451586D01*
X108218421Y-104451587D01*
X108051600Y-104468017D01*
X107884780Y-104451587D01*
X107884777Y-104451586D01*
X107884776Y-104451586D01*
X107724362Y-104402925D01*
X107724360Y-104402924D01*
X107724357Y-104402923D01*
X107576523Y-104323905D01*
X107446942Y-104217559D01*
X107340596Y-104087978D01*
X107261578Y-103940144D01*
X107212914Y-103779721D01*
X107200600Y-103654703D01*
X107200600Y-102771097D01*
X107212913Y-102646080D01*
X107212914Y-102646076D01*
X107261575Y-102485662D01*
X107261576Y-102485660D01*
X107261577Y-102485657D01*
X107340595Y-102337822D01*
X107446941Y-102208241D01*
X107576522Y-102101895D01*
X107724356Y-102022877D01*
X107724359Y-102022876D01*
X107724361Y-102022875D01*
X107884775Y-101974214D01*
X107884776Y-101974214D01*
X107884779Y-101974213D01*
X108051600Y-101957783D01*
X108218420Y-101974213D01*
X108218420Y-101974213D01*
G37*
G36*
X96202600Y-104463900D02*
X94500600Y-104463900D01*
X94500600Y-101961900D01*
X96202600Y-101961900D01*
X96202600Y-104463900D01*
X96202600Y-104463900D01*
G37*
G36*
X169415446Y-97071025D02*
X169586515Y-97141885D01*
X169740474Y-97244757D01*
X169871403Y-97375686D01*
X169974275Y-97529645D01*
X170045135Y-97700714D01*
X170081258Y-97882319D01*
X170081258Y-98067485D01*
X170045135Y-98249090D01*
X169974275Y-98420159D01*
X169871403Y-98574118D01*
X169740474Y-98705047D01*
X169586515Y-98807919D01*
X169415446Y-98878779D01*
X169233841Y-98914902D01*
X169048675Y-98914902D01*
X168867070Y-98878779D01*
X168696001Y-98807919D01*
X168542042Y-98705047D01*
X168411113Y-98574118D01*
X168308241Y-98420159D01*
X168237381Y-98249090D01*
X168201258Y-98067485D01*
X168201258Y-97882319D01*
X168237381Y-97700714D01*
X168308241Y-97529645D01*
X168411113Y-97375686D01*
X168542042Y-97244757D01*
X168696001Y-97141885D01*
X168867070Y-97071025D01*
X169048675Y-97034902D01*
X169233841Y-97034902D01*
X169415446Y-97071025D01*
X169415446Y-97071025D01*
G37*
G36*
X166875446Y-97071025D02*
X167046515Y-97141885D01*
X167200474Y-97244757D01*
X167331403Y-97375686D01*
X167434275Y-97529645D01*
X167505135Y-97700714D01*
X167541258Y-97882319D01*
X167541258Y-98067485D01*
X167505135Y-98249090D01*
X167434275Y-98420159D01*
X167331403Y-98574118D01*
X167200474Y-98705047D01*
X167046515Y-98807919D01*
X166875446Y-98878779D01*
X166693841Y-98914902D01*
X166508675Y-98914902D01*
X166327070Y-98878779D01*
X166156001Y-98807919D01*
X166002042Y-98705047D01*
X165871113Y-98574118D01*
X165768241Y-98420159D01*
X165697381Y-98249090D01*
X165661258Y-98067485D01*
X165661258Y-97882319D01*
X165697381Y-97700714D01*
X165768241Y-97529645D01*
X165871113Y-97375686D01*
X166002042Y-97244757D01*
X166156001Y-97141885D01*
X166327070Y-97071025D01*
X166508675Y-97034902D01*
X166693841Y-97034902D01*
X166875446Y-97071025D01*
X166875446Y-97071025D01*
G37*
G36*
X163794260Y-98791902D02*
X161992260Y-98791902D01*
X161992260Y-96989902D01*
X163794260Y-96989902D01*
X163794260Y-98791902D01*
X163794260Y-98791902D01*
G37*
G36*
X160163259Y-98791902D02*
X158361259Y-98791902D01*
X158361259Y-96989902D01*
X160163259Y-96989902D01*
X160163259Y-98791902D01*
X160163259Y-98791902D01*
G37*
G36*
X128538420Y-94354213D02*
X128538423Y-94354214D01*
X128538424Y-94354214D01*
X128698838Y-94402875D01*
X128698840Y-94402876D01*
X128698843Y-94402877D01*
X128846678Y-94481895D01*
X128976259Y-94588241D01*
X129082605Y-94717822D01*
X129161623Y-94865656D01*
X129210287Y-95026079D01*
X129222600Y-95151096D01*
X129222600Y-96034703D01*
X129210287Y-96159720D01*
X129210286Y-96159722D01*
X129210286Y-96159725D01*
X129161625Y-96320139D01*
X129161623Y-96320144D01*
X129082605Y-96467978D01*
X128976259Y-96597559D01*
X128846678Y-96703905D01*
X128698844Y-96782923D01*
X128698841Y-96782924D01*
X128698839Y-96782925D01*
X128538425Y-96831586D01*
X128538424Y-96831586D01*
X128538421Y-96831587D01*
X128371600Y-96848017D01*
X128204780Y-96831587D01*
X128204777Y-96831586D01*
X128204776Y-96831586D01*
X128044362Y-96782925D01*
X128044360Y-96782924D01*
X128044357Y-96782923D01*
X127896523Y-96703905D01*
X127766942Y-96597559D01*
X127660596Y-96467978D01*
X127581578Y-96320144D01*
X127532914Y-96159721D01*
X127520600Y-96034703D01*
X127520600Y-95151097D01*
X127532913Y-95026080D01*
X127532914Y-95026076D01*
X127581575Y-94865662D01*
X127581576Y-94865660D01*
X127581577Y-94865657D01*
X127660595Y-94717822D01*
X127766941Y-94588241D01*
X127896522Y-94481895D01*
X128044356Y-94402877D01*
X128044359Y-94402876D01*
X128044361Y-94402875D01*
X128204775Y-94354214D01*
X128204776Y-94354214D01*
X128204779Y-94354213D01*
X128371600Y-94337783D01*
X128538420Y-94354213D01*
X128538420Y-94354213D01*
G37*
G36*
X125998420Y-94354213D02*
X125998423Y-94354214D01*
X125998424Y-94354214D01*
X126158838Y-94402875D01*
X126158840Y-94402876D01*
X126158843Y-94402877D01*
X126306678Y-94481895D01*
X126436259Y-94588241D01*
X126542605Y-94717822D01*
X126621623Y-94865656D01*
X126670287Y-95026079D01*
X126682600Y-95151096D01*
X126682600Y-96034703D01*
X126670287Y-96159720D01*
X126670286Y-96159722D01*
X126670286Y-96159725D01*
X126621625Y-96320139D01*
X126621623Y-96320144D01*
X126542605Y-96467978D01*
X126436259Y-96597559D01*
X126306678Y-96703905D01*
X126158844Y-96782923D01*
X126158841Y-96782924D01*
X126158839Y-96782925D01*
X125998425Y-96831586D01*
X125998424Y-96831586D01*
X125998421Y-96831587D01*
X125831600Y-96848017D01*
X125664780Y-96831587D01*
X125664777Y-96831586D01*
X125664776Y-96831586D01*
X125504362Y-96782925D01*
X125504360Y-96782924D01*
X125504357Y-96782923D01*
X125356523Y-96703905D01*
X125226942Y-96597559D01*
X125120596Y-96467978D01*
X125041578Y-96320144D01*
X124992914Y-96159721D01*
X124980600Y-96034703D01*
X124980600Y-95151097D01*
X124992913Y-95026080D01*
X124992914Y-95026076D01*
X125041575Y-94865662D01*
X125041576Y-94865660D01*
X125041577Y-94865657D01*
X125120595Y-94717822D01*
X125226941Y-94588241D01*
X125356522Y-94481895D01*
X125504356Y-94402877D01*
X125504359Y-94402876D01*
X125504361Y-94402875D01*
X125664775Y-94354214D01*
X125664776Y-94354214D01*
X125664779Y-94354213D01*
X125831600Y-94337783D01*
X125998420Y-94354213D01*
X125998420Y-94354213D01*
G37*
G36*
X123458420Y-94354213D02*
X123458423Y-94354214D01*
X123458424Y-94354214D01*
X123618838Y-94402875D01*
X123618840Y-94402876D01*
X123618843Y-94402877D01*
X123766678Y-94481895D01*
X123896259Y-94588241D01*
X124002605Y-94717822D01*
X124081623Y-94865656D01*
X124130287Y-95026079D01*
X124142600Y-95151096D01*
X124142600Y-96034703D01*
X124130287Y-96159720D01*
X124130286Y-96159722D01*
X124130286Y-96159725D01*
X124081625Y-96320139D01*
X124081623Y-96320144D01*
X124002605Y-96467978D01*
X123896259Y-96597559D01*
X123766678Y-96703905D01*
X123618844Y-96782923D01*
X123618841Y-96782924D01*
X123618839Y-96782925D01*
X123458425Y-96831586D01*
X123458424Y-96831586D01*
X123458421Y-96831587D01*
X123291600Y-96848017D01*
X123124780Y-96831587D01*
X123124777Y-96831586D01*
X123124776Y-96831586D01*
X122964362Y-96782925D01*
X122964360Y-96782924D01*
X122964357Y-96782923D01*
X122816523Y-96703905D01*
X122686942Y-96597559D01*
X122580596Y-96467978D01*
X122501578Y-96320144D01*
X122452914Y-96159721D01*
X122440600Y-96034703D01*
X122440600Y-95151097D01*
X122452913Y-95026080D01*
X122452914Y-95026076D01*
X122501575Y-94865662D01*
X122501576Y-94865660D01*
X122501577Y-94865657D01*
X122580595Y-94717822D01*
X122686941Y-94588241D01*
X122816522Y-94481895D01*
X122964356Y-94402877D01*
X122964359Y-94402876D01*
X122964361Y-94402875D01*
X123124775Y-94354214D01*
X123124776Y-94354214D01*
X123124779Y-94354213D01*
X123291600Y-94337783D01*
X123458420Y-94354213D01*
X123458420Y-94354213D01*
G37*
G36*
X120918420Y-94354213D02*
X120918423Y-94354214D01*
X120918424Y-94354214D01*
X121078838Y-94402875D01*
X121078840Y-94402876D01*
X121078843Y-94402877D01*
X121226678Y-94481895D01*
X121356259Y-94588241D01*
X121462605Y-94717822D01*
X121541623Y-94865656D01*
X121590287Y-95026079D01*
X121602600Y-95151096D01*
X121602600Y-96034703D01*
X121590287Y-96159720D01*
X121590286Y-96159722D01*
X121590286Y-96159725D01*
X121541625Y-96320139D01*
X121541623Y-96320144D01*
X121462605Y-96467978D01*
X121356259Y-96597559D01*
X121226678Y-96703905D01*
X121078844Y-96782923D01*
X121078841Y-96782924D01*
X121078839Y-96782925D01*
X120918425Y-96831586D01*
X120918424Y-96831586D01*
X120918421Y-96831587D01*
X120751600Y-96848017D01*
X120584780Y-96831587D01*
X120584777Y-96831586D01*
X120584776Y-96831586D01*
X120424362Y-96782925D01*
X120424360Y-96782924D01*
X120424357Y-96782923D01*
X120276523Y-96703905D01*
X120146942Y-96597559D01*
X120040596Y-96467978D01*
X119961578Y-96320144D01*
X119912914Y-96159721D01*
X119900600Y-96034703D01*
X119900600Y-95151097D01*
X119912913Y-95026080D01*
X119912914Y-95026076D01*
X119961575Y-94865662D01*
X119961576Y-94865660D01*
X119961577Y-94865657D01*
X120040595Y-94717822D01*
X120146941Y-94588241D01*
X120276522Y-94481895D01*
X120424356Y-94402877D01*
X120424359Y-94402876D01*
X120424361Y-94402875D01*
X120584775Y-94354214D01*
X120584776Y-94354214D01*
X120584779Y-94354213D01*
X120751600Y-94337783D01*
X120918420Y-94354213D01*
X120918420Y-94354213D01*
G37*
G36*
X118378420Y-94354213D02*
X118378423Y-94354214D01*
X118378424Y-94354214D01*
X118538838Y-94402875D01*
X118538840Y-94402876D01*
X118538843Y-94402877D01*
X118686678Y-94481895D01*
X118816259Y-94588241D01*
X118922605Y-94717822D01*
X119001623Y-94865656D01*
X119050287Y-95026079D01*
X119062600Y-95151096D01*
X119062600Y-96034703D01*
X119050287Y-96159720D01*
X119050286Y-96159722D01*
X119050286Y-96159725D01*
X119001625Y-96320139D01*
X119001623Y-96320144D01*
X118922605Y-96467978D01*
X118816259Y-96597559D01*
X118686678Y-96703905D01*
X118538844Y-96782923D01*
X118538841Y-96782924D01*
X118538839Y-96782925D01*
X118378425Y-96831586D01*
X118378424Y-96831586D01*
X118378421Y-96831587D01*
X118211600Y-96848017D01*
X118044780Y-96831587D01*
X118044777Y-96831586D01*
X118044776Y-96831586D01*
X117884362Y-96782925D01*
X117884360Y-96782924D01*
X117884357Y-96782923D01*
X117736523Y-96703905D01*
X117606942Y-96597559D01*
X117500596Y-96467978D01*
X117421578Y-96320144D01*
X117372914Y-96159721D01*
X117360600Y-96034703D01*
X117360600Y-95151097D01*
X117372913Y-95026080D01*
X117372914Y-95026076D01*
X117421575Y-94865662D01*
X117421576Y-94865660D01*
X117421577Y-94865657D01*
X117500595Y-94717822D01*
X117606941Y-94588241D01*
X117736522Y-94481895D01*
X117884356Y-94402877D01*
X117884359Y-94402876D01*
X117884361Y-94402875D01*
X118044775Y-94354214D01*
X118044776Y-94354214D01*
X118044779Y-94354213D01*
X118211600Y-94337783D01*
X118378420Y-94354213D01*
X118378420Y-94354213D01*
G37*
G36*
X115838420Y-94354213D02*
X115838423Y-94354214D01*
X115838424Y-94354214D01*
X115998838Y-94402875D01*
X115998840Y-94402876D01*
X115998843Y-94402877D01*
X116146678Y-94481895D01*
X116276259Y-94588241D01*
X116382605Y-94717822D01*
X116461623Y-94865656D01*
X116510287Y-95026079D01*
X116522600Y-95151096D01*
X116522600Y-96034703D01*
X116510287Y-96159720D01*
X116510286Y-96159722D01*
X116510286Y-96159725D01*
X116461625Y-96320139D01*
X116461623Y-96320144D01*
X116382605Y-96467978D01*
X116276259Y-96597559D01*
X116146678Y-96703905D01*
X115998844Y-96782923D01*
X115998841Y-96782924D01*
X115998839Y-96782925D01*
X115838425Y-96831586D01*
X115838424Y-96831586D01*
X115838421Y-96831587D01*
X115671600Y-96848017D01*
X115504780Y-96831587D01*
X115504777Y-96831586D01*
X115504776Y-96831586D01*
X115344362Y-96782925D01*
X115344360Y-96782924D01*
X115344357Y-96782923D01*
X115196523Y-96703905D01*
X115066942Y-96597559D01*
X114960596Y-96467978D01*
X114881578Y-96320144D01*
X114832914Y-96159721D01*
X114820600Y-96034703D01*
X114820600Y-95151097D01*
X114832913Y-95026080D01*
X114832914Y-95026076D01*
X114881575Y-94865662D01*
X114881576Y-94865660D01*
X114881577Y-94865657D01*
X114960595Y-94717822D01*
X115066941Y-94588241D01*
X115196522Y-94481895D01*
X115344356Y-94402877D01*
X115344359Y-94402876D01*
X115344361Y-94402875D01*
X115504775Y-94354214D01*
X115504776Y-94354214D01*
X115504779Y-94354213D01*
X115671600Y-94337783D01*
X115838420Y-94354213D01*
X115838420Y-94354213D01*
G37*
G36*
X113298420Y-94354213D02*
X113298423Y-94354214D01*
X113298424Y-94354214D01*
X113458838Y-94402875D01*
X113458840Y-94402876D01*
X113458843Y-94402877D01*
X113606678Y-94481895D01*
X113736259Y-94588241D01*
X113842605Y-94717822D01*
X113921623Y-94865656D01*
X113970287Y-95026079D01*
X113982600Y-95151096D01*
X113982600Y-96034703D01*
X113970287Y-96159720D01*
X113970286Y-96159722D01*
X113970286Y-96159725D01*
X113921625Y-96320139D01*
X113921623Y-96320144D01*
X113842605Y-96467978D01*
X113736259Y-96597559D01*
X113606678Y-96703905D01*
X113458844Y-96782923D01*
X113458841Y-96782924D01*
X113458839Y-96782925D01*
X113298425Y-96831586D01*
X113298424Y-96831586D01*
X113298421Y-96831587D01*
X113131600Y-96848017D01*
X112964780Y-96831587D01*
X112964777Y-96831586D01*
X112964776Y-96831586D01*
X112804362Y-96782925D01*
X112804360Y-96782924D01*
X112804357Y-96782923D01*
X112656523Y-96703905D01*
X112526942Y-96597559D01*
X112420596Y-96467978D01*
X112341578Y-96320144D01*
X112292914Y-96159721D01*
X112280600Y-96034703D01*
X112280600Y-95151097D01*
X112292913Y-95026080D01*
X112292914Y-95026076D01*
X112341575Y-94865662D01*
X112341576Y-94865660D01*
X112341577Y-94865657D01*
X112420595Y-94717822D01*
X112526941Y-94588241D01*
X112656522Y-94481895D01*
X112804356Y-94402877D01*
X112804359Y-94402876D01*
X112804361Y-94402875D01*
X112964775Y-94354214D01*
X112964776Y-94354214D01*
X112964779Y-94354213D01*
X113131600Y-94337783D01*
X113298420Y-94354213D01*
X113298420Y-94354213D01*
G37*
G36*
X105678420Y-94354213D02*
X105678423Y-94354214D01*
X105678424Y-94354214D01*
X105838838Y-94402875D01*
X105838840Y-94402876D01*
X105838843Y-94402877D01*
X105986678Y-94481895D01*
X106116259Y-94588241D01*
X106222605Y-94717822D01*
X106301623Y-94865656D01*
X106350287Y-95026079D01*
X106362600Y-95151096D01*
X106362600Y-96034703D01*
X106350287Y-96159720D01*
X106350286Y-96159722D01*
X106350286Y-96159725D01*
X106301625Y-96320139D01*
X106301623Y-96320144D01*
X106222605Y-96467978D01*
X106116259Y-96597559D01*
X105986678Y-96703905D01*
X105838844Y-96782923D01*
X105838841Y-96782924D01*
X105838839Y-96782925D01*
X105678425Y-96831586D01*
X105678424Y-96831586D01*
X105678421Y-96831587D01*
X105511600Y-96848017D01*
X105344780Y-96831587D01*
X105344777Y-96831586D01*
X105344776Y-96831586D01*
X105184362Y-96782925D01*
X105184360Y-96782924D01*
X105184357Y-96782923D01*
X105036523Y-96703905D01*
X104906942Y-96597559D01*
X104800596Y-96467978D01*
X104721578Y-96320144D01*
X104672914Y-96159721D01*
X104660600Y-96034703D01*
X104660600Y-95151097D01*
X104672913Y-95026080D01*
X104672914Y-95026076D01*
X104721575Y-94865662D01*
X104721576Y-94865660D01*
X104721577Y-94865657D01*
X104800595Y-94717822D01*
X104906941Y-94588241D01*
X105036522Y-94481895D01*
X105184356Y-94402877D01*
X105184359Y-94402876D01*
X105184361Y-94402875D01*
X105344775Y-94354214D01*
X105344776Y-94354214D01*
X105344779Y-94354213D01*
X105511600Y-94337783D01*
X105678420Y-94354213D01*
X105678420Y-94354213D01*
G37*
G36*
X103138420Y-94354213D02*
X103138423Y-94354214D01*
X103138424Y-94354214D01*
X103298838Y-94402875D01*
X103298840Y-94402876D01*
X103298843Y-94402877D01*
X103446678Y-94481895D01*
X103576259Y-94588241D01*
X103682605Y-94717822D01*
X103761623Y-94865656D01*
X103810287Y-95026079D01*
X103822600Y-95151096D01*
X103822600Y-96034703D01*
X103810287Y-96159720D01*
X103810286Y-96159722D01*
X103810286Y-96159725D01*
X103761625Y-96320139D01*
X103761623Y-96320144D01*
X103682605Y-96467978D01*
X103576259Y-96597559D01*
X103446678Y-96703905D01*
X103298844Y-96782923D01*
X103298841Y-96782924D01*
X103298839Y-96782925D01*
X103138425Y-96831586D01*
X103138424Y-96831586D01*
X103138421Y-96831587D01*
X102971600Y-96848017D01*
X102804780Y-96831587D01*
X102804777Y-96831586D01*
X102804776Y-96831586D01*
X102644362Y-96782925D01*
X102644360Y-96782924D01*
X102644357Y-96782923D01*
X102496523Y-96703905D01*
X102366942Y-96597559D01*
X102260596Y-96467978D01*
X102181578Y-96320144D01*
X102132914Y-96159721D01*
X102120600Y-96034703D01*
X102120600Y-95151097D01*
X102132913Y-95026080D01*
X102132914Y-95026076D01*
X102181575Y-94865662D01*
X102181576Y-94865660D01*
X102181577Y-94865657D01*
X102260595Y-94717822D01*
X102366941Y-94588241D01*
X102496522Y-94481895D01*
X102644356Y-94402877D01*
X102644359Y-94402876D01*
X102644361Y-94402875D01*
X102804775Y-94354214D01*
X102804776Y-94354214D01*
X102804779Y-94354213D01*
X102971600Y-94337783D01*
X103138420Y-94354213D01*
X103138420Y-94354213D01*
G37*
G36*
X108218420Y-94354213D02*
X108218423Y-94354214D01*
X108218424Y-94354214D01*
X108378838Y-94402875D01*
X108378840Y-94402876D01*
X108378843Y-94402877D01*
X108526678Y-94481895D01*
X108656259Y-94588241D01*
X108762605Y-94717822D01*
X108841623Y-94865656D01*
X108890287Y-95026079D01*
X108902600Y-95151096D01*
X108902600Y-96034703D01*
X108890287Y-96159720D01*
X108890286Y-96159722D01*
X108890286Y-96159725D01*
X108841625Y-96320139D01*
X108841623Y-96320144D01*
X108762605Y-96467978D01*
X108656259Y-96597559D01*
X108526678Y-96703905D01*
X108378844Y-96782923D01*
X108378841Y-96782924D01*
X108378839Y-96782925D01*
X108218425Y-96831586D01*
X108218424Y-96831586D01*
X108218421Y-96831587D01*
X108051600Y-96848017D01*
X107884780Y-96831587D01*
X107884777Y-96831586D01*
X107884776Y-96831586D01*
X107724362Y-96782925D01*
X107724360Y-96782924D01*
X107724357Y-96782923D01*
X107576523Y-96703905D01*
X107446942Y-96597559D01*
X107340596Y-96467978D01*
X107261578Y-96320144D01*
X107212914Y-96159721D01*
X107200600Y-96034703D01*
X107200600Y-95151097D01*
X107212913Y-95026080D01*
X107212914Y-95026076D01*
X107261575Y-94865662D01*
X107261576Y-94865660D01*
X107261577Y-94865657D01*
X107340595Y-94717822D01*
X107446941Y-94588241D01*
X107576522Y-94481895D01*
X107724356Y-94402877D01*
X107724359Y-94402876D01*
X107724361Y-94402875D01*
X107884775Y-94354214D01*
X107884776Y-94354214D01*
X107884779Y-94354213D01*
X108051600Y-94337783D01*
X108218420Y-94354213D01*
X108218420Y-94354213D01*
G37*
G36*
X98058420Y-94354213D02*
X98058423Y-94354214D01*
X98058424Y-94354214D01*
X98218838Y-94402875D01*
X98218840Y-94402876D01*
X98218843Y-94402877D01*
X98366678Y-94481895D01*
X98496259Y-94588241D01*
X98602605Y-94717822D01*
X98681623Y-94865656D01*
X98730287Y-95026079D01*
X98742600Y-95151096D01*
X98742600Y-96034703D01*
X98730287Y-96159720D01*
X98730286Y-96159722D01*
X98730286Y-96159725D01*
X98681625Y-96320139D01*
X98681623Y-96320144D01*
X98602605Y-96467978D01*
X98496259Y-96597559D01*
X98366678Y-96703905D01*
X98218844Y-96782923D01*
X98218841Y-96782924D01*
X98218839Y-96782925D01*
X98058425Y-96831586D01*
X98058424Y-96831586D01*
X98058421Y-96831587D01*
X97891600Y-96848017D01*
X97724780Y-96831587D01*
X97724777Y-96831586D01*
X97724776Y-96831586D01*
X97564362Y-96782925D01*
X97564360Y-96782924D01*
X97564357Y-96782923D01*
X97416523Y-96703905D01*
X97286942Y-96597559D01*
X97180596Y-96467978D01*
X97101578Y-96320144D01*
X97052914Y-96159721D01*
X97040600Y-96034703D01*
X97040600Y-95151097D01*
X97052913Y-95026080D01*
X97052914Y-95026076D01*
X97101575Y-94865662D01*
X97101576Y-94865660D01*
X97101577Y-94865657D01*
X97180595Y-94717822D01*
X97286941Y-94588241D01*
X97416522Y-94481895D01*
X97564356Y-94402877D01*
X97564359Y-94402876D01*
X97564361Y-94402875D01*
X97724775Y-94354214D01*
X97724776Y-94354214D01*
X97724779Y-94354213D01*
X97891600Y-94337783D01*
X98058420Y-94354213D01*
X98058420Y-94354213D01*
G37*
G36*
X95518420Y-94354213D02*
X95518423Y-94354214D01*
X95518424Y-94354214D01*
X95678838Y-94402875D01*
X95678840Y-94402876D01*
X95678843Y-94402877D01*
X95826678Y-94481895D01*
X95956259Y-94588241D01*
X96062605Y-94717822D01*
X96141623Y-94865656D01*
X96190287Y-95026079D01*
X96202600Y-95151096D01*
X96202600Y-96034703D01*
X96190287Y-96159720D01*
X96190286Y-96159722D01*
X96190286Y-96159725D01*
X96141625Y-96320139D01*
X96141623Y-96320144D01*
X96062605Y-96467978D01*
X95956259Y-96597559D01*
X95826678Y-96703905D01*
X95678844Y-96782923D01*
X95678841Y-96782924D01*
X95678839Y-96782925D01*
X95518425Y-96831586D01*
X95518424Y-96831586D01*
X95518421Y-96831587D01*
X95351600Y-96848017D01*
X95184780Y-96831587D01*
X95184777Y-96831586D01*
X95184776Y-96831586D01*
X95024362Y-96782925D01*
X95024360Y-96782924D01*
X95024357Y-96782923D01*
X94876523Y-96703905D01*
X94746942Y-96597559D01*
X94640596Y-96467978D01*
X94561578Y-96320144D01*
X94512914Y-96159721D01*
X94500600Y-96034703D01*
X94500600Y-95151097D01*
X94512913Y-95026080D01*
X94512914Y-95026076D01*
X94561575Y-94865662D01*
X94561576Y-94865660D01*
X94561577Y-94865657D01*
X94640595Y-94717822D01*
X94746941Y-94588241D01*
X94876522Y-94481895D01*
X95024356Y-94402877D01*
X95024359Y-94402876D01*
X95024361Y-94402875D01*
X95184775Y-94354214D01*
X95184776Y-94354214D01*
X95184779Y-94354213D01*
X95351600Y-94337783D01*
X95518420Y-94354213D01*
X95518420Y-94354213D01*
G37*
G36*
X100598420Y-94354213D02*
X100598423Y-94354214D01*
X100598424Y-94354214D01*
X100758838Y-94402875D01*
X100758840Y-94402876D01*
X100758843Y-94402877D01*
X100906678Y-94481895D01*
X101036259Y-94588241D01*
X101142605Y-94717822D01*
X101221623Y-94865656D01*
X101270287Y-95026079D01*
X101282600Y-95151096D01*
X101282600Y-96034703D01*
X101270287Y-96159720D01*
X101270286Y-96159722D01*
X101270286Y-96159725D01*
X101221625Y-96320139D01*
X101221623Y-96320144D01*
X101142605Y-96467978D01*
X101036259Y-96597559D01*
X100906678Y-96703905D01*
X100758844Y-96782923D01*
X100758841Y-96782924D01*
X100758839Y-96782925D01*
X100598425Y-96831586D01*
X100598424Y-96831586D01*
X100598421Y-96831587D01*
X100431600Y-96848017D01*
X100264780Y-96831587D01*
X100264777Y-96831586D01*
X100264776Y-96831586D01*
X100104362Y-96782925D01*
X100104360Y-96782924D01*
X100104357Y-96782923D01*
X99956523Y-96703905D01*
X99826942Y-96597559D01*
X99720596Y-96467978D01*
X99641578Y-96320144D01*
X99592914Y-96159721D01*
X99580600Y-96034703D01*
X99580600Y-95151097D01*
X99592913Y-95026080D01*
X99592914Y-95026076D01*
X99641575Y-94865662D01*
X99641576Y-94865660D01*
X99641577Y-94865657D01*
X99720595Y-94717822D01*
X99826941Y-94588241D01*
X99956522Y-94481895D01*
X100104356Y-94402877D01*
X100104359Y-94402876D01*
X100104361Y-94402875D01*
X100264775Y-94354214D01*
X100264776Y-94354214D01*
X100264779Y-94354213D01*
X100431600Y-94337783D01*
X100598420Y-94354213D01*
X100598420Y-94354213D01*
G37*
G36*
X110758420Y-94354213D02*
X110758423Y-94354214D01*
X110758424Y-94354214D01*
X110918838Y-94402875D01*
X110918840Y-94402876D01*
X110918843Y-94402877D01*
X111066678Y-94481895D01*
X111196259Y-94588241D01*
X111302605Y-94717822D01*
X111381623Y-94865656D01*
X111430287Y-95026079D01*
X111442600Y-95151096D01*
X111442600Y-96034703D01*
X111430287Y-96159720D01*
X111430286Y-96159722D01*
X111430286Y-96159725D01*
X111381625Y-96320139D01*
X111381623Y-96320144D01*
X111302605Y-96467978D01*
X111196259Y-96597559D01*
X111066678Y-96703905D01*
X110918844Y-96782923D01*
X110918841Y-96782924D01*
X110918839Y-96782925D01*
X110758425Y-96831586D01*
X110758424Y-96831586D01*
X110758421Y-96831587D01*
X110591600Y-96848017D01*
X110424780Y-96831587D01*
X110424777Y-96831586D01*
X110424776Y-96831586D01*
X110264362Y-96782925D01*
X110264360Y-96782924D01*
X110264357Y-96782923D01*
X110116523Y-96703905D01*
X109986942Y-96597559D01*
X109880596Y-96467978D01*
X109801578Y-96320144D01*
X109752914Y-96159721D01*
X109740600Y-96034703D01*
X109740600Y-95151097D01*
X109752913Y-95026080D01*
X109752914Y-95026076D01*
X109801575Y-94865662D01*
X109801576Y-94865660D01*
X109801577Y-94865657D01*
X109880595Y-94717822D01*
X109986941Y-94588241D01*
X110116522Y-94481895D01*
X110264356Y-94402877D01*
X110264359Y-94402876D01*
X110264361Y-94402875D01*
X110424775Y-94354214D01*
X110424776Y-94354214D01*
X110424779Y-94354213D01*
X110591600Y-94337783D01*
X110758420Y-94354213D01*
X110758420Y-94354213D01*
G37*
G36*
X160163259Y-92340901D02*
X158361259Y-92340901D01*
X158361259Y-90538901D01*
X160163259Y-90538901D01*
X160163259Y-92340901D01*
X160163259Y-92340901D01*
G37*
G36*
X163719259Y-92340901D02*
X161917259Y-92340901D01*
X161917259Y-90538901D01*
X163719259Y-90538901D01*
X163719259Y-92340901D01*
X163719259Y-92340901D01*
G37*
G36*
X166875446Y-90371025D02*
X167046515Y-90441885D01*
X167200474Y-90544757D01*
X167331403Y-90675686D01*
X167434275Y-90829645D01*
X167505135Y-91000714D01*
X167541258Y-91182319D01*
X167541258Y-91367485D01*
X167505135Y-91549090D01*
X167434275Y-91720159D01*
X167331403Y-91874118D01*
X167200474Y-92005047D01*
X167046515Y-92107919D01*
X166875446Y-92178779D01*
X166693841Y-92214902D01*
X166508675Y-92214902D01*
X166327070Y-92178779D01*
X166156001Y-92107919D01*
X166002042Y-92005047D01*
X165871113Y-91874118D01*
X165768241Y-91720159D01*
X165697381Y-91549090D01*
X165661258Y-91367485D01*
X165661258Y-91182319D01*
X165697381Y-91000714D01*
X165768241Y-90829645D01*
X165871113Y-90675686D01*
X166002042Y-90544757D01*
X166156001Y-90441885D01*
X166327070Y-90371025D01*
X166508675Y-90334902D01*
X166693841Y-90334902D01*
X166875446Y-90371025D01*
X166875446Y-90371025D01*
G37*
G36*
X169415446Y-90371025D02*
X169586515Y-90441885D01*
X169740474Y-90544757D01*
X169871403Y-90675686D01*
X169974275Y-90829645D01*
X170045135Y-91000714D01*
X170081258Y-91182319D01*
X170081258Y-91367485D01*
X170045135Y-91549090D01*
X169974275Y-91720159D01*
X169871403Y-91874118D01*
X169740474Y-92005047D01*
X169586515Y-92107919D01*
X169415446Y-92178779D01*
X169233841Y-92214902D01*
X169048675Y-92214902D01*
X168867070Y-92178779D01*
X168696001Y-92107919D01*
X168542042Y-92005047D01*
X168411113Y-91874118D01*
X168308241Y-91720159D01*
X168237381Y-91549090D01*
X168201258Y-91367485D01*
X168201258Y-91182319D01*
X168237381Y-91000714D01*
X168308241Y-90829645D01*
X168411113Y-90675686D01*
X168542042Y-90544757D01*
X168696001Y-90441885D01*
X168867070Y-90371025D01*
X169048675Y-90334902D01*
X169233841Y-90334902D01*
X169415446Y-90371025D01*
X169415446Y-90371025D01*
G37*
G36*
X132858639Y-89521301D02*
X133094453Y-89592834D01*
X133311781Y-89708999D01*
X133502271Y-89865329D01*
X133658601Y-90055819D01*
X133774766Y-90273147D01*
X133846299Y-90508961D01*
X133870453Y-90754200D01*
X133846299Y-90999439D01*
X133774766Y-91235253D01*
X133658601Y-91452581D01*
X133502271Y-91643071D01*
X133311781Y-91799401D01*
X133094453Y-91915566D01*
X132858639Y-91987099D01*
X132674857Y-92005200D01*
X132551943Y-92005200D01*
X132368161Y-91987099D01*
X132132347Y-91915566D01*
X131915019Y-91799401D01*
X131724529Y-91643071D01*
X131568199Y-91452581D01*
X131452034Y-91235253D01*
X131380501Y-90999439D01*
X131356347Y-90754200D01*
X131380501Y-90508961D01*
X131452034Y-90273147D01*
X131568199Y-90055819D01*
X131724529Y-89865329D01*
X131915019Y-89708999D01*
X132132347Y-89592834D01*
X132368161Y-89521301D01*
X132551943Y-89503200D01*
X132674857Y-89503200D01*
X132858639Y-89521301D01*
X132858639Y-89521301D01*
G37*
G36*
X148037035Y-89515219D02*
X148218303Y-89551275D01*
X148445971Y-89645578D01*
X148649942Y-89781868D01*
X148650869Y-89782487D01*
X148825113Y-89956731D01*
X148825115Y-89956734D01*
X148962022Y-90161629D01*
X149056325Y-90389297D01*
X149104400Y-90630987D01*
X149104400Y-90877413D01*
X149056325Y-91119103D01*
X148962022Y-91346771D01*
X148891321Y-91452582D01*
X148825113Y-91551669D01*
X148650869Y-91725913D01*
X148650866Y-91725915D01*
X148445971Y-91862822D01*
X148218303Y-91957125D01*
X148067613Y-91987099D01*
X147976614Y-92005200D01*
X147730186Y-92005200D01*
X147639187Y-91987099D01*
X147488497Y-91957125D01*
X147260829Y-91862822D01*
X147055934Y-91725915D01*
X147055931Y-91725913D01*
X146881687Y-91551669D01*
X146815479Y-91452582D01*
X146744778Y-91346771D01*
X146650475Y-91119103D01*
X146602400Y-90877413D01*
X146602400Y-90630987D01*
X146650475Y-90389297D01*
X146744778Y-90161629D01*
X146881685Y-89956734D01*
X146881687Y-89956731D01*
X147055931Y-89782487D01*
X147056858Y-89781868D01*
X147260829Y-89645578D01*
X147488497Y-89551275D01*
X147669765Y-89515219D01*
X147730186Y-89503200D01*
X147976614Y-89503200D01*
X148037035Y-89515219D01*
X148037035Y-89515219D01*
G37*
G36*
X113681639Y-89521301D02*
X113917453Y-89592834D01*
X114134781Y-89708999D01*
X114325271Y-89865329D01*
X114481601Y-90055819D01*
X114597766Y-90273147D01*
X114669299Y-90508961D01*
X114693453Y-90754200D01*
X114669299Y-90999439D01*
X114597766Y-91235253D01*
X114481601Y-91452581D01*
X114325271Y-91643071D01*
X114134781Y-91799401D01*
X113917453Y-91915566D01*
X113681639Y-91987099D01*
X113497857Y-92005200D01*
X113374943Y-92005200D01*
X113191161Y-91987099D01*
X112955347Y-91915566D01*
X112738019Y-91799401D01*
X112547529Y-91643071D01*
X112391199Y-91452581D01*
X112275034Y-91235253D01*
X112203501Y-90999439D01*
X112179347Y-90754200D01*
X112203501Y-90508961D01*
X112275034Y-90273147D01*
X112391199Y-90055819D01*
X112547529Y-89865329D01*
X112738019Y-89708999D01*
X112955347Y-89592834D01*
X113191161Y-89521301D01*
X113374943Y-89503200D01*
X113497857Y-89503200D01*
X113681639Y-89521301D01*
X113681639Y-89521301D01*
G37*
G36*
X128860035Y-89515219D02*
X129041303Y-89551275D01*
X129268971Y-89645578D01*
X129472942Y-89781868D01*
X129473869Y-89782487D01*
X129648113Y-89956731D01*
X129648115Y-89956734D01*
X129785022Y-90161629D01*
X129879325Y-90389297D01*
X129927400Y-90630987D01*
X129927400Y-90877413D01*
X129879325Y-91119103D01*
X129785022Y-91346771D01*
X129714321Y-91452582D01*
X129648113Y-91551669D01*
X129473869Y-91725913D01*
X129473866Y-91725915D01*
X129268971Y-91862822D01*
X129041303Y-91957125D01*
X128890613Y-91987099D01*
X128799614Y-92005200D01*
X128553186Y-92005200D01*
X128462187Y-91987099D01*
X128311497Y-91957125D01*
X128083829Y-91862822D01*
X127878934Y-91725915D01*
X127878931Y-91725913D01*
X127704687Y-91551669D01*
X127638479Y-91452582D01*
X127567778Y-91346771D01*
X127473475Y-91119103D01*
X127425400Y-90877413D01*
X127425400Y-90630987D01*
X127473475Y-90389297D01*
X127567778Y-90161629D01*
X127704685Y-89956734D01*
X127704687Y-89956731D01*
X127878931Y-89782487D01*
X127879858Y-89781868D01*
X128083829Y-89645578D01*
X128311497Y-89551275D01*
X128492765Y-89515219D01*
X128553186Y-89503200D01*
X128799614Y-89503200D01*
X128860035Y-89515219D01*
X128860035Y-89515219D01*
G37*
G36*
X109344965Y-89743589D02*
X109536234Y-89822815D01*
X109708376Y-89937837D01*
X109854763Y-90084224D01*
X109969785Y-90256366D01*
X110049011Y-90447635D01*
X110089400Y-90650684D01*
X110089400Y-90857716D01*
X110049011Y-91060765D01*
X109969785Y-91252034D01*
X109854763Y-91424176D01*
X109708376Y-91570563D01*
X109536234Y-91685585D01*
X109344965Y-91764811D01*
X109141916Y-91805200D01*
X108934884Y-91805200D01*
X108731835Y-91764811D01*
X108540566Y-91685585D01*
X108368424Y-91570563D01*
X108222037Y-91424176D01*
X108107015Y-91252034D01*
X108027789Y-91060765D01*
X107987400Y-90857716D01*
X107987400Y-90650684D01*
X108027789Y-90447635D01*
X108107015Y-90256366D01*
X108222037Y-90084224D01*
X108368424Y-89937837D01*
X108540566Y-89822815D01*
X108731835Y-89743589D01*
X108934884Y-89703200D01*
X109141916Y-89703200D01*
X109344965Y-89743589D01*
X109344965Y-89743589D01*
G37*
G36*
X104344965Y-89743589D02*
X104536234Y-89822815D01*
X104708376Y-89937837D01*
X104854763Y-90084224D01*
X104969785Y-90256366D01*
X105049011Y-90447635D01*
X105089400Y-90650684D01*
X105089400Y-90857716D01*
X105049011Y-91060765D01*
X104969785Y-91252034D01*
X104854763Y-91424176D01*
X104708376Y-91570563D01*
X104536234Y-91685585D01*
X104344965Y-91764811D01*
X104141916Y-91805200D01*
X103934884Y-91805200D01*
X103731835Y-91764811D01*
X103540566Y-91685585D01*
X103368424Y-91570563D01*
X103222037Y-91424176D01*
X103107015Y-91252034D01*
X103027789Y-91060765D01*
X102987400Y-90857716D01*
X102987400Y-90650684D01*
X103027789Y-90447635D01*
X103107015Y-90256366D01*
X103222037Y-90084224D01*
X103368424Y-89937837D01*
X103540566Y-89822815D01*
X103731835Y-89743589D01*
X103934884Y-89703200D01*
X104141916Y-89703200D01*
X104344965Y-89743589D01*
X104344965Y-89743589D01*
G37*
G36*
X95190880Y-87438800D02*
X93388880Y-87438800D01*
X93388880Y-85636800D01*
X95190880Y-85636800D01*
X95190880Y-87438800D01*
X95190880Y-87438800D01*
G37*
G36*
X128921639Y-84187301D02*
X129157453Y-84258834D01*
X129374781Y-84374999D01*
X129565271Y-84531329D01*
X129721601Y-84721819D01*
X129837766Y-84939147D01*
X129909299Y-85174961D01*
X129933453Y-85420200D01*
X129909299Y-85665439D01*
X129837766Y-85901253D01*
X129721601Y-86118581D01*
X129565271Y-86309071D01*
X129374781Y-86465401D01*
X129157453Y-86581566D01*
X128921639Y-86653099D01*
X128737857Y-86671200D01*
X128614943Y-86671200D01*
X128431161Y-86653099D01*
X128195347Y-86581566D01*
X127978019Y-86465401D01*
X127787529Y-86309071D01*
X127631199Y-86118581D01*
X127515034Y-85901253D01*
X127443501Y-85665439D01*
X127419347Y-85420200D01*
X127443501Y-85174961D01*
X127515034Y-84939147D01*
X127631199Y-84721819D01*
X127787529Y-84531329D01*
X127978019Y-84374999D01*
X128195347Y-84258834D01*
X128431161Y-84187301D01*
X128614943Y-84169200D01*
X128737857Y-84169200D01*
X128921639Y-84187301D01*
X128921639Y-84187301D01*
G37*
G36*
X147971639Y-84187301D02*
X148207453Y-84258834D01*
X148424781Y-84374999D01*
X148615271Y-84531329D01*
X148771601Y-84721819D01*
X148887766Y-84939147D01*
X148959299Y-85174961D01*
X148983453Y-85420200D01*
X148959299Y-85665439D01*
X148887766Y-85901253D01*
X148771601Y-86118581D01*
X148615271Y-86309071D01*
X148424781Y-86465401D01*
X148207453Y-86581566D01*
X147971639Y-86653099D01*
X147787857Y-86671200D01*
X147664943Y-86671200D01*
X147481161Y-86653099D01*
X147245347Y-86581566D01*
X147028019Y-86465401D01*
X146837529Y-86309071D01*
X146681199Y-86118581D01*
X146565034Y-85901253D01*
X146493501Y-85665439D01*
X146469347Y-85420200D01*
X146493501Y-85174961D01*
X146565034Y-84939147D01*
X146681199Y-84721819D01*
X146837529Y-84531329D01*
X147028019Y-84374999D01*
X147245347Y-84258834D01*
X147481161Y-84187301D01*
X147664943Y-84169200D01*
X147787857Y-84169200D01*
X147971639Y-84187301D01*
X147971639Y-84187301D01*
G37*
G36*
X113620036Y-84181219D02*
X113801303Y-84217275D01*
X114028971Y-84311578D01*
X114123888Y-84375000D01*
X114233869Y-84448487D01*
X114408113Y-84622731D01*
X114408115Y-84622734D01*
X114545022Y-84827629D01*
X114639325Y-85055297D01*
X114687400Y-85296987D01*
X114687400Y-85543413D01*
X114639325Y-85785103D01*
X114545022Y-86012771D01*
X114474321Y-86118582D01*
X114408113Y-86217669D01*
X114233869Y-86391913D01*
X114233866Y-86391915D01*
X114028971Y-86528822D01*
X113801303Y-86623125D01*
X113650613Y-86653099D01*
X113559614Y-86671200D01*
X113313186Y-86671200D01*
X113222187Y-86653099D01*
X113071497Y-86623125D01*
X112843829Y-86528822D01*
X112638934Y-86391915D01*
X112638931Y-86391913D01*
X112464687Y-86217669D01*
X112398479Y-86118582D01*
X112327778Y-86012771D01*
X112233475Y-85785103D01*
X112185400Y-85543413D01*
X112185400Y-85296987D01*
X112233475Y-85055297D01*
X112327778Y-84827629D01*
X112464685Y-84622734D01*
X112464687Y-84622731D01*
X112638931Y-84448487D01*
X112748912Y-84375000D01*
X112843829Y-84311578D01*
X113071497Y-84217275D01*
X113252764Y-84181219D01*
X113313186Y-84169200D01*
X113559614Y-84169200D01*
X113620036Y-84181219D01*
X113620036Y-84181219D01*
G37*
G36*
X132670036Y-84181219D02*
X132851303Y-84217275D01*
X133078971Y-84311578D01*
X133173888Y-84375000D01*
X133283869Y-84448487D01*
X133458113Y-84622731D01*
X133458115Y-84622734D01*
X133595022Y-84827629D01*
X133689325Y-85055297D01*
X133737400Y-85296987D01*
X133737400Y-85543413D01*
X133689325Y-85785103D01*
X133595022Y-86012771D01*
X133524321Y-86118582D01*
X133458113Y-86217669D01*
X133283869Y-86391913D01*
X133283866Y-86391915D01*
X133078971Y-86528822D01*
X132851303Y-86623125D01*
X132700613Y-86653099D01*
X132609614Y-86671200D01*
X132363186Y-86671200D01*
X132272187Y-86653099D01*
X132121497Y-86623125D01*
X131893829Y-86528822D01*
X131688934Y-86391915D01*
X131688931Y-86391913D01*
X131514687Y-86217669D01*
X131448479Y-86118582D01*
X131377778Y-86012771D01*
X131283475Y-85785103D01*
X131235400Y-85543413D01*
X131235400Y-85296987D01*
X131283475Y-85055297D01*
X131377778Y-84827629D01*
X131514685Y-84622734D01*
X131514687Y-84622731D01*
X131688931Y-84448487D01*
X131798912Y-84375000D01*
X131893829Y-84311578D01*
X132121497Y-84217275D01*
X132302764Y-84181219D01*
X132363186Y-84169200D01*
X132609614Y-84169200D01*
X132670036Y-84181219D01*
X132670036Y-84181219D01*
G37*
G36*
X119997088Y-80144723D02*
X120168157Y-80215583D01*
X120322116Y-80318455D01*
X120453045Y-80449384D01*
X120555917Y-80603343D01*
X120626777Y-80774412D01*
X120662900Y-80956017D01*
X120662900Y-81141183D01*
X120626777Y-81322788D01*
X120555917Y-81493857D01*
X120453045Y-81647816D01*
X120322116Y-81778745D01*
X120168157Y-81881617D01*
X119997088Y-81952477D01*
X119815483Y-81988600D01*
X119630317Y-81988600D01*
X119448712Y-81952477D01*
X119277643Y-81881617D01*
X119123684Y-81778745D01*
X118992755Y-81647816D01*
X118889883Y-81493857D01*
X118819023Y-81322788D01*
X118782900Y-81141183D01*
X118782900Y-80956017D01*
X118819023Y-80774412D01*
X118889883Y-80603343D01*
X118992755Y-80449384D01*
X119123684Y-80318455D01*
X119277643Y-80215583D01*
X119448712Y-80144723D01*
X119630317Y-80108600D01*
X119815483Y-80108600D01*
X119997088Y-80144723D01*
X119997088Y-80144723D01*
G37*
G36*
X117457088Y-80144723D02*
X117628157Y-80215583D01*
X117782116Y-80318455D01*
X117913045Y-80449384D01*
X118015917Y-80603343D01*
X118086777Y-80774412D01*
X118122900Y-80956017D01*
X118122900Y-81141183D01*
X118086777Y-81322788D01*
X118015917Y-81493857D01*
X117913045Y-81647816D01*
X117782116Y-81778745D01*
X117628157Y-81881617D01*
X117457088Y-81952477D01*
X117275483Y-81988600D01*
X117090317Y-81988600D01*
X116908712Y-81952477D01*
X116737643Y-81881617D01*
X116583684Y-81778745D01*
X116452755Y-81647816D01*
X116349883Y-81493857D01*
X116279023Y-81322788D01*
X116242900Y-81141183D01*
X116242900Y-80956017D01*
X116279023Y-80774412D01*
X116349883Y-80603343D01*
X116452755Y-80449384D01*
X116583684Y-80318455D01*
X116737643Y-80215583D01*
X116908712Y-80144723D01*
X117090317Y-80108600D01*
X117275483Y-80108600D01*
X117457088Y-80144723D01*
X117457088Y-80144723D01*
G37*
G36*
X133357488Y-80132023D02*
X133528557Y-80202883D01*
X133682516Y-80305755D01*
X133813445Y-80436684D01*
X133916317Y-80590643D01*
X133987177Y-80761712D01*
X134023300Y-80943317D01*
X134023300Y-81128483D01*
X133987177Y-81310088D01*
X133916317Y-81481157D01*
X133813445Y-81635116D01*
X133682516Y-81766045D01*
X133528557Y-81868917D01*
X133357488Y-81939777D01*
X133175883Y-81975900D01*
X132990717Y-81975900D01*
X132809112Y-81939777D01*
X132638043Y-81868917D01*
X132484084Y-81766045D01*
X132353155Y-81635116D01*
X132250283Y-81481157D01*
X132179423Y-81310088D01*
X132143300Y-81128483D01*
X132143300Y-80943317D01*
X132179423Y-80761712D01*
X132250283Y-80590643D01*
X132353155Y-80436684D01*
X132484084Y-80305755D01*
X132638043Y-80202883D01*
X132809112Y-80132023D01*
X132990717Y-80095900D01*
X133175883Y-80095900D01*
X133357488Y-80132023D01*
X133357488Y-80132023D01*
G37*
G36*
X135897488Y-80132023D02*
X136068557Y-80202883D01*
X136222516Y-80305755D01*
X136353445Y-80436684D01*
X136456317Y-80590643D01*
X136527177Y-80761712D01*
X136563300Y-80943317D01*
X136563300Y-81128483D01*
X136527177Y-81310088D01*
X136456317Y-81481157D01*
X136353445Y-81635116D01*
X136222516Y-81766045D01*
X136068557Y-81868917D01*
X135897488Y-81939777D01*
X135715883Y-81975900D01*
X135530717Y-81975900D01*
X135349112Y-81939777D01*
X135178043Y-81868917D01*
X135024084Y-81766045D01*
X134893155Y-81635116D01*
X134790283Y-81481157D01*
X134719423Y-81310088D01*
X134683300Y-81128483D01*
X134683300Y-80943317D01*
X134719423Y-80761712D01*
X134790283Y-80590643D01*
X134893155Y-80436684D01*
X135024084Y-80305755D01*
X135178043Y-80202883D01*
X135349112Y-80132023D01*
X135530717Y-80095900D01*
X135715883Y-80095900D01*
X135897488Y-80132023D01*
X135897488Y-80132023D01*
G37*
G36*
X95135000Y-81673000D02*
X93333000Y-81673000D01*
X93333000Y-79871000D01*
X95135000Y-79871000D01*
X95135000Y-81673000D01*
X95135000Y-81673000D01*
G37*
G36*
X117457088Y-73444723D02*
X117628157Y-73515583D01*
X117782116Y-73618455D01*
X117913045Y-73749384D01*
X118015917Y-73903343D01*
X118086777Y-74074412D01*
X118122900Y-74256017D01*
X118122900Y-74441183D01*
X118086777Y-74622788D01*
X118015917Y-74793857D01*
X117913045Y-74947816D01*
X117782116Y-75078745D01*
X117628157Y-75181617D01*
X117457088Y-75252477D01*
X117275483Y-75288600D01*
X117090317Y-75288600D01*
X116908712Y-75252477D01*
X116737643Y-75181617D01*
X116583684Y-75078745D01*
X116452755Y-74947816D01*
X116349883Y-74793857D01*
X116279023Y-74622788D01*
X116242900Y-74441183D01*
X116242900Y-74256017D01*
X116279023Y-74074412D01*
X116349883Y-73903343D01*
X116452755Y-73749384D01*
X116583684Y-73618455D01*
X116737643Y-73515583D01*
X116908712Y-73444723D01*
X117090317Y-73408600D01*
X117275483Y-73408600D01*
X117457088Y-73444723D01*
X117457088Y-73444723D01*
G37*
G36*
X119997088Y-73444723D02*
X120168157Y-73515583D01*
X120322116Y-73618455D01*
X120453045Y-73749384D01*
X120555917Y-73903343D01*
X120626777Y-74074412D01*
X120662900Y-74256017D01*
X120662900Y-74441183D01*
X120626777Y-74622788D01*
X120555917Y-74793857D01*
X120453045Y-74947816D01*
X120322116Y-75078745D01*
X120168157Y-75181617D01*
X119997088Y-75252477D01*
X119815483Y-75288600D01*
X119630317Y-75288600D01*
X119448712Y-75252477D01*
X119277643Y-75181617D01*
X119123684Y-75078745D01*
X118992755Y-74947816D01*
X118889883Y-74793857D01*
X118819023Y-74622788D01*
X118782900Y-74441183D01*
X118782900Y-74256017D01*
X118819023Y-74074412D01*
X118889883Y-73903343D01*
X118992755Y-73749384D01*
X119123684Y-73618455D01*
X119277643Y-73515583D01*
X119448712Y-73444723D01*
X119630317Y-73408600D01*
X119815483Y-73408600D01*
X119997088Y-73444723D01*
X119997088Y-73444723D01*
G37*
G36*
X133357488Y-73432023D02*
X133528557Y-73502883D01*
X133682516Y-73605755D01*
X133813445Y-73736684D01*
X133916317Y-73890643D01*
X133987177Y-74061712D01*
X134023300Y-74243317D01*
X134023300Y-74428483D01*
X133987177Y-74610088D01*
X133916317Y-74781157D01*
X133813445Y-74935116D01*
X133682516Y-75066045D01*
X133528557Y-75168917D01*
X133357488Y-75239777D01*
X133175883Y-75275900D01*
X132990717Y-75275900D01*
X132809112Y-75239777D01*
X132638043Y-75168917D01*
X132484084Y-75066045D01*
X132353155Y-74935116D01*
X132250283Y-74781157D01*
X132179423Y-74610088D01*
X132143300Y-74428483D01*
X132143300Y-74243317D01*
X132179423Y-74061712D01*
X132250283Y-73890643D01*
X132353155Y-73736684D01*
X132484084Y-73605755D01*
X132638043Y-73502883D01*
X132809112Y-73432023D01*
X132990717Y-73395900D01*
X133175883Y-73395900D01*
X133357488Y-73432023D01*
X133357488Y-73432023D01*
G37*
G36*
X135897488Y-73432023D02*
X136068557Y-73502883D01*
X136222516Y-73605755D01*
X136353445Y-73736684D01*
X136456317Y-73890643D01*
X136527177Y-74061712D01*
X136563300Y-74243317D01*
X136563300Y-74428483D01*
X136527177Y-74610088D01*
X136456317Y-74781157D01*
X136353445Y-74935116D01*
X136222516Y-75066045D01*
X136068557Y-75168917D01*
X135897488Y-75239777D01*
X135715883Y-75275900D01*
X135530717Y-75275900D01*
X135349112Y-75239777D01*
X135178043Y-75168917D01*
X135024084Y-75066045D01*
X134893155Y-74935116D01*
X134790283Y-74781157D01*
X134719423Y-74610088D01*
X134683300Y-74428483D01*
X134683300Y-74243317D01*
X134719423Y-74061712D01*
X134790283Y-73890643D01*
X134893155Y-73736684D01*
X135024084Y-73605755D01*
X135178043Y-73502883D01*
X135349112Y-73432023D01*
X135530717Y-73395900D01*
X135715883Y-73395900D01*
X135897488Y-73432023D01*
X135897488Y-73432023D01*
G37*
M02*
