G04 #@! TF.GenerationSoftware,KiCad,Pcbnew,5.0.2+dfsg1-1~bpo9+1*
G04 #@! TF.CreationDate,2019-02-15T20:10:49-06:00*
G04 #@! TF.ProjectId,EncoderandSensorsBoard,456e636f-6465-4726-916e-6453656e736f,v1.0*
G04 #@! TF.SameCoordinates,Original*
G04 #@! TF.FileFunction,Profile,NP*
%FSLAX46Y46*%
G04 Gerber Fmt 4.6, Leading zero omitted, Abs format (unit mm)*
G04 Created by KiCad (PCBNEW 5.0.2+dfsg1-1~bpo9+1) date vie 15 feb 2019 20:10:49 CST*
%MOMM*%
%LPD*%
G01*
G04 APERTURE LIST*
%ADD10C,0.150000*%
G04 APERTURE END LIST*
D10*
X156210000Y-89916000D02*
X156210000Y-69850000D01*
X156210000Y-115824000D02*
X156210000Y-99314000D01*
X157226000Y-89916000D02*
X156210000Y-89916000D01*
X157226000Y-99314000D02*
X156210000Y-99314000D01*
X157226000Y-115824000D02*
X156210000Y-115824000D01*
X157226000Y-125222000D02*
X156210000Y-125222000D01*
X156210000Y-125222000D02*
X156210000Y-147320000D01*
X90170000Y-69850000D02*
X90170000Y-147320000D01*
X90170000Y-69850000D02*
X156210000Y-69850000D01*
X90170000Y-147320000D02*
X156210000Y-147320000D01*
X164850259Y-82676901D02*
X170946259Y-82676901D01*
X170946259Y-125094901D02*
X170946259Y-125221901D01*
X170946259Y-132460901D02*
X170946259Y-125094901D01*
X164850259Y-132460901D02*
X170946259Y-132460901D01*
X164850259Y-125221901D02*
X164850259Y-132460901D01*
X164850259Y-89915901D02*
X164850259Y-82676901D01*
X170946259Y-115823901D02*
X157230259Y-115823901D01*
X157230259Y-125221901D02*
X164850259Y-125221901D01*
X170946259Y-125221901D02*
X170946259Y-115823901D01*
X164850259Y-89915901D02*
X157230259Y-89915901D01*
X170946259Y-99313901D02*
X170946259Y-82676901D01*
X157230259Y-99313901D02*
X170946259Y-99313901D01*
M02*
