G04 #@! TF.GenerationSoftware,KiCad,Pcbnew,5.1.6+dfsg1-1~bpo10+1*
G04 #@! TF.CreationDate,2020-07-18T16:18:30-05:00*
G04 #@! TF.ProjectId,BMagSensBoard,424d6167-5365-46e7-9342-6f6172642e6b,v1.0*
G04 #@! TF.SameCoordinates,Original*
G04 #@! TF.FileFunction,Copper,L1,Top*
G04 #@! TF.FilePolarity,Positive*
%FSLAX46Y46*%
G04 Gerber Fmt 4.6, Leading zero omitted, Abs format (unit mm)*
G04 Created by KiCad (PCBNEW 5.1.6+dfsg1-1~bpo10+1) date 2020-07-18 16:18:30*
%MOMM*%
%LPD*%
G01*
G04 APERTURE LIST*
G04 #@! TA.AperFunction,SMDPad,CuDef*
%ADD10R,1.800000X2.500000*%
G04 #@! TD*
G04 #@! TA.AperFunction,Conductor*
%ADD11C,0.635000*%
G04 #@! TD*
G04 #@! TA.AperFunction,Conductor*
%ADD12C,1.270000*%
G04 #@! TD*
G04 APERTURE END LIST*
D10*
X150412000Y-93776800D03*
X152812000Y-93776800D03*
X140812000Y-93776800D03*
X145612000Y-93776800D03*
X148012000Y-93776800D03*
X143212000Y-93776800D03*
G04 #@! TA.AperFunction,SMDPad,CuDef*
G36*
G01*
X143362000Y-86687800D02*
X143362000Y-86387800D01*
G75*
G02*
X143512000Y-86237800I150000J0D01*
G01*
X144962000Y-86237800D01*
G75*
G02*
X145112000Y-86387800I0J-150000D01*
G01*
X145112000Y-86687800D01*
G75*
G02*
X144962000Y-86837800I-150000J0D01*
G01*
X143512000Y-86837800D01*
G75*
G02*
X143362000Y-86687800I0J150000D01*
G01*
G37*
G04 #@! TD.AperFunction*
G04 #@! TA.AperFunction,SMDPad,CuDef*
G36*
G01*
X143362000Y-87957800D02*
X143362000Y-87657800D01*
G75*
G02*
X143512000Y-87507800I150000J0D01*
G01*
X144962000Y-87507800D01*
G75*
G02*
X145112000Y-87657800I0J-150000D01*
G01*
X145112000Y-87957800D01*
G75*
G02*
X144962000Y-88107800I-150000J0D01*
G01*
X143512000Y-88107800D01*
G75*
G02*
X143362000Y-87957800I0J150000D01*
G01*
G37*
G04 #@! TD.AperFunction*
G04 #@! TA.AperFunction,SMDPad,CuDef*
G36*
G01*
X143362000Y-89227800D02*
X143362000Y-88927800D01*
G75*
G02*
X143512000Y-88777800I150000J0D01*
G01*
X144962000Y-88777800D01*
G75*
G02*
X145112000Y-88927800I0J-150000D01*
G01*
X145112000Y-89227800D01*
G75*
G02*
X144962000Y-89377800I-150000J0D01*
G01*
X143512000Y-89377800D01*
G75*
G02*
X143362000Y-89227800I0J150000D01*
G01*
G37*
G04 #@! TD.AperFunction*
G04 #@! TA.AperFunction,SMDPad,CuDef*
G36*
G01*
X143362000Y-90497800D02*
X143362000Y-90197800D01*
G75*
G02*
X143512000Y-90047800I150000J0D01*
G01*
X144962000Y-90047800D01*
G75*
G02*
X145112000Y-90197800I0J-150000D01*
G01*
X145112000Y-90497800D01*
G75*
G02*
X144962000Y-90647800I-150000J0D01*
G01*
X143512000Y-90647800D01*
G75*
G02*
X143362000Y-90497800I0J150000D01*
G01*
G37*
G04 #@! TD.AperFunction*
G04 #@! TA.AperFunction,SMDPad,CuDef*
G36*
G01*
X148512000Y-90497800D02*
X148512000Y-90197800D01*
G75*
G02*
X148662000Y-90047800I150000J0D01*
G01*
X150112000Y-90047800D01*
G75*
G02*
X150262000Y-90197800I0J-150000D01*
G01*
X150262000Y-90497800D01*
G75*
G02*
X150112000Y-90647800I-150000J0D01*
G01*
X148662000Y-90647800D01*
G75*
G02*
X148512000Y-90497800I0J150000D01*
G01*
G37*
G04 #@! TD.AperFunction*
G04 #@! TA.AperFunction,SMDPad,CuDef*
G36*
G01*
X148512000Y-89227800D02*
X148512000Y-88927800D01*
G75*
G02*
X148662000Y-88777800I150000J0D01*
G01*
X150112000Y-88777800D01*
G75*
G02*
X150262000Y-88927800I0J-150000D01*
G01*
X150262000Y-89227800D01*
G75*
G02*
X150112000Y-89377800I-150000J0D01*
G01*
X148662000Y-89377800D01*
G75*
G02*
X148512000Y-89227800I0J150000D01*
G01*
G37*
G04 #@! TD.AperFunction*
G04 #@! TA.AperFunction,SMDPad,CuDef*
G36*
G01*
X148512000Y-87957800D02*
X148512000Y-87657800D01*
G75*
G02*
X148662000Y-87507800I150000J0D01*
G01*
X150112000Y-87507800D01*
G75*
G02*
X150262000Y-87657800I0J-150000D01*
G01*
X150262000Y-87957800D01*
G75*
G02*
X150112000Y-88107800I-150000J0D01*
G01*
X148662000Y-88107800D01*
G75*
G02*
X148512000Y-87957800I0J150000D01*
G01*
G37*
G04 #@! TD.AperFunction*
G04 #@! TA.AperFunction,SMDPad,CuDef*
G36*
G01*
X148512000Y-86687800D02*
X148512000Y-86387800D01*
G75*
G02*
X148662000Y-86237800I150000J0D01*
G01*
X150112000Y-86237800D01*
G75*
G02*
X150262000Y-86387800I0J-150000D01*
G01*
X150262000Y-86687800D01*
G75*
G02*
X150112000Y-86837800I-150000J0D01*
G01*
X148662000Y-86837800D01*
G75*
G02*
X148512000Y-86687800I0J150000D01*
G01*
G37*
G04 #@! TD.AperFunction*
D11*
X144237000Y-90347800D02*
X143637000Y-90347800D01*
X143637000Y-90347800D02*
X143212000Y-90772800D01*
X144237000Y-90347800D02*
X144237000Y-89077800D01*
D12*
X143212000Y-90772800D02*
X143212000Y-93776800D01*
D11*
X148450000Y-90347800D02*
X149387000Y-90347800D01*
X148012000Y-90785800D02*
X148450000Y-90347800D01*
D12*
X148012000Y-90785800D02*
X148012000Y-93776800D01*
D11*
X144237000Y-87807800D02*
X145112000Y-87807800D01*
X144237000Y-87807800D02*
X145923000Y-87807800D01*
X145923000Y-87807800D02*
X146177000Y-88061800D01*
D12*
X145612000Y-92055800D02*
X145612000Y-93776800D01*
X146177000Y-88061800D02*
X146177000Y-91490800D01*
X146177000Y-91490800D02*
X145612000Y-92055800D01*
D11*
X144237000Y-86537800D02*
X142367000Y-86537800D01*
D12*
X142367000Y-86537800D02*
X141478000Y-86537800D01*
X140812000Y-87203800D02*
X140812000Y-93776800D01*
X141478000Y-86537800D02*
X140812000Y-87203800D01*
D11*
X152273000Y-87807800D02*
X149387000Y-87807800D01*
D12*
X152273000Y-87807800D02*
X153035000Y-88569800D01*
X153035000Y-88569800D02*
X153035000Y-91871800D01*
X152812000Y-92094800D02*
X152812000Y-93776800D01*
X153035000Y-91871800D02*
X152812000Y-92094800D01*
D11*
X149387000Y-89077800D02*
X150241000Y-89077800D01*
X149387000Y-89077800D02*
X151130000Y-89077800D01*
X151130000Y-89077800D02*
X151384000Y-89331800D01*
D12*
X150412000Y-91954800D02*
X150412000Y-93776800D01*
X151384000Y-89331800D02*
X151384000Y-90982800D01*
X151384000Y-90982800D02*
X150412000Y-91954800D01*
M02*
