<?xml version="1.0" standalone="no"?>
 <!DOCTYPE svg PUBLIC "-//W3C//DTD SVG 1.1//EN" 
 "http://www.w3.org/Graphics/SVG/1.1/DTD/svg11.dtd"> 
<svg
  xmlns:svg="http://www.w3.org/2000/svg"
  xmlns="http://www.w3.org/2000/svg"
  xmlns:xlink="http://www.w3.org/1999/xlink"
  version="1.1"
  width="27.940000cm" height="21.590000cm" viewBox="0 0 110000 85000">
<title>SVG Picture created as BMagSensBoard-F_SilkS.svg date 2020/08/14 14:34:50 </title>
  <desc>Picture generated by PCBNEW </desc>
<g style="fill:#000000; fill-opacity:1;stroke:#000000; stroke-opacity:1;
stroke-linecap:round; stroke-linejoin:round;"
 transform="translate(0 0) scale(1 1)">
</g>
<g style="fill:#000000; fill-opacity:0.0; 
stroke:#000000; stroke-width:-0.000393701; stroke-opacity:1; 
stroke-linecap:round; stroke-linejoin:round;">
</g>
<g style="fill:#000000; fill-opacity:0.0; 
stroke:#000000; stroke-width:47.2441; stroke-opacity:1; 
stroke-linecap:round; stroke-linejoin:round;">
<path d="M57800 33812
L56441 33812
" />
<path d="M57800 33812
L58567 33812
" />
<path d="M57800 35827
L57032 35827
" />
<path d="M57800 35827
L58567 35827
" />
<path d="M57799 33037
L57799 32902
" />
<path d="M58200 33037
L58200 32902
" />
</g>
<g style="fill:#000000; fill-opacity:0.0; 
stroke:#000000; stroke-width:59.0551; stroke-opacity:1; 
stroke-linecap:round; stroke-linejoin:round;">
<text x="56600" y="33678.3"
textLength="865.402" font-size="524.934" lengthAdjust="spacingAndGlyphs"
text-anchor="middle" opacity="0">U7</text>
<path d="M56300 33265
L56300 33584
L56318 33622
L56337 33640
L56375 33659
L56450 33659
L56487 33640
L56506 33622
L56525 33584
L56525 33265
" />
<path d="M56674 33265
L56937 33265
L56768 33659
" />
</g>
<g style="fill:#000000; fill-opacity:0.0; 
stroke:#000000; stroke-width:60; stroke-opacity:1; 
stroke-linecap:round; stroke-linejoin:round;">
<g transform="rotate(-90 57600 32970)">
<text x="57600" y="33130"
textLength="773.915" font-size="320" lengthAdjust="spacingAndGlyphs"
text-anchor="middle" opacity="0">C27</text>
</g>
<path d="M57714 33124
L57729 33135
L57744 33170
L57744 33192
L57729 33227
L57699 33250
L57668 33261
L57607 33272
L57561 33272
L57500 33261
L57470 33250
L57440 33227
L57424 33192
L57424 33170
L57440 33135
L57455 33124
" />
<path d="M57455 33032
L57440 33021
L57424 32998
L57424 32941
L57440 32918
L57455 32907
L57485 32895
L57516 32895
L57561 32907
L57744 33044
L57744 32895
" />
<path d="M57424 32815
L57424 32655
L57744 32758
" />
<g >
</g>
</g> 
</svg>
