G04 #@! TF.GenerationSoftware,KiCad,Pcbnew,5.1.6+dfsg1-1~bpo10+1*
G04 #@! TF.CreationDate,2020-07-19T15:05:57-05:00*
G04 #@! TF.ProjectId,BMagSensBoard,424d6167-5365-46e7-9342-6f6172642e6b,v1.0*
G04 #@! TF.SameCoordinates,Original*
G04 #@! TF.FileFunction,Copper,L1,Top*
G04 #@! TF.FilePolarity,Positive*
%FSLAX46Y46*%
G04 Gerber Fmt 4.6, Leading zero omitted, Abs format (unit mm)*
G04 Created by KiCad (PCBNEW 5.1.6+dfsg1-1~bpo10+1) date 2020-07-19 15:05:57*
%MOMM*%
%LPD*%
G01*
G04 APERTURE LIST*
G04 #@! TA.AperFunction,SMDPad,CuDef*
%ADD10R,1.800000X2.500000*%
G04 #@! TD*
G04 #@! TA.AperFunction,ViaPad*
%ADD11C,0.450000*%
G04 #@! TD*
G04 #@! TA.AperFunction,Conductor*
%ADD12C,0.635000*%
G04 #@! TD*
G04 #@! TA.AperFunction,Conductor*
%ADD13C,1.270000*%
G04 #@! TD*
G04 #@! TA.AperFunction,Conductor*
%ADD14C,0.254000*%
G04 #@! TD*
G04 APERTURE END LIST*
G04 #@! TA.AperFunction,SMDPad,CuDef*
G36*
G01*
X143312000Y-86700300D02*
X143312000Y-86375300D01*
G75*
G02*
X143474500Y-86212800I162500J0D01*
G01*
X144459500Y-86212800D01*
G75*
G02*
X144622000Y-86375300I0J-162500D01*
G01*
X144622000Y-86700300D01*
G75*
G02*
X144459500Y-86862800I-162500J0D01*
G01*
X143474500Y-86862800D01*
G75*
G02*
X143312000Y-86700300I0J162500D01*
G01*
G37*
G04 #@! TD.AperFunction*
G04 #@! TA.AperFunction,SMDPad,CuDef*
G36*
G01*
X143312000Y-87957800D02*
X143312000Y-87657800D01*
G75*
G02*
X143462000Y-87507800I150000J0D01*
G01*
X144472000Y-87507800D01*
G75*
G02*
X144622000Y-87657800I0J-150000D01*
G01*
X144622000Y-87957800D01*
G75*
G02*
X144472000Y-88107800I-150000J0D01*
G01*
X143462000Y-88107800D01*
G75*
G02*
X143312000Y-87957800I0J150000D01*
G01*
G37*
G04 #@! TD.AperFunction*
G04 #@! TA.AperFunction,SMDPad,CuDef*
G36*
G01*
X143312000Y-89227800D02*
X143312000Y-88927800D01*
G75*
G02*
X143462000Y-88777800I150000J0D01*
G01*
X144472000Y-88777800D01*
G75*
G02*
X144622000Y-88927800I0J-150000D01*
G01*
X144622000Y-89227800D01*
G75*
G02*
X144472000Y-89377800I-150000J0D01*
G01*
X143462000Y-89377800D01*
G75*
G02*
X143312000Y-89227800I0J150000D01*
G01*
G37*
G04 #@! TD.AperFunction*
G04 #@! TA.AperFunction,SMDPad,CuDef*
G36*
G01*
X143312000Y-90497800D02*
X143312000Y-90197800D01*
G75*
G02*
X143462000Y-90047800I150000J0D01*
G01*
X144472000Y-90047800D01*
G75*
G02*
X144622000Y-90197800I0J-150000D01*
G01*
X144622000Y-90497800D01*
G75*
G02*
X144472000Y-90647800I-150000J0D01*
G01*
X143462000Y-90647800D01*
G75*
G02*
X143312000Y-90497800I0J150000D01*
G01*
G37*
G04 #@! TD.AperFunction*
G04 #@! TA.AperFunction,SMDPad,CuDef*
G36*
G01*
X149002000Y-90497800D02*
X149002000Y-90197800D01*
G75*
G02*
X149152000Y-90047800I150000J0D01*
G01*
X150162000Y-90047800D01*
G75*
G02*
X150312000Y-90197800I0J-150000D01*
G01*
X150312000Y-90497800D01*
G75*
G02*
X150162000Y-90647800I-150000J0D01*
G01*
X149152000Y-90647800D01*
G75*
G02*
X149002000Y-90497800I0J150000D01*
G01*
G37*
G04 #@! TD.AperFunction*
G04 #@! TA.AperFunction,SMDPad,CuDef*
G36*
G01*
X149002000Y-89227800D02*
X149002000Y-88927800D01*
G75*
G02*
X149152000Y-88777800I150000J0D01*
G01*
X150162000Y-88777800D01*
G75*
G02*
X150312000Y-88927800I0J-150000D01*
G01*
X150312000Y-89227800D01*
G75*
G02*
X150162000Y-89377800I-150000J0D01*
G01*
X149152000Y-89377800D01*
G75*
G02*
X149002000Y-89227800I0J150000D01*
G01*
G37*
G04 #@! TD.AperFunction*
G04 #@! TA.AperFunction,SMDPad,CuDef*
G36*
G01*
X149002000Y-87957800D02*
X149002000Y-87657800D01*
G75*
G02*
X149152000Y-87507800I150000J0D01*
G01*
X150162000Y-87507800D01*
G75*
G02*
X150312000Y-87657800I0J-150000D01*
G01*
X150312000Y-87957800D01*
G75*
G02*
X150162000Y-88107800I-150000J0D01*
G01*
X149152000Y-88107800D01*
G75*
G02*
X149002000Y-87957800I0J150000D01*
G01*
G37*
G04 #@! TD.AperFunction*
G04 #@! TA.AperFunction,SMDPad,CuDef*
G36*
G01*
X148997000Y-86687800D02*
X148997000Y-86387800D01*
G75*
G02*
X149147000Y-86237800I150000J0D01*
G01*
X150157000Y-86237800D01*
G75*
G02*
X150307000Y-86387800I0J-150000D01*
G01*
X150307000Y-86687800D01*
G75*
G02*
X150157000Y-86837800I-150000J0D01*
G01*
X149147000Y-86837800D01*
G75*
G02*
X148997000Y-86687800I0J150000D01*
G01*
G37*
G04 #@! TD.AperFunction*
D10*
X150412000Y-93776800D03*
X152812000Y-93776800D03*
X140812000Y-93776800D03*
X145612000Y-93776800D03*
X148012000Y-93776800D03*
X143212000Y-93776800D03*
G04 #@! TA.AperFunction,SMDPad,CuDef*
G36*
G01*
X147557500Y-83393800D02*
X147082500Y-83393800D01*
G75*
G02*
X146845000Y-83156300I0J237500D01*
G01*
X146845000Y-82581300D01*
G75*
G02*
X147082500Y-82343800I237500J0D01*
G01*
X147557500Y-82343800D01*
G75*
G02*
X147795000Y-82581300I0J-237500D01*
G01*
X147795000Y-83156300D01*
G75*
G02*
X147557500Y-83393800I-237500J0D01*
G01*
G37*
G04 #@! TD.AperFunction*
G04 #@! TA.AperFunction,SMDPad,CuDef*
G36*
G01*
X147557500Y-85143800D02*
X147082500Y-85143800D01*
G75*
G02*
X146845000Y-84906300I0J237500D01*
G01*
X146845000Y-84331300D01*
G75*
G02*
X147082500Y-84093800I237500J0D01*
G01*
X147557500Y-84093800D01*
G75*
G02*
X147795000Y-84331300I0J-237500D01*
G01*
X147795000Y-84906300D01*
G75*
G02*
X147557500Y-85143800I-237500J0D01*
G01*
G37*
G04 #@! TD.AperFunction*
D11*
X147320000Y-81610200D03*
X145612000Y-95548600D03*
X142595600Y-89712800D03*
D12*
X148450000Y-90347800D02*
X149387000Y-90347800D01*
X148012000Y-90785800D02*
X148450000Y-90347800D01*
D13*
X148012000Y-90785800D02*
X148012000Y-93776800D01*
X143212000Y-93776800D02*
X143212000Y-92462800D01*
D12*
X143212000Y-92462800D02*
X143212000Y-92208800D01*
X143212000Y-92208800D02*
X141097000Y-90093800D01*
X141097000Y-90093800D02*
X141097000Y-88442800D01*
X141732000Y-87807800D02*
X144237000Y-87807800D01*
X141097000Y-88442800D02*
X141732000Y-87807800D01*
D13*
X140812000Y-93776800D02*
X140812000Y-93390200D01*
X140812000Y-93776800D02*
X140812000Y-92602800D01*
D12*
X140812000Y-93776800D02*
X140812000Y-91586800D01*
X140812000Y-91586800D02*
X139827000Y-90601800D01*
X139827000Y-90601800D02*
X139827000Y-87426800D01*
X140716000Y-86537800D02*
X144237000Y-86537800D01*
X139827000Y-87426800D02*
X140716000Y-86537800D01*
D13*
X151116000Y-84618800D02*
X147320000Y-84618800D01*
X153035000Y-86537800D02*
X151116000Y-84618800D01*
X153035000Y-91871800D02*
X153035000Y-86537800D01*
X152812000Y-93776800D02*
X152812000Y-92094800D01*
X152812000Y-92094800D02*
X153035000Y-91871800D01*
D12*
X147320000Y-84618800D02*
X147320000Y-87172800D01*
X147955000Y-87807800D02*
X149387000Y-87807800D01*
X147320000Y-87172800D02*
X147955000Y-87807800D01*
X149387000Y-89077800D02*
X150241000Y-89077800D01*
X149387000Y-89077800D02*
X151130000Y-89077800D01*
X151130000Y-89077800D02*
X151384000Y-89331800D01*
D13*
X150412000Y-91954800D02*
X150412000Y-93776800D01*
X151384000Y-89331800D02*
X151384000Y-90982800D01*
X151384000Y-90982800D02*
X150412000Y-91954800D01*
D12*
X144237000Y-90347800D02*
X143637000Y-90347800D01*
X147320000Y-82868800D02*
X147320000Y-81610200D01*
X144237000Y-89077800D02*
X144237000Y-90347800D01*
X145612000Y-93776800D02*
X145612000Y-95548600D01*
X143306800Y-90347800D02*
X142595600Y-89636600D01*
X144237000Y-90347800D02*
X143306800Y-90347800D01*
D14*
G36*
X147518564Y-79181046D02*
G01*
X148673804Y-79342635D01*
X149799675Y-79647739D01*
X150878430Y-80091545D01*
X151893057Y-80667058D01*
X152827546Y-81365194D01*
X153667173Y-82174952D01*
X154398686Y-83083554D01*
X155010555Y-84076679D01*
X155493128Y-85138661D01*
X155838791Y-86252743D01*
X156042099Y-87401373D01*
X156099843Y-88566425D01*
X156011111Y-89729521D01*
X155776306Y-90877212D01*
X155506715Y-91708774D01*
X155503511Y-91714768D01*
X155462912Y-91848604D01*
X155452639Y-91952911D01*
X155452640Y-95852800D01*
X138176000Y-95852800D01*
X138176000Y-91965123D01*
X138165727Y-91860816D01*
X138125128Y-91726980D01*
X138124060Y-91724981D01*
X137785209Y-90632857D01*
X137581901Y-89484228D01*
X137524157Y-88319174D01*
X137592235Y-87426800D01*
X138869892Y-87426800D01*
X138874501Y-87473594D01*
X138874500Y-90555015D01*
X138869892Y-90601800D01*
X138877283Y-90676839D01*
X138888283Y-90788522D01*
X138942748Y-90968068D01*
X139031194Y-91133541D01*
X139150222Y-91278578D01*
X139186569Y-91308407D01*
X139760413Y-91882251D01*
X139750925Y-91893812D01*
X139739266Y-91915625D01*
X139667820Y-91937298D01*
X139557506Y-91996263D01*
X139460815Y-92075615D01*
X139381463Y-92172306D01*
X139322498Y-92282620D01*
X139286188Y-92402318D01*
X139273928Y-92526800D01*
X139273928Y-95026800D01*
X139286188Y-95151282D01*
X139322498Y-95270980D01*
X139381463Y-95381294D01*
X139460815Y-95477985D01*
X139557506Y-95557337D01*
X139667820Y-95616302D01*
X139787518Y-95652612D01*
X139912000Y-95664872D01*
X141712000Y-95664872D01*
X141836482Y-95652612D01*
X141956180Y-95616302D01*
X142012000Y-95586465D01*
X142067820Y-95616302D01*
X142187518Y-95652612D01*
X142312000Y-95664872D01*
X144112000Y-95664872D01*
X144236482Y-95652612D01*
X144356180Y-95616302D01*
X144412000Y-95586465D01*
X144467820Y-95616302D01*
X144587518Y-95652612D01*
X144712000Y-95664872D01*
X145326250Y-95661800D01*
X145485000Y-95503050D01*
X145485000Y-93903800D01*
X145465000Y-93903800D01*
X145465000Y-93649800D01*
X145485000Y-93649800D01*
X145485000Y-92050550D01*
X145739000Y-92050550D01*
X145739000Y-93649800D01*
X145759000Y-93649800D01*
X145759000Y-93903800D01*
X145739000Y-93903800D01*
X145739000Y-95503050D01*
X145897750Y-95661800D01*
X146512000Y-95664872D01*
X146636482Y-95652612D01*
X146756180Y-95616302D01*
X146812000Y-95586465D01*
X146867820Y-95616302D01*
X146987518Y-95652612D01*
X147112000Y-95664872D01*
X148912000Y-95664872D01*
X149036482Y-95652612D01*
X149156180Y-95616302D01*
X149212000Y-95586465D01*
X149267820Y-95616302D01*
X149387518Y-95652612D01*
X149512000Y-95664872D01*
X151312000Y-95664872D01*
X151436482Y-95652612D01*
X151556180Y-95616302D01*
X151612000Y-95586465D01*
X151667820Y-95616302D01*
X151787518Y-95652612D01*
X151912000Y-95664872D01*
X153712000Y-95664872D01*
X153836482Y-95652612D01*
X153956180Y-95616302D01*
X154066494Y-95557337D01*
X154163185Y-95477985D01*
X154242537Y-95381294D01*
X154301502Y-95270980D01*
X154337812Y-95151282D01*
X154350072Y-95026800D01*
X154350072Y-92526800D01*
X154337812Y-92402318D01*
X154301502Y-92282620D01*
X154260687Y-92206262D01*
X154286623Y-92120763D01*
X154305000Y-91934180D01*
X154305000Y-91934179D01*
X154311144Y-91871800D01*
X154305000Y-91809420D01*
X154305000Y-86600180D01*
X154311144Y-86537800D01*
X154286623Y-86288837D01*
X154214003Y-86049441D01*
X154096075Y-85828812D01*
X153998280Y-85709649D01*
X153977135Y-85683883D01*
X153977132Y-85683880D01*
X153937370Y-85635430D01*
X153888919Y-85595668D01*
X152058141Y-83764891D01*
X152018370Y-83716430D01*
X151824988Y-83557725D01*
X151604359Y-83439797D01*
X151364963Y-83367177D01*
X151178380Y-83348800D01*
X151178373Y-83348800D01*
X151116000Y-83342657D01*
X151053627Y-83348800D01*
X148432494Y-83348800D01*
X148430000Y-83154550D01*
X148271250Y-82995800D01*
X147447000Y-82995800D01*
X147447000Y-83015800D01*
X147193000Y-83015800D01*
X147193000Y-82995800D01*
X146368750Y-82995800D01*
X146210000Y-83154550D01*
X146206928Y-83393800D01*
X146219188Y-83518282D01*
X146255498Y-83637980D01*
X146314463Y-83748294D01*
X146352971Y-83795217D01*
X146258925Y-83909812D01*
X146140997Y-84130441D01*
X146068377Y-84369837D01*
X146043856Y-84618800D01*
X146068377Y-84867763D01*
X146140997Y-85107159D01*
X146258925Y-85327788D01*
X146367500Y-85460087D01*
X146367501Y-87126006D01*
X146362892Y-87172800D01*
X146381283Y-87359522D01*
X146435749Y-87539069D01*
X146524194Y-87704540D01*
X146544927Y-87729803D01*
X146643223Y-87849578D01*
X146679565Y-87879403D01*
X147248389Y-88448226D01*
X147278222Y-88484578D01*
X147423259Y-88603606D01*
X147471745Y-88629522D01*
X147588730Y-88692052D01*
X147652944Y-88711531D01*
X147768277Y-88746517D01*
X147908215Y-88760300D01*
X147955000Y-88764908D01*
X148001785Y-88760300D01*
X148383243Y-88760300D01*
X148379071Y-88774055D01*
X148363928Y-88927800D01*
X148363928Y-89227800D01*
X148379071Y-89381545D01*
X148383823Y-89397210D01*
X148263277Y-89409083D01*
X148083731Y-89463548D01*
X147994186Y-89511411D01*
X147763037Y-89534177D01*
X147523641Y-89606797D01*
X147303012Y-89724725D01*
X147109630Y-89883430D01*
X146950925Y-90076813D01*
X146832997Y-90297442D01*
X146760377Y-90536838D01*
X146742000Y-90723421D01*
X146742000Y-91932997D01*
X146636482Y-91900988D01*
X146512000Y-91888728D01*
X145897750Y-91891800D01*
X145739000Y-92050550D01*
X145485000Y-92050550D01*
X145326250Y-91891800D01*
X144712000Y-91888728D01*
X144587518Y-91900988D01*
X144467820Y-91937298D01*
X144412000Y-91967135D01*
X144377137Y-91948500D01*
X144273075Y-91753812D01*
X144114370Y-91560430D01*
X143920988Y-91401725D01*
X143700359Y-91283797D01*
X143684933Y-91279117D01*
X143840000Y-91124050D01*
X143840000Y-90474800D01*
X144094000Y-90474800D01*
X144094000Y-91124050D01*
X144252750Y-91282800D01*
X144622000Y-91285872D01*
X144746482Y-91273612D01*
X144866180Y-91237302D01*
X144976494Y-91178337D01*
X145073185Y-91098985D01*
X145152537Y-91002294D01*
X145211502Y-90891980D01*
X145247812Y-90772282D01*
X145260072Y-90647800D01*
X145257000Y-90633550D01*
X145098250Y-90474800D01*
X144094000Y-90474800D01*
X143840000Y-90474800D01*
X143820000Y-90474800D01*
X143820000Y-90220800D01*
X143840000Y-90220800D01*
X143840000Y-89204800D01*
X144094000Y-89204800D01*
X144094000Y-90220800D01*
X145098250Y-90220800D01*
X145257000Y-90062050D01*
X145260072Y-90047800D01*
X145247812Y-89923318D01*
X145211502Y-89803620D01*
X145162957Y-89712800D01*
X145211502Y-89621980D01*
X145247812Y-89502282D01*
X145260072Y-89377800D01*
X145257000Y-89363550D01*
X145098250Y-89204800D01*
X144094000Y-89204800D01*
X143840000Y-89204800D01*
X142835750Y-89204800D01*
X142677000Y-89363550D01*
X142673928Y-89377800D01*
X142686188Y-89502282D01*
X142722498Y-89621980D01*
X142771043Y-89712800D01*
X142722498Y-89803620D01*
X142686188Y-89923318D01*
X142673928Y-90047800D01*
X142677000Y-90062050D01*
X142835748Y-90220798D01*
X142677000Y-90220798D01*
X142677000Y-90326762D01*
X142049500Y-89699262D01*
X142049500Y-88837338D01*
X142126537Y-88760300D01*
X142675652Y-88760300D01*
X142673928Y-88777800D01*
X142677000Y-88792050D01*
X142835750Y-88950800D01*
X143840000Y-88950800D01*
X143840000Y-88930800D01*
X144094000Y-88930800D01*
X144094000Y-88950800D01*
X145098250Y-88950800D01*
X145257000Y-88792050D01*
X145260072Y-88777800D01*
X145247812Y-88653318D01*
X145211502Y-88533620D01*
X145152537Y-88423306D01*
X145128270Y-88393736D01*
X145200084Y-88259382D01*
X145244929Y-88111545D01*
X145260072Y-87957800D01*
X145260072Y-87657800D01*
X145244929Y-87504055D01*
X145200084Y-87356218D01*
X145127258Y-87219971D01*
X145095471Y-87181239D01*
X145125151Y-87145074D01*
X145199132Y-87006666D01*
X145244689Y-86856484D01*
X145260072Y-86700300D01*
X145260072Y-86375300D01*
X145244689Y-86219116D01*
X145199132Y-86068934D01*
X145125151Y-85930526D01*
X145025590Y-85809210D01*
X144904274Y-85709649D01*
X144765866Y-85635668D01*
X144615684Y-85590111D01*
X144459500Y-85574728D01*
X143474500Y-85574728D01*
X143367162Y-85585300D01*
X140762785Y-85585300D01*
X140716000Y-85580692D01*
X140669215Y-85585300D01*
X140529277Y-85599083D01*
X140349731Y-85653548D01*
X140184259Y-85741994D01*
X140039222Y-85861022D01*
X140009397Y-85897364D01*
X139186564Y-86720198D01*
X139150223Y-86750022D01*
X139120399Y-86786363D01*
X139031194Y-86895060D01*
X138942749Y-87060531D01*
X138888283Y-87240078D01*
X138869892Y-87426800D01*
X137592235Y-87426800D01*
X137612889Y-87156079D01*
X137846696Y-86013265D01*
X138221889Y-84908778D01*
X138732558Y-83860015D01*
X139370639Y-82883532D01*
X139829379Y-82343800D01*
X146206928Y-82343800D01*
X146210000Y-82583050D01*
X146368750Y-82741800D01*
X147193000Y-82741800D01*
X147193000Y-81867550D01*
X147447000Y-81867550D01*
X147447000Y-82741800D01*
X148271250Y-82741800D01*
X148430000Y-82583050D01*
X148433072Y-82343800D01*
X148420812Y-82219318D01*
X148384502Y-82099620D01*
X148325537Y-81989306D01*
X148246185Y-81892615D01*
X148149494Y-81813263D01*
X148039180Y-81754298D01*
X147919482Y-81717988D01*
X147795000Y-81705728D01*
X147605750Y-81708800D01*
X147447000Y-81867550D01*
X147193000Y-81867550D01*
X147034250Y-81708800D01*
X146845000Y-81705728D01*
X146720518Y-81717988D01*
X146600820Y-81754298D01*
X146490506Y-81813263D01*
X146393815Y-81892615D01*
X146314463Y-81989306D01*
X146255498Y-82099620D01*
X146219188Y-82219318D01*
X146206928Y-82343800D01*
X139829379Y-82343800D01*
X140126080Y-81994716D01*
X140986958Y-81207594D01*
X141939702Y-80534575D01*
X142969289Y-79986271D01*
X144059470Y-79571335D01*
X145193068Y-79296305D01*
X146352189Y-79165522D01*
X147518564Y-79181046D01*
G37*
X147518564Y-79181046D02*
X148673804Y-79342635D01*
X149799675Y-79647739D01*
X150878430Y-80091545D01*
X151893057Y-80667058D01*
X152827546Y-81365194D01*
X153667173Y-82174952D01*
X154398686Y-83083554D01*
X155010555Y-84076679D01*
X155493128Y-85138661D01*
X155838791Y-86252743D01*
X156042099Y-87401373D01*
X156099843Y-88566425D01*
X156011111Y-89729521D01*
X155776306Y-90877212D01*
X155506715Y-91708774D01*
X155503511Y-91714768D01*
X155462912Y-91848604D01*
X155452639Y-91952911D01*
X155452640Y-95852800D01*
X138176000Y-95852800D01*
X138176000Y-91965123D01*
X138165727Y-91860816D01*
X138125128Y-91726980D01*
X138124060Y-91724981D01*
X137785209Y-90632857D01*
X137581901Y-89484228D01*
X137524157Y-88319174D01*
X137592235Y-87426800D01*
X138869892Y-87426800D01*
X138874501Y-87473594D01*
X138874500Y-90555015D01*
X138869892Y-90601800D01*
X138877283Y-90676839D01*
X138888283Y-90788522D01*
X138942748Y-90968068D01*
X139031194Y-91133541D01*
X139150222Y-91278578D01*
X139186569Y-91308407D01*
X139760413Y-91882251D01*
X139750925Y-91893812D01*
X139739266Y-91915625D01*
X139667820Y-91937298D01*
X139557506Y-91996263D01*
X139460815Y-92075615D01*
X139381463Y-92172306D01*
X139322498Y-92282620D01*
X139286188Y-92402318D01*
X139273928Y-92526800D01*
X139273928Y-95026800D01*
X139286188Y-95151282D01*
X139322498Y-95270980D01*
X139381463Y-95381294D01*
X139460815Y-95477985D01*
X139557506Y-95557337D01*
X139667820Y-95616302D01*
X139787518Y-95652612D01*
X139912000Y-95664872D01*
X141712000Y-95664872D01*
X141836482Y-95652612D01*
X141956180Y-95616302D01*
X142012000Y-95586465D01*
X142067820Y-95616302D01*
X142187518Y-95652612D01*
X142312000Y-95664872D01*
X144112000Y-95664872D01*
X144236482Y-95652612D01*
X144356180Y-95616302D01*
X144412000Y-95586465D01*
X144467820Y-95616302D01*
X144587518Y-95652612D01*
X144712000Y-95664872D01*
X145326250Y-95661800D01*
X145485000Y-95503050D01*
X145485000Y-93903800D01*
X145465000Y-93903800D01*
X145465000Y-93649800D01*
X145485000Y-93649800D01*
X145485000Y-92050550D01*
X145739000Y-92050550D01*
X145739000Y-93649800D01*
X145759000Y-93649800D01*
X145759000Y-93903800D01*
X145739000Y-93903800D01*
X145739000Y-95503050D01*
X145897750Y-95661800D01*
X146512000Y-95664872D01*
X146636482Y-95652612D01*
X146756180Y-95616302D01*
X146812000Y-95586465D01*
X146867820Y-95616302D01*
X146987518Y-95652612D01*
X147112000Y-95664872D01*
X148912000Y-95664872D01*
X149036482Y-95652612D01*
X149156180Y-95616302D01*
X149212000Y-95586465D01*
X149267820Y-95616302D01*
X149387518Y-95652612D01*
X149512000Y-95664872D01*
X151312000Y-95664872D01*
X151436482Y-95652612D01*
X151556180Y-95616302D01*
X151612000Y-95586465D01*
X151667820Y-95616302D01*
X151787518Y-95652612D01*
X151912000Y-95664872D01*
X153712000Y-95664872D01*
X153836482Y-95652612D01*
X153956180Y-95616302D01*
X154066494Y-95557337D01*
X154163185Y-95477985D01*
X154242537Y-95381294D01*
X154301502Y-95270980D01*
X154337812Y-95151282D01*
X154350072Y-95026800D01*
X154350072Y-92526800D01*
X154337812Y-92402318D01*
X154301502Y-92282620D01*
X154260687Y-92206262D01*
X154286623Y-92120763D01*
X154305000Y-91934180D01*
X154305000Y-91934179D01*
X154311144Y-91871800D01*
X154305000Y-91809420D01*
X154305000Y-86600180D01*
X154311144Y-86537800D01*
X154286623Y-86288837D01*
X154214003Y-86049441D01*
X154096075Y-85828812D01*
X153998280Y-85709649D01*
X153977135Y-85683883D01*
X153977132Y-85683880D01*
X153937370Y-85635430D01*
X153888919Y-85595668D01*
X152058141Y-83764891D01*
X152018370Y-83716430D01*
X151824988Y-83557725D01*
X151604359Y-83439797D01*
X151364963Y-83367177D01*
X151178380Y-83348800D01*
X151178373Y-83348800D01*
X151116000Y-83342657D01*
X151053627Y-83348800D01*
X148432494Y-83348800D01*
X148430000Y-83154550D01*
X148271250Y-82995800D01*
X147447000Y-82995800D01*
X147447000Y-83015800D01*
X147193000Y-83015800D01*
X147193000Y-82995800D01*
X146368750Y-82995800D01*
X146210000Y-83154550D01*
X146206928Y-83393800D01*
X146219188Y-83518282D01*
X146255498Y-83637980D01*
X146314463Y-83748294D01*
X146352971Y-83795217D01*
X146258925Y-83909812D01*
X146140997Y-84130441D01*
X146068377Y-84369837D01*
X146043856Y-84618800D01*
X146068377Y-84867763D01*
X146140997Y-85107159D01*
X146258925Y-85327788D01*
X146367500Y-85460087D01*
X146367501Y-87126006D01*
X146362892Y-87172800D01*
X146381283Y-87359522D01*
X146435749Y-87539069D01*
X146524194Y-87704540D01*
X146544927Y-87729803D01*
X146643223Y-87849578D01*
X146679565Y-87879403D01*
X147248389Y-88448226D01*
X147278222Y-88484578D01*
X147423259Y-88603606D01*
X147471745Y-88629522D01*
X147588730Y-88692052D01*
X147652944Y-88711531D01*
X147768277Y-88746517D01*
X147908215Y-88760300D01*
X147955000Y-88764908D01*
X148001785Y-88760300D01*
X148383243Y-88760300D01*
X148379071Y-88774055D01*
X148363928Y-88927800D01*
X148363928Y-89227800D01*
X148379071Y-89381545D01*
X148383823Y-89397210D01*
X148263277Y-89409083D01*
X148083731Y-89463548D01*
X147994186Y-89511411D01*
X147763037Y-89534177D01*
X147523641Y-89606797D01*
X147303012Y-89724725D01*
X147109630Y-89883430D01*
X146950925Y-90076813D01*
X146832997Y-90297442D01*
X146760377Y-90536838D01*
X146742000Y-90723421D01*
X146742000Y-91932997D01*
X146636482Y-91900988D01*
X146512000Y-91888728D01*
X145897750Y-91891800D01*
X145739000Y-92050550D01*
X145485000Y-92050550D01*
X145326250Y-91891800D01*
X144712000Y-91888728D01*
X144587518Y-91900988D01*
X144467820Y-91937298D01*
X144412000Y-91967135D01*
X144377137Y-91948500D01*
X144273075Y-91753812D01*
X144114370Y-91560430D01*
X143920988Y-91401725D01*
X143700359Y-91283797D01*
X143684933Y-91279117D01*
X143840000Y-91124050D01*
X143840000Y-90474800D01*
X144094000Y-90474800D01*
X144094000Y-91124050D01*
X144252750Y-91282800D01*
X144622000Y-91285872D01*
X144746482Y-91273612D01*
X144866180Y-91237302D01*
X144976494Y-91178337D01*
X145073185Y-91098985D01*
X145152537Y-91002294D01*
X145211502Y-90891980D01*
X145247812Y-90772282D01*
X145260072Y-90647800D01*
X145257000Y-90633550D01*
X145098250Y-90474800D01*
X144094000Y-90474800D01*
X143840000Y-90474800D01*
X143820000Y-90474800D01*
X143820000Y-90220800D01*
X143840000Y-90220800D01*
X143840000Y-89204800D01*
X144094000Y-89204800D01*
X144094000Y-90220800D01*
X145098250Y-90220800D01*
X145257000Y-90062050D01*
X145260072Y-90047800D01*
X145247812Y-89923318D01*
X145211502Y-89803620D01*
X145162957Y-89712800D01*
X145211502Y-89621980D01*
X145247812Y-89502282D01*
X145260072Y-89377800D01*
X145257000Y-89363550D01*
X145098250Y-89204800D01*
X144094000Y-89204800D01*
X143840000Y-89204800D01*
X142835750Y-89204800D01*
X142677000Y-89363550D01*
X142673928Y-89377800D01*
X142686188Y-89502282D01*
X142722498Y-89621980D01*
X142771043Y-89712800D01*
X142722498Y-89803620D01*
X142686188Y-89923318D01*
X142673928Y-90047800D01*
X142677000Y-90062050D01*
X142835748Y-90220798D01*
X142677000Y-90220798D01*
X142677000Y-90326762D01*
X142049500Y-89699262D01*
X142049500Y-88837338D01*
X142126537Y-88760300D01*
X142675652Y-88760300D01*
X142673928Y-88777800D01*
X142677000Y-88792050D01*
X142835750Y-88950800D01*
X143840000Y-88950800D01*
X143840000Y-88930800D01*
X144094000Y-88930800D01*
X144094000Y-88950800D01*
X145098250Y-88950800D01*
X145257000Y-88792050D01*
X145260072Y-88777800D01*
X145247812Y-88653318D01*
X145211502Y-88533620D01*
X145152537Y-88423306D01*
X145128270Y-88393736D01*
X145200084Y-88259382D01*
X145244929Y-88111545D01*
X145260072Y-87957800D01*
X145260072Y-87657800D01*
X145244929Y-87504055D01*
X145200084Y-87356218D01*
X145127258Y-87219971D01*
X145095471Y-87181239D01*
X145125151Y-87145074D01*
X145199132Y-87006666D01*
X145244689Y-86856484D01*
X145260072Y-86700300D01*
X145260072Y-86375300D01*
X145244689Y-86219116D01*
X145199132Y-86068934D01*
X145125151Y-85930526D01*
X145025590Y-85809210D01*
X144904274Y-85709649D01*
X144765866Y-85635668D01*
X144615684Y-85590111D01*
X144459500Y-85574728D01*
X143474500Y-85574728D01*
X143367162Y-85585300D01*
X140762785Y-85585300D01*
X140716000Y-85580692D01*
X140669215Y-85585300D01*
X140529277Y-85599083D01*
X140349731Y-85653548D01*
X140184259Y-85741994D01*
X140039222Y-85861022D01*
X140009397Y-85897364D01*
X139186564Y-86720198D01*
X139150223Y-86750022D01*
X139120399Y-86786363D01*
X139031194Y-86895060D01*
X138942749Y-87060531D01*
X138888283Y-87240078D01*
X138869892Y-87426800D01*
X137592235Y-87426800D01*
X137612889Y-87156079D01*
X137846696Y-86013265D01*
X138221889Y-84908778D01*
X138732558Y-83860015D01*
X139370639Y-82883532D01*
X139829379Y-82343800D01*
X146206928Y-82343800D01*
X146210000Y-82583050D01*
X146368750Y-82741800D01*
X147193000Y-82741800D01*
X147193000Y-81867550D01*
X147447000Y-81867550D01*
X147447000Y-82741800D01*
X148271250Y-82741800D01*
X148430000Y-82583050D01*
X148433072Y-82343800D01*
X148420812Y-82219318D01*
X148384502Y-82099620D01*
X148325537Y-81989306D01*
X148246185Y-81892615D01*
X148149494Y-81813263D01*
X148039180Y-81754298D01*
X147919482Y-81717988D01*
X147795000Y-81705728D01*
X147605750Y-81708800D01*
X147447000Y-81867550D01*
X147193000Y-81867550D01*
X147034250Y-81708800D01*
X146845000Y-81705728D01*
X146720518Y-81717988D01*
X146600820Y-81754298D01*
X146490506Y-81813263D01*
X146393815Y-81892615D01*
X146314463Y-81989306D01*
X146255498Y-82099620D01*
X146219188Y-82219318D01*
X146206928Y-82343800D01*
X139829379Y-82343800D01*
X140126080Y-81994716D01*
X140986958Y-81207594D01*
X141939702Y-80534575D01*
X142969289Y-79986271D01*
X144059470Y-79571335D01*
X145193068Y-79296305D01*
X146352189Y-79165522D01*
X147518564Y-79181046D01*
M02*
