G04 #@! TF.GenerationSoftware,KiCad,Pcbnew,5.1.6+dfsg1-1~bpo10+1*
G04 #@! TF.CreationDate,2020-07-18T22:19:58-05:00*
G04 #@! TF.ProjectId,BMagSensBoard,424d6167-5365-46e7-9342-6f6172642e6b,v1.0*
G04 #@! TF.SameCoordinates,Original*
G04 #@! TF.FileFunction,Soldermask,Top*
G04 #@! TF.FilePolarity,Negative*
%FSLAX46Y46*%
G04 Gerber Fmt 4.6, Leading zero omitted, Abs format (unit mm)*
G04 Created by KiCad (PCBNEW 5.1.6+dfsg1-1~bpo10+1) date 2020-07-18 22:19:58*
%MOMM*%
%LPD*%
G01*
G04 APERTURE LIST*
%ADD10C,0.100000*%
G04 APERTURE END LIST*
D10*
G36*
X151363000Y-95077800D02*
G01*
X149461000Y-95077800D01*
X149461000Y-92475800D01*
X151363000Y-92475800D01*
X151363000Y-95077800D01*
G37*
G36*
X144163000Y-95077800D02*
G01*
X142261000Y-95077800D01*
X142261000Y-92475800D01*
X144163000Y-92475800D01*
X144163000Y-95077800D01*
G37*
G36*
X148963000Y-95077800D02*
G01*
X147061000Y-95077800D01*
X147061000Y-92475800D01*
X148963000Y-92475800D01*
X148963000Y-95077800D01*
G37*
G36*
X146563000Y-95077800D02*
G01*
X144661000Y-95077800D01*
X144661000Y-92475800D01*
X146563000Y-92475800D01*
X146563000Y-95077800D01*
G37*
G36*
X141763000Y-95077800D02*
G01*
X139861000Y-95077800D01*
X139861000Y-92475800D01*
X141763000Y-92475800D01*
X141763000Y-95077800D01*
G37*
G36*
X153763000Y-95077800D02*
G01*
X151861000Y-95077800D01*
X151861000Y-92475800D01*
X153763000Y-92475800D01*
X153763000Y-95077800D01*
G37*
G36*
X145071928Y-89999564D02*
G01*
X145093009Y-90005960D01*
X145112445Y-90016348D01*
X145129476Y-90030324D01*
X145143452Y-90047355D01*
X145153840Y-90066791D01*
X145160236Y-90087872D01*
X145163000Y-90115940D01*
X145163000Y-90579660D01*
X145160236Y-90607728D01*
X145153840Y-90628809D01*
X145143452Y-90648245D01*
X145129476Y-90665276D01*
X145112445Y-90679252D01*
X145093009Y-90689640D01*
X145071928Y-90696036D01*
X145043860Y-90698800D01*
X143430140Y-90698800D01*
X143402072Y-90696036D01*
X143380991Y-90689640D01*
X143361555Y-90679252D01*
X143344524Y-90665276D01*
X143330548Y-90648245D01*
X143320160Y-90628809D01*
X143313764Y-90607728D01*
X143311000Y-90579660D01*
X143311000Y-90115940D01*
X143313764Y-90087872D01*
X143320160Y-90066791D01*
X143330548Y-90047355D01*
X143344524Y-90030324D01*
X143361555Y-90016348D01*
X143380991Y-90005960D01*
X143402072Y-89999564D01*
X143430140Y-89996800D01*
X145043860Y-89996800D01*
X145071928Y-89999564D01*
G37*
G36*
X150221928Y-89999564D02*
G01*
X150243009Y-90005960D01*
X150262445Y-90016348D01*
X150279476Y-90030324D01*
X150293452Y-90047355D01*
X150303840Y-90066791D01*
X150310236Y-90087872D01*
X150313000Y-90115940D01*
X150313000Y-90579660D01*
X150310236Y-90607728D01*
X150303840Y-90628809D01*
X150293452Y-90648245D01*
X150279476Y-90665276D01*
X150262445Y-90679252D01*
X150243009Y-90689640D01*
X150221928Y-90696036D01*
X150193860Y-90698800D01*
X148580140Y-90698800D01*
X148552072Y-90696036D01*
X148530991Y-90689640D01*
X148511555Y-90679252D01*
X148494524Y-90665276D01*
X148480548Y-90648245D01*
X148470160Y-90628809D01*
X148463764Y-90607728D01*
X148461000Y-90579660D01*
X148461000Y-90115940D01*
X148463764Y-90087872D01*
X148470160Y-90066791D01*
X148480548Y-90047355D01*
X148494524Y-90030324D01*
X148511555Y-90016348D01*
X148530991Y-90005960D01*
X148552072Y-89999564D01*
X148580140Y-89996800D01*
X150193860Y-89996800D01*
X150221928Y-89999564D01*
G37*
G36*
X150221928Y-88729564D02*
G01*
X150243009Y-88735960D01*
X150262445Y-88746348D01*
X150279476Y-88760324D01*
X150293452Y-88777355D01*
X150303840Y-88796791D01*
X150310236Y-88817872D01*
X150313000Y-88845940D01*
X150313000Y-89309660D01*
X150310236Y-89337728D01*
X150303840Y-89358809D01*
X150293452Y-89378245D01*
X150279476Y-89395276D01*
X150262445Y-89409252D01*
X150243009Y-89419640D01*
X150221928Y-89426036D01*
X150193860Y-89428800D01*
X148580140Y-89428800D01*
X148552072Y-89426036D01*
X148530991Y-89419640D01*
X148511555Y-89409252D01*
X148494524Y-89395276D01*
X148480548Y-89378245D01*
X148470160Y-89358809D01*
X148463764Y-89337728D01*
X148461000Y-89309660D01*
X148461000Y-88845940D01*
X148463764Y-88817872D01*
X148470160Y-88796791D01*
X148480548Y-88777355D01*
X148494524Y-88760324D01*
X148511555Y-88746348D01*
X148530991Y-88735960D01*
X148552072Y-88729564D01*
X148580140Y-88726800D01*
X150193860Y-88726800D01*
X150221928Y-88729564D01*
G37*
G36*
X145071928Y-88729564D02*
G01*
X145093009Y-88735960D01*
X145112445Y-88746348D01*
X145129476Y-88760324D01*
X145143452Y-88777355D01*
X145153840Y-88796791D01*
X145160236Y-88817872D01*
X145163000Y-88845940D01*
X145163000Y-89309660D01*
X145160236Y-89337728D01*
X145153840Y-89358809D01*
X145143452Y-89378245D01*
X145129476Y-89395276D01*
X145112445Y-89409252D01*
X145093009Y-89419640D01*
X145071928Y-89426036D01*
X145043860Y-89428800D01*
X143430140Y-89428800D01*
X143402072Y-89426036D01*
X143380991Y-89419640D01*
X143361555Y-89409252D01*
X143344524Y-89395276D01*
X143330548Y-89378245D01*
X143320160Y-89358809D01*
X143313764Y-89337728D01*
X143311000Y-89309660D01*
X143311000Y-88845940D01*
X143313764Y-88817872D01*
X143320160Y-88796791D01*
X143330548Y-88777355D01*
X143344524Y-88760324D01*
X143361555Y-88746348D01*
X143380991Y-88735960D01*
X143402072Y-88729564D01*
X143430140Y-88726800D01*
X145043860Y-88726800D01*
X145071928Y-88729564D01*
G37*
G36*
X145071928Y-87459564D02*
G01*
X145093009Y-87465960D01*
X145112445Y-87476348D01*
X145129476Y-87490324D01*
X145143452Y-87507355D01*
X145153840Y-87526791D01*
X145160236Y-87547872D01*
X145163000Y-87575940D01*
X145163000Y-88039660D01*
X145160236Y-88067728D01*
X145153840Y-88088809D01*
X145143452Y-88108245D01*
X145129476Y-88125276D01*
X145112445Y-88139252D01*
X145093009Y-88149640D01*
X145071928Y-88156036D01*
X145043860Y-88158800D01*
X143430140Y-88158800D01*
X143402072Y-88156036D01*
X143380991Y-88149640D01*
X143361555Y-88139252D01*
X143344524Y-88125276D01*
X143330548Y-88108245D01*
X143320160Y-88088809D01*
X143313764Y-88067728D01*
X143311000Y-88039660D01*
X143311000Y-87575940D01*
X143313764Y-87547872D01*
X143320160Y-87526791D01*
X143330548Y-87507355D01*
X143344524Y-87490324D01*
X143361555Y-87476348D01*
X143380991Y-87465960D01*
X143402072Y-87459564D01*
X143430140Y-87456800D01*
X145043860Y-87456800D01*
X145071928Y-87459564D01*
G37*
G36*
X150221928Y-87459564D02*
G01*
X150243009Y-87465960D01*
X150262445Y-87476348D01*
X150279476Y-87490324D01*
X150293452Y-87507355D01*
X150303840Y-87526791D01*
X150310236Y-87547872D01*
X150313000Y-87575940D01*
X150313000Y-88039660D01*
X150310236Y-88067728D01*
X150303840Y-88088809D01*
X150293452Y-88108245D01*
X150279476Y-88125276D01*
X150262445Y-88139252D01*
X150243009Y-88149640D01*
X150221928Y-88156036D01*
X150193860Y-88158800D01*
X148580140Y-88158800D01*
X148552072Y-88156036D01*
X148530991Y-88149640D01*
X148511555Y-88139252D01*
X148494524Y-88125276D01*
X148480548Y-88108245D01*
X148470160Y-88088809D01*
X148463764Y-88067728D01*
X148461000Y-88039660D01*
X148461000Y-87575940D01*
X148463764Y-87547872D01*
X148470160Y-87526791D01*
X148480548Y-87507355D01*
X148494524Y-87490324D01*
X148511555Y-87476348D01*
X148530991Y-87465960D01*
X148552072Y-87459564D01*
X148580140Y-87456800D01*
X150193860Y-87456800D01*
X150221928Y-87459564D01*
G37*
G36*
X145071928Y-86189564D02*
G01*
X145093009Y-86195960D01*
X145112445Y-86206348D01*
X145129476Y-86220324D01*
X145143452Y-86237355D01*
X145153840Y-86256791D01*
X145160236Y-86277872D01*
X145163000Y-86305940D01*
X145163000Y-86769660D01*
X145160236Y-86797728D01*
X145153840Y-86818809D01*
X145143452Y-86838245D01*
X145129476Y-86855276D01*
X145112445Y-86869252D01*
X145093009Y-86879640D01*
X145071928Y-86886036D01*
X145043860Y-86888800D01*
X143430140Y-86888800D01*
X143402072Y-86886036D01*
X143380991Y-86879640D01*
X143361555Y-86869252D01*
X143344524Y-86855276D01*
X143330548Y-86838245D01*
X143320160Y-86818809D01*
X143313764Y-86797728D01*
X143311000Y-86769660D01*
X143311000Y-86305940D01*
X143313764Y-86277872D01*
X143320160Y-86256791D01*
X143330548Y-86237355D01*
X143344524Y-86220324D01*
X143361555Y-86206348D01*
X143380991Y-86195960D01*
X143402072Y-86189564D01*
X143430140Y-86186800D01*
X145043860Y-86186800D01*
X145071928Y-86189564D01*
G37*
G36*
X150221928Y-86189564D02*
G01*
X150243009Y-86195960D01*
X150262445Y-86206348D01*
X150279476Y-86220324D01*
X150293452Y-86237355D01*
X150303840Y-86256791D01*
X150310236Y-86277872D01*
X150313000Y-86305940D01*
X150313000Y-86769660D01*
X150310236Y-86797728D01*
X150303840Y-86818809D01*
X150293452Y-86838245D01*
X150279476Y-86855276D01*
X150262445Y-86869252D01*
X150243009Y-86879640D01*
X150221928Y-86886036D01*
X150193860Y-86888800D01*
X148580140Y-86888800D01*
X148552072Y-86886036D01*
X148530991Y-86879640D01*
X148511555Y-86869252D01*
X148494524Y-86855276D01*
X148480548Y-86838245D01*
X148470160Y-86818809D01*
X148463764Y-86797728D01*
X148461000Y-86769660D01*
X148461000Y-86305940D01*
X148463764Y-86277872D01*
X148470160Y-86256791D01*
X148480548Y-86237355D01*
X148494524Y-86220324D01*
X148511555Y-86206348D01*
X148530991Y-86195960D01*
X148552072Y-86189564D01*
X148580140Y-86186800D01*
X150193860Y-86186800D01*
X150221928Y-86189564D01*
G37*
G36*
X147684499Y-84047245D02*
G01*
X147721995Y-84058620D01*
X147756554Y-84077092D01*
X147786847Y-84101953D01*
X147811708Y-84132246D01*
X147830180Y-84166805D01*
X147841555Y-84204301D01*
X147846000Y-84249438D01*
X147846000Y-84988162D01*
X147841555Y-85033299D01*
X147830180Y-85070795D01*
X147811708Y-85105354D01*
X147786847Y-85135647D01*
X147756554Y-85160508D01*
X147721995Y-85178980D01*
X147684499Y-85190355D01*
X147639362Y-85194800D01*
X147000638Y-85194800D01*
X146955501Y-85190355D01*
X146918005Y-85178980D01*
X146883446Y-85160508D01*
X146853153Y-85135647D01*
X146828292Y-85105354D01*
X146809820Y-85070795D01*
X146798445Y-85033299D01*
X146794000Y-84988162D01*
X146794000Y-84249438D01*
X146798445Y-84204301D01*
X146809820Y-84166805D01*
X146828292Y-84132246D01*
X146853153Y-84101953D01*
X146883446Y-84077092D01*
X146918005Y-84058620D01*
X146955501Y-84047245D01*
X147000638Y-84042800D01*
X147639362Y-84042800D01*
X147684499Y-84047245D01*
G37*
G36*
X147684499Y-82297245D02*
G01*
X147721995Y-82308620D01*
X147756554Y-82327092D01*
X147786847Y-82351953D01*
X147811708Y-82382246D01*
X147830180Y-82416805D01*
X147841555Y-82454301D01*
X147846000Y-82499438D01*
X147846000Y-83238162D01*
X147841555Y-83283299D01*
X147830180Y-83320795D01*
X147811708Y-83355354D01*
X147786847Y-83385647D01*
X147756554Y-83410508D01*
X147721995Y-83428980D01*
X147684499Y-83440355D01*
X147639362Y-83444800D01*
X147000638Y-83444800D01*
X146955501Y-83440355D01*
X146918005Y-83428980D01*
X146883446Y-83410508D01*
X146853153Y-83385647D01*
X146828292Y-83355354D01*
X146809820Y-83320795D01*
X146798445Y-83283299D01*
X146794000Y-83238162D01*
X146794000Y-82499438D01*
X146798445Y-82454301D01*
X146809820Y-82416805D01*
X146828292Y-82382246D01*
X146853153Y-82351953D01*
X146883446Y-82327092D01*
X146918005Y-82308620D01*
X146955501Y-82297245D01*
X147000638Y-82292800D01*
X147639362Y-82292800D01*
X147684499Y-82297245D01*
G37*
M02*
