<?xml version="1.0" standalone="no"?>
 <!DOCTYPE svg PUBLIC "-//W3C//DTD SVG 1.1//EN" 
 "http://www.w3.org/Graphics/SVG/1.1/DTD/svg11.dtd"> 
<svg
  xmlns:svg="http://www.w3.org/2000/svg"
  xmlns="http://www.w3.org/2000/svg"
  xmlns:xlink="http://www.w3.org/1999/xlink"
  version="1.1"
  width="27.940000cm" height="21.590000cm" viewBox="0 0 110000 85000">
<title>SVG Picture created as BMagSensBoard-F_Mask.svg date 2020/08/14 14:34:50 </title>
  <desc>Picture generated by PCBNEW </desc>
<g style="fill:#000000; fill-opacity:1;stroke:#000000; stroke-opacity:1;
stroke-linecap:round; stroke-linejoin:round;"
 transform="translate(0 0) scale(1 1)">
</g>
<g style="fill:#000000; fill-opacity:0.0; 
stroke:#000000; stroke-width:-0.000393701; stroke-opacity:1; 
stroke-linecap:round; stroke-linejoin:round;">
</g>
<g style="fill:#000000; fill-opacity:1.0; 
stroke:#000000; stroke-width:0; stroke-opacity:1; 
stroke-linecap:round; stroke-linejoin:round;">
<path style="fill:#000000; fill-opacity:1.0; 
stroke:#000000; stroke-width:0; stroke-opacity:1; 
stroke-linecap:round; stroke-linejoin:round;fill-rule:evenodd;"
d="M 56757.1,37432.2
56008.3,37432.2
56008.3,36407.8
56757.1,36407.8
Z" /> 
<path style="fill:#000000; fill-opacity:1.0; 
stroke:#000000; stroke-width:0; stroke-opacity:1; 
stroke-linecap:round; stroke-linejoin:round;fill-rule:evenodd;"
d="M 59591.7,37432.2
58842.9,37432.2
58842.9,36407.8
59591.7,36407.8
Z" /> 
<path style="fill:#000000; fill-opacity:1.0; 
stroke:#000000; stroke-width:0; stroke-opacity:1; 
stroke-linecap:round; stroke-linejoin:round;fill-rule:evenodd;"
d="M 60536.6,37432.2
59787.8,37432.2
59787.8,36407.8
60536.6,36407.8
Z" /> 
<path style="fill:#000000; fill-opacity:1.0; 
stroke:#000000; stroke-width:0; stroke-opacity:1; 
stroke-linecap:round; stroke-linejoin:round;fill-rule:evenodd;"
d="M 55812.2,37432.2
55063.4,37432.2
55063.4,36407.8
55812.2,36407.8
Z" /> 
<path style="fill:#000000; fill-opacity:1.0; 
stroke:#000000; stroke-width:0; stroke-opacity:1; 
stroke-linecap:round; stroke-linejoin:round;fill-rule:evenodd;"
d="M 57702,37432.2
56953.1,37432.2
56953.1,36407.8
57702,36407.8
Z" /> 
<path style="fill:#000000; fill-opacity:1.0; 
stroke:#000000; stroke-width:0; stroke-opacity:1; 
stroke-linecap:round; stroke-linejoin:round;fill-rule:evenodd;"
d="M 58646.9,37432.2
57898,37432.2
57898,36407.8
58646.9,36407.8
Z" /> 
<path style="fill:#000000; fill-opacity:1.0; 
stroke:#000000; stroke-width:0; stroke-opacity:1; 
stroke-linecap:round; stroke-linejoin:round;fill-rule:evenodd;"
d="M 59162.2,35432.9
59170.5,35435.4
59178.1,35439.5
59184.8,35445
59190.3,35451.7
59194.4,35459.4
59196.9,35467.7
59198,35478.7
59198,35661.3
59196.9,35672.3
59194.4,35680.6
59190.3,35688.3
59184.8,35695
59178.1,35700.5
59170.5,35704.6
59162.2,35707.1
59151.1,35708.2
58689,35708.2
58678,35707.1
58669.7,35704.6
58662,35700.5
58655.3,35695
58649.8,35688.3
58645.7,35680.6
58643.2,35672.3
58642.1,35661.3
58642.1,35478.7
58643.2,35467.7
58645.7,35459.4
58649.8,35451.7
58655.3,35445
58662,35439.5
58669.7,35435.4
58678,35432.9
58689,35431.8
59151.1,35431.8
Z" /> 
<path style="fill:#000000; fill-opacity:1.0; 
stroke:#000000; stroke-width:0; stroke-opacity:1; 
stroke-linecap:round; stroke-linejoin:round;fill-rule:evenodd;"
d="M 56922,35432.9
56930.3,35435.4
56938,35439.5
56944.7,35445
56950.2,35451.7
56954.3,35459.4
56956.8,35467.7
56957.9,35478.7
56957.9,35661.3
56956.8,35672.3
56954.3,35680.6
56950.2,35688.3
56944.7,35695
56938,35700.5
56930.3,35704.6
56922,35707.1
56911,35708.2
56448.9,35708.2
56437.8,35707.1
56429.5,35704.6
56421.9,35700.5
56415.2,35695
56409.7,35688.3
56405.6,35680.6
56403.1,35672.3
56402,35661.3
56402,35478.7
56403.1,35467.7
56405.6,35459.4
56409.7,35451.7
56415.2,35445
56421.9,35439.5
56429.5,35435.4
56437.8,35432.9
56448.9,35431.8
56911,35431.8
Z" /> 
<path style="fill:#000000; fill-opacity:1.0; 
stroke:#000000; stroke-width:0; stroke-opacity:1; 
stroke-linecap:round; stroke-linejoin:round;fill-rule:evenodd;"
d="M 56922,34932.9
56930.3,34935.4
56938,34939.5
56944.7,34945
56950.2,34951.7
56954.3,34959.4
56956.8,34967.7
56957.9,34978.7
56957.9,35161.3
56956.8,35172.3
56954.3,35180.6
56950.2,35188.3
56944.7,35195
56938,35200.5
56930.3,35204.6
56922,35207.1
56911,35208.2
56448.9,35208.2
56437.8,35207.1
56429.5,35204.6
56421.9,35200.5
56415.2,35195
56409.7,35188.3
56405.6,35180.6
56403.1,35172.3
56402,35161.3
56402,34978.7
56403.1,34967.7
56405.6,34959.4
56409.7,34951.7
56415.2,34945
56421.9,34939.5
56429.5,34935.4
56437.8,34932.9
56448.9,34931.8
56911,34931.8
Z" /> 
<path style="fill:#000000; fill-opacity:1.0; 
stroke:#000000; stroke-width:0; stroke-opacity:1; 
stroke-linecap:round; stroke-linejoin:round;fill-rule:evenodd;"
d="M 59162.2,34932.9
59170.5,34935.4
59178.1,34939.5
59184.8,34945
59190.3,34951.7
59194.4,34959.4
59196.9,34967.7
59198,34978.7
59198,35161.3
59196.9,35172.3
59194.4,35180.6
59190.3,35188.3
59184.8,35195
59178.1,35200.5
59170.5,35204.6
59162.2,35207.1
59151.1,35208.2
58689,35208.2
58678,35207.1
58669.7,35204.6
58662,35200.5
58655.3,35195
58649.8,35188.3
58645.7,35180.6
58643.2,35172.3
58642.1,35161.3
58642.1,34978.7
58643.2,34967.7
58645.7,34959.4
58649.8,34951.7
58655.3,34945
58662,34939.5
58669.7,34935.4
58678,34932.9
58689,34931.8
59151.1,34931.8
Z" /> 
<path style="fill:#000000; fill-opacity:1.0; 
stroke:#000000; stroke-width:0; stroke-opacity:1; 
stroke-linecap:round; stroke-linejoin:round;fill-rule:evenodd;"
d="M 56922,34432.9
56930.3,34435.4
56938,34439.5
56944.7,34445
56950.2,34451.7
56954.3,34459.4
56956.8,34467.7
56957.9,34478.7
56957.9,34661.3
56956.8,34672.3
56954.3,34680.6
56950.2,34688.3
56944.7,34695
56938,34700.5
56930.3,34704.6
56922,34707.1
56911,34708.2
56448.9,34708.2
56437.8,34707.1
56429.5,34704.6
56421.9,34700.5
56415.2,34695
56409.7,34688.3
56405.6,34680.6
56403.1,34672.3
56402,34661.3
56402,34478.7
56403.1,34467.7
56405.6,34459.4
56409.7,34451.7
56415.2,34445
56421.9,34439.5
56429.5,34435.4
56437.8,34432.9
56448.9,34431.8
56911,34431.8
Z" /> 
<path style="fill:#000000; fill-opacity:1.0; 
stroke:#000000; stroke-width:0; stroke-opacity:1; 
stroke-linecap:round; stroke-linejoin:round;fill-rule:evenodd;"
d="M 59162.2,34432.9
59170.5,34435.4
59178.1,34439.5
59184.8,34445
59190.3,34451.7
59194.4,34459.4
59196.9,34467.7
59198,34478.7
59198,34661.3
59196.9,34672.3
59194.4,34680.6
59190.3,34688.3
59184.8,34695
59178.1,34700.5
59170.5,34704.6
59162.2,34707.1
59151.1,34708.2
58689,34708.2
58678,34707.1
58669.7,34704.6
58662,34700.5
58655.3,34695
58649.8,34688.3
58645.7,34680.6
58643.2,34672.3
58642.1,34661.3
58642.1,34478.7
58643.2,34467.7
58645.7,34459.4
58649.8,34451.7
58655.3,34445
58662,34439.5
58669.7,34435.4
58678,34432.9
58689,34431.8
59151.1,34431.8
Z" /> 
<path style="fill:#000000; fill-opacity:1.0; 
stroke:#000000; stroke-width:0; stroke-opacity:1; 
stroke-linecap:round; stroke-linejoin:round;fill-rule:evenodd;"
d="M 56918.1,33923.2
56927.3,33925.9
56935.8,33930.5
56943.2,33936.6
56949.3,33944.1
56953.9,33952.6
56956.7,33961.8
56957.9,33973.8
56957.9,34166.2
56956.7,34178.2
56953.9,34187.4
56949.3,34195.9
56943.2,34203.4
56935.8,34209.5
56927.3,34214.1
56918.1,34216.8
56906,34218
56453.8,34218
56441.8,34216.8
56432.6,34214.1
56424.1,34209.5
56416.6,34203.4
56410.5,34195.9
56405.9,34187.4
56403.2,34178.2
56402,34166.2
56402,33973.8
56403.2,33961.8
56405.9,33952.6
56410.5,33944.1
56416.6,33936.6
56424.1,33930.5
56432.6,33925.9
56441.8,33923.2
56453.8,33922
56906,33922
Z" /> 
<path style="fill:#000000; fill-opacity:1.0; 
stroke:#000000; stroke-width:0; stroke-opacity:1; 
stroke-linecap:round; stroke-linejoin:round;fill-rule:evenodd;"
d="M 59160.2,33932.9
59168.5,33935.4
59176.2,33939.5
59182.9,33945
59188.4,33951.7
59192.5,33959.4
59195,33967.7
59196.1,33978.7
59196.1,34161.3
59195,34172.3
59192.5,34180.6
59188.4,34188.3
59182.9,34195
59176.2,34200.5
59168.5,34204.6
59160.2,34207.1
59149.2,34208.2
58687.1,34208.2
58676,34207.1
58667.7,34204.6
58660.1,34200.5
58653.4,34195
58647.9,34188.3
58643.8,34180.6
58641.2,34172.3
58640.2,34161.3
58640.2,33978.7
58641.2,33967.7
58643.8,33959.4
58647.9,33951.7
58653.4,33945
58660.1,33939.5
58667.7,33935.4
58676,33932.9
58687.1,33931.8
59149.2,33931.8
Z" /> 
<path style="fill:#000000; fill-opacity:1.0; 
stroke:#000000; stroke-width:0; stroke-opacity:1; 
stroke-linecap:round; stroke-linejoin:round;fill-rule:evenodd;"
d="M 58143.5,33089.5
58158.3,33093.9
58171.9,33101.2
58183.8,33111
58193.6,33122.9
58200.9,33136.5
58205.3,33151.3
58207.1,33169.1
58207.1,33459.9
58205.3,33477.7
58200.9,33492.4
58193.6,33506
58183.8,33518
58171.9,33527.8
58158.3,33535
58143.5,33539.5
58125.7,33541.3
57874.3,33541.3
57856.5,33539.5
57841.7,33535
57828.1,33527.8
57816.2,33518
57806.4,33506
57799.1,33492.4
57794.7,33477.7
57792.9,33459.9
57792.9,33169.1
57794.7,33151.3
57799.1,33136.5
57806.4,33122.9
57816.2,33111
57828.1,33101.2
57841.7,33093.9
57856.5,33089.5
57874.3,33087.7
58125.7,33087.7
Z" /> 
<path style="fill:#000000; fill-opacity:1.0; 
stroke:#000000; stroke-width:0; stroke-opacity:1; 
stroke-linecap:round; stroke-linejoin:round;fill-rule:evenodd;"
d="M 58143.5,32400.5
58158.3,32405
58171.9,32412.2
58183.8,32422
58193.6,32434
58200.9,32447.6
58205.3,32462.3
58207.1,32480.1
58207.1,32770.9
58205.3,32788.7
58200.9,32803.5
58193.6,32817.1
58183.8,32829
58171.9,32838.8
58158.3,32846.1
58143.5,32850.5
58125.7,32852.3
57874.3,32852.3
57856.5,32850.5
57841.7,32846.1
57828.1,32838.8
57816.2,32829
57806.4,32817.1
57799.1,32803.5
57794.7,32788.7
57792.9,32770.9
57792.9,32480.1
57794.7,32462.3
57799.1,32447.6
57806.4,32434
57816.2,32422
57828.1,32412.2
57841.7,32405
57856.5,32400.5
57874.3,32398.7
58125.7,32398.7
Z" /> 
</g> 
</svg>
