G04 #@! TF.GenerationSoftware,KiCad,Pcbnew,5.1.6+dfsg1-1~bpo10+1*
G04 #@! TF.CreationDate,2020-07-24T12:50:56-05:00*
G04 #@! TF.ProjectId,BMagSensBoard,424d6167-5365-46e7-9342-6f6172642e6b,v1.0*
G04 #@! TF.SameCoordinates,Original*
G04 #@! TF.FileFunction,Soldermask,Top*
G04 #@! TF.FilePolarity,Negative*
%FSLAX46Y46*%
G04 Gerber Fmt 4.6, Leading zero omitted, Abs format (unit mm)*
G04 Created by KiCad (PCBNEW 5.1.6+dfsg1-1~bpo10+1) date 2020-07-24 12:50:56*
%MOMM*%
%LPD*%
G01*
G04 APERTURE LIST*
%ADD10C,0.100000*%
G04 APERTURE END LIST*
D10*
G36*
X144163000Y-95077800D02*
G01*
X142261000Y-95077800D01*
X142261000Y-92475800D01*
X144163000Y-92475800D01*
X144163000Y-95077800D01*
G37*
G36*
X151363000Y-95077800D02*
G01*
X149461000Y-95077800D01*
X149461000Y-92475800D01*
X151363000Y-92475800D01*
X151363000Y-95077800D01*
G37*
G36*
X153763000Y-95077800D02*
G01*
X151861000Y-95077800D01*
X151861000Y-92475800D01*
X153763000Y-92475800D01*
X153763000Y-95077800D01*
G37*
G36*
X141763000Y-95077800D02*
G01*
X139861000Y-95077800D01*
X139861000Y-92475800D01*
X141763000Y-92475800D01*
X141763000Y-95077800D01*
G37*
G36*
X146563000Y-95077800D02*
G01*
X144661000Y-95077800D01*
X144661000Y-92475800D01*
X146563000Y-92475800D01*
X146563000Y-95077800D01*
G37*
G36*
X148963000Y-95077800D02*
G01*
X147061000Y-95077800D01*
X147061000Y-92475800D01*
X148963000Y-92475800D01*
X148963000Y-95077800D01*
G37*
G36*
X150271928Y-89999564D02*
G01*
X150293009Y-90005960D01*
X150312445Y-90016348D01*
X150329476Y-90030324D01*
X150343452Y-90047355D01*
X150353840Y-90066791D01*
X150360236Y-90087872D01*
X150363000Y-90115940D01*
X150363000Y-90579660D01*
X150360236Y-90607728D01*
X150353840Y-90628809D01*
X150343452Y-90648245D01*
X150329476Y-90665276D01*
X150312445Y-90679252D01*
X150293009Y-90689640D01*
X150271928Y-90696036D01*
X150243860Y-90698800D01*
X149070140Y-90698800D01*
X149042072Y-90696036D01*
X149020991Y-90689640D01*
X149001555Y-90679252D01*
X148984524Y-90665276D01*
X148970548Y-90648245D01*
X148960160Y-90628809D01*
X148953764Y-90607728D01*
X148951000Y-90579660D01*
X148951000Y-90115940D01*
X148953764Y-90087872D01*
X148960160Y-90066791D01*
X148970548Y-90047355D01*
X148984524Y-90030324D01*
X149001555Y-90016348D01*
X149020991Y-90005960D01*
X149042072Y-89999564D01*
X149070140Y-89996800D01*
X150243860Y-89996800D01*
X150271928Y-89999564D01*
G37*
G36*
X144581928Y-89999564D02*
G01*
X144603009Y-90005960D01*
X144622445Y-90016348D01*
X144639476Y-90030324D01*
X144653452Y-90047355D01*
X144663840Y-90066791D01*
X144670236Y-90087872D01*
X144673000Y-90115940D01*
X144673000Y-90579660D01*
X144670236Y-90607728D01*
X144663840Y-90628809D01*
X144653452Y-90648245D01*
X144639476Y-90665276D01*
X144622445Y-90679252D01*
X144603009Y-90689640D01*
X144581928Y-90696036D01*
X144553860Y-90698800D01*
X143380140Y-90698800D01*
X143352072Y-90696036D01*
X143330991Y-90689640D01*
X143311555Y-90679252D01*
X143294524Y-90665276D01*
X143280548Y-90648245D01*
X143270160Y-90628809D01*
X143263764Y-90607728D01*
X143261000Y-90579660D01*
X143261000Y-90115940D01*
X143263764Y-90087872D01*
X143270160Y-90066791D01*
X143280548Y-90047355D01*
X143294524Y-90030324D01*
X143311555Y-90016348D01*
X143330991Y-90005960D01*
X143352072Y-89999564D01*
X143380140Y-89996800D01*
X144553860Y-89996800D01*
X144581928Y-89999564D01*
G37*
G36*
X144581928Y-88729564D02*
G01*
X144603009Y-88735960D01*
X144622445Y-88746348D01*
X144639476Y-88760324D01*
X144653452Y-88777355D01*
X144663840Y-88796791D01*
X144670236Y-88817872D01*
X144673000Y-88845940D01*
X144673000Y-89309660D01*
X144670236Y-89337728D01*
X144663840Y-89358809D01*
X144653452Y-89378245D01*
X144639476Y-89395276D01*
X144622445Y-89409252D01*
X144603009Y-89419640D01*
X144581928Y-89426036D01*
X144553860Y-89428800D01*
X143380140Y-89428800D01*
X143352072Y-89426036D01*
X143330991Y-89419640D01*
X143311555Y-89409252D01*
X143294524Y-89395276D01*
X143280548Y-89378245D01*
X143270160Y-89358809D01*
X143263764Y-89337728D01*
X143261000Y-89309660D01*
X143261000Y-88845940D01*
X143263764Y-88817872D01*
X143270160Y-88796791D01*
X143280548Y-88777355D01*
X143294524Y-88760324D01*
X143311555Y-88746348D01*
X143330991Y-88735960D01*
X143352072Y-88729564D01*
X143380140Y-88726800D01*
X144553860Y-88726800D01*
X144581928Y-88729564D01*
G37*
G36*
X150271928Y-88729564D02*
G01*
X150293009Y-88735960D01*
X150312445Y-88746348D01*
X150329476Y-88760324D01*
X150343452Y-88777355D01*
X150353840Y-88796791D01*
X150360236Y-88817872D01*
X150363000Y-88845940D01*
X150363000Y-89309660D01*
X150360236Y-89337728D01*
X150353840Y-89358809D01*
X150343452Y-89378245D01*
X150329476Y-89395276D01*
X150312445Y-89409252D01*
X150293009Y-89419640D01*
X150271928Y-89426036D01*
X150243860Y-89428800D01*
X149070140Y-89428800D01*
X149042072Y-89426036D01*
X149020991Y-89419640D01*
X149001555Y-89409252D01*
X148984524Y-89395276D01*
X148970548Y-89378245D01*
X148960160Y-89358809D01*
X148953764Y-89337728D01*
X148951000Y-89309660D01*
X148951000Y-88845940D01*
X148953764Y-88817872D01*
X148960160Y-88796791D01*
X148970548Y-88777355D01*
X148984524Y-88760324D01*
X149001555Y-88746348D01*
X149020991Y-88735960D01*
X149042072Y-88729564D01*
X149070140Y-88726800D01*
X150243860Y-88726800D01*
X150271928Y-88729564D01*
G37*
G36*
X144581928Y-87459564D02*
G01*
X144603009Y-87465960D01*
X144622445Y-87476348D01*
X144639476Y-87490324D01*
X144653452Y-87507355D01*
X144663840Y-87526791D01*
X144670236Y-87547872D01*
X144673000Y-87575940D01*
X144673000Y-88039660D01*
X144670236Y-88067728D01*
X144663840Y-88088809D01*
X144653452Y-88108245D01*
X144639476Y-88125276D01*
X144622445Y-88139252D01*
X144603009Y-88149640D01*
X144581928Y-88156036D01*
X144553860Y-88158800D01*
X143380140Y-88158800D01*
X143352072Y-88156036D01*
X143330991Y-88149640D01*
X143311555Y-88139252D01*
X143294524Y-88125276D01*
X143280548Y-88108245D01*
X143270160Y-88088809D01*
X143263764Y-88067728D01*
X143261000Y-88039660D01*
X143261000Y-87575940D01*
X143263764Y-87547872D01*
X143270160Y-87526791D01*
X143280548Y-87507355D01*
X143294524Y-87490324D01*
X143311555Y-87476348D01*
X143330991Y-87465960D01*
X143352072Y-87459564D01*
X143380140Y-87456800D01*
X144553860Y-87456800D01*
X144581928Y-87459564D01*
G37*
G36*
X150271928Y-87459564D02*
G01*
X150293009Y-87465960D01*
X150312445Y-87476348D01*
X150329476Y-87490324D01*
X150343452Y-87507355D01*
X150353840Y-87526791D01*
X150360236Y-87547872D01*
X150363000Y-87575940D01*
X150363000Y-88039660D01*
X150360236Y-88067728D01*
X150353840Y-88088809D01*
X150343452Y-88108245D01*
X150329476Y-88125276D01*
X150312445Y-88139252D01*
X150293009Y-88149640D01*
X150271928Y-88156036D01*
X150243860Y-88158800D01*
X149070140Y-88158800D01*
X149042072Y-88156036D01*
X149020991Y-88149640D01*
X149001555Y-88139252D01*
X148984524Y-88125276D01*
X148970548Y-88108245D01*
X148960160Y-88088809D01*
X148953764Y-88067728D01*
X148951000Y-88039660D01*
X148951000Y-87575940D01*
X148953764Y-87547872D01*
X148960160Y-87526791D01*
X148970548Y-87507355D01*
X148984524Y-87490324D01*
X149001555Y-87476348D01*
X149020991Y-87465960D01*
X149042072Y-87459564D01*
X149070140Y-87456800D01*
X150243860Y-87456800D01*
X150271928Y-87459564D01*
G37*
G36*
X144571867Y-86164804D02*
G01*
X144595292Y-86171910D01*
X144616889Y-86183454D01*
X144635814Y-86198986D01*
X144651346Y-86217911D01*
X144662890Y-86239508D01*
X144669996Y-86262933D01*
X144673000Y-86293438D01*
X144673000Y-86782162D01*
X144669996Y-86812667D01*
X144662890Y-86836092D01*
X144651346Y-86857689D01*
X144635814Y-86876614D01*
X144616889Y-86892146D01*
X144595292Y-86903690D01*
X144571867Y-86910796D01*
X144541362Y-86913800D01*
X143392638Y-86913800D01*
X143362133Y-86910796D01*
X143338708Y-86903690D01*
X143317111Y-86892146D01*
X143298186Y-86876614D01*
X143282654Y-86857689D01*
X143271110Y-86836092D01*
X143264004Y-86812667D01*
X143261000Y-86782162D01*
X143261000Y-86293438D01*
X143264004Y-86262933D01*
X143271110Y-86239508D01*
X143282654Y-86217911D01*
X143298186Y-86198986D01*
X143317111Y-86183454D01*
X143338708Y-86171910D01*
X143362133Y-86164804D01*
X143392638Y-86161800D01*
X144541362Y-86161800D01*
X144571867Y-86164804D01*
G37*
G36*
X150266928Y-86189564D02*
G01*
X150288009Y-86195960D01*
X150307445Y-86206348D01*
X150324476Y-86220324D01*
X150338452Y-86237355D01*
X150348840Y-86256791D01*
X150355236Y-86277872D01*
X150358000Y-86305940D01*
X150358000Y-86769660D01*
X150355236Y-86797728D01*
X150348840Y-86818809D01*
X150338452Y-86838245D01*
X150324476Y-86855276D01*
X150307445Y-86869252D01*
X150288009Y-86879640D01*
X150266928Y-86886036D01*
X150238860Y-86888800D01*
X149065140Y-86888800D01*
X149037072Y-86886036D01*
X149015991Y-86879640D01*
X148996555Y-86869252D01*
X148979524Y-86855276D01*
X148965548Y-86838245D01*
X148955160Y-86818809D01*
X148948764Y-86797728D01*
X148946000Y-86769660D01*
X148946000Y-86305940D01*
X148948764Y-86277872D01*
X148955160Y-86256791D01*
X148965548Y-86237355D01*
X148979524Y-86220324D01*
X148996555Y-86206348D01*
X149015991Y-86195960D01*
X149037072Y-86189564D01*
X149065140Y-86186800D01*
X150238860Y-86186800D01*
X150266928Y-86189564D01*
G37*
G36*
X147684499Y-84047245D02*
G01*
X147721995Y-84058620D01*
X147756554Y-84077092D01*
X147786847Y-84101953D01*
X147811708Y-84132246D01*
X147830180Y-84166805D01*
X147841555Y-84204301D01*
X147846000Y-84249438D01*
X147846000Y-84988162D01*
X147841555Y-85033299D01*
X147830180Y-85070795D01*
X147811708Y-85105354D01*
X147786847Y-85135647D01*
X147756554Y-85160508D01*
X147721995Y-85178980D01*
X147684499Y-85190355D01*
X147639362Y-85194800D01*
X147000638Y-85194800D01*
X146955501Y-85190355D01*
X146918005Y-85178980D01*
X146883446Y-85160508D01*
X146853153Y-85135647D01*
X146828292Y-85105354D01*
X146809820Y-85070795D01*
X146798445Y-85033299D01*
X146794000Y-84988162D01*
X146794000Y-84249438D01*
X146798445Y-84204301D01*
X146809820Y-84166805D01*
X146828292Y-84132246D01*
X146853153Y-84101953D01*
X146883446Y-84077092D01*
X146918005Y-84058620D01*
X146955501Y-84047245D01*
X147000638Y-84042800D01*
X147639362Y-84042800D01*
X147684499Y-84047245D01*
G37*
G36*
X147684499Y-82297245D02*
G01*
X147721995Y-82308620D01*
X147756554Y-82327092D01*
X147786847Y-82351953D01*
X147811708Y-82382246D01*
X147830180Y-82416805D01*
X147841555Y-82454301D01*
X147846000Y-82499438D01*
X147846000Y-83238162D01*
X147841555Y-83283299D01*
X147830180Y-83320795D01*
X147811708Y-83355354D01*
X147786847Y-83385647D01*
X147756554Y-83410508D01*
X147721995Y-83428980D01*
X147684499Y-83440355D01*
X147639362Y-83444800D01*
X147000638Y-83444800D01*
X146955501Y-83440355D01*
X146918005Y-83428980D01*
X146883446Y-83410508D01*
X146853153Y-83385647D01*
X146828292Y-83355354D01*
X146809820Y-83320795D01*
X146798445Y-83283299D01*
X146794000Y-83238162D01*
X146794000Y-82499438D01*
X146798445Y-82454301D01*
X146809820Y-82416805D01*
X146828292Y-82382246D01*
X146853153Y-82351953D01*
X146883446Y-82327092D01*
X146918005Y-82308620D01*
X146955501Y-82297245D01*
X147000638Y-82292800D01*
X147639362Y-82292800D01*
X147684499Y-82297245D01*
G37*
M02*
