<?xml version="1.0" standalone="no"?>
 <!DOCTYPE svg PUBLIC "-//W3C//DTD SVG 1.1//EN" 
 "http://www.w3.org/Graphics/SVG/1.1/DTD/svg11.dtd"> 
<svg
  xmlns:svg="http://www.w3.org/2000/svg"
  xmlns="http://www.w3.org/2000/svg"
  xmlns:xlink="http://www.w3.org/1999/xlink"
  version="1.1"
  width="27.940000cm" height="21.590000cm" viewBox="0 0 110000 85000">
<title>SVG Picture created as BMagSensBoard-F_Cu.svg date 2020/08/14 14:34:50 </title>
  <desc>Picture generated by PCBNEW </desc>
<g style="fill:#000000; fill-opacity:1;stroke:#000000; stroke-opacity:1;
stroke-linecap:round; stroke-linejoin:round;"
 transform="translate(0 0) scale(1 1)">
</g>
<g style="fill:#000000; fill-opacity:0.0; 
stroke:#000000; stroke-width:-0.000393701; stroke-opacity:1; 
stroke-linecap:round; stroke-linejoin:round;">
<g >
</g>
<g style="fill:#000000; fill-opacity:0.0; 
stroke:#000000; stroke-width:0; stroke-opacity:1; 
stroke-linecap:round; stroke-linejoin:round;">
</g>
<g style="fill:#000000; fill-opacity:1.0; 
stroke:#000000; stroke-width:0; stroke-opacity:1; 
stroke-linecap:round; stroke-linejoin:round;">
<path style="fill:#000000; fill-opacity:1.0; 
stroke:#000000; stroke-width:0; stroke-opacity:1; 
stroke-linecap:round; stroke-linejoin:round;fill-rule:evenodd;"
d="M 56880.1,33942.4
56886.3,33943.3
56892.4,33944.8
56898.3,33946.9
56904,33949.6
56909.4,33952.8
56914.4,33956.6
56919.1,33960.8
56923.3,33965.4
56927,33970.5
56930.2,33975.9
56932.9,33981.5
56935,33987.5
56936.6,33993.5
56937.5,33999.8
56937.8,34006
56937.8,34134
56937.5,34140.2
56936.6,34146.5
56935,34152.5
56932.9,34158.5
56930.2,34164.1
56927,34169.5
56923.3,34174.6
56919.1,34179.2
56914.4,34183.4
56909.4,34187.2
56904,34190.4
56898.3,34193.1
56892.4,34195.2
56886.3,34196.7
56880.1,34197.6
56873.8,34198
56486,34198
56479.8,34197.6
56473.5,34196.7
56467.5,34195.2
56461.5,34193.1
56455.9,34190.4
56450.5,34187.2
56445.4,34183.4
56440.8,34179.2
56436.6,34174.6
56432.8,34169.5
56429.6,34164.1
56426.9,34158.5
56424.8,34152.5
56423.3,34146.5
56422.4,34140.2
56422,34134
56422,34006
56422.4,33999.8
56423.3,33993.5
56424.8,33987.5
56426.9,33981.5
56429.6,33975.9
56432.8,33970.5
56436.6,33965.4
56440.8,33960.8
56445.4,33956.6
56450.5,33952.8
56455.9,33949.6
56461.5,33946.9
56467.5,33944.8
56473.5,33943.3
56479.8,33942.4
56486,33942
56873.8,33942
Z" /> 
<path style="fill:#000000; fill-opacity:1.0; 
stroke:#000000; stroke-width:0; stroke-opacity:1; 
stroke-linecap:round; stroke-linejoin:round;fill-rule:evenodd;"
d="M 56884.5,34452.2
56890.3,34453
56895.9,34454.4
56901.3,34456.4
56906.6,34458.9
56911.5,34461.8
56916.2,34465.3
56920.5,34469.2
56924.4,34473.5
56927.8,34478.1
56930.8,34483.1
56933.3,34488.3
56935.3,34493.8
56936.7,34499.4
56937.5,34505.2
56937.8,34510.9
56937.8,34629.1
56937.5,34634.8
56936.7,34640.6
56935.3,34646.2
56933.3,34651.7
56930.8,34656.9
56927.8,34661.9
56924.4,34666.5
56920.5,34670.8
56916.2,34674.7
56911.5,34678.2
56906.6,34681.1
56901.3,34683.6
56895.9,34685.6
56890.3,34687
56884.5,34687.8
56878.7,34688.1
56481.1,34688.1
56475.3,34687.8
56469.6,34687
56464,34685.6
56458.5,34683.6
56453.3,34681.1
56448.3,34678.2
56443.6,34674.7
56439.3,34670.8
56435.5,34666.5
56432,34661.9
56429,34656.9
56426.5,34651.7
56424.6,34646.2
56423.2,34640.6
56422.3,34634.8
56422,34629.1
56422,34510.9
56422.3,34505.2
56423.2,34499.4
56424.6,34493.8
56426.5,34488.3
56429,34483.1
56432,34478.1
56435.5,34473.5
56439.3,34469.2
56443.6,34465.3
56448.3,34461.8
56453.3,34458.9
56458.5,34456.4
56464,34454.4
56469.6,34453
56475.3,34452.2
56481.1,34451.9
56878.7,34451.9
Z" /> 
<path style="fill:#000000; fill-opacity:1.0; 
stroke:#000000; stroke-width:0; stroke-opacity:1; 
stroke-linecap:round; stroke-linejoin:round;fill-rule:evenodd;"
d="M 56884.5,34952.2
56890.3,34953
56895.9,34954.4
56901.3,34956.4
56906.6,34958.9
56911.5,34961.8
56916.2,34965.3
56920.5,34969.2
56924.4,34973.5
56927.8,34978.1
56930.8,34983.1
56933.3,34988.3
56935.3,34993.8
56936.7,34999.4
56937.5,35005.2
56937.8,35010.9
56937.8,35129.1
56937.5,35134.8
56936.7,35140.6
56935.3,35146.2
56933.3,35151.7
56930.8,35156.9
56927.8,35161.9
56924.4,35166.5
56920.5,35170.8
56916.2,35174.7
56911.5,35178.2
56906.6,35181.1
56901.3,35183.6
56895.9,35185.6
56890.3,35187
56884.5,35187.8
56878.7,35188.1
56481.1,35188.1
56475.3,35187.8
56469.6,35187
56464,35185.6
56458.5,35183.6
56453.3,35181.1
56448.3,35178.2
56443.6,35174.7
56439.3,35170.8
56435.5,35166.5
56432,35161.9
56429,35156.9
56426.5,35151.7
56424.6,35146.2
56423.2,35140.6
56422.3,35134.8
56422,35129.1
56422,35010.9
56422.3,35005.2
56423.2,34999.4
56424.6,34993.8
56426.5,34988.3
56429,34983.1
56432,34978.1
56435.5,34973.5
56439.3,34969.2
56443.6,34965.3
56448.3,34961.8
56453.3,34958.9
56458.5,34956.4
56464,34954.4
56469.6,34953
56475.3,34952.2
56481.1,34951.9
56878.7,34951.9
Z" /> 
<path style="fill:#000000; fill-opacity:1.0; 
stroke:#000000; stroke-width:0; stroke-opacity:1; 
stroke-linecap:round; stroke-linejoin:round;fill-rule:evenodd;"
d="M 56884.5,35452.2
56890.3,35453
56895.9,35454.4
56901.3,35456.4
56906.6,35458.9
56911.5,35461.8
56916.2,35465.3
56920.5,35469.2
56924.4,35473.5
56927.8,35478.1
56930.8,35483.1
56933.3,35488.3
56935.3,35493.8
56936.7,35499.4
56937.5,35505.2
56937.8,35510.9
56937.8,35629.1
56937.5,35634.8
56936.7,35640.6
56935.3,35646.2
56933.3,35651.7
56930.8,35656.9
56927.8,35661.9
56924.4,35666.5
56920.5,35670.8
56916.2,35674.7
56911.5,35678.2
56906.6,35681.1
56901.3,35683.6
56895.9,35685.6
56890.3,35687
56884.5,35687.8
56878.7,35688.1
56481.1,35688.1
56475.3,35687.8
56469.6,35687
56464,35685.6
56458.5,35683.6
56453.3,35681.1
56448.3,35678.2
56443.6,35674.7
56439.3,35670.8
56435.5,35666.5
56432,35661.9
56429,35656.9
56426.5,35651.7
56424.6,35646.2
56423.2,35640.6
56422.3,35634.8
56422,35629.1
56422,35510.9
56422.3,35505.2
56423.2,35499.4
56424.6,35493.8
56426.5,35488.3
56429,35483.1
56432,35478.1
56435.5,35473.5
56439.3,35469.2
56443.6,35465.3
56448.3,35461.8
56453.3,35458.9
56458.5,35456.4
56464,35454.4
56469.6,35453
56475.3,35452.2
56481.1,35451.9
56878.7,35451.9
Z" /> 
<path style="fill:#000000; fill-opacity:1.0; 
stroke:#000000; stroke-width:0; stroke-opacity:1; 
stroke-linecap:round; stroke-linejoin:round;fill-rule:evenodd;"
d="M 59124.7,35452.2
59130.4,35453
59136,35454.4
59141.5,35456.4
59146.7,35458.9
59151.7,35461.8
59156.4,35465.3
59160.7,35469.2
59164.5,35473.5
59168,35478.1
59171,35483.1
59173.5,35488.3
59175.4,35493.8
59176.8,35499.4
59177.7,35505.2
59178,35510.9
59178,35629.1
59177.7,35634.8
59176.8,35640.6
59175.4,35646.2
59173.5,35651.7
59171,35656.9
59168,35661.9
59164.5,35666.5
59160.7,35670.8
59156.4,35674.7
59151.7,35678.2
59146.7,35681.1
59141.5,35683.6
59136,35685.6
59130.4,35687
59124.7,35687.8
59118.9,35688.1
58721.3,35688.1
58715.5,35687.8
58709.7,35687
58704.1,35685.6
58698.7,35683.6
58693.4,35681.1
58688.5,35678.2
58683.8,35674.7
58679.5,35670.8
58675.6,35666.5
58672.2,35661.9
58669.2,35656.9
58666.7,35651.7
58664.7,35646.2
58663.3,35640.6
58662.5,35634.8
58662.2,35629.1
58662.2,35510.9
58662.5,35505.2
58663.3,35499.4
58664.7,35493.8
58666.7,35488.3
58669.2,35483.1
58672.2,35478.1
58675.6,35473.5
58679.5,35469.2
58683.8,35465.3
58688.5,35461.8
58693.4,35458.9
58698.7,35456.4
58704.1,35454.4
58709.7,35453
58715.5,35452.2
58721.3,35451.9
59118.9,35451.9
Z" /> 
<path style="fill:#000000; fill-opacity:1.0; 
stroke:#000000; stroke-width:0; stroke-opacity:1; 
stroke-linecap:round; stroke-linejoin:round;fill-rule:evenodd;"
d="M 59124.7,34952.2
59130.4,34953
59136,34954.4
59141.5,34956.4
59146.7,34958.9
59151.7,34961.8
59156.4,34965.3
59160.7,34969.2
59164.5,34973.5
59168,34978.1
59171,34983.1
59173.5,34988.3
59175.4,34993.8
59176.8,34999.4
59177.7,35005.2
59178,35010.9
59178,35129.1
59177.7,35134.8
59176.8,35140.6
59175.4,35146.2
59173.5,35151.7
59171,35156.9
59168,35161.9
59164.5,35166.5
59160.7,35170.8
59156.4,35174.7
59151.7,35178.2
59146.7,35181.1
59141.5,35183.6
59136,35185.6
59130.4,35187
59124.7,35187.8
59118.9,35188.1
58721.3,35188.1
58715.5,35187.8
58709.7,35187
58704.1,35185.6
58698.7,35183.6
58693.4,35181.1
58688.5,35178.2
58683.8,35174.7
58679.5,35170.8
58675.6,35166.5
58672.2,35161.9
58669.2,35156.9
58666.7,35151.7
58664.7,35146.2
58663.3,35140.6
58662.5,35134.8
58662.2,35129.1
58662.2,35010.9
58662.5,35005.2
58663.3,34999.4
58664.7,34993.8
58666.7,34988.3
58669.2,34983.1
58672.2,34978.1
58675.6,34973.5
58679.5,34969.2
58683.8,34965.3
58688.5,34961.8
58693.4,34958.9
58698.7,34956.4
58704.1,34954.4
58709.7,34953
58715.5,34952.2
58721.3,34951.9
59118.9,34951.9
Z" /> 
<path style="fill:#000000; fill-opacity:1.0; 
stroke:#000000; stroke-width:0; stroke-opacity:1; 
stroke-linecap:round; stroke-linejoin:round;fill-rule:evenodd;"
d="M 59124.7,34452.2
59130.4,34453
59136,34454.4
59141.5,34456.4
59146.7,34458.9
59151.7,34461.8
59156.4,34465.3
59160.7,34469.2
59164.5,34473.5
59168,34478.1
59171,34483.1
59173.5,34488.3
59175.4,34493.8
59176.8,34499.4
59177.7,34505.2
59178,34510.9
59178,34629.1
59177.7,34634.8
59176.8,34640.6
59175.4,34646.2
59173.5,34651.7
59171,34656.9
59168,34661.9
59164.5,34666.5
59160.7,34670.8
59156.4,34674.7
59151.7,34678.2
59146.7,34681.1
59141.5,34683.6
59136,34685.6
59130.4,34687
59124.7,34687.8
59118.9,34688.1
58721.3,34688.1
58715.5,34687.8
58709.7,34687
58704.1,34685.6
58698.7,34683.6
58693.4,34681.1
58688.5,34678.2
58683.8,34674.7
58679.5,34670.8
58675.6,34666.5
58672.2,34661.9
58669.2,34656.9
58666.7,34651.7
58664.7,34646.2
58663.3,34640.6
58662.5,34634.8
58662.2,34629.1
58662.2,34510.9
58662.5,34505.2
58663.3,34499.4
58664.7,34493.8
58666.7,34488.3
58669.2,34483.1
58672.2,34478.1
58675.6,34473.5
58679.5,34469.2
58683.8,34465.3
58688.5,34461.8
58693.4,34458.9
58698.7,34456.4
58704.1,34454.4
58709.7,34453
58715.5,34452.2
58721.3,34451.9
59118.9,34451.9
Z" /> 
<path style="fill:#000000; fill-opacity:1.0; 
stroke:#000000; stroke-width:0; stroke-opacity:1; 
stroke-linecap:round; stroke-linejoin:round;fill-rule:evenodd;"
d="M 59122.7,33952.2
59128.5,33953
59134.1,33954.4
59139.5,33956.4
59144.8,33958.9
59149.7,33961.8
59154.4,33965.3
59158.7,33969.2
59162.6,33973.5
59166,33978.1
59169,33983.1
59171.5,33988.3
59173.4,33993.8
59174.8,33999.4
59175.7,34005.2
59176,34010.9
59176,34129.1
59175.7,34134.8
59174.8,34140.6
59173.4,34146.2
59171.5,34151.7
59169,34156.9
59166,34161.9
59162.6,34166.5
59158.7,34170.8
59154.4,34174.7
59149.7,34178.2
59144.8,34181.1
59139.5,34183.6
59134.1,34185.6
59128.5,34187
59122.7,34187.8
59116.9,34188.1
58719.3,34188.1
58713.5,34187.8
58707.8,34187
58702.1,34185.6
58696.7,34183.6
58691.5,34181.1
58686.5,34178.2
58681.8,34174.7
58677.5,34170.8
58673.6,34166.5
58670.2,34161.9
58667.2,34156.9
58664.7,34151.7
58662.8,34146.2
58661.4,34140.6
58660.5,34134.8
58660.2,34129.1
58660.2,34010.9
58660.5,34005.2
58661.4,33999.4
58662.8,33993.8
58664.7,33988.3
58667.2,33983.1
58670.2,33978.1
58673.6,33973.5
58677.5,33969.2
58681.8,33965.3
58686.5,33961.8
58691.5,33958.9
58696.7,33956.4
58702.1,33954.4
58707.8,33953
58713.5,33952.2
58719.3,33951.9
59116.9,33951.9
Z" /> 
</g>
<g >
</g>
<g style="fill:#000000; fill-opacity:1.0; 
stroke:#000000; stroke-width:0; stroke-opacity:1; 
stroke-linecap:round; stroke-linejoin:round;">
<path style="fill:#000000; fill-opacity:1.0; 
stroke:#000000; stroke-width:0; stroke-opacity:1; 
stroke-linecap:round; stroke-linejoin:round;fill-rule:evenodd;"
d="M 58863,37412.1
58863,36427.9
59571.7,36427.9
59571.7,37412.1
Z" /> 
<path style="fill:#000000; fill-opacity:1.0; 
stroke:#000000; stroke-width:0; stroke-opacity:1; 
stroke-linecap:round; stroke-linejoin:round;fill-rule:evenodd;"
d="M 59807.9,37412.1
59807.9,36427.9
60516.5,36427.9
60516.5,37412.1
Z" /> 
<path style="fill:#000000; fill-opacity:1.0; 
stroke:#000000; stroke-width:0; stroke-opacity:1; 
stroke-linecap:round; stroke-linejoin:round;fill-rule:evenodd;"
d="M 55083.5,37412.1
55083.5,36427.9
55792.1,36427.9
55792.1,37412.1
Z" /> 
<path style="fill:#000000; fill-opacity:1.0; 
stroke:#000000; stroke-width:0; stroke-opacity:1; 
stroke-linecap:round; stroke-linejoin:round;fill-rule:evenodd;"
d="M 56973.2,37412.1
56973.2,36427.9
57681.9,36427.9
57681.9,37412.1
Z" /> 
<path style="fill:#000000; fill-opacity:1.0; 
stroke:#000000; stroke-width:0; stroke-opacity:1; 
stroke-linecap:round; stroke-linejoin:round;fill-rule:evenodd;"
d="M 57918.1,37412.1
57918.1,36427.9
58626.8,36427.9
58626.8,37412.1
Z" /> 
<path style="fill:#000000; fill-opacity:1.0; 
stroke:#000000; stroke-width:0; stroke-opacity:1; 
stroke-linecap:round; stroke-linejoin:round;fill-rule:evenodd;"
d="M 56028.3,37412.1
56028.3,36427.9
56737,36427.9
56737,37412.1
Z" /> 
</g>
<g >
</g>
<g style="fill:#000000; fill-opacity:1.0; 
stroke:#000000; stroke-width:0; stroke-opacity:1; 
stroke-linecap:round; stroke-linejoin:round;">
<path style="fill:#000000; fill-opacity:1.0; 
stroke:#000000; stroke-width:0; stroke-opacity:1; 
stroke-linecap:round; stroke-linejoin:round;fill-rule:evenodd;"
d="M 58102.7,32419.3
58111.7,32420.6
58120.6,32422.8
58129.3,32425.9
58137.6,32429.9
58145.5,32434.6
58152.8,32440
58159.6,32446.2
58165.8,32453
58171.2,32460.4
58176,32468.2
58179.9,32476.5
58183,32485.2
58185.2,32494.1
58186.6,32503.2
58187,32512.3
58187,32738.7
58186.6,32747.9
58185.2,32756.9
58183,32765.8
58179.9,32774.5
58176,32782.8
58171.2,32790.6
58165.8,32798
58159.6,32804.8
58152.8,32811
58145.5,32816.4
58137.6,32821.2
58129.3,32825.1
58120.6,32828.2
58111.7,32830.4
58102.7,32831.8
58093.5,32832.2
57906.5,32832.2
57897.3,32831.8
57888.3,32830.4
57879.4,32828.2
57870.7,32825.1
57862.4,32821.2
57854.5,32816.4
57847.2,32811
57840.4,32804.8
57834.2,32798
57828.8,32790.6
57824,32782.8
57820.1,32774.5
57817,32765.8
57814.8,32756.9
57813.4,32747.9
57813,32738.7
57813,32512.3
57813.4,32503.2
57814.8,32494.1
57817,32485.2
57820.1,32476.5
57824,32468.2
57828.8,32460.4
57834.2,32453
57840.4,32446.2
57847.2,32440
57854.5,32434.6
57862.4,32429.9
57870.7,32425.9
57879.4,32422.8
57888.3,32420.6
57897.3,32419.3
57906.5,32418.8
58093.5,32418.8
Z" /> 
<path style="fill:#000000; fill-opacity:1.0; 
stroke:#000000; stroke-width:0; stroke-opacity:1; 
stroke-linecap:round; stroke-linejoin:round;fill-rule:evenodd;"
d="M 58102.7,33108.2
58111.7,33109.6
58120.6,33111.8
58129.3,33114.9
58137.6,33118.8
58145.5,33123.6
58152.8,33129
58159.6,33135.2
58165.8,33142
58171.2,33149.4
58176,33157.2
58179.9,33165.5
58183,33174.2
58185.2,33183.1
58186.6,33192.1
58187,33201.3
58187,33427.7
58186.6,33436.8
58185.2,33445.9
58183,33454.8
58179.9,33463.5
58176,33471.8
58171.2,33479.6
58165.8,33487
58159.6,33493.8
58152.8,33500
58145.5,33505.4
58137.6,33510.1
58129.3,33514.1
58120.6,33517.2
58111.7,33519.4
58102.7,33520.7
58093.5,33521.2
57906.5,33521.2
57897.3,33520.7
57888.3,33519.4
57879.4,33517.2
57870.7,33514.1
57862.4,33510.1
57854.5,33505.4
57847.2,33500
57840.4,33493.8
57834.2,33487
57828.8,33479.6
57824,33471.8
57820.1,33463.5
57817,33454.8
57814.8,33445.9
57813.4,33436.8
57813,33427.7
57813,33201.3
57813.4,33192.1
57814.8,33183.1
57817,33174.2
57820.1,33165.5
57824,33157.2
57828.8,33149.4
57834.2,33142
57840.4,33135.2
57847.2,33129
57854.5,33123.6
57862.4,33118.8
57870.7,33114.9
57879.4,33111.8
57888.3,33109.6
57897.3,33108.2
57906.5,33107.8
58093.5,33107.8
Z" /> 
</g>
<g >
</g>
<g style="fill:#000000; fill-opacity:1.0; 
stroke:#000000; stroke-width:0; stroke-opacity:1; 
stroke-linecap:round; stroke-linejoin:round;">
<circle cx="58000" cy="32130" r="88.5827" /> 
</g>
<g style="fill:#000000; fill-opacity:1.0; 
stroke:#000000; stroke-width:39.3701; stroke-opacity:1; 
stroke-linecap:round; stroke-linejoin:round;">
</g>
<g style="fill:#000000; fill-opacity:1.0; 
stroke:#000000; stroke-width:0; stroke-opacity:1; 
stroke-linecap:round; stroke-linejoin:round;">
<circle cx="57327.6" cy="37617.6" r="88.5827" /> 
</g>
<g style="fill:#000000; fill-opacity:1.0; 
stroke:#000000; stroke-width:39.3701; stroke-opacity:1; 
stroke-linecap:round; stroke-linejoin:round;">
</g>
<g style="fill:#000000; fill-opacity:1.0; 
stroke:#000000; stroke-width:0; stroke-opacity:1; 
stroke-linecap:round; stroke-linejoin:round;">
<circle cx="56140" cy="35320" r="88.5827" /> 
</g>
<g style="fill:#000000; fill-opacity:1.0; 
stroke:#000000; stroke-width:39.3701; stroke-opacity:1; 
stroke-linecap:round; stroke-linejoin:round;">
</g>
<g >
</g>
<g style="fill:#000000; fill-opacity:1.0; 
stroke:#000000; stroke-width:39.3701; stroke-opacity:1; 
stroke-linecap:round; stroke-linejoin:round;">
</g>
<g style="fill:#000000; fill-opacity:1.0; 
stroke:#000000; stroke-width:250; stroke-opacity:1; 
stroke-linecap:round; stroke-linejoin:round;">
</g>
<g style="fill:#000000; fill-opacity:0.0; 
stroke:#000000; stroke-width:250; stroke-opacity:1; 
stroke-linecap:round; stroke-linejoin:round;">
<path d="M58444 35570
L58813 35570
" />
<path d="M58272 35742
L58444 35570
" />
</g>
<g style="fill:#000000; fill-opacity:0.0; 
stroke:#000000; stroke-width:500; stroke-opacity:1; 
stroke-linecap:round; stroke-linejoin:round;">
<path d="M58272 35742
L58272 36920
" />
<path d="M56382 36920
L56382 36402
" />
</g>
<g style="fill:#000000; fill-opacity:0.0; 
stroke:#000000; stroke-width:250; stroke-opacity:1; 
stroke-linecap:round; stroke-linejoin:round;">
<path d="M56382 36402
L56382 36302
" />
<path d="M56382 36302
L55550 35470
" />
<path d="M55550 35470
L55550 34820
" />
<path d="M55800 34570
L56786 34570
" />
<path d="M55550 34820
L55800 34570
" />
</g>
<g style="fill:#000000; fill-opacity:0.0; 
stroke:#000000; stroke-width:500; stroke-opacity:1; 
stroke-linecap:round; stroke-linejoin:round;">
<path d="M55437 36920
L55437 36767
" />
<path d="M55437 36920
L55437 36457
" />
</g>
<g style="fill:#000000; fill-opacity:0.0; 
stroke:#000000; stroke-width:250; stroke-opacity:1; 
stroke-linecap:round; stroke-linejoin:round;">
<path d="M55437 36920
L55437 36057
" />
<path d="M55437 36057
L55050 35670
" />
<path d="M55050 35670
L55050 34420
" />
<path d="M55400 34070
L56786 34070
" />
<path d="M55050 34420
L55400 34070
" />
</g>
<g style="fill:#000000; fill-opacity:0.0; 
stroke:#000000; stroke-width:500; stroke-opacity:1; 
stroke-linecap:round; stroke-linejoin:round;">
<path d="M59494 33314
L58000 33314
" />
<path d="M60250 34070
L59494 33314
" />
<path d="M60250 36170
L60250 34070
" />
<path d="M60162 36920
L60162 36257
" />
<path d="M60162 36257
L60250 36170
" />
</g>
<g style="fill:#000000; fill-opacity:0.0; 
stroke:#000000; stroke-width:250; stroke-opacity:1; 
stroke-linecap:round; stroke-linejoin:round;">
<path d="M58000 33314
L58000 34320
" />
<path d="M58250 34570
L58813 34570
" />
<path d="M58000 34320
L58250 34570
" />
<path d="M58813 35070
L59150 35070
" />
<path d="M58813 35070
L59500 35070
" />
<path d="M59500 35070
L59600 35170
" />
</g>
<g style="fill:#000000; fill-opacity:0.0; 
stroke:#000000; stroke-width:500; stroke-opacity:1; 
stroke-linecap:round; stroke-linejoin:round;">
<path d="M59217 36202
L59217 36920
" />
<path d="M59600 35170
L59600 35820
" />
<path d="M59600 35820
L59217 36202
" />
</g>
<g style="fill:#000000; fill-opacity:0.0; 
stroke:#000000; stroke-width:250; stroke-opacity:1; 
stroke-linecap:round; stroke-linejoin:round;">
<path d="M56786 35570
L56550 35570
" />
<path d="M58000 32625
L58000 32130
" />
<path d="M56786 35070
L56786 35570
" />
<path d="M57327 36920
L57327 37617
" />
<path d="M56420 35570
L56140 35290
" />
<path d="M56786 35570
L56420 35570
" />
</g>
<g >
</g>
<g style="fill:#000000; fill-opacity:0.0; 
stroke:#000000; stroke-width:250; stroke-opacity:1; 
stroke-linecap:round; stroke-linejoin:round;">
</g>
<g style="fill:#000000; fill-opacity:1.0; 
stroke:#000000; stroke-width:100; stroke-opacity:1; 
stroke-linecap:round; stroke-linejoin:round;">
<path style="fill:#000000; fill-opacity:1.0; 
stroke:#000000; stroke-width:100; stroke-opacity:1; 
stroke-linecap:round; stroke-linejoin:round;fill-rule:evenodd;"
d="M 61595.5,37737.3
54006.3,37737.3
54006.3,34420
54673.2,34420
54675,34438.4
54675,35651.6
54673.2,35670
54675,35688.4
54680.4,35743.5
54701.9,35814.2
54736.7,35879.3
54783.6,35936.4
54797.9,35948.2
55023.8,36174.1
55020,36178.7
55015.5,36187.3
54987.3,36195.8
54943.9,36219
54905.8,36250.2
54874.6,36288.3
54851.4,36331.7
54837.1,36378.9
54832.3,36427.9
54832.3,37412.1
54837.1,37461.1
54851.4,37508.3
54874.6,37551.7
54905.8,37589.8
54943.9,37621
54987.3,37644.2
55034.5,37658.5
55083.5,37663.3
55792.1,37663.3
55841.1,37658.5
55888.3,37644.2
55910.2,37632.5
55932.2,37644.2
55979.3,37658.5
56028.3,37663.3
56737,37663.3
56786,37658.5
56833.1,37644.2
56855.1,37632.5
56877.1,37644.2
56924.2,37658.5
56973.2,37663.3
57215.1,37662.1
57277.6,37599.6
57277.6,36970
57269.7,36970
57269.7,36870
57277.6,36870
57277.6,36240.4
57377.6,36240.4
57377.6,36870
57385.4,36870
57385.4,36970
57377.6,36970
57377.6,37599.6
57440.1,37662.1
57681.9,37663.3
57730.9,37658.5
57778,37644.2
57800,37632.5
57822,37644.2
57869.1,37658.5
57918.1,37663.3
58626.8,37663.3
58675.8,37658.5
58722.9,37644.2
58744.9,37632.5
58766.9,37644.2
58814,37658.5
58863,37663.3
59571.7,37663.3
59620.7,37658.5
59667.8,37644.2
59689.8,37632.5
59711.7,37644.2
59758.9,37658.5
59807.9,37663.3
60516.5,37663.3
60565.5,37658.5
60612.7,37644.2
60656.1,37621
60694.2,37589.8
60725.4,37551.7
60748.6,37508.3
60762.9,37461.1
60767.7,37412.1
60767.7,36427.9
60762.9,36378.9
60748.6,36331.7
60732.6,36301.7
60742.8,36268
60750,36194.6
60750,36194.6
60752.4,36170
60750,36145.4
60750,34094.6
60752.4,34070
60742.8,33972
60714.2,33877.7
60667.7,33790.9
60629.2,33744
60620.9,33733.8
60620.9,33733.8
60605.3,33714.7
60586.2,33699.1
59865.4,32978.3
59849.8,32959.2
59773.6,32896.7
59686.8,32850.3
59592.5,32821.7
59519,32814.5
59519,32814.5
59494.5,32812.1
59469.9,32814.5
58438,32814.5
58437,32738
58374.5,32675.5
58050,32675.5
58050,32683.4
57950,32683.4
57950,32675.5
57625.5,32675.5
57563,32738
57561.8,32832.2
57566.6,32881.2
57580.9,32928.3
57604.1,32971.8
57619.3,32990.2
57582.3,33035.4
57535.8,33122.2
57507.2,33216.5
57497.6,33314.5
57507.2,33412.5
57535.8,33506.8
57582.3,33593.6
57625,33645.7
57625,34301.6
57623.2,34320
57630.4,34393.5
57651.9,34464.2
57676.9,34510.9
57686.7,34529.3
57733.6,34586.4
57747.9,34598.2
57971.8,34822.1
57983.6,34836.4
58040.7,34883.3
58059.7,34893.5
58105.8,34918.1
58131.1,34925.8
58176.5,34939.6
58231.6,34945
58250,34946.8
58268.4,34945
58418.6,34945
58417,34950.4
58411,35010.9
58411,35129.1
58417,35189.6
58418.8,35195.8
58371.4,35200.4
58300.7,35221.9
58265.4,35240.7
58174.4,35249.7
58080.2,35278.3
57993.3,35324.7
57917.2,35387.2
57854.7,35463.3
57808.3,35550.2
57779.7,35644.4
57772.4,35717.9
57772.4,36194.1
57730.9,36181.5
57681.9,36176.7
57440.1,36177.9
57377.6,36240.4
57277.6,36240.4
57215.1,36177.9
56973.2,36176.7
56924.2,36181.5
56877.1,36195.8
56855.1,36207.5
56841.4,36200.2
56800.4,36123.5
56737.9,36047.4
56661.8,35984.9
56574.9,35938.5
56568.9,35936.7
56629.9,35875.6
56629.9,35620
56729.9,35620
56729.9,35875.6
56792.4,35938.1
56937.8,35939.3
56986.8,35934.5
57033.9,35920.2
57077.4,35897
57115.4,35865.7
57146.7,35827.7
57169.9,35784.2
57184.2,35737.1
57189,35688.1
57187.8,35682.5
57125.3,35620
56729.9,35620
56629.9,35620
56622,35620
56622,35520
56629.9,35520
56629.9,35120
56729.9,35120
56729.9,35520
57125.3,35520
57187.8,35457.5
57189,35451.9
57184.2,35402.9
57169.9,35355.8
57150.8,35320
57169.9,35284.2
57184.2,35237.1
57189,35188.1
57187.8,35182.5
57125.3,35120
56729.9,35120
56629.9,35120
56234.5,35120
56172,35182.5
56170.8,35188.1
56175.7,35237.1
56190,35284.2
56209.1,35320
56190,35355.8
56175.7,35402.9
56170.8,35451.9
56172,35457.5
56234.5,35520
56172,35520
56172,35561.7
55925,35314.7
55925,34975.3
55955.3,34945
56171.5,34945
56170.8,34951.9
56172,34957.5
56234.5,35020
56629.9,35020
56629.9,35012.1
56729.9,35012.1
56729.9,35020
57125.3,35020
57187.8,34957.5
57189,34951.9
57184.2,34902.9
57169.9,34855.8
57146.7,34812.3
57137.1,34800.7
57165.4,34747.8
57183,34689.6
57189,34629.1
57189,34510.9
57183,34450.4
57165.4,34392.2
57136.7,34338.6
57124.2,34323.3
57135.9,34309.1
57165,34254.6
57182.9,34195.5
57189,34134
57189,34006
57182.9,33944.5
57165,33885.4
57135.9,33830.9
57096.7,33783.2
57048.9,33744
56994.4,33714.8
56935.3,33696.9
56873.8,33690.8
56486,33690.8
56443.8,33695
55418.4,33695
55400,33693.2
55381.6,33695
55326.5,33700.4
55255.8,33721.9
55190.7,33756.7
55133.6,33803.6
55121.8,33817.9
54797.9,34141.8
54783.6,34153.6
54771.8,34167.9
54736.7,34210.7
54701.9,34275.8
54680.4,34346.5
54673.2,34420
54006.3,34420
54006.3,32418.8
57561.8,32418.8
57563,32513
57625.5,32575.5
57950,32575.5
57950,32231.3
58050,32231.3
58050,32575.5
58374.5,32575.5
58437,32513
58438.2,32418.8
58433.4,32369.8
58419.1,32322.7
58395.9,32279.3
58364.6,32241.2
58326.6,32209.9
58283.1,32186.7
58236,32172.4
58187,32167.6
58112.5,32168.8
58050,32231.3
57950,32231.3
57887.5,32168.8
57813,32167.6
57764,32172.4
57716.9,32186.7
57673.4,32209.9
57635.4,32241.2
57604.1,32279.3
57580.9,32322.7
57566.6,32369.8
57561.8,32418.8
54006.3,32418.8
54006.3,31122
61595.5,31122
Z" /> 
</g>
</g> 
</svg>
