G04 #@! TF.GenerationSoftware,KiCad,Pcbnew,(5.1.6)-1*
G04 #@! TF.CreationDate,2021-04-29T20:29:46-05:00*
G04 #@! TF.ProjectId,EncoderBoard3(1),456e636f-6465-4724-926f-617264332831,v1.0*
G04 #@! TF.SameCoordinates,Original*
G04 #@! TF.FileFunction,Legend,Top*
G04 #@! TF.FilePolarity,Positive*
%FSLAX46Y46*%
G04 Gerber Fmt 4.6, Leading zero omitted, Abs format (unit mm)*
G04 Created by KiCad (PCBNEW (5.1.6)-1) date 2021-04-29 20:29:46*
%MOMM*%
%LPD*%
G01*
G04 APERTURE LIST*
%ADD10C,0.150000*%
%ADD11C,0.152400*%
%ADD12C,0.010000*%
%ADD13C,0.120000*%
%ADD14C,0.200000*%
%ADD15C,0.127000*%
G04 APERTURE END LIST*
D10*
X131953000Y-83362800D02*
G75*
G03*
X131953000Y-83362800I-635000J0D01*
G01*
D11*
X131506685Y-83755895D02*
X131303485Y-83368847D01*
X131158342Y-83755895D02*
X131158342Y-82943095D01*
X131390571Y-82943095D01*
X131448628Y-82981800D01*
X131477657Y-83020504D01*
X131506685Y-83097914D01*
X131506685Y-83214028D01*
X131477657Y-83291438D01*
X131448628Y-83330142D01*
X131390571Y-83368847D01*
X131158342Y-83368847D01*
D10*
X130429000Y-117779800D02*
X141986000Y-117779800D01*
X130429000Y-120573800D02*
X130429000Y-117779800D01*
X114173000Y-120573800D02*
X130429000Y-120573800D01*
X114173000Y-119176800D02*
X114173000Y-120573800D01*
X109728000Y-119176800D02*
X114173000Y-119176800D01*
X109728000Y-119811800D02*
X109728000Y-119176800D01*
X104140000Y-119811800D02*
X109728000Y-119811800D01*
D11*
X137482942Y-108381800D02*
X137482942Y-108178600D01*
X137908695Y-108091514D02*
X137908695Y-108381800D01*
X137095895Y-108381800D01*
X137095895Y-108091514D01*
X137599057Y-107830257D02*
X137599057Y-107365800D01*
X137482942Y-110921800D02*
X137482942Y-110718600D01*
X137908695Y-110631514D02*
X137908695Y-110921800D01*
X137095895Y-110921800D01*
X137095895Y-110631514D01*
X137599057Y-110370257D02*
X137599057Y-109905800D01*
X137908695Y-110138028D02*
X137289419Y-110138028D01*
X137908695Y-105997828D02*
X137095895Y-105997828D01*
X137095895Y-105852685D01*
X137134600Y-105765600D01*
X137212009Y-105707542D01*
X137289419Y-105678514D01*
X137444238Y-105649485D01*
X137560352Y-105649485D01*
X137715171Y-105678514D01*
X137792580Y-105707542D01*
X137869990Y-105765600D01*
X137908695Y-105852685D01*
X137908695Y-105997828D01*
X137599057Y-105388228D02*
X137599057Y-104923771D01*
X137908695Y-103584828D02*
X137095895Y-103584828D01*
X137095895Y-103439685D01*
X137134600Y-103352600D01*
X137212009Y-103294542D01*
X137289419Y-103265514D01*
X137444238Y-103236485D01*
X137560352Y-103236485D01*
X137715171Y-103265514D01*
X137792580Y-103294542D01*
X137869990Y-103352600D01*
X137908695Y-103439685D01*
X137908695Y-103584828D01*
X137599057Y-102975228D02*
X137599057Y-102510771D01*
X137908695Y-102743000D02*
X137289419Y-102743000D01*
X137482942Y-101015800D02*
X137482942Y-100812600D01*
X137908695Y-100725514D02*
X137908695Y-101015800D01*
X137095895Y-101015800D01*
X137095895Y-100725514D01*
X137599057Y-100464257D02*
X137599057Y-99999800D01*
X137908695Y-100232028D02*
X137289419Y-100232028D01*
X137482942Y-98602800D02*
X137482942Y-98399600D01*
X137908695Y-98312514D02*
X137908695Y-98602800D01*
X137095895Y-98602800D01*
X137095895Y-98312514D01*
X137599057Y-98051257D02*
X137599057Y-97586800D01*
X137908695Y-96091828D02*
X137095895Y-96091828D01*
X137095895Y-95946685D01*
X137134600Y-95859600D01*
X137212009Y-95801542D01*
X137289419Y-95772514D01*
X137444238Y-95743485D01*
X137560352Y-95743485D01*
X137715171Y-95772514D01*
X137792580Y-95801542D01*
X137869990Y-95859600D01*
X137908695Y-95946685D01*
X137908695Y-96091828D01*
X137599057Y-95482228D02*
X137599057Y-95017771D01*
X137908695Y-93424828D02*
X137095895Y-93424828D01*
X137095895Y-93279685D01*
X137134600Y-93192600D01*
X137212009Y-93134542D01*
X137289419Y-93105514D01*
X137444238Y-93076485D01*
X137560352Y-93076485D01*
X137715171Y-93105514D01*
X137792580Y-93134542D01*
X137869990Y-93192600D01*
X137908695Y-93279685D01*
X137908695Y-93424828D01*
X137599057Y-92815228D02*
X137599057Y-92350771D01*
X137908695Y-92583000D02*
X137289419Y-92583000D01*
X109360304Y-101531057D02*
X110173104Y-101531057D01*
X109360304Y-101879400D01*
X110173104Y-101879400D01*
X109399009Y-102140657D02*
X109360304Y-102227742D01*
X109360304Y-102372885D01*
X109399009Y-102430942D01*
X109437714Y-102459971D01*
X109515123Y-102489000D01*
X109592533Y-102489000D01*
X109669942Y-102459971D01*
X109708647Y-102430942D01*
X109747352Y-102372885D01*
X109786057Y-102256771D01*
X109824761Y-102198714D01*
X109863466Y-102169685D01*
X109940876Y-102140657D01*
X110018285Y-102140657D01*
X110095695Y-102169685D01*
X110134400Y-102198714D01*
X110173104Y-102256771D01*
X110173104Y-102401914D01*
X110134400Y-102489000D01*
X109399009Y-102721228D02*
X109360304Y-102808314D01*
X109360304Y-102953457D01*
X109399009Y-103011514D01*
X109437714Y-103040542D01*
X109515123Y-103069571D01*
X109592533Y-103069571D01*
X109669942Y-103040542D01*
X109708647Y-103011514D01*
X109747352Y-102953457D01*
X109786057Y-102837342D01*
X109824761Y-102779285D01*
X109863466Y-102750257D01*
X109940876Y-102721228D01*
X110018285Y-102721228D01*
X110095695Y-102750257D01*
X110134400Y-102779285D01*
X110173104Y-102837342D01*
X110173104Y-102982485D01*
X110134400Y-103069571D01*
X109399009Y-104042028D02*
X109360304Y-104129114D01*
X109360304Y-104274257D01*
X109399009Y-104332314D01*
X109437714Y-104361342D01*
X109515123Y-104390371D01*
X109592533Y-104390371D01*
X109669942Y-104361342D01*
X109708647Y-104332314D01*
X109747352Y-104274257D01*
X109786057Y-104158142D01*
X109824761Y-104100085D01*
X109863466Y-104071057D01*
X109940876Y-104042028D01*
X110018285Y-104042028D01*
X110095695Y-104071057D01*
X110134400Y-104100085D01*
X110173104Y-104158142D01*
X110173104Y-104303285D01*
X110134400Y-104390371D01*
X109437714Y-104999971D02*
X109399009Y-104970942D01*
X109360304Y-104883857D01*
X109360304Y-104825800D01*
X109399009Y-104738714D01*
X109476419Y-104680657D01*
X109553828Y-104651628D01*
X109708647Y-104622600D01*
X109824761Y-104622600D01*
X109979580Y-104651628D01*
X110056990Y-104680657D01*
X110134400Y-104738714D01*
X110173104Y-104825800D01*
X110173104Y-104883857D01*
X110134400Y-104970942D01*
X110095695Y-104999971D01*
X109360304Y-105261228D02*
X110173104Y-105261228D01*
X109360304Y-105609571D02*
X109824761Y-105348314D01*
X110173104Y-105609571D02*
X109708647Y-105261228D01*
X109360304Y-106534857D02*
X110173104Y-106534857D01*
X109592533Y-106738057D01*
X110173104Y-106941257D01*
X109360304Y-106941257D01*
X109360304Y-107231542D02*
X110173104Y-107231542D01*
X109399009Y-107492800D02*
X109360304Y-107579885D01*
X109360304Y-107725028D01*
X109399009Y-107783085D01*
X109437714Y-107812114D01*
X109515123Y-107841142D01*
X109592533Y-107841142D01*
X109669942Y-107812114D01*
X109708647Y-107783085D01*
X109747352Y-107725028D01*
X109786057Y-107608914D01*
X109824761Y-107550857D01*
X109863466Y-107521828D01*
X109940876Y-107492800D01*
X110018285Y-107492800D01*
X110095695Y-107521828D01*
X110134400Y-107550857D01*
X110173104Y-107608914D01*
X110173104Y-107754057D01*
X110134400Y-107841142D01*
X110173104Y-108218514D02*
X110173104Y-108334628D01*
X110134400Y-108392685D01*
X110056990Y-108450742D01*
X109902171Y-108479771D01*
X109631238Y-108479771D01*
X109476419Y-108450742D01*
X109399009Y-108392685D01*
X109360304Y-108334628D01*
X109360304Y-108218514D01*
X109399009Y-108160457D01*
X109476419Y-108102400D01*
X109631238Y-108073371D01*
X109902171Y-108073371D01*
X110056990Y-108102400D01*
X110134400Y-108160457D01*
X110173104Y-108218514D01*
X109360304Y-108947857D02*
X110173104Y-108947857D01*
X109592533Y-109151057D01*
X110173104Y-109354257D01*
X109360304Y-109354257D01*
X110173104Y-109760657D02*
X110173104Y-109876771D01*
X110134400Y-109934828D01*
X110056990Y-109992885D01*
X109902171Y-110021914D01*
X109631238Y-110021914D01*
X109476419Y-109992885D01*
X109399009Y-109934828D01*
X109360304Y-109876771D01*
X109360304Y-109760657D01*
X109399009Y-109702600D01*
X109476419Y-109644542D01*
X109631238Y-109615514D01*
X109902171Y-109615514D01*
X110056990Y-109644542D01*
X110134400Y-109702600D01*
X110173104Y-109760657D01*
X109399009Y-110254142D02*
X109360304Y-110341228D01*
X109360304Y-110486371D01*
X109399009Y-110544428D01*
X109437714Y-110573457D01*
X109515123Y-110602485D01*
X109592533Y-110602485D01*
X109669942Y-110573457D01*
X109708647Y-110544428D01*
X109747352Y-110486371D01*
X109786057Y-110370257D01*
X109824761Y-110312200D01*
X109863466Y-110283171D01*
X109940876Y-110254142D01*
X110018285Y-110254142D01*
X110095695Y-110283171D01*
X110134400Y-110312200D01*
X110173104Y-110370257D01*
X110173104Y-110515400D01*
X110134400Y-110602485D01*
X109360304Y-110863742D02*
X110173104Y-110863742D01*
X110134400Y-114394342D02*
X110173104Y-114336285D01*
X110173104Y-114249200D01*
X110134400Y-114162114D01*
X110056990Y-114104057D01*
X109979580Y-114075028D01*
X109824761Y-114046000D01*
X109708647Y-114046000D01*
X109553828Y-114075028D01*
X109476419Y-114104057D01*
X109399009Y-114162114D01*
X109360304Y-114249200D01*
X109360304Y-114307257D01*
X109399009Y-114394342D01*
X109437714Y-114423371D01*
X109708647Y-114423371D01*
X109708647Y-114307257D01*
X109360304Y-114684628D02*
X110173104Y-114684628D01*
X109360304Y-115032971D01*
X110173104Y-115032971D01*
X109360304Y-115323257D02*
X110173104Y-115323257D01*
X110173104Y-115468400D01*
X110134400Y-115555485D01*
X110056990Y-115613542D01*
X109979580Y-115642571D01*
X109824761Y-115671600D01*
X109708647Y-115671600D01*
X109553828Y-115642571D01*
X109476419Y-115613542D01*
X109399009Y-115555485D01*
X109360304Y-115468400D01*
X109360304Y-115323257D01*
X110173104Y-111545914D02*
X110173104Y-111923285D01*
X109863466Y-111720085D01*
X109863466Y-111807171D01*
X109824761Y-111865228D01*
X109786057Y-111894257D01*
X109708647Y-111923285D01*
X109515123Y-111923285D01*
X109437714Y-111894257D01*
X109399009Y-111865228D01*
X109360304Y-111807171D01*
X109360304Y-111633000D01*
X109399009Y-111574942D01*
X109437714Y-111545914D01*
X109437714Y-112184542D02*
X109399009Y-112213571D01*
X109360304Y-112184542D01*
X109399009Y-112155514D01*
X109437714Y-112184542D01*
X109360304Y-112184542D01*
X110173104Y-112416771D02*
X110173104Y-112794142D01*
X109863466Y-112590942D01*
X109863466Y-112678028D01*
X109824761Y-112736085D01*
X109786057Y-112765114D01*
X109708647Y-112794142D01*
X109515123Y-112794142D01*
X109437714Y-112765114D01*
X109399009Y-112736085D01*
X109360304Y-112678028D01*
X109360304Y-112503857D01*
X109399009Y-112445800D01*
X109437714Y-112416771D01*
X110173104Y-112968314D02*
X109360304Y-113171514D01*
X110173104Y-113374714D01*
X116357400Y-95287495D02*
X116154200Y-94900447D01*
X116009057Y-95287495D02*
X116009057Y-94474695D01*
X116241285Y-94474695D01*
X116299342Y-94513400D01*
X116328371Y-94552104D01*
X116357400Y-94629514D01*
X116357400Y-94745628D01*
X116328371Y-94823038D01*
X116299342Y-94861742D01*
X116241285Y-94900447D01*
X116009057Y-94900447D01*
X116560600Y-94474695D02*
X116967000Y-95287495D01*
X116967000Y-94474695D02*
X116560600Y-95287495D01*
X113454542Y-94474695D02*
X113802885Y-94474695D01*
X113628714Y-95287495D02*
X113628714Y-94474695D01*
X113948028Y-94474695D02*
X114354428Y-95287495D01*
X114354428Y-94474695D02*
X113948028Y-95287495D01*
X110914542Y-94513400D02*
X110856485Y-94474695D01*
X110769400Y-94474695D01*
X110682314Y-94513400D01*
X110624257Y-94590809D01*
X110595228Y-94668219D01*
X110566200Y-94823038D01*
X110566200Y-94939152D01*
X110595228Y-95093971D01*
X110624257Y-95171380D01*
X110682314Y-95248790D01*
X110769400Y-95287495D01*
X110827457Y-95287495D01*
X110914542Y-95248790D01*
X110943571Y-95210085D01*
X110943571Y-94939152D01*
X110827457Y-94939152D01*
X111204828Y-95287495D02*
X111204828Y-94474695D01*
X111553171Y-95287495D01*
X111553171Y-94474695D01*
X111843457Y-95287495D02*
X111843457Y-94474695D01*
X111988600Y-94474695D01*
X112075685Y-94513400D01*
X112133742Y-94590809D01*
X112162771Y-94668219D01*
X112191800Y-94823038D01*
X112191800Y-94939152D01*
X112162771Y-95093971D01*
X112133742Y-95171380D01*
X112075685Y-95248790D01*
X111988600Y-95287495D01*
X111843457Y-95287495D01*
X118099114Y-94474695D02*
X118476485Y-94474695D01*
X118273285Y-94784333D01*
X118360371Y-94784333D01*
X118418428Y-94823038D01*
X118447457Y-94861742D01*
X118476485Y-94939152D01*
X118476485Y-95132676D01*
X118447457Y-95210085D01*
X118418428Y-95248790D01*
X118360371Y-95287495D01*
X118186200Y-95287495D01*
X118128142Y-95248790D01*
X118099114Y-95210085D01*
X118737742Y-95210085D02*
X118766771Y-95248790D01*
X118737742Y-95287495D01*
X118708714Y-95248790D01*
X118737742Y-95210085D01*
X118737742Y-95287495D01*
X118969971Y-94474695D02*
X119347342Y-94474695D01*
X119144142Y-94784333D01*
X119231228Y-94784333D01*
X119289285Y-94823038D01*
X119318314Y-94861742D01*
X119347342Y-94939152D01*
X119347342Y-95132676D01*
X119318314Y-95210085D01*
X119289285Y-95248790D01*
X119231228Y-95287495D01*
X119057057Y-95287495D01*
X118999000Y-95248790D01*
X118969971Y-95210085D01*
X119521514Y-94474695D02*
X119724714Y-95287495D01*
X119927914Y-94474695D01*
X116511614Y-119557195D02*
X116888985Y-119557195D01*
X116685785Y-119866833D01*
X116772871Y-119866833D01*
X116830928Y-119905538D01*
X116859957Y-119944242D01*
X116888985Y-120021652D01*
X116888985Y-120215176D01*
X116859957Y-120292585D01*
X116830928Y-120331290D01*
X116772871Y-120369995D01*
X116598700Y-120369995D01*
X116540642Y-120331290D01*
X116511614Y-120292585D01*
X117150242Y-120292585D02*
X117179271Y-120331290D01*
X117150242Y-120369995D01*
X117121214Y-120331290D01*
X117150242Y-120292585D01*
X117150242Y-120369995D01*
X117382471Y-119557195D02*
X117759842Y-119557195D01*
X117556642Y-119866833D01*
X117643728Y-119866833D01*
X117701785Y-119905538D01*
X117730814Y-119944242D01*
X117759842Y-120021652D01*
X117759842Y-120215176D01*
X117730814Y-120292585D01*
X117701785Y-120331290D01*
X117643728Y-120369995D01*
X117469557Y-120369995D01*
X117411500Y-120331290D01*
X117382471Y-120292585D01*
X117934014Y-119557195D02*
X118137214Y-120369995D01*
X118340414Y-119557195D01*
X119487042Y-119595900D02*
X119428985Y-119557195D01*
X119341900Y-119557195D01*
X119254814Y-119595900D01*
X119196757Y-119673309D01*
X119167728Y-119750719D01*
X119138700Y-119905538D01*
X119138700Y-120021652D01*
X119167728Y-120176471D01*
X119196757Y-120253880D01*
X119254814Y-120331290D01*
X119341900Y-120369995D01*
X119399957Y-120369995D01*
X119487042Y-120331290D01*
X119516071Y-120292585D01*
X119516071Y-120021652D01*
X119399957Y-120021652D01*
X119777328Y-120369995D02*
X119777328Y-119557195D01*
X120125671Y-120369995D01*
X120125671Y-119557195D01*
X120415957Y-120369995D02*
X120415957Y-119557195D01*
X120561100Y-119557195D01*
X120648185Y-119595900D01*
X120706242Y-119673309D01*
X120735271Y-119750719D01*
X120764300Y-119905538D01*
X120764300Y-120021652D01*
X120735271Y-120176471D01*
X120706242Y-120253880D01*
X120648185Y-120331290D01*
X120561100Y-120369995D01*
X120415957Y-120369995D01*
X121751271Y-120331290D02*
X121838357Y-120369995D01*
X121983500Y-120369995D01*
X122041557Y-120331290D01*
X122070585Y-120292585D01*
X122099614Y-120215176D01*
X122099614Y-120137766D01*
X122070585Y-120060357D01*
X122041557Y-120021652D01*
X121983500Y-119982947D01*
X121867385Y-119944242D01*
X121809328Y-119905538D01*
X121780300Y-119866833D01*
X121751271Y-119789423D01*
X121751271Y-119712014D01*
X121780300Y-119634604D01*
X121809328Y-119595900D01*
X121867385Y-119557195D01*
X122012528Y-119557195D01*
X122099614Y-119595900D01*
X122360871Y-120369995D02*
X122360871Y-119557195D01*
X122506014Y-119557195D01*
X122593100Y-119595900D01*
X122651157Y-119673309D01*
X122680185Y-119750719D01*
X122709214Y-119905538D01*
X122709214Y-120021652D01*
X122680185Y-120176471D01*
X122651157Y-120253880D01*
X122593100Y-120331290D01*
X122506014Y-120369995D01*
X122360871Y-120369995D01*
X122941442Y-120137766D02*
X123231728Y-120137766D01*
X122883385Y-120369995D02*
X123086585Y-119557195D01*
X123289785Y-120369995D01*
X124305785Y-120331290D02*
X124392871Y-120369995D01*
X124538014Y-120369995D01*
X124596071Y-120331290D01*
X124625100Y-120292585D01*
X124654128Y-120215176D01*
X124654128Y-120137766D01*
X124625100Y-120060357D01*
X124596071Y-120021652D01*
X124538014Y-119982947D01*
X124421900Y-119944242D01*
X124363842Y-119905538D01*
X124334814Y-119866833D01*
X124305785Y-119789423D01*
X124305785Y-119712014D01*
X124334814Y-119634604D01*
X124363842Y-119595900D01*
X124421900Y-119557195D01*
X124567042Y-119557195D01*
X124654128Y-119595900D01*
X125263728Y-120292585D02*
X125234700Y-120331290D01*
X125147614Y-120369995D01*
X125089557Y-120369995D01*
X125002471Y-120331290D01*
X124944414Y-120253880D01*
X124915385Y-120176471D01*
X124886357Y-120021652D01*
X124886357Y-119905538D01*
X124915385Y-119750719D01*
X124944414Y-119673309D01*
X125002471Y-119595900D01*
X125089557Y-119557195D01*
X125147614Y-119557195D01*
X125234700Y-119595900D01*
X125263728Y-119634604D01*
X125815271Y-120369995D02*
X125524985Y-120369995D01*
X125524985Y-119557195D01*
X134473042Y-116039900D02*
X134414985Y-116001195D01*
X134327900Y-116001195D01*
X134240814Y-116039900D01*
X134182757Y-116117309D01*
X134153728Y-116194719D01*
X134124700Y-116349538D01*
X134124700Y-116465652D01*
X134153728Y-116620471D01*
X134182757Y-116697880D01*
X134240814Y-116775290D01*
X134327900Y-116813995D01*
X134385957Y-116813995D01*
X134473042Y-116775290D01*
X134502071Y-116736585D01*
X134502071Y-116465652D01*
X134385957Y-116465652D01*
X134763328Y-116813995D02*
X134763328Y-116001195D01*
X135111671Y-116813995D01*
X135111671Y-116001195D01*
X135401957Y-116813995D02*
X135401957Y-116001195D01*
X135547100Y-116001195D01*
X135634185Y-116039900D01*
X135692242Y-116117309D01*
X135721271Y-116194719D01*
X135750300Y-116349538D01*
X135750300Y-116465652D01*
X135721271Y-116620471D01*
X135692242Y-116697880D01*
X135634185Y-116775290D01*
X135547100Y-116813995D01*
X135401957Y-116813995D01*
X132034642Y-116736585D02*
X132005614Y-116775290D01*
X131918528Y-116813995D01*
X131860471Y-116813995D01*
X131773385Y-116775290D01*
X131715328Y-116697880D01*
X131686300Y-116620471D01*
X131657271Y-116465652D01*
X131657271Y-116349538D01*
X131686300Y-116194719D01*
X131715328Y-116117309D01*
X131773385Y-116039900D01*
X131860471Y-116001195D01*
X131918528Y-116001195D01*
X132005614Y-116039900D01*
X132034642Y-116078604D01*
X132586185Y-116813995D02*
X132295900Y-116813995D01*
X132295900Y-116001195D01*
X132789385Y-116813995D02*
X132789385Y-116001195D01*
X133137728Y-116813995D02*
X132876471Y-116349538D01*
X133137728Y-116001195D02*
X132789385Y-116465652D01*
X129233385Y-116813995D02*
X129233385Y-116001195D01*
X129378528Y-116001195D01*
X129465614Y-116039900D01*
X129523671Y-116117309D01*
X129552700Y-116194719D01*
X129581728Y-116349538D01*
X129581728Y-116465652D01*
X129552700Y-116620471D01*
X129523671Y-116697880D01*
X129465614Y-116775290D01*
X129378528Y-116813995D01*
X129233385Y-116813995D01*
X129842985Y-116813995D02*
X129842985Y-116001195D01*
X130249385Y-116001195D02*
X130365500Y-116001195D01*
X130423557Y-116039900D01*
X130481614Y-116117309D01*
X130510642Y-116272128D01*
X130510642Y-116543061D01*
X130481614Y-116697880D01*
X130423557Y-116775290D01*
X130365500Y-116813995D01*
X130249385Y-116813995D01*
X130191328Y-116775290D01*
X130133271Y-116697880D01*
X130104242Y-116543061D01*
X130104242Y-116272128D01*
X130133271Y-116117309D01*
X130191328Y-116039900D01*
X130249385Y-116001195D01*
X111072385Y-99160995D02*
X111072385Y-98348195D01*
X111217528Y-98348195D01*
X111304614Y-98386900D01*
X111362671Y-98464309D01*
X111391700Y-98541719D01*
X111420728Y-98696538D01*
X111420728Y-98812652D01*
X111391700Y-98967471D01*
X111362671Y-99044880D01*
X111304614Y-99122290D01*
X111217528Y-99160995D01*
X111072385Y-99160995D01*
X111681985Y-99160995D02*
X111681985Y-98348195D01*
X112088385Y-98348195D02*
X112204500Y-98348195D01*
X112262557Y-98386900D01*
X112320614Y-98464309D01*
X112349642Y-98619128D01*
X112349642Y-98890061D01*
X112320614Y-99044880D01*
X112262557Y-99122290D01*
X112204500Y-99160995D01*
X112088385Y-99160995D01*
X112030328Y-99122290D01*
X111972271Y-99044880D01*
X111943242Y-98890061D01*
X111943242Y-98619128D01*
X111972271Y-98464309D01*
X112030328Y-98386900D01*
X112088385Y-98348195D01*
X108793642Y-99083585D02*
X108764614Y-99122290D01*
X108677528Y-99160995D01*
X108619471Y-99160995D01*
X108532385Y-99122290D01*
X108474328Y-99044880D01*
X108445300Y-98967471D01*
X108416271Y-98812652D01*
X108416271Y-98696538D01*
X108445300Y-98541719D01*
X108474328Y-98464309D01*
X108532385Y-98386900D01*
X108619471Y-98348195D01*
X108677528Y-98348195D01*
X108764614Y-98386900D01*
X108793642Y-98425604D01*
X109345185Y-99160995D02*
X109054900Y-99160995D01*
X109054900Y-98348195D01*
X109548385Y-99160995D02*
X109548385Y-98348195D01*
X109896728Y-99160995D02*
X109635471Y-98696538D01*
X109896728Y-98348195D02*
X109548385Y-98812652D01*
X106152042Y-98386900D02*
X106093985Y-98348195D01*
X106006900Y-98348195D01*
X105919814Y-98386900D01*
X105861757Y-98464309D01*
X105832728Y-98541719D01*
X105803700Y-98696538D01*
X105803700Y-98812652D01*
X105832728Y-98967471D01*
X105861757Y-99044880D01*
X105919814Y-99122290D01*
X106006900Y-99160995D01*
X106064957Y-99160995D01*
X106152042Y-99122290D01*
X106181071Y-99083585D01*
X106181071Y-98812652D01*
X106064957Y-98812652D01*
X106442328Y-99160995D02*
X106442328Y-98348195D01*
X106790671Y-99160995D01*
X106790671Y-98348195D01*
X107080957Y-99160995D02*
X107080957Y-98348195D01*
X107226100Y-98348195D01*
X107313185Y-98386900D01*
X107371242Y-98464309D01*
X107400271Y-98541719D01*
X107429300Y-98696538D01*
X107429300Y-98812652D01*
X107400271Y-98967471D01*
X107371242Y-99044880D01*
X107313185Y-99122290D01*
X107226100Y-99160995D01*
X107080957Y-99160995D01*
X112453057Y-110929057D02*
X112414352Y-111016142D01*
X112375647Y-111045171D01*
X112298238Y-111074200D01*
X112182123Y-111074200D01*
X112104714Y-111045171D01*
X112066009Y-111016142D01*
X112027304Y-110958085D01*
X112027304Y-110725857D01*
X112840104Y-110725857D01*
X112840104Y-110929057D01*
X112801400Y-110987114D01*
X112762695Y-111016142D01*
X112685285Y-111045171D01*
X112607876Y-111045171D01*
X112530466Y-111016142D01*
X112491761Y-110987114D01*
X112453057Y-110929057D01*
X112453057Y-110725857D01*
X112840104Y-111451571D02*
X112840104Y-111509628D01*
X112801400Y-111567685D01*
X112762695Y-111596714D01*
X112685285Y-111625742D01*
X112530466Y-111654771D01*
X112336942Y-111654771D01*
X112182123Y-111625742D01*
X112104714Y-111596714D01*
X112066009Y-111567685D01*
X112027304Y-111509628D01*
X112027304Y-111451571D01*
X112066009Y-111393514D01*
X112104714Y-111364485D01*
X112182123Y-111335457D01*
X112336942Y-111306428D01*
X112530466Y-111306428D01*
X112685285Y-111335457D01*
X112762695Y-111364485D01*
X112801400Y-111393514D01*
X112840104Y-111451571D01*
X133164942Y-102151542D02*
X133203647Y-102064457D01*
X133242352Y-102035428D01*
X133319761Y-102006400D01*
X133435876Y-102006400D01*
X133513285Y-102035428D01*
X133551990Y-102064457D01*
X133590695Y-102122514D01*
X133590695Y-102354742D01*
X132777895Y-102354742D01*
X132777895Y-102151542D01*
X132816600Y-102093485D01*
X132855304Y-102064457D01*
X132932714Y-102035428D01*
X133010123Y-102035428D01*
X133087533Y-102064457D01*
X133126238Y-102093485D01*
X133164942Y-102151542D01*
X133164942Y-102354742D01*
X132777895Y-101629028D02*
X132777895Y-101570971D01*
X132816600Y-101512914D01*
X132855304Y-101483885D01*
X132932714Y-101454857D01*
X133087533Y-101425828D01*
X133281057Y-101425828D01*
X133435876Y-101454857D01*
X133513285Y-101483885D01*
X133551990Y-101512914D01*
X133590695Y-101570971D01*
X133590695Y-101629028D01*
X133551990Y-101687085D01*
X133513285Y-101716114D01*
X133435876Y-101745142D01*
X133281057Y-101774171D01*
X133087533Y-101774171D01*
X132932714Y-101745142D01*
X132855304Y-101716114D01*
X132816600Y-101687085D01*
X132777895Y-101629028D01*
X135019142Y-130272971D02*
X135483600Y-130040742D01*
X135019142Y-129808514D01*
X134728857Y-130272971D02*
X134264400Y-130040742D01*
X134728857Y-129808514D01*
X137013042Y-129692400D02*
X136954985Y-129653695D01*
X136867900Y-129653695D01*
X136780814Y-129692400D01*
X136722757Y-129769809D01*
X136693728Y-129847219D01*
X136664700Y-130002038D01*
X136664700Y-130118152D01*
X136693728Y-130272971D01*
X136722757Y-130350380D01*
X136780814Y-130427790D01*
X136867900Y-130466495D01*
X136925957Y-130466495D01*
X137013042Y-130427790D01*
X137042071Y-130389085D01*
X137042071Y-130118152D01*
X136925957Y-130118152D01*
X137303328Y-130466495D02*
X137303328Y-129653695D01*
X137651671Y-130466495D01*
X137651671Y-129653695D01*
X137941957Y-130466495D02*
X137941957Y-129653695D01*
X138087100Y-129653695D01*
X138174185Y-129692400D01*
X138232242Y-129769809D01*
X138261271Y-129847219D01*
X138290300Y-130002038D01*
X138290300Y-130118152D01*
X138261271Y-130272971D01*
X138232242Y-130350380D01*
X138174185Y-130427790D01*
X138087100Y-130466495D01*
X137941957Y-130466495D01*
X131711700Y-129653695D02*
X131914900Y-130466495D01*
X132118100Y-129653695D01*
X132669642Y-130389085D02*
X132640614Y-130427790D01*
X132553528Y-130466495D01*
X132495471Y-130466495D01*
X132408385Y-130427790D01*
X132350328Y-130350380D01*
X132321300Y-130272971D01*
X132292271Y-130118152D01*
X132292271Y-130002038D01*
X132321300Y-129847219D01*
X132350328Y-129769809D01*
X132408385Y-129692400D01*
X132495471Y-129653695D01*
X132553528Y-129653695D01*
X132640614Y-129692400D01*
X132669642Y-129731104D01*
X133279242Y-130389085D02*
X133250214Y-130427790D01*
X133163128Y-130466495D01*
X133105071Y-130466495D01*
X133017985Y-130427790D01*
X132959928Y-130350380D01*
X132930900Y-130272971D01*
X132901871Y-130118152D01*
X132901871Y-130002038D01*
X132930900Y-129847219D01*
X132959928Y-129769809D01*
X133017985Y-129692400D01*
X133105071Y-129653695D01*
X133163128Y-129653695D01*
X133250214Y-129692400D01*
X133279242Y-129731104D01*
X123338771Y-126219857D02*
X123803228Y-126219857D01*
X123338771Y-123679857D02*
X123803228Y-123679857D01*
X123571000Y-123989495D02*
X123571000Y-123370219D01*
D12*
G36*
X129617521Y-84140656D02*
G01*
X129624189Y-84142908D01*
X129625883Y-84143841D01*
X129628052Y-84145649D01*
X129633552Y-84150376D01*
X129642242Y-84157897D01*
X129653980Y-84168090D01*
X129668623Y-84180830D01*
X129686029Y-84195993D01*
X129706056Y-84213454D01*
X129728562Y-84233090D01*
X129753406Y-84254777D01*
X129780444Y-84278390D01*
X129809535Y-84303805D01*
X129840536Y-84330899D01*
X129873307Y-84359547D01*
X129907704Y-84389625D01*
X129943585Y-84421009D01*
X129980809Y-84453575D01*
X130019234Y-84487199D01*
X130058716Y-84521757D01*
X130099115Y-84557125D01*
X130110346Y-84566958D01*
X130162736Y-84612842D01*
X130211716Y-84655762D01*
X130257359Y-84695783D01*
X130299740Y-84732970D01*
X130338932Y-84767390D01*
X130375010Y-84799107D01*
X130408047Y-84828189D01*
X130438119Y-84854699D01*
X130465299Y-84878705D01*
X130489661Y-84900271D01*
X130511280Y-84919463D01*
X130530230Y-84936348D01*
X130546584Y-84950990D01*
X130560416Y-84963455D01*
X130571802Y-84973809D01*
X130580815Y-84982118D01*
X130587530Y-84988447D01*
X130592019Y-84992862D01*
X130594359Y-84995428D01*
X130594677Y-84995892D01*
X130599179Y-85007378D01*
X130599542Y-85018455D01*
X130595662Y-85029521D01*
X130587435Y-85040973D01*
X130581079Y-85047522D01*
X130577109Y-85051174D01*
X130569937Y-85057626D01*
X130559734Y-85066728D01*
X130546673Y-85078329D01*
X130530926Y-85092279D01*
X130512663Y-85108426D01*
X130492058Y-85126619D01*
X130469282Y-85146709D01*
X130444507Y-85168544D01*
X130417904Y-85191973D01*
X130389646Y-85216846D01*
X130359905Y-85243012D01*
X130328852Y-85270319D01*
X130296659Y-85298618D01*
X130263498Y-85327758D01*
X130229541Y-85357587D01*
X130194960Y-85387955D01*
X130159927Y-85418711D01*
X130124613Y-85449705D01*
X130089190Y-85480785D01*
X130053831Y-85511801D01*
X130018707Y-85542602D01*
X129983990Y-85573037D01*
X129949852Y-85602956D01*
X129916464Y-85632207D01*
X129884000Y-85660641D01*
X129852629Y-85688105D01*
X129822525Y-85714450D01*
X129793859Y-85739524D01*
X129766803Y-85763177D01*
X129741530Y-85785259D01*
X129718209Y-85805617D01*
X129697015Y-85824102D01*
X129678118Y-85840562D01*
X129661691Y-85854848D01*
X129647904Y-85866807D01*
X129636931Y-85876290D01*
X129628943Y-85883145D01*
X129624112Y-85887222D01*
X129622632Y-85888384D01*
X129613671Y-85890742D01*
X129602153Y-85890793D01*
X129593359Y-85889714D01*
X129587277Y-85887564D01*
X129582017Y-85883638D01*
X129581363Y-85883025D01*
X129576157Y-85877587D01*
X129572161Y-85872583D01*
X129571551Y-85871627D01*
X129571148Y-85869679D01*
X129570773Y-85865168D01*
X129570423Y-85857940D01*
X129570098Y-85847840D01*
X129569794Y-85834714D01*
X129569511Y-85818409D01*
X129569247Y-85798770D01*
X129568999Y-85775643D01*
X129568767Y-85748875D01*
X129568548Y-85718310D01*
X129568341Y-85683797D01*
X129568143Y-85645179D01*
X129567954Y-85602303D01*
X129567770Y-85555016D01*
X129567709Y-85537944D01*
X129566555Y-85208879D01*
X129183246Y-85545644D01*
X129146920Y-85577541D01*
X129111446Y-85608658D01*
X129076985Y-85638855D01*
X129043697Y-85667991D01*
X129011743Y-85695928D01*
X128981285Y-85722523D01*
X128952483Y-85747639D01*
X128925499Y-85771135D01*
X128900494Y-85792870D01*
X128877628Y-85812706D01*
X128857063Y-85830501D01*
X128838959Y-85846117D01*
X128823478Y-85859413D01*
X128810781Y-85870249D01*
X128801029Y-85878485D01*
X128794382Y-85883982D01*
X128791002Y-85886599D01*
X128790700Y-85886780D01*
X128779497Y-85890537D01*
X128768969Y-85890390D01*
X128757628Y-85886307D01*
X128757130Y-85886059D01*
X128748313Y-85880034D01*
X128742141Y-85871544D01*
X128741632Y-85870560D01*
X128736437Y-85860257D01*
X128736487Y-85015042D01*
X128736492Y-84940785D01*
X128736498Y-84871005D01*
X128736505Y-84805561D01*
X128736515Y-84744312D01*
X128736528Y-84687118D01*
X128736545Y-84633838D01*
X128736567Y-84584330D01*
X128736594Y-84538454D01*
X128736627Y-84496068D01*
X128736667Y-84457032D01*
X128736715Y-84421206D01*
X128736771Y-84388446D01*
X128736836Y-84358614D01*
X128736911Y-84331568D01*
X128736997Y-84307167D01*
X128737094Y-84285271D01*
X128737203Y-84265737D01*
X128737324Y-84248426D01*
X128737460Y-84233196D01*
X128737609Y-84219906D01*
X128737774Y-84208416D01*
X128737954Y-84198585D01*
X128738151Y-84190271D01*
X128738364Y-84183334D01*
X128738596Y-84177632D01*
X128738847Y-84173026D01*
X128739117Y-84169373D01*
X128739407Y-84166533D01*
X128739718Y-84164365D01*
X128740051Y-84162728D01*
X128740406Y-84161482D01*
X128740785Y-84160484D01*
X128740971Y-84160061D01*
X128747841Y-84150153D01*
X128757560Y-84143141D01*
X128769039Y-84139512D01*
X128781186Y-84139753D01*
X128784573Y-84140584D01*
X128786647Y-84141810D01*
X128790804Y-84144899D01*
X128797128Y-84149925D01*
X128805705Y-84156960D01*
X128816617Y-84166076D01*
X128829949Y-84177347D01*
X128845786Y-84190844D01*
X128864211Y-84206641D01*
X128885308Y-84224809D01*
X128909162Y-84245422D01*
X128935857Y-84268551D01*
X128965477Y-84294270D01*
X128998107Y-84322651D01*
X129033830Y-84353766D01*
X129072730Y-84387688D01*
X129114893Y-84424490D01*
X129160401Y-84464244D01*
X129179782Y-84481182D01*
X129566555Y-84819252D01*
X129567709Y-84492231D01*
X129567870Y-84446894D01*
X129568020Y-84405947D01*
X129568162Y-84369158D01*
X129568300Y-84336299D01*
X129568439Y-84307139D01*
X129568583Y-84281449D01*
X129568735Y-84258999D01*
X129568899Y-84239560D01*
X129569080Y-84222902D01*
X129569282Y-84208796D01*
X129569507Y-84197011D01*
X129569762Y-84187319D01*
X129570048Y-84179489D01*
X129570372Y-84173292D01*
X129570735Y-84168498D01*
X129571143Y-84164878D01*
X129571599Y-84162202D01*
X129572108Y-84160240D01*
X129572673Y-84158763D01*
X129573299Y-84157540D01*
X129573535Y-84157127D01*
X129580987Y-84148517D01*
X129591301Y-84142364D01*
X129603070Y-84139360D01*
X129609719Y-84139306D01*
X129617521Y-84140656D01*
G37*
X129617521Y-84140656D02*
X129624189Y-84142908D01*
X129625883Y-84143841D01*
X129628052Y-84145649D01*
X129633552Y-84150376D01*
X129642242Y-84157897D01*
X129653980Y-84168090D01*
X129668623Y-84180830D01*
X129686029Y-84195993D01*
X129706056Y-84213454D01*
X129728562Y-84233090D01*
X129753406Y-84254777D01*
X129780444Y-84278390D01*
X129809535Y-84303805D01*
X129840536Y-84330899D01*
X129873307Y-84359547D01*
X129907704Y-84389625D01*
X129943585Y-84421009D01*
X129980809Y-84453575D01*
X130019234Y-84487199D01*
X130058716Y-84521757D01*
X130099115Y-84557125D01*
X130110346Y-84566958D01*
X130162736Y-84612842D01*
X130211716Y-84655762D01*
X130257359Y-84695783D01*
X130299740Y-84732970D01*
X130338932Y-84767390D01*
X130375010Y-84799107D01*
X130408047Y-84828189D01*
X130438119Y-84854699D01*
X130465299Y-84878705D01*
X130489661Y-84900271D01*
X130511280Y-84919463D01*
X130530230Y-84936348D01*
X130546584Y-84950990D01*
X130560416Y-84963455D01*
X130571802Y-84973809D01*
X130580815Y-84982118D01*
X130587530Y-84988447D01*
X130592019Y-84992862D01*
X130594359Y-84995428D01*
X130594677Y-84995892D01*
X130599179Y-85007378D01*
X130599542Y-85018455D01*
X130595662Y-85029521D01*
X130587435Y-85040973D01*
X130581079Y-85047522D01*
X130577109Y-85051174D01*
X130569937Y-85057626D01*
X130559734Y-85066728D01*
X130546673Y-85078329D01*
X130530926Y-85092279D01*
X130512663Y-85108426D01*
X130492058Y-85126619D01*
X130469282Y-85146709D01*
X130444507Y-85168544D01*
X130417904Y-85191973D01*
X130389646Y-85216846D01*
X130359905Y-85243012D01*
X130328852Y-85270319D01*
X130296659Y-85298618D01*
X130263498Y-85327758D01*
X130229541Y-85357587D01*
X130194960Y-85387955D01*
X130159927Y-85418711D01*
X130124613Y-85449705D01*
X130089190Y-85480785D01*
X130053831Y-85511801D01*
X130018707Y-85542602D01*
X129983990Y-85573037D01*
X129949852Y-85602956D01*
X129916464Y-85632207D01*
X129884000Y-85660641D01*
X129852629Y-85688105D01*
X129822525Y-85714450D01*
X129793859Y-85739524D01*
X129766803Y-85763177D01*
X129741530Y-85785259D01*
X129718209Y-85805617D01*
X129697015Y-85824102D01*
X129678118Y-85840562D01*
X129661691Y-85854848D01*
X129647904Y-85866807D01*
X129636931Y-85876290D01*
X129628943Y-85883145D01*
X129624112Y-85887222D01*
X129622632Y-85888384D01*
X129613671Y-85890742D01*
X129602153Y-85890793D01*
X129593359Y-85889714D01*
X129587277Y-85887564D01*
X129582017Y-85883638D01*
X129581363Y-85883025D01*
X129576157Y-85877587D01*
X129572161Y-85872583D01*
X129571551Y-85871627D01*
X129571148Y-85869679D01*
X129570773Y-85865168D01*
X129570423Y-85857940D01*
X129570098Y-85847840D01*
X129569794Y-85834714D01*
X129569511Y-85818409D01*
X129569247Y-85798770D01*
X129568999Y-85775643D01*
X129568767Y-85748875D01*
X129568548Y-85718310D01*
X129568341Y-85683797D01*
X129568143Y-85645179D01*
X129567954Y-85602303D01*
X129567770Y-85555016D01*
X129567709Y-85537944D01*
X129566555Y-85208879D01*
X129183246Y-85545644D01*
X129146920Y-85577541D01*
X129111446Y-85608658D01*
X129076985Y-85638855D01*
X129043697Y-85667991D01*
X129011743Y-85695928D01*
X128981285Y-85722523D01*
X128952483Y-85747639D01*
X128925499Y-85771135D01*
X128900494Y-85792870D01*
X128877628Y-85812706D01*
X128857063Y-85830501D01*
X128838959Y-85846117D01*
X128823478Y-85859413D01*
X128810781Y-85870249D01*
X128801029Y-85878485D01*
X128794382Y-85883982D01*
X128791002Y-85886599D01*
X128790700Y-85886780D01*
X128779497Y-85890537D01*
X128768969Y-85890390D01*
X128757628Y-85886307D01*
X128757130Y-85886059D01*
X128748313Y-85880034D01*
X128742141Y-85871544D01*
X128741632Y-85870560D01*
X128736437Y-85860257D01*
X128736487Y-85015042D01*
X128736492Y-84940785D01*
X128736498Y-84871005D01*
X128736505Y-84805561D01*
X128736515Y-84744312D01*
X128736528Y-84687118D01*
X128736545Y-84633838D01*
X128736567Y-84584330D01*
X128736594Y-84538454D01*
X128736627Y-84496068D01*
X128736667Y-84457032D01*
X128736715Y-84421206D01*
X128736771Y-84388446D01*
X128736836Y-84358614D01*
X128736911Y-84331568D01*
X128736997Y-84307167D01*
X128737094Y-84285271D01*
X128737203Y-84265737D01*
X128737324Y-84248426D01*
X128737460Y-84233196D01*
X128737609Y-84219906D01*
X128737774Y-84208416D01*
X128737954Y-84198585D01*
X128738151Y-84190271D01*
X128738364Y-84183334D01*
X128738596Y-84177632D01*
X128738847Y-84173026D01*
X128739117Y-84169373D01*
X128739407Y-84166533D01*
X128739718Y-84164365D01*
X128740051Y-84162728D01*
X128740406Y-84161482D01*
X128740785Y-84160484D01*
X128740971Y-84160061D01*
X128747841Y-84150153D01*
X128757560Y-84143141D01*
X128769039Y-84139512D01*
X128781186Y-84139753D01*
X128784573Y-84140584D01*
X128786647Y-84141810D01*
X128790804Y-84144899D01*
X128797128Y-84149925D01*
X128805705Y-84156960D01*
X128816617Y-84166076D01*
X128829949Y-84177347D01*
X128845786Y-84190844D01*
X128864211Y-84206641D01*
X128885308Y-84224809D01*
X128909162Y-84245422D01*
X128935857Y-84268551D01*
X128965477Y-84294270D01*
X128998107Y-84322651D01*
X129033830Y-84353766D01*
X129072730Y-84387688D01*
X129114893Y-84424490D01*
X129160401Y-84464244D01*
X129179782Y-84481182D01*
X129566555Y-84819252D01*
X129567709Y-84492231D01*
X129567870Y-84446894D01*
X129568020Y-84405947D01*
X129568162Y-84369158D01*
X129568300Y-84336299D01*
X129568439Y-84307139D01*
X129568583Y-84281449D01*
X129568735Y-84258999D01*
X129568899Y-84239560D01*
X129569080Y-84222902D01*
X129569282Y-84208796D01*
X129569507Y-84197011D01*
X129569762Y-84187319D01*
X129570048Y-84179489D01*
X129570372Y-84173292D01*
X129570735Y-84168498D01*
X129571143Y-84164878D01*
X129571599Y-84162202D01*
X129572108Y-84160240D01*
X129572673Y-84158763D01*
X129573299Y-84157540D01*
X129573535Y-84157127D01*
X129580987Y-84148517D01*
X129591301Y-84142364D01*
X129603070Y-84139360D01*
X129609719Y-84139306D01*
X129617521Y-84140656D01*
G36*
X116606782Y-85586454D02*
G01*
X116375873Y-85586454D01*
X116375873Y-85129254D01*
X115463782Y-85129254D01*
X115463782Y-85586454D01*
X115235182Y-85586454D01*
X115235182Y-84898345D01*
X116606782Y-84898345D01*
X116606782Y-85586454D01*
G37*
X116606782Y-85586454D02*
X116375873Y-85586454D01*
X116375873Y-85129254D01*
X115463782Y-85129254D01*
X115463782Y-85586454D01*
X115235182Y-85586454D01*
X115235182Y-84898345D01*
X116606782Y-84898345D01*
X116606782Y-85586454D01*
G36*
X117063982Y-85067547D02*
G01*
X117064016Y-85100735D01*
X117064117Y-85131516D01*
X117064280Y-85159614D01*
X117064503Y-85184752D01*
X117064781Y-85206653D01*
X117065112Y-85225040D01*
X117065492Y-85239637D01*
X117065916Y-85250167D01*
X117066378Y-85256315D01*
X117071309Y-85279294D01*
X117080091Y-85299769D01*
X117092583Y-85317563D01*
X117108649Y-85332499D01*
X117128149Y-85344401D01*
X117139214Y-85349185D01*
X117152882Y-85354391D01*
X117680266Y-85354997D01*
X118207650Y-85355604D01*
X118206316Y-85378088D01*
X118202622Y-85407441D01*
X118194965Y-85435131D01*
X118185073Y-85458300D01*
X118169311Y-85485098D01*
X118149977Y-85509509D01*
X118127564Y-85531174D01*
X118102561Y-85549738D01*
X118075460Y-85564842D01*
X118046753Y-85576130D01*
X118016929Y-85583245D01*
X118012274Y-85583946D01*
X118007563Y-85584276D01*
X117998525Y-85584581D01*
X117985427Y-85584862D01*
X117968535Y-85585119D01*
X117948118Y-85585354D01*
X117924442Y-85585565D01*
X117897775Y-85585753D01*
X117868384Y-85585919D01*
X117836536Y-85586063D01*
X117802498Y-85586185D01*
X117766538Y-85586284D01*
X117728923Y-85586363D01*
X117689920Y-85586420D01*
X117649796Y-85586456D01*
X117608818Y-85586471D01*
X117567255Y-85586466D01*
X117525372Y-85586440D01*
X117483437Y-85586395D01*
X117441718Y-85586330D01*
X117400482Y-85586245D01*
X117359995Y-85586141D01*
X117320526Y-85586019D01*
X117282341Y-85585877D01*
X117245707Y-85585717D01*
X117210893Y-85585539D01*
X117178164Y-85585343D01*
X117147789Y-85585129D01*
X117120034Y-85584898D01*
X117095166Y-85584650D01*
X117073454Y-85584384D01*
X117055164Y-85584102D01*
X117040563Y-85583804D01*
X117029919Y-85583490D01*
X117023499Y-85583159D01*
X117022006Y-85582997D01*
X116991232Y-85575523D01*
X116961986Y-85563847D01*
X116934729Y-85548237D01*
X116909921Y-85528964D01*
X116888023Y-85506297D01*
X116885064Y-85502680D01*
X116866578Y-85476182D01*
X116852372Y-85448153D01*
X116842337Y-85418318D01*
X116836367Y-85386404D01*
X116835355Y-85376428D01*
X116835039Y-85370300D01*
X116834736Y-85359917D01*
X116834448Y-85345644D01*
X116834180Y-85327844D01*
X116833934Y-85306881D01*
X116833714Y-85283119D01*
X116833523Y-85256923D01*
X116833364Y-85228654D01*
X116833241Y-85198679D01*
X116833156Y-85167359D01*
X116833114Y-85135060D01*
X116833109Y-85124059D01*
X116833073Y-84898345D01*
X117063982Y-84898345D01*
X117063982Y-85067547D01*
G37*
X117063982Y-85067547D02*
X117064016Y-85100735D01*
X117064117Y-85131516D01*
X117064280Y-85159614D01*
X117064503Y-85184752D01*
X117064781Y-85206653D01*
X117065112Y-85225040D01*
X117065492Y-85239637D01*
X117065916Y-85250167D01*
X117066378Y-85256315D01*
X117071309Y-85279294D01*
X117080091Y-85299769D01*
X117092583Y-85317563D01*
X117108649Y-85332499D01*
X117128149Y-85344401D01*
X117139214Y-85349185D01*
X117152882Y-85354391D01*
X117680266Y-85354997D01*
X118207650Y-85355604D01*
X118206316Y-85378088D01*
X118202622Y-85407441D01*
X118194965Y-85435131D01*
X118185073Y-85458300D01*
X118169311Y-85485098D01*
X118149977Y-85509509D01*
X118127564Y-85531174D01*
X118102561Y-85549738D01*
X118075460Y-85564842D01*
X118046753Y-85576130D01*
X118016929Y-85583245D01*
X118012274Y-85583946D01*
X118007563Y-85584276D01*
X117998525Y-85584581D01*
X117985427Y-85584862D01*
X117968535Y-85585119D01*
X117948118Y-85585354D01*
X117924442Y-85585565D01*
X117897775Y-85585753D01*
X117868384Y-85585919D01*
X117836536Y-85586063D01*
X117802498Y-85586185D01*
X117766538Y-85586284D01*
X117728923Y-85586363D01*
X117689920Y-85586420D01*
X117649796Y-85586456D01*
X117608818Y-85586471D01*
X117567255Y-85586466D01*
X117525372Y-85586440D01*
X117483437Y-85586395D01*
X117441718Y-85586330D01*
X117400482Y-85586245D01*
X117359995Y-85586141D01*
X117320526Y-85586019D01*
X117282341Y-85585877D01*
X117245707Y-85585717D01*
X117210893Y-85585539D01*
X117178164Y-85585343D01*
X117147789Y-85585129D01*
X117120034Y-85584898D01*
X117095166Y-85584650D01*
X117073454Y-85584384D01*
X117055164Y-85584102D01*
X117040563Y-85583804D01*
X117029919Y-85583490D01*
X117023499Y-85583159D01*
X117022006Y-85582997D01*
X116991232Y-85575523D01*
X116961986Y-85563847D01*
X116934729Y-85548237D01*
X116909921Y-85528964D01*
X116888023Y-85506297D01*
X116885064Y-85502680D01*
X116866578Y-85476182D01*
X116852372Y-85448153D01*
X116842337Y-85418318D01*
X116836367Y-85386404D01*
X116835355Y-85376428D01*
X116835039Y-85370300D01*
X116834736Y-85359917D01*
X116834448Y-85345644D01*
X116834180Y-85327844D01*
X116833934Y-85306881D01*
X116833714Y-85283119D01*
X116833523Y-85256923D01*
X116833364Y-85228654D01*
X116833241Y-85198679D01*
X116833156Y-85167359D01*
X116833114Y-85135060D01*
X116833109Y-85124059D01*
X116833073Y-84898345D01*
X117063982Y-84898345D01*
X117063982Y-85067547D01*
G36*
X118664253Y-85069795D02*
G01*
X118664295Y-85098156D01*
X118664391Y-85125499D01*
X118664538Y-85151416D01*
X118664731Y-85175504D01*
X118664965Y-85197356D01*
X118665234Y-85216566D01*
X118665534Y-85232731D01*
X118665861Y-85245443D01*
X118666208Y-85254297D01*
X118666526Y-85258563D01*
X118669451Y-85273199D01*
X118674780Y-85287797D01*
X118677855Y-85294354D01*
X118688016Y-85311507D01*
X118700314Y-85325471D01*
X118715836Y-85337421D01*
X118720393Y-85340259D01*
X118723063Y-85341926D01*
X118725415Y-85343468D01*
X118727630Y-85344889D01*
X118729890Y-85346195D01*
X118732373Y-85347390D01*
X118735262Y-85348479D01*
X118738737Y-85349467D01*
X118742977Y-85350360D01*
X118748165Y-85351161D01*
X118754479Y-85351876D01*
X118762102Y-85352509D01*
X118771214Y-85353066D01*
X118781994Y-85353551D01*
X118794625Y-85353970D01*
X118809286Y-85354326D01*
X118826158Y-85354626D01*
X118845421Y-85354873D01*
X118867257Y-85355073D01*
X118891846Y-85355231D01*
X118919368Y-85355351D01*
X118950004Y-85355438D01*
X118983935Y-85355498D01*
X119021341Y-85355535D01*
X119062403Y-85355554D01*
X119107301Y-85355559D01*
X119156216Y-85355556D01*
X119209329Y-85355550D01*
X119266820Y-85355545D01*
X119807854Y-85355545D01*
X119806510Y-85378059D01*
X119802402Y-85408726D01*
X119793864Y-85438239D01*
X119780993Y-85466346D01*
X119763888Y-85492794D01*
X119759595Y-85498329D01*
X119737802Y-85522106D01*
X119713310Y-85542549D01*
X119686592Y-85559381D01*
X119658125Y-85572325D01*
X119628383Y-85581105D01*
X119612474Y-85583946D01*
X119608303Y-85584203D01*
X119599785Y-85584445D01*
X119587184Y-85584671D01*
X119570769Y-85584882D01*
X119550806Y-85585077D01*
X119527563Y-85585257D01*
X119501305Y-85585422D01*
X119472299Y-85585571D01*
X119440814Y-85585704D01*
X119407114Y-85585823D01*
X119371468Y-85585926D01*
X119334142Y-85586013D01*
X119295403Y-85586086D01*
X119255517Y-85586142D01*
X119214752Y-85586184D01*
X119173375Y-85586210D01*
X119131652Y-85586221D01*
X119089850Y-85586217D01*
X119048235Y-85586197D01*
X119007076Y-85586162D01*
X118966638Y-85586111D01*
X118927189Y-85586046D01*
X118888995Y-85585965D01*
X118852323Y-85585869D01*
X118817440Y-85585757D01*
X118784613Y-85585631D01*
X118754109Y-85585489D01*
X118726194Y-85585332D01*
X118701136Y-85585160D01*
X118679201Y-85584972D01*
X118660655Y-85584769D01*
X118645767Y-85584552D01*
X118634802Y-85584319D01*
X118628028Y-85584070D01*
X118626082Y-85583913D01*
X118597504Y-85577604D01*
X118569430Y-85567127D01*
X118542627Y-85552927D01*
X118517863Y-85535448D01*
X118495906Y-85515132D01*
X118484836Y-85502320D01*
X118466279Y-85475342D01*
X118452007Y-85446687D01*
X118441969Y-85416229D01*
X118436113Y-85383837D01*
X118435617Y-85379069D01*
X118435235Y-85372642D01*
X118434879Y-85361858D01*
X118434553Y-85346980D01*
X118434258Y-85328269D01*
X118433997Y-85305988D01*
X118433772Y-85280398D01*
X118433586Y-85251761D01*
X118433441Y-85220339D01*
X118433340Y-85186394D01*
X118433285Y-85150187D01*
X118433275Y-85126368D01*
X118433273Y-84898345D01*
X118664182Y-84898345D01*
X118664253Y-85069795D01*
G37*
X118664253Y-85069795D02*
X118664295Y-85098156D01*
X118664391Y-85125499D01*
X118664538Y-85151416D01*
X118664731Y-85175504D01*
X118664965Y-85197356D01*
X118665234Y-85216566D01*
X118665534Y-85232731D01*
X118665861Y-85245443D01*
X118666208Y-85254297D01*
X118666526Y-85258563D01*
X118669451Y-85273199D01*
X118674780Y-85287797D01*
X118677855Y-85294354D01*
X118688016Y-85311507D01*
X118700314Y-85325471D01*
X118715836Y-85337421D01*
X118720393Y-85340259D01*
X118723063Y-85341926D01*
X118725415Y-85343468D01*
X118727630Y-85344889D01*
X118729890Y-85346195D01*
X118732373Y-85347390D01*
X118735262Y-85348479D01*
X118738737Y-85349467D01*
X118742977Y-85350360D01*
X118748165Y-85351161D01*
X118754479Y-85351876D01*
X118762102Y-85352509D01*
X118771214Y-85353066D01*
X118781994Y-85353551D01*
X118794625Y-85353970D01*
X118809286Y-85354326D01*
X118826158Y-85354626D01*
X118845421Y-85354873D01*
X118867257Y-85355073D01*
X118891846Y-85355231D01*
X118919368Y-85355351D01*
X118950004Y-85355438D01*
X118983935Y-85355498D01*
X119021341Y-85355535D01*
X119062403Y-85355554D01*
X119107301Y-85355559D01*
X119156216Y-85355556D01*
X119209329Y-85355550D01*
X119266820Y-85355545D01*
X119807854Y-85355545D01*
X119806510Y-85378059D01*
X119802402Y-85408726D01*
X119793864Y-85438239D01*
X119780993Y-85466346D01*
X119763888Y-85492794D01*
X119759595Y-85498329D01*
X119737802Y-85522106D01*
X119713310Y-85542549D01*
X119686592Y-85559381D01*
X119658125Y-85572325D01*
X119628383Y-85581105D01*
X119612474Y-85583946D01*
X119608303Y-85584203D01*
X119599785Y-85584445D01*
X119587184Y-85584671D01*
X119570769Y-85584882D01*
X119550806Y-85585077D01*
X119527563Y-85585257D01*
X119501305Y-85585422D01*
X119472299Y-85585571D01*
X119440814Y-85585704D01*
X119407114Y-85585823D01*
X119371468Y-85585926D01*
X119334142Y-85586013D01*
X119295403Y-85586086D01*
X119255517Y-85586142D01*
X119214752Y-85586184D01*
X119173375Y-85586210D01*
X119131652Y-85586221D01*
X119089850Y-85586217D01*
X119048235Y-85586197D01*
X119007076Y-85586162D01*
X118966638Y-85586111D01*
X118927189Y-85586046D01*
X118888995Y-85585965D01*
X118852323Y-85585869D01*
X118817440Y-85585757D01*
X118784613Y-85585631D01*
X118754109Y-85585489D01*
X118726194Y-85585332D01*
X118701136Y-85585160D01*
X118679201Y-85584972D01*
X118660655Y-85584769D01*
X118645767Y-85584552D01*
X118634802Y-85584319D01*
X118628028Y-85584070D01*
X118626082Y-85583913D01*
X118597504Y-85577604D01*
X118569430Y-85567127D01*
X118542627Y-85552927D01*
X118517863Y-85535448D01*
X118495906Y-85515132D01*
X118484836Y-85502320D01*
X118466279Y-85475342D01*
X118452007Y-85446687D01*
X118441969Y-85416229D01*
X118436113Y-85383837D01*
X118435617Y-85379069D01*
X118435235Y-85372642D01*
X118434879Y-85361858D01*
X118434553Y-85346980D01*
X118434258Y-85328269D01*
X118433997Y-85305988D01*
X118433772Y-85280398D01*
X118433586Y-85251761D01*
X118433441Y-85220339D01*
X118433340Y-85186394D01*
X118433285Y-85150187D01*
X118433275Y-85126368D01*
X118433273Y-84898345D01*
X118664182Y-84898345D01*
X118664253Y-85069795D01*
G36*
X121406662Y-85378059D02*
G01*
X121402444Y-85409085D01*
X121393833Y-85438776D01*
X121380920Y-85466895D01*
X121363797Y-85493205D01*
X121360177Y-85497852D01*
X121337800Y-85522377D01*
X121313003Y-85543167D01*
X121286069Y-85560057D01*
X121257280Y-85572882D01*
X121226920Y-85581478D01*
X121212579Y-85583955D01*
X121208417Y-85584211D01*
X121199906Y-85584452D01*
X121187314Y-85584678D01*
X121170906Y-85584888D01*
X121150951Y-85585083D01*
X121127714Y-85585262D01*
X121101463Y-85585426D01*
X121072465Y-85585574D01*
X121040985Y-85585707D01*
X121007292Y-85585825D01*
X120971651Y-85585927D01*
X120934331Y-85586014D01*
X120895596Y-85586086D01*
X120855716Y-85586142D01*
X120814955Y-85586183D01*
X120773582Y-85586209D01*
X120731862Y-85586220D01*
X120690063Y-85586215D01*
X120648452Y-85586195D01*
X120607295Y-85586159D01*
X120566859Y-85586109D01*
X120527412Y-85586043D01*
X120489219Y-85585962D01*
X120452548Y-85585866D01*
X120417665Y-85585755D01*
X120384838Y-85585628D01*
X120354333Y-85585486D01*
X120326418Y-85585329D01*
X120301358Y-85585157D01*
X120279420Y-85584970D01*
X120260873Y-85584768D01*
X120245981Y-85584551D01*
X120235013Y-85584318D01*
X120228235Y-85584070D01*
X120226282Y-85583913D01*
X120196651Y-85577398D01*
X120168129Y-85566657D01*
X120141201Y-85552040D01*
X120116351Y-85533897D01*
X120094064Y-85512577D01*
X120074826Y-85488431D01*
X120060261Y-85464072D01*
X120051695Y-85445888D01*
X120045186Y-85428413D01*
X120040351Y-85410259D01*
X120036806Y-85390039D01*
X120034612Y-85371131D01*
X120033105Y-85355545D01*
X121408080Y-85355545D01*
X121406662Y-85378059D01*
G37*
X121406662Y-85378059D02*
X121402444Y-85409085D01*
X121393833Y-85438776D01*
X121380920Y-85466895D01*
X121363797Y-85493205D01*
X121360177Y-85497852D01*
X121337800Y-85522377D01*
X121313003Y-85543167D01*
X121286069Y-85560057D01*
X121257280Y-85572882D01*
X121226920Y-85581478D01*
X121212579Y-85583955D01*
X121208417Y-85584211D01*
X121199906Y-85584452D01*
X121187314Y-85584678D01*
X121170906Y-85584888D01*
X121150951Y-85585083D01*
X121127714Y-85585262D01*
X121101463Y-85585426D01*
X121072465Y-85585574D01*
X121040985Y-85585707D01*
X121007292Y-85585825D01*
X120971651Y-85585927D01*
X120934331Y-85586014D01*
X120895596Y-85586086D01*
X120855716Y-85586142D01*
X120814955Y-85586183D01*
X120773582Y-85586209D01*
X120731862Y-85586220D01*
X120690063Y-85586215D01*
X120648452Y-85586195D01*
X120607295Y-85586159D01*
X120566859Y-85586109D01*
X120527412Y-85586043D01*
X120489219Y-85585962D01*
X120452548Y-85585866D01*
X120417665Y-85585755D01*
X120384838Y-85585628D01*
X120354333Y-85585486D01*
X120326418Y-85585329D01*
X120301358Y-85585157D01*
X120279420Y-85584970D01*
X120260873Y-85584768D01*
X120245981Y-85584551D01*
X120235013Y-85584318D01*
X120228235Y-85584070D01*
X120226282Y-85583913D01*
X120196651Y-85577398D01*
X120168129Y-85566657D01*
X120141201Y-85552040D01*
X120116351Y-85533897D01*
X120094064Y-85512577D01*
X120074826Y-85488431D01*
X120060261Y-85464072D01*
X120051695Y-85445888D01*
X120045186Y-85428413D01*
X120040351Y-85410259D01*
X120036806Y-85390039D01*
X120034612Y-85371131D01*
X120033105Y-85355545D01*
X121408080Y-85355545D01*
X121406662Y-85378059D01*
G36*
X121864582Y-85355545D02*
G01*
X123008280Y-85355545D01*
X123006889Y-85378059D01*
X123002762Y-85408577D01*
X122994391Y-85437746D01*
X122982027Y-85465268D01*
X122965922Y-85490849D01*
X122946328Y-85514194D01*
X122923495Y-85535005D01*
X122897677Y-85552987D01*
X122869125Y-85567845D01*
X122838090Y-85579283D01*
X122834805Y-85580243D01*
X122817082Y-85585300D01*
X122225377Y-85585912D01*
X121633673Y-85586524D01*
X121633673Y-84441145D01*
X121864582Y-84441145D01*
X121864582Y-85355545D01*
G37*
X121864582Y-85355545D02*
X123008280Y-85355545D01*
X123006889Y-85378059D01*
X123002762Y-85408577D01*
X122994391Y-85437746D01*
X122982027Y-85465268D01*
X122965922Y-85490849D01*
X122946328Y-85514194D01*
X122923495Y-85535005D01*
X122897677Y-85552987D01*
X122869125Y-85567845D01*
X122838090Y-85579283D01*
X122834805Y-85580243D01*
X122817082Y-85585300D01*
X122225377Y-85585912D01*
X121633673Y-85586524D01*
X121633673Y-84441145D01*
X121864582Y-84441145D01*
X121864582Y-85355545D01*
G36*
X124607089Y-85378059D02*
G01*
X124602971Y-85408355D01*
X124594602Y-85437373D01*
X124582246Y-85464808D01*
X124566164Y-85490354D01*
X124546621Y-85513707D01*
X124523881Y-85534562D01*
X124498205Y-85552613D01*
X124469858Y-85567556D01*
X124439103Y-85579086D01*
X124431726Y-85581220D01*
X124429842Y-85581675D01*
X124427520Y-85582094D01*
X124424572Y-85582479D01*
X124420811Y-85582831D01*
X124416049Y-85583153D01*
X124410098Y-85583445D01*
X124402772Y-85583709D01*
X124393882Y-85583947D01*
X124383240Y-85584161D01*
X124370660Y-85584351D01*
X124355954Y-85584520D01*
X124338934Y-85584670D01*
X124319412Y-85584801D01*
X124297201Y-85584915D01*
X124272114Y-85585015D01*
X124243963Y-85585100D01*
X124212559Y-85585174D01*
X124177717Y-85585238D01*
X124139247Y-85585293D01*
X124096963Y-85585340D01*
X124050677Y-85585382D01*
X124000202Y-85585420D01*
X123945349Y-85585456D01*
X123928909Y-85585466D01*
X123881646Y-85585490D01*
X123835553Y-85585505D01*
X123790848Y-85585511D01*
X123747748Y-85585509D01*
X123706471Y-85585499D01*
X123667233Y-85585481D01*
X123630253Y-85585456D01*
X123595747Y-85585423D01*
X123563933Y-85585383D01*
X123535027Y-85585337D01*
X123509248Y-85585284D01*
X123486812Y-85585224D01*
X123467937Y-85585159D01*
X123452840Y-85585088D01*
X123441738Y-85585012D01*
X123434849Y-85584931D01*
X123432455Y-85584856D01*
X123426427Y-85583887D01*
X123417573Y-85582113D01*
X123407543Y-85579868D01*
X123404746Y-85579201D01*
X123375675Y-85569832D01*
X123348297Y-85556406D01*
X123322983Y-85539289D01*
X123300108Y-85518851D01*
X123280043Y-85495459D01*
X123263162Y-85469481D01*
X123249838Y-85441285D01*
X123242442Y-85419045D01*
X123240547Y-85410702D01*
X123238542Y-85399528D01*
X123236652Y-85387093D01*
X123235104Y-85374965D01*
X123234121Y-85364714D01*
X123233892Y-85359586D01*
X123234043Y-85359193D01*
X123234605Y-85358827D01*
X123235730Y-85358485D01*
X123237572Y-85358169D01*
X123240285Y-85357875D01*
X123244024Y-85357605D01*
X123248942Y-85357356D01*
X123255192Y-85357128D01*
X123262929Y-85356920D01*
X123272307Y-85356730D01*
X123283479Y-85356559D01*
X123296599Y-85356405D01*
X123311821Y-85356268D01*
X123329299Y-85356146D01*
X123349187Y-85356038D01*
X123371639Y-85355944D01*
X123396808Y-85355863D01*
X123424849Y-85355793D01*
X123455915Y-85355734D01*
X123490159Y-85355685D01*
X123527737Y-85355646D01*
X123568802Y-85355614D01*
X123613507Y-85355590D01*
X123662007Y-85355572D01*
X123714455Y-85355559D01*
X123771005Y-85355551D01*
X123831811Y-85355547D01*
X123897027Y-85355545D01*
X124608480Y-85355545D01*
X124607089Y-85378059D01*
G37*
X124607089Y-85378059D02*
X124602971Y-85408355D01*
X124594602Y-85437373D01*
X124582246Y-85464808D01*
X124566164Y-85490354D01*
X124546621Y-85513707D01*
X124523881Y-85534562D01*
X124498205Y-85552613D01*
X124469858Y-85567556D01*
X124439103Y-85579086D01*
X124431726Y-85581220D01*
X124429842Y-85581675D01*
X124427520Y-85582094D01*
X124424572Y-85582479D01*
X124420811Y-85582831D01*
X124416049Y-85583153D01*
X124410098Y-85583445D01*
X124402772Y-85583709D01*
X124393882Y-85583947D01*
X124383240Y-85584161D01*
X124370660Y-85584351D01*
X124355954Y-85584520D01*
X124338934Y-85584670D01*
X124319412Y-85584801D01*
X124297201Y-85584915D01*
X124272114Y-85585015D01*
X124243963Y-85585100D01*
X124212559Y-85585174D01*
X124177717Y-85585238D01*
X124139247Y-85585293D01*
X124096963Y-85585340D01*
X124050677Y-85585382D01*
X124000202Y-85585420D01*
X123945349Y-85585456D01*
X123928909Y-85585466D01*
X123881646Y-85585490D01*
X123835553Y-85585505D01*
X123790848Y-85585511D01*
X123747748Y-85585509D01*
X123706471Y-85585499D01*
X123667233Y-85585481D01*
X123630253Y-85585456D01*
X123595747Y-85585423D01*
X123563933Y-85585383D01*
X123535027Y-85585337D01*
X123509248Y-85585284D01*
X123486812Y-85585224D01*
X123467937Y-85585159D01*
X123452840Y-85585088D01*
X123441738Y-85585012D01*
X123434849Y-85584931D01*
X123432455Y-85584856D01*
X123426427Y-85583887D01*
X123417573Y-85582113D01*
X123407543Y-85579868D01*
X123404746Y-85579201D01*
X123375675Y-85569832D01*
X123348297Y-85556406D01*
X123322983Y-85539289D01*
X123300108Y-85518851D01*
X123280043Y-85495459D01*
X123263162Y-85469481D01*
X123249838Y-85441285D01*
X123242442Y-85419045D01*
X123240547Y-85410702D01*
X123238542Y-85399528D01*
X123236652Y-85387093D01*
X123235104Y-85374965D01*
X123234121Y-85364714D01*
X123233892Y-85359586D01*
X123234043Y-85359193D01*
X123234605Y-85358827D01*
X123235730Y-85358485D01*
X123237572Y-85358169D01*
X123240285Y-85357875D01*
X123244024Y-85357605D01*
X123248942Y-85357356D01*
X123255192Y-85357128D01*
X123262929Y-85356920D01*
X123272307Y-85356730D01*
X123283479Y-85356559D01*
X123296599Y-85356405D01*
X123311821Y-85356268D01*
X123329299Y-85356146D01*
X123349187Y-85356038D01*
X123371639Y-85355944D01*
X123396808Y-85355863D01*
X123424849Y-85355793D01*
X123455915Y-85355734D01*
X123490159Y-85355685D01*
X123527737Y-85355646D01*
X123568802Y-85355614D01*
X123613507Y-85355590D01*
X123662007Y-85355572D01*
X123714455Y-85355559D01*
X123771005Y-85355551D01*
X123831811Y-85355547D01*
X123897027Y-85355545D01*
X124608480Y-85355545D01*
X124607089Y-85378059D01*
G36*
X126207445Y-84691104D02*
G01*
X126207337Y-84730466D01*
X126207236Y-84765484D01*
X126207134Y-84796433D01*
X126207027Y-84823587D01*
X126206908Y-84847221D01*
X126206772Y-84867608D01*
X126206613Y-84885024D01*
X126206426Y-84899743D01*
X126206203Y-84912039D01*
X126205940Y-84922186D01*
X126205631Y-84930460D01*
X126205270Y-84937134D01*
X126204851Y-84942483D01*
X126204369Y-84946781D01*
X126203817Y-84950303D01*
X126203190Y-84953324D01*
X126202482Y-84956117D01*
X126201798Y-84958564D01*
X126190600Y-84989860D01*
X126175598Y-85018685D01*
X126157026Y-85044812D01*
X126135116Y-85068015D01*
X126110100Y-85088067D01*
X126082212Y-85104742D01*
X126051683Y-85117814D01*
X126031926Y-85123905D01*
X126028227Y-85124750D01*
X126023691Y-85125479D01*
X126017935Y-85126107D01*
X126010576Y-85126648D01*
X126001229Y-85127114D01*
X125989511Y-85127520D01*
X125975038Y-85127880D01*
X125957427Y-85128206D01*
X125936293Y-85128513D01*
X125911254Y-85128814D01*
X125886434Y-85129077D01*
X125755385Y-85130409D01*
X125981684Y-85356695D01*
X126008599Y-85383621D01*
X126034602Y-85409659D01*
X126059507Y-85434621D01*
X126083127Y-85458319D01*
X126105278Y-85480567D01*
X126125773Y-85501177D01*
X126144426Y-85519962D01*
X126161051Y-85536734D01*
X126175462Y-85551306D01*
X126187474Y-85563491D01*
X126196900Y-85573101D01*
X126203555Y-85579949D01*
X126207252Y-85583848D01*
X126207982Y-85584718D01*
X126205732Y-85584997D01*
X126199222Y-85585263D01*
X126188809Y-85585511D01*
X126174851Y-85585738D01*
X126157704Y-85585940D01*
X126137727Y-85586114D01*
X126115277Y-85586256D01*
X126090712Y-85586362D01*
X126064389Y-85586429D01*
X126036667Y-85586454D01*
X125862764Y-85586454D01*
X125405582Y-85129254D01*
X125064982Y-85129254D01*
X125064982Y-85586454D01*
X124834073Y-85586454D01*
X124834073Y-84898345D01*
X125356505Y-84898212D01*
X125414623Y-84898195D01*
X125468305Y-84898176D01*
X125517731Y-84898152D01*
X125563084Y-84898122D01*
X125604543Y-84898085D01*
X125642291Y-84898040D01*
X125676509Y-84897985D01*
X125707379Y-84897918D01*
X125735081Y-84897838D01*
X125759798Y-84897745D01*
X125781709Y-84897636D01*
X125800998Y-84897510D01*
X125817845Y-84897366D01*
X125832431Y-84897202D01*
X125844939Y-84897017D01*
X125855548Y-84896810D01*
X125864441Y-84896579D01*
X125871800Y-84896322D01*
X125877804Y-84896040D01*
X125882637Y-84895729D01*
X125886478Y-84895389D01*
X125889510Y-84895018D01*
X125891914Y-84894615D01*
X125893871Y-84894179D01*
X125894133Y-84894112D01*
X125914586Y-84886457D01*
X125932991Y-84874955D01*
X125948852Y-84860106D01*
X125961674Y-84842412D01*
X125970962Y-84822374D01*
X125973628Y-84813617D01*
X125974738Y-84808205D01*
X125975600Y-84801138D01*
X125976240Y-84791869D01*
X125976680Y-84779850D01*
X125976947Y-84764533D01*
X125977063Y-84745372D01*
X125977073Y-84736266D01*
X125977073Y-84672140D01*
X125024573Y-84670810D01*
X125005192Y-84665615D01*
X124974593Y-84655090D01*
X124946035Y-84640580D01*
X124919899Y-84622361D01*
X124896568Y-84600709D01*
X124876425Y-84575901D01*
X124872196Y-84569644D01*
X124858083Y-84545159D01*
X124847522Y-84520125D01*
X124840156Y-84493472D01*
X124835625Y-84464130D01*
X124835132Y-84459041D01*
X124833530Y-84441145D01*
X126208120Y-84441145D01*
X126207445Y-84691104D01*
G37*
X126207445Y-84691104D02*
X126207337Y-84730466D01*
X126207236Y-84765484D01*
X126207134Y-84796433D01*
X126207027Y-84823587D01*
X126206908Y-84847221D01*
X126206772Y-84867608D01*
X126206613Y-84885024D01*
X126206426Y-84899743D01*
X126206203Y-84912039D01*
X126205940Y-84922186D01*
X126205631Y-84930460D01*
X126205270Y-84937134D01*
X126204851Y-84942483D01*
X126204369Y-84946781D01*
X126203817Y-84950303D01*
X126203190Y-84953324D01*
X126202482Y-84956117D01*
X126201798Y-84958564D01*
X126190600Y-84989860D01*
X126175598Y-85018685D01*
X126157026Y-85044812D01*
X126135116Y-85068015D01*
X126110100Y-85088067D01*
X126082212Y-85104742D01*
X126051683Y-85117814D01*
X126031926Y-85123905D01*
X126028227Y-85124750D01*
X126023691Y-85125479D01*
X126017935Y-85126107D01*
X126010576Y-85126648D01*
X126001229Y-85127114D01*
X125989511Y-85127520D01*
X125975038Y-85127880D01*
X125957427Y-85128206D01*
X125936293Y-85128513D01*
X125911254Y-85128814D01*
X125886434Y-85129077D01*
X125755385Y-85130409D01*
X125981684Y-85356695D01*
X126008599Y-85383621D01*
X126034602Y-85409659D01*
X126059507Y-85434621D01*
X126083127Y-85458319D01*
X126105278Y-85480567D01*
X126125773Y-85501177D01*
X126144426Y-85519962D01*
X126161051Y-85536734D01*
X126175462Y-85551306D01*
X126187474Y-85563491D01*
X126196900Y-85573101D01*
X126203555Y-85579949D01*
X126207252Y-85583848D01*
X126207982Y-85584718D01*
X126205732Y-85584997D01*
X126199222Y-85585263D01*
X126188809Y-85585511D01*
X126174851Y-85585738D01*
X126157704Y-85585940D01*
X126137727Y-85586114D01*
X126115277Y-85586256D01*
X126090712Y-85586362D01*
X126064389Y-85586429D01*
X126036667Y-85586454D01*
X125862764Y-85586454D01*
X125405582Y-85129254D01*
X125064982Y-85129254D01*
X125064982Y-85586454D01*
X124834073Y-85586454D01*
X124834073Y-84898345D01*
X125356505Y-84898212D01*
X125414623Y-84898195D01*
X125468305Y-84898176D01*
X125517731Y-84898152D01*
X125563084Y-84898122D01*
X125604543Y-84898085D01*
X125642291Y-84898040D01*
X125676509Y-84897985D01*
X125707379Y-84897918D01*
X125735081Y-84897838D01*
X125759798Y-84897745D01*
X125781709Y-84897636D01*
X125800998Y-84897510D01*
X125817845Y-84897366D01*
X125832431Y-84897202D01*
X125844939Y-84897017D01*
X125855548Y-84896810D01*
X125864441Y-84896579D01*
X125871800Y-84896322D01*
X125877804Y-84896040D01*
X125882637Y-84895729D01*
X125886478Y-84895389D01*
X125889510Y-84895018D01*
X125891914Y-84894615D01*
X125893871Y-84894179D01*
X125894133Y-84894112D01*
X125914586Y-84886457D01*
X125932991Y-84874955D01*
X125948852Y-84860106D01*
X125961674Y-84842412D01*
X125970962Y-84822374D01*
X125973628Y-84813617D01*
X125974738Y-84808205D01*
X125975600Y-84801138D01*
X125976240Y-84791869D01*
X125976680Y-84779850D01*
X125976947Y-84764533D01*
X125977063Y-84745372D01*
X125977073Y-84736266D01*
X125977073Y-84672140D01*
X125024573Y-84670810D01*
X125005192Y-84665615D01*
X124974593Y-84655090D01*
X124946035Y-84640580D01*
X124919899Y-84622361D01*
X124896568Y-84600709D01*
X124876425Y-84575901D01*
X124872196Y-84569644D01*
X124858083Y-84545159D01*
X124847522Y-84520125D01*
X124840156Y-84493472D01*
X124835625Y-84464130D01*
X124835132Y-84459041D01*
X124833530Y-84441145D01*
X126208120Y-84441145D01*
X126207445Y-84691104D01*
G36*
X127808182Y-85586454D02*
G01*
X127577273Y-85586454D01*
X127577273Y-85129254D01*
X126665182Y-85129254D01*
X126665182Y-85586454D01*
X126434273Y-85586454D01*
X126434273Y-84898345D01*
X127808182Y-84898345D01*
X127808182Y-85586454D01*
G37*
X127808182Y-85586454D02*
X127577273Y-85586454D01*
X127577273Y-85129254D01*
X126665182Y-85129254D01*
X126665182Y-85586454D01*
X126434273Y-85586454D01*
X126434273Y-84898345D01*
X127808182Y-84898345D01*
X127808182Y-85586454D01*
G36*
X121406662Y-84920859D02*
G01*
X121402453Y-84951891D01*
X121393850Y-84981541D01*
X121380910Y-85009667D01*
X121363689Y-85036125D01*
X121359795Y-85041129D01*
X121338002Y-85064906D01*
X121313510Y-85085349D01*
X121286792Y-85102181D01*
X121258325Y-85115125D01*
X121228583Y-85123905D01*
X121212674Y-85126746D01*
X121208503Y-85127003D01*
X121199985Y-85127245D01*
X121187384Y-85127471D01*
X121170969Y-85127682D01*
X121151006Y-85127877D01*
X121127763Y-85128057D01*
X121101505Y-85128222D01*
X121072499Y-85128371D01*
X121041014Y-85128504D01*
X121007314Y-85128623D01*
X120971668Y-85128726D01*
X120934342Y-85128813D01*
X120895603Y-85128886D01*
X120855717Y-85128942D01*
X120814952Y-85128984D01*
X120773575Y-85129010D01*
X120731852Y-85129021D01*
X120690050Y-85129017D01*
X120648435Y-85128997D01*
X120607276Y-85128962D01*
X120566838Y-85128911D01*
X120527389Y-85128846D01*
X120489195Y-85128765D01*
X120452523Y-85128669D01*
X120417640Y-85128557D01*
X120384813Y-85128431D01*
X120354309Y-85128289D01*
X120326394Y-85128132D01*
X120301336Y-85127960D01*
X120279401Y-85127772D01*
X120260855Y-85127569D01*
X120245967Y-85127352D01*
X120235002Y-85127119D01*
X120228228Y-85126870D01*
X120226282Y-85126713D01*
X120196457Y-85120170D01*
X120167668Y-85109377D01*
X120140498Y-85094682D01*
X120115533Y-85076431D01*
X120093358Y-85054972D01*
X120081900Y-85041054D01*
X120066420Y-85018281D01*
X120054317Y-84995206D01*
X120045230Y-84970858D01*
X120038800Y-84944269D01*
X120034665Y-84914470D01*
X120034612Y-84913931D01*
X120033105Y-84898345D01*
X121408080Y-84898345D01*
X121406662Y-84920859D01*
G37*
X121406662Y-84920859D02*
X121402453Y-84951891D01*
X121393850Y-84981541D01*
X121380910Y-85009667D01*
X121363689Y-85036125D01*
X121359795Y-85041129D01*
X121338002Y-85064906D01*
X121313510Y-85085349D01*
X121286792Y-85102181D01*
X121258325Y-85115125D01*
X121228583Y-85123905D01*
X121212674Y-85126746D01*
X121208503Y-85127003D01*
X121199985Y-85127245D01*
X121187384Y-85127471D01*
X121170969Y-85127682D01*
X121151006Y-85127877D01*
X121127763Y-85128057D01*
X121101505Y-85128222D01*
X121072499Y-85128371D01*
X121041014Y-85128504D01*
X121007314Y-85128623D01*
X120971668Y-85128726D01*
X120934342Y-85128813D01*
X120895603Y-85128886D01*
X120855717Y-85128942D01*
X120814952Y-85128984D01*
X120773575Y-85129010D01*
X120731852Y-85129021D01*
X120690050Y-85129017D01*
X120648435Y-85128997D01*
X120607276Y-85128962D01*
X120566838Y-85128911D01*
X120527389Y-85128846D01*
X120489195Y-85128765D01*
X120452523Y-85128669D01*
X120417640Y-85128557D01*
X120384813Y-85128431D01*
X120354309Y-85128289D01*
X120326394Y-85128132D01*
X120301336Y-85127960D01*
X120279401Y-85127772D01*
X120260855Y-85127569D01*
X120245967Y-85127352D01*
X120235002Y-85127119D01*
X120228228Y-85126870D01*
X120226282Y-85126713D01*
X120196457Y-85120170D01*
X120167668Y-85109377D01*
X120140498Y-85094682D01*
X120115533Y-85076431D01*
X120093358Y-85054972D01*
X120081900Y-85041054D01*
X120066420Y-85018281D01*
X120054317Y-84995206D01*
X120045230Y-84970858D01*
X120038800Y-84944269D01*
X120034665Y-84914470D01*
X120034612Y-84913931D01*
X120033105Y-84898345D01*
X121408080Y-84898345D01*
X121406662Y-84920859D01*
G36*
X124607089Y-84920859D02*
G01*
X124604183Y-84943895D01*
X124598517Y-84967971D01*
X124590634Y-84990896D01*
X124588526Y-84995864D01*
X124576561Y-85018071D01*
X124560785Y-85039894D01*
X124541993Y-85060582D01*
X124520976Y-85079385D01*
X124498528Y-85095553D01*
X124475443Y-85108335D01*
X124464866Y-85112856D01*
X124460562Y-85114572D01*
X124456782Y-85116155D01*
X124453333Y-85117608D01*
X124450023Y-85118939D01*
X124446659Y-85120151D01*
X124443050Y-85121251D01*
X124439001Y-85122245D01*
X124434322Y-85123138D01*
X124428819Y-85123934D01*
X124422300Y-85124641D01*
X124414572Y-85125264D01*
X124405443Y-85125807D01*
X124394720Y-85126277D01*
X124382211Y-85126679D01*
X124367724Y-85127019D01*
X124351065Y-85127302D01*
X124332042Y-85127533D01*
X124310463Y-85127719D01*
X124286136Y-85127864D01*
X124258867Y-85127975D01*
X124228464Y-85128057D01*
X124194735Y-85128115D01*
X124157487Y-85128155D01*
X124116528Y-85128182D01*
X124071665Y-85128202D01*
X124022706Y-85128221D01*
X123969458Y-85128244D01*
X123928909Y-85128266D01*
X123881646Y-85128290D01*
X123835553Y-85128305D01*
X123790848Y-85128311D01*
X123747748Y-85128309D01*
X123706471Y-85128299D01*
X123667233Y-85128281D01*
X123630253Y-85128256D01*
X123595747Y-85128223D01*
X123563933Y-85128183D01*
X123535027Y-85128137D01*
X123509248Y-85128084D01*
X123486812Y-85128024D01*
X123467937Y-85127959D01*
X123452840Y-85127888D01*
X123441738Y-85127812D01*
X123434849Y-85127731D01*
X123432455Y-85127656D01*
X123426427Y-85126687D01*
X123417573Y-85124913D01*
X123407543Y-85122668D01*
X123404746Y-85122001D01*
X123375675Y-85112632D01*
X123348297Y-85099206D01*
X123322983Y-85082089D01*
X123300108Y-85061651D01*
X123280043Y-85038259D01*
X123263162Y-85012281D01*
X123249838Y-84984085D01*
X123242442Y-84961845D01*
X123240547Y-84953502D01*
X123238542Y-84942328D01*
X123236652Y-84929893D01*
X123235104Y-84917765D01*
X123234121Y-84907514D01*
X123233892Y-84902386D01*
X123234043Y-84901993D01*
X123234605Y-84901627D01*
X123235730Y-84901285D01*
X123237572Y-84900969D01*
X123240285Y-84900675D01*
X123244024Y-84900405D01*
X123248942Y-84900156D01*
X123255192Y-84899928D01*
X123262929Y-84899720D01*
X123272307Y-84899530D01*
X123283479Y-84899359D01*
X123296599Y-84899205D01*
X123311821Y-84899068D01*
X123329299Y-84898946D01*
X123349187Y-84898838D01*
X123371639Y-84898744D01*
X123396808Y-84898663D01*
X123424849Y-84898593D01*
X123455915Y-84898534D01*
X123490159Y-84898485D01*
X123527737Y-84898446D01*
X123568802Y-84898414D01*
X123613507Y-84898390D01*
X123662007Y-84898372D01*
X123714455Y-84898359D01*
X123771005Y-84898351D01*
X123831811Y-84898347D01*
X123897027Y-84898345D01*
X124608480Y-84898345D01*
X124607089Y-84920859D01*
G37*
X124607089Y-84920859D02*
X124604183Y-84943895D01*
X124598517Y-84967971D01*
X124590634Y-84990896D01*
X124588526Y-84995864D01*
X124576561Y-85018071D01*
X124560785Y-85039894D01*
X124541993Y-85060582D01*
X124520976Y-85079385D01*
X124498528Y-85095553D01*
X124475443Y-85108335D01*
X124464866Y-85112856D01*
X124460562Y-85114572D01*
X124456782Y-85116155D01*
X124453333Y-85117608D01*
X124450023Y-85118939D01*
X124446659Y-85120151D01*
X124443050Y-85121251D01*
X124439001Y-85122245D01*
X124434322Y-85123138D01*
X124428819Y-85123934D01*
X124422300Y-85124641D01*
X124414572Y-85125264D01*
X124405443Y-85125807D01*
X124394720Y-85126277D01*
X124382211Y-85126679D01*
X124367724Y-85127019D01*
X124351065Y-85127302D01*
X124332042Y-85127533D01*
X124310463Y-85127719D01*
X124286136Y-85127864D01*
X124258867Y-85127975D01*
X124228464Y-85128057D01*
X124194735Y-85128115D01*
X124157487Y-85128155D01*
X124116528Y-85128182D01*
X124071665Y-85128202D01*
X124022706Y-85128221D01*
X123969458Y-85128244D01*
X123928909Y-85128266D01*
X123881646Y-85128290D01*
X123835553Y-85128305D01*
X123790848Y-85128311D01*
X123747748Y-85128309D01*
X123706471Y-85128299D01*
X123667233Y-85128281D01*
X123630253Y-85128256D01*
X123595747Y-85128223D01*
X123563933Y-85128183D01*
X123535027Y-85128137D01*
X123509248Y-85128084D01*
X123486812Y-85128024D01*
X123467937Y-85127959D01*
X123452840Y-85127888D01*
X123441738Y-85127812D01*
X123434849Y-85127731D01*
X123432455Y-85127656D01*
X123426427Y-85126687D01*
X123417573Y-85124913D01*
X123407543Y-85122668D01*
X123404746Y-85122001D01*
X123375675Y-85112632D01*
X123348297Y-85099206D01*
X123322983Y-85082089D01*
X123300108Y-85061651D01*
X123280043Y-85038259D01*
X123263162Y-85012281D01*
X123249838Y-84984085D01*
X123242442Y-84961845D01*
X123240547Y-84953502D01*
X123238542Y-84942328D01*
X123236652Y-84929893D01*
X123235104Y-84917765D01*
X123234121Y-84907514D01*
X123233892Y-84902386D01*
X123234043Y-84901993D01*
X123234605Y-84901627D01*
X123235730Y-84901285D01*
X123237572Y-84900969D01*
X123240285Y-84900675D01*
X123244024Y-84900405D01*
X123248942Y-84900156D01*
X123255192Y-84899928D01*
X123262929Y-84899720D01*
X123272307Y-84899530D01*
X123283479Y-84899359D01*
X123296599Y-84899205D01*
X123311821Y-84899068D01*
X123329299Y-84898946D01*
X123349187Y-84898838D01*
X123371639Y-84898744D01*
X123396808Y-84898663D01*
X123424849Y-84898593D01*
X123455915Y-84898534D01*
X123490159Y-84898485D01*
X123527737Y-84898446D01*
X123568802Y-84898414D01*
X123613507Y-84898390D01*
X123662007Y-84898372D01*
X123714455Y-84898359D01*
X123771005Y-84898351D01*
X123831811Y-84898347D01*
X123897027Y-84898345D01*
X124608480Y-84898345D01*
X124607089Y-84920859D01*
G36*
X116606065Y-84464813D02*
G01*
X116602030Y-84494668D01*
X116593736Y-84523400D01*
X116581478Y-84550664D01*
X116565551Y-84576111D01*
X116546247Y-84599395D01*
X116523862Y-84620170D01*
X116498690Y-84638087D01*
X116471025Y-84652800D01*
X116441161Y-84663962D01*
X116435909Y-84665476D01*
X116416282Y-84670893D01*
X115927909Y-84671210D01*
X115880557Y-84671232D01*
X115834326Y-84671234D01*
X115789438Y-84671218D01*
X115746113Y-84671185D01*
X115704571Y-84671135D01*
X115665034Y-84671069D01*
X115627722Y-84670988D01*
X115592855Y-84670893D01*
X115560655Y-84670783D01*
X115531342Y-84670661D01*
X115505137Y-84670526D01*
X115482260Y-84670380D01*
X115462932Y-84670223D01*
X115447374Y-84670056D01*
X115435807Y-84669879D01*
X115428451Y-84669694D01*
X115425682Y-84669532D01*
X115396129Y-84663041D01*
X115368006Y-84652505D01*
X115341657Y-84638297D01*
X115317430Y-84620790D01*
X115295669Y-84600356D01*
X115276721Y-84577368D01*
X115260931Y-84552200D01*
X115248645Y-84525224D01*
X115240210Y-84496814D01*
X115235971Y-84467341D01*
X115235816Y-84464813D01*
X115234519Y-84441145D01*
X116607478Y-84441145D01*
X116606065Y-84464813D01*
G37*
X116606065Y-84464813D02*
X116602030Y-84494668D01*
X116593736Y-84523400D01*
X116581478Y-84550664D01*
X116565551Y-84576111D01*
X116546247Y-84599395D01*
X116523862Y-84620170D01*
X116498690Y-84638087D01*
X116471025Y-84652800D01*
X116441161Y-84663962D01*
X116435909Y-84665476D01*
X116416282Y-84670893D01*
X115927909Y-84671210D01*
X115880557Y-84671232D01*
X115834326Y-84671234D01*
X115789438Y-84671218D01*
X115746113Y-84671185D01*
X115704571Y-84671135D01*
X115665034Y-84671069D01*
X115627722Y-84670988D01*
X115592855Y-84670893D01*
X115560655Y-84670783D01*
X115531342Y-84670661D01*
X115505137Y-84670526D01*
X115482260Y-84670380D01*
X115462932Y-84670223D01*
X115447374Y-84670056D01*
X115435807Y-84669879D01*
X115428451Y-84669694D01*
X115425682Y-84669532D01*
X115396129Y-84663041D01*
X115368006Y-84652505D01*
X115341657Y-84638297D01*
X115317430Y-84620790D01*
X115295669Y-84600356D01*
X115276721Y-84577368D01*
X115260931Y-84552200D01*
X115248645Y-84525224D01*
X115240210Y-84496814D01*
X115235971Y-84467341D01*
X115235816Y-84464813D01*
X115234519Y-84441145D01*
X116607478Y-84441145D01*
X116606065Y-84464813D01*
G36*
X118206952Y-84456731D02*
G01*
X118206427Y-84466550D01*
X118205063Y-84478590D01*
X118203128Y-84490589D01*
X118202624Y-84493141D01*
X118194286Y-84522347D01*
X118181827Y-84550057D01*
X118165599Y-84575904D01*
X118145960Y-84599517D01*
X118123265Y-84620531D01*
X118097869Y-84638577D01*
X118070127Y-84653286D01*
X118040396Y-84664292D01*
X118036109Y-84665512D01*
X118016482Y-84670897D01*
X117424777Y-84671510D01*
X116833073Y-84672124D01*
X116833073Y-84441145D01*
X118206982Y-84441145D01*
X118206952Y-84456731D01*
G37*
X118206952Y-84456731D02*
X118206427Y-84466550D01*
X118205063Y-84478590D01*
X118203128Y-84490589D01*
X118202624Y-84493141D01*
X118194286Y-84522347D01*
X118181827Y-84550057D01*
X118165599Y-84575904D01*
X118145960Y-84599517D01*
X118123265Y-84620531D01*
X118097869Y-84638577D01*
X118070127Y-84653286D01*
X118040396Y-84664292D01*
X118036109Y-84665512D01*
X118016482Y-84670897D01*
X117424777Y-84671510D01*
X116833073Y-84672124D01*
X116833073Y-84441145D01*
X118206982Y-84441145D01*
X118206952Y-84456731D01*
G36*
X119807182Y-84455951D02*
G01*
X119805416Y-84478936D01*
X119800385Y-84503290D01*
X119792491Y-84527574D01*
X119782136Y-84550349D01*
X119779444Y-84555231D01*
X119762379Y-84580575D01*
X119741623Y-84603826D01*
X119717814Y-84624491D01*
X119691594Y-84642076D01*
X119663604Y-84656088D01*
X119636309Y-84665544D01*
X119616682Y-84670897D01*
X119024977Y-84671510D01*
X118433273Y-84672124D01*
X118433273Y-84441145D01*
X119807182Y-84441145D01*
X119807182Y-84455951D01*
G37*
X119807182Y-84455951D02*
X119805416Y-84478936D01*
X119800385Y-84503290D01*
X119792491Y-84527574D01*
X119782136Y-84550349D01*
X119779444Y-84555231D01*
X119762379Y-84580575D01*
X119741623Y-84603826D01*
X119717814Y-84624491D01*
X119691594Y-84642076D01*
X119663604Y-84656088D01*
X119636309Y-84665544D01*
X119616682Y-84670897D01*
X119024977Y-84671510D01*
X118433273Y-84672124D01*
X118433273Y-84441145D01*
X119807182Y-84441145D01*
X119807182Y-84455951D01*
G36*
X121406662Y-84463659D02*
G01*
X121402453Y-84494691D01*
X121393850Y-84524341D01*
X121380910Y-84552467D01*
X121363689Y-84578925D01*
X121359795Y-84583929D01*
X121338002Y-84607706D01*
X121313510Y-84628149D01*
X121286792Y-84644981D01*
X121258325Y-84657925D01*
X121228583Y-84666705D01*
X121212674Y-84669546D01*
X121208471Y-84669873D01*
X121200717Y-84670172D01*
X121189339Y-84670444D01*
X121174262Y-84670689D01*
X121155411Y-84670908D01*
X121132714Y-84671100D01*
X121106095Y-84671266D01*
X121075480Y-84671407D01*
X121040797Y-84671523D01*
X121001969Y-84671613D01*
X120958924Y-84671679D01*
X120911587Y-84671721D01*
X120859884Y-84671738D01*
X120803741Y-84671732D01*
X120743084Y-84671703D01*
X120717374Y-84671685D01*
X120670656Y-84671644D01*
X120625109Y-84671597D01*
X120580954Y-84671543D01*
X120538410Y-84671482D01*
X120497698Y-84671417D01*
X120459037Y-84671346D01*
X120422647Y-84671271D01*
X120388748Y-84671192D01*
X120357560Y-84671110D01*
X120329303Y-84671026D01*
X120304197Y-84670939D01*
X120282461Y-84670851D01*
X120264316Y-84670762D01*
X120249982Y-84670672D01*
X120239678Y-84670583D01*
X120233625Y-84670494D01*
X120232055Y-84670435D01*
X120218526Y-84668169D01*
X120202722Y-84664287D01*
X120186457Y-84659313D01*
X120171547Y-84653774D01*
X120165971Y-84651333D01*
X120137948Y-84635820D01*
X120112546Y-84616675D01*
X120090131Y-84594257D01*
X120071073Y-84568924D01*
X120058088Y-84545985D01*
X120049836Y-84527324D01*
X120043572Y-84508667D01*
X120038941Y-84488661D01*
X120035587Y-84465951D01*
X120034612Y-84456731D01*
X120033105Y-84441145D01*
X121408080Y-84441145D01*
X121406662Y-84463659D01*
G37*
X121406662Y-84463659D02*
X121402453Y-84494691D01*
X121393850Y-84524341D01*
X121380910Y-84552467D01*
X121363689Y-84578925D01*
X121359795Y-84583929D01*
X121338002Y-84607706D01*
X121313510Y-84628149D01*
X121286792Y-84644981D01*
X121258325Y-84657925D01*
X121228583Y-84666705D01*
X121212674Y-84669546D01*
X121208471Y-84669873D01*
X121200717Y-84670172D01*
X121189339Y-84670444D01*
X121174262Y-84670689D01*
X121155411Y-84670908D01*
X121132714Y-84671100D01*
X121106095Y-84671266D01*
X121075480Y-84671407D01*
X121040797Y-84671523D01*
X121001969Y-84671613D01*
X120958924Y-84671679D01*
X120911587Y-84671721D01*
X120859884Y-84671738D01*
X120803741Y-84671732D01*
X120743084Y-84671703D01*
X120717374Y-84671685D01*
X120670656Y-84671644D01*
X120625109Y-84671597D01*
X120580954Y-84671543D01*
X120538410Y-84671482D01*
X120497698Y-84671417D01*
X120459037Y-84671346D01*
X120422647Y-84671271D01*
X120388748Y-84671192D01*
X120357560Y-84671110D01*
X120329303Y-84671026D01*
X120304197Y-84670939D01*
X120282461Y-84670851D01*
X120264316Y-84670762D01*
X120249982Y-84670672D01*
X120239678Y-84670583D01*
X120233625Y-84670494D01*
X120232055Y-84670435D01*
X120218526Y-84668169D01*
X120202722Y-84664287D01*
X120186457Y-84659313D01*
X120171547Y-84653774D01*
X120165971Y-84651333D01*
X120137948Y-84635820D01*
X120112546Y-84616675D01*
X120090131Y-84594257D01*
X120071073Y-84568924D01*
X120058088Y-84545985D01*
X120049836Y-84527324D01*
X120043572Y-84508667D01*
X120038941Y-84488661D01*
X120035587Y-84465951D01*
X120034612Y-84456731D01*
X120033105Y-84441145D01*
X121408080Y-84441145D01*
X121406662Y-84463659D01*
G36*
X124607765Y-84454422D02*
G01*
X124606189Y-84475523D01*
X124601810Y-84498318D01*
X124595076Y-84521219D01*
X124586433Y-84542639D01*
X124578987Y-84556743D01*
X124561769Y-84581568D01*
X124541123Y-84604659D01*
X124517981Y-84625103D01*
X124493274Y-84641987D01*
X124490085Y-84643822D01*
X124474823Y-84651283D01*
X124456826Y-84658294D01*
X124437976Y-84664225D01*
X124420154Y-84668448D01*
X124413074Y-84669608D01*
X124408917Y-84669857D01*
X124400417Y-84670092D01*
X124387840Y-84670311D01*
X124371453Y-84670515D01*
X124351521Y-84670704D01*
X124328312Y-84670879D01*
X124302091Y-84671038D01*
X124273126Y-84671182D01*
X124241683Y-84671312D01*
X124208027Y-84671426D01*
X124172426Y-84671526D01*
X124135146Y-84671610D01*
X124096453Y-84671680D01*
X124056615Y-84671735D01*
X124015896Y-84671775D01*
X123974564Y-84671800D01*
X123932885Y-84671810D01*
X123891126Y-84671806D01*
X123849552Y-84671787D01*
X123808431Y-84671752D01*
X123768029Y-84671703D01*
X123728612Y-84671640D01*
X123690447Y-84671561D01*
X123653800Y-84671468D01*
X123618938Y-84671360D01*
X123586126Y-84671237D01*
X123555632Y-84671099D01*
X123527722Y-84670947D01*
X123502662Y-84670780D01*
X123480718Y-84670599D01*
X123462158Y-84670402D01*
X123447247Y-84670191D01*
X123436253Y-84669966D01*
X123429441Y-84669725D01*
X123427407Y-84669565D01*
X123396418Y-84662731D01*
X123366977Y-84651674D01*
X123339466Y-84636639D01*
X123314264Y-84617870D01*
X123291751Y-84595613D01*
X123272307Y-84570112D01*
X123271795Y-84569329D01*
X123257455Y-84544238D01*
X123246773Y-84518267D01*
X123239433Y-84490470D01*
X123235121Y-84459900D01*
X123235045Y-84459041D01*
X123233479Y-84441145D01*
X124607782Y-84441145D01*
X124607765Y-84454422D01*
G37*
X124607765Y-84454422D02*
X124606189Y-84475523D01*
X124601810Y-84498318D01*
X124595076Y-84521219D01*
X124586433Y-84542639D01*
X124578987Y-84556743D01*
X124561769Y-84581568D01*
X124541123Y-84604659D01*
X124517981Y-84625103D01*
X124493274Y-84641987D01*
X124490085Y-84643822D01*
X124474823Y-84651283D01*
X124456826Y-84658294D01*
X124437976Y-84664225D01*
X124420154Y-84668448D01*
X124413074Y-84669608D01*
X124408917Y-84669857D01*
X124400417Y-84670092D01*
X124387840Y-84670311D01*
X124371453Y-84670515D01*
X124351521Y-84670704D01*
X124328312Y-84670879D01*
X124302091Y-84671038D01*
X124273126Y-84671182D01*
X124241683Y-84671312D01*
X124208027Y-84671426D01*
X124172426Y-84671526D01*
X124135146Y-84671610D01*
X124096453Y-84671680D01*
X124056615Y-84671735D01*
X124015896Y-84671775D01*
X123974564Y-84671800D01*
X123932885Y-84671810D01*
X123891126Y-84671806D01*
X123849552Y-84671787D01*
X123808431Y-84671752D01*
X123768029Y-84671703D01*
X123728612Y-84671640D01*
X123690447Y-84671561D01*
X123653800Y-84671468D01*
X123618938Y-84671360D01*
X123586126Y-84671237D01*
X123555632Y-84671099D01*
X123527722Y-84670947D01*
X123502662Y-84670780D01*
X123480718Y-84670599D01*
X123462158Y-84670402D01*
X123447247Y-84670191D01*
X123436253Y-84669966D01*
X123429441Y-84669725D01*
X123427407Y-84669565D01*
X123396418Y-84662731D01*
X123366977Y-84651674D01*
X123339466Y-84636639D01*
X123314264Y-84617870D01*
X123291751Y-84595613D01*
X123272307Y-84570112D01*
X123271795Y-84569329D01*
X123257455Y-84544238D01*
X123246773Y-84518267D01*
X123239433Y-84490470D01*
X123235121Y-84459900D01*
X123235045Y-84459041D01*
X123233479Y-84441145D01*
X124607782Y-84441145D01*
X124607765Y-84454422D01*
G36*
X127808182Y-84453543D02*
G01*
X127807448Y-84465948D01*
X127805463Y-84480856D01*
X127802551Y-84496425D01*
X127799037Y-84510817D01*
X127796793Y-84518067D01*
X127784492Y-84546801D01*
X127768270Y-84573423D01*
X127748449Y-84597641D01*
X127725354Y-84619164D01*
X127699307Y-84637699D01*
X127670631Y-84652955D01*
X127639649Y-84664640D01*
X127632126Y-84666820D01*
X127630241Y-84667275D01*
X127627916Y-84667694D01*
X127624962Y-84668079D01*
X127621194Y-84668432D01*
X127616422Y-84668754D01*
X127610460Y-84669047D01*
X127603120Y-84669313D01*
X127594214Y-84669552D01*
X127583555Y-84669768D01*
X127570956Y-84669960D01*
X127556228Y-84670132D01*
X127539184Y-84670285D01*
X127519637Y-84670419D01*
X127497399Y-84670537D01*
X127472282Y-84670641D01*
X127444099Y-84670732D01*
X127412663Y-84670812D01*
X127377786Y-84670881D01*
X127339279Y-84670943D01*
X127296957Y-84670998D01*
X127250630Y-84671049D01*
X127200112Y-84671096D01*
X127145216Y-84671141D01*
X127129309Y-84671154D01*
X127081968Y-84671182D01*
X127035755Y-84671190D01*
X126990890Y-84671181D01*
X126947593Y-84671155D01*
X126906084Y-84671112D01*
X126866585Y-84671054D01*
X126829314Y-84670980D01*
X126794493Y-84670891D01*
X126762342Y-84670789D01*
X126733080Y-84670674D01*
X126706928Y-84670546D01*
X126684107Y-84670406D01*
X126664836Y-84670256D01*
X126649336Y-84670095D01*
X126637827Y-84669924D01*
X126630530Y-84669745D01*
X126627807Y-84669586D01*
X126601526Y-84663852D01*
X126575116Y-84654681D01*
X126549884Y-84642647D01*
X126527137Y-84628327D01*
X126517996Y-84621236D01*
X126494274Y-84598716D01*
X126474534Y-84573919D01*
X126458740Y-84546778D01*
X126446858Y-84517224D01*
X126438854Y-84485188D01*
X126435332Y-84459041D01*
X126433730Y-84441145D01*
X127808182Y-84441145D01*
X127808182Y-84453543D01*
G37*
X127808182Y-84453543D02*
X127807448Y-84465948D01*
X127805463Y-84480856D01*
X127802551Y-84496425D01*
X127799037Y-84510817D01*
X127796793Y-84518067D01*
X127784492Y-84546801D01*
X127768270Y-84573423D01*
X127748449Y-84597641D01*
X127725354Y-84619164D01*
X127699307Y-84637699D01*
X127670631Y-84652955D01*
X127639649Y-84664640D01*
X127632126Y-84666820D01*
X127630241Y-84667275D01*
X127627916Y-84667694D01*
X127624962Y-84668079D01*
X127621194Y-84668432D01*
X127616422Y-84668754D01*
X127610460Y-84669047D01*
X127603120Y-84669313D01*
X127594214Y-84669552D01*
X127583555Y-84669768D01*
X127570956Y-84669960D01*
X127556228Y-84670132D01*
X127539184Y-84670285D01*
X127519637Y-84670419D01*
X127497399Y-84670537D01*
X127472282Y-84670641D01*
X127444099Y-84670732D01*
X127412663Y-84670812D01*
X127377786Y-84670881D01*
X127339279Y-84670943D01*
X127296957Y-84670998D01*
X127250630Y-84671049D01*
X127200112Y-84671096D01*
X127145216Y-84671141D01*
X127129309Y-84671154D01*
X127081968Y-84671182D01*
X127035755Y-84671190D01*
X126990890Y-84671181D01*
X126947593Y-84671155D01*
X126906084Y-84671112D01*
X126866585Y-84671054D01*
X126829314Y-84670980D01*
X126794493Y-84670891D01*
X126762342Y-84670789D01*
X126733080Y-84670674D01*
X126706928Y-84670546D01*
X126684107Y-84670406D01*
X126664836Y-84670256D01*
X126649336Y-84670095D01*
X126637827Y-84669924D01*
X126630530Y-84669745D01*
X126627807Y-84669586D01*
X126601526Y-84663852D01*
X126575116Y-84654681D01*
X126549884Y-84642647D01*
X126527137Y-84628327D01*
X126517996Y-84621236D01*
X126494274Y-84598716D01*
X126474534Y-84573919D01*
X126458740Y-84546778D01*
X126446858Y-84517224D01*
X126438854Y-84485188D01*
X126435332Y-84459041D01*
X126433730Y-84441145D01*
X127808182Y-84441145D01*
X127808182Y-84453543D01*
D13*
X115318000Y-139833533D02*
X115318000Y-140176067D01*
X114298000Y-139833533D02*
X114298000Y-140176067D01*
X136267500Y-115299800D02*
X136267500Y-112639800D01*
X131127500Y-115299800D02*
X136267500Y-115299800D01*
X131127500Y-112639800D02*
X136267500Y-112639800D01*
X131127500Y-115299800D02*
X131127500Y-112639800D01*
X129857500Y-115299800D02*
X128527500Y-115299800D01*
X128527500Y-115299800D02*
X128527500Y-113969800D01*
X126028267Y-99366800D02*
X125685733Y-99366800D01*
X126028267Y-98346800D02*
X125685733Y-98346800D01*
X130600267Y-99366800D02*
X130257733Y-99366800D01*
X130600267Y-98346800D02*
X130257733Y-98346800D01*
X126113000Y-90049533D02*
X126113000Y-90392067D01*
X125093000Y-90049533D02*
X125093000Y-90392067D01*
X124152000Y-108897800D02*
X124152000Y-109197800D01*
X124152000Y-109197800D02*
X124452000Y-109197800D01*
X124152000Y-102277800D02*
X124152000Y-101977800D01*
X124152000Y-101977800D02*
X124452000Y-101977800D01*
X131372000Y-108897800D02*
X131372000Y-109197800D01*
X131372000Y-109197800D02*
X131072000Y-109197800D01*
X131372000Y-102277800D02*
X131372000Y-101977800D01*
X131372000Y-101977800D02*
X131072000Y-101977800D01*
X131072000Y-101977800D02*
X131072000Y-100662800D01*
X119525867Y-114124200D02*
X119183333Y-114124200D01*
X119525867Y-113104200D02*
X119183333Y-113104200D01*
X123780733Y-111554800D02*
X124123267Y-111554800D01*
X123780733Y-112574800D02*
X124123267Y-112574800D01*
X124918000Y-92267800D02*
X131168000Y-92267800D01*
X124918000Y-97317800D02*
X131168000Y-97317800D01*
X131168000Y-97317800D02*
G75*
G03*
X131168000Y-92267800I0J2525000D01*
G01*
X124918000Y-97317800D02*
G75*
G02*
X124918000Y-92267800I0J2525000D01*
G01*
X133606000Y-99917067D02*
X133606000Y-99574533D01*
X132586000Y-99917067D02*
X132586000Y-99574533D01*
X136146000Y-105378067D02*
X136146000Y-105035533D01*
X135126000Y-105378067D02*
X135126000Y-105035533D01*
X135126000Y-109988533D02*
X135126000Y-110331067D01*
X136146000Y-109988533D02*
X136146000Y-110331067D01*
X136146000Y-95218067D02*
X136146000Y-94875533D01*
X135126000Y-95218067D02*
X135126000Y-94875533D01*
X131066000Y-90049533D02*
X131066000Y-90392067D01*
X130046000Y-90049533D02*
X130046000Y-90392067D01*
X123780733Y-113078800D02*
X124123267Y-113078800D01*
X123780733Y-114098800D02*
X124123267Y-114098800D01*
X135126000Y-99701533D02*
X135126000Y-100044067D01*
X136146000Y-99701533D02*
X136146000Y-100044067D01*
X139063000Y-120999067D02*
X139063000Y-120656533D01*
X140083000Y-120999067D02*
X140083000Y-120656533D01*
X133475000Y-122904067D02*
X133475000Y-122561533D01*
X134495000Y-122904067D02*
X134495000Y-122561533D01*
X139063000Y-124555067D02*
X139063000Y-124212533D01*
X140083000Y-124555067D02*
X140083000Y-124212533D01*
X136315267Y-124762800D02*
X135972733Y-124762800D01*
X136315267Y-125782800D02*
X135972733Y-125782800D01*
D11*
X135356600Y-123723400D02*
X135356600Y-123901200D01*
X137693400Y-121742200D02*
X137693400Y-121564400D01*
X137693400Y-121564400D02*
X135356600Y-121564400D01*
X135356600Y-121564400D02*
X135356600Y-121742200D01*
X135356600Y-123901200D02*
X137693400Y-123901200D01*
X137693400Y-123901200D02*
X137693400Y-123723400D01*
D13*
X126282267Y-127179800D02*
X125939733Y-127179800D01*
X126282267Y-126159800D02*
X125939733Y-126159800D01*
X113664000Y-119586800D02*
X110364000Y-119586800D01*
X110364000Y-119586800D02*
X110364000Y-124986800D01*
X113664000Y-119586800D02*
X113664000Y-124986800D01*
D14*
X110298000Y-134716800D02*
X110298000Y-133191800D01*
X123645000Y-130632800D02*
X123645000Y-130032800D01*
X123645000Y-130032800D02*
X126545000Y-130032800D01*
X126545000Y-130032800D02*
X126545000Y-130632800D01*
X126545000Y-130632800D02*
X123645000Y-130632800D01*
X123495000Y-132182800D02*
X123495000Y-130982800D01*
D13*
X115191000Y-123057800D02*
X115191000Y-123987800D01*
X115191000Y-126217800D02*
X115191000Y-125287800D01*
X115191000Y-126217800D02*
X117351000Y-126217800D01*
X115191000Y-123057800D02*
X116651000Y-123057800D01*
X111042267Y-135557800D02*
X110699733Y-135557800D01*
X111042267Y-136577800D02*
X110699733Y-136577800D01*
X123065000Y-132429067D02*
X123065000Y-132086533D01*
X122045000Y-132429067D02*
X122045000Y-132086533D01*
X125939733Y-124893800D02*
X126282267Y-124893800D01*
X125939733Y-123873800D02*
X126282267Y-123873800D01*
X107948000Y-129800533D02*
X107948000Y-130143067D01*
X108968000Y-129800533D02*
X108968000Y-130143067D01*
D14*
X132689000Y-137223800D02*
X133289000Y-137223800D01*
X133289000Y-137223800D02*
X133289000Y-140123800D01*
X133289000Y-140123800D02*
X132689000Y-140123800D01*
X132689000Y-140123800D02*
X132689000Y-137223800D01*
X131139000Y-137073800D02*
X132339000Y-137073800D01*
X123645000Y-135732800D02*
X123645000Y-135132800D01*
X123645000Y-135132800D02*
X126545000Y-135132800D01*
X126545000Y-135132800D02*
X126545000Y-135732800D01*
X126545000Y-135732800D02*
X123645000Y-135732800D01*
X123495000Y-137282800D02*
X123495000Y-136082800D01*
D13*
X106254733Y-94667800D02*
X106597267Y-94667800D01*
X106254733Y-93647800D02*
X106597267Y-93647800D01*
X106597267Y-91361800D02*
X106254733Y-91361800D01*
X106597267Y-92381800D02*
X106254733Y-92381800D01*
X119525867Y-112600200D02*
X119183333Y-112600200D01*
X119525867Y-111580200D02*
X119183333Y-111580200D01*
X112058267Y-116130800D02*
X111715733Y-116130800D01*
X112058267Y-115110800D02*
X111715733Y-115110800D01*
X114636733Y-111554800D02*
X114979267Y-111554800D01*
X114636733Y-112574800D02*
X114979267Y-112574800D01*
X117773267Y-99684300D02*
X117430733Y-99684300D01*
X117773267Y-98664300D02*
X117430733Y-98664300D01*
X110615000Y-111893533D02*
X110615000Y-112236067D01*
X111635000Y-111893533D02*
X111635000Y-112236067D01*
X119307000Y-102087300D02*
X119307000Y-101787300D01*
X119307000Y-101787300D02*
X119007000Y-101787300D01*
X119307000Y-108707300D02*
X119307000Y-109007300D01*
X119307000Y-109007300D02*
X119007000Y-109007300D01*
X112087000Y-102087300D02*
X112087000Y-101787300D01*
X112087000Y-101787300D02*
X112387000Y-101787300D01*
X112087000Y-108707300D02*
X112087000Y-109007300D01*
X112087000Y-109007300D02*
X112387000Y-109007300D01*
X112387000Y-109007300D02*
X112387000Y-110322300D01*
X105223000Y-95494800D02*
X105223000Y-98154800D01*
X110363000Y-95494800D02*
X105223000Y-95494800D01*
X110363000Y-98154800D02*
X105223000Y-98154800D01*
X110363000Y-95494800D02*
X110363000Y-98154800D01*
X111633000Y-95494800D02*
X112963000Y-95494800D01*
X112963000Y-95494800D02*
X112963000Y-96824800D01*
X112058267Y-117781800D02*
X111715733Y-117781800D01*
X112058267Y-116761800D02*
X111715733Y-116761800D01*
X129851000Y-130674800D02*
X129851000Y-134694800D01*
X129851000Y-134694800D02*
X140071000Y-134694800D01*
X140071000Y-134694800D02*
X140071000Y-130674800D01*
X140071000Y-130674800D02*
X129851000Y-130674800D01*
X129851000Y-132384800D02*
X130351000Y-132384800D01*
X130351000Y-132384800D02*
X130351000Y-131174800D01*
X130351000Y-131174800D02*
X139571000Y-131174800D01*
X139571000Y-131174800D02*
X139571000Y-132384800D01*
X139571000Y-132384800D02*
X140071000Y-132384800D01*
X129851000Y-133194800D02*
X130851000Y-133194800D01*
X130851000Y-133194800D02*
X130851000Y-134694800D01*
X140071000Y-133194800D02*
X139071000Y-133194800D01*
X139071000Y-133194800D02*
X139071000Y-134694800D01*
X129551000Y-132494800D02*
X129551000Y-134994800D01*
X129551000Y-134994800D02*
X132051000Y-134994800D01*
X140587000Y-117264300D02*
X140587000Y-116334300D01*
X140587000Y-114104300D02*
X140587000Y-115034300D01*
X140587000Y-114104300D02*
X138427000Y-114104300D01*
X140587000Y-117264300D02*
X139127000Y-117264300D01*
X120669233Y-110542800D02*
X121011767Y-110542800D01*
X120669233Y-109522800D02*
X121011767Y-109522800D01*
X138728733Y-140514800D02*
X139071267Y-140514800D01*
X138728733Y-139494800D02*
X139071267Y-139494800D01*
X138728733Y-138863800D02*
X139071267Y-138863800D01*
X138728733Y-137843800D02*
X139071267Y-137843800D01*
X118813000Y-128771800D02*
X122833000Y-128771800D01*
X122833000Y-128771800D02*
X122833000Y-121051800D01*
X122833000Y-121051800D02*
X118813000Y-121051800D01*
X118813000Y-121051800D02*
X118813000Y-128771800D01*
X120523000Y-128771800D02*
X120523000Y-128271800D01*
X120523000Y-128271800D02*
X119313000Y-128271800D01*
X119313000Y-128271800D02*
X119313000Y-121551800D01*
X119313000Y-121551800D02*
X120523000Y-121551800D01*
X120523000Y-121551800D02*
X120523000Y-121051800D01*
X121333000Y-128771800D02*
X121333000Y-127771800D01*
X121333000Y-127771800D02*
X122833000Y-127771800D01*
X121333000Y-121051800D02*
X121333000Y-122051800D01*
X121333000Y-122051800D02*
X122833000Y-122051800D01*
X120633000Y-129071800D02*
X123133000Y-129071800D01*
X123133000Y-129071800D02*
X123133000Y-126571800D01*
X109152000Y-99675800D02*
X105132000Y-99675800D01*
X105132000Y-99675800D02*
X105132000Y-117395800D01*
X105132000Y-117395800D02*
X109152000Y-117395800D01*
X109152000Y-117395800D02*
X109152000Y-99675800D01*
X107442000Y-99675800D02*
X107442000Y-100175800D01*
X107442000Y-100175800D02*
X108652000Y-100175800D01*
X108652000Y-100175800D02*
X108652000Y-116895800D01*
X108652000Y-116895800D02*
X107442000Y-116895800D01*
X107442000Y-116895800D02*
X107442000Y-117395800D01*
X106632000Y-99675800D02*
X106632000Y-100675800D01*
X106632000Y-100675800D02*
X105132000Y-100675800D01*
X106632000Y-117395800D02*
X106632000Y-116395800D01*
X106632000Y-116395800D02*
X105132000Y-116395800D01*
X107332000Y-99375800D02*
X104832000Y-99375800D01*
X104832000Y-99375800D02*
X104832000Y-101875800D01*
X127578000Y-118981800D02*
X127578000Y-114961800D01*
X127578000Y-114961800D02*
X114858000Y-114961800D01*
X114858000Y-114961800D02*
X114858000Y-118981800D01*
X114858000Y-118981800D02*
X127578000Y-118981800D01*
X127578000Y-117271800D02*
X127078000Y-117271800D01*
X127078000Y-117271800D02*
X127078000Y-118481800D01*
X127078000Y-118481800D02*
X115358000Y-118481800D01*
X115358000Y-118481800D02*
X115358000Y-117271800D01*
X115358000Y-117271800D02*
X114858000Y-117271800D01*
X127578000Y-116461800D02*
X126578000Y-116461800D01*
X126578000Y-116461800D02*
X126578000Y-114961800D01*
X114858000Y-116461800D02*
X115858000Y-116461800D01*
X115858000Y-116461800D02*
X115858000Y-114961800D01*
X127878000Y-117161800D02*
X127878000Y-114661800D01*
X127878000Y-114661800D02*
X125378000Y-114661800D01*
X121609000Y-94216800D02*
X121609000Y-90196800D01*
X121609000Y-90196800D02*
X108889000Y-90196800D01*
X108889000Y-90196800D02*
X108889000Y-94216800D01*
X108889000Y-94216800D02*
X121609000Y-94216800D01*
X121609000Y-92506800D02*
X121109000Y-92506800D01*
X121109000Y-92506800D02*
X121109000Y-93716800D01*
X121109000Y-93716800D02*
X109389000Y-93716800D01*
X109389000Y-93716800D02*
X109389000Y-92506800D01*
X109389000Y-92506800D02*
X108889000Y-92506800D01*
X121609000Y-91696800D02*
X120609000Y-91696800D01*
X120609000Y-91696800D02*
X120609000Y-90196800D01*
X108889000Y-91696800D02*
X109889000Y-91696800D01*
X109889000Y-91696800D02*
X109889000Y-90196800D01*
X121909000Y-92396800D02*
X121909000Y-89896800D01*
X121909000Y-89896800D02*
X119409000Y-89896800D01*
D14*
X131796000Y-141097800D02*
G75*
G03*
X131796000Y-141097800I-100000J0D01*
G01*
D15*
X131801000Y-150097800D02*
X131801000Y-148867800D01*
X140741000Y-150097800D02*
X131801000Y-150097800D01*
X140741000Y-148867800D02*
X140741000Y-150097800D01*
X140741000Y-144687800D02*
X140741000Y-146127800D01*
X131801000Y-144687800D02*
X131801000Y-146127800D01*
D11*
X138619895Y-91059000D02*
X139200466Y-91059000D01*
X139316580Y-91088028D01*
X139393990Y-91146085D01*
X139432695Y-91233171D01*
X139432695Y-91291228D01*
X139432695Y-90449400D02*
X139432695Y-90797742D01*
X139432695Y-90623571D02*
X138619895Y-90623571D01*
X138736009Y-90681628D01*
X138813419Y-90739685D01*
X138852123Y-90797742D01*
X114082285Y-140396685D02*
X114120990Y-140425714D01*
X114159695Y-140512800D01*
X114159695Y-140570857D01*
X114120990Y-140657942D01*
X114043580Y-140716000D01*
X113966171Y-140745028D01*
X113811352Y-140774057D01*
X113695238Y-140774057D01*
X113540419Y-140745028D01*
X113463009Y-140716000D01*
X113385600Y-140657942D01*
X113346895Y-140570857D01*
X113346895Y-140512800D01*
X113385600Y-140425714D01*
X113424304Y-140396685D01*
X114159695Y-139816114D02*
X114159695Y-140164457D01*
X114159695Y-139990285D02*
X113346895Y-139990285D01*
X113463009Y-140048342D01*
X113540419Y-140106400D01*
X113579123Y-140164457D01*
X113346895Y-139612914D02*
X113346895Y-139206514D01*
X114159695Y-139467771D01*
X128701800Y-111619695D02*
X128701800Y-112200266D01*
X128672771Y-112316380D01*
X128614714Y-112393790D01*
X128527628Y-112432495D01*
X128469571Y-112432495D01*
X128963057Y-111697104D02*
X128992085Y-111658400D01*
X129050142Y-111619695D01*
X129195285Y-111619695D01*
X129253342Y-111658400D01*
X129282371Y-111697104D01*
X129311400Y-111774514D01*
X129311400Y-111851923D01*
X129282371Y-111968038D01*
X128934028Y-112432495D01*
X129311400Y-112432495D01*
X123698000Y-99147085D02*
X123668971Y-99185790D01*
X123581885Y-99224495D01*
X123523828Y-99224495D01*
X123436742Y-99185790D01*
X123378685Y-99108380D01*
X123349657Y-99030971D01*
X123320628Y-98876152D01*
X123320628Y-98760038D01*
X123349657Y-98605219D01*
X123378685Y-98527809D01*
X123436742Y-98450400D01*
X123523828Y-98411695D01*
X123581885Y-98411695D01*
X123668971Y-98450400D01*
X123698000Y-98489104D01*
X124220514Y-98682628D02*
X124220514Y-99224495D01*
X124075371Y-98372990D02*
X123930228Y-98953561D01*
X124307600Y-98953561D01*
X128041400Y-99147085D02*
X128012371Y-99185790D01*
X127925285Y-99224495D01*
X127867228Y-99224495D01*
X127780142Y-99185790D01*
X127722085Y-99108380D01*
X127693057Y-99030971D01*
X127664028Y-98876152D01*
X127664028Y-98760038D01*
X127693057Y-98605219D01*
X127722085Y-98527809D01*
X127780142Y-98450400D01*
X127867228Y-98411695D01*
X127925285Y-98411695D01*
X128012371Y-98450400D01*
X128041400Y-98489104D01*
X128273628Y-98489104D02*
X128302657Y-98450400D01*
X128360714Y-98411695D01*
X128505857Y-98411695D01*
X128563914Y-98450400D01*
X128592942Y-98489104D01*
X128621971Y-98566514D01*
X128621971Y-98643923D01*
X128592942Y-98760038D01*
X128244600Y-99224495D01*
X128621971Y-99224495D01*
X126909285Y-90358321D02*
X126947990Y-90387349D01*
X126986695Y-90474435D01*
X126986695Y-90532492D01*
X126947990Y-90619578D01*
X126870580Y-90677635D01*
X126793171Y-90706663D01*
X126638352Y-90735692D01*
X126522238Y-90735692D01*
X126367419Y-90706663D01*
X126290009Y-90677635D01*
X126212600Y-90619578D01*
X126173895Y-90532492D01*
X126173895Y-90474435D01*
X126212600Y-90387349D01*
X126251304Y-90358321D01*
X126173895Y-90155121D02*
X126173895Y-89777749D01*
X126483533Y-89980949D01*
X126483533Y-89893863D01*
X126522238Y-89835806D01*
X126560942Y-89806778D01*
X126638352Y-89777749D01*
X126831876Y-89777749D01*
X126909285Y-89806778D01*
X126947990Y-89835806D01*
X126986695Y-89893863D01*
X126986695Y-90068035D01*
X126947990Y-90126092D01*
X126909285Y-90155121D01*
X122998895Y-101861257D02*
X123656876Y-101861257D01*
X123734285Y-101832228D01*
X123772990Y-101803200D01*
X123811695Y-101745142D01*
X123811695Y-101629028D01*
X123772990Y-101570971D01*
X123734285Y-101541942D01*
X123656876Y-101512914D01*
X122998895Y-101512914D01*
X123811695Y-100903314D02*
X123811695Y-101251657D01*
X123811695Y-101077485D02*
X122998895Y-101077485D01*
X123115009Y-101135542D01*
X123192419Y-101193600D01*
X123231123Y-101251657D01*
X116992400Y-113879085D02*
X116963371Y-113917790D01*
X116876285Y-113956495D01*
X116818228Y-113956495D01*
X116731142Y-113917790D01*
X116673085Y-113840380D01*
X116644057Y-113762971D01*
X116615028Y-113608152D01*
X116615028Y-113492038D01*
X116644057Y-113337219D01*
X116673085Y-113259809D01*
X116731142Y-113182400D01*
X116818228Y-113143695D01*
X116876285Y-113143695D01*
X116963371Y-113182400D01*
X116992400Y-113221104D01*
X117340742Y-113492038D02*
X117282685Y-113453333D01*
X117253657Y-113414628D01*
X117224628Y-113337219D01*
X117224628Y-113298514D01*
X117253657Y-113221104D01*
X117282685Y-113182400D01*
X117340742Y-113143695D01*
X117456857Y-113143695D01*
X117514914Y-113182400D01*
X117543942Y-113221104D01*
X117572971Y-113298514D01*
X117572971Y-113337219D01*
X117543942Y-113414628D01*
X117514914Y-113453333D01*
X117456857Y-113492038D01*
X117340742Y-113492038D01*
X117282685Y-113530742D01*
X117253657Y-113569447D01*
X117224628Y-113646857D01*
X117224628Y-113801676D01*
X117253657Y-113879085D01*
X117282685Y-113917790D01*
X117340742Y-113956495D01*
X117456857Y-113956495D01*
X117514914Y-113917790D01*
X117543942Y-113879085D01*
X117572971Y-113801676D01*
X117572971Y-113646857D01*
X117543942Y-113569447D01*
X117514914Y-113530742D01*
X117456857Y-113492038D01*
X121691400Y-112355085D02*
X121662371Y-112393790D01*
X121575285Y-112432495D01*
X121517228Y-112432495D01*
X121430142Y-112393790D01*
X121372085Y-112316380D01*
X121343057Y-112238971D01*
X121314028Y-112084152D01*
X121314028Y-111968038D01*
X121343057Y-111813219D01*
X121372085Y-111735809D01*
X121430142Y-111658400D01*
X121517228Y-111619695D01*
X121575285Y-111619695D01*
X121662371Y-111658400D01*
X121691400Y-111697104D01*
X122242942Y-111619695D02*
X121952657Y-111619695D01*
X121923628Y-112006742D01*
X121952657Y-111968038D01*
X122010714Y-111929333D01*
X122155857Y-111929333D01*
X122213914Y-111968038D01*
X122242942Y-112006742D01*
X122271971Y-112084152D01*
X122271971Y-112277676D01*
X122242942Y-112355085D01*
X122213914Y-112393790D01*
X122155857Y-112432495D01*
X122010714Y-112432495D01*
X121952657Y-112393790D01*
X121923628Y-112355085D01*
D10*
X127412809Y-94768990D02*
X127412809Y-95245180D01*
X127079476Y-94245180D02*
X127412809Y-94768990D01*
X127746142Y-94245180D01*
X128603285Y-95245180D02*
X128031857Y-95245180D01*
X128317571Y-95245180D02*
X128317571Y-94245180D01*
X128222333Y-94388038D01*
X128127095Y-94483276D01*
X128031857Y-94530895D01*
D11*
X132193695Y-100863400D02*
X131806647Y-101066600D01*
X132193695Y-101211742D02*
X131380895Y-101211742D01*
X131380895Y-100979514D01*
X131419600Y-100921457D01*
X131458304Y-100892428D01*
X131535714Y-100863400D01*
X131651828Y-100863400D01*
X131729238Y-100892428D01*
X131767942Y-100921457D01*
X131806647Y-100979514D01*
X131806647Y-101211742D01*
X131380895Y-100311857D02*
X131380895Y-100602142D01*
X131767942Y-100631171D01*
X131729238Y-100602142D01*
X131690533Y-100544085D01*
X131690533Y-100398942D01*
X131729238Y-100340885D01*
X131767942Y-100311857D01*
X131845352Y-100282828D01*
X132038876Y-100282828D01*
X132116285Y-100311857D01*
X132154990Y-100340885D01*
X132193695Y-100398942D01*
X132193695Y-100544085D01*
X132154990Y-100602142D01*
X132116285Y-100631171D01*
X136003695Y-103022400D02*
X135616647Y-103225600D01*
X136003695Y-103370742D02*
X135190895Y-103370742D01*
X135190895Y-103138514D01*
X135229600Y-103080457D01*
X135268304Y-103051428D01*
X135345714Y-103022400D01*
X135461828Y-103022400D01*
X135539238Y-103051428D01*
X135577942Y-103080457D01*
X135616647Y-103138514D01*
X135616647Y-103370742D01*
X135190895Y-102819200D02*
X135190895Y-102441828D01*
X135500533Y-102645028D01*
X135500533Y-102557942D01*
X135539238Y-102499885D01*
X135577942Y-102470857D01*
X135655352Y-102441828D01*
X135848876Y-102441828D01*
X135926285Y-102470857D01*
X135964990Y-102499885D01*
X136003695Y-102557942D01*
X136003695Y-102732114D01*
X135964990Y-102790171D01*
X135926285Y-102819200D01*
X136003695Y-108102400D02*
X135616647Y-108305600D01*
X136003695Y-108450742D02*
X135190895Y-108450742D01*
X135190895Y-108218514D01*
X135229600Y-108160457D01*
X135268304Y-108131428D01*
X135345714Y-108102400D01*
X135461828Y-108102400D01*
X135539238Y-108131428D01*
X135577942Y-108160457D01*
X135616647Y-108218514D01*
X135616647Y-108450742D01*
X135461828Y-107579885D02*
X136003695Y-107579885D01*
X135152190Y-107725028D02*
X135732761Y-107870171D01*
X135732761Y-107492800D01*
X136003695Y-92862400D02*
X135616647Y-93065600D01*
X136003695Y-93210742D02*
X135190895Y-93210742D01*
X135190895Y-92978514D01*
X135229600Y-92920457D01*
X135268304Y-92891428D01*
X135345714Y-92862400D01*
X135461828Y-92862400D01*
X135539238Y-92891428D01*
X135577942Y-92920457D01*
X135616647Y-92978514D01*
X135616647Y-93210742D01*
X136003695Y-92281828D02*
X136003695Y-92630171D01*
X136003695Y-92456000D02*
X135190895Y-92456000D01*
X135307009Y-92514057D01*
X135384419Y-92572114D01*
X135423123Y-92630171D01*
X129840496Y-90322400D02*
X129879201Y-90351428D01*
X129917906Y-90438514D01*
X129917906Y-90496571D01*
X129879201Y-90583657D01*
X129801791Y-90641714D01*
X129724382Y-90670742D01*
X129569563Y-90699771D01*
X129453449Y-90699771D01*
X129298630Y-90670742D01*
X129221220Y-90641714D01*
X129143811Y-90583657D01*
X129105106Y-90496571D01*
X129105106Y-90438514D01*
X129143811Y-90351428D01*
X129182515Y-90322400D01*
X129917906Y-89741828D02*
X129917906Y-90090171D01*
X129917906Y-89916000D02*
X129105106Y-89916000D01*
X129221220Y-89974057D01*
X129298630Y-90032114D01*
X129337334Y-90090171D01*
X121691400Y-113879085D02*
X121662371Y-113917790D01*
X121575285Y-113956495D01*
X121517228Y-113956495D01*
X121430142Y-113917790D01*
X121372085Y-113840380D01*
X121343057Y-113762971D01*
X121314028Y-113608152D01*
X121314028Y-113492038D01*
X121343057Y-113337219D01*
X121372085Y-113259809D01*
X121430142Y-113182400D01*
X121517228Y-113143695D01*
X121575285Y-113143695D01*
X121662371Y-113182400D01*
X121691400Y-113221104D01*
X122213914Y-113143695D02*
X122097800Y-113143695D01*
X122039742Y-113182400D01*
X122010714Y-113221104D01*
X121952657Y-113337219D01*
X121923628Y-113492038D01*
X121923628Y-113801676D01*
X121952657Y-113879085D01*
X121981685Y-113917790D01*
X122039742Y-113956495D01*
X122155857Y-113956495D01*
X122213914Y-113917790D01*
X122242942Y-113879085D01*
X122271971Y-113801676D01*
X122271971Y-113608152D01*
X122242942Y-113530742D01*
X122213914Y-113492038D01*
X122155857Y-113453333D01*
X122039742Y-113453333D01*
X121981685Y-113492038D01*
X121952657Y-113530742D01*
X121923628Y-113608152D01*
X136003695Y-97674400D02*
X135616647Y-97877600D01*
X136003695Y-98022742D02*
X135190895Y-98022742D01*
X135190895Y-97790514D01*
X135229600Y-97732457D01*
X135268304Y-97703428D01*
X135345714Y-97674400D01*
X135461828Y-97674400D01*
X135539238Y-97703428D01*
X135577942Y-97732457D01*
X135616647Y-97790514D01*
X135616647Y-98022742D01*
X135268304Y-97442171D02*
X135229600Y-97413142D01*
X135190895Y-97355085D01*
X135190895Y-97209942D01*
X135229600Y-97151885D01*
X135268304Y-97122857D01*
X135345714Y-97093828D01*
X135423123Y-97093828D01*
X135539238Y-97122857D01*
X136003695Y-97471200D01*
X136003695Y-97093828D01*
X138847285Y-121219685D02*
X138885990Y-121248714D01*
X138924695Y-121335800D01*
X138924695Y-121393857D01*
X138885990Y-121480942D01*
X138808580Y-121539000D01*
X138731171Y-121568028D01*
X138576352Y-121597057D01*
X138460238Y-121597057D01*
X138305419Y-121568028D01*
X138228009Y-121539000D01*
X138150600Y-121480942D01*
X138111895Y-121393857D01*
X138111895Y-121335800D01*
X138150600Y-121248714D01*
X138189304Y-121219685D01*
X138924695Y-120639114D02*
X138924695Y-120987457D01*
X138924695Y-120813285D02*
X138111895Y-120813285D01*
X138228009Y-120871342D01*
X138305419Y-120929400D01*
X138344123Y-120987457D01*
X138111895Y-120435914D02*
X138111895Y-120058542D01*
X138421533Y-120261742D01*
X138421533Y-120174657D01*
X138460238Y-120116600D01*
X138498942Y-120087571D01*
X138576352Y-120058542D01*
X138769876Y-120058542D01*
X138847285Y-120087571D01*
X138885990Y-120116600D01*
X138924695Y-120174657D01*
X138924695Y-120348828D01*
X138885990Y-120406885D01*
X138847285Y-120435914D01*
X134199085Y-120711685D02*
X134237790Y-120740714D01*
X134276495Y-120827800D01*
X134276495Y-120885857D01*
X134237790Y-120972942D01*
X134160380Y-121031000D01*
X134082971Y-121060028D01*
X133928152Y-121089057D01*
X133812038Y-121089057D01*
X133657219Y-121060028D01*
X133579809Y-121031000D01*
X133502400Y-120972942D01*
X133463695Y-120885857D01*
X133463695Y-120827800D01*
X133502400Y-120740714D01*
X133541104Y-120711685D01*
X134276495Y-120131114D02*
X134276495Y-120479457D01*
X134276495Y-120305285D02*
X133463695Y-120305285D01*
X133579809Y-120363342D01*
X133657219Y-120421400D01*
X133695923Y-120479457D01*
X133463695Y-119579571D02*
X133463695Y-119869857D01*
X133850742Y-119898885D01*
X133812038Y-119869857D01*
X133773333Y-119811800D01*
X133773333Y-119666657D01*
X133812038Y-119608600D01*
X133850742Y-119579571D01*
X133928152Y-119550542D01*
X134121676Y-119550542D01*
X134199085Y-119579571D01*
X134237790Y-119608600D01*
X134276495Y-119666657D01*
X134276495Y-119811800D01*
X134237790Y-119869857D01*
X134199085Y-119898885D01*
X138847285Y-124775685D02*
X138885990Y-124804714D01*
X138924695Y-124891800D01*
X138924695Y-124949857D01*
X138885990Y-125036942D01*
X138808580Y-125095000D01*
X138731171Y-125124028D01*
X138576352Y-125153057D01*
X138460238Y-125153057D01*
X138305419Y-125124028D01*
X138228009Y-125095000D01*
X138150600Y-125036942D01*
X138111895Y-124949857D01*
X138111895Y-124891800D01*
X138150600Y-124804714D01*
X138189304Y-124775685D01*
X138924695Y-124195114D02*
X138924695Y-124543457D01*
X138924695Y-124369285D02*
X138111895Y-124369285D01*
X138228009Y-124427342D01*
X138305419Y-124485400D01*
X138344123Y-124543457D01*
X138382828Y-123672600D02*
X138924695Y-123672600D01*
X138073190Y-123817742D02*
X138653761Y-123962885D01*
X138653761Y-123585514D01*
X133275614Y-125576995D02*
X133072414Y-125189947D01*
X132927271Y-125576995D02*
X132927271Y-124764195D01*
X133159500Y-124764195D01*
X133217557Y-124802900D01*
X133246585Y-124841604D01*
X133275614Y-124919014D01*
X133275614Y-125035128D01*
X133246585Y-125112538D01*
X133217557Y-125151242D01*
X133159500Y-125189947D01*
X132927271Y-125189947D01*
X133856185Y-125576995D02*
X133507842Y-125576995D01*
X133682014Y-125576995D02*
X133682014Y-124764195D01*
X133623957Y-124880309D01*
X133565900Y-124957719D01*
X133507842Y-124996423D01*
X134088414Y-124841604D02*
X134117442Y-124802900D01*
X134175500Y-124764195D01*
X134320642Y-124764195D01*
X134378700Y-124802900D01*
X134407728Y-124841604D01*
X134436757Y-124919014D01*
X134436757Y-124996423D01*
X134407728Y-125112538D01*
X134059385Y-125576995D01*
X134436757Y-125576995D01*
X136060542Y-119747695D02*
X136060542Y-120405676D01*
X136089571Y-120483085D01*
X136118600Y-120521790D01*
X136176657Y-120560495D01*
X136292771Y-120560495D01*
X136350828Y-120521790D01*
X136379857Y-120483085D01*
X136408885Y-120405676D01*
X136408885Y-119747695D01*
X136641114Y-119747695D02*
X137018485Y-119747695D01*
X136815285Y-120057333D01*
X136902371Y-120057333D01*
X136960428Y-120096038D01*
X136989457Y-120134742D01*
X137018485Y-120212152D01*
X137018485Y-120405676D01*
X136989457Y-120483085D01*
X136960428Y-120521790D01*
X136902371Y-120560495D01*
X136728200Y-120560495D01*
X136670142Y-120521790D01*
X136641114Y-120483085D01*
X125719114Y-125944085D02*
X125690085Y-125982790D01*
X125603000Y-126021495D01*
X125544942Y-126021495D01*
X125457857Y-125982790D01*
X125399800Y-125905380D01*
X125370771Y-125827971D01*
X125341742Y-125673152D01*
X125341742Y-125557038D01*
X125370771Y-125402219D01*
X125399800Y-125324809D01*
X125457857Y-125247400D01*
X125544942Y-125208695D01*
X125603000Y-125208695D01*
X125690085Y-125247400D01*
X125719114Y-125286104D01*
X126299685Y-126021495D02*
X125951342Y-126021495D01*
X126125514Y-126021495D02*
X126125514Y-125208695D01*
X126067457Y-125324809D01*
X126009400Y-125402219D01*
X125951342Y-125440923D01*
X126822200Y-125208695D02*
X126706085Y-125208695D01*
X126648028Y-125247400D01*
X126619000Y-125286104D01*
X126560942Y-125402219D01*
X126531914Y-125557038D01*
X126531914Y-125866676D01*
X126560942Y-125944085D01*
X126589971Y-125982790D01*
X126648028Y-126021495D01*
X126764142Y-126021495D01*
X126822200Y-125982790D01*
X126851228Y-125944085D01*
X126880257Y-125866676D01*
X126880257Y-125673152D01*
X126851228Y-125595742D01*
X126822200Y-125557038D01*
X126764142Y-125518333D01*
X126648028Y-125518333D01*
X126589971Y-125557038D01*
X126560942Y-125595742D01*
X126531914Y-125673152D01*
X110095695Y-123436742D02*
X109282895Y-123436742D01*
X109282895Y-123291600D01*
X109321600Y-123204514D01*
X109399009Y-123146457D01*
X109476419Y-123117428D01*
X109631238Y-123088400D01*
X109747352Y-123088400D01*
X109902171Y-123117428D01*
X109979580Y-123146457D01*
X110056990Y-123204514D01*
X110095695Y-123291600D01*
X110095695Y-123436742D01*
X110095695Y-122507828D02*
X110095695Y-122856171D01*
X110095695Y-122682000D02*
X109282895Y-122682000D01*
X109399009Y-122740057D01*
X109476419Y-122798114D01*
X109515123Y-122856171D01*
X109155895Y-132976257D02*
X109813876Y-132976257D01*
X109891285Y-132947228D01*
X109929990Y-132918200D01*
X109968695Y-132860142D01*
X109968695Y-132744028D01*
X109929990Y-132685971D01*
X109891285Y-132656942D01*
X109813876Y-132627914D01*
X109155895Y-132627914D01*
X109155895Y-132395685D02*
X109155895Y-131989285D01*
X109968695Y-132250542D01*
X126935895Y-130817257D02*
X127593876Y-130817257D01*
X127671285Y-130788228D01*
X127709990Y-130759200D01*
X127748695Y-130701142D01*
X127748695Y-130585028D01*
X127709990Y-130526971D01*
X127671285Y-130497942D01*
X127593876Y-130468914D01*
X126935895Y-130468914D01*
X126935895Y-129888342D02*
X126935895Y-130178628D01*
X127322942Y-130207657D01*
X127284238Y-130178628D01*
X127245533Y-130120571D01*
X127245533Y-129975428D01*
X127284238Y-129917371D01*
X127322942Y-129888342D01*
X127400352Y-129859314D01*
X127593876Y-129859314D01*
X127671285Y-129888342D01*
X127709990Y-129917371D01*
X127748695Y-129975428D01*
X127748695Y-130120571D01*
X127709990Y-130178628D01*
X127671285Y-130207657D01*
X115892942Y-122923904D02*
X115834885Y-122885200D01*
X115776828Y-122807790D01*
X115689742Y-122691676D01*
X115631685Y-122652971D01*
X115573628Y-122652971D01*
X115602657Y-122846495D02*
X115544600Y-122807790D01*
X115486542Y-122730380D01*
X115457514Y-122575561D01*
X115457514Y-122304628D01*
X115486542Y-122149809D01*
X115544600Y-122072400D01*
X115602657Y-122033695D01*
X115718771Y-122033695D01*
X115776828Y-122072400D01*
X115834885Y-122149809D01*
X115863914Y-122304628D01*
X115863914Y-122575561D01*
X115834885Y-122730380D01*
X115776828Y-122807790D01*
X115718771Y-122846495D01*
X115602657Y-122846495D01*
X116096142Y-122111104D02*
X116125171Y-122072400D01*
X116183228Y-122033695D01*
X116328371Y-122033695D01*
X116386428Y-122072400D01*
X116415457Y-122111104D01*
X116444485Y-122188514D01*
X116444485Y-122265923D01*
X116415457Y-122382038D01*
X116067114Y-122846495D01*
X116444485Y-122846495D01*
X110479114Y-137832495D02*
X110275914Y-137445447D01*
X110130771Y-137832495D02*
X110130771Y-137019695D01*
X110363000Y-137019695D01*
X110421057Y-137058400D01*
X110450085Y-137097104D01*
X110479114Y-137174514D01*
X110479114Y-137290628D01*
X110450085Y-137368038D01*
X110421057Y-137406742D01*
X110363000Y-137445447D01*
X110130771Y-137445447D01*
X111059685Y-137832495D02*
X110711342Y-137832495D01*
X110885514Y-137832495D02*
X110885514Y-137019695D01*
X110827457Y-137135809D01*
X110769400Y-137213219D01*
X110711342Y-137251923D01*
X111611228Y-137019695D02*
X111320942Y-137019695D01*
X111291914Y-137406742D01*
X111320942Y-137368038D01*
X111379000Y-137329333D01*
X111524142Y-137329333D01*
X111582200Y-137368038D01*
X111611228Y-137406742D01*
X111640257Y-137484152D01*
X111640257Y-137677676D01*
X111611228Y-137755085D01*
X111582200Y-137793790D01*
X111524142Y-137832495D01*
X111379000Y-137832495D01*
X111320942Y-137793790D01*
X111291914Y-137755085D01*
X121652695Y-132649685D02*
X121265647Y-132852885D01*
X121652695Y-132998028D02*
X120839895Y-132998028D01*
X120839895Y-132765800D01*
X120878600Y-132707742D01*
X120917304Y-132678714D01*
X120994714Y-132649685D01*
X121110828Y-132649685D01*
X121188238Y-132678714D01*
X121226942Y-132707742D01*
X121265647Y-132765800D01*
X121265647Y-132998028D01*
X121652695Y-132069114D02*
X121652695Y-132417457D01*
X121652695Y-132243285D02*
X120839895Y-132243285D01*
X120956009Y-132301342D01*
X121033419Y-132359400D01*
X121072123Y-132417457D01*
X121110828Y-131546600D02*
X121652695Y-131546600D01*
X120801190Y-131691742D02*
X121381761Y-131836885D01*
X121381761Y-131459514D01*
X125719114Y-123481495D02*
X125515914Y-123094447D01*
X125370771Y-123481495D02*
X125370771Y-122668695D01*
X125603000Y-122668695D01*
X125661057Y-122707400D01*
X125690085Y-122746104D01*
X125719114Y-122823514D01*
X125719114Y-122939628D01*
X125690085Y-123017038D01*
X125661057Y-123055742D01*
X125603000Y-123094447D01*
X125370771Y-123094447D01*
X126299685Y-123481495D02*
X125951342Y-123481495D01*
X126125514Y-123481495D02*
X126125514Y-122668695D01*
X126067457Y-122784809D01*
X126009400Y-122862219D01*
X125951342Y-122900923D01*
X126502885Y-122668695D02*
X126880257Y-122668695D01*
X126677057Y-122978333D01*
X126764142Y-122978333D01*
X126822200Y-123017038D01*
X126851228Y-123055742D01*
X126880257Y-123133152D01*
X126880257Y-123326676D01*
X126851228Y-123404085D01*
X126822200Y-123442790D01*
X126764142Y-123481495D01*
X126589971Y-123481495D01*
X126531914Y-123442790D01*
X126502885Y-123404085D01*
X107809695Y-130363685D02*
X107422647Y-130566885D01*
X107809695Y-130712028D02*
X106996895Y-130712028D01*
X106996895Y-130479800D01*
X107035600Y-130421742D01*
X107074304Y-130392714D01*
X107151714Y-130363685D01*
X107267828Y-130363685D01*
X107345238Y-130392714D01*
X107383942Y-130421742D01*
X107422647Y-130479800D01*
X107422647Y-130712028D01*
X107809695Y-129783114D02*
X107809695Y-130131457D01*
X107809695Y-129957285D02*
X106996895Y-129957285D01*
X107113009Y-130015342D01*
X107190419Y-130073400D01*
X107229123Y-130131457D01*
X106996895Y-129260600D02*
X106996895Y-129376714D01*
X107035600Y-129434771D01*
X107074304Y-129463800D01*
X107190419Y-129521857D01*
X107345238Y-129550885D01*
X107654876Y-129550885D01*
X107732285Y-129521857D01*
X107770990Y-129492828D01*
X107809695Y-129434771D01*
X107809695Y-129318657D01*
X107770990Y-129260600D01*
X107732285Y-129231571D01*
X107654876Y-129202542D01*
X107461352Y-129202542D01*
X107383942Y-129231571D01*
X107345238Y-129260600D01*
X107306533Y-129318657D01*
X107306533Y-129434771D01*
X107345238Y-129492828D01*
X107383942Y-129521857D01*
X107461352Y-129550885D01*
X129603542Y-138035695D02*
X129603542Y-138693676D01*
X129632571Y-138771085D01*
X129661600Y-138809790D01*
X129719657Y-138848495D01*
X129835771Y-138848495D01*
X129893828Y-138809790D01*
X129922857Y-138771085D01*
X129951885Y-138693676D01*
X129951885Y-138035695D01*
X130503428Y-138306628D02*
X130503428Y-138848495D01*
X130358285Y-137996990D02*
X130213142Y-138577561D01*
X130590514Y-138577561D01*
X126935895Y-135897257D02*
X127593876Y-135897257D01*
X127671285Y-135868228D01*
X127709990Y-135839200D01*
X127748695Y-135781142D01*
X127748695Y-135665028D01*
X127709990Y-135606971D01*
X127671285Y-135577942D01*
X127593876Y-135548914D01*
X126935895Y-135548914D01*
X126935895Y-134997371D02*
X126935895Y-135113485D01*
X126974600Y-135171542D01*
X127013304Y-135200571D01*
X127129419Y-135258628D01*
X127284238Y-135287657D01*
X127593876Y-135287657D01*
X127671285Y-135258628D01*
X127709990Y-135229600D01*
X127748695Y-135171542D01*
X127748695Y-135055428D01*
X127709990Y-134997371D01*
X127671285Y-134968342D01*
X127593876Y-134939314D01*
X127400352Y-134939314D01*
X127322942Y-134968342D01*
X127284238Y-134997371D01*
X127245533Y-135055428D01*
X127245533Y-135171542D01*
X127284238Y-135229600D01*
X127322942Y-135258628D01*
X127400352Y-135287657D01*
X106324400Y-93509495D02*
X106121200Y-93122447D01*
X105976057Y-93509495D02*
X105976057Y-92696695D01*
X106208285Y-92696695D01*
X106266342Y-92735400D01*
X106295371Y-92774104D01*
X106324400Y-92851514D01*
X106324400Y-92967628D01*
X106295371Y-93045038D01*
X106266342Y-93083742D01*
X106208285Y-93122447D01*
X105976057Y-93122447D01*
X106614685Y-93509495D02*
X106730800Y-93509495D01*
X106788857Y-93470790D01*
X106817885Y-93432085D01*
X106875942Y-93315971D01*
X106904971Y-93161152D01*
X106904971Y-92851514D01*
X106875942Y-92774104D01*
X106846914Y-92735400D01*
X106788857Y-92696695D01*
X106672742Y-92696695D01*
X106614685Y-92735400D01*
X106585657Y-92774104D01*
X106556628Y-92851514D01*
X106556628Y-93045038D01*
X106585657Y-93122447D01*
X106614685Y-93161152D01*
X106672742Y-93199857D01*
X106788857Y-93199857D01*
X106846914Y-93161152D01*
X106875942Y-93122447D01*
X106904971Y-93045038D01*
X106324400Y-91223495D02*
X106121200Y-90836447D01*
X105976057Y-91223495D02*
X105976057Y-90410695D01*
X106208285Y-90410695D01*
X106266342Y-90449400D01*
X106295371Y-90488104D01*
X106324400Y-90565514D01*
X106324400Y-90681628D01*
X106295371Y-90759038D01*
X106266342Y-90797742D01*
X106208285Y-90836447D01*
X105976057Y-90836447D01*
X106672742Y-90759038D02*
X106614685Y-90720333D01*
X106585657Y-90681628D01*
X106556628Y-90604219D01*
X106556628Y-90565514D01*
X106585657Y-90488104D01*
X106614685Y-90449400D01*
X106672742Y-90410695D01*
X106788857Y-90410695D01*
X106846914Y-90449400D01*
X106875942Y-90488104D01*
X106904971Y-90565514D01*
X106904971Y-90604219D01*
X106875942Y-90681628D01*
X106846914Y-90720333D01*
X106788857Y-90759038D01*
X106672742Y-90759038D01*
X106614685Y-90797742D01*
X106585657Y-90836447D01*
X106556628Y-90913857D01*
X106556628Y-91068676D01*
X106585657Y-91146085D01*
X106614685Y-91184790D01*
X106672742Y-91223495D01*
X106788857Y-91223495D01*
X106846914Y-91184790D01*
X106875942Y-91146085D01*
X106904971Y-91068676D01*
X106904971Y-90913857D01*
X106875942Y-90836447D01*
X106846914Y-90797742D01*
X106788857Y-90759038D01*
X116992400Y-112355085D02*
X116963371Y-112393790D01*
X116876285Y-112432495D01*
X116818228Y-112432495D01*
X116731142Y-112393790D01*
X116673085Y-112316380D01*
X116644057Y-112238971D01*
X116615028Y-112084152D01*
X116615028Y-111968038D01*
X116644057Y-111813219D01*
X116673085Y-111735809D01*
X116731142Y-111658400D01*
X116818228Y-111619695D01*
X116876285Y-111619695D01*
X116963371Y-111658400D01*
X116992400Y-111697104D01*
X117195600Y-111619695D02*
X117602000Y-111619695D01*
X117340742Y-112432495D01*
X111785400Y-114895085D02*
X111756371Y-114933790D01*
X111669285Y-114972495D01*
X111611228Y-114972495D01*
X111524142Y-114933790D01*
X111466085Y-114856380D01*
X111437057Y-114778971D01*
X111408028Y-114624152D01*
X111408028Y-114508038D01*
X111437057Y-114353219D01*
X111466085Y-114275809D01*
X111524142Y-114198400D01*
X111611228Y-114159695D01*
X111669285Y-114159695D01*
X111756371Y-114198400D01*
X111785400Y-114237104D01*
X112075685Y-114972495D02*
X112191800Y-114972495D01*
X112249857Y-114933790D01*
X112278885Y-114895085D01*
X112336942Y-114778971D01*
X112365971Y-114624152D01*
X112365971Y-114314514D01*
X112336942Y-114237104D01*
X112307914Y-114198400D01*
X112249857Y-114159695D01*
X112133742Y-114159695D01*
X112075685Y-114198400D01*
X112046657Y-114237104D01*
X112017628Y-114314514D01*
X112017628Y-114508038D01*
X112046657Y-114585447D01*
X112075685Y-114624152D01*
X112133742Y-114662857D01*
X112249857Y-114662857D01*
X112307914Y-114624152D01*
X112336942Y-114585447D01*
X112365971Y-114508038D01*
X114416114Y-113523485D02*
X114387085Y-113562190D01*
X114300000Y-113600895D01*
X114241942Y-113600895D01*
X114154857Y-113562190D01*
X114096800Y-113484780D01*
X114067771Y-113407371D01*
X114038742Y-113252552D01*
X114038742Y-113136438D01*
X114067771Y-112981619D01*
X114096800Y-112904209D01*
X114154857Y-112826800D01*
X114241942Y-112788095D01*
X114300000Y-112788095D01*
X114387085Y-112826800D01*
X114416114Y-112865504D01*
X114996685Y-113600895D02*
X114648342Y-113600895D01*
X114822514Y-113600895D02*
X114822514Y-112788095D01*
X114764457Y-112904209D01*
X114706400Y-112981619D01*
X114648342Y-113020323D01*
X115374057Y-112788095D02*
X115432114Y-112788095D01*
X115490171Y-112826800D01*
X115519200Y-112865504D01*
X115548228Y-112942914D01*
X115577257Y-113097733D01*
X115577257Y-113291257D01*
X115548228Y-113446076D01*
X115519200Y-113523485D01*
X115490171Y-113562190D01*
X115432114Y-113600895D01*
X115374057Y-113600895D01*
X115316000Y-113562190D01*
X115286971Y-113523485D01*
X115257942Y-113446076D01*
X115228914Y-113291257D01*
X115228914Y-113097733D01*
X115257942Y-112942914D01*
X115286971Y-112865504D01*
X115316000Y-112826800D01*
X115374057Y-112788095D01*
X117210114Y-98448585D02*
X117181085Y-98487290D01*
X117094000Y-98525995D01*
X117035942Y-98525995D01*
X116948857Y-98487290D01*
X116890800Y-98409880D01*
X116861771Y-98332471D01*
X116832742Y-98177652D01*
X116832742Y-98061538D01*
X116861771Y-97906719D01*
X116890800Y-97829309D01*
X116948857Y-97751900D01*
X117035942Y-97713195D01*
X117094000Y-97713195D01*
X117181085Y-97751900D01*
X117210114Y-97790604D01*
X117790685Y-98525995D02*
X117442342Y-98525995D01*
X117616514Y-98525995D02*
X117616514Y-97713195D01*
X117558457Y-97829309D01*
X117500400Y-97906719D01*
X117442342Y-97945423D01*
X118371257Y-98525995D02*
X118022914Y-98525995D01*
X118197085Y-98525995D02*
X118197085Y-97713195D01*
X118139028Y-97829309D01*
X118080971Y-97906719D01*
X118022914Y-97945423D01*
X112027304Y-112852200D02*
X112414352Y-112649000D01*
X112027304Y-112503857D02*
X112840104Y-112503857D01*
X112840104Y-112736085D01*
X112801400Y-112794142D01*
X112762695Y-112823171D01*
X112685285Y-112852200D01*
X112569171Y-112852200D01*
X112491761Y-112823171D01*
X112453057Y-112794142D01*
X112414352Y-112736085D01*
X112414352Y-112503857D01*
X112840104Y-113055400D02*
X112840104Y-113461800D01*
X112027304Y-113200542D01*
X110806895Y-101607257D02*
X111464876Y-101607257D01*
X111542285Y-101578228D01*
X111580990Y-101549200D01*
X111619695Y-101491142D01*
X111619695Y-101375028D01*
X111580990Y-101316971D01*
X111542285Y-101287942D01*
X111464876Y-101258914D01*
X110806895Y-101258914D01*
X110884304Y-100997657D02*
X110845600Y-100968628D01*
X110806895Y-100910571D01*
X110806895Y-100765428D01*
X110845600Y-100707371D01*
X110884304Y-100678342D01*
X110961714Y-100649314D01*
X111039123Y-100649314D01*
X111155238Y-100678342D01*
X111619695Y-101026685D01*
X111619695Y-100649314D01*
X113715800Y-96379695D02*
X113715800Y-96960266D01*
X113686771Y-97076380D01*
X113628714Y-97153790D01*
X113541628Y-97192495D01*
X113483571Y-97192495D01*
X114296371Y-96379695D02*
X114006085Y-96379695D01*
X113977057Y-96766742D01*
X114006085Y-96728038D01*
X114064142Y-96689333D01*
X114209285Y-96689333D01*
X114267342Y-96728038D01*
X114296371Y-96766742D01*
X114325400Y-96844152D01*
X114325400Y-97037676D01*
X114296371Y-97115085D01*
X114267342Y-97153790D01*
X114209285Y-97192495D01*
X114064142Y-97192495D01*
X114006085Y-97153790D01*
X113977057Y-97115085D01*
X111495114Y-118578085D02*
X111466085Y-118616790D01*
X111379000Y-118655495D01*
X111320942Y-118655495D01*
X111233857Y-118616790D01*
X111175800Y-118539380D01*
X111146771Y-118461971D01*
X111117742Y-118307152D01*
X111117742Y-118191038D01*
X111146771Y-118036219D01*
X111175800Y-117958809D01*
X111233857Y-117881400D01*
X111320942Y-117842695D01*
X111379000Y-117842695D01*
X111466085Y-117881400D01*
X111495114Y-117920104D01*
X112075685Y-118655495D02*
X111727342Y-118655495D01*
X111901514Y-118655495D02*
X111901514Y-117842695D01*
X111843457Y-117958809D01*
X111785400Y-118036219D01*
X111727342Y-118074923D01*
X112307914Y-117920104D02*
X112336942Y-117881400D01*
X112395000Y-117842695D01*
X112540142Y-117842695D01*
X112598200Y-117881400D01*
X112627228Y-117920104D01*
X112656257Y-117997514D01*
X112656257Y-118074923D01*
X112627228Y-118191038D01*
X112278885Y-118655495D01*
X112656257Y-118655495D01*
X135051800Y-135241695D02*
X135051800Y-135822266D01*
X135022771Y-135938380D01*
X134964714Y-136015790D01*
X134877628Y-136054495D01*
X134819571Y-136054495D01*
X135284028Y-135241695D02*
X135690428Y-135241695D01*
X135429171Y-136054495D01*
X137986104Y-115805857D02*
X137947400Y-115863914D01*
X137869990Y-115921971D01*
X137753876Y-116009057D01*
X137715171Y-116067114D01*
X137715171Y-116125171D01*
X137908695Y-116096142D02*
X137869990Y-116154200D01*
X137792580Y-116212257D01*
X137637761Y-116241285D01*
X137366828Y-116241285D01*
X137212009Y-116212257D01*
X137134600Y-116154200D01*
X137095895Y-116096142D01*
X137095895Y-115980028D01*
X137134600Y-115921971D01*
X137212009Y-115863914D01*
X137366828Y-115834885D01*
X137637761Y-115834885D01*
X137792580Y-115863914D01*
X137869990Y-115921971D01*
X137908695Y-115980028D01*
X137908695Y-116096142D01*
X137908695Y-115254314D02*
X137908695Y-115602657D01*
X137908695Y-115428485D02*
X137095895Y-115428485D01*
X137212009Y-115486542D01*
X137289419Y-115544600D01*
X137328123Y-115602657D01*
X122097195Y-108419900D02*
X121710147Y-108623100D01*
X122097195Y-108768242D02*
X121284395Y-108768242D01*
X121284395Y-108536014D01*
X121323100Y-108477957D01*
X121361804Y-108448928D01*
X121439214Y-108419900D01*
X121555328Y-108419900D01*
X121632738Y-108448928D01*
X121671442Y-108477957D01*
X121710147Y-108536014D01*
X121710147Y-108768242D01*
X121284395Y-107897385D02*
X121284395Y-108013500D01*
X121323100Y-108071557D01*
X121361804Y-108100585D01*
X121477919Y-108158642D01*
X121632738Y-108187671D01*
X121942376Y-108187671D01*
X122019785Y-108158642D01*
X122058490Y-108129614D01*
X122097195Y-108071557D01*
X122097195Y-107955442D01*
X122058490Y-107897385D01*
X122019785Y-107868357D01*
X121942376Y-107839328D01*
X121748852Y-107839328D01*
X121671442Y-107868357D01*
X121632738Y-107897385D01*
X121594033Y-107955442D01*
X121594033Y-108071557D01*
X121632738Y-108129614D01*
X121671442Y-108158642D01*
X121748852Y-108187671D01*
X135752114Y-140499495D02*
X135548914Y-140112447D01*
X135403771Y-140499495D02*
X135403771Y-139686695D01*
X135636000Y-139686695D01*
X135694057Y-139725400D01*
X135723085Y-139764104D01*
X135752114Y-139841514D01*
X135752114Y-139957628D01*
X135723085Y-140035038D01*
X135694057Y-140073742D01*
X135636000Y-140112447D01*
X135403771Y-140112447D01*
X136332685Y-140499495D02*
X135984342Y-140499495D01*
X136158514Y-140499495D02*
X136158514Y-139686695D01*
X136100457Y-139802809D01*
X136042400Y-139880219D01*
X135984342Y-139918923D01*
X136913257Y-140499495D02*
X136564914Y-140499495D01*
X136739085Y-140499495D02*
X136739085Y-139686695D01*
X136681028Y-139802809D01*
X136622971Y-139880219D01*
X136564914Y-139918923D01*
X135752114Y-138848495D02*
X135548914Y-138461447D01*
X135403771Y-138848495D02*
X135403771Y-138035695D01*
X135636000Y-138035695D01*
X135694057Y-138074400D01*
X135723085Y-138113104D01*
X135752114Y-138190514D01*
X135752114Y-138306628D01*
X135723085Y-138384038D01*
X135694057Y-138422742D01*
X135636000Y-138461447D01*
X135403771Y-138461447D01*
X136332685Y-138848495D02*
X135984342Y-138848495D01*
X136158514Y-138848495D02*
X136158514Y-138035695D01*
X136100457Y-138151809D01*
X136042400Y-138229219D01*
X135984342Y-138267923D01*
X136710057Y-138035695D02*
X136768114Y-138035695D01*
X136826171Y-138074400D01*
X136855200Y-138113104D01*
X136884228Y-138190514D01*
X136913257Y-138345333D01*
X136913257Y-138538857D01*
X136884228Y-138693676D01*
X136855200Y-138771085D01*
X136826171Y-138809790D01*
X136768114Y-138848495D01*
X136710057Y-138848495D01*
X136652000Y-138809790D01*
X136622971Y-138771085D01*
X136593942Y-138693676D01*
X136564914Y-138538857D01*
X136564914Y-138345333D01*
X136593942Y-138190514D01*
X136622971Y-138113104D01*
X136652000Y-138074400D01*
X136710057Y-138035695D01*
X117664895Y-128905000D02*
X118245466Y-128905000D01*
X118361580Y-128934028D01*
X118438990Y-128992085D01*
X118477695Y-129079171D01*
X118477695Y-129137228D01*
X118013238Y-128527628D02*
X117974533Y-128585685D01*
X117935828Y-128614714D01*
X117858419Y-128643742D01*
X117819714Y-128643742D01*
X117742304Y-128614714D01*
X117703600Y-128585685D01*
X117664895Y-128527628D01*
X117664895Y-128411514D01*
X117703600Y-128353457D01*
X117742304Y-128324428D01*
X117819714Y-128295400D01*
X117858419Y-128295400D01*
X117935828Y-128324428D01*
X117974533Y-128353457D01*
X118013238Y-128411514D01*
X118013238Y-128527628D01*
X118051942Y-128585685D01*
X118090647Y-128614714D01*
X118168057Y-128643742D01*
X118322876Y-128643742D01*
X118400285Y-128614714D01*
X118438990Y-128585685D01*
X118477695Y-128527628D01*
X118477695Y-128411514D01*
X118438990Y-128353457D01*
X118400285Y-128324428D01*
X118322876Y-128295400D01*
X118168057Y-128295400D01*
X118090647Y-128324428D01*
X118051942Y-128353457D01*
X118013238Y-128411514D01*
X105599895Y-118745000D02*
X106180466Y-118745000D01*
X106296580Y-118774028D01*
X106373990Y-118832085D01*
X106412695Y-118919171D01*
X106412695Y-118977228D01*
X105599895Y-118193457D02*
X105599895Y-118309571D01*
X105638600Y-118367628D01*
X105677304Y-118396657D01*
X105793419Y-118454714D01*
X105948238Y-118483742D01*
X106257876Y-118483742D01*
X106335285Y-118454714D01*
X106373990Y-118425685D01*
X106412695Y-118367628D01*
X106412695Y-118251514D01*
X106373990Y-118193457D01*
X106335285Y-118164428D01*
X106257876Y-118135400D01*
X106064352Y-118135400D01*
X105986942Y-118164428D01*
X105948238Y-118193457D01*
X105909533Y-118251514D01*
X105909533Y-118367628D01*
X105948238Y-118425685D01*
X105986942Y-118454714D01*
X106064352Y-118483742D01*
X128320800Y-118350695D02*
X128320800Y-118931266D01*
X128291771Y-119047380D01*
X128233714Y-119124790D01*
X128146628Y-119163495D01*
X128088571Y-119163495D01*
X128553028Y-118350695D02*
X128930400Y-118350695D01*
X128727200Y-118660333D01*
X128814285Y-118660333D01*
X128872342Y-118699038D01*
X128901371Y-118737742D01*
X128930400Y-118815152D01*
X128930400Y-119008676D01*
X128901371Y-119086085D01*
X128872342Y-119124790D01*
X128814285Y-119163495D01*
X128640114Y-119163495D01*
X128582057Y-119124790D01*
X128553028Y-119086085D01*
X122351800Y-89902695D02*
X122351800Y-90483266D01*
X122322771Y-90599380D01*
X122264714Y-90676790D01*
X122177628Y-90715495D01*
X122119571Y-90715495D01*
X122903342Y-90173628D02*
X122903342Y-90715495D01*
X122758200Y-89863990D02*
X122613057Y-90444561D01*
X122990428Y-90444561D01*
X129598057Y-146595495D02*
X129598057Y-145782695D01*
X129830285Y-145782695D01*
X129888342Y-145821400D01*
X129917371Y-145860104D01*
X129946400Y-145937514D01*
X129946400Y-146053628D01*
X129917371Y-146131038D01*
X129888342Y-146169742D01*
X129830285Y-146208447D01*
X129598057Y-146208447D01*
X130526971Y-146595495D02*
X130178628Y-146595495D01*
X130352800Y-146595495D02*
X130352800Y-145782695D01*
X130294742Y-145898809D01*
X130236685Y-145976219D01*
X130178628Y-146014923D01*
M02*
