G04 #@! TF.GenerationSoftware,KiCad,Pcbnew,(5.1.6)-1*
G04 #@! TF.CreationDate,2021-04-29T20:29:46-05:00*
G04 #@! TF.ProjectId,EncoderBoard3(1),456e636f-6465-4724-926f-617264332831,v1.0*
G04 #@! TF.SameCoordinates,Original*
G04 #@! TF.FileFunction,Copper,L2,Bot*
G04 #@! TF.FilePolarity,Positive*
%FSLAX46Y46*%
G04 Gerber Fmt 4.6, Leading zero omitted, Abs format (unit mm)*
G04 Created by KiCad (PCBNEW (5.1.6)-1) date 2021-04-29 20:29:46*
%MOMM*%
%LPD*%
G01*
G04 APERTURE LIST*
G04 #@! TA.AperFunction,ComponentPad*
%ADD10O,1.950000X1.700000*%
G04 #@! TD*
G04 #@! TA.AperFunction,ComponentPad*
%ADD11C,6.400000*%
G04 #@! TD*
G04 #@! TA.AperFunction,ComponentPad*
%ADD12O,1.700000X1.700000*%
G04 #@! TD*
G04 #@! TA.AperFunction,ComponentPad*
%ADD13R,1.700000X1.700000*%
G04 #@! TD*
G04 #@! TA.AperFunction,ComponentPad*
%ADD14C,1.500000*%
G04 #@! TD*
G04 #@! TA.AperFunction,ComponentPad*
%ADD15O,1.700000X1.950000*%
G04 #@! TD*
G04 #@! TA.AperFunction,ComponentPad*
%ADD16O,2.000000X1.700000*%
G04 #@! TD*
G04 #@! TA.AperFunction,ComponentPad*
%ADD17O,1.050000X2.100000*%
G04 #@! TD*
G04 #@! TA.AperFunction,ViaPad*
%ADD18C,0.450000*%
G04 #@! TD*
G04 #@! TA.AperFunction,ViaPad*
%ADD19C,1.270000*%
G04 #@! TD*
G04 #@! TA.AperFunction,Conductor*
%ADD20C,0.254000*%
G04 #@! TD*
G04 APERTURE END LIST*
G04 #@! TA.AperFunction,ComponentPad*
G36*
G01*
X139853500Y-111390800D02*
X138403500Y-111390800D01*
G75*
G02*
X138153500Y-111140800I0J250000D01*
G01*
X138153500Y-109940800D01*
G75*
G02*
X138403500Y-109690800I250000J0D01*
G01*
X139853500Y-109690800D01*
G75*
G02*
X140103500Y-109940800I0J-250000D01*
G01*
X140103500Y-111140800D01*
G75*
G02*
X139853500Y-111390800I-250000J0D01*
G01*
G37*
G04 #@! TD.AperFunction*
D10*
X139128500Y-108040800D03*
X139128500Y-105540800D03*
X139128500Y-103040800D03*
X139128500Y-100540800D03*
X139128500Y-98040800D03*
X139128500Y-95540800D03*
X139128500Y-93040800D03*
D11*
X124079000Y-142925800D03*
X110109000Y-86029800D03*
X135509000Y-86029800D03*
D12*
X134937500Y-113969800D03*
X132397500Y-113969800D03*
D13*
X129857500Y-113969800D03*
D14*
X130483000Y-94792800D03*
X125603000Y-94792800D03*
D12*
X106553000Y-96824800D03*
X109093000Y-96824800D03*
D13*
X111633000Y-96824800D03*
D15*
X137461000Y-132384800D03*
X134961000Y-132384800D03*
G04 #@! TA.AperFunction,ComponentPad*
G36*
G01*
X131611000Y-133109800D02*
X131611000Y-131659800D01*
G75*
G02*
X131861000Y-131409800I250000J0D01*
G01*
X133061000Y-131409800D01*
G75*
G02*
X133311000Y-131659800I0J-250000D01*
G01*
X133311000Y-133109800D01*
G75*
G02*
X133061000Y-133359800I-250000J0D01*
G01*
X131861000Y-133359800D01*
G75*
G02*
X131611000Y-133109800I0J250000D01*
G01*
G37*
G04 #@! TD.AperFunction*
G04 #@! TA.AperFunction,ComponentPad*
G36*
G01*
X121273000Y-127011800D02*
X119773000Y-127011800D01*
G75*
G02*
X119523000Y-126761800I0J250000D01*
G01*
X119523000Y-125561800D01*
G75*
G02*
X119773000Y-125311800I250000J0D01*
G01*
X121273000Y-125311800D01*
G75*
G02*
X121523000Y-125561800I0J-250000D01*
G01*
X121523000Y-126761800D01*
G75*
G02*
X121273000Y-127011800I-250000J0D01*
G01*
G37*
G04 #@! TD.AperFunction*
D16*
X120523000Y-123661800D03*
G04 #@! TA.AperFunction,ComponentPad*
G36*
G01*
X106717000Y-101435800D02*
X108167000Y-101435800D01*
G75*
G02*
X108417000Y-101685800I0J-250000D01*
G01*
X108417000Y-102885800D01*
G75*
G02*
X108167000Y-103135800I-250000J0D01*
G01*
X106717000Y-103135800D01*
G75*
G02*
X106467000Y-102885800I0J250000D01*
G01*
X106467000Y-101685800D01*
G75*
G02*
X106717000Y-101435800I250000J0D01*
G01*
G37*
G04 #@! TD.AperFunction*
D10*
X107442000Y-104785800D03*
X107442000Y-107285800D03*
X107442000Y-109785800D03*
X107442000Y-112285800D03*
X107442000Y-114785800D03*
G04 #@! TA.AperFunction,ComponentPad*
G36*
G01*
X125818000Y-116546800D02*
X125818000Y-117996800D01*
G75*
G02*
X125568000Y-118246800I-250000J0D01*
G01*
X124368000Y-118246800D01*
G75*
G02*
X124118000Y-117996800I0J250000D01*
G01*
X124118000Y-116546800D01*
G75*
G02*
X124368000Y-116296800I250000J0D01*
G01*
X125568000Y-116296800D01*
G75*
G02*
X125818000Y-116546800I0J-250000D01*
G01*
G37*
G04 #@! TD.AperFunction*
D15*
X122468000Y-117271800D03*
X119968000Y-117271800D03*
X117468000Y-117271800D03*
G04 #@! TA.AperFunction,ComponentPad*
G36*
G01*
X119849000Y-91781800D02*
X119849000Y-93231800D01*
G75*
G02*
X119599000Y-93481800I-250000J0D01*
G01*
X118399000Y-93481800D01*
G75*
G02*
X118149000Y-93231800I0J250000D01*
G01*
X118149000Y-91781800D01*
G75*
G02*
X118399000Y-91531800I250000J0D01*
G01*
X119599000Y-91531800D01*
G75*
G02*
X119849000Y-91781800I0J-250000D01*
G01*
G37*
G04 #@! TD.AperFunction*
X116499000Y-92506800D03*
X113999000Y-92506800D03*
X111499000Y-92506800D03*
D17*
X131951000Y-143317800D03*
X140591000Y-143317800D03*
X131951000Y-147497800D03*
X140591000Y-147497800D03*
D18*
X111633000Y-132003800D03*
X114300000Y-130479800D03*
X114300000Y-131241800D03*
X114300000Y-132003800D03*
X113411000Y-132003800D03*
X113411000Y-131241800D03*
X113411000Y-130479800D03*
X122555000Y-129844800D03*
X108458000Y-132130800D03*
X109601000Y-133908800D03*
X136525000Y-120954800D03*
D19*
X121920000Y-136194800D03*
X113030000Y-137464800D03*
D18*
X109347000Y-135051800D03*
X115189000Y-132003800D03*
X115189000Y-131241800D03*
X115189000Y-130479800D03*
X112522000Y-130479800D03*
X112522000Y-131241800D03*
X112522000Y-132003800D03*
X116078000Y-132003800D03*
X116078000Y-131241800D03*
X116078000Y-130479800D03*
X111633000Y-130479800D03*
X111633000Y-131241800D03*
X110744000Y-130479800D03*
X110744000Y-131241800D03*
X110744000Y-132003800D03*
X125984000Y-112064800D03*
X125984000Y-113588800D03*
X111522000Y-109318300D03*
X116078000Y-113207800D03*
X118479600Y-111060200D03*
X115824000Y-113969800D03*
X134493000Y-111048800D03*
X125025000Y-106787800D03*
X121215500Y-102597300D03*
X123126500Y-98031300D03*
X130111500Y-99872800D03*
X126986000Y-89345800D03*
X129173000Y-89345800D03*
X115062000Y-99174300D03*
X122174000Y-102730300D03*
X109093000Y-118224300D03*
X135636000Y-101777800D03*
X138303000Y-123558300D03*
X123761500Y-109715300D03*
X139521000Y-141072800D03*
X141097000Y-140004800D03*
X133021000Y-141095800D03*
X141097000Y-138353800D03*
X114808000Y-142036800D03*
X105551000Y-89980800D03*
X139573000Y-126669800D03*
X139573000Y-118541800D03*
X131937000Y-101920800D03*
X110617000Y-113969800D03*
X110617000Y-114604800D03*
X133096000Y-97205800D03*
D20*
G36*
X107664330Y-83050961D02*
G01*
X107130161Y-83585130D01*
X106710467Y-84213246D01*
X106421377Y-84911172D01*
X106274000Y-85652085D01*
X106274000Y-86407515D01*
X106421377Y-87148428D01*
X106710467Y-87846354D01*
X107130161Y-88474470D01*
X107664330Y-89008639D01*
X108292446Y-89428333D01*
X108990372Y-89717423D01*
X109731285Y-89864800D01*
X110486715Y-89864800D01*
X111227628Y-89717423D01*
X111925554Y-89428333D01*
X112553670Y-89008639D01*
X113087839Y-88474470D01*
X113507533Y-87846354D01*
X113796623Y-87148428D01*
X113944000Y-86407515D01*
X113944000Y-85652085D01*
X113796623Y-84911172D01*
X113507533Y-84213246D01*
X113087839Y-83585130D01*
X112553670Y-83050961D01*
X112372340Y-82929800D01*
X133245660Y-82929800D01*
X133064330Y-83050961D01*
X132530161Y-83585130D01*
X132110467Y-84213246D01*
X131821377Y-84911172D01*
X131674000Y-85652085D01*
X131674000Y-86407515D01*
X131821377Y-87148428D01*
X132110467Y-87846354D01*
X132530161Y-88474470D01*
X133064330Y-89008639D01*
X133692446Y-89428333D01*
X134390372Y-89717423D01*
X135131285Y-89864800D01*
X135886715Y-89864800D01*
X136627628Y-89717423D01*
X137325554Y-89428333D01*
X137953670Y-89008639D01*
X138487839Y-88474470D01*
X138907533Y-87846354D01*
X139196623Y-87148428D01*
X139344000Y-86407515D01*
X139344000Y-85652085D01*
X139196623Y-84911172D01*
X138907533Y-84213246D01*
X138487839Y-83585130D01*
X137953670Y-83050961D01*
X137772340Y-82929800D01*
X141276000Y-82929800D01*
X141276001Y-141853100D01*
X141129864Y-141757737D01*
X140896810Y-141673836D01*
X140718000Y-141799637D01*
X140718000Y-143190800D01*
X140738000Y-143190800D01*
X140738000Y-143444800D01*
X140718000Y-143444800D01*
X140718000Y-144835963D01*
X140896810Y-144961764D01*
X141129864Y-144877863D01*
X141276001Y-144782499D01*
X141276001Y-146033101D01*
X141129864Y-145937737D01*
X140896810Y-145853836D01*
X140718000Y-145979637D01*
X140718000Y-147370800D01*
X140738000Y-147370800D01*
X140738000Y-147624800D01*
X140718000Y-147624800D01*
X140718000Y-147644800D01*
X140464000Y-147644800D01*
X140464000Y-147624800D01*
X139431000Y-147624800D01*
X139431000Y-148149800D01*
X139478066Y-148373665D01*
X139567901Y-148584046D01*
X139697053Y-148772859D01*
X139860559Y-148932847D01*
X140052136Y-149057863D01*
X140285190Y-149141764D01*
X140290001Y-149138379D01*
X140290001Y-149610000D01*
X132210000Y-149610000D01*
X132210000Y-149108831D01*
X132256810Y-149141764D01*
X132489864Y-149057863D01*
X132681441Y-148932847D01*
X132844947Y-148772859D01*
X132974099Y-148584046D01*
X133063934Y-148373665D01*
X133111000Y-148149800D01*
X133111000Y-147624800D01*
X132078000Y-147624800D01*
X132078000Y-147644800D01*
X131824000Y-147644800D01*
X131824000Y-147624800D01*
X131804000Y-147624800D01*
X131804000Y-147370800D01*
X131824000Y-147370800D01*
X131824000Y-145979637D01*
X132078000Y-145979637D01*
X132078000Y-147370800D01*
X133111000Y-147370800D01*
X133111000Y-146845800D01*
X139431000Y-146845800D01*
X139431000Y-147370800D01*
X140464000Y-147370800D01*
X140464000Y-145979637D01*
X140285190Y-145853836D01*
X140052136Y-145937737D01*
X139860559Y-146062753D01*
X139697053Y-146222741D01*
X139567901Y-146411554D01*
X139478066Y-146621935D01*
X139431000Y-146845800D01*
X133111000Y-146845800D01*
X133063934Y-146621935D01*
X132974099Y-146411554D01*
X132844947Y-146222741D01*
X132681441Y-146062753D01*
X132489864Y-145937737D01*
X132256810Y-145853836D01*
X132078000Y-145979637D01*
X131824000Y-145979637D01*
X131645190Y-145853836D01*
X131412136Y-145937737D01*
X131220559Y-146062753D01*
X131057053Y-146222741D01*
X130927901Y-146411554D01*
X130838792Y-146620234D01*
X130734877Y-146610000D01*
X130700000Y-146606565D01*
X130665123Y-146610000D01*
X125205892Y-146610000D01*
X125895554Y-146324333D01*
X126523670Y-145904639D01*
X127057839Y-145370470D01*
X127477533Y-144742354D01*
X127766623Y-144044428D01*
X127885896Y-143444800D01*
X130791000Y-143444800D01*
X130791000Y-143969800D01*
X130838066Y-144193665D01*
X130927901Y-144404046D01*
X131057053Y-144592859D01*
X131220559Y-144752847D01*
X131412136Y-144877863D01*
X131645190Y-144961764D01*
X131824000Y-144835963D01*
X131824000Y-143444800D01*
X130791000Y-143444800D01*
X127885896Y-143444800D01*
X127914000Y-143303515D01*
X127914000Y-142665800D01*
X130791000Y-142665800D01*
X130791000Y-143190800D01*
X131824000Y-143190800D01*
X131824000Y-141799637D01*
X132078000Y-141799637D01*
X132078000Y-143190800D01*
X132098000Y-143190800D01*
X132098000Y-143444800D01*
X132078000Y-143444800D01*
X132078000Y-144835963D01*
X132256810Y-144961764D01*
X132489864Y-144877863D01*
X132681441Y-144752847D01*
X132795507Y-144641235D01*
X132914428Y-144720696D01*
X133093686Y-144794947D01*
X133283986Y-144832800D01*
X133478014Y-144832800D01*
X133668314Y-144794947D01*
X133847572Y-144720696D01*
X134008901Y-144612899D01*
X134146099Y-144475701D01*
X134253896Y-144314372D01*
X134328147Y-144135114D01*
X134366000Y-143944814D01*
X134366000Y-143750786D01*
X138176000Y-143750786D01*
X138176000Y-143944814D01*
X138213853Y-144135114D01*
X138288104Y-144314372D01*
X138395901Y-144475701D01*
X138533099Y-144612899D01*
X138694428Y-144720696D01*
X138873686Y-144794947D01*
X139063986Y-144832800D01*
X139258014Y-144832800D01*
X139448314Y-144794947D01*
X139627572Y-144720696D01*
X139746493Y-144641235D01*
X139860559Y-144752847D01*
X140052136Y-144877863D01*
X140285190Y-144961764D01*
X140464000Y-144835963D01*
X140464000Y-143444800D01*
X140444000Y-143444800D01*
X140444000Y-143190800D01*
X140464000Y-143190800D01*
X140464000Y-141799637D01*
X140285190Y-141673836D01*
X140052136Y-141757737D01*
X139860559Y-141882753D01*
X139697053Y-142042741D01*
X139567901Y-142231554D01*
X139478066Y-142441935D01*
X139431000Y-142665800D01*
X139431000Y-142897209D01*
X139258014Y-142862800D01*
X139063986Y-142862800D01*
X138873686Y-142900653D01*
X138694428Y-142974904D01*
X138533099Y-143082701D01*
X138395901Y-143219899D01*
X138288104Y-143381228D01*
X138213853Y-143560486D01*
X138176000Y-143750786D01*
X134366000Y-143750786D01*
X134328147Y-143560486D01*
X134253896Y-143381228D01*
X134146099Y-143219899D01*
X134008901Y-143082701D01*
X133847572Y-142974904D01*
X133668314Y-142900653D01*
X133478014Y-142862800D01*
X133283986Y-142862800D01*
X133111000Y-142897209D01*
X133111000Y-142665800D01*
X133063934Y-142441935D01*
X132974099Y-142231554D01*
X132844947Y-142042741D01*
X132681441Y-141882753D01*
X132489864Y-141757737D01*
X132256810Y-141673836D01*
X132078000Y-141799637D01*
X131824000Y-141799637D01*
X131645190Y-141673836D01*
X131412136Y-141757737D01*
X131220559Y-141882753D01*
X131057053Y-142042741D01*
X130927901Y-142231554D01*
X130838066Y-142441935D01*
X130791000Y-142665800D01*
X127914000Y-142665800D01*
X127914000Y-142548085D01*
X127766623Y-141807172D01*
X127477533Y-141109246D01*
X127057839Y-140481130D01*
X126523670Y-139946961D01*
X125895554Y-139527267D01*
X125197628Y-139238177D01*
X124456715Y-139090800D01*
X123701285Y-139090800D01*
X122960372Y-139238177D01*
X122262446Y-139527267D01*
X121634330Y-139946961D01*
X121100161Y-140481130D01*
X120680467Y-141109246D01*
X120391377Y-141807172D01*
X120244000Y-142548085D01*
X120244000Y-143303515D01*
X120391377Y-144044428D01*
X120680467Y-144742354D01*
X121100161Y-145370470D01*
X121634330Y-145904639D01*
X122262446Y-146324333D01*
X122952108Y-146610000D01*
X104850000Y-146610000D01*
X104850000Y-131659800D01*
X130972928Y-131659800D01*
X130972928Y-133109800D01*
X130989992Y-133283054D01*
X131040528Y-133449650D01*
X131122595Y-133603186D01*
X131233038Y-133737762D01*
X131367614Y-133848205D01*
X131521150Y-133930272D01*
X131687746Y-133980808D01*
X131861000Y-133997872D01*
X133061000Y-133997872D01*
X133234254Y-133980808D01*
X133400850Y-133930272D01*
X133554386Y-133848205D01*
X133688962Y-133737762D01*
X133799405Y-133603186D01*
X133853777Y-133501463D01*
X133905866Y-133564934D01*
X134131987Y-133750506D01*
X134389967Y-133888399D01*
X134669890Y-133973313D01*
X134961000Y-134001985D01*
X135252111Y-133973313D01*
X135532034Y-133888399D01*
X135790014Y-133750506D01*
X136016134Y-133564934D01*
X136201706Y-133338814D01*
X136215462Y-133313078D01*
X136371951Y-133519229D01*
X136589807Y-133712296D01*
X136841142Y-133859152D01*
X137104110Y-133951276D01*
X137334000Y-133829955D01*
X137334000Y-132511800D01*
X137588000Y-132511800D01*
X137588000Y-133829955D01*
X137817890Y-133951276D01*
X138080858Y-133859152D01*
X138332193Y-133712296D01*
X138550049Y-133519229D01*
X138726053Y-133287370D01*
X138853442Y-133025630D01*
X138927320Y-132744067D01*
X138787165Y-132511800D01*
X137588000Y-132511800D01*
X137334000Y-132511800D01*
X137314000Y-132511800D01*
X137314000Y-132257800D01*
X137334000Y-132257800D01*
X137334000Y-130939645D01*
X137588000Y-130939645D01*
X137588000Y-132257800D01*
X138787165Y-132257800D01*
X138927320Y-132025533D01*
X138853442Y-131743970D01*
X138726053Y-131482230D01*
X138550049Y-131250371D01*
X138332193Y-131057304D01*
X138080858Y-130910448D01*
X137817890Y-130818324D01*
X137588000Y-130939645D01*
X137334000Y-130939645D01*
X137104110Y-130818324D01*
X136841142Y-130910448D01*
X136589807Y-131057304D01*
X136371951Y-131250371D01*
X136215462Y-131456522D01*
X136201706Y-131430786D01*
X136016134Y-131204666D01*
X135790013Y-131019094D01*
X135532033Y-130881201D01*
X135252110Y-130796287D01*
X134961000Y-130767615D01*
X134669889Y-130796287D01*
X134389966Y-130881201D01*
X134131986Y-131019094D01*
X133905866Y-131204666D01*
X133853777Y-131268137D01*
X133799405Y-131166414D01*
X133688962Y-131031838D01*
X133554386Y-130921395D01*
X133400850Y-130839328D01*
X133234254Y-130788792D01*
X133061000Y-130771728D01*
X131861000Y-130771728D01*
X131687746Y-130788792D01*
X131521150Y-130839328D01*
X131367614Y-130921395D01*
X131233038Y-131031838D01*
X131122595Y-131166414D01*
X131040528Y-131319950D01*
X130989992Y-131486546D01*
X130972928Y-131659800D01*
X104850000Y-131659800D01*
X104850000Y-123661800D01*
X118880815Y-123661800D01*
X118909487Y-123952911D01*
X118994401Y-124232834D01*
X119132294Y-124490814D01*
X119317866Y-124716934D01*
X119381337Y-124769023D01*
X119279614Y-124823395D01*
X119145038Y-124933838D01*
X119034595Y-125068414D01*
X118952528Y-125221950D01*
X118901992Y-125388546D01*
X118884928Y-125561800D01*
X118884928Y-126761800D01*
X118901992Y-126935054D01*
X118952528Y-127101650D01*
X119034595Y-127255186D01*
X119145038Y-127389762D01*
X119279614Y-127500205D01*
X119433150Y-127582272D01*
X119599746Y-127632808D01*
X119773000Y-127649872D01*
X121273000Y-127649872D01*
X121446254Y-127632808D01*
X121612850Y-127582272D01*
X121766386Y-127500205D01*
X121900962Y-127389762D01*
X122011405Y-127255186D01*
X122093472Y-127101650D01*
X122144008Y-126935054D01*
X122161072Y-126761800D01*
X122161072Y-125561800D01*
X122144008Y-125388546D01*
X122093472Y-125221950D01*
X122011405Y-125068414D01*
X121900962Y-124933838D01*
X121766386Y-124823395D01*
X121664663Y-124769023D01*
X121728134Y-124716934D01*
X121913706Y-124490814D01*
X122051599Y-124232834D01*
X122136513Y-123952911D01*
X122165185Y-123661800D01*
X122136513Y-123370689D01*
X122051599Y-123090766D01*
X121913706Y-122832786D01*
X121728134Y-122606666D01*
X121502014Y-122421094D01*
X121244034Y-122283201D01*
X120964111Y-122198287D01*
X120745950Y-122176800D01*
X120300050Y-122176800D01*
X120081889Y-122198287D01*
X119801966Y-122283201D01*
X119543986Y-122421094D01*
X119317866Y-122606666D01*
X119132294Y-122832786D01*
X118994401Y-123090766D01*
X118909487Y-123370689D01*
X118880815Y-123661800D01*
X104850000Y-123661800D01*
X104850000Y-117073850D01*
X115983000Y-117073850D01*
X115983000Y-117469749D01*
X116004487Y-117687910D01*
X116089401Y-117967833D01*
X116227294Y-118225813D01*
X116412866Y-118451934D01*
X116638986Y-118637506D01*
X116896966Y-118775399D01*
X117176889Y-118860313D01*
X117468000Y-118888985D01*
X117759110Y-118860313D01*
X118039033Y-118775399D01*
X118297013Y-118637506D01*
X118523134Y-118451934D01*
X118708706Y-118225814D01*
X118722462Y-118200078D01*
X118878951Y-118406229D01*
X119096807Y-118599296D01*
X119348142Y-118746152D01*
X119611110Y-118838276D01*
X119841000Y-118716955D01*
X119841000Y-117398800D01*
X119821000Y-117398800D01*
X119821000Y-117144800D01*
X119841000Y-117144800D01*
X119841000Y-115826645D01*
X120095000Y-115826645D01*
X120095000Y-117144800D01*
X120115000Y-117144800D01*
X120115000Y-117398800D01*
X120095000Y-117398800D01*
X120095000Y-118716955D01*
X120324890Y-118838276D01*
X120587858Y-118746152D01*
X120839193Y-118599296D01*
X121057049Y-118406229D01*
X121213538Y-118200078D01*
X121227294Y-118225813D01*
X121412866Y-118451934D01*
X121638986Y-118637506D01*
X121896966Y-118775399D01*
X122176889Y-118860313D01*
X122468000Y-118888985D01*
X122759110Y-118860313D01*
X123039033Y-118775399D01*
X123297013Y-118637506D01*
X123523134Y-118451934D01*
X123575223Y-118388463D01*
X123629595Y-118490186D01*
X123740038Y-118624762D01*
X123874614Y-118735205D01*
X124028150Y-118817272D01*
X124194746Y-118867808D01*
X124368000Y-118884872D01*
X125568000Y-118884872D01*
X125741254Y-118867808D01*
X125907850Y-118817272D01*
X126061386Y-118735205D01*
X126195962Y-118624762D01*
X126306405Y-118490186D01*
X126388472Y-118336650D01*
X126439008Y-118170054D01*
X126456072Y-117996800D01*
X126456072Y-116546800D01*
X126439008Y-116373546D01*
X126388472Y-116206950D01*
X126306405Y-116053414D01*
X126195962Y-115918838D01*
X126061386Y-115808395D01*
X125907850Y-115726328D01*
X125741254Y-115675792D01*
X125568000Y-115658728D01*
X124368000Y-115658728D01*
X124194746Y-115675792D01*
X124028150Y-115726328D01*
X123874614Y-115808395D01*
X123740038Y-115918838D01*
X123629595Y-116053414D01*
X123575223Y-116155137D01*
X123523134Y-116091666D01*
X123297014Y-115906094D01*
X123039034Y-115768201D01*
X122759111Y-115683287D01*
X122468000Y-115654615D01*
X122176890Y-115683287D01*
X121896967Y-115768201D01*
X121638987Y-115906094D01*
X121412866Y-116091666D01*
X121227294Y-116317786D01*
X121213538Y-116343522D01*
X121057049Y-116137371D01*
X120839193Y-115944304D01*
X120587858Y-115797448D01*
X120324890Y-115705324D01*
X120095000Y-115826645D01*
X119841000Y-115826645D01*
X119611110Y-115705324D01*
X119348142Y-115797448D01*
X119096807Y-115944304D01*
X118878951Y-116137371D01*
X118722462Y-116343522D01*
X118708706Y-116317786D01*
X118523134Y-116091666D01*
X118297014Y-115906094D01*
X118039034Y-115768201D01*
X117759111Y-115683287D01*
X117468000Y-115654615D01*
X117176890Y-115683287D01*
X116896967Y-115768201D01*
X116638987Y-115906094D01*
X116412866Y-116091666D01*
X116227294Y-116317786D01*
X116089401Y-116575766D01*
X116004487Y-116855689D01*
X115983000Y-117073850D01*
X104850000Y-117073850D01*
X104850000Y-115142690D01*
X105875524Y-115142690D01*
X105967648Y-115405658D01*
X106114504Y-115656993D01*
X106307571Y-115874849D01*
X106539430Y-116050853D01*
X106801170Y-116178242D01*
X107082733Y-116252120D01*
X107315000Y-116111965D01*
X107315000Y-114912800D01*
X107569000Y-114912800D01*
X107569000Y-116111965D01*
X107801267Y-116252120D01*
X108082830Y-116178242D01*
X108344570Y-116050853D01*
X108576429Y-115874849D01*
X108769496Y-115656993D01*
X108916352Y-115405658D01*
X109008476Y-115142690D01*
X108887155Y-114912800D01*
X107569000Y-114912800D01*
X107315000Y-114912800D01*
X105996845Y-114912800D01*
X105875524Y-115142690D01*
X104850000Y-115142690D01*
X104850000Y-104785800D01*
X105824815Y-104785800D01*
X105853487Y-105076911D01*
X105938401Y-105356834D01*
X106076294Y-105614814D01*
X106261866Y-105840934D01*
X106487986Y-106026506D01*
X106505374Y-106035800D01*
X106487986Y-106045094D01*
X106261866Y-106230666D01*
X106076294Y-106456786D01*
X105938401Y-106714766D01*
X105853487Y-106994689D01*
X105824815Y-107285800D01*
X105853487Y-107576911D01*
X105938401Y-107856834D01*
X106076294Y-108114814D01*
X106261866Y-108340934D01*
X106487986Y-108526506D01*
X106505374Y-108535800D01*
X106487986Y-108545094D01*
X106261866Y-108730666D01*
X106076294Y-108956786D01*
X105938401Y-109214766D01*
X105853487Y-109494689D01*
X105824815Y-109785800D01*
X105853487Y-110076911D01*
X105938401Y-110356834D01*
X106076294Y-110614814D01*
X106261866Y-110840934D01*
X106487986Y-111026506D01*
X106505374Y-111035800D01*
X106487986Y-111045094D01*
X106261866Y-111230666D01*
X106076294Y-111456786D01*
X105938401Y-111714766D01*
X105853487Y-111994689D01*
X105824815Y-112285800D01*
X105853487Y-112576911D01*
X105938401Y-112856834D01*
X106076294Y-113114814D01*
X106261866Y-113340934D01*
X106487986Y-113526506D01*
X106513722Y-113540262D01*
X106307571Y-113696751D01*
X106114504Y-113914607D01*
X105967648Y-114165942D01*
X105875524Y-114428910D01*
X105996845Y-114658800D01*
X107315000Y-114658800D01*
X107315000Y-114638800D01*
X107569000Y-114638800D01*
X107569000Y-114658800D01*
X108887155Y-114658800D01*
X109008476Y-114428910D01*
X108916352Y-114165942D01*
X108769496Y-113914607D01*
X108576429Y-113696751D01*
X108370278Y-113540262D01*
X108396014Y-113526506D01*
X108622134Y-113340934D01*
X108803614Y-113119800D01*
X128369428Y-113119800D01*
X128369428Y-114819800D01*
X128381688Y-114944282D01*
X128417998Y-115063980D01*
X128476963Y-115174294D01*
X128556315Y-115270985D01*
X128653006Y-115350337D01*
X128763320Y-115409302D01*
X128883018Y-115445612D01*
X129007500Y-115457872D01*
X130707500Y-115457872D01*
X130831982Y-115445612D01*
X130951680Y-115409302D01*
X131061994Y-115350337D01*
X131158685Y-115270985D01*
X131238037Y-115174294D01*
X131297002Y-115063980D01*
X131319013Y-114991420D01*
X131450868Y-115123275D01*
X131694089Y-115285790D01*
X131964342Y-115397732D01*
X132251240Y-115454800D01*
X132543760Y-115454800D01*
X132830658Y-115397732D01*
X133100911Y-115285790D01*
X133344132Y-115123275D01*
X133550975Y-114916432D01*
X133672695Y-114734266D01*
X133742322Y-114851155D01*
X133937231Y-115067388D01*
X134170580Y-115241441D01*
X134433401Y-115366625D01*
X134580610Y-115411276D01*
X134810500Y-115289955D01*
X134810500Y-114096800D01*
X135064500Y-114096800D01*
X135064500Y-115289955D01*
X135294390Y-115411276D01*
X135441599Y-115366625D01*
X135704420Y-115241441D01*
X135937769Y-115067388D01*
X136132678Y-114851155D01*
X136281657Y-114601052D01*
X136378981Y-114326691D01*
X136258314Y-114096800D01*
X135064500Y-114096800D01*
X134810500Y-114096800D01*
X134790500Y-114096800D01*
X134790500Y-113842800D01*
X134810500Y-113842800D01*
X134810500Y-112649645D01*
X135064500Y-112649645D01*
X135064500Y-113842800D01*
X136258314Y-113842800D01*
X136378981Y-113612909D01*
X136281657Y-113338548D01*
X136132678Y-113088445D01*
X135937769Y-112872212D01*
X135704420Y-112698159D01*
X135441599Y-112572975D01*
X135294390Y-112528324D01*
X135064500Y-112649645D01*
X134810500Y-112649645D01*
X134580610Y-112528324D01*
X134433401Y-112572975D01*
X134170580Y-112698159D01*
X133937231Y-112872212D01*
X133742322Y-113088445D01*
X133672695Y-113205334D01*
X133550975Y-113023168D01*
X133344132Y-112816325D01*
X133100911Y-112653810D01*
X132830658Y-112541868D01*
X132543760Y-112484800D01*
X132251240Y-112484800D01*
X131964342Y-112541868D01*
X131694089Y-112653810D01*
X131450868Y-112816325D01*
X131319013Y-112948180D01*
X131297002Y-112875620D01*
X131238037Y-112765306D01*
X131158685Y-112668615D01*
X131061994Y-112589263D01*
X130951680Y-112530298D01*
X130831982Y-112493988D01*
X130707500Y-112481728D01*
X129007500Y-112481728D01*
X128883018Y-112493988D01*
X128763320Y-112530298D01*
X128653006Y-112589263D01*
X128556315Y-112668615D01*
X128476963Y-112765306D01*
X128417998Y-112875620D01*
X128381688Y-112995318D01*
X128369428Y-113119800D01*
X108803614Y-113119800D01*
X108807706Y-113114814D01*
X108945599Y-112856834D01*
X109030513Y-112576911D01*
X109059185Y-112285800D01*
X109030513Y-111994689D01*
X108945599Y-111714766D01*
X108807706Y-111456786D01*
X108622134Y-111230666D01*
X108396014Y-111045094D01*
X108378626Y-111035800D01*
X108396014Y-111026506D01*
X108622134Y-110840934D01*
X108807706Y-110614814D01*
X108945599Y-110356834D01*
X109030513Y-110076911D01*
X109059185Y-109785800D01*
X109030513Y-109494689D01*
X108945599Y-109214766D01*
X108807706Y-108956786D01*
X108622134Y-108730666D01*
X108396014Y-108545094D01*
X108378626Y-108535800D01*
X108396014Y-108526506D01*
X108622134Y-108340934D01*
X108807706Y-108114814D01*
X108847267Y-108040800D01*
X137511315Y-108040800D01*
X137539987Y-108331911D01*
X137624901Y-108611834D01*
X137762794Y-108869814D01*
X137948366Y-109095934D01*
X138011837Y-109148023D01*
X137910114Y-109202395D01*
X137775538Y-109312838D01*
X137665095Y-109447414D01*
X137583028Y-109600950D01*
X137532492Y-109767546D01*
X137515428Y-109940800D01*
X137515428Y-111140800D01*
X137532492Y-111314054D01*
X137583028Y-111480650D01*
X137665095Y-111634186D01*
X137775538Y-111768762D01*
X137910114Y-111879205D01*
X138063650Y-111961272D01*
X138230246Y-112011808D01*
X138403500Y-112028872D01*
X139853500Y-112028872D01*
X140026754Y-112011808D01*
X140193350Y-111961272D01*
X140346886Y-111879205D01*
X140481462Y-111768762D01*
X140591905Y-111634186D01*
X140673972Y-111480650D01*
X140724508Y-111314054D01*
X140741572Y-111140800D01*
X140741572Y-109940800D01*
X140724508Y-109767546D01*
X140673972Y-109600950D01*
X140591905Y-109447414D01*
X140481462Y-109312838D01*
X140346886Y-109202395D01*
X140245163Y-109148023D01*
X140308634Y-109095934D01*
X140494206Y-108869814D01*
X140632099Y-108611834D01*
X140717013Y-108331911D01*
X140745685Y-108040800D01*
X140717013Y-107749689D01*
X140632099Y-107469766D01*
X140494206Y-107211786D01*
X140308634Y-106985666D01*
X140082514Y-106800094D01*
X140056778Y-106786338D01*
X140262929Y-106629849D01*
X140455996Y-106411993D01*
X140602852Y-106160658D01*
X140694976Y-105897690D01*
X140573655Y-105667800D01*
X139255500Y-105667800D01*
X139255500Y-105687800D01*
X139001500Y-105687800D01*
X139001500Y-105667800D01*
X137683345Y-105667800D01*
X137562024Y-105897690D01*
X137654148Y-106160658D01*
X137801004Y-106411993D01*
X137994071Y-106629849D01*
X138200222Y-106786338D01*
X138174486Y-106800094D01*
X137948366Y-106985666D01*
X137762794Y-107211786D01*
X137624901Y-107469766D01*
X137539987Y-107749689D01*
X137511315Y-108040800D01*
X108847267Y-108040800D01*
X108945599Y-107856834D01*
X109030513Y-107576911D01*
X109059185Y-107285800D01*
X109030513Y-106994689D01*
X108945599Y-106714766D01*
X108807706Y-106456786D01*
X108622134Y-106230666D01*
X108396014Y-106045094D01*
X108378626Y-106035800D01*
X108396014Y-106026506D01*
X108622134Y-105840934D01*
X108807706Y-105614814D01*
X108945599Y-105356834D01*
X109030513Y-105076911D01*
X109059185Y-104785800D01*
X109030513Y-104494689D01*
X108945599Y-104214766D01*
X108807706Y-103956786D01*
X108622134Y-103730666D01*
X108558663Y-103678577D01*
X108660386Y-103624205D01*
X108794962Y-103513762D01*
X108905405Y-103379186D01*
X108987472Y-103225650D01*
X109038008Y-103059054D01*
X109055072Y-102885800D01*
X109055072Y-101685800D01*
X109038008Y-101512546D01*
X108987472Y-101345950D01*
X108905405Y-101192414D01*
X108794962Y-101057838D01*
X108660386Y-100947395D01*
X108506850Y-100865328D01*
X108340254Y-100814792D01*
X108167000Y-100797728D01*
X106717000Y-100797728D01*
X106543746Y-100814792D01*
X106377150Y-100865328D01*
X106223614Y-100947395D01*
X106089038Y-101057838D01*
X105978595Y-101192414D01*
X105896528Y-101345950D01*
X105845992Y-101512546D01*
X105828928Y-101685800D01*
X105828928Y-102885800D01*
X105845992Y-103059054D01*
X105896528Y-103225650D01*
X105978595Y-103379186D01*
X106089038Y-103513762D01*
X106223614Y-103624205D01*
X106325337Y-103678577D01*
X106261866Y-103730666D01*
X106076294Y-103956786D01*
X105938401Y-104214766D01*
X105853487Y-104494689D01*
X105824815Y-104785800D01*
X104850000Y-104785800D01*
X104850000Y-97181691D01*
X105111519Y-97181691D01*
X105208843Y-97456052D01*
X105357822Y-97706155D01*
X105552731Y-97922388D01*
X105786080Y-98096441D01*
X106048901Y-98221625D01*
X106196110Y-98266276D01*
X106426000Y-98144955D01*
X106426000Y-96951800D01*
X105232186Y-96951800D01*
X105111519Y-97181691D01*
X104850000Y-97181691D01*
X104850000Y-96467909D01*
X105111519Y-96467909D01*
X105232186Y-96697800D01*
X106426000Y-96697800D01*
X106426000Y-95504645D01*
X106680000Y-95504645D01*
X106680000Y-96697800D01*
X106700000Y-96697800D01*
X106700000Y-96951800D01*
X106680000Y-96951800D01*
X106680000Y-98144955D01*
X106909890Y-98266276D01*
X107057099Y-98221625D01*
X107319920Y-98096441D01*
X107553269Y-97922388D01*
X107748178Y-97706155D01*
X107817805Y-97589266D01*
X107939525Y-97771432D01*
X108146368Y-97978275D01*
X108389589Y-98140790D01*
X108659842Y-98252732D01*
X108946740Y-98309800D01*
X109239260Y-98309800D01*
X109526158Y-98252732D01*
X109796411Y-98140790D01*
X110039632Y-97978275D01*
X110171487Y-97846420D01*
X110193498Y-97918980D01*
X110252463Y-98029294D01*
X110331815Y-98125985D01*
X110428506Y-98205337D01*
X110538820Y-98264302D01*
X110658518Y-98300612D01*
X110783000Y-98312872D01*
X112483000Y-98312872D01*
X112607482Y-98300612D01*
X112727180Y-98264302D01*
X112837494Y-98205337D01*
X112934185Y-98125985D01*
X113004094Y-98040800D01*
X137511315Y-98040800D01*
X137539987Y-98331911D01*
X137624901Y-98611834D01*
X137762794Y-98869814D01*
X137948366Y-99095934D01*
X138174486Y-99281506D01*
X138191874Y-99290800D01*
X138174486Y-99300094D01*
X137948366Y-99485666D01*
X137762794Y-99711786D01*
X137624901Y-99969766D01*
X137539987Y-100249689D01*
X137511315Y-100540800D01*
X137539987Y-100831911D01*
X137624901Y-101111834D01*
X137762794Y-101369814D01*
X137948366Y-101595934D01*
X138174486Y-101781506D01*
X138191874Y-101790800D01*
X138174486Y-101800094D01*
X137948366Y-101985666D01*
X137762794Y-102211786D01*
X137624901Y-102469766D01*
X137539987Y-102749689D01*
X137511315Y-103040800D01*
X137539987Y-103331911D01*
X137624901Y-103611834D01*
X137762794Y-103869814D01*
X137948366Y-104095934D01*
X138174486Y-104281506D01*
X138200222Y-104295262D01*
X137994071Y-104451751D01*
X137801004Y-104669607D01*
X137654148Y-104920942D01*
X137562024Y-105183910D01*
X137683345Y-105413800D01*
X139001500Y-105413800D01*
X139001500Y-105393800D01*
X139255500Y-105393800D01*
X139255500Y-105413800D01*
X140573655Y-105413800D01*
X140694976Y-105183910D01*
X140602852Y-104920942D01*
X140455996Y-104669607D01*
X140262929Y-104451751D01*
X140056778Y-104295262D01*
X140082514Y-104281506D01*
X140308634Y-104095934D01*
X140494206Y-103869814D01*
X140632099Y-103611834D01*
X140717013Y-103331911D01*
X140745685Y-103040800D01*
X140717013Y-102749689D01*
X140632099Y-102469766D01*
X140494206Y-102211786D01*
X140308634Y-101985666D01*
X140082514Y-101800094D01*
X140065126Y-101790800D01*
X140082514Y-101781506D01*
X140308634Y-101595934D01*
X140494206Y-101369814D01*
X140632099Y-101111834D01*
X140717013Y-100831911D01*
X140745685Y-100540800D01*
X140717013Y-100249689D01*
X140632099Y-99969766D01*
X140494206Y-99711786D01*
X140308634Y-99485666D01*
X140082514Y-99300094D01*
X140065126Y-99290800D01*
X140082514Y-99281506D01*
X140308634Y-99095934D01*
X140494206Y-98869814D01*
X140632099Y-98611834D01*
X140717013Y-98331911D01*
X140745685Y-98040800D01*
X140717013Y-97749689D01*
X140632099Y-97469766D01*
X140494206Y-97211786D01*
X140308634Y-96985666D01*
X140082514Y-96800094D01*
X140056778Y-96786338D01*
X140262929Y-96629849D01*
X140455996Y-96411993D01*
X140602852Y-96160658D01*
X140694976Y-95897690D01*
X140573655Y-95667800D01*
X139255500Y-95667800D01*
X139255500Y-95687800D01*
X139001500Y-95687800D01*
X139001500Y-95667800D01*
X137683345Y-95667800D01*
X137562024Y-95897690D01*
X137654148Y-96160658D01*
X137801004Y-96411993D01*
X137994071Y-96629849D01*
X138200222Y-96786338D01*
X138174486Y-96800094D01*
X137948366Y-96985666D01*
X137762794Y-97211786D01*
X137624901Y-97469766D01*
X137539987Y-97749689D01*
X137511315Y-98040800D01*
X113004094Y-98040800D01*
X113013537Y-98029294D01*
X113072502Y-97918980D01*
X113108812Y-97799282D01*
X113121072Y-97674800D01*
X113121072Y-95974800D01*
X113108812Y-95850318D01*
X113072502Y-95730620D01*
X113013537Y-95620306D01*
X112934185Y-95523615D01*
X112837494Y-95444263D01*
X112727180Y-95385298D01*
X112607482Y-95348988D01*
X112483000Y-95336728D01*
X110783000Y-95336728D01*
X110658518Y-95348988D01*
X110538820Y-95385298D01*
X110428506Y-95444263D01*
X110331815Y-95523615D01*
X110252463Y-95620306D01*
X110193498Y-95730620D01*
X110171487Y-95803180D01*
X110039632Y-95671325D01*
X109796411Y-95508810D01*
X109526158Y-95396868D01*
X109239260Y-95339800D01*
X108946740Y-95339800D01*
X108659842Y-95396868D01*
X108389589Y-95508810D01*
X108146368Y-95671325D01*
X107939525Y-95878168D01*
X107817805Y-96060334D01*
X107748178Y-95943445D01*
X107553269Y-95727212D01*
X107319920Y-95553159D01*
X107057099Y-95427975D01*
X106909890Y-95383324D01*
X106680000Y-95504645D01*
X106426000Y-95504645D01*
X106196110Y-95383324D01*
X106048901Y-95427975D01*
X105786080Y-95553159D01*
X105552731Y-95727212D01*
X105357822Y-95943445D01*
X105208843Y-96193548D01*
X105111519Y-96467909D01*
X104850000Y-96467909D01*
X104850000Y-94656389D01*
X124218000Y-94656389D01*
X124218000Y-94929211D01*
X124271225Y-95196789D01*
X124375629Y-95448843D01*
X124527201Y-95675686D01*
X124720114Y-95868599D01*
X124946957Y-96020171D01*
X125199011Y-96124575D01*
X125466589Y-96177800D01*
X125739411Y-96177800D01*
X126006989Y-96124575D01*
X126259043Y-96020171D01*
X126485886Y-95868599D01*
X126678799Y-95675686D01*
X126830371Y-95448843D01*
X126934775Y-95196789D01*
X126988000Y-94929211D01*
X126988000Y-94656389D01*
X129098000Y-94656389D01*
X129098000Y-94929211D01*
X129151225Y-95196789D01*
X129255629Y-95448843D01*
X129407201Y-95675686D01*
X129600114Y-95868599D01*
X129826957Y-96020171D01*
X130079011Y-96124575D01*
X130346589Y-96177800D01*
X130619411Y-96177800D01*
X130886989Y-96124575D01*
X131139043Y-96020171D01*
X131365886Y-95868599D01*
X131558799Y-95675686D01*
X131710371Y-95448843D01*
X131814775Y-95196789D01*
X131868000Y-94929211D01*
X131868000Y-94656389D01*
X131814775Y-94388811D01*
X131710371Y-94136757D01*
X131558799Y-93909914D01*
X131365886Y-93717001D01*
X131139043Y-93565429D01*
X130886989Y-93461025D01*
X130619411Y-93407800D01*
X130346589Y-93407800D01*
X130079011Y-93461025D01*
X129826957Y-93565429D01*
X129600114Y-93717001D01*
X129407201Y-93909914D01*
X129255629Y-94136757D01*
X129151225Y-94388811D01*
X129098000Y-94656389D01*
X126988000Y-94656389D01*
X126934775Y-94388811D01*
X126830371Y-94136757D01*
X126678799Y-93909914D01*
X126485886Y-93717001D01*
X126259043Y-93565429D01*
X126006989Y-93461025D01*
X125739411Y-93407800D01*
X125466589Y-93407800D01*
X125199011Y-93461025D01*
X124946957Y-93565429D01*
X124720114Y-93717001D01*
X124527201Y-93909914D01*
X124375629Y-94136757D01*
X124271225Y-94388811D01*
X124218000Y-94656389D01*
X104850000Y-94656389D01*
X104850000Y-92866067D01*
X110032680Y-92866067D01*
X110106558Y-93147630D01*
X110233947Y-93409370D01*
X110409951Y-93641229D01*
X110627807Y-93834296D01*
X110879142Y-93981152D01*
X111142110Y-94073276D01*
X111372000Y-93951955D01*
X111372000Y-92633800D01*
X110172835Y-92633800D01*
X110032680Y-92866067D01*
X104850000Y-92866067D01*
X104850000Y-92147533D01*
X110032680Y-92147533D01*
X110172835Y-92379800D01*
X111372000Y-92379800D01*
X111372000Y-91061645D01*
X111626000Y-91061645D01*
X111626000Y-92379800D01*
X111646000Y-92379800D01*
X111646000Y-92633800D01*
X111626000Y-92633800D01*
X111626000Y-93951955D01*
X111855890Y-94073276D01*
X112118858Y-93981152D01*
X112370193Y-93834296D01*
X112588049Y-93641229D01*
X112744538Y-93435078D01*
X112758294Y-93460813D01*
X112943866Y-93686934D01*
X113169986Y-93872506D01*
X113427966Y-94010399D01*
X113707889Y-94095313D01*
X113999000Y-94123985D01*
X114290110Y-94095313D01*
X114570033Y-94010399D01*
X114828013Y-93872506D01*
X115054134Y-93686934D01*
X115239706Y-93460814D01*
X115249000Y-93443426D01*
X115258294Y-93460813D01*
X115443866Y-93686934D01*
X115669986Y-93872506D01*
X115927966Y-94010399D01*
X116207889Y-94095313D01*
X116499000Y-94123985D01*
X116790110Y-94095313D01*
X117070033Y-94010399D01*
X117328013Y-93872506D01*
X117554134Y-93686934D01*
X117606223Y-93623463D01*
X117660595Y-93725186D01*
X117771038Y-93859762D01*
X117905614Y-93970205D01*
X118059150Y-94052272D01*
X118225746Y-94102808D01*
X118399000Y-94119872D01*
X119599000Y-94119872D01*
X119772254Y-94102808D01*
X119938850Y-94052272D01*
X120092386Y-93970205D01*
X120226962Y-93859762D01*
X120337405Y-93725186D01*
X120419472Y-93571650D01*
X120470008Y-93405054D01*
X120487072Y-93231800D01*
X120487072Y-93040800D01*
X137511315Y-93040800D01*
X137539987Y-93331911D01*
X137624901Y-93611834D01*
X137762794Y-93869814D01*
X137948366Y-94095934D01*
X138174486Y-94281506D01*
X138200222Y-94295262D01*
X137994071Y-94451751D01*
X137801004Y-94669607D01*
X137654148Y-94920942D01*
X137562024Y-95183910D01*
X137683345Y-95413800D01*
X139001500Y-95413800D01*
X139001500Y-95393800D01*
X139255500Y-95393800D01*
X139255500Y-95413800D01*
X140573655Y-95413800D01*
X140694976Y-95183910D01*
X140602852Y-94920942D01*
X140455996Y-94669607D01*
X140262929Y-94451751D01*
X140056778Y-94295262D01*
X140082514Y-94281506D01*
X140308634Y-94095934D01*
X140494206Y-93869814D01*
X140632099Y-93611834D01*
X140717013Y-93331911D01*
X140745685Y-93040800D01*
X140717013Y-92749689D01*
X140632099Y-92469766D01*
X140494206Y-92211786D01*
X140308634Y-91985666D01*
X140082514Y-91800094D01*
X139824534Y-91662201D01*
X139544611Y-91577287D01*
X139326450Y-91555800D01*
X138930550Y-91555800D01*
X138712389Y-91577287D01*
X138432466Y-91662201D01*
X138174486Y-91800094D01*
X137948366Y-91985666D01*
X137762794Y-92211786D01*
X137624901Y-92469766D01*
X137539987Y-92749689D01*
X137511315Y-93040800D01*
X120487072Y-93040800D01*
X120487072Y-91781800D01*
X120470008Y-91608546D01*
X120419472Y-91441950D01*
X120337405Y-91288414D01*
X120226962Y-91153838D01*
X120092386Y-91043395D01*
X119938850Y-90961328D01*
X119772254Y-90910792D01*
X119599000Y-90893728D01*
X118399000Y-90893728D01*
X118225746Y-90910792D01*
X118059150Y-90961328D01*
X117905614Y-91043395D01*
X117771038Y-91153838D01*
X117660595Y-91288414D01*
X117606223Y-91390137D01*
X117554134Y-91326666D01*
X117328014Y-91141094D01*
X117070034Y-91003201D01*
X116790111Y-90918287D01*
X116499000Y-90889615D01*
X116207890Y-90918287D01*
X115927967Y-91003201D01*
X115669987Y-91141094D01*
X115443866Y-91326666D01*
X115258294Y-91552786D01*
X115249000Y-91570174D01*
X115239706Y-91552786D01*
X115054134Y-91326666D01*
X114828014Y-91141094D01*
X114570034Y-91003201D01*
X114290111Y-90918287D01*
X113999000Y-90889615D01*
X113707890Y-90918287D01*
X113427967Y-91003201D01*
X113169987Y-91141094D01*
X112943866Y-91326666D01*
X112758294Y-91552786D01*
X112744538Y-91578522D01*
X112588049Y-91372371D01*
X112370193Y-91179304D01*
X112118858Y-91032448D01*
X111855890Y-90940324D01*
X111626000Y-91061645D01*
X111372000Y-91061645D01*
X111142110Y-90940324D01*
X110879142Y-91032448D01*
X110627807Y-91179304D01*
X110409951Y-91372371D01*
X110233947Y-91604230D01*
X110106558Y-91865970D01*
X110032680Y-92147533D01*
X104850000Y-92147533D01*
X104850000Y-82929800D01*
X107845660Y-82929800D01*
X107664330Y-83050961D01*
G37*
X107664330Y-83050961D02*
X107130161Y-83585130D01*
X106710467Y-84213246D01*
X106421377Y-84911172D01*
X106274000Y-85652085D01*
X106274000Y-86407515D01*
X106421377Y-87148428D01*
X106710467Y-87846354D01*
X107130161Y-88474470D01*
X107664330Y-89008639D01*
X108292446Y-89428333D01*
X108990372Y-89717423D01*
X109731285Y-89864800D01*
X110486715Y-89864800D01*
X111227628Y-89717423D01*
X111925554Y-89428333D01*
X112553670Y-89008639D01*
X113087839Y-88474470D01*
X113507533Y-87846354D01*
X113796623Y-87148428D01*
X113944000Y-86407515D01*
X113944000Y-85652085D01*
X113796623Y-84911172D01*
X113507533Y-84213246D01*
X113087839Y-83585130D01*
X112553670Y-83050961D01*
X112372340Y-82929800D01*
X133245660Y-82929800D01*
X133064330Y-83050961D01*
X132530161Y-83585130D01*
X132110467Y-84213246D01*
X131821377Y-84911172D01*
X131674000Y-85652085D01*
X131674000Y-86407515D01*
X131821377Y-87148428D01*
X132110467Y-87846354D01*
X132530161Y-88474470D01*
X133064330Y-89008639D01*
X133692446Y-89428333D01*
X134390372Y-89717423D01*
X135131285Y-89864800D01*
X135886715Y-89864800D01*
X136627628Y-89717423D01*
X137325554Y-89428333D01*
X137953670Y-89008639D01*
X138487839Y-88474470D01*
X138907533Y-87846354D01*
X139196623Y-87148428D01*
X139344000Y-86407515D01*
X139344000Y-85652085D01*
X139196623Y-84911172D01*
X138907533Y-84213246D01*
X138487839Y-83585130D01*
X137953670Y-83050961D01*
X137772340Y-82929800D01*
X141276000Y-82929800D01*
X141276001Y-141853100D01*
X141129864Y-141757737D01*
X140896810Y-141673836D01*
X140718000Y-141799637D01*
X140718000Y-143190800D01*
X140738000Y-143190800D01*
X140738000Y-143444800D01*
X140718000Y-143444800D01*
X140718000Y-144835963D01*
X140896810Y-144961764D01*
X141129864Y-144877863D01*
X141276001Y-144782499D01*
X141276001Y-146033101D01*
X141129864Y-145937737D01*
X140896810Y-145853836D01*
X140718000Y-145979637D01*
X140718000Y-147370800D01*
X140738000Y-147370800D01*
X140738000Y-147624800D01*
X140718000Y-147624800D01*
X140718000Y-147644800D01*
X140464000Y-147644800D01*
X140464000Y-147624800D01*
X139431000Y-147624800D01*
X139431000Y-148149800D01*
X139478066Y-148373665D01*
X139567901Y-148584046D01*
X139697053Y-148772859D01*
X139860559Y-148932847D01*
X140052136Y-149057863D01*
X140285190Y-149141764D01*
X140290001Y-149138379D01*
X140290001Y-149610000D01*
X132210000Y-149610000D01*
X132210000Y-149108831D01*
X132256810Y-149141764D01*
X132489864Y-149057863D01*
X132681441Y-148932847D01*
X132844947Y-148772859D01*
X132974099Y-148584046D01*
X133063934Y-148373665D01*
X133111000Y-148149800D01*
X133111000Y-147624800D01*
X132078000Y-147624800D01*
X132078000Y-147644800D01*
X131824000Y-147644800D01*
X131824000Y-147624800D01*
X131804000Y-147624800D01*
X131804000Y-147370800D01*
X131824000Y-147370800D01*
X131824000Y-145979637D01*
X132078000Y-145979637D01*
X132078000Y-147370800D01*
X133111000Y-147370800D01*
X133111000Y-146845800D01*
X139431000Y-146845800D01*
X139431000Y-147370800D01*
X140464000Y-147370800D01*
X140464000Y-145979637D01*
X140285190Y-145853836D01*
X140052136Y-145937737D01*
X139860559Y-146062753D01*
X139697053Y-146222741D01*
X139567901Y-146411554D01*
X139478066Y-146621935D01*
X139431000Y-146845800D01*
X133111000Y-146845800D01*
X133063934Y-146621935D01*
X132974099Y-146411554D01*
X132844947Y-146222741D01*
X132681441Y-146062753D01*
X132489864Y-145937737D01*
X132256810Y-145853836D01*
X132078000Y-145979637D01*
X131824000Y-145979637D01*
X131645190Y-145853836D01*
X131412136Y-145937737D01*
X131220559Y-146062753D01*
X131057053Y-146222741D01*
X130927901Y-146411554D01*
X130838792Y-146620234D01*
X130734877Y-146610000D01*
X130700000Y-146606565D01*
X130665123Y-146610000D01*
X125205892Y-146610000D01*
X125895554Y-146324333D01*
X126523670Y-145904639D01*
X127057839Y-145370470D01*
X127477533Y-144742354D01*
X127766623Y-144044428D01*
X127885896Y-143444800D01*
X130791000Y-143444800D01*
X130791000Y-143969800D01*
X130838066Y-144193665D01*
X130927901Y-144404046D01*
X131057053Y-144592859D01*
X131220559Y-144752847D01*
X131412136Y-144877863D01*
X131645190Y-144961764D01*
X131824000Y-144835963D01*
X131824000Y-143444800D01*
X130791000Y-143444800D01*
X127885896Y-143444800D01*
X127914000Y-143303515D01*
X127914000Y-142665800D01*
X130791000Y-142665800D01*
X130791000Y-143190800D01*
X131824000Y-143190800D01*
X131824000Y-141799637D01*
X132078000Y-141799637D01*
X132078000Y-143190800D01*
X132098000Y-143190800D01*
X132098000Y-143444800D01*
X132078000Y-143444800D01*
X132078000Y-144835963D01*
X132256810Y-144961764D01*
X132489864Y-144877863D01*
X132681441Y-144752847D01*
X132795507Y-144641235D01*
X132914428Y-144720696D01*
X133093686Y-144794947D01*
X133283986Y-144832800D01*
X133478014Y-144832800D01*
X133668314Y-144794947D01*
X133847572Y-144720696D01*
X134008901Y-144612899D01*
X134146099Y-144475701D01*
X134253896Y-144314372D01*
X134328147Y-144135114D01*
X134366000Y-143944814D01*
X134366000Y-143750786D01*
X138176000Y-143750786D01*
X138176000Y-143944814D01*
X138213853Y-144135114D01*
X138288104Y-144314372D01*
X138395901Y-144475701D01*
X138533099Y-144612899D01*
X138694428Y-144720696D01*
X138873686Y-144794947D01*
X139063986Y-144832800D01*
X139258014Y-144832800D01*
X139448314Y-144794947D01*
X139627572Y-144720696D01*
X139746493Y-144641235D01*
X139860559Y-144752847D01*
X140052136Y-144877863D01*
X140285190Y-144961764D01*
X140464000Y-144835963D01*
X140464000Y-143444800D01*
X140444000Y-143444800D01*
X140444000Y-143190800D01*
X140464000Y-143190800D01*
X140464000Y-141799637D01*
X140285190Y-141673836D01*
X140052136Y-141757737D01*
X139860559Y-141882753D01*
X139697053Y-142042741D01*
X139567901Y-142231554D01*
X139478066Y-142441935D01*
X139431000Y-142665800D01*
X139431000Y-142897209D01*
X139258014Y-142862800D01*
X139063986Y-142862800D01*
X138873686Y-142900653D01*
X138694428Y-142974904D01*
X138533099Y-143082701D01*
X138395901Y-143219899D01*
X138288104Y-143381228D01*
X138213853Y-143560486D01*
X138176000Y-143750786D01*
X134366000Y-143750786D01*
X134328147Y-143560486D01*
X134253896Y-143381228D01*
X134146099Y-143219899D01*
X134008901Y-143082701D01*
X133847572Y-142974904D01*
X133668314Y-142900653D01*
X133478014Y-142862800D01*
X133283986Y-142862800D01*
X133111000Y-142897209D01*
X133111000Y-142665800D01*
X133063934Y-142441935D01*
X132974099Y-142231554D01*
X132844947Y-142042741D01*
X132681441Y-141882753D01*
X132489864Y-141757737D01*
X132256810Y-141673836D01*
X132078000Y-141799637D01*
X131824000Y-141799637D01*
X131645190Y-141673836D01*
X131412136Y-141757737D01*
X131220559Y-141882753D01*
X131057053Y-142042741D01*
X130927901Y-142231554D01*
X130838066Y-142441935D01*
X130791000Y-142665800D01*
X127914000Y-142665800D01*
X127914000Y-142548085D01*
X127766623Y-141807172D01*
X127477533Y-141109246D01*
X127057839Y-140481130D01*
X126523670Y-139946961D01*
X125895554Y-139527267D01*
X125197628Y-139238177D01*
X124456715Y-139090800D01*
X123701285Y-139090800D01*
X122960372Y-139238177D01*
X122262446Y-139527267D01*
X121634330Y-139946961D01*
X121100161Y-140481130D01*
X120680467Y-141109246D01*
X120391377Y-141807172D01*
X120244000Y-142548085D01*
X120244000Y-143303515D01*
X120391377Y-144044428D01*
X120680467Y-144742354D01*
X121100161Y-145370470D01*
X121634330Y-145904639D01*
X122262446Y-146324333D01*
X122952108Y-146610000D01*
X104850000Y-146610000D01*
X104850000Y-131659800D01*
X130972928Y-131659800D01*
X130972928Y-133109800D01*
X130989992Y-133283054D01*
X131040528Y-133449650D01*
X131122595Y-133603186D01*
X131233038Y-133737762D01*
X131367614Y-133848205D01*
X131521150Y-133930272D01*
X131687746Y-133980808D01*
X131861000Y-133997872D01*
X133061000Y-133997872D01*
X133234254Y-133980808D01*
X133400850Y-133930272D01*
X133554386Y-133848205D01*
X133688962Y-133737762D01*
X133799405Y-133603186D01*
X133853777Y-133501463D01*
X133905866Y-133564934D01*
X134131987Y-133750506D01*
X134389967Y-133888399D01*
X134669890Y-133973313D01*
X134961000Y-134001985D01*
X135252111Y-133973313D01*
X135532034Y-133888399D01*
X135790014Y-133750506D01*
X136016134Y-133564934D01*
X136201706Y-133338814D01*
X136215462Y-133313078D01*
X136371951Y-133519229D01*
X136589807Y-133712296D01*
X136841142Y-133859152D01*
X137104110Y-133951276D01*
X137334000Y-133829955D01*
X137334000Y-132511800D01*
X137588000Y-132511800D01*
X137588000Y-133829955D01*
X137817890Y-133951276D01*
X138080858Y-133859152D01*
X138332193Y-133712296D01*
X138550049Y-133519229D01*
X138726053Y-133287370D01*
X138853442Y-133025630D01*
X138927320Y-132744067D01*
X138787165Y-132511800D01*
X137588000Y-132511800D01*
X137334000Y-132511800D01*
X137314000Y-132511800D01*
X137314000Y-132257800D01*
X137334000Y-132257800D01*
X137334000Y-130939645D01*
X137588000Y-130939645D01*
X137588000Y-132257800D01*
X138787165Y-132257800D01*
X138927320Y-132025533D01*
X138853442Y-131743970D01*
X138726053Y-131482230D01*
X138550049Y-131250371D01*
X138332193Y-131057304D01*
X138080858Y-130910448D01*
X137817890Y-130818324D01*
X137588000Y-130939645D01*
X137334000Y-130939645D01*
X137104110Y-130818324D01*
X136841142Y-130910448D01*
X136589807Y-131057304D01*
X136371951Y-131250371D01*
X136215462Y-131456522D01*
X136201706Y-131430786D01*
X136016134Y-131204666D01*
X135790013Y-131019094D01*
X135532033Y-130881201D01*
X135252110Y-130796287D01*
X134961000Y-130767615D01*
X134669889Y-130796287D01*
X134389966Y-130881201D01*
X134131986Y-131019094D01*
X133905866Y-131204666D01*
X133853777Y-131268137D01*
X133799405Y-131166414D01*
X133688962Y-131031838D01*
X133554386Y-130921395D01*
X133400850Y-130839328D01*
X133234254Y-130788792D01*
X133061000Y-130771728D01*
X131861000Y-130771728D01*
X131687746Y-130788792D01*
X131521150Y-130839328D01*
X131367614Y-130921395D01*
X131233038Y-131031838D01*
X131122595Y-131166414D01*
X131040528Y-131319950D01*
X130989992Y-131486546D01*
X130972928Y-131659800D01*
X104850000Y-131659800D01*
X104850000Y-123661800D01*
X118880815Y-123661800D01*
X118909487Y-123952911D01*
X118994401Y-124232834D01*
X119132294Y-124490814D01*
X119317866Y-124716934D01*
X119381337Y-124769023D01*
X119279614Y-124823395D01*
X119145038Y-124933838D01*
X119034595Y-125068414D01*
X118952528Y-125221950D01*
X118901992Y-125388546D01*
X118884928Y-125561800D01*
X118884928Y-126761800D01*
X118901992Y-126935054D01*
X118952528Y-127101650D01*
X119034595Y-127255186D01*
X119145038Y-127389762D01*
X119279614Y-127500205D01*
X119433150Y-127582272D01*
X119599746Y-127632808D01*
X119773000Y-127649872D01*
X121273000Y-127649872D01*
X121446254Y-127632808D01*
X121612850Y-127582272D01*
X121766386Y-127500205D01*
X121900962Y-127389762D01*
X122011405Y-127255186D01*
X122093472Y-127101650D01*
X122144008Y-126935054D01*
X122161072Y-126761800D01*
X122161072Y-125561800D01*
X122144008Y-125388546D01*
X122093472Y-125221950D01*
X122011405Y-125068414D01*
X121900962Y-124933838D01*
X121766386Y-124823395D01*
X121664663Y-124769023D01*
X121728134Y-124716934D01*
X121913706Y-124490814D01*
X122051599Y-124232834D01*
X122136513Y-123952911D01*
X122165185Y-123661800D01*
X122136513Y-123370689D01*
X122051599Y-123090766D01*
X121913706Y-122832786D01*
X121728134Y-122606666D01*
X121502014Y-122421094D01*
X121244034Y-122283201D01*
X120964111Y-122198287D01*
X120745950Y-122176800D01*
X120300050Y-122176800D01*
X120081889Y-122198287D01*
X119801966Y-122283201D01*
X119543986Y-122421094D01*
X119317866Y-122606666D01*
X119132294Y-122832786D01*
X118994401Y-123090766D01*
X118909487Y-123370689D01*
X118880815Y-123661800D01*
X104850000Y-123661800D01*
X104850000Y-117073850D01*
X115983000Y-117073850D01*
X115983000Y-117469749D01*
X116004487Y-117687910D01*
X116089401Y-117967833D01*
X116227294Y-118225813D01*
X116412866Y-118451934D01*
X116638986Y-118637506D01*
X116896966Y-118775399D01*
X117176889Y-118860313D01*
X117468000Y-118888985D01*
X117759110Y-118860313D01*
X118039033Y-118775399D01*
X118297013Y-118637506D01*
X118523134Y-118451934D01*
X118708706Y-118225814D01*
X118722462Y-118200078D01*
X118878951Y-118406229D01*
X119096807Y-118599296D01*
X119348142Y-118746152D01*
X119611110Y-118838276D01*
X119841000Y-118716955D01*
X119841000Y-117398800D01*
X119821000Y-117398800D01*
X119821000Y-117144800D01*
X119841000Y-117144800D01*
X119841000Y-115826645D01*
X120095000Y-115826645D01*
X120095000Y-117144800D01*
X120115000Y-117144800D01*
X120115000Y-117398800D01*
X120095000Y-117398800D01*
X120095000Y-118716955D01*
X120324890Y-118838276D01*
X120587858Y-118746152D01*
X120839193Y-118599296D01*
X121057049Y-118406229D01*
X121213538Y-118200078D01*
X121227294Y-118225813D01*
X121412866Y-118451934D01*
X121638986Y-118637506D01*
X121896966Y-118775399D01*
X122176889Y-118860313D01*
X122468000Y-118888985D01*
X122759110Y-118860313D01*
X123039033Y-118775399D01*
X123297013Y-118637506D01*
X123523134Y-118451934D01*
X123575223Y-118388463D01*
X123629595Y-118490186D01*
X123740038Y-118624762D01*
X123874614Y-118735205D01*
X124028150Y-118817272D01*
X124194746Y-118867808D01*
X124368000Y-118884872D01*
X125568000Y-118884872D01*
X125741254Y-118867808D01*
X125907850Y-118817272D01*
X126061386Y-118735205D01*
X126195962Y-118624762D01*
X126306405Y-118490186D01*
X126388472Y-118336650D01*
X126439008Y-118170054D01*
X126456072Y-117996800D01*
X126456072Y-116546800D01*
X126439008Y-116373546D01*
X126388472Y-116206950D01*
X126306405Y-116053414D01*
X126195962Y-115918838D01*
X126061386Y-115808395D01*
X125907850Y-115726328D01*
X125741254Y-115675792D01*
X125568000Y-115658728D01*
X124368000Y-115658728D01*
X124194746Y-115675792D01*
X124028150Y-115726328D01*
X123874614Y-115808395D01*
X123740038Y-115918838D01*
X123629595Y-116053414D01*
X123575223Y-116155137D01*
X123523134Y-116091666D01*
X123297014Y-115906094D01*
X123039034Y-115768201D01*
X122759111Y-115683287D01*
X122468000Y-115654615D01*
X122176890Y-115683287D01*
X121896967Y-115768201D01*
X121638987Y-115906094D01*
X121412866Y-116091666D01*
X121227294Y-116317786D01*
X121213538Y-116343522D01*
X121057049Y-116137371D01*
X120839193Y-115944304D01*
X120587858Y-115797448D01*
X120324890Y-115705324D01*
X120095000Y-115826645D01*
X119841000Y-115826645D01*
X119611110Y-115705324D01*
X119348142Y-115797448D01*
X119096807Y-115944304D01*
X118878951Y-116137371D01*
X118722462Y-116343522D01*
X118708706Y-116317786D01*
X118523134Y-116091666D01*
X118297014Y-115906094D01*
X118039034Y-115768201D01*
X117759111Y-115683287D01*
X117468000Y-115654615D01*
X117176890Y-115683287D01*
X116896967Y-115768201D01*
X116638987Y-115906094D01*
X116412866Y-116091666D01*
X116227294Y-116317786D01*
X116089401Y-116575766D01*
X116004487Y-116855689D01*
X115983000Y-117073850D01*
X104850000Y-117073850D01*
X104850000Y-115142690D01*
X105875524Y-115142690D01*
X105967648Y-115405658D01*
X106114504Y-115656993D01*
X106307571Y-115874849D01*
X106539430Y-116050853D01*
X106801170Y-116178242D01*
X107082733Y-116252120D01*
X107315000Y-116111965D01*
X107315000Y-114912800D01*
X107569000Y-114912800D01*
X107569000Y-116111965D01*
X107801267Y-116252120D01*
X108082830Y-116178242D01*
X108344570Y-116050853D01*
X108576429Y-115874849D01*
X108769496Y-115656993D01*
X108916352Y-115405658D01*
X109008476Y-115142690D01*
X108887155Y-114912800D01*
X107569000Y-114912800D01*
X107315000Y-114912800D01*
X105996845Y-114912800D01*
X105875524Y-115142690D01*
X104850000Y-115142690D01*
X104850000Y-104785800D01*
X105824815Y-104785800D01*
X105853487Y-105076911D01*
X105938401Y-105356834D01*
X106076294Y-105614814D01*
X106261866Y-105840934D01*
X106487986Y-106026506D01*
X106505374Y-106035800D01*
X106487986Y-106045094D01*
X106261866Y-106230666D01*
X106076294Y-106456786D01*
X105938401Y-106714766D01*
X105853487Y-106994689D01*
X105824815Y-107285800D01*
X105853487Y-107576911D01*
X105938401Y-107856834D01*
X106076294Y-108114814D01*
X106261866Y-108340934D01*
X106487986Y-108526506D01*
X106505374Y-108535800D01*
X106487986Y-108545094D01*
X106261866Y-108730666D01*
X106076294Y-108956786D01*
X105938401Y-109214766D01*
X105853487Y-109494689D01*
X105824815Y-109785800D01*
X105853487Y-110076911D01*
X105938401Y-110356834D01*
X106076294Y-110614814D01*
X106261866Y-110840934D01*
X106487986Y-111026506D01*
X106505374Y-111035800D01*
X106487986Y-111045094D01*
X106261866Y-111230666D01*
X106076294Y-111456786D01*
X105938401Y-111714766D01*
X105853487Y-111994689D01*
X105824815Y-112285800D01*
X105853487Y-112576911D01*
X105938401Y-112856834D01*
X106076294Y-113114814D01*
X106261866Y-113340934D01*
X106487986Y-113526506D01*
X106513722Y-113540262D01*
X106307571Y-113696751D01*
X106114504Y-113914607D01*
X105967648Y-114165942D01*
X105875524Y-114428910D01*
X105996845Y-114658800D01*
X107315000Y-114658800D01*
X107315000Y-114638800D01*
X107569000Y-114638800D01*
X107569000Y-114658800D01*
X108887155Y-114658800D01*
X109008476Y-114428910D01*
X108916352Y-114165942D01*
X108769496Y-113914607D01*
X108576429Y-113696751D01*
X108370278Y-113540262D01*
X108396014Y-113526506D01*
X108622134Y-113340934D01*
X108803614Y-113119800D01*
X128369428Y-113119800D01*
X128369428Y-114819800D01*
X128381688Y-114944282D01*
X128417998Y-115063980D01*
X128476963Y-115174294D01*
X128556315Y-115270985D01*
X128653006Y-115350337D01*
X128763320Y-115409302D01*
X128883018Y-115445612D01*
X129007500Y-115457872D01*
X130707500Y-115457872D01*
X130831982Y-115445612D01*
X130951680Y-115409302D01*
X131061994Y-115350337D01*
X131158685Y-115270985D01*
X131238037Y-115174294D01*
X131297002Y-115063980D01*
X131319013Y-114991420D01*
X131450868Y-115123275D01*
X131694089Y-115285790D01*
X131964342Y-115397732D01*
X132251240Y-115454800D01*
X132543760Y-115454800D01*
X132830658Y-115397732D01*
X133100911Y-115285790D01*
X133344132Y-115123275D01*
X133550975Y-114916432D01*
X133672695Y-114734266D01*
X133742322Y-114851155D01*
X133937231Y-115067388D01*
X134170580Y-115241441D01*
X134433401Y-115366625D01*
X134580610Y-115411276D01*
X134810500Y-115289955D01*
X134810500Y-114096800D01*
X135064500Y-114096800D01*
X135064500Y-115289955D01*
X135294390Y-115411276D01*
X135441599Y-115366625D01*
X135704420Y-115241441D01*
X135937769Y-115067388D01*
X136132678Y-114851155D01*
X136281657Y-114601052D01*
X136378981Y-114326691D01*
X136258314Y-114096800D01*
X135064500Y-114096800D01*
X134810500Y-114096800D01*
X134790500Y-114096800D01*
X134790500Y-113842800D01*
X134810500Y-113842800D01*
X134810500Y-112649645D01*
X135064500Y-112649645D01*
X135064500Y-113842800D01*
X136258314Y-113842800D01*
X136378981Y-113612909D01*
X136281657Y-113338548D01*
X136132678Y-113088445D01*
X135937769Y-112872212D01*
X135704420Y-112698159D01*
X135441599Y-112572975D01*
X135294390Y-112528324D01*
X135064500Y-112649645D01*
X134810500Y-112649645D01*
X134580610Y-112528324D01*
X134433401Y-112572975D01*
X134170580Y-112698159D01*
X133937231Y-112872212D01*
X133742322Y-113088445D01*
X133672695Y-113205334D01*
X133550975Y-113023168D01*
X133344132Y-112816325D01*
X133100911Y-112653810D01*
X132830658Y-112541868D01*
X132543760Y-112484800D01*
X132251240Y-112484800D01*
X131964342Y-112541868D01*
X131694089Y-112653810D01*
X131450868Y-112816325D01*
X131319013Y-112948180D01*
X131297002Y-112875620D01*
X131238037Y-112765306D01*
X131158685Y-112668615D01*
X131061994Y-112589263D01*
X130951680Y-112530298D01*
X130831982Y-112493988D01*
X130707500Y-112481728D01*
X129007500Y-112481728D01*
X128883018Y-112493988D01*
X128763320Y-112530298D01*
X128653006Y-112589263D01*
X128556315Y-112668615D01*
X128476963Y-112765306D01*
X128417998Y-112875620D01*
X128381688Y-112995318D01*
X128369428Y-113119800D01*
X108803614Y-113119800D01*
X108807706Y-113114814D01*
X108945599Y-112856834D01*
X109030513Y-112576911D01*
X109059185Y-112285800D01*
X109030513Y-111994689D01*
X108945599Y-111714766D01*
X108807706Y-111456786D01*
X108622134Y-111230666D01*
X108396014Y-111045094D01*
X108378626Y-111035800D01*
X108396014Y-111026506D01*
X108622134Y-110840934D01*
X108807706Y-110614814D01*
X108945599Y-110356834D01*
X109030513Y-110076911D01*
X109059185Y-109785800D01*
X109030513Y-109494689D01*
X108945599Y-109214766D01*
X108807706Y-108956786D01*
X108622134Y-108730666D01*
X108396014Y-108545094D01*
X108378626Y-108535800D01*
X108396014Y-108526506D01*
X108622134Y-108340934D01*
X108807706Y-108114814D01*
X108847267Y-108040800D01*
X137511315Y-108040800D01*
X137539987Y-108331911D01*
X137624901Y-108611834D01*
X137762794Y-108869814D01*
X137948366Y-109095934D01*
X138011837Y-109148023D01*
X137910114Y-109202395D01*
X137775538Y-109312838D01*
X137665095Y-109447414D01*
X137583028Y-109600950D01*
X137532492Y-109767546D01*
X137515428Y-109940800D01*
X137515428Y-111140800D01*
X137532492Y-111314054D01*
X137583028Y-111480650D01*
X137665095Y-111634186D01*
X137775538Y-111768762D01*
X137910114Y-111879205D01*
X138063650Y-111961272D01*
X138230246Y-112011808D01*
X138403500Y-112028872D01*
X139853500Y-112028872D01*
X140026754Y-112011808D01*
X140193350Y-111961272D01*
X140346886Y-111879205D01*
X140481462Y-111768762D01*
X140591905Y-111634186D01*
X140673972Y-111480650D01*
X140724508Y-111314054D01*
X140741572Y-111140800D01*
X140741572Y-109940800D01*
X140724508Y-109767546D01*
X140673972Y-109600950D01*
X140591905Y-109447414D01*
X140481462Y-109312838D01*
X140346886Y-109202395D01*
X140245163Y-109148023D01*
X140308634Y-109095934D01*
X140494206Y-108869814D01*
X140632099Y-108611834D01*
X140717013Y-108331911D01*
X140745685Y-108040800D01*
X140717013Y-107749689D01*
X140632099Y-107469766D01*
X140494206Y-107211786D01*
X140308634Y-106985666D01*
X140082514Y-106800094D01*
X140056778Y-106786338D01*
X140262929Y-106629849D01*
X140455996Y-106411993D01*
X140602852Y-106160658D01*
X140694976Y-105897690D01*
X140573655Y-105667800D01*
X139255500Y-105667800D01*
X139255500Y-105687800D01*
X139001500Y-105687800D01*
X139001500Y-105667800D01*
X137683345Y-105667800D01*
X137562024Y-105897690D01*
X137654148Y-106160658D01*
X137801004Y-106411993D01*
X137994071Y-106629849D01*
X138200222Y-106786338D01*
X138174486Y-106800094D01*
X137948366Y-106985666D01*
X137762794Y-107211786D01*
X137624901Y-107469766D01*
X137539987Y-107749689D01*
X137511315Y-108040800D01*
X108847267Y-108040800D01*
X108945599Y-107856834D01*
X109030513Y-107576911D01*
X109059185Y-107285800D01*
X109030513Y-106994689D01*
X108945599Y-106714766D01*
X108807706Y-106456786D01*
X108622134Y-106230666D01*
X108396014Y-106045094D01*
X108378626Y-106035800D01*
X108396014Y-106026506D01*
X108622134Y-105840934D01*
X108807706Y-105614814D01*
X108945599Y-105356834D01*
X109030513Y-105076911D01*
X109059185Y-104785800D01*
X109030513Y-104494689D01*
X108945599Y-104214766D01*
X108807706Y-103956786D01*
X108622134Y-103730666D01*
X108558663Y-103678577D01*
X108660386Y-103624205D01*
X108794962Y-103513762D01*
X108905405Y-103379186D01*
X108987472Y-103225650D01*
X109038008Y-103059054D01*
X109055072Y-102885800D01*
X109055072Y-101685800D01*
X109038008Y-101512546D01*
X108987472Y-101345950D01*
X108905405Y-101192414D01*
X108794962Y-101057838D01*
X108660386Y-100947395D01*
X108506850Y-100865328D01*
X108340254Y-100814792D01*
X108167000Y-100797728D01*
X106717000Y-100797728D01*
X106543746Y-100814792D01*
X106377150Y-100865328D01*
X106223614Y-100947395D01*
X106089038Y-101057838D01*
X105978595Y-101192414D01*
X105896528Y-101345950D01*
X105845992Y-101512546D01*
X105828928Y-101685800D01*
X105828928Y-102885800D01*
X105845992Y-103059054D01*
X105896528Y-103225650D01*
X105978595Y-103379186D01*
X106089038Y-103513762D01*
X106223614Y-103624205D01*
X106325337Y-103678577D01*
X106261866Y-103730666D01*
X106076294Y-103956786D01*
X105938401Y-104214766D01*
X105853487Y-104494689D01*
X105824815Y-104785800D01*
X104850000Y-104785800D01*
X104850000Y-97181691D01*
X105111519Y-97181691D01*
X105208843Y-97456052D01*
X105357822Y-97706155D01*
X105552731Y-97922388D01*
X105786080Y-98096441D01*
X106048901Y-98221625D01*
X106196110Y-98266276D01*
X106426000Y-98144955D01*
X106426000Y-96951800D01*
X105232186Y-96951800D01*
X105111519Y-97181691D01*
X104850000Y-97181691D01*
X104850000Y-96467909D01*
X105111519Y-96467909D01*
X105232186Y-96697800D01*
X106426000Y-96697800D01*
X106426000Y-95504645D01*
X106680000Y-95504645D01*
X106680000Y-96697800D01*
X106700000Y-96697800D01*
X106700000Y-96951800D01*
X106680000Y-96951800D01*
X106680000Y-98144955D01*
X106909890Y-98266276D01*
X107057099Y-98221625D01*
X107319920Y-98096441D01*
X107553269Y-97922388D01*
X107748178Y-97706155D01*
X107817805Y-97589266D01*
X107939525Y-97771432D01*
X108146368Y-97978275D01*
X108389589Y-98140790D01*
X108659842Y-98252732D01*
X108946740Y-98309800D01*
X109239260Y-98309800D01*
X109526158Y-98252732D01*
X109796411Y-98140790D01*
X110039632Y-97978275D01*
X110171487Y-97846420D01*
X110193498Y-97918980D01*
X110252463Y-98029294D01*
X110331815Y-98125985D01*
X110428506Y-98205337D01*
X110538820Y-98264302D01*
X110658518Y-98300612D01*
X110783000Y-98312872D01*
X112483000Y-98312872D01*
X112607482Y-98300612D01*
X112727180Y-98264302D01*
X112837494Y-98205337D01*
X112934185Y-98125985D01*
X113004094Y-98040800D01*
X137511315Y-98040800D01*
X137539987Y-98331911D01*
X137624901Y-98611834D01*
X137762794Y-98869814D01*
X137948366Y-99095934D01*
X138174486Y-99281506D01*
X138191874Y-99290800D01*
X138174486Y-99300094D01*
X137948366Y-99485666D01*
X137762794Y-99711786D01*
X137624901Y-99969766D01*
X137539987Y-100249689D01*
X137511315Y-100540800D01*
X137539987Y-100831911D01*
X137624901Y-101111834D01*
X137762794Y-101369814D01*
X137948366Y-101595934D01*
X138174486Y-101781506D01*
X138191874Y-101790800D01*
X138174486Y-101800094D01*
X137948366Y-101985666D01*
X137762794Y-102211786D01*
X137624901Y-102469766D01*
X137539987Y-102749689D01*
X137511315Y-103040800D01*
X137539987Y-103331911D01*
X137624901Y-103611834D01*
X137762794Y-103869814D01*
X137948366Y-104095934D01*
X138174486Y-104281506D01*
X138200222Y-104295262D01*
X137994071Y-104451751D01*
X137801004Y-104669607D01*
X137654148Y-104920942D01*
X137562024Y-105183910D01*
X137683345Y-105413800D01*
X139001500Y-105413800D01*
X139001500Y-105393800D01*
X139255500Y-105393800D01*
X139255500Y-105413800D01*
X140573655Y-105413800D01*
X140694976Y-105183910D01*
X140602852Y-104920942D01*
X140455996Y-104669607D01*
X140262929Y-104451751D01*
X140056778Y-104295262D01*
X140082514Y-104281506D01*
X140308634Y-104095934D01*
X140494206Y-103869814D01*
X140632099Y-103611834D01*
X140717013Y-103331911D01*
X140745685Y-103040800D01*
X140717013Y-102749689D01*
X140632099Y-102469766D01*
X140494206Y-102211786D01*
X140308634Y-101985666D01*
X140082514Y-101800094D01*
X140065126Y-101790800D01*
X140082514Y-101781506D01*
X140308634Y-101595934D01*
X140494206Y-101369814D01*
X140632099Y-101111834D01*
X140717013Y-100831911D01*
X140745685Y-100540800D01*
X140717013Y-100249689D01*
X140632099Y-99969766D01*
X140494206Y-99711786D01*
X140308634Y-99485666D01*
X140082514Y-99300094D01*
X140065126Y-99290800D01*
X140082514Y-99281506D01*
X140308634Y-99095934D01*
X140494206Y-98869814D01*
X140632099Y-98611834D01*
X140717013Y-98331911D01*
X140745685Y-98040800D01*
X140717013Y-97749689D01*
X140632099Y-97469766D01*
X140494206Y-97211786D01*
X140308634Y-96985666D01*
X140082514Y-96800094D01*
X140056778Y-96786338D01*
X140262929Y-96629849D01*
X140455996Y-96411993D01*
X140602852Y-96160658D01*
X140694976Y-95897690D01*
X140573655Y-95667800D01*
X139255500Y-95667800D01*
X139255500Y-95687800D01*
X139001500Y-95687800D01*
X139001500Y-95667800D01*
X137683345Y-95667800D01*
X137562024Y-95897690D01*
X137654148Y-96160658D01*
X137801004Y-96411993D01*
X137994071Y-96629849D01*
X138200222Y-96786338D01*
X138174486Y-96800094D01*
X137948366Y-96985666D01*
X137762794Y-97211786D01*
X137624901Y-97469766D01*
X137539987Y-97749689D01*
X137511315Y-98040800D01*
X113004094Y-98040800D01*
X113013537Y-98029294D01*
X113072502Y-97918980D01*
X113108812Y-97799282D01*
X113121072Y-97674800D01*
X113121072Y-95974800D01*
X113108812Y-95850318D01*
X113072502Y-95730620D01*
X113013537Y-95620306D01*
X112934185Y-95523615D01*
X112837494Y-95444263D01*
X112727180Y-95385298D01*
X112607482Y-95348988D01*
X112483000Y-95336728D01*
X110783000Y-95336728D01*
X110658518Y-95348988D01*
X110538820Y-95385298D01*
X110428506Y-95444263D01*
X110331815Y-95523615D01*
X110252463Y-95620306D01*
X110193498Y-95730620D01*
X110171487Y-95803180D01*
X110039632Y-95671325D01*
X109796411Y-95508810D01*
X109526158Y-95396868D01*
X109239260Y-95339800D01*
X108946740Y-95339800D01*
X108659842Y-95396868D01*
X108389589Y-95508810D01*
X108146368Y-95671325D01*
X107939525Y-95878168D01*
X107817805Y-96060334D01*
X107748178Y-95943445D01*
X107553269Y-95727212D01*
X107319920Y-95553159D01*
X107057099Y-95427975D01*
X106909890Y-95383324D01*
X106680000Y-95504645D01*
X106426000Y-95504645D01*
X106196110Y-95383324D01*
X106048901Y-95427975D01*
X105786080Y-95553159D01*
X105552731Y-95727212D01*
X105357822Y-95943445D01*
X105208843Y-96193548D01*
X105111519Y-96467909D01*
X104850000Y-96467909D01*
X104850000Y-94656389D01*
X124218000Y-94656389D01*
X124218000Y-94929211D01*
X124271225Y-95196789D01*
X124375629Y-95448843D01*
X124527201Y-95675686D01*
X124720114Y-95868599D01*
X124946957Y-96020171D01*
X125199011Y-96124575D01*
X125466589Y-96177800D01*
X125739411Y-96177800D01*
X126006989Y-96124575D01*
X126259043Y-96020171D01*
X126485886Y-95868599D01*
X126678799Y-95675686D01*
X126830371Y-95448843D01*
X126934775Y-95196789D01*
X126988000Y-94929211D01*
X126988000Y-94656389D01*
X129098000Y-94656389D01*
X129098000Y-94929211D01*
X129151225Y-95196789D01*
X129255629Y-95448843D01*
X129407201Y-95675686D01*
X129600114Y-95868599D01*
X129826957Y-96020171D01*
X130079011Y-96124575D01*
X130346589Y-96177800D01*
X130619411Y-96177800D01*
X130886989Y-96124575D01*
X131139043Y-96020171D01*
X131365886Y-95868599D01*
X131558799Y-95675686D01*
X131710371Y-95448843D01*
X131814775Y-95196789D01*
X131868000Y-94929211D01*
X131868000Y-94656389D01*
X131814775Y-94388811D01*
X131710371Y-94136757D01*
X131558799Y-93909914D01*
X131365886Y-93717001D01*
X131139043Y-93565429D01*
X130886989Y-93461025D01*
X130619411Y-93407800D01*
X130346589Y-93407800D01*
X130079011Y-93461025D01*
X129826957Y-93565429D01*
X129600114Y-93717001D01*
X129407201Y-93909914D01*
X129255629Y-94136757D01*
X129151225Y-94388811D01*
X129098000Y-94656389D01*
X126988000Y-94656389D01*
X126934775Y-94388811D01*
X126830371Y-94136757D01*
X126678799Y-93909914D01*
X126485886Y-93717001D01*
X126259043Y-93565429D01*
X126006989Y-93461025D01*
X125739411Y-93407800D01*
X125466589Y-93407800D01*
X125199011Y-93461025D01*
X124946957Y-93565429D01*
X124720114Y-93717001D01*
X124527201Y-93909914D01*
X124375629Y-94136757D01*
X124271225Y-94388811D01*
X124218000Y-94656389D01*
X104850000Y-94656389D01*
X104850000Y-92866067D01*
X110032680Y-92866067D01*
X110106558Y-93147630D01*
X110233947Y-93409370D01*
X110409951Y-93641229D01*
X110627807Y-93834296D01*
X110879142Y-93981152D01*
X111142110Y-94073276D01*
X111372000Y-93951955D01*
X111372000Y-92633800D01*
X110172835Y-92633800D01*
X110032680Y-92866067D01*
X104850000Y-92866067D01*
X104850000Y-92147533D01*
X110032680Y-92147533D01*
X110172835Y-92379800D01*
X111372000Y-92379800D01*
X111372000Y-91061645D01*
X111626000Y-91061645D01*
X111626000Y-92379800D01*
X111646000Y-92379800D01*
X111646000Y-92633800D01*
X111626000Y-92633800D01*
X111626000Y-93951955D01*
X111855890Y-94073276D01*
X112118858Y-93981152D01*
X112370193Y-93834296D01*
X112588049Y-93641229D01*
X112744538Y-93435078D01*
X112758294Y-93460813D01*
X112943866Y-93686934D01*
X113169986Y-93872506D01*
X113427966Y-94010399D01*
X113707889Y-94095313D01*
X113999000Y-94123985D01*
X114290110Y-94095313D01*
X114570033Y-94010399D01*
X114828013Y-93872506D01*
X115054134Y-93686934D01*
X115239706Y-93460814D01*
X115249000Y-93443426D01*
X115258294Y-93460813D01*
X115443866Y-93686934D01*
X115669986Y-93872506D01*
X115927966Y-94010399D01*
X116207889Y-94095313D01*
X116499000Y-94123985D01*
X116790110Y-94095313D01*
X117070033Y-94010399D01*
X117328013Y-93872506D01*
X117554134Y-93686934D01*
X117606223Y-93623463D01*
X117660595Y-93725186D01*
X117771038Y-93859762D01*
X117905614Y-93970205D01*
X118059150Y-94052272D01*
X118225746Y-94102808D01*
X118399000Y-94119872D01*
X119599000Y-94119872D01*
X119772254Y-94102808D01*
X119938850Y-94052272D01*
X120092386Y-93970205D01*
X120226962Y-93859762D01*
X120337405Y-93725186D01*
X120419472Y-93571650D01*
X120470008Y-93405054D01*
X120487072Y-93231800D01*
X120487072Y-93040800D01*
X137511315Y-93040800D01*
X137539987Y-93331911D01*
X137624901Y-93611834D01*
X137762794Y-93869814D01*
X137948366Y-94095934D01*
X138174486Y-94281506D01*
X138200222Y-94295262D01*
X137994071Y-94451751D01*
X137801004Y-94669607D01*
X137654148Y-94920942D01*
X137562024Y-95183910D01*
X137683345Y-95413800D01*
X139001500Y-95413800D01*
X139001500Y-95393800D01*
X139255500Y-95393800D01*
X139255500Y-95413800D01*
X140573655Y-95413800D01*
X140694976Y-95183910D01*
X140602852Y-94920942D01*
X140455996Y-94669607D01*
X140262929Y-94451751D01*
X140056778Y-94295262D01*
X140082514Y-94281506D01*
X140308634Y-94095934D01*
X140494206Y-93869814D01*
X140632099Y-93611834D01*
X140717013Y-93331911D01*
X140745685Y-93040800D01*
X140717013Y-92749689D01*
X140632099Y-92469766D01*
X140494206Y-92211786D01*
X140308634Y-91985666D01*
X140082514Y-91800094D01*
X139824534Y-91662201D01*
X139544611Y-91577287D01*
X139326450Y-91555800D01*
X138930550Y-91555800D01*
X138712389Y-91577287D01*
X138432466Y-91662201D01*
X138174486Y-91800094D01*
X137948366Y-91985666D01*
X137762794Y-92211786D01*
X137624901Y-92469766D01*
X137539987Y-92749689D01*
X137511315Y-93040800D01*
X120487072Y-93040800D01*
X120487072Y-91781800D01*
X120470008Y-91608546D01*
X120419472Y-91441950D01*
X120337405Y-91288414D01*
X120226962Y-91153838D01*
X120092386Y-91043395D01*
X119938850Y-90961328D01*
X119772254Y-90910792D01*
X119599000Y-90893728D01*
X118399000Y-90893728D01*
X118225746Y-90910792D01*
X118059150Y-90961328D01*
X117905614Y-91043395D01*
X117771038Y-91153838D01*
X117660595Y-91288414D01*
X117606223Y-91390137D01*
X117554134Y-91326666D01*
X117328014Y-91141094D01*
X117070034Y-91003201D01*
X116790111Y-90918287D01*
X116499000Y-90889615D01*
X116207890Y-90918287D01*
X115927967Y-91003201D01*
X115669987Y-91141094D01*
X115443866Y-91326666D01*
X115258294Y-91552786D01*
X115249000Y-91570174D01*
X115239706Y-91552786D01*
X115054134Y-91326666D01*
X114828014Y-91141094D01*
X114570034Y-91003201D01*
X114290111Y-90918287D01*
X113999000Y-90889615D01*
X113707890Y-90918287D01*
X113427967Y-91003201D01*
X113169987Y-91141094D01*
X112943866Y-91326666D01*
X112758294Y-91552786D01*
X112744538Y-91578522D01*
X112588049Y-91372371D01*
X112370193Y-91179304D01*
X112118858Y-91032448D01*
X111855890Y-90940324D01*
X111626000Y-91061645D01*
X111372000Y-91061645D01*
X111142110Y-90940324D01*
X110879142Y-91032448D01*
X110627807Y-91179304D01*
X110409951Y-91372371D01*
X110233947Y-91604230D01*
X110106558Y-91865970D01*
X110032680Y-92147533D01*
X104850000Y-92147533D01*
X104850000Y-82929800D01*
X107845660Y-82929800D01*
X107664330Y-83050961D01*
M02*
