M48
; DRILL file {KiCad (5.1.6)-1} date 04/29/21 20:29:49
; FORMAT={-:-/ absolute / inch / decimal}
; #@! TF.CreationDate,2021-04-29T20:29:49-05:00
; #@! TF.GenerationSoftware,Kicad,Pcbnew,(5.1.6)-1
; #@! TF.FileFunction,Plated,1,2,PTH
FMAT,2
INCH
T1C0.0079
T2C0.0250
T3C0.0256
T4C0.0315
T5C0.0374
T6C0.0394
T7C0.1260
%
G90
G05
T1
X4.1556Y-3.5426
X4.27Y-5.202
X4.295Y-4.6545
X4.305Y-5.317
X4.315Y-5.272
X4.355Y-4.487
X4.355Y-4.512
X4.36Y-5.137
X4.36Y-5.167
X4.36Y-5.197
X4.3906Y-4.3039
X4.395Y-5.137
X4.395Y-5.167
X4.395Y-5.197
X4.43Y-5.137
X4.43Y-5.167
X4.43Y-5.197
X4.465Y-5.137
X4.465Y-5.167
X4.465Y-5.197
X4.5Y-5.137
X4.5Y-5.167
X4.5Y-5.197
X4.52Y-5.592
X4.53Y-3.9045
X4.535Y-5.137
X4.535Y-5.167
X4.535Y-5.197
X4.56Y-4.487
X4.57Y-4.457
X4.57Y-5.137
X4.57Y-5.167
X4.57Y-5.197
X4.6646Y-4.3724
X4.7723Y-4.0393
X4.81Y-4.0445
X4.825Y-5.112
X4.8475Y-3.8595
X4.8725Y-4.3195
X4.9222Y-4.2042
X4.96Y-4.412
X4.96Y-4.472
X4.9994Y-3.5176
X5.0856Y-3.5176
X5.1225Y-3.932
X5.1944Y-4.0126
X5.237Y-5.555
X5.24Y-3.827
X5.295Y-4.372
X5.34Y-4.007
X5.375Y-4.762
X5.445Y-4.8645
X5.493Y-5.554
X5.495Y-4.667
X5.495Y-4.987
X5.555Y-5.447
X5.555Y-5.512
T2
X4.45Y-5.412
X4.8Y-5.362
T4
X4.945Y-3.732
X5.1371Y-3.732
T5
X4.3897Y-3.642
X4.4881Y-3.642
X4.5866Y-3.642
X4.685Y-3.642
X4.6247Y-4.617
X4.7231Y-4.617
X4.8216Y-4.617
X4.92Y-4.617
X5.4775Y-3.663
X5.4775Y-3.7614
X5.4775Y-3.8599
X5.4775Y-3.9583
X5.4775Y-4.0567
X5.4775Y-4.1551
X5.4775Y-4.2536
X5.4775Y-4.352
X5.215Y-5.212
X5.3134Y-5.212
X5.4119Y-5.212
X4.23Y-4.027
X4.23Y-4.1254
X4.23Y-4.2239
X4.23Y-4.3223
X4.23Y-4.4207
X4.23Y-4.5191
T6
X5.1125Y-4.487
X5.2125Y-4.487
X5.3125Y-4.487
X4.745Y-4.8686
X4.745Y-4.967
X4.195Y-3.812
X4.295Y-3.812
X4.395Y-3.812
T7
X4.335Y-3.387
X4.885Y-5.627
X5.335Y-3.387
T3
G00X5.1949Y-5.6208
M15
G01X5.1949Y-5.6641
M16
G05
G00X5.1949Y-5.7952
M15
G01X5.1949Y-5.8188
M16
G05
G00X5.5351Y-5.6208
M15
G01X5.5351Y-5.6641
M16
G05
G00X5.5351Y-5.7952
M15
G01X5.5351Y-5.8188
M16
G05
T0
M30
