G04 #@! TF.GenerationSoftware,KiCad,Pcbnew,(5.1.6)-1*
G04 #@! TF.CreationDate,2021-04-29T20:15:04-05:00*
G04 #@! TF.ProjectId,BEncoderBoard3(2),42456e63-6f64-4657-9242-6f6172643328,rev?*
G04 #@! TF.SameCoordinates,Original*
G04 #@! TF.FileFunction,Legend,Top*
G04 #@! TF.FilePolarity,Positive*
%FSLAX46Y46*%
G04 Gerber Fmt 4.6, Leading zero omitted, Abs format (unit mm)*
G04 Created by KiCad (PCBNEW (5.1.6)-1) date 2021-04-29 20:15:04*
%MOMM*%
%LPD*%
G01*
G04 APERTURE LIST*
%ADD10C,0.152400*%
G04 APERTURE END LIST*
D10*
X169447028Y-100451504D02*
X169447028Y-101264304D01*
X169301885Y-101264304D01*
X169214800Y-101225600D01*
X169156742Y-101148190D01*
X169127714Y-101070780D01*
X169098685Y-100915961D01*
X169098685Y-100799847D01*
X169127714Y-100645028D01*
X169156742Y-100567619D01*
X169214800Y-100490209D01*
X169301885Y-100451504D01*
X169447028Y-100451504D01*
X168837428Y-100761142D02*
X168372971Y-100761142D01*
X177769157Y-99630842D02*
X177605871Y-99576414D01*
X177551442Y-99521985D01*
X177497014Y-99413128D01*
X177497014Y-99249842D01*
X177551442Y-99140985D01*
X177605871Y-99086557D01*
X177714728Y-99032128D01*
X178150157Y-99032128D01*
X178150157Y-100175128D01*
X177769157Y-100175128D01*
X177660300Y-100120700D01*
X177605871Y-100066271D01*
X177551442Y-99957414D01*
X177551442Y-99848557D01*
X177605871Y-99739700D01*
X177660300Y-99685271D01*
X177769157Y-99630842D01*
X178150157Y-99630842D01*
X173482000Y-100877257D02*
X173278800Y-100877257D01*
X173191714Y-100451504D02*
X173482000Y-100451504D01*
X173482000Y-101264304D01*
X173191714Y-101264304D01*
X172930457Y-100761142D02*
X172466000Y-100761142D01*
X172698228Y-100451504D02*
X172698228Y-101070780D01*
X169447028Y-97614504D02*
X169447028Y-98427304D01*
X169301885Y-98427304D01*
X169214800Y-98388600D01*
X169156742Y-98311190D01*
X169127714Y-98233780D01*
X169098685Y-98078961D01*
X169098685Y-97962847D01*
X169127714Y-97808028D01*
X169156742Y-97730619D01*
X169214800Y-97653209D01*
X169301885Y-97614504D01*
X169447028Y-97614504D01*
X168837428Y-97924142D02*
X168372971Y-97924142D01*
X168605200Y-97614504D02*
X168605200Y-98233780D01*
X173482000Y-98040257D02*
X173278800Y-98040257D01*
X173191714Y-97614504D02*
X173482000Y-97614504D01*
X173482000Y-98427304D01*
X173191714Y-98427304D01*
X172930457Y-97924142D02*
X172466000Y-97924142D01*
X177527857Y-122872500D02*
X178072142Y-122872500D01*
X177419000Y-123199071D02*
X177800000Y-122056071D01*
X178181000Y-123199071D01*
X172690971Y-121779695D02*
X172690971Y-120966895D01*
X172836114Y-120966895D01*
X172923200Y-121005600D01*
X172981257Y-121083009D01*
X173010285Y-121160419D01*
X173039314Y-121315238D01*
X173039314Y-121431352D01*
X173010285Y-121586171D01*
X172981257Y-121663580D01*
X172923200Y-121740990D01*
X172836114Y-121779695D01*
X172690971Y-121779695D01*
X173300571Y-121470057D02*
X173765028Y-121470057D01*
X172690971Y-124573695D02*
X172690971Y-123760895D01*
X172836114Y-123760895D01*
X172923200Y-123799600D01*
X172981257Y-123877009D01*
X173010285Y-123954419D01*
X173039314Y-124109238D01*
X173039314Y-124225352D01*
X173010285Y-124380171D01*
X172981257Y-124457580D01*
X172923200Y-124534990D01*
X172836114Y-124573695D01*
X172690971Y-124573695D01*
X173300571Y-124264057D02*
X173765028Y-124264057D01*
X173532800Y-124573695D02*
X173532800Y-123954419D01*
X168910000Y-121353942D02*
X169113200Y-121353942D01*
X169200285Y-121779695D02*
X168910000Y-121779695D01*
X168910000Y-120966895D01*
X169200285Y-120966895D01*
X169461542Y-121470057D02*
X169926000Y-121470057D01*
X169693771Y-121779695D02*
X169693771Y-121160419D01*
X168910000Y-124147942D02*
X169113200Y-124147942D01*
X169200285Y-124573695D02*
X168910000Y-124573695D01*
X168910000Y-123760895D01*
X169200285Y-123760895D01*
X169461542Y-124264057D02*
X169926000Y-124264057D01*
X177756457Y-106673295D02*
X177814514Y-106712000D01*
X177872571Y-106789409D01*
X177959657Y-106905523D01*
X178017714Y-106944228D01*
X178075771Y-106944228D01*
X178046742Y-106750704D02*
X178104800Y-106789409D01*
X178162857Y-106866819D01*
X178191885Y-107021638D01*
X178191885Y-107292571D01*
X178162857Y-107447390D01*
X178104800Y-107524800D01*
X178046742Y-107563504D01*
X177930628Y-107563504D01*
X177872571Y-107524800D01*
X177814514Y-107447390D01*
X177785485Y-107292571D01*
X177785485Y-107021638D01*
X177814514Y-106866819D01*
X177872571Y-106789409D01*
X177930628Y-106750704D01*
X178046742Y-106750704D01*
X177262971Y-107292571D02*
X177262971Y-106750704D01*
X177408114Y-107602209D02*
X177553257Y-107021638D01*
X177175885Y-107021638D01*
X177894342Y-115557904D02*
X177836285Y-115519200D01*
X177778228Y-115441790D01*
X177691142Y-115325676D01*
X177633085Y-115286971D01*
X177575028Y-115286971D01*
X177604057Y-115480495D02*
X177546000Y-115441790D01*
X177487942Y-115364380D01*
X177458914Y-115209561D01*
X177458914Y-114938628D01*
X177487942Y-114783809D01*
X177546000Y-114706400D01*
X177604057Y-114667695D01*
X177720171Y-114667695D01*
X177778228Y-114706400D01*
X177836285Y-114783809D01*
X177865314Y-114938628D01*
X177865314Y-115209561D01*
X177836285Y-115364380D01*
X177778228Y-115441790D01*
X177720171Y-115480495D01*
X177604057Y-115480495D01*
X178068514Y-114667695D02*
X178445885Y-114667695D01*
X178242685Y-114977333D01*
X178329771Y-114977333D01*
X178387828Y-115016038D01*
X178416857Y-115054742D01*
X178445885Y-115132152D01*
X178445885Y-115325676D01*
X178416857Y-115403085D01*
X178387828Y-115441790D01*
X178329771Y-115480495D01*
X178155600Y-115480495D01*
X178097542Y-115441790D01*
X178068514Y-115403085D01*
M02*
