G04 #@! TF.GenerationSoftware,KiCad,Pcbnew,(5.1.6)-1*
G04 #@! TF.CreationDate,2021-04-29T20:15:04-05:00*
G04 #@! TF.ProjectId,BEncoderBoard3(2),42456e63-6f64-4657-9242-6f6172643328,rev?*
G04 #@! TF.SameCoordinates,Original*
G04 #@! TF.FileFunction,Copper,L1,Top*
G04 #@! TF.FilePolarity,Positive*
%FSLAX46Y46*%
G04 Gerber Fmt 4.6, Leading zero omitted, Abs format (unit mm)*
G04 Created by KiCad (PCBNEW (5.1.6)-1) date 2021-04-29 20:15:04*
%MOMM*%
%LPD*%
G01*
G04 APERTURE LIST*
G04 #@! TA.AperFunction,ComponentPad*
%ADD10R,1.700000X1.700000*%
G04 #@! TD*
G04 #@! TA.AperFunction,ComponentPad*
%ADD11C,1.778000*%
G04 #@! TD*
G04 #@! TA.AperFunction,Conductor*
%ADD12C,0.635000*%
G04 #@! TD*
G04 APERTURE END LIST*
D10*
X171300000Y-97982200D03*
X171300000Y-100819200D03*
X167300000Y-100819200D03*
X167300000Y-97982200D03*
D11*
X174465399Y-108361399D03*
X181165399Y-108361399D03*
X174465399Y-105821399D03*
X181165399Y-105821399D03*
D10*
X171300000Y-124248800D03*
X171300000Y-121412000D03*
X167300000Y-121412000D03*
X167300000Y-124248800D03*
D11*
X174485401Y-116409801D03*
X181185401Y-116409801D03*
X174485401Y-113869801D03*
X181185401Y-113869801D03*
D12*
X167300000Y-121412000D02*
X167300000Y-121244000D01*
X167300000Y-121244000D02*
X168910000Y-119634000D01*
X168910000Y-119634000D02*
X174244000Y-119634000D01*
X174244000Y-119634000D02*
X176022000Y-117856000D01*
X176022000Y-115406400D02*
X174485401Y-113869801D01*
X176022000Y-117856000D02*
X176022000Y-115406400D01*
X171300000Y-121412000D02*
X178562000Y-121412000D01*
X178562000Y-121412000D02*
X179578000Y-120396000D01*
X179578000Y-115477202D02*
X181185401Y-113869801D01*
X179578000Y-120396000D02*
X179578000Y-115477202D01*
X181165399Y-105821399D02*
X181165399Y-103939399D01*
X175208200Y-97982200D02*
X171300000Y-97982200D01*
X181165399Y-103939399D02*
X175208200Y-97982200D01*
X174465399Y-108361399D02*
X176160000Y-106666798D01*
X176160000Y-106666798D02*
X176160000Y-105030000D01*
X176160000Y-105030000D02*
X173620000Y-102490000D01*
X173620000Y-102490000D02*
X170064000Y-102490000D01*
X168393200Y-100819200D02*
X167300000Y-100819200D01*
X170064000Y-102490000D02*
X168393200Y-100819200D01*
M02*
