G04 #@! TF.GenerationSoftware,KiCad,Pcbnew,(5.1.6)-1*
G04 #@! TF.CreationDate,2021-04-29T20:17:03-05:00*
G04 #@! TF.ProjectId,BEncoderBoard3(3.2),42456e63-6f64-4657-9242-6f6172643328,rev?*
G04 #@! TF.SameCoordinates,Original*
G04 #@! TF.FileFunction,Paste,Top*
G04 #@! TF.FilePolarity,Positive*
%FSLAX46Y46*%
G04 Gerber Fmt 4.6, Leading zero omitted, Abs format (unit mm)*
G04 Created by KiCad (PCBNEW (5.1.6)-1) date 2021-04-29 20:17:03*
%MOMM*%
%LPD*%
G01*
G04 APERTURE LIST*
%ADD10R,1.500000X0.700000*%
%ADD11R,0.700000X1.500000*%
%ADD12R,1.800000X2.500000*%
G04 APERTURE END LIST*
G36*
G01*
X137213000Y-91739500D02*
X137213000Y-91394500D01*
G75*
G02*
X137360500Y-91247000I147500J0D01*
G01*
X137655500Y-91247000D01*
G75*
G02*
X137803000Y-91394500I0J-147500D01*
G01*
X137803000Y-91739500D01*
G75*
G02*
X137655500Y-91887000I-147500J0D01*
G01*
X137360500Y-91887000D01*
G75*
G02*
X137213000Y-91739500I0J147500D01*
G01*
G37*
G36*
G01*
X136243000Y-91739500D02*
X136243000Y-91394500D01*
G75*
G02*
X136390500Y-91247000I147500J0D01*
G01*
X136685500Y-91247000D01*
G75*
G02*
X136833000Y-91394500I0J-147500D01*
G01*
X136833000Y-91739500D01*
G75*
G02*
X136685500Y-91887000I-147500J0D01*
G01*
X136390500Y-91887000D01*
G75*
G02*
X136243000Y-91739500I0J147500D01*
G01*
G37*
D10*
X135899600Y-94559200D03*
X135899600Y-95759200D03*
X135899600Y-96959200D03*
X135899600Y-98159200D03*
X135899600Y-99359200D03*
D11*
X134549600Y-100357530D03*
X133349600Y-100357530D03*
X132149600Y-100357530D03*
X130949600Y-100357530D03*
D10*
X130399600Y-98759200D03*
X130399600Y-97559200D03*
X130399600Y-96359200D03*
X130399600Y-95159200D03*
X130399600Y-93959200D03*
D11*
X131749600Y-92909200D03*
X132949600Y-92909200D03*
X134149600Y-92909200D03*
X135349600Y-92909200D03*
G36*
G01*
X128096000Y-97632000D02*
X128571000Y-97632000D01*
G75*
G02*
X128808500Y-97869500I0J-237500D01*
G01*
X128808500Y-98444500D01*
G75*
G02*
X128571000Y-98682000I-237500J0D01*
G01*
X128096000Y-98682000D01*
G75*
G02*
X127858500Y-98444500I0J237500D01*
G01*
X127858500Y-97869500D01*
G75*
G02*
X128096000Y-97632000I237500J0D01*
G01*
G37*
G36*
G01*
X128096000Y-95882000D02*
X128571000Y-95882000D01*
G75*
G02*
X128808500Y-96119500I0J-237500D01*
G01*
X128808500Y-96694500D01*
G75*
G02*
X128571000Y-96932000I-237500J0D01*
G01*
X128096000Y-96932000D01*
G75*
G02*
X127858500Y-96694500I0J237500D01*
G01*
X127858500Y-96119500D01*
G75*
G02*
X128096000Y-95882000I237500J0D01*
G01*
G37*
G36*
G01*
X138540500Y-95789000D02*
X138065500Y-95789000D01*
G75*
G02*
X137828000Y-95551500I0J237500D01*
G01*
X137828000Y-94976500D01*
G75*
G02*
X138065500Y-94739000I237500J0D01*
G01*
X138540500Y-94739000D01*
G75*
G02*
X138778000Y-94976500I0J-237500D01*
G01*
X138778000Y-95551500D01*
G75*
G02*
X138540500Y-95789000I-237500J0D01*
G01*
G37*
G36*
G01*
X138540500Y-97539000D02*
X138065500Y-97539000D01*
G75*
G02*
X137828000Y-97301500I0J237500D01*
G01*
X137828000Y-96726500D01*
G75*
G02*
X138065500Y-96489000I237500J0D01*
G01*
X138540500Y-96489000D01*
G75*
G02*
X138778000Y-96726500I0J-237500D01*
G01*
X138778000Y-97301500D01*
G75*
G02*
X138540500Y-97539000I-237500J0D01*
G01*
G37*
D12*
X130893000Y-103632000D03*
X135693000Y-103632000D03*
X133293000Y-103632000D03*
X138093000Y-103632000D03*
G36*
G01*
X137213000Y-90723500D02*
X137213000Y-90378500D01*
G75*
G02*
X137360500Y-90231000I147500J0D01*
G01*
X137655500Y-90231000D01*
G75*
G02*
X137803000Y-90378500I0J-147500D01*
G01*
X137803000Y-90723500D01*
G75*
G02*
X137655500Y-90871000I-147500J0D01*
G01*
X137360500Y-90871000D01*
G75*
G02*
X137213000Y-90723500I0J147500D01*
G01*
G37*
G36*
G01*
X136243000Y-90723500D02*
X136243000Y-90378500D01*
G75*
G02*
X136390500Y-90231000I147500J0D01*
G01*
X136685500Y-90231000D01*
G75*
G02*
X136833000Y-90378500I0J-147500D01*
G01*
X136833000Y-90723500D01*
G75*
G02*
X136685500Y-90871000I-147500J0D01*
G01*
X136390500Y-90871000D01*
G75*
G02*
X136243000Y-90723500I0J147500D01*
G01*
G37*
G36*
G01*
X135544500Y-90869000D02*
X135199500Y-90869000D01*
G75*
G02*
X135052000Y-90721500I0J147500D01*
G01*
X135052000Y-90426500D01*
G75*
G02*
X135199500Y-90279000I147500J0D01*
G01*
X135544500Y-90279000D01*
G75*
G02*
X135692000Y-90426500I0J-147500D01*
G01*
X135692000Y-90721500D01*
G75*
G02*
X135544500Y-90869000I-147500J0D01*
G01*
G37*
G36*
G01*
X135544500Y-91839000D02*
X135199500Y-91839000D01*
G75*
G02*
X135052000Y-91691500I0J147500D01*
G01*
X135052000Y-91396500D01*
G75*
G02*
X135199500Y-91249000I147500J0D01*
G01*
X135544500Y-91249000D01*
G75*
G02*
X135692000Y-91396500I0J-147500D01*
G01*
X135692000Y-91691500D01*
G75*
G02*
X135544500Y-91839000I-147500J0D01*
G01*
G37*
M02*
