G04 #@! TF.GenerationSoftware,KiCad,Pcbnew,5.1.6+dfsg1-1~bpo10+1*
G04 #@! TF.CreationDate,2020-07-21T20:35:52-05:00*
G04 #@! TF.ProjectId,EncoderBoard2,456e636f-6465-4724-926f-617264322e6b,v1.0*
G04 #@! TF.SameCoordinates,Original*
G04 #@! TF.FileFunction,Copper,L1,Top*
G04 #@! TF.FilePolarity,Positive*
%FSLAX46Y46*%
G04 Gerber Fmt 4.6, Leading zero omitted, Abs format (unit mm)*
G04 Created by KiCad (PCBNEW 5.1.6+dfsg1-1~bpo10+1) date 2020-07-21 20:35:52*
%MOMM*%
%LPD*%
G01*
G04 APERTURE LIST*
G04 #@! TA.AperFunction,ComponentPad*
%ADD10R,1.700000X1.700000*%
G04 #@! TD*
G04 #@! TA.AperFunction,ComponentPad*
%ADD11O,1.700000X1.700000*%
G04 #@! TD*
G04 #@! TA.AperFunction,SMDPad,CuDef*
%ADD12R,1.420000X0.610000*%
G04 #@! TD*
G04 #@! TA.AperFunction,SMDPad,CuDef*
%ADD13R,0.300000X0.804800*%
G04 #@! TD*
G04 #@! TA.AperFunction,SMDPad,CuDef*
%ADD14R,1.560000X0.280000*%
G04 #@! TD*
G04 #@! TA.AperFunction,SMDPad,CuDef*
%ADD15R,0.280000X1.560000*%
G04 #@! TD*
G04 #@! TA.AperFunction,SMDPad,CuDef*
%ADD16R,0.800000X0.900000*%
G04 #@! TD*
G04 #@! TA.AperFunction,SMDPad,CuDef*
%ADD17R,1.800000X2.500000*%
G04 #@! TD*
G04 #@! TA.AperFunction,SMDPad,CuDef*
%ADD18R,3.402000X2.513000*%
G04 #@! TD*
G04 #@! TA.AperFunction,SMDPad,CuDef*
%ADD19R,0.700000X1.525000*%
G04 #@! TD*
G04 #@! TA.AperFunction,SMDPad,CuDef*
%ADD20R,0.600000X1.200000*%
G04 #@! TD*
G04 #@! TA.AperFunction,ComponentPad*
%ADD21R,3.500000X3.500000*%
G04 #@! TD*
G04 #@! TA.AperFunction,SMDPad,CuDef*
%ADD22R,0.900000X0.800000*%
G04 #@! TD*
G04 #@! TA.AperFunction,SMDPad,CuDef*
%ADD23R,0.700000X1.500000*%
G04 #@! TD*
G04 #@! TA.AperFunction,SMDPad,CuDef*
%ADD24R,1.500000X0.700000*%
G04 #@! TD*
G04 #@! TA.AperFunction,ComponentPad*
%ADD25C,1.500000*%
G04 #@! TD*
G04 #@! TA.AperFunction,ViaPad*
%ADD26C,0.450000*%
G04 #@! TD*
G04 #@! TA.AperFunction,ViaPad*
%ADD27C,1.270000*%
G04 #@! TD*
G04 #@! TA.AperFunction,Conductor*
%ADD28C,0.254000*%
G04 #@! TD*
G04 #@! TA.AperFunction,Conductor*
%ADD29C,1.270000*%
G04 #@! TD*
G04 #@! TA.AperFunction,Conductor*
%ADD30C,0.635000*%
G04 #@! TD*
G04 #@! TA.AperFunction,Conductor*
%ADD31C,0.127000*%
G04 #@! TD*
G04 APERTURE END LIST*
D10*
X109410500Y-102793800D03*
D11*
X111950500Y-102793800D03*
D10*
X109410500Y-106540300D03*
D11*
X111950500Y-106540300D03*
D10*
X110744000Y-90411300D03*
D11*
X110744000Y-92951300D03*
D10*
X106997500Y-90411300D03*
D11*
X106997500Y-92951300D03*
X108077000Y-98983800D03*
X110617000Y-98983800D03*
X113157000Y-98983800D03*
X115697000Y-98983800D03*
X118237000Y-98983800D03*
X120777000Y-98983800D03*
D10*
X123317000Y-98983800D03*
G04 #@! TA.AperFunction,SMDPad,CuDef*
G36*
G01*
X114918500Y-104602800D02*
X114443500Y-104602800D01*
G75*
G02*
X114206000Y-104365300I0J237500D01*
G01*
X114206000Y-103790300D01*
G75*
G02*
X114443500Y-103552800I237500J0D01*
G01*
X114918500Y-103552800D01*
G75*
G02*
X115156000Y-103790300I0J-237500D01*
G01*
X115156000Y-104365300D01*
G75*
G02*
X114918500Y-104602800I-237500J0D01*
G01*
G37*
G04 #@! TD.AperFunction*
G04 #@! TA.AperFunction,SMDPad,CuDef*
G36*
G01*
X114918500Y-106352800D02*
X114443500Y-106352800D01*
G75*
G02*
X114206000Y-106115300I0J237500D01*
G01*
X114206000Y-105540300D01*
G75*
G02*
X114443500Y-105302800I237500J0D01*
G01*
X114918500Y-105302800D01*
G75*
G02*
X115156000Y-105540300I0J-237500D01*
G01*
X115156000Y-106115300D01*
G75*
G02*
X114918500Y-106352800I-237500J0D01*
G01*
G37*
G04 #@! TD.AperFunction*
G04 #@! TA.AperFunction,SMDPad,CuDef*
G36*
G01*
X118507500Y-104667800D02*
X118982500Y-104667800D01*
G75*
G02*
X119220000Y-104905300I0J-237500D01*
G01*
X119220000Y-105480300D01*
G75*
G02*
X118982500Y-105717800I-237500J0D01*
G01*
X118507500Y-105717800D01*
G75*
G02*
X118270000Y-105480300I0J237500D01*
G01*
X118270000Y-104905300D01*
G75*
G02*
X118507500Y-104667800I237500J0D01*
G01*
G37*
G04 #@! TD.AperFunction*
G04 #@! TA.AperFunction,SMDPad,CuDef*
G36*
G01*
X118507500Y-102917800D02*
X118982500Y-102917800D01*
G75*
G02*
X119220000Y-103155300I0J-237500D01*
G01*
X119220000Y-103730300D01*
G75*
G02*
X118982500Y-103967800I-237500J0D01*
G01*
X118507500Y-103967800D01*
G75*
G02*
X118270000Y-103730300I0J237500D01*
G01*
X118270000Y-103155300D01*
G75*
G02*
X118507500Y-102917800I237500J0D01*
G01*
G37*
G04 #@! TD.AperFunction*
X137287000Y-122986800D03*
D11*
X137287000Y-120446800D03*
X137287000Y-117906800D03*
X137287000Y-115366800D03*
X137287000Y-112826800D03*
X137287000Y-110286800D03*
X137287000Y-107746800D03*
X137287000Y-105206800D03*
G04 #@! TA.AperFunction,SMDPad,CuDef*
G36*
G01*
X131842500Y-111525800D02*
X132317500Y-111525800D01*
G75*
G02*
X132555000Y-111763300I0J-237500D01*
G01*
X132555000Y-112338300D01*
G75*
G02*
X132317500Y-112575800I-237500J0D01*
G01*
X131842500Y-112575800D01*
G75*
G02*
X131605000Y-112338300I0J237500D01*
G01*
X131605000Y-111763300D01*
G75*
G02*
X131842500Y-111525800I237500J0D01*
G01*
G37*
G04 #@! TD.AperFunction*
G04 #@! TA.AperFunction,SMDPad,CuDef*
G36*
G01*
X131842500Y-109775800D02*
X132317500Y-109775800D01*
G75*
G02*
X132555000Y-110013300I0J-237500D01*
G01*
X132555000Y-110588300D01*
G75*
G02*
X132317500Y-110825800I-237500J0D01*
G01*
X131842500Y-110825800D01*
G75*
G02*
X131605000Y-110588300I0J237500D01*
G01*
X131605000Y-110013300D01*
G75*
G02*
X131842500Y-109775800I237500J0D01*
G01*
G37*
G04 #@! TD.AperFunction*
G04 #@! TA.AperFunction,SMDPad,CuDef*
G36*
G01*
X133874500Y-109112800D02*
X134349500Y-109112800D01*
G75*
G02*
X134587000Y-109350300I0J-237500D01*
G01*
X134587000Y-109925300D01*
G75*
G02*
X134349500Y-110162800I-237500J0D01*
G01*
X133874500Y-110162800D01*
G75*
G02*
X133637000Y-109925300I0J237500D01*
G01*
X133637000Y-109350300D01*
G75*
G02*
X133874500Y-109112800I237500J0D01*
G01*
G37*
G04 #@! TD.AperFunction*
G04 #@! TA.AperFunction,SMDPad,CuDef*
G36*
G01*
X133874500Y-107362800D02*
X134349500Y-107362800D01*
G75*
G02*
X134587000Y-107600300I0J-237500D01*
G01*
X134587000Y-108175300D01*
G75*
G02*
X134349500Y-108412800I-237500J0D01*
G01*
X133874500Y-108412800D01*
G75*
G02*
X133637000Y-108175300I0J237500D01*
G01*
X133637000Y-107600300D01*
G75*
G02*
X133874500Y-107362800I237500J0D01*
G01*
G37*
G04 #@! TD.AperFunction*
G04 #@! TA.AperFunction,SMDPad,CuDef*
G36*
G01*
X132223500Y-102000800D02*
X132698500Y-102000800D01*
G75*
G02*
X132936000Y-102238300I0J-237500D01*
G01*
X132936000Y-102813300D01*
G75*
G02*
X132698500Y-103050800I-237500J0D01*
G01*
X132223500Y-103050800D01*
G75*
G02*
X131986000Y-102813300I0J237500D01*
G01*
X131986000Y-102238300D01*
G75*
G02*
X132223500Y-102000800I237500J0D01*
G01*
G37*
G04 #@! TD.AperFunction*
G04 #@! TA.AperFunction,SMDPad,CuDef*
G36*
G01*
X132223500Y-100250800D02*
X132698500Y-100250800D01*
G75*
G02*
X132936000Y-100488300I0J-237500D01*
G01*
X132936000Y-101063300D01*
G75*
G02*
X132698500Y-101300800I-237500J0D01*
G01*
X132223500Y-101300800D01*
G75*
G02*
X131986000Y-101063300I0J237500D01*
G01*
X131986000Y-100488300D01*
G75*
G02*
X132223500Y-100250800I237500J0D01*
G01*
G37*
G04 #@! TD.AperFunction*
G04 #@! TA.AperFunction,SMDPad,CuDef*
G36*
G01*
X135144500Y-102000800D02*
X135619500Y-102000800D01*
G75*
G02*
X135857000Y-102238300I0J-237500D01*
G01*
X135857000Y-102813300D01*
G75*
G02*
X135619500Y-103050800I-237500J0D01*
G01*
X135144500Y-103050800D01*
G75*
G02*
X134907000Y-102813300I0J237500D01*
G01*
X134907000Y-102238300D01*
G75*
G02*
X135144500Y-102000800I237500J0D01*
G01*
G37*
G04 #@! TD.AperFunction*
G04 #@! TA.AperFunction,SMDPad,CuDef*
G36*
G01*
X135144500Y-100250800D02*
X135619500Y-100250800D01*
G75*
G02*
X135857000Y-100488300I0J-237500D01*
G01*
X135857000Y-101063300D01*
G75*
G02*
X135619500Y-101300800I-237500J0D01*
G01*
X135144500Y-101300800D01*
G75*
G02*
X134907000Y-101063300I0J237500D01*
G01*
X134907000Y-100488300D01*
G75*
G02*
X135144500Y-100250800I237500J0D01*
G01*
G37*
G04 #@! TD.AperFunction*
G04 #@! TA.AperFunction,SMDPad,CuDef*
G36*
G01*
X136287500Y-95142800D02*
X136762500Y-95142800D01*
G75*
G02*
X137000000Y-95380300I0J-237500D01*
G01*
X137000000Y-95955300D01*
G75*
G02*
X136762500Y-96192800I-237500J0D01*
G01*
X136287500Y-96192800D01*
G75*
G02*
X136050000Y-95955300I0J237500D01*
G01*
X136050000Y-95380300D01*
G75*
G02*
X136287500Y-95142800I237500J0D01*
G01*
G37*
G04 #@! TD.AperFunction*
G04 #@! TA.AperFunction,SMDPad,CuDef*
G36*
G01*
X136287500Y-93392800D02*
X136762500Y-93392800D01*
G75*
G02*
X137000000Y-93630300I0J-237500D01*
G01*
X137000000Y-94205300D01*
G75*
G02*
X136762500Y-94442800I-237500J0D01*
G01*
X136287500Y-94442800D01*
G75*
G02*
X136050000Y-94205300I0J237500D01*
G01*
X136050000Y-93630300D01*
G75*
G02*
X136287500Y-93392800I237500J0D01*
G01*
G37*
G04 #@! TD.AperFunction*
G04 #@! TA.AperFunction,SMDPad,CuDef*
G36*
G01*
X133239500Y-95142800D02*
X133714500Y-95142800D01*
G75*
G02*
X133952000Y-95380300I0J-237500D01*
G01*
X133952000Y-95955300D01*
G75*
G02*
X133714500Y-96192800I-237500J0D01*
G01*
X133239500Y-96192800D01*
G75*
G02*
X133002000Y-95955300I0J237500D01*
G01*
X133002000Y-95380300D01*
G75*
G02*
X133239500Y-95142800I237500J0D01*
G01*
G37*
G04 #@! TD.AperFunction*
G04 #@! TA.AperFunction,SMDPad,CuDef*
G36*
G01*
X133239500Y-93392800D02*
X133714500Y-93392800D01*
G75*
G02*
X133952000Y-93630300I0J-237500D01*
G01*
X133952000Y-94205300D01*
G75*
G02*
X133714500Y-94442800I-237500J0D01*
G01*
X133239500Y-94442800D01*
G75*
G02*
X133002000Y-94205300I0J237500D01*
G01*
X133002000Y-93630300D01*
G75*
G02*
X133239500Y-93392800I237500J0D01*
G01*
G37*
G04 #@! TD.AperFunction*
G04 #@! TA.AperFunction,SMDPad,CuDef*
G36*
G01*
X131461500Y-120796800D02*
X131936500Y-120796800D01*
G75*
G02*
X132174000Y-121034300I0J-237500D01*
G01*
X132174000Y-121609300D01*
G75*
G02*
X131936500Y-121846800I-237500J0D01*
G01*
X131461500Y-121846800D01*
G75*
G02*
X131224000Y-121609300I0J237500D01*
G01*
X131224000Y-121034300D01*
G75*
G02*
X131461500Y-120796800I237500J0D01*
G01*
G37*
G04 #@! TD.AperFunction*
G04 #@! TA.AperFunction,SMDPad,CuDef*
G36*
G01*
X131461500Y-119046800D02*
X131936500Y-119046800D01*
G75*
G02*
X132174000Y-119284300I0J-237500D01*
G01*
X132174000Y-119859300D01*
G75*
G02*
X131936500Y-120096800I-237500J0D01*
G01*
X131461500Y-120096800D01*
G75*
G02*
X131224000Y-119859300I0J237500D01*
G01*
X131224000Y-119284300D01*
G75*
G02*
X131461500Y-119046800I237500J0D01*
G01*
G37*
G04 #@! TD.AperFunction*
G04 #@! TA.AperFunction,SMDPad,CuDef*
G36*
G01*
X133874500Y-105697800D02*
X134349500Y-105697800D01*
G75*
G02*
X134587000Y-105935300I0J-237500D01*
G01*
X134587000Y-106510300D01*
G75*
G02*
X134349500Y-106747800I-237500J0D01*
G01*
X133874500Y-106747800D01*
G75*
G02*
X133637000Y-106510300I0J237500D01*
G01*
X133637000Y-105935300D01*
G75*
G02*
X133874500Y-105697800I237500J0D01*
G01*
G37*
G04 #@! TD.AperFunction*
G04 #@! TA.AperFunction,SMDPad,CuDef*
G36*
G01*
X133874500Y-103947800D02*
X134349500Y-103947800D01*
G75*
G02*
X134587000Y-104185300I0J-237500D01*
G01*
X134587000Y-104760300D01*
G75*
G02*
X134349500Y-104997800I-237500J0D01*
G01*
X133874500Y-104997800D01*
G75*
G02*
X133637000Y-104760300I0J237500D01*
G01*
X133637000Y-104185300D01*
G75*
G02*
X133874500Y-103947800I237500J0D01*
G01*
G37*
G04 #@! TD.AperFunction*
G04 #@! TA.AperFunction,SMDPad,CuDef*
G36*
G01*
X133747500Y-118383800D02*
X134222500Y-118383800D01*
G75*
G02*
X134460000Y-118621300I0J-237500D01*
G01*
X134460000Y-119196300D01*
G75*
G02*
X134222500Y-119433800I-237500J0D01*
G01*
X133747500Y-119433800D01*
G75*
G02*
X133510000Y-119196300I0J237500D01*
G01*
X133510000Y-118621300D01*
G75*
G02*
X133747500Y-118383800I237500J0D01*
G01*
G37*
G04 #@! TD.AperFunction*
G04 #@! TA.AperFunction,SMDPad,CuDef*
G36*
G01*
X133747500Y-116633800D02*
X134222500Y-116633800D01*
G75*
G02*
X134460000Y-116871300I0J-237500D01*
G01*
X134460000Y-117446300D01*
G75*
G02*
X134222500Y-117683800I-237500J0D01*
G01*
X133747500Y-117683800D01*
G75*
G02*
X133510000Y-117446300I0J237500D01*
G01*
X133510000Y-116871300D01*
G75*
G02*
X133747500Y-116633800I237500J0D01*
G01*
G37*
G04 #@! TD.AperFunction*
G04 #@! TA.AperFunction,SMDPad,CuDef*
G36*
G01*
X133747500Y-114968800D02*
X134222500Y-114968800D01*
G75*
G02*
X134460000Y-115206300I0J-237500D01*
G01*
X134460000Y-115781300D01*
G75*
G02*
X134222500Y-116018800I-237500J0D01*
G01*
X133747500Y-116018800D01*
G75*
G02*
X133510000Y-115781300I0J237500D01*
G01*
X133510000Y-115206300D01*
G75*
G02*
X133747500Y-114968800I237500J0D01*
G01*
G37*
G04 #@! TD.AperFunction*
G04 #@! TA.AperFunction,SMDPad,CuDef*
G36*
G01*
X133747500Y-113218800D02*
X134222500Y-113218800D01*
G75*
G02*
X134460000Y-113456300I0J-237500D01*
G01*
X134460000Y-114031300D01*
G75*
G02*
X134222500Y-114268800I-237500J0D01*
G01*
X133747500Y-114268800D01*
G75*
G02*
X133510000Y-114031300I0J237500D01*
G01*
X133510000Y-113456300D01*
G75*
G02*
X133747500Y-113218800I237500J0D01*
G01*
G37*
G04 #@! TD.AperFunction*
G04 #@! TA.AperFunction,SMDPad,CuDef*
G36*
G01*
X131842500Y-108110800D02*
X132317500Y-108110800D01*
G75*
G02*
X132555000Y-108348300I0J-237500D01*
G01*
X132555000Y-108923300D01*
G75*
G02*
X132317500Y-109160800I-237500J0D01*
G01*
X131842500Y-109160800D01*
G75*
G02*
X131605000Y-108923300I0J237500D01*
G01*
X131605000Y-108348300D01*
G75*
G02*
X131842500Y-108110800I237500J0D01*
G01*
G37*
G04 #@! TD.AperFunction*
G04 #@! TA.AperFunction,SMDPad,CuDef*
G36*
G01*
X131842500Y-106360800D02*
X132317500Y-106360800D01*
G75*
G02*
X132555000Y-106598300I0J-237500D01*
G01*
X132555000Y-107173300D01*
G75*
G02*
X132317500Y-107410800I-237500J0D01*
G01*
X131842500Y-107410800D01*
G75*
G02*
X131605000Y-107173300I0J237500D01*
G01*
X131605000Y-106598300D01*
G75*
G02*
X131842500Y-106360800I237500J0D01*
G01*
G37*
G04 #@! TD.AperFunction*
G04 #@! TA.AperFunction,SMDPad,CuDef*
G36*
G01*
X132223500Y-98585800D02*
X132698500Y-98585800D01*
G75*
G02*
X132936000Y-98823300I0J-237500D01*
G01*
X132936000Y-99398300D01*
G75*
G02*
X132698500Y-99635800I-237500J0D01*
G01*
X132223500Y-99635800D01*
G75*
G02*
X131986000Y-99398300I0J237500D01*
G01*
X131986000Y-98823300D01*
G75*
G02*
X132223500Y-98585800I237500J0D01*
G01*
G37*
G04 #@! TD.AperFunction*
G04 #@! TA.AperFunction,SMDPad,CuDef*
G36*
G01*
X132223500Y-96835800D02*
X132698500Y-96835800D01*
G75*
G02*
X132936000Y-97073300I0J-237500D01*
G01*
X132936000Y-97648300D01*
G75*
G02*
X132698500Y-97885800I-237500J0D01*
G01*
X132223500Y-97885800D01*
G75*
G02*
X131986000Y-97648300I0J237500D01*
G01*
X131986000Y-97073300D01*
G75*
G02*
X132223500Y-96835800I237500J0D01*
G01*
G37*
G04 #@! TD.AperFunction*
G04 #@! TA.AperFunction,SMDPad,CuDef*
G36*
G01*
X133239500Y-91727800D02*
X133714500Y-91727800D01*
G75*
G02*
X133952000Y-91965300I0J-237500D01*
G01*
X133952000Y-92540300D01*
G75*
G02*
X133714500Y-92777800I-237500J0D01*
G01*
X133239500Y-92777800D01*
G75*
G02*
X133002000Y-92540300I0J237500D01*
G01*
X133002000Y-91965300D01*
G75*
G02*
X133239500Y-91727800I237500J0D01*
G01*
G37*
G04 #@! TD.AperFunction*
G04 #@! TA.AperFunction,SMDPad,CuDef*
G36*
G01*
X133239500Y-89977800D02*
X133714500Y-89977800D01*
G75*
G02*
X133952000Y-90215300I0J-237500D01*
G01*
X133952000Y-90790300D01*
G75*
G02*
X133714500Y-91027800I-237500J0D01*
G01*
X133239500Y-91027800D01*
G75*
G02*
X133002000Y-90790300I0J237500D01*
G01*
X133002000Y-90215300D01*
G75*
G02*
X133239500Y-89977800I237500J0D01*
G01*
G37*
G04 #@! TD.AperFunction*
G04 #@! TA.AperFunction,SMDPad,CuDef*
G36*
G01*
X135144500Y-98585800D02*
X135619500Y-98585800D01*
G75*
G02*
X135857000Y-98823300I0J-237500D01*
G01*
X135857000Y-99398300D01*
G75*
G02*
X135619500Y-99635800I-237500J0D01*
G01*
X135144500Y-99635800D01*
G75*
G02*
X134907000Y-99398300I0J237500D01*
G01*
X134907000Y-98823300D01*
G75*
G02*
X135144500Y-98585800I237500J0D01*
G01*
G37*
G04 #@! TD.AperFunction*
G04 #@! TA.AperFunction,SMDPad,CuDef*
G36*
G01*
X135144500Y-96835800D02*
X135619500Y-96835800D01*
G75*
G02*
X135857000Y-97073300I0J-237500D01*
G01*
X135857000Y-97648300D01*
G75*
G02*
X135619500Y-97885800I-237500J0D01*
G01*
X135144500Y-97885800D01*
G75*
G02*
X134907000Y-97648300I0J237500D01*
G01*
X134907000Y-97073300D01*
G75*
G02*
X135144500Y-96835800I237500J0D01*
G01*
G37*
G04 #@! TD.AperFunction*
G04 #@! TA.AperFunction,SMDPad,CuDef*
G36*
G01*
X131461500Y-117381800D02*
X131936500Y-117381800D01*
G75*
G02*
X132174000Y-117619300I0J-237500D01*
G01*
X132174000Y-118194300D01*
G75*
G02*
X131936500Y-118431800I-237500J0D01*
G01*
X131461500Y-118431800D01*
G75*
G02*
X131224000Y-118194300I0J237500D01*
G01*
X131224000Y-117619300D01*
G75*
G02*
X131461500Y-117381800I237500J0D01*
G01*
G37*
G04 #@! TD.AperFunction*
G04 #@! TA.AperFunction,SMDPad,CuDef*
G36*
G01*
X131461500Y-115631800D02*
X131936500Y-115631800D01*
G75*
G02*
X132174000Y-115869300I0J-237500D01*
G01*
X132174000Y-116444300D01*
G75*
G02*
X131936500Y-116681800I-237500J0D01*
G01*
X131461500Y-116681800D01*
G75*
G02*
X131224000Y-116444300I0J237500D01*
G01*
X131224000Y-115869300D01*
G75*
G02*
X131461500Y-115631800I237500J0D01*
G01*
G37*
G04 #@! TD.AperFunction*
G04 #@! TA.AperFunction,SMDPad,CuDef*
G36*
G01*
X136287500Y-91727800D02*
X136762500Y-91727800D01*
G75*
G02*
X137000000Y-91965300I0J-237500D01*
G01*
X137000000Y-92540300D01*
G75*
G02*
X136762500Y-92777800I-237500J0D01*
G01*
X136287500Y-92777800D01*
G75*
G02*
X136050000Y-92540300I0J237500D01*
G01*
X136050000Y-91965300D01*
G75*
G02*
X136287500Y-91727800I237500J0D01*
G01*
G37*
G04 #@! TD.AperFunction*
G04 #@! TA.AperFunction,SMDPad,CuDef*
G36*
G01*
X136287500Y-89977800D02*
X136762500Y-89977800D01*
G75*
G02*
X137000000Y-90215300I0J-237500D01*
G01*
X137000000Y-90790300D01*
G75*
G02*
X136762500Y-91027800I-237500J0D01*
G01*
X136287500Y-91027800D01*
G75*
G02*
X136050000Y-90790300I0J237500D01*
G01*
X136050000Y-90215300D01*
G75*
G02*
X136287500Y-89977800I237500J0D01*
G01*
G37*
G04 #@! TD.AperFunction*
G04 #@! TA.AperFunction,SMDPad,CuDef*
G36*
G01*
X135605000Y-131733300D02*
X135605000Y-131258300D01*
G75*
G02*
X135842500Y-131020800I237500J0D01*
G01*
X136417500Y-131020800D01*
G75*
G02*
X136655000Y-131258300I0J-237500D01*
G01*
X136655000Y-131733300D01*
G75*
G02*
X136417500Y-131970800I-237500J0D01*
G01*
X135842500Y-131970800D01*
G75*
G02*
X135605000Y-131733300I0J237500D01*
G01*
G37*
G04 #@! TD.AperFunction*
G04 #@! TA.AperFunction,SMDPad,CuDef*
G36*
G01*
X133855000Y-131733300D02*
X133855000Y-131258300D01*
G75*
G02*
X134092500Y-131020800I237500J0D01*
G01*
X134667500Y-131020800D01*
G75*
G02*
X134905000Y-131258300I0J-237500D01*
G01*
X134905000Y-131733300D01*
G75*
G02*
X134667500Y-131970800I-237500J0D01*
G01*
X134092500Y-131970800D01*
G75*
G02*
X133855000Y-131733300I0J237500D01*
G01*
G37*
G04 #@! TD.AperFunction*
G04 #@! TA.AperFunction,SMDPad,CuDef*
G36*
G01*
X133700000Y-126272300D02*
X133700000Y-125797300D01*
G75*
G02*
X133937500Y-125559800I237500J0D01*
G01*
X134512500Y-125559800D01*
G75*
G02*
X134750000Y-125797300I0J-237500D01*
G01*
X134750000Y-126272300D01*
G75*
G02*
X134512500Y-126509800I-237500J0D01*
G01*
X133937500Y-126509800D01*
G75*
G02*
X133700000Y-126272300I0J237500D01*
G01*
G37*
G04 #@! TD.AperFunction*
G04 #@! TA.AperFunction,SMDPad,CuDef*
G36*
G01*
X131950000Y-126272300D02*
X131950000Y-125797300D01*
G75*
G02*
X132187500Y-125559800I237500J0D01*
G01*
X132762500Y-125559800D01*
G75*
G02*
X133000000Y-125797300I0J-237500D01*
G01*
X133000000Y-126272300D01*
G75*
G02*
X132762500Y-126509800I-237500J0D01*
G01*
X132187500Y-126509800D01*
G75*
G02*
X131950000Y-126272300I0J237500D01*
G01*
G37*
G04 #@! TD.AperFunction*
G04 #@! TA.AperFunction,SMDPad,CuDef*
G36*
G01*
X131795000Y-131733300D02*
X131795000Y-131258300D01*
G75*
G02*
X132032500Y-131020800I237500J0D01*
G01*
X132607500Y-131020800D01*
G75*
G02*
X132845000Y-131258300I0J-237500D01*
G01*
X132845000Y-131733300D01*
G75*
G02*
X132607500Y-131970800I-237500J0D01*
G01*
X132032500Y-131970800D01*
G75*
G02*
X131795000Y-131733300I0J237500D01*
G01*
G37*
G04 #@! TD.AperFunction*
G04 #@! TA.AperFunction,SMDPad,CuDef*
G36*
G01*
X130045000Y-131733300D02*
X130045000Y-131258300D01*
G75*
G02*
X130282500Y-131020800I237500J0D01*
G01*
X130857500Y-131020800D01*
G75*
G02*
X131095000Y-131258300I0J-237500D01*
G01*
X131095000Y-131733300D01*
G75*
G02*
X130857500Y-131970800I-237500J0D01*
G01*
X130282500Y-131970800D01*
G75*
G02*
X130045000Y-131733300I0J237500D01*
G01*
G37*
G04 #@! TD.AperFunction*
G04 #@! TA.AperFunction,SMDPad,CuDef*
G36*
G01*
X131047500Y-127843800D02*
X130572500Y-127843800D01*
G75*
G02*
X130335000Y-127606300I0J237500D01*
G01*
X130335000Y-127031300D01*
G75*
G02*
X130572500Y-126793800I237500J0D01*
G01*
X131047500Y-126793800D01*
G75*
G02*
X131285000Y-127031300I0J-237500D01*
G01*
X131285000Y-127606300D01*
G75*
G02*
X131047500Y-127843800I-237500J0D01*
G01*
G37*
G04 #@! TD.AperFunction*
G04 #@! TA.AperFunction,SMDPad,CuDef*
G36*
G01*
X131047500Y-129593800D02*
X130572500Y-129593800D01*
G75*
G02*
X130335000Y-129356300I0J237500D01*
G01*
X130335000Y-128781300D01*
G75*
G02*
X130572500Y-128543800I237500J0D01*
G01*
X131047500Y-128543800D01*
G75*
G02*
X131285000Y-128781300I0J-237500D01*
G01*
X131285000Y-129356300D01*
G75*
G02*
X131047500Y-129593800I-237500J0D01*
G01*
G37*
G04 #@! TD.AperFunction*
D12*
X133350000Y-128574800D03*
D13*
X132850000Y-127622400D03*
X133350000Y-127622400D03*
X133850000Y-127622400D03*
X133850000Y-129527200D03*
X133350000Y-129527200D03*
X132850000Y-129527200D03*
G04 #@! TA.AperFunction,SMDPad,CuDef*
G36*
G01*
X106917500Y-111841800D02*
X106442500Y-111841800D01*
G75*
G02*
X106205000Y-111604300I0J237500D01*
G01*
X106205000Y-111029300D01*
G75*
G02*
X106442500Y-110791800I237500J0D01*
G01*
X106917500Y-110791800D01*
G75*
G02*
X107155000Y-111029300I0J-237500D01*
G01*
X107155000Y-111604300D01*
G75*
G02*
X106917500Y-111841800I-237500J0D01*
G01*
G37*
G04 #@! TD.AperFunction*
G04 #@! TA.AperFunction,SMDPad,CuDef*
G36*
G01*
X106917500Y-113591800D02*
X106442500Y-113591800D01*
G75*
G02*
X106205000Y-113354300I0J237500D01*
G01*
X106205000Y-112779300D01*
G75*
G02*
X106442500Y-112541800I237500J0D01*
G01*
X106917500Y-112541800D01*
G75*
G02*
X107155000Y-112779300I0J-237500D01*
G01*
X107155000Y-113354300D01*
G75*
G02*
X106917500Y-113591800I-237500J0D01*
G01*
G37*
G04 #@! TD.AperFunction*
G04 #@! TA.AperFunction,SMDPad,CuDef*
G36*
G01*
X106917500Y-104348800D02*
X106442500Y-104348800D01*
G75*
G02*
X106205000Y-104111300I0J237500D01*
G01*
X106205000Y-103536300D01*
G75*
G02*
X106442500Y-103298800I237500J0D01*
G01*
X106917500Y-103298800D01*
G75*
G02*
X107155000Y-103536300I0J-237500D01*
G01*
X107155000Y-104111300D01*
G75*
G02*
X106917500Y-104348800I-237500J0D01*
G01*
G37*
G04 #@! TD.AperFunction*
G04 #@! TA.AperFunction,SMDPad,CuDef*
G36*
G01*
X106917500Y-106098800D02*
X106442500Y-106098800D01*
G75*
G02*
X106205000Y-105861300I0J237500D01*
G01*
X106205000Y-105286300D01*
G75*
G02*
X106442500Y-105048800I237500J0D01*
G01*
X106917500Y-105048800D01*
G75*
G02*
X107155000Y-105286300I0J-237500D01*
G01*
X107155000Y-105861300D01*
G75*
G02*
X106917500Y-106098800I-237500J0D01*
G01*
G37*
G04 #@! TD.AperFunction*
D14*
X118121000Y-114306800D03*
X118121000Y-113806800D03*
X118121000Y-113306800D03*
X118121000Y-112806800D03*
X118121000Y-112306800D03*
X118121000Y-111806800D03*
X118121000Y-111306800D03*
X118121000Y-110806800D03*
X118121000Y-110306800D03*
X118121000Y-109806800D03*
X118121000Y-109306800D03*
X118121000Y-108806800D03*
D15*
X119551000Y-107376800D03*
X120051000Y-107376800D03*
X120551000Y-107376800D03*
X121051000Y-107376800D03*
X121551000Y-107376800D03*
X122051000Y-107376800D03*
X122551000Y-107376800D03*
X123051000Y-107376800D03*
X123551000Y-107376800D03*
X124051000Y-107376800D03*
X124551000Y-107376800D03*
X125051000Y-107376800D03*
D14*
X126481000Y-108806800D03*
X126481000Y-109306800D03*
X126481000Y-109806800D03*
X126481000Y-110306800D03*
X126481000Y-110806800D03*
X126481000Y-111306800D03*
X126481000Y-111806800D03*
X126481000Y-112306800D03*
X126481000Y-112806800D03*
X126481000Y-113306800D03*
X126481000Y-113806800D03*
X126481000Y-114306800D03*
D15*
X125051000Y-115736800D03*
X124551000Y-115736800D03*
X124051000Y-115736800D03*
X123551000Y-115736800D03*
X123051000Y-115736800D03*
X122551000Y-115736800D03*
X122051000Y-115736800D03*
X121551000Y-115736800D03*
X121051000Y-115736800D03*
X120551000Y-115736800D03*
X120051000Y-115736800D03*
X119551000Y-115736800D03*
G04 #@! TA.AperFunction,SMDPad,CuDef*
G36*
G01*
X114918500Y-110063800D02*
X114443500Y-110063800D01*
G75*
G02*
X114206000Y-109826300I0J237500D01*
G01*
X114206000Y-109251300D01*
G75*
G02*
X114443500Y-109013800I237500J0D01*
G01*
X114918500Y-109013800D01*
G75*
G02*
X115156000Y-109251300I0J-237500D01*
G01*
X115156000Y-109826300D01*
G75*
G02*
X114918500Y-110063800I-237500J0D01*
G01*
G37*
G04 #@! TD.AperFunction*
G04 #@! TA.AperFunction,SMDPad,CuDef*
G36*
G01*
X114918500Y-111813800D02*
X114443500Y-111813800D01*
G75*
G02*
X114206000Y-111576300I0J237500D01*
G01*
X114206000Y-111001300D01*
G75*
G02*
X114443500Y-110763800I237500J0D01*
G01*
X114918500Y-110763800D01*
G75*
G02*
X115156000Y-111001300I0J-237500D01*
G01*
X115156000Y-111576300D01*
G75*
G02*
X114918500Y-111813800I-237500J0D01*
G01*
G37*
G04 #@! TD.AperFunction*
D16*
X107061000Y-116906800D03*
X108011000Y-118906800D03*
X106111000Y-118906800D03*
G04 #@! TA.AperFunction,SMDPad,CuDef*
G36*
G01*
X109838500Y-122636800D02*
X109363500Y-122636800D01*
G75*
G02*
X109126000Y-122399300I0J237500D01*
G01*
X109126000Y-121824300D01*
G75*
G02*
X109363500Y-121586800I237500J0D01*
G01*
X109838500Y-121586800D01*
G75*
G02*
X110076000Y-121824300I0J-237500D01*
G01*
X110076000Y-122399300D01*
G75*
G02*
X109838500Y-122636800I-237500J0D01*
G01*
G37*
G04 #@! TD.AperFunction*
G04 #@! TA.AperFunction,SMDPad,CuDef*
G36*
G01*
X109838500Y-124386800D02*
X109363500Y-124386800D01*
G75*
G02*
X109126000Y-124149300I0J237500D01*
G01*
X109126000Y-123574300D01*
G75*
G02*
X109363500Y-123336800I237500J0D01*
G01*
X109838500Y-123336800D01*
G75*
G02*
X110076000Y-123574300I0J-237500D01*
G01*
X110076000Y-124149300D01*
G75*
G02*
X109838500Y-124386800I-237500J0D01*
G01*
G37*
G04 #@! TD.AperFunction*
G04 #@! TA.AperFunction,SMDPad,CuDef*
G36*
G01*
X125078500Y-122636800D02*
X124603500Y-122636800D01*
G75*
G02*
X124366000Y-122399300I0J237500D01*
G01*
X124366000Y-121824300D01*
G75*
G02*
X124603500Y-121586800I237500J0D01*
G01*
X125078500Y-121586800D01*
G75*
G02*
X125316000Y-121824300I0J-237500D01*
G01*
X125316000Y-122399300D01*
G75*
G02*
X125078500Y-122636800I-237500J0D01*
G01*
G37*
G04 #@! TD.AperFunction*
G04 #@! TA.AperFunction,SMDPad,CuDef*
G36*
G01*
X125078500Y-124386800D02*
X124603500Y-124386800D01*
G75*
G02*
X124366000Y-124149300I0J237500D01*
G01*
X124366000Y-123574300D01*
G75*
G02*
X124603500Y-123336800I237500J0D01*
G01*
X125078500Y-123336800D01*
G75*
G02*
X125316000Y-123574300I0J-237500D01*
G01*
X125316000Y-124149300D01*
G75*
G02*
X125078500Y-124386800I-237500J0D01*
G01*
G37*
G04 #@! TD.AperFunction*
G04 #@! TA.AperFunction,SMDPad,CuDef*
G36*
G01*
X112491000Y-118144300D02*
X112491000Y-117669300D01*
G75*
G02*
X112728500Y-117431800I237500J0D01*
G01*
X113303500Y-117431800D01*
G75*
G02*
X113541000Y-117669300I0J-237500D01*
G01*
X113541000Y-118144300D01*
G75*
G02*
X113303500Y-118381800I-237500J0D01*
G01*
X112728500Y-118381800D01*
G75*
G02*
X112491000Y-118144300I0J237500D01*
G01*
G37*
G04 #@! TD.AperFunction*
G04 #@! TA.AperFunction,SMDPad,CuDef*
G36*
G01*
X110741000Y-118144300D02*
X110741000Y-117669300D01*
G75*
G02*
X110978500Y-117431800I237500J0D01*
G01*
X111553500Y-117431800D01*
G75*
G02*
X111791000Y-117669300I0J-237500D01*
G01*
X111791000Y-118144300D01*
G75*
G02*
X111553500Y-118381800I-237500J0D01*
G01*
X110978500Y-118381800D01*
G75*
G02*
X110741000Y-118144300I0J237500D01*
G01*
G37*
G04 #@! TD.AperFunction*
G04 #@! TA.AperFunction,SMDPad,CuDef*
G36*
G01*
X126080000Y-120684300D02*
X126080000Y-120209300D01*
G75*
G02*
X126317500Y-119971800I237500J0D01*
G01*
X126892500Y-119971800D01*
G75*
G02*
X127130000Y-120209300I0J-237500D01*
G01*
X127130000Y-120684300D01*
G75*
G02*
X126892500Y-120921800I-237500J0D01*
G01*
X126317500Y-120921800D01*
G75*
G02*
X126080000Y-120684300I0J237500D01*
G01*
G37*
G04 #@! TD.AperFunction*
G04 #@! TA.AperFunction,SMDPad,CuDef*
G36*
G01*
X124330000Y-120684300D02*
X124330000Y-120209300D01*
G75*
G02*
X124567500Y-119971800I237500J0D01*
G01*
X125142500Y-119971800D01*
G75*
G02*
X125380000Y-120209300I0J-237500D01*
G01*
X125380000Y-120684300D01*
G75*
G02*
X125142500Y-120921800I-237500J0D01*
G01*
X124567500Y-120921800D01*
G75*
G02*
X124330000Y-120684300I0J237500D01*
G01*
G37*
G04 #@! TD.AperFunction*
G04 #@! TA.AperFunction,SMDPad,CuDef*
G36*
G01*
X117113800Y-118144300D02*
X117113800Y-117669300D01*
G75*
G02*
X117351300Y-117431800I237500J0D01*
G01*
X117926300Y-117431800D01*
G75*
G02*
X118163800Y-117669300I0J-237500D01*
G01*
X118163800Y-118144300D01*
G75*
G02*
X117926300Y-118381800I-237500J0D01*
G01*
X117351300Y-118381800D01*
G75*
G02*
X117113800Y-118144300I0J237500D01*
G01*
G37*
G04 #@! TD.AperFunction*
G04 #@! TA.AperFunction,SMDPad,CuDef*
G36*
G01*
X115363800Y-118144300D02*
X115363800Y-117669300D01*
G75*
G02*
X115601300Y-117431800I237500J0D01*
G01*
X116176300Y-117431800D01*
G75*
G02*
X116413800Y-117669300I0J-237500D01*
G01*
X116413800Y-118144300D01*
G75*
G02*
X116176300Y-118381800I-237500J0D01*
G01*
X115601300Y-118381800D01*
G75*
G02*
X115363800Y-118144300I0J237500D01*
G01*
G37*
G04 #@! TD.AperFunction*
G04 #@! TA.AperFunction,SMDPad,CuDef*
G36*
G01*
X127158000Y-102429300D02*
X127158000Y-102904300D01*
G75*
G02*
X126920500Y-103141800I-237500J0D01*
G01*
X126345500Y-103141800D01*
G75*
G02*
X126108000Y-102904300I0J237500D01*
G01*
X126108000Y-102429300D01*
G75*
G02*
X126345500Y-102191800I237500J0D01*
G01*
X126920500Y-102191800D01*
G75*
G02*
X127158000Y-102429300I0J-237500D01*
G01*
G37*
G04 #@! TD.AperFunction*
G04 #@! TA.AperFunction,SMDPad,CuDef*
G36*
G01*
X128908000Y-102429300D02*
X128908000Y-102904300D01*
G75*
G02*
X128670500Y-103141800I-237500J0D01*
G01*
X128095500Y-103141800D01*
G75*
G02*
X127858000Y-102904300I0J237500D01*
G01*
X127858000Y-102429300D01*
G75*
G02*
X128095500Y-102191800I237500J0D01*
G01*
X128670500Y-102191800D01*
G75*
G02*
X128908000Y-102429300I0J-237500D01*
G01*
G37*
G04 #@! TD.AperFunction*
G04 #@! TA.AperFunction,SMDPad,CuDef*
G36*
G01*
X127158000Y-100143300D02*
X127158000Y-100618300D01*
G75*
G02*
X126920500Y-100855800I-237500J0D01*
G01*
X126345500Y-100855800D01*
G75*
G02*
X126108000Y-100618300I0J237500D01*
G01*
X126108000Y-100143300D01*
G75*
G02*
X126345500Y-99905800I237500J0D01*
G01*
X126920500Y-99905800D01*
G75*
G02*
X127158000Y-100143300I0J-237500D01*
G01*
G37*
G04 #@! TD.AperFunction*
G04 #@! TA.AperFunction,SMDPad,CuDef*
G36*
G01*
X128908000Y-100143300D02*
X128908000Y-100618300D01*
G75*
G02*
X128670500Y-100855800I-237500J0D01*
G01*
X128095500Y-100855800D01*
G75*
G02*
X127858000Y-100618300I0J237500D01*
G01*
X127858000Y-100143300D01*
G75*
G02*
X128095500Y-99905800I237500J0D01*
G01*
X128670500Y-99905800D01*
G75*
G02*
X128908000Y-100143300I0J-237500D01*
G01*
G37*
G04 #@! TD.AperFunction*
G04 #@! TA.AperFunction,SMDPad,CuDef*
G36*
G01*
X125761000Y-104969300D02*
X125761000Y-105444300D01*
G75*
G02*
X125523500Y-105681800I-237500J0D01*
G01*
X124948500Y-105681800D01*
G75*
G02*
X124711000Y-105444300I0J237500D01*
G01*
X124711000Y-104969300D01*
G75*
G02*
X124948500Y-104731800I237500J0D01*
G01*
X125523500Y-104731800D01*
G75*
G02*
X125761000Y-104969300I0J-237500D01*
G01*
G37*
G04 #@! TD.AperFunction*
G04 #@! TA.AperFunction,SMDPad,CuDef*
G36*
G01*
X127511000Y-104969300D02*
X127511000Y-105444300D01*
G75*
G02*
X127273500Y-105681800I-237500J0D01*
G01*
X126698500Y-105681800D01*
G75*
G02*
X126461000Y-105444300I0J237500D01*
G01*
X126461000Y-104969300D01*
G75*
G02*
X126698500Y-104731800I237500J0D01*
G01*
X127273500Y-104731800D01*
G75*
G02*
X127511000Y-104969300I0J-237500D01*
G01*
G37*
G04 #@! TD.AperFunction*
G04 #@! TA.AperFunction,SMDPad,CuDef*
G36*
G01*
X127364500Y-95077800D02*
X126889500Y-95077800D01*
G75*
G02*
X126652000Y-94840300I0J237500D01*
G01*
X126652000Y-94265300D01*
G75*
G02*
X126889500Y-94027800I237500J0D01*
G01*
X127364500Y-94027800D01*
G75*
G02*
X127602000Y-94265300I0J-237500D01*
G01*
X127602000Y-94840300D01*
G75*
G02*
X127364500Y-95077800I-237500J0D01*
G01*
G37*
G04 #@! TD.AperFunction*
G04 #@! TA.AperFunction,SMDPad,CuDef*
G36*
G01*
X127364500Y-96827800D02*
X126889500Y-96827800D01*
G75*
G02*
X126652000Y-96590300I0J237500D01*
G01*
X126652000Y-96015300D01*
G75*
G02*
X126889500Y-95777800I237500J0D01*
G01*
X127364500Y-95777800D01*
G75*
G02*
X127602000Y-96015300I0J-237500D01*
G01*
X127602000Y-96590300D01*
G75*
G02*
X127364500Y-96827800I-237500J0D01*
G01*
G37*
G04 #@! TD.AperFunction*
G04 #@! TA.AperFunction,SMDPad,CuDef*
G36*
G01*
X127364500Y-91648800D02*
X126889500Y-91648800D01*
G75*
G02*
X126652000Y-91411300I0J237500D01*
G01*
X126652000Y-90836300D01*
G75*
G02*
X126889500Y-90598800I237500J0D01*
G01*
X127364500Y-90598800D01*
G75*
G02*
X127602000Y-90836300I0J-237500D01*
G01*
X127602000Y-91411300D01*
G75*
G02*
X127364500Y-91648800I-237500J0D01*
G01*
G37*
G04 #@! TD.AperFunction*
G04 #@! TA.AperFunction,SMDPad,CuDef*
G36*
G01*
X127364500Y-93398800D02*
X126889500Y-93398800D01*
G75*
G02*
X126652000Y-93161300I0J237500D01*
G01*
X126652000Y-92586300D01*
G75*
G02*
X126889500Y-92348800I237500J0D01*
G01*
X127364500Y-92348800D01*
G75*
G02*
X127602000Y-92586300I0J-237500D01*
G01*
X127602000Y-93161300D01*
G75*
G02*
X127364500Y-93398800I-237500J0D01*
G01*
G37*
G04 #@! TD.AperFunction*
G04 #@! TA.AperFunction,SMDPad,CuDef*
G36*
G01*
X109378000Y-137354300D02*
X109378000Y-137829300D01*
G75*
G02*
X109140500Y-138066800I-237500J0D01*
G01*
X108565500Y-138066800D01*
G75*
G02*
X108328000Y-137829300I0J237500D01*
G01*
X108328000Y-137354300D01*
G75*
G02*
X108565500Y-137116800I237500J0D01*
G01*
X109140500Y-137116800D01*
G75*
G02*
X109378000Y-137354300I0J-237500D01*
G01*
G37*
G04 #@! TD.AperFunction*
G04 #@! TA.AperFunction,SMDPad,CuDef*
G36*
G01*
X111128000Y-137354300D02*
X111128000Y-137829300D01*
G75*
G02*
X110890500Y-138066800I-237500J0D01*
G01*
X110315500Y-138066800D01*
G75*
G02*
X110078000Y-137829300I0J237500D01*
G01*
X110078000Y-137354300D01*
G75*
G02*
X110315500Y-137116800I237500J0D01*
G01*
X110890500Y-137116800D01*
G75*
G02*
X111128000Y-137354300I0J-237500D01*
G01*
G37*
G04 #@! TD.AperFunction*
G04 #@! TA.AperFunction,SMDPad,CuDef*
G36*
G01*
X109392000Y-134814300D02*
X109392000Y-135289300D01*
G75*
G02*
X109154500Y-135526800I-237500J0D01*
G01*
X108579500Y-135526800D01*
G75*
G02*
X108342000Y-135289300I0J237500D01*
G01*
X108342000Y-134814300D01*
G75*
G02*
X108579500Y-134576800I237500J0D01*
G01*
X109154500Y-134576800D01*
G75*
G02*
X109392000Y-134814300I0J-237500D01*
G01*
G37*
G04 #@! TD.AperFunction*
G04 #@! TA.AperFunction,SMDPad,CuDef*
G36*
G01*
X111142000Y-134814300D02*
X111142000Y-135289300D01*
G75*
G02*
X110904500Y-135526800I-237500J0D01*
G01*
X110329500Y-135526800D01*
G75*
G02*
X110092000Y-135289300I0J237500D01*
G01*
X110092000Y-134814300D01*
G75*
G02*
X110329500Y-134576800I237500J0D01*
G01*
X110904500Y-134576800D01*
G75*
G02*
X111142000Y-134814300I0J-237500D01*
G01*
G37*
G04 #@! TD.AperFunction*
G04 #@! TA.AperFunction,SMDPad,CuDef*
G36*
G01*
X115093000Y-143958300D02*
X115093000Y-144433300D01*
G75*
G02*
X114855500Y-144670800I-237500J0D01*
G01*
X114280500Y-144670800D01*
G75*
G02*
X114043000Y-144433300I0J237500D01*
G01*
X114043000Y-143958300D01*
G75*
G02*
X114280500Y-143720800I237500J0D01*
G01*
X114855500Y-143720800D01*
G75*
G02*
X115093000Y-143958300I0J-237500D01*
G01*
G37*
G04 #@! TD.AperFunction*
G04 #@! TA.AperFunction,SMDPad,CuDef*
G36*
G01*
X116843000Y-143958300D02*
X116843000Y-144433300D01*
G75*
G02*
X116605500Y-144670800I-237500J0D01*
G01*
X116030500Y-144670800D01*
G75*
G02*
X115793000Y-144433300I0J237500D01*
G01*
X115793000Y-143958300D01*
G75*
G02*
X116030500Y-143720800I237500J0D01*
G01*
X116605500Y-143720800D01*
G75*
G02*
X116843000Y-143958300I0J-237500D01*
G01*
G37*
G04 #@! TD.AperFunction*
G04 #@! TA.AperFunction,SMDPad,CuDef*
G36*
G01*
X125761000Y-132147300D02*
X125761000Y-132622300D01*
G75*
G02*
X125523500Y-132859800I-237500J0D01*
G01*
X124948500Y-132859800D01*
G75*
G02*
X124711000Y-132622300I0J237500D01*
G01*
X124711000Y-132147300D01*
G75*
G02*
X124948500Y-131909800I237500J0D01*
G01*
X125523500Y-131909800D01*
G75*
G02*
X125761000Y-132147300I0J-237500D01*
G01*
G37*
G04 #@! TD.AperFunction*
G04 #@! TA.AperFunction,SMDPad,CuDef*
G36*
G01*
X127511000Y-132147300D02*
X127511000Y-132622300D01*
G75*
G02*
X127273500Y-132859800I-237500J0D01*
G01*
X126698500Y-132859800D01*
G75*
G02*
X126461000Y-132622300I0J237500D01*
G01*
X126461000Y-132147300D01*
G75*
G02*
X126698500Y-131909800I237500J0D01*
G01*
X127273500Y-131909800D01*
G75*
G02*
X127511000Y-132147300I0J-237500D01*
G01*
G37*
G04 #@! TD.AperFunction*
D17*
X114046000Y-130701800D03*
X114046000Y-126701800D03*
D18*
X117475000Y-136321800D03*
D19*
X115570000Y-133609800D03*
X116840000Y-133609800D03*
X118110000Y-133609800D03*
X119380000Y-133609800D03*
X119380000Y-139033800D03*
X118110000Y-139033800D03*
X116840000Y-139033800D03*
X115570000Y-139033800D03*
D20*
X124145000Y-135051800D03*
X125095000Y-135051800D03*
X126045000Y-135051800D03*
X126045000Y-137551800D03*
X125095000Y-137551800D03*
X124145000Y-137551800D03*
G04 #@! TA.AperFunction,ComponentPad*
G36*
G01*
X139306000Y-143865800D02*
X137556000Y-143865800D01*
G75*
G02*
X136681000Y-142990800I0J875000D01*
G01*
X136681000Y-141240800D01*
G75*
G02*
X137556000Y-140365800I875000J0D01*
G01*
X139306000Y-140365800D01*
G75*
G02*
X140181000Y-141240800I0J-875000D01*
G01*
X140181000Y-142990800D01*
G75*
G02*
X139306000Y-143865800I-875000J0D01*
G01*
G37*
G04 #@! TD.AperFunction*
G04 #@! TA.AperFunction,ComponentPad*
G36*
G01*
X134731000Y-146615800D02*
X132731000Y-146615800D01*
G75*
G02*
X131981000Y-145865800I0J750000D01*
G01*
X131981000Y-144365800D01*
G75*
G02*
X132731000Y-143615800I750000J0D01*
G01*
X134731000Y-143615800D01*
G75*
G02*
X135481000Y-144365800I0J-750000D01*
G01*
X135481000Y-145865800D01*
G75*
G02*
X134731000Y-146615800I-750000J0D01*
G01*
G37*
G04 #@! TD.AperFunction*
D21*
X133731000Y-139115800D03*
D10*
X109855000Y-132003800D03*
D22*
X116983000Y-130352800D03*
X118983000Y-129402800D03*
X118983000Y-131302800D03*
G04 #@! TA.AperFunction,SMDPad,CuDef*
G36*
G01*
X114443500Y-114446800D02*
X114918500Y-114446800D01*
G75*
G02*
X115156000Y-114684300I0J-237500D01*
G01*
X115156000Y-115259300D01*
G75*
G02*
X114918500Y-115496800I-237500J0D01*
G01*
X114443500Y-115496800D01*
G75*
G02*
X114206000Y-115259300I0J237500D01*
G01*
X114206000Y-114684300D01*
G75*
G02*
X114443500Y-114446800I237500J0D01*
G01*
G37*
G04 #@! TD.AperFunction*
G04 #@! TA.AperFunction,SMDPad,CuDef*
G36*
G01*
X114443500Y-112696800D02*
X114918500Y-112696800D01*
G75*
G02*
X115156000Y-112934300I0J-237500D01*
G01*
X115156000Y-113509300D01*
G75*
G02*
X114918500Y-113746800I-237500J0D01*
G01*
X114443500Y-113746800D01*
G75*
G02*
X114206000Y-113509300I0J237500D01*
G01*
X114206000Y-112934300D01*
G75*
G02*
X114443500Y-112696800I237500J0D01*
G01*
G37*
G04 #@! TD.AperFunction*
G04 #@! TA.AperFunction,SMDPad,CuDef*
G36*
G01*
X115093000Y-140910300D02*
X115093000Y-141385300D01*
G75*
G02*
X114855500Y-141622800I-237500J0D01*
G01*
X114280500Y-141622800D01*
G75*
G02*
X114043000Y-141385300I0J237500D01*
G01*
X114043000Y-140910300D01*
G75*
G02*
X114280500Y-140672800I237500J0D01*
G01*
X114855500Y-140672800D01*
G75*
G02*
X115093000Y-140910300I0J-237500D01*
G01*
G37*
G04 #@! TD.AperFunction*
G04 #@! TA.AperFunction,SMDPad,CuDef*
G36*
G01*
X116843000Y-140910300D02*
X116843000Y-141385300D01*
G75*
G02*
X116605500Y-141622800I-237500J0D01*
G01*
X116030500Y-141622800D01*
G75*
G02*
X115793000Y-141385300I0J237500D01*
G01*
X115793000Y-140910300D01*
G75*
G02*
X116030500Y-140672800I237500J0D01*
G01*
X116605500Y-140672800D01*
G75*
G02*
X116843000Y-140910300I0J-237500D01*
G01*
G37*
G04 #@! TD.AperFunction*
G04 #@! TA.AperFunction,SMDPad,CuDef*
G36*
G01*
X122792500Y-137876800D02*
X122317500Y-137876800D01*
G75*
G02*
X122080000Y-137639300I0J237500D01*
G01*
X122080000Y-137064300D01*
G75*
G02*
X122317500Y-136826800I237500J0D01*
G01*
X122792500Y-136826800D01*
G75*
G02*
X123030000Y-137064300I0J-237500D01*
G01*
X123030000Y-137639300D01*
G75*
G02*
X122792500Y-137876800I-237500J0D01*
G01*
G37*
G04 #@! TD.AperFunction*
G04 #@! TA.AperFunction,SMDPad,CuDef*
G36*
G01*
X122792500Y-139626800D02*
X122317500Y-139626800D01*
G75*
G02*
X122080000Y-139389300I0J237500D01*
G01*
X122080000Y-138814300D01*
G75*
G02*
X122317500Y-138576800I237500J0D01*
G01*
X122792500Y-138576800D01*
G75*
G02*
X123030000Y-138814300I0J-237500D01*
G01*
X123030000Y-139389300D01*
G75*
G02*
X122792500Y-139626800I-237500J0D01*
G01*
G37*
G04 #@! TD.AperFunction*
G04 #@! TA.AperFunction,SMDPad,CuDef*
G36*
G01*
X126461000Y-130336300D02*
X126461000Y-129861300D01*
G75*
G02*
X126698500Y-129623800I237500J0D01*
G01*
X127273500Y-129623800D01*
G75*
G02*
X127511000Y-129861300I0J-237500D01*
G01*
X127511000Y-130336300D01*
G75*
G02*
X127273500Y-130573800I-237500J0D01*
G01*
X126698500Y-130573800D01*
G75*
G02*
X126461000Y-130336300I0J237500D01*
G01*
G37*
G04 #@! TD.AperFunction*
G04 #@! TA.AperFunction,SMDPad,CuDef*
G36*
G01*
X124711000Y-130336300D02*
X124711000Y-129861300D01*
G75*
G02*
X124948500Y-129623800I237500J0D01*
G01*
X125523500Y-129623800D01*
G75*
G02*
X125761000Y-129861300I0J-237500D01*
G01*
X125761000Y-130336300D01*
G75*
G02*
X125523500Y-130573800I-237500J0D01*
G01*
X124948500Y-130573800D01*
G75*
G02*
X124711000Y-130336300I0J237500D01*
G01*
G37*
G04 #@! TD.AperFunction*
G04 #@! TA.AperFunction,SMDPad,CuDef*
G36*
G01*
X112792500Y-135401800D02*
X113267500Y-135401800D01*
G75*
G02*
X113505000Y-135639300I0J-237500D01*
G01*
X113505000Y-136214300D01*
G75*
G02*
X113267500Y-136451800I-237500J0D01*
G01*
X112792500Y-136451800D01*
G75*
G02*
X112555000Y-136214300I0J237500D01*
G01*
X112555000Y-135639300D01*
G75*
G02*
X112792500Y-135401800I237500J0D01*
G01*
G37*
G04 #@! TD.AperFunction*
G04 #@! TA.AperFunction,SMDPad,CuDef*
G36*
G01*
X112792500Y-133651800D02*
X113267500Y-133651800D01*
G75*
G02*
X113505000Y-133889300I0J-237500D01*
G01*
X113505000Y-134464300D01*
G75*
G02*
X113267500Y-134701800I-237500J0D01*
G01*
X112792500Y-134701800D01*
G75*
G02*
X112555000Y-134464300I0J237500D01*
G01*
X112555000Y-133889300D01*
G75*
G02*
X112792500Y-133651800I237500J0D01*
G01*
G37*
G04 #@! TD.AperFunction*
D23*
X122761000Y-95466800D03*
X121561000Y-95466800D03*
X120361000Y-95466800D03*
X119161000Y-95466800D03*
X117961000Y-95466800D03*
X116761000Y-95466800D03*
D24*
X124011000Y-89016800D03*
X124011000Y-90216800D03*
X124011000Y-91416800D03*
X124011000Y-92616800D03*
X124011000Y-93816800D03*
X115511000Y-89016800D03*
X115511000Y-90216800D03*
X115511000Y-91416800D03*
X115511000Y-92616800D03*
X115511000Y-93816800D03*
D20*
X110556000Y-140151800D03*
X111506000Y-140151800D03*
X112456000Y-140151800D03*
X112456000Y-142651800D03*
X111506000Y-142651800D03*
X110556000Y-142651800D03*
D25*
X114881000Y-121716800D03*
X119761000Y-121716800D03*
D20*
X124145000Y-140151800D03*
X125095000Y-140151800D03*
X126045000Y-140151800D03*
X126045000Y-142651800D03*
X125095000Y-142651800D03*
X124145000Y-142651800D03*
G04 #@! TA.AperFunction,SMDPad,CuDef*
G36*
G01*
X105934500Y-144926800D02*
X106409500Y-144926800D01*
G75*
G02*
X106647000Y-145164300I0J-237500D01*
G01*
X106647000Y-145739300D01*
G75*
G02*
X106409500Y-145976800I-237500J0D01*
G01*
X105934500Y-145976800D01*
G75*
G02*
X105697000Y-145739300I0J237500D01*
G01*
X105697000Y-145164300D01*
G75*
G02*
X105934500Y-144926800I237500J0D01*
G01*
G37*
G04 #@! TD.AperFunction*
G04 #@! TA.AperFunction,SMDPad,CuDef*
G36*
G01*
X105934500Y-143176800D02*
X106409500Y-143176800D01*
G75*
G02*
X106647000Y-143414300I0J-237500D01*
G01*
X106647000Y-143989300D01*
G75*
G02*
X106409500Y-144226800I-237500J0D01*
G01*
X105934500Y-144226800D01*
G75*
G02*
X105697000Y-143989300I0J237500D01*
G01*
X105697000Y-143414300D01*
G75*
G02*
X105934500Y-143176800I237500J0D01*
G01*
G37*
G04 #@! TD.AperFunction*
G04 #@! TA.AperFunction,SMDPad,CuDef*
G36*
G01*
X108822500Y-144226800D02*
X108347500Y-144226800D01*
G75*
G02*
X108110000Y-143989300I0J237500D01*
G01*
X108110000Y-143414300D01*
G75*
G02*
X108347500Y-143176800I237500J0D01*
G01*
X108822500Y-143176800D01*
G75*
G02*
X109060000Y-143414300I0J-237500D01*
G01*
X109060000Y-143989300D01*
G75*
G02*
X108822500Y-144226800I-237500J0D01*
G01*
G37*
G04 #@! TD.AperFunction*
G04 #@! TA.AperFunction,SMDPad,CuDef*
G36*
G01*
X108822500Y-145976800D02*
X108347500Y-145976800D01*
G75*
G02*
X108110000Y-145739300I0J237500D01*
G01*
X108110000Y-145164300D01*
G75*
G02*
X108347500Y-144926800I237500J0D01*
G01*
X108822500Y-144926800D01*
G75*
G02*
X109060000Y-145164300I0J-237500D01*
G01*
X109060000Y-145739300D01*
G75*
G02*
X108822500Y-145976800I-237500J0D01*
G01*
G37*
G04 #@! TD.AperFunction*
D10*
X122555000Y-131876800D03*
D11*
X122555000Y-129336800D03*
X111950500Y-114033300D03*
D10*
X109410500Y-114033300D03*
D11*
X111950500Y-110286800D03*
D10*
X109410500Y-110286800D03*
X131064000Y-135051800D03*
D11*
X133604000Y-135051800D03*
X136144000Y-135051800D03*
D26*
X127889000Y-111302800D03*
X122555000Y-135813800D03*
X113030000Y-137210800D03*
X113919000Y-138353800D03*
X126478000Y-123861800D03*
X108472000Y-123861800D03*
X127889000Y-120446800D03*
X132334000Y-113715800D03*
X132080000Y-105714800D03*
X132870000Y-104472800D03*
X133604000Y-98348800D03*
X134239000Y-96824800D03*
X134465000Y-90502800D03*
X135410000Y-90502800D03*
X113919000Y-115874800D03*
X120051000Y-105496800D03*
X119176800Y-117881400D03*
X126633000Y-101382800D03*
X127127000Y-89585800D03*
X128129000Y-94552800D03*
X113792000Y-90216800D03*
X125349000Y-93141800D03*
X116713000Y-115239800D03*
X137541000Y-131495800D03*
X135128000Y-128574800D03*
X128143000Y-108000800D03*
X129286000Y-131495800D03*
X106807000Y-100888800D03*
X106680000Y-108508800D03*
X131699000Y-114858800D03*
D27*
X121920000Y-142163800D03*
D26*
X108585000Y-142036800D03*
D27*
X117602000Y-142544800D03*
D26*
X113792000Y-139750800D03*
X113284000Y-144195800D03*
X114300000Y-117906800D03*
X126111000Y-106349800D03*
X127381000Y-103809800D03*
X118745000Y-102031800D03*
D28*
X126623000Y-111306800D02*
X126627000Y-111302800D01*
X126481000Y-111306800D02*
X126623000Y-111306800D01*
X126627000Y-111302800D02*
X127889000Y-111302800D01*
D29*
X108867000Y-132991800D02*
X109855000Y-132003800D01*
X108867000Y-135051800D02*
X108867000Y-132991800D01*
X108853000Y-135065800D02*
X108867000Y-135051800D01*
X108853000Y-137591800D02*
X108853000Y-135065800D01*
D30*
X108853000Y-137591800D02*
X108853000Y-140272800D01*
X122555000Y-137351800D02*
X122555000Y-135813800D01*
X113030000Y-135926800D02*
X113030000Y-137210800D01*
X115570000Y-139033800D02*
X114599000Y-139033800D01*
X114599000Y-139033800D02*
X113919000Y-138353800D01*
X124841000Y-123861800D02*
X126478000Y-123861800D01*
X109601000Y-123861800D02*
X108472000Y-123861800D01*
X126605000Y-120446800D02*
X127889000Y-120446800D01*
X133985000Y-113743800D02*
X132362000Y-113743800D01*
X132362000Y-113743800D02*
X132334000Y-113715800D01*
X132080000Y-106885800D02*
X132080000Y-105714800D01*
X134112000Y-104472800D02*
X132870000Y-104472800D01*
X132461000Y-97360800D02*
X132616000Y-97360800D01*
X132616000Y-97360800D02*
X133604000Y-98348800D01*
X135382000Y-97360800D02*
X135382000Y-97205800D01*
X135382000Y-97360800D02*
X135382000Y-97332800D01*
X135382000Y-97332800D02*
X134874000Y-96824800D01*
X134874000Y-96824800D02*
X134239000Y-96824800D01*
X133477000Y-90502800D02*
X134465000Y-90502800D01*
X136525000Y-90502800D02*
X135410000Y-90502800D01*
X114681000Y-114971800D02*
X114681000Y-115112800D01*
X114681000Y-115112800D02*
X113919000Y-115874800D01*
D28*
X120051000Y-107376800D02*
X120051000Y-105496800D01*
X117638800Y-117881400D02*
X119176800Y-117881400D01*
X125236000Y-105206800D02*
X125236000Y-105474800D01*
X126633000Y-100380800D02*
X126633000Y-101382800D01*
X127127000Y-91123800D02*
X127127000Y-89585800D01*
X127127000Y-94552800D02*
X128129000Y-94552800D01*
X124011000Y-92616800D02*
X124824000Y-92616800D01*
X124824000Y-92616800D02*
X125349000Y-93141800D01*
X117243798Y-113806800D02*
X116713000Y-114337598D01*
X118121000Y-113806800D02*
X117243798Y-113806800D01*
X136130000Y-131495800D02*
X137541000Y-131495800D01*
X133350000Y-128574800D02*
X135128000Y-128574800D01*
X132850000Y-129074800D02*
X133350000Y-128574800D01*
X132850000Y-129527200D02*
X132850000Y-129074800D01*
X127515000Y-109306800D02*
X128143000Y-108678800D01*
X126481000Y-109306800D02*
X127515000Y-109306800D01*
X128143000Y-108678800D02*
X128143000Y-108000800D01*
X130570000Y-131495800D02*
X129286000Y-131495800D01*
D30*
X106680000Y-103428800D02*
X106299000Y-103047800D01*
X106299000Y-103047800D02*
X106299000Y-101396800D01*
X106680000Y-111302800D02*
X106299000Y-110921800D01*
X106680000Y-111316800D02*
X106680000Y-111302800D01*
X106299000Y-110921800D02*
X106299000Y-109651800D01*
X106299000Y-101396800D02*
X106807000Y-100888800D01*
X106299000Y-109651800D02*
X106299000Y-108889800D01*
X106299000Y-108889800D02*
X106680000Y-108508800D01*
D28*
X116713000Y-115239800D02*
X116713000Y-114337598D01*
D30*
X131699000Y-116156800D02*
X131699000Y-114858800D01*
D28*
X108585000Y-143701800D02*
X108585000Y-142036800D01*
D30*
X111506000Y-142651800D02*
X111506000Y-141782800D01*
X111506000Y-141782800D02*
X111125000Y-141401800D01*
X109982000Y-141401800D02*
X108853000Y-140272800D01*
X111125000Y-141401800D02*
X109982000Y-141401800D01*
X118110000Y-139033800D02*
X118110000Y-142036800D01*
X118110000Y-142036800D02*
X117602000Y-142544800D01*
X122408000Y-142651800D02*
X121920000Y-142163800D01*
X124145000Y-142651800D02*
X122408000Y-142651800D01*
D28*
X114568000Y-141147800D02*
X114568000Y-140526800D01*
X114568000Y-140526800D02*
X113792000Y-139750800D01*
X114568000Y-144195800D02*
X113284000Y-144195800D01*
X115511000Y-90216800D02*
X113792000Y-90216800D01*
D31*
X113016000Y-117906800D02*
X114300000Y-117906800D01*
D28*
X125236000Y-105474800D02*
X126111000Y-106349800D01*
X126633000Y-102666800D02*
X126633000Y-103061800D01*
X126633000Y-103061800D02*
X127381000Y-103809800D01*
X118745000Y-103442800D02*
X118745000Y-102031800D01*
X106934000Y-121970800D02*
X106807000Y-121970800D01*
X127127000Y-92873800D02*
X126633000Y-92873800D01*
X126633000Y-92873800D02*
X125603000Y-93903800D01*
X125603000Y-94778800D02*
X127127000Y-96302800D01*
X125603000Y-93903800D02*
X125603000Y-94778800D01*
X127127000Y-92873800D02*
X127113000Y-92873800D01*
X125656000Y-91416800D02*
X124011000Y-91416800D01*
X128383000Y-102666800D02*
X128383000Y-100380800D01*
X126301500Y-92062300D02*
X126301500Y-90665300D01*
X126301500Y-92062300D02*
X125656000Y-91416800D01*
X127113000Y-92873800D02*
X126301500Y-92062300D01*
X124653000Y-89016800D02*
X124011000Y-89016800D01*
X126301500Y-90665300D02*
X124653000Y-89016800D01*
X106934000Y-121970800D02*
X106934000Y-121335800D01*
X111266000Y-118273800D02*
X111266000Y-117906800D01*
X107401000Y-119516800D02*
X107791585Y-119126215D01*
X107210500Y-119707300D02*
X107401000Y-119516800D01*
X106934000Y-119983800D02*
X107210500Y-119707300D01*
X106934000Y-121335800D02*
X106934000Y-119983800D01*
D30*
X106934000Y-121970800D02*
X107188000Y-121970800D01*
X111252000Y-117906800D02*
X111266000Y-117906800D01*
X107188000Y-121970800D02*
X111252000Y-117906800D01*
D29*
X106934000Y-122478800D02*
X106934000Y-121970800D01*
D28*
X133850000Y-130965800D02*
X134380000Y-131495800D01*
X133850000Y-129527200D02*
X133850000Y-130965800D01*
D30*
X134380000Y-132017800D02*
X135128000Y-132765800D01*
X134380000Y-131495800D02*
X134380000Y-132017800D01*
X138303000Y-132765800D02*
X138811000Y-132257800D01*
X137668000Y-126796800D02*
X138811000Y-127939800D01*
X138811000Y-127939800D02*
X138811000Y-128320800D01*
X138811000Y-132257800D02*
X138811000Y-128320800D01*
X138811000Y-128320800D02*
X138811000Y-102158800D01*
X135128000Y-132765800D02*
X137922000Y-132765800D01*
X137922000Y-132765800D02*
X138303000Y-132765800D01*
D29*
X135001000Y-124129800D02*
X137668000Y-126796800D01*
X120142000Y-125399800D02*
X127127000Y-125399800D01*
X127127000Y-125399800D02*
X128397000Y-124129800D01*
X118364000Y-123621800D02*
X120142000Y-125399800D01*
X106934000Y-125272800D02*
X107696000Y-126034800D01*
X106934000Y-122478800D02*
X106934000Y-125272800D01*
X128397000Y-124129800D02*
X135001000Y-124129800D01*
X110490000Y-126034800D02*
X112903000Y-123621800D01*
X112903000Y-123621800D02*
X118364000Y-123621800D01*
X107696000Y-126034800D02*
X110490000Y-126034800D01*
X138811000Y-102158800D02*
X138811000Y-91363800D01*
D28*
X132080000Y-91109800D02*
X129921000Y-93268800D01*
X138811000Y-90601800D02*
X137922000Y-89712800D01*
X138811000Y-91363800D02*
X138811000Y-90601800D01*
X132588000Y-89712800D02*
X132080000Y-90220800D01*
X137922000Y-89712800D02*
X132588000Y-89712800D01*
X132080000Y-90220800D02*
X132080000Y-91109800D01*
D29*
X110744000Y-92951300D02*
X106997500Y-92951300D01*
D28*
X121561000Y-95778282D02*
X121561000Y-95466800D01*
X122974518Y-97191800D02*
X126238000Y-97191800D01*
X126238000Y-97191800D02*
X127127000Y-96302800D01*
X122974518Y-97191800D02*
X121561000Y-95778282D01*
X115888800Y-117881400D02*
X115888800Y-117511800D01*
X118121000Y-115279600D02*
X118121000Y-114306800D01*
X115888800Y-117511800D02*
X118121000Y-115279600D01*
X119155000Y-114306800D02*
X119926100Y-113535700D01*
X118121000Y-114306800D02*
X119155000Y-114306800D01*
X119926100Y-109308900D02*
X119551000Y-108933800D01*
X119926100Y-111264700D02*
X119926100Y-110883700D01*
X119926100Y-111264700D02*
X119926100Y-109308900D01*
X119926100Y-113535700D02*
X119926100Y-111264700D01*
X122003000Y-108806800D02*
X126481000Y-108806800D01*
X119926100Y-110883700D02*
X122003000Y-108806800D01*
X126481000Y-108806800D02*
X127337000Y-108806800D01*
X127337000Y-108806800D02*
X127508000Y-108635800D01*
X127508000Y-108635800D02*
X127508000Y-107746800D01*
X126986000Y-107224800D02*
X126986000Y-105206800D01*
X127508000Y-107746800D02*
X126986000Y-107224800D01*
X115888800Y-117906800D02*
X115824000Y-117906800D01*
X115824000Y-117906800D02*
X114935000Y-117017800D01*
X112155000Y-117017800D02*
X111266000Y-117906800D01*
X114935000Y-117017800D02*
X112155000Y-117017800D01*
D31*
X127127000Y-92873800D02*
X127395000Y-92873800D01*
D28*
X128651000Y-103936800D02*
X128383000Y-103668800D01*
X128383000Y-103668800D02*
X128383000Y-102666800D01*
X126481000Y-110306800D02*
X127869000Y-110306800D01*
X128651000Y-108889800D02*
X128651000Y-103936800D01*
X127869000Y-110306800D02*
X128143000Y-110032800D01*
X128143000Y-110032800D02*
X128143000Y-109397800D01*
X128143000Y-109397800D02*
X128651000Y-108889800D01*
X128383000Y-100380800D02*
X128383000Y-100013800D01*
X129921000Y-98475800D02*
X129921000Y-98221800D01*
X129921000Y-93268800D02*
X129921000Y-98221800D01*
X128383000Y-100013800D02*
X129921000Y-98475800D01*
X129921000Y-98221800D02*
X129921000Y-98348800D01*
X119551000Y-108933800D02*
X119551000Y-107376800D01*
X119551000Y-107376800D02*
X119137000Y-107376800D01*
X118745000Y-106984800D02*
X118745000Y-105192800D01*
X119137000Y-107376800D02*
X118745000Y-106984800D01*
D30*
X110744000Y-94538800D02*
X110744000Y-92951300D01*
X110236000Y-95046800D02*
X110744000Y-94538800D01*
X106807000Y-122478800D02*
X104902000Y-120573800D01*
X107315000Y-95046800D02*
X110236000Y-95046800D01*
X106934000Y-122478800D02*
X106807000Y-122478800D01*
X104902000Y-120573800D02*
X104902000Y-97459800D01*
X105219500Y-97142300D02*
X105664000Y-96697800D01*
X105219500Y-97142300D02*
X107315000Y-95046800D01*
X104902000Y-97459800D02*
X105219500Y-97142300D01*
X115697000Y-97586800D02*
X115697000Y-98983800D01*
X114808000Y-96697800D02*
X115697000Y-97586800D01*
D28*
X121561000Y-95466800D02*
X121561000Y-94814800D01*
X121208999Y-94462799D02*
X115773001Y-94462799D01*
X121561000Y-94814800D02*
X121208999Y-94462799D01*
X115773001Y-94462799D02*
X113538000Y-96697800D01*
D30*
X105664000Y-96697800D02*
X113538000Y-96697800D01*
X113538000Y-96697800D02*
X114808000Y-96697800D01*
X106680000Y-105573800D02*
X107583000Y-105573800D01*
X109410500Y-103746300D02*
X109410500Y-102793800D01*
X107583000Y-105573800D02*
X109410500Y-103746300D01*
X106680000Y-113066800D02*
X107301000Y-113066800D01*
X107301000Y-113066800D02*
X107315000Y-113080800D01*
X107315000Y-113080800D02*
X107696000Y-113080800D01*
X109410500Y-111366300D02*
X109410500Y-110286800D01*
X107696000Y-113080800D02*
X109410500Y-111366300D01*
D28*
X116205000Y-103428800D02*
X116205000Y-108508800D01*
X117003000Y-109306800D02*
X118121000Y-109306800D01*
X116205000Y-108508800D02*
X117003000Y-109306800D01*
X115316000Y-102539800D02*
X116205000Y-103428800D01*
X110617000Y-100126800D02*
X111506000Y-101015800D01*
X110617000Y-98983800D02*
X110617000Y-100126800D01*
X111506000Y-101015800D02*
X113030000Y-101015800D01*
X113030000Y-101015800D02*
X114554000Y-102539800D01*
X114554000Y-102539800D02*
X115316000Y-102539800D01*
X113157000Y-99999800D02*
X113157000Y-98983800D01*
X116967000Y-107652800D02*
X116967000Y-102920800D01*
X118121000Y-108806800D02*
X116967000Y-107652800D01*
X116967000Y-102920800D02*
X114808000Y-100761800D01*
X114808000Y-100761800D02*
X113919000Y-100761800D01*
X113919000Y-100761800D02*
X113157000Y-99999800D01*
D30*
X116282000Y-126701800D02*
X118983000Y-129402800D01*
X114046000Y-126701800D02*
X116282000Y-126701800D01*
X116282000Y-126701800D02*
X126397000Y-126701800D01*
X131064000Y-135051800D02*
X130302000Y-135051800D01*
X130302000Y-135051800D02*
X128397000Y-133146800D01*
X128397000Y-128701800D02*
X126397000Y-126701800D01*
X128397000Y-133146800D02*
X128397000Y-128701800D01*
D28*
X125095000Y-137551800D02*
X125095000Y-137851800D01*
X125095000Y-137972800D02*
X125095000Y-137551800D01*
X122555000Y-139101800D02*
X123966000Y-139101800D01*
X123966000Y-139101800D02*
X125095000Y-137972800D01*
X117087000Y-113306800D02*
X118121000Y-113306800D01*
X115951000Y-114442800D02*
X117087000Y-113306800D01*
X115951000Y-115366800D02*
X115951000Y-114442800D01*
X114871491Y-116446309D02*
X115951000Y-115366800D01*
X106111000Y-118906800D02*
X106442000Y-118906800D01*
X107188000Y-118160800D02*
X109347000Y-118160800D01*
X109347000Y-118160800D02*
X111061491Y-116446309D01*
X106442000Y-118906800D02*
X107188000Y-118160800D01*
X111061491Y-116446309D02*
X114871491Y-116446309D01*
X109410500Y-106540300D02*
X110744000Y-107873800D01*
X112268000Y-107873800D02*
X112014000Y-107873800D01*
X112014000Y-107873800D02*
X110744000Y-109143800D01*
X110744000Y-112572800D02*
X110680500Y-112636300D01*
X109410500Y-113906300D02*
X110680500Y-112636300D01*
X107061000Y-116906800D02*
X107061000Y-116001800D01*
X109029500Y-114033300D02*
X109410500Y-114033300D01*
X107061000Y-116001800D02*
X109029500Y-114033300D01*
X114681000Y-105855800D02*
X114681000Y-106222800D01*
X114681000Y-105651300D02*
X114681000Y-105855800D01*
X112141000Y-107873800D02*
X113919000Y-107873800D01*
X112141000Y-107873800D02*
X112268000Y-107873800D01*
X110744000Y-107873800D02*
X112141000Y-107873800D01*
X114681000Y-107111800D02*
X114681000Y-105827800D01*
X113919000Y-107873800D02*
X114681000Y-107111800D01*
X114681000Y-111288800D02*
X113298000Y-111288800D01*
X113298000Y-111288800D02*
X112649000Y-111937800D01*
X110871000Y-111937800D02*
X110744000Y-112064800D01*
X110744000Y-112064800D02*
X110744000Y-112572800D01*
X112649000Y-111937800D02*
X110871000Y-111937800D01*
X110744000Y-109143800D02*
X110744000Y-112064800D01*
X117080000Y-139273800D02*
X116840000Y-139033800D01*
D30*
X116840000Y-140625800D02*
X116840000Y-139033800D01*
X116318000Y-141147800D02*
X116840000Y-140625800D01*
D28*
X121551000Y-116770800D02*
X121551000Y-115736800D01*
X114881000Y-121716800D02*
X116605000Y-121716800D01*
X114486000Y-122111800D02*
X114881000Y-121716800D01*
X109601000Y-122111800D02*
X114486000Y-122111800D01*
X116605000Y-121716800D02*
X121551000Y-116770800D01*
D30*
X124145000Y-135801902D02*
X124145000Y-135051800D01*
X124664898Y-136321800D02*
X124145000Y-135801902D01*
X127762000Y-140639800D02*
X127762000Y-136956800D01*
X126045000Y-142356800D02*
X127762000Y-140639800D01*
X126045000Y-142651800D02*
X126045000Y-142356800D01*
X127762000Y-136956800D02*
X127127000Y-136321800D01*
X127127000Y-136321800D02*
X124664898Y-136321800D01*
X124145000Y-135051800D02*
X124145000Y-134990800D01*
X122555000Y-131876800D02*
X123444000Y-131876800D01*
X123952000Y-132384800D02*
X125236000Y-132384800D01*
X123444000Y-131876800D02*
X123952000Y-132384800D01*
X122555000Y-133400800D02*
X122555000Y-131876800D01*
X124145000Y-134990800D02*
X122555000Y-133400800D01*
D28*
X122051000Y-119426800D02*
X122051000Y-115736800D01*
X119761000Y-121716800D02*
X122051000Y-119426800D01*
X120156000Y-122111800D02*
X119761000Y-121716800D01*
X124841000Y-122111800D02*
X120156000Y-122111800D01*
X124855000Y-120446800D02*
X124079000Y-120446800D01*
X122551000Y-118918800D02*
X122551000Y-115736800D01*
X124079000Y-120446800D02*
X122551000Y-118918800D01*
X125095000Y-134766800D02*
X125095000Y-135051800D01*
D30*
X126873000Y-133654800D02*
X126986000Y-133541800D01*
X125349000Y-133654800D02*
X126873000Y-133654800D01*
X125095000Y-135051800D02*
X125095000Y-133908800D01*
X126986000Y-133541800D02*
X126986000Y-132384800D01*
X125095000Y-133908800D02*
X125349000Y-133654800D01*
X126986000Y-132384800D02*
X126986000Y-130098800D01*
D28*
X130810000Y-129449800D02*
X130542000Y-129449800D01*
X132320000Y-131495800D02*
X132588000Y-131495800D01*
X132588000Y-131495800D02*
X133350000Y-130733800D01*
X133350000Y-129971800D02*
X133350000Y-129527200D01*
X133350000Y-130733800D02*
X133350000Y-129971800D01*
X132969000Y-130352800D02*
X133350000Y-129971800D01*
X131445000Y-130352800D02*
X132969000Y-130352800D01*
X130810000Y-129068800D02*
X130810000Y-129717800D01*
X130810000Y-129717800D02*
X131445000Y-130352800D01*
D30*
X132461000Y-131636800D02*
X132320000Y-131495800D01*
X133604000Y-135051800D02*
X133604000Y-133908800D01*
X133604000Y-133908800D02*
X132588000Y-132892800D01*
X132588000Y-132892800D02*
X132461000Y-132892800D01*
X132320000Y-132751800D02*
X132320000Y-131495800D01*
X132461000Y-132892800D02*
X132320000Y-132751800D01*
D28*
X133350000Y-126909800D02*
X132475000Y-126034800D01*
X133350000Y-127622400D02*
X133350000Y-126909800D01*
X133850000Y-126409800D02*
X134225000Y-126034800D01*
X133850000Y-127622400D02*
X133850000Y-126409800D01*
D30*
X109093000Y-128701800D02*
X107442000Y-130352800D01*
X119380000Y-133609800D02*
X119380000Y-133273800D01*
D29*
X121352919Y-129336800D02*
X122555000Y-129336800D01*
X120650000Y-130039719D02*
X121352919Y-129336800D01*
D30*
X120336919Y-130352800D02*
X120650000Y-130039719D01*
X116983000Y-130352800D02*
X120336919Y-130352800D01*
X115332000Y-128701800D02*
X116983000Y-130352800D01*
X109093000Y-128701800D02*
X115332000Y-128701800D01*
D29*
X120650000Y-132003800D02*
X120650000Y-130039719D01*
X120650000Y-132003800D02*
X120650000Y-132892800D01*
X120650000Y-132892800D02*
X119888000Y-133654800D01*
D30*
X123317000Y-130098800D02*
X122555000Y-129336800D01*
X125236000Y-130098800D02*
X123317000Y-130098800D01*
D29*
X106172000Y-131622800D02*
X107442000Y-130352800D01*
X106172000Y-143701800D02*
X106172000Y-131622800D01*
D28*
X126045000Y-141005800D02*
X125649000Y-141401800D01*
X126045000Y-140151800D02*
X126045000Y-141005800D01*
X125649000Y-141401800D02*
X123190000Y-141401800D01*
X123190000Y-141401800D02*
X121920000Y-140131800D01*
X121920000Y-140131800D02*
X121666000Y-140131800D01*
X121666000Y-140131800D02*
X121412000Y-139877800D01*
X121412000Y-139877800D02*
X121412000Y-138607800D01*
X121412000Y-138607800D02*
X121793000Y-138226800D01*
X123470000Y-138226800D02*
X124145000Y-137551800D01*
X121793000Y-138226800D02*
X123470000Y-138226800D01*
X124145000Y-140151800D02*
X124145000Y-139557800D01*
X124145000Y-139557800D02*
X124841000Y-138861800D01*
X125589000Y-138861800D02*
X126045000Y-138405800D01*
X124841000Y-138861800D02*
X125589000Y-138861800D01*
X126045000Y-138405800D02*
X126045000Y-137551800D01*
X132461000Y-99110800D02*
X132461000Y-100775800D01*
X132461000Y-100888800D02*
X132461000Y-100775800D01*
X131572000Y-101777800D02*
X132461000Y-100888800D01*
X131572000Y-104571800D02*
X131572000Y-101777800D01*
X131572000Y-104698800D02*
X131572000Y-104571800D01*
X131191000Y-105587800D02*
X131572000Y-105206800D01*
X131191000Y-107111800D02*
X131191000Y-105587800D01*
X130683000Y-107619800D02*
X131191000Y-107111800D01*
X129076000Y-114306800D02*
X130175000Y-113207800D01*
X126481000Y-114306800D02*
X129076000Y-114306800D01*
X131572000Y-105206800D02*
X131572000Y-104571800D01*
X130175000Y-113207800D02*
X130175000Y-110286800D01*
X130683000Y-109778800D02*
X130683000Y-107619800D01*
X130175000Y-110286800D02*
X130683000Y-109778800D01*
X136525000Y-92252800D02*
X136525000Y-93917800D01*
X135636000Y-91363800D02*
X136525000Y-92252800D01*
X128651000Y-109651800D02*
X129159000Y-109143800D01*
X126481000Y-111806800D02*
X128147000Y-111806800D01*
X129159000Y-109143800D02*
X129159000Y-106984800D01*
X128651000Y-111302800D02*
X128651000Y-109651800D01*
X129667000Y-99745800D02*
X130429000Y-98983800D01*
X130429000Y-98983800D02*
X130429000Y-93776800D01*
X128147000Y-111806800D02*
X128651000Y-111302800D01*
X129159000Y-106984800D02*
X129667000Y-106476800D01*
X129667000Y-106476800D02*
X129667000Y-99745800D01*
X130429000Y-93776800D02*
X132842000Y-91363800D01*
X132842000Y-91363800D02*
X135636000Y-91363800D01*
X133731000Y-91871800D02*
X133731000Y-93536800D01*
X127775862Y-113306800D02*
X126481000Y-113306800D01*
X127790000Y-113306800D02*
X127775862Y-113306800D01*
X129159000Y-111937800D02*
X127790000Y-113306800D01*
X131064000Y-95046800D02*
X131064000Y-99999800D01*
X129667000Y-109397800D02*
X129159000Y-109905800D01*
X131064000Y-99999800D02*
X130683000Y-100380800D01*
X133477000Y-93917800D02*
X132193000Y-93917800D01*
X132193000Y-93917800D02*
X131064000Y-95046800D01*
X130683000Y-104571800D02*
X130175000Y-105079800D01*
X130683000Y-100380800D02*
X130683000Y-104571800D01*
X130175000Y-105079800D02*
X130175000Y-106730800D01*
X130175000Y-106730800D02*
X129667000Y-107238800D01*
X129667000Y-107238800D02*
X129667000Y-109397800D01*
X129159000Y-109905800D02*
X129159000Y-111937800D01*
X126481000Y-113806800D02*
X126486610Y-113801190D01*
X135382000Y-99110800D02*
X135382000Y-100775800D01*
X127334045Y-113806800D02*
X126481000Y-113806800D01*
X128687000Y-113806800D02*
X127334045Y-113806800D01*
X129667000Y-110159800D02*
X129667000Y-112826800D01*
X129667000Y-112826800D02*
X128687000Y-113806800D01*
X130175000Y-109651800D02*
X129667000Y-110159800D01*
X130175000Y-107365800D02*
X130175000Y-109651800D01*
X131699000Y-96443800D02*
X131572000Y-96570800D01*
X133032898Y-96443800D02*
X131699000Y-96443800D01*
X133858000Y-97268902D02*
X133032898Y-96443800D01*
X135382000Y-99110800D02*
X133858000Y-97586800D01*
X133858000Y-97586800D02*
X133858000Y-97268902D01*
X131064000Y-104952800D02*
X130683000Y-105333800D01*
X131572000Y-96570800D02*
X131572000Y-100761800D01*
X131572000Y-100761800D02*
X131064000Y-101269800D01*
X130683000Y-105333800D02*
X130683000Y-106857800D01*
X131064000Y-101269800D02*
X131064000Y-104952800D01*
X130683000Y-106857800D02*
X130175000Y-107365800D01*
X134112000Y-106222800D02*
X134112000Y-107887800D01*
X133971000Y-107746800D02*
X134112000Y-107887800D01*
X124551000Y-116600800D02*
X124841000Y-116890800D01*
X127635000Y-115239800D02*
X129032000Y-115239800D01*
X129032000Y-115239800D02*
X130683000Y-113588800D01*
X124841000Y-116890800D02*
X125984000Y-116890800D01*
X124551000Y-115736800D02*
X124551000Y-116600800D01*
X130683000Y-113588800D02*
X130683000Y-110413800D01*
X130683000Y-110413800D02*
X131191000Y-109905800D01*
X131191000Y-109905800D02*
X131191000Y-107873800D01*
X131191000Y-107873800D02*
X131318000Y-107746800D01*
X125984000Y-116890800D02*
X127635000Y-115239800D01*
X131318000Y-107746800D02*
X133971000Y-107746800D01*
X132080000Y-108635800D02*
X132080000Y-110300800D01*
X124051000Y-116862800D02*
X124051000Y-115736800D01*
X131812000Y-110300800D02*
X131191000Y-110921800D01*
X132080000Y-110300800D02*
X131812000Y-110300800D01*
X131191000Y-110921800D02*
X131191000Y-113969800D01*
X131191000Y-113969800D02*
X127635000Y-117525800D01*
X124714000Y-117525800D02*
X124051000Y-116862800D01*
X127635000Y-117525800D02*
X124714000Y-117525800D01*
X133985000Y-115493800D02*
X133985000Y-117158800D01*
X133844000Y-117017800D02*
X133985000Y-117158800D01*
X130047990Y-117906810D02*
X130937000Y-117017800D01*
X123551000Y-117124800D02*
X124333000Y-117906800D01*
X123551000Y-115736800D02*
X123551000Y-117124800D01*
X124333000Y-117906800D02*
X124556171Y-117906800D01*
X124556171Y-117906800D02*
X124556181Y-117906810D01*
X130937000Y-117017800D02*
X133844000Y-117017800D01*
X124556181Y-117906810D02*
X130047990Y-117906810D01*
X131699000Y-119571800D02*
X131699000Y-117906800D01*
X130824000Y-119571800D02*
X131699000Y-119571800D01*
X130175000Y-118922800D02*
X130824000Y-119571800D01*
X124206000Y-118922800D02*
X130175000Y-118922800D01*
X123051000Y-115736800D02*
X123051000Y-117767800D01*
X123051000Y-117767800D02*
X124206000Y-118922800D01*
X120777000Y-98983800D02*
X120777000Y-100380800D01*
X122051000Y-101654800D02*
X122051000Y-107376800D01*
X120777000Y-100380800D02*
X122051000Y-101654800D01*
X122551000Y-102670800D02*
X122551000Y-107376800D01*
X123317000Y-98983800D02*
X123317000Y-101904800D01*
X123317000Y-101904800D02*
X122551000Y-102670800D01*
X119380000Y-112064800D02*
X119380000Y-110188598D01*
X119138000Y-112306800D02*
X119380000Y-112064800D01*
X118998202Y-109806800D02*
X118121000Y-109806800D01*
X119380000Y-110188598D02*
X118998202Y-109806800D01*
X118121000Y-112306800D02*
X119138000Y-112306800D01*
X115570000Y-104966800D02*
X114681000Y-104077800D01*
X118121000Y-109806800D02*
X116741000Y-109806800D01*
X114681000Y-104077800D02*
X114681000Y-104063800D01*
X113411000Y-102793800D02*
X111950500Y-102793800D01*
X114681000Y-104063800D02*
X113411000Y-102793800D01*
X115570000Y-108635800D02*
X115570000Y-104966800D01*
X116741000Y-109806800D02*
X115570000Y-108635800D01*
X117289518Y-110306800D02*
X118121000Y-110306800D01*
X118121000Y-111306800D02*
X117289518Y-111306800D01*
X117344000Y-111306800D02*
X117340000Y-111302800D01*
X118121000Y-111306800D02*
X117344000Y-111306800D01*
X117340000Y-111302800D02*
X116967000Y-111302800D01*
X111950500Y-110286800D02*
X113933000Y-110286800D01*
X113933000Y-110286800D02*
X114681000Y-109538800D01*
X115971000Y-110306800D02*
X118121000Y-110306800D01*
X116967000Y-111302800D02*
X115971000Y-110306800D01*
X114681000Y-109538800D02*
X115449000Y-110306800D01*
X115449000Y-110306800D02*
X115971000Y-110306800D01*
X115096000Y-112806800D02*
X114681000Y-113221800D01*
X118121000Y-112806800D02*
X115096000Y-112806800D01*
X130887400Y-127622400D02*
X130810000Y-127699800D01*
X132546400Y-127318800D02*
X132850000Y-127622400D01*
X130810000Y-127318800D02*
X132546400Y-127318800D01*
X116967000Y-99745800D02*
X116967000Y-98094800D01*
X116459000Y-100253800D02*
X116967000Y-99745800D01*
X114427000Y-99745800D02*
X114935000Y-100253800D01*
X116967000Y-98094800D02*
X117961000Y-97100800D01*
X105664000Y-98729800D02*
X106807000Y-97586800D01*
X113919000Y-97586800D02*
X114427000Y-98094800D01*
X105664000Y-111095037D02*
X105664000Y-98729800D01*
X117961000Y-97100800D02*
X117961000Y-95466800D01*
X105791000Y-111222037D02*
X105664000Y-111095037D01*
X113411000Y-112445800D02*
X113411000Y-114731800D01*
X113665000Y-112191800D02*
X113411000Y-112445800D01*
X116078000Y-112191800D02*
X113665000Y-112191800D01*
X106807000Y-97586800D02*
X113919000Y-97586800D01*
X118121000Y-111806800D02*
X116463000Y-111806800D01*
X114427000Y-98094800D02*
X114427000Y-99745800D01*
X116463000Y-111806800D02*
X116078000Y-112191800D01*
X114935000Y-100253800D02*
X116459000Y-100253800D01*
X110363000Y-115620800D02*
X108331000Y-117652800D01*
X113411000Y-114731800D02*
X112522000Y-115620800D01*
X112522000Y-115620800D02*
X110363000Y-115620800D01*
X105791000Y-117398800D02*
X105791000Y-111222037D01*
X108331000Y-117652800D02*
X106045000Y-117652800D01*
X106045000Y-117652800D02*
X105791000Y-117398800D01*
X121551000Y-107376800D02*
X121551000Y-102678800D01*
X121551000Y-102678800D02*
X119507000Y-100634800D01*
X119507000Y-100634800D02*
X119507000Y-97586800D01*
X119161000Y-97240800D02*
X119161000Y-95466800D01*
X119507000Y-97586800D02*
X119161000Y-97240800D01*
X136525000Y-95667800D02*
X136525000Y-96062800D01*
X137287000Y-96824800D02*
X136906000Y-96443800D01*
X136525000Y-96062800D02*
X136906000Y-96443800D01*
X137287000Y-105206800D02*
X137287000Y-96824800D01*
X134860000Y-95667800D02*
X135636000Y-96443800D01*
X136398000Y-96824800D02*
X136398000Y-98856800D01*
X136017000Y-96443800D02*
X136398000Y-96824800D01*
X133477000Y-95667800D02*
X134860000Y-95667800D01*
X135636000Y-96443800D02*
X136017000Y-96443800D01*
X136017000Y-103555800D02*
X136398000Y-103174800D01*
X136398000Y-103174800D02*
X136398000Y-98856800D01*
X137287000Y-107746800D02*
X136017000Y-106476800D01*
X136017000Y-106476800D02*
X136017000Y-103555800D01*
X135636000Y-110159800D02*
X135763000Y-110286800D01*
X135763000Y-110286800D02*
X137287000Y-110286800D01*
X135382000Y-102525800D02*
X135636000Y-102779800D01*
X135636000Y-102779800D02*
X135636000Y-110159800D01*
X136652000Y-112826800D02*
X137287000Y-112826800D01*
X135128000Y-111302800D02*
X136652000Y-112826800D01*
X132461000Y-102525800D02*
X133717000Y-102525800D01*
X135128000Y-103936800D02*
X135128000Y-111302800D01*
X133717000Y-102525800D02*
X135128000Y-103936800D01*
X134112000Y-111175800D02*
X134112000Y-109637800D01*
X135890000Y-112953800D02*
X134112000Y-111175800D01*
X135890000Y-112953800D02*
X135890000Y-114223800D01*
X137033000Y-115366800D02*
X137287000Y-115366800D01*
X135890000Y-114223800D02*
X137033000Y-115366800D01*
X135255000Y-116509800D02*
X136652000Y-117906800D01*
X136652000Y-117906800D02*
X137287000Y-117906800D01*
X135255000Y-113207800D02*
X135255000Y-116509800D01*
X132080000Y-112050800D02*
X134098000Y-112050800D01*
X134098000Y-112050800D02*
X135255000Y-113207800D01*
X133985000Y-120319800D02*
X134112000Y-120446800D01*
X133985000Y-118908800D02*
X133985000Y-120319800D01*
X134112000Y-120446800D02*
X137287000Y-120446800D01*
X137287000Y-122986800D02*
X134620000Y-122986800D01*
X132955000Y-121321800D02*
X131699000Y-121321800D01*
X134620000Y-122986800D02*
X132955000Y-121321800D01*
D29*
X108585000Y-145451800D02*
X106172000Y-145451800D01*
D28*
X123551000Y-107376800D02*
X123551000Y-102305800D01*
D30*
X136017000Y-143306800D02*
X136017000Y-143814800D01*
D29*
X109968000Y-145451800D02*
X108585000Y-145451800D01*
X132080000Y-142290800D02*
X128524000Y-145846800D01*
X128524000Y-145846800D02*
X110363000Y-145846800D01*
X110363000Y-145846800D02*
X109968000Y-145451800D01*
D30*
X139700000Y-145084800D02*
X141097000Y-143687800D01*
D29*
X134493000Y-142290800D02*
X132080000Y-142290800D01*
D30*
X137287000Y-145084800D02*
X139700000Y-145084800D01*
X135001000Y-142290800D02*
X136017000Y-143306800D01*
X141097000Y-139369800D02*
X141097000Y-136956800D01*
X141097000Y-90474800D02*
X141097000Y-136956800D01*
X141097000Y-143687800D02*
X141097000Y-139369800D01*
X136017000Y-143814800D02*
X137287000Y-145084800D01*
X134493000Y-142290800D02*
X135001000Y-142290800D01*
D28*
X128651000Y-97713800D02*
X127381000Y-98983800D01*
X124714000Y-101142800D02*
X123698000Y-102158800D01*
X123698000Y-102158800D02*
X123825000Y-102031800D01*
X123551000Y-102305800D02*
X123698000Y-102158800D01*
X125730000Y-98983800D02*
X124714000Y-99999800D01*
X127381000Y-98983800D02*
X125730000Y-98983800D01*
X131318010Y-88950790D02*
X128651000Y-91617800D01*
X128651000Y-91617800D02*
X128651000Y-97713800D01*
X141097000Y-90474800D02*
X139572990Y-88950790D01*
X124714000Y-99999800D02*
X124714000Y-101142800D01*
X139572990Y-88950790D02*
X131318010Y-88950790D01*
X132080000Y-139115800D02*
X133731000Y-139115800D01*
X133731000Y-139115800D02*
X134874000Y-139115800D01*
D30*
X115570000Y-132225800D02*
X114046000Y-130701800D01*
X115570000Y-133609800D02*
X115570000Y-132225800D01*
X117234398Y-131302800D02*
X118983000Y-131302800D01*
X115570000Y-132967198D02*
X117234398Y-131302800D01*
X115570000Y-133609800D02*
X115570000Y-132967198D01*
X111492000Y-134176800D02*
X110617000Y-135051800D01*
X110603000Y-135065800D02*
X110617000Y-135051800D01*
X110603000Y-137591800D02*
X110603000Y-135065800D01*
X114345000Y-133609800D02*
X115570000Y-133609800D01*
X111492000Y-134176800D02*
X113030000Y-134176800D01*
X113778000Y-134176800D02*
X114345000Y-133609800D01*
X113030000Y-134176800D02*
X113778000Y-134176800D01*
D29*
X120650000Y-144195800D02*
X120650000Y-143941800D01*
X120650000Y-144195800D02*
X118999000Y-144195800D01*
X120650000Y-143941800D02*
X119380000Y-142671800D01*
X119380000Y-142671800D02*
X119380000Y-140639800D01*
D30*
X119380000Y-140639800D02*
X119380000Y-139033800D01*
D29*
X120650000Y-144195800D02*
X127381000Y-144195800D01*
X132461000Y-139115800D02*
X133731000Y-139115800D01*
X127381000Y-144195800D02*
X132461000Y-139115800D01*
D28*
X140208000Y-133527800D02*
X140208000Y-136067800D01*
X140208000Y-133781800D02*
X140208000Y-133527800D01*
X140208000Y-136067800D02*
X137668000Y-138607800D01*
D30*
X134239000Y-138607800D02*
X133731000Y-139115800D01*
X137668000Y-138607800D02*
X134239000Y-138607800D01*
D29*
X118999000Y-144195800D02*
X116318000Y-144195800D01*
D30*
X116318000Y-144195800D02*
X116318000Y-143673800D01*
X116318000Y-143673800D02*
X115570000Y-142925800D01*
X115570000Y-142925800D02*
X114173000Y-142925800D01*
X114173000Y-142925800D02*
X113538000Y-142290800D01*
X113538000Y-142290800D02*
X113538000Y-141909800D01*
X113538000Y-141909800D02*
X113030000Y-141401800D01*
D28*
X111506000Y-140559002D02*
X111506000Y-140151800D01*
X112348798Y-141401800D02*
X111506000Y-140559002D01*
X113030000Y-141401800D02*
X112348798Y-141401800D01*
D30*
X111506000Y-138494800D02*
X110603000Y-137591800D01*
X111506000Y-140151800D02*
X111506000Y-138494800D01*
D28*
X140208000Y-90474800D02*
X140208000Y-133527800D01*
X139065000Y-89331800D02*
X140208000Y-90474800D01*
X129286000Y-92125800D02*
X132080000Y-89331800D01*
X124333000Y-104317800D02*
X124587000Y-104317800D01*
X124051000Y-104599800D02*
X124333000Y-104317800D01*
X132080000Y-89331800D02*
X139065000Y-89331800D01*
X124051000Y-105559800D02*
X124051000Y-104599800D01*
X124551000Y-107376800D02*
X124551000Y-106059800D01*
X124551000Y-106059800D02*
X124051000Y-105559800D01*
X127889000Y-99491800D02*
X129286000Y-98094800D01*
X124587000Y-104317800D02*
X125222000Y-103682800D01*
X125222000Y-103682800D02*
X125222000Y-100126800D01*
X125222000Y-100126800D02*
X125857000Y-99491800D01*
X125857000Y-99491800D02*
X127889000Y-99491800D01*
X129286000Y-98094800D02*
X129286000Y-92125800D01*
M02*
