G04 #@! TF.GenerationSoftware,KiCad,Pcbnew,5.1.6+dfsg1-1~bpo10+1*
G04 #@! TF.CreationDate,2020-07-19T00:44:28-05:00*
G04 #@! TF.ProjectId,EncoderBoard2,456e636f-6465-4724-926f-617264322e6b,v1.0*
G04 #@! TF.SameCoordinates,Original*
G04 #@! TF.FileFunction,Copper,L2,Bot*
G04 #@! TF.FilePolarity,Positive*
%FSLAX46Y46*%
G04 Gerber Fmt 4.6, Leading zero omitted, Abs format (unit mm)*
G04 Created by KiCad (PCBNEW 5.1.6+dfsg1-1~bpo10+1) date 2020-07-19 00:44:28*
%MOMM*%
%LPD*%
G01*
G04 APERTURE LIST*
G04 #@! TA.AperFunction,ComponentPad*
%ADD10R,1.700000X1.700000*%
G04 #@! TD*
G04 #@! TA.AperFunction,ComponentPad*
%ADD11O,1.700000X1.700000*%
G04 #@! TD*
G04 #@! TA.AperFunction,ComponentPad*
%ADD12R,3.500000X3.500000*%
G04 #@! TD*
G04 #@! TA.AperFunction,ComponentPad*
%ADD13C,1.500000*%
G04 #@! TD*
G04 #@! TA.AperFunction,ViaPad*
%ADD14C,0.450000*%
G04 #@! TD*
G04 #@! TA.AperFunction,ViaPad*
%ADD15C,1.270000*%
G04 #@! TD*
G04 #@! TA.AperFunction,Conductor*
%ADD16C,0.254000*%
G04 #@! TD*
G04 APERTURE END LIST*
D10*
X109410500Y-102793800D03*
D11*
X111950500Y-102793800D03*
D10*
X109410500Y-106540300D03*
D11*
X111950500Y-106540300D03*
D10*
X110744000Y-90411300D03*
D11*
X110744000Y-92951300D03*
D10*
X106997500Y-90411300D03*
D11*
X106997500Y-92951300D03*
X108077000Y-98983800D03*
X110617000Y-98983800D03*
X113157000Y-98983800D03*
X115697000Y-98983800D03*
X118237000Y-98983800D03*
X120777000Y-98983800D03*
D10*
X123317000Y-98983800D03*
X137287000Y-122986800D03*
D11*
X137287000Y-120446800D03*
X137287000Y-117906800D03*
X137287000Y-115366800D03*
X137287000Y-112826800D03*
X137287000Y-110286800D03*
X137287000Y-107746800D03*
X137287000Y-105206800D03*
G04 #@! TA.AperFunction,ComponentPad*
G36*
G01*
X139306000Y-143865800D02*
X137556000Y-143865800D01*
G75*
G02*
X136681000Y-142990800I0J875000D01*
G01*
X136681000Y-141240800D01*
G75*
G02*
X137556000Y-140365800I875000J0D01*
G01*
X139306000Y-140365800D01*
G75*
G02*
X140181000Y-141240800I0J-875000D01*
G01*
X140181000Y-142990800D01*
G75*
G02*
X139306000Y-143865800I-875000J0D01*
G01*
G37*
G04 #@! TD.AperFunction*
G04 #@! TA.AperFunction,ComponentPad*
G36*
G01*
X134731000Y-146615800D02*
X132731000Y-146615800D01*
G75*
G02*
X131981000Y-145865800I0J750000D01*
G01*
X131981000Y-144365800D01*
G75*
G02*
X132731000Y-143615800I750000J0D01*
G01*
X134731000Y-143615800D01*
G75*
G02*
X135481000Y-144365800I0J-750000D01*
G01*
X135481000Y-145865800D01*
G75*
G02*
X134731000Y-146615800I-750000J0D01*
G01*
G37*
G04 #@! TD.AperFunction*
D12*
X133731000Y-139115800D03*
D10*
X109855000Y-132003800D03*
D13*
X114881000Y-121716800D03*
X119761000Y-121716800D03*
D11*
X138684000Y-135051800D03*
X136144000Y-135051800D03*
X133604000Y-135051800D03*
D10*
X131064000Y-135051800D03*
X122555000Y-131876800D03*
D11*
X122555000Y-129336800D03*
X111950500Y-114033300D03*
D10*
X109410500Y-114033300D03*
D11*
X111950500Y-110286800D03*
D10*
X109410500Y-110286800D03*
D14*
X127889000Y-111302800D03*
X122555000Y-135813800D03*
X113030000Y-137210800D03*
X113919000Y-138353800D03*
X126478000Y-123861800D03*
X108472000Y-123861800D03*
X127889000Y-120446800D03*
X132334000Y-113715800D03*
X132080000Y-105714800D03*
X132870000Y-104472800D03*
X133604000Y-98348800D03*
X134239000Y-96824800D03*
X134465000Y-90502800D03*
X135410000Y-90502800D03*
X113919000Y-115874800D03*
X120051000Y-105496800D03*
X119176800Y-117881400D03*
X126633000Y-101382800D03*
X127127000Y-89585800D03*
X128129000Y-94552800D03*
X113792000Y-90216800D03*
X125349000Y-93141800D03*
X116713000Y-115239800D03*
X137541000Y-131495800D03*
X135128000Y-128574800D03*
X128143000Y-108000800D03*
X129286000Y-131495800D03*
X106807000Y-100888800D03*
X106680000Y-108508800D03*
X131699000Y-114858800D03*
D15*
X121920000Y-142163800D03*
D14*
X108585000Y-142036800D03*
D15*
X117602000Y-142544800D03*
D14*
X113792000Y-139750800D03*
X113284000Y-144195800D03*
X114300000Y-117906800D03*
X126111000Y-106349800D03*
X127381000Y-103809800D03*
X118745000Y-102031800D03*
D16*
G36*
X115189000Y-95681800D02*
G01*
X115191440Y-95706576D01*
X115198667Y-95730401D01*
X115210403Y-95752357D01*
X115226197Y-95771603D01*
X115245443Y-95787397D01*
X115267399Y-95799133D01*
X115291224Y-95806360D01*
X115316000Y-95808800D01*
X124206000Y-95808800D01*
X124230776Y-95806360D01*
X124254601Y-95799133D01*
X124276557Y-95787397D01*
X124295803Y-95771603D01*
X124311597Y-95752357D01*
X124323333Y-95730401D01*
X124330560Y-95706576D01*
X124333000Y-95681800D01*
X124333000Y-88848000D01*
X141276000Y-88848000D01*
X141276001Y-146610000D01*
X136119057Y-146610000D01*
X136116000Y-145401550D01*
X135957250Y-145242800D01*
X133858000Y-145242800D01*
X133858000Y-145262800D01*
X133604000Y-145262800D01*
X133604000Y-145242800D01*
X131504750Y-145242800D01*
X131346000Y-145401550D01*
X131342943Y-146610000D01*
X104850000Y-146610000D01*
X104850000Y-143615800D01*
X131342928Y-143615800D01*
X131346000Y-144830050D01*
X131504750Y-144988800D01*
X133604000Y-144988800D01*
X133604000Y-143139550D01*
X133858000Y-143139550D01*
X133858000Y-144988800D01*
X135957250Y-144988800D01*
X136116000Y-144830050D01*
X136117698Y-144158995D01*
X136150463Y-144220294D01*
X136229815Y-144316985D01*
X136326506Y-144396337D01*
X136436820Y-144455302D01*
X136556518Y-144491612D01*
X136681000Y-144503872D01*
X138145250Y-144500800D01*
X138304000Y-144342050D01*
X138304000Y-142242800D01*
X138558000Y-142242800D01*
X138558000Y-144342050D01*
X138716750Y-144500800D01*
X140181000Y-144503872D01*
X140305482Y-144491612D01*
X140425180Y-144455302D01*
X140535494Y-144396337D01*
X140632185Y-144316985D01*
X140711537Y-144220294D01*
X140770502Y-144109980D01*
X140806812Y-143990282D01*
X140819072Y-143865800D01*
X140816000Y-142401550D01*
X140657250Y-142242800D01*
X138558000Y-142242800D01*
X138304000Y-142242800D01*
X136204750Y-142242800D01*
X136046000Y-142401550D01*
X136044069Y-143322167D01*
X136011537Y-143261306D01*
X135932185Y-143164615D01*
X135835494Y-143085263D01*
X135725180Y-143026298D01*
X135605482Y-142989988D01*
X135481000Y-142977728D01*
X134016750Y-142980800D01*
X133858000Y-143139550D01*
X133604000Y-143139550D01*
X133445250Y-142980800D01*
X131981000Y-142977728D01*
X131856518Y-142989988D01*
X131736820Y-143026298D01*
X131626506Y-143085263D01*
X131529815Y-143164615D01*
X131450463Y-143261306D01*
X131391498Y-143371620D01*
X131355188Y-143491318D01*
X131342928Y-143615800D01*
X104850000Y-143615800D01*
X104850000Y-137365800D01*
X131342928Y-137365800D01*
X131342928Y-140865800D01*
X131355188Y-140990282D01*
X131391498Y-141109980D01*
X131450463Y-141220294D01*
X131529815Y-141316985D01*
X131626506Y-141396337D01*
X131736820Y-141455302D01*
X131856518Y-141491612D01*
X131981000Y-141503872D01*
X135481000Y-141503872D01*
X135605482Y-141491612D01*
X135725180Y-141455302D01*
X135835494Y-141396337D01*
X135932185Y-141316985D01*
X136011537Y-141220294D01*
X136044591Y-141158455D01*
X136046000Y-141830050D01*
X136204750Y-141988800D01*
X138304000Y-141988800D01*
X138304000Y-139889550D01*
X138558000Y-139889550D01*
X138558000Y-141988800D01*
X140657250Y-141988800D01*
X140816000Y-141830050D01*
X140819072Y-140365800D01*
X140806812Y-140241318D01*
X140770502Y-140121620D01*
X140711537Y-140011306D01*
X140632185Y-139914615D01*
X140535494Y-139835263D01*
X140425180Y-139776298D01*
X140305482Y-139739988D01*
X140181000Y-139727728D01*
X138716750Y-139730800D01*
X138558000Y-139889550D01*
X138304000Y-139889550D01*
X138145250Y-139730800D01*
X136681000Y-139727728D01*
X136556518Y-139739988D01*
X136436820Y-139776298D01*
X136326506Y-139835263D01*
X136229815Y-139914615D01*
X136150463Y-140011306D01*
X136119072Y-140070033D01*
X136119072Y-137365800D01*
X136106812Y-137241318D01*
X136070502Y-137121620D01*
X136011537Y-137011306D01*
X135932185Y-136914615D01*
X135835494Y-136835263D01*
X135725180Y-136776298D01*
X135605482Y-136739988D01*
X135481000Y-136727728D01*
X131981000Y-136727728D01*
X131856518Y-136739988D01*
X131736820Y-136776298D01*
X131626506Y-136835263D01*
X131529815Y-136914615D01*
X131450463Y-137011306D01*
X131391498Y-137121620D01*
X131355188Y-137241318D01*
X131342928Y-137365800D01*
X104850000Y-137365800D01*
X104850000Y-134201800D01*
X129575928Y-134201800D01*
X129575928Y-135901800D01*
X129588188Y-136026282D01*
X129624498Y-136145980D01*
X129683463Y-136256294D01*
X129762815Y-136352985D01*
X129859506Y-136432337D01*
X129969820Y-136491302D01*
X130089518Y-136527612D01*
X130214000Y-136539872D01*
X131914000Y-136539872D01*
X132038482Y-136527612D01*
X132158180Y-136491302D01*
X132268494Y-136432337D01*
X132365185Y-136352985D01*
X132444537Y-136256294D01*
X132503502Y-136145980D01*
X132525513Y-136073420D01*
X132657368Y-136205275D01*
X132900589Y-136367790D01*
X133170842Y-136479732D01*
X133457740Y-136536800D01*
X133750260Y-136536800D01*
X134037158Y-136479732D01*
X134307411Y-136367790D01*
X134550632Y-136205275D01*
X134757475Y-135998432D01*
X134879195Y-135816266D01*
X134948822Y-135933155D01*
X135143731Y-136149388D01*
X135377080Y-136323441D01*
X135639901Y-136448625D01*
X135787110Y-136493276D01*
X136017000Y-136371955D01*
X136017000Y-135178800D01*
X135997000Y-135178800D01*
X135997000Y-134924800D01*
X136017000Y-134924800D01*
X136017000Y-133731645D01*
X136271000Y-133731645D01*
X136271000Y-134924800D01*
X136291000Y-134924800D01*
X136291000Y-135178800D01*
X136271000Y-135178800D01*
X136271000Y-136371955D01*
X136500890Y-136493276D01*
X136648099Y-136448625D01*
X136910920Y-136323441D01*
X137144269Y-136149388D01*
X137339178Y-135933155D01*
X137408805Y-135816266D01*
X137530525Y-135998432D01*
X137737368Y-136205275D01*
X137980589Y-136367790D01*
X138250842Y-136479732D01*
X138537740Y-136536800D01*
X138830260Y-136536800D01*
X139117158Y-136479732D01*
X139387411Y-136367790D01*
X139630632Y-136205275D01*
X139837475Y-135998432D01*
X139999990Y-135755211D01*
X140111932Y-135484958D01*
X140169000Y-135198060D01*
X140169000Y-134905540D01*
X140111932Y-134618642D01*
X139999990Y-134348389D01*
X139837475Y-134105168D01*
X139630632Y-133898325D01*
X139387411Y-133735810D01*
X139117158Y-133623868D01*
X138830260Y-133566800D01*
X138537740Y-133566800D01*
X138250842Y-133623868D01*
X137980589Y-133735810D01*
X137737368Y-133898325D01*
X137530525Y-134105168D01*
X137408805Y-134287334D01*
X137339178Y-134170445D01*
X137144269Y-133954212D01*
X136910920Y-133780159D01*
X136648099Y-133654975D01*
X136500890Y-133610324D01*
X136271000Y-133731645D01*
X136017000Y-133731645D01*
X135787110Y-133610324D01*
X135639901Y-133654975D01*
X135377080Y-133780159D01*
X135143731Y-133954212D01*
X134948822Y-134170445D01*
X134879195Y-134287334D01*
X134757475Y-134105168D01*
X134550632Y-133898325D01*
X134307411Y-133735810D01*
X134037158Y-133623868D01*
X133750260Y-133566800D01*
X133457740Y-133566800D01*
X133170842Y-133623868D01*
X132900589Y-133735810D01*
X132657368Y-133898325D01*
X132525513Y-134030180D01*
X132503502Y-133957620D01*
X132444537Y-133847306D01*
X132365185Y-133750615D01*
X132268494Y-133671263D01*
X132158180Y-133612298D01*
X132038482Y-133575988D01*
X131914000Y-133563728D01*
X130214000Y-133563728D01*
X130089518Y-133575988D01*
X129969820Y-133612298D01*
X129859506Y-133671263D01*
X129762815Y-133750615D01*
X129683463Y-133847306D01*
X129624498Y-133957620D01*
X129588188Y-134077318D01*
X129575928Y-134201800D01*
X104850000Y-134201800D01*
X104850000Y-132853800D01*
X108366928Y-132853800D01*
X108379188Y-132978282D01*
X108415498Y-133097980D01*
X108474463Y-133208294D01*
X108553815Y-133304985D01*
X108650506Y-133384337D01*
X108760820Y-133443302D01*
X108880518Y-133479612D01*
X109005000Y-133491872D01*
X109569250Y-133488800D01*
X109728000Y-133330050D01*
X109728000Y-132130800D01*
X109982000Y-132130800D01*
X109982000Y-133330050D01*
X110140750Y-133488800D01*
X110705000Y-133491872D01*
X110829482Y-133479612D01*
X110949180Y-133443302D01*
X111059494Y-133384337D01*
X111156185Y-133304985D01*
X111235537Y-133208294D01*
X111294502Y-133097980D01*
X111330812Y-132978282D01*
X111343072Y-132853800D01*
X111340000Y-132289550D01*
X111181250Y-132130800D01*
X109982000Y-132130800D01*
X109728000Y-132130800D01*
X108528750Y-132130800D01*
X108370000Y-132289550D01*
X108366928Y-132853800D01*
X104850000Y-132853800D01*
X104850000Y-131153800D01*
X108366928Y-131153800D01*
X108370000Y-131718050D01*
X108528750Y-131876800D01*
X109728000Y-131876800D01*
X109728000Y-130677550D01*
X109982000Y-130677550D01*
X109982000Y-131876800D01*
X111181250Y-131876800D01*
X111340000Y-131718050D01*
X111343072Y-131153800D01*
X111330812Y-131029318D01*
X111330049Y-131026800D01*
X121066928Y-131026800D01*
X121066928Y-132726800D01*
X121079188Y-132851282D01*
X121115498Y-132970980D01*
X121174463Y-133081294D01*
X121253815Y-133177985D01*
X121350506Y-133257337D01*
X121460820Y-133316302D01*
X121580518Y-133352612D01*
X121705000Y-133364872D01*
X123405000Y-133364872D01*
X123529482Y-133352612D01*
X123649180Y-133316302D01*
X123759494Y-133257337D01*
X123856185Y-133177985D01*
X123935537Y-133081294D01*
X123994502Y-132970980D01*
X124030812Y-132851282D01*
X124043072Y-132726800D01*
X124043072Y-131026800D01*
X124030812Y-130902318D01*
X123994502Y-130782620D01*
X123935537Y-130672306D01*
X123856185Y-130575615D01*
X123759494Y-130496263D01*
X123649180Y-130437298D01*
X123576620Y-130415287D01*
X123708475Y-130283432D01*
X123870990Y-130040211D01*
X123982932Y-129769958D01*
X124040000Y-129483060D01*
X124040000Y-129190540D01*
X123982932Y-128903642D01*
X123870990Y-128633389D01*
X123708475Y-128390168D01*
X123501632Y-128183325D01*
X123258411Y-128020810D01*
X122988158Y-127908868D01*
X122701260Y-127851800D01*
X122408740Y-127851800D01*
X122121842Y-127908868D01*
X121851589Y-128020810D01*
X121608368Y-128183325D01*
X121401525Y-128390168D01*
X121239010Y-128633389D01*
X121127068Y-128903642D01*
X121070000Y-129190540D01*
X121070000Y-129483060D01*
X121127068Y-129769958D01*
X121239010Y-130040211D01*
X121401525Y-130283432D01*
X121533380Y-130415287D01*
X121460820Y-130437298D01*
X121350506Y-130496263D01*
X121253815Y-130575615D01*
X121174463Y-130672306D01*
X121115498Y-130782620D01*
X121079188Y-130902318D01*
X121066928Y-131026800D01*
X111330049Y-131026800D01*
X111294502Y-130909620D01*
X111235537Y-130799306D01*
X111156185Y-130702615D01*
X111059494Y-130623263D01*
X110949180Y-130564298D01*
X110829482Y-130527988D01*
X110705000Y-130515728D01*
X110140750Y-130518800D01*
X109982000Y-130677550D01*
X109728000Y-130677550D01*
X109569250Y-130518800D01*
X109005000Y-130515728D01*
X108880518Y-130527988D01*
X108760820Y-130564298D01*
X108650506Y-130623263D01*
X108553815Y-130702615D01*
X108474463Y-130799306D01*
X108415498Y-130909620D01*
X108379188Y-131029318D01*
X108366928Y-131153800D01*
X104850000Y-131153800D01*
X104850000Y-121580389D01*
X113496000Y-121580389D01*
X113496000Y-121853211D01*
X113549225Y-122120789D01*
X113653629Y-122372843D01*
X113805201Y-122599686D01*
X113998114Y-122792599D01*
X114224957Y-122944171D01*
X114477011Y-123048575D01*
X114744589Y-123101800D01*
X115017411Y-123101800D01*
X115284989Y-123048575D01*
X115537043Y-122944171D01*
X115763886Y-122792599D01*
X115956799Y-122599686D01*
X116108371Y-122372843D01*
X116212775Y-122120789D01*
X116266000Y-121853211D01*
X116266000Y-121580389D01*
X118376000Y-121580389D01*
X118376000Y-121853211D01*
X118429225Y-122120789D01*
X118533629Y-122372843D01*
X118685201Y-122599686D01*
X118878114Y-122792599D01*
X119104957Y-122944171D01*
X119357011Y-123048575D01*
X119624589Y-123101800D01*
X119897411Y-123101800D01*
X120164989Y-123048575D01*
X120417043Y-122944171D01*
X120643886Y-122792599D01*
X120836799Y-122599686D01*
X120988371Y-122372843D01*
X121086143Y-122136800D01*
X135798928Y-122136800D01*
X135798928Y-123836800D01*
X135811188Y-123961282D01*
X135847498Y-124080980D01*
X135906463Y-124191294D01*
X135985815Y-124287985D01*
X136082506Y-124367337D01*
X136192820Y-124426302D01*
X136312518Y-124462612D01*
X136437000Y-124474872D01*
X138137000Y-124474872D01*
X138261482Y-124462612D01*
X138381180Y-124426302D01*
X138491494Y-124367337D01*
X138588185Y-124287985D01*
X138667537Y-124191294D01*
X138726502Y-124080980D01*
X138762812Y-123961282D01*
X138775072Y-123836800D01*
X138775072Y-122136800D01*
X138762812Y-122012318D01*
X138726502Y-121892620D01*
X138667537Y-121782306D01*
X138588185Y-121685615D01*
X138491494Y-121606263D01*
X138381180Y-121547298D01*
X138308620Y-121525287D01*
X138440475Y-121393432D01*
X138602990Y-121150211D01*
X138714932Y-120879958D01*
X138772000Y-120593060D01*
X138772000Y-120300540D01*
X138714932Y-120013642D01*
X138602990Y-119743389D01*
X138440475Y-119500168D01*
X138233632Y-119293325D01*
X138059240Y-119176800D01*
X138233632Y-119060275D01*
X138440475Y-118853432D01*
X138602990Y-118610211D01*
X138714932Y-118339958D01*
X138772000Y-118053060D01*
X138772000Y-117760540D01*
X138714932Y-117473642D01*
X138602990Y-117203389D01*
X138440475Y-116960168D01*
X138233632Y-116753325D01*
X138059240Y-116636800D01*
X138233632Y-116520275D01*
X138440475Y-116313432D01*
X138602990Y-116070211D01*
X138714932Y-115799958D01*
X138772000Y-115513060D01*
X138772000Y-115220540D01*
X138714932Y-114933642D01*
X138602990Y-114663389D01*
X138440475Y-114420168D01*
X138233632Y-114213325D01*
X138059240Y-114096800D01*
X138233632Y-113980275D01*
X138440475Y-113773432D01*
X138602990Y-113530211D01*
X138714932Y-113259958D01*
X138772000Y-112973060D01*
X138772000Y-112680540D01*
X138714932Y-112393642D01*
X138602990Y-112123389D01*
X138440475Y-111880168D01*
X138233632Y-111673325D01*
X138059240Y-111556800D01*
X138233632Y-111440275D01*
X138440475Y-111233432D01*
X138602990Y-110990211D01*
X138714932Y-110719958D01*
X138772000Y-110433060D01*
X138772000Y-110140540D01*
X138714932Y-109853642D01*
X138602990Y-109583389D01*
X138440475Y-109340168D01*
X138233632Y-109133325D01*
X138059240Y-109016800D01*
X138233632Y-108900275D01*
X138440475Y-108693432D01*
X138602990Y-108450211D01*
X138714932Y-108179958D01*
X138772000Y-107893060D01*
X138772000Y-107600540D01*
X138714932Y-107313642D01*
X138602990Y-107043389D01*
X138440475Y-106800168D01*
X138233632Y-106593325D01*
X138059240Y-106476800D01*
X138233632Y-106360275D01*
X138440475Y-106153432D01*
X138602990Y-105910211D01*
X138714932Y-105639958D01*
X138772000Y-105353060D01*
X138772000Y-105060540D01*
X138714932Y-104773642D01*
X138602990Y-104503389D01*
X138440475Y-104260168D01*
X138233632Y-104053325D01*
X137990411Y-103890810D01*
X137720158Y-103778868D01*
X137433260Y-103721800D01*
X137140740Y-103721800D01*
X136853842Y-103778868D01*
X136583589Y-103890810D01*
X136340368Y-104053325D01*
X136133525Y-104260168D01*
X135971010Y-104503389D01*
X135859068Y-104773642D01*
X135802000Y-105060540D01*
X135802000Y-105353060D01*
X135859068Y-105639958D01*
X135971010Y-105910211D01*
X136133525Y-106153432D01*
X136340368Y-106360275D01*
X136514760Y-106476800D01*
X136340368Y-106593325D01*
X136133525Y-106800168D01*
X135971010Y-107043389D01*
X135859068Y-107313642D01*
X135802000Y-107600540D01*
X135802000Y-107893060D01*
X135859068Y-108179958D01*
X135971010Y-108450211D01*
X136133525Y-108693432D01*
X136340368Y-108900275D01*
X136514760Y-109016800D01*
X136340368Y-109133325D01*
X136133525Y-109340168D01*
X135971010Y-109583389D01*
X135859068Y-109853642D01*
X135802000Y-110140540D01*
X135802000Y-110433060D01*
X135859068Y-110719958D01*
X135971010Y-110990211D01*
X136133525Y-111233432D01*
X136340368Y-111440275D01*
X136514760Y-111556800D01*
X136340368Y-111673325D01*
X136133525Y-111880168D01*
X135971010Y-112123389D01*
X135859068Y-112393642D01*
X135802000Y-112680540D01*
X135802000Y-112973060D01*
X135859068Y-113259958D01*
X135971010Y-113530211D01*
X136133525Y-113773432D01*
X136340368Y-113980275D01*
X136514760Y-114096800D01*
X136340368Y-114213325D01*
X136133525Y-114420168D01*
X135971010Y-114663389D01*
X135859068Y-114933642D01*
X135802000Y-115220540D01*
X135802000Y-115513060D01*
X135859068Y-115799958D01*
X135971010Y-116070211D01*
X136133525Y-116313432D01*
X136340368Y-116520275D01*
X136514760Y-116636800D01*
X136340368Y-116753325D01*
X136133525Y-116960168D01*
X135971010Y-117203389D01*
X135859068Y-117473642D01*
X135802000Y-117760540D01*
X135802000Y-118053060D01*
X135859068Y-118339958D01*
X135971010Y-118610211D01*
X136133525Y-118853432D01*
X136340368Y-119060275D01*
X136514760Y-119176800D01*
X136340368Y-119293325D01*
X136133525Y-119500168D01*
X135971010Y-119743389D01*
X135859068Y-120013642D01*
X135802000Y-120300540D01*
X135802000Y-120593060D01*
X135859068Y-120879958D01*
X135971010Y-121150211D01*
X136133525Y-121393432D01*
X136265380Y-121525287D01*
X136192820Y-121547298D01*
X136082506Y-121606263D01*
X135985815Y-121685615D01*
X135906463Y-121782306D01*
X135847498Y-121892620D01*
X135811188Y-122012318D01*
X135798928Y-122136800D01*
X121086143Y-122136800D01*
X121092775Y-122120789D01*
X121146000Y-121853211D01*
X121146000Y-121580389D01*
X121092775Y-121312811D01*
X120988371Y-121060757D01*
X120836799Y-120833914D01*
X120643886Y-120641001D01*
X120417043Y-120489429D01*
X120164989Y-120385025D01*
X119897411Y-120331800D01*
X119624589Y-120331800D01*
X119357011Y-120385025D01*
X119104957Y-120489429D01*
X118878114Y-120641001D01*
X118685201Y-120833914D01*
X118533629Y-121060757D01*
X118429225Y-121312811D01*
X118376000Y-121580389D01*
X116266000Y-121580389D01*
X116212775Y-121312811D01*
X116108371Y-121060757D01*
X115956799Y-120833914D01*
X115763886Y-120641001D01*
X115537043Y-120489429D01*
X115284989Y-120385025D01*
X115017411Y-120331800D01*
X114744589Y-120331800D01*
X114477011Y-120385025D01*
X114224957Y-120489429D01*
X113998114Y-120641001D01*
X113805201Y-120833914D01*
X113653629Y-121060757D01*
X113549225Y-121312811D01*
X113496000Y-121580389D01*
X104850000Y-121580389D01*
X104850000Y-113183300D01*
X107922428Y-113183300D01*
X107922428Y-114883300D01*
X107934688Y-115007782D01*
X107970998Y-115127480D01*
X108029963Y-115237794D01*
X108109315Y-115334485D01*
X108206006Y-115413837D01*
X108316320Y-115472802D01*
X108436018Y-115509112D01*
X108560500Y-115521372D01*
X110260500Y-115521372D01*
X110384982Y-115509112D01*
X110504680Y-115472802D01*
X110614994Y-115413837D01*
X110711685Y-115334485D01*
X110791037Y-115237794D01*
X110850002Y-115127480D01*
X110874466Y-115046834D01*
X110950231Y-115130888D01*
X111183580Y-115304941D01*
X111446401Y-115430125D01*
X111593610Y-115474776D01*
X111823500Y-115353455D01*
X111823500Y-114160300D01*
X112077500Y-114160300D01*
X112077500Y-115353455D01*
X112307390Y-115474776D01*
X112454599Y-115430125D01*
X112717420Y-115304941D01*
X112950769Y-115130888D01*
X113145678Y-114914655D01*
X113294657Y-114664552D01*
X113391981Y-114390191D01*
X113271314Y-114160300D01*
X112077500Y-114160300D01*
X111823500Y-114160300D01*
X111803500Y-114160300D01*
X111803500Y-113906300D01*
X111823500Y-113906300D01*
X111823500Y-112713145D01*
X112077500Y-112713145D01*
X112077500Y-113906300D01*
X113271314Y-113906300D01*
X113391981Y-113676409D01*
X113294657Y-113402048D01*
X113145678Y-113151945D01*
X112950769Y-112935712D01*
X112717420Y-112761659D01*
X112454599Y-112636475D01*
X112307390Y-112591824D01*
X112077500Y-112713145D01*
X111823500Y-112713145D01*
X111593610Y-112591824D01*
X111446401Y-112636475D01*
X111183580Y-112761659D01*
X110950231Y-112935712D01*
X110874466Y-113019766D01*
X110850002Y-112939120D01*
X110791037Y-112828806D01*
X110711685Y-112732115D01*
X110614994Y-112652763D01*
X110504680Y-112593798D01*
X110384982Y-112557488D01*
X110260500Y-112545228D01*
X108560500Y-112545228D01*
X108436018Y-112557488D01*
X108316320Y-112593798D01*
X108206006Y-112652763D01*
X108109315Y-112732115D01*
X108029963Y-112828806D01*
X107970998Y-112939120D01*
X107934688Y-113058818D01*
X107922428Y-113183300D01*
X104850000Y-113183300D01*
X104850000Y-109436800D01*
X107922428Y-109436800D01*
X107922428Y-111136800D01*
X107934688Y-111261282D01*
X107970998Y-111380980D01*
X108029963Y-111491294D01*
X108109315Y-111587985D01*
X108206006Y-111667337D01*
X108316320Y-111726302D01*
X108436018Y-111762612D01*
X108560500Y-111774872D01*
X110260500Y-111774872D01*
X110384982Y-111762612D01*
X110504680Y-111726302D01*
X110614994Y-111667337D01*
X110711685Y-111587985D01*
X110791037Y-111491294D01*
X110850002Y-111380980D01*
X110872013Y-111308420D01*
X111003868Y-111440275D01*
X111247089Y-111602790D01*
X111517342Y-111714732D01*
X111804240Y-111771800D01*
X112096760Y-111771800D01*
X112383658Y-111714732D01*
X112653911Y-111602790D01*
X112897132Y-111440275D01*
X113103975Y-111233432D01*
X113266490Y-110990211D01*
X113378432Y-110719958D01*
X113435500Y-110433060D01*
X113435500Y-110140540D01*
X113378432Y-109853642D01*
X113266490Y-109583389D01*
X113103975Y-109340168D01*
X112897132Y-109133325D01*
X112653911Y-108970810D01*
X112383658Y-108858868D01*
X112096760Y-108801800D01*
X111804240Y-108801800D01*
X111517342Y-108858868D01*
X111247089Y-108970810D01*
X111003868Y-109133325D01*
X110872013Y-109265180D01*
X110850002Y-109192620D01*
X110791037Y-109082306D01*
X110711685Y-108985615D01*
X110614994Y-108906263D01*
X110504680Y-108847298D01*
X110384982Y-108810988D01*
X110260500Y-108798728D01*
X108560500Y-108798728D01*
X108436018Y-108810988D01*
X108316320Y-108847298D01*
X108206006Y-108906263D01*
X108109315Y-108985615D01*
X108029963Y-109082306D01*
X107970998Y-109192620D01*
X107934688Y-109312318D01*
X107922428Y-109436800D01*
X104850000Y-109436800D01*
X104850000Y-105690300D01*
X107922428Y-105690300D01*
X107922428Y-107390300D01*
X107934688Y-107514782D01*
X107970998Y-107634480D01*
X108029963Y-107744794D01*
X108109315Y-107841485D01*
X108206006Y-107920837D01*
X108316320Y-107979802D01*
X108436018Y-108016112D01*
X108560500Y-108028372D01*
X110260500Y-108028372D01*
X110384982Y-108016112D01*
X110504680Y-107979802D01*
X110614994Y-107920837D01*
X110711685Y-107841485D01*
X110791037Y-107744794D01*
X110850002Y-107634480D01*
X110874466Y-107553834D01*
X110950231Y-107637888D01*
X111183580Y-107811941D01*
X111446401Y-107937125D01*
X111593610Y-107981776D01*
X111823500Y-107860455D01*
X111823500Y-106667300D01*
X112077500Y-106667300D01*
X112077500Y-107860455D01*
X112307390Y-107981776D01*
X112454599Y-107937125D01*
X112717420Y-107811941D01*
X112950769Y-107637888D01*
X113145678Y-107421655D01*
X113294657Y-107171552D01*
X113391981Y-106897191D01*
X113271314Y-106667300D01*
X112077500Y-106667300D01*
X111823500Y-106667300D01*
X111803500Y-106667300D01*
X111803500Y-106413300D01*
X111823500Y-106413300D01*
X111823500Y-105220145D01*
X112077500Y-105220145D01*
X112077500Y-106413300D01*
X113271314Y-106413300D01*
X113391981Y-106183409D01*
X113294657Y-105909048D01*
X113145678Y-105658945D01*
X112950769Y-105442712D01*
X112717420Y-105268659D01*
X112454599Y-105143475D01*
X112307390Y-105098824D01*
X112077500Y-105220145D01*
X111823500Y-105220145D01*
X111593610Y-105098824D01*
X111446401Y-105143475D01*
X111183580Y-105268659D01*
X110950231Y-105442712D01*
X110874466Y-105526766D01*
X110850002Y-105446120D01*
X110791037Y-105335806D01*
X110711685Y-105239115D01*
X110614994Y-105159763D01*
X110504680Y-105100798D01*
X110384982Y-105064488D01*
X110260500Y-105052228D01*
X108560500Y-105052228D01*
X108436018Y-105064488D01*
X108316320Y-105100798D01*
X108206006Y-105159763D01*
X108109315Y-105239115D01*
X108029963Y-105335806D01*
X107970998Y-105446120D01*
X107934688Y-105565818D01*
X107922428Y-105690300D01*
X104850000Y-105690300D01*
X104850000Y-101943800D01*
X107922428Y-101943800D01*
X107922428Y-103643800D01*
X107934688Y-103768282D01*
X107970998Y-103887980D01*
X108029963Y-103998294D01*
X108109315Y-104094985D01*
X108206006Y-104174337D01*
X108316320Y-104233302D01*
X108436018Y-104269612D01*
X108560500Y-104281872D01*
X110260500Y-104281872D01*
X110384982Y-104269612D01*
X110504680Y-104233302D01*
X110614994Y-104174337D01*
X110711685Y-104094985D01*
X110791037Y-103998294D01*
X110850002Y-103887980D01*
X110872013Y-103815420D01*
X111003868Y-103947275D01*
X111247089Y-104109790D01*
X111517342Y-104221732D01*
X111804240Y-104278800D01*
X112096760Y-104278800D01*
X112383658Y-104221732D01*
X112653911Y-104109790D01*
X112897132Y-103947275D01*
X113103975Y-103740432D01*
X113266490Y-103497211D01*
X113378432Y-103226958D01*
X113435500Y-102940060D01*
X113435500Y-102647540D01*
X113378432Y-102360642D01*
X113266490Y-102090389D01*
X113103975Y-101847168D01*
X112897132Y-101640325D01*
X112653911Y-101477810D01*
X112383658Y-101365868D01*
X112096760Y-101308800D01*
X111804240Y-101308800D01*
X111517342Y-101365868D01*
X111247089Y-101477810D01*
X111003868Y-101640325D01*
X110872013Y-101772180D01*
X110850002Y-101699620D01*
X110791037Y-101589306D01*
X110711685Y-101492615D01*
X110614994Y-101413263D01*
X110504680Y-101354298D01*
X110384982Y-101317988D01*
X110260500Y-101305728D01*
X108560500Y-101305728D01*
X108436018Y-101317988D01*
X108316320Y-101354298D01*
X108206006Y-101413263D01*
X108109315Y-101492615D01*
X108029963Y-101589306D01*
X107970998Y-101699620D01*
X107934688Y-101819318D01*
X107922428Y-101943800D01*
X104850000Y-101943800D01*
X104850000Y-99340691D01*
X106635519Y-99340691D01*
X106732843Y-99615052D01*
X106881822Y-99865155D01*
X107076731Y-100081388D01*
X107310080Y-100255441D01*
X107572901Y-100380625D01*
X107720110Y-100425276D01*
X107950000Y-100303955D01*
X107950000Y-99110800D01*
X106756186Y-99110800D01*
X106635519Y-99340691D01*
X104850000Y-99340691D01*
X104850000Y-98626909D01*
X106635519Y-98626909D01*
X106756186Y-98856800D01*
X107950000Y-98856800D01*
X107950000Y-97663645D01*
X108204000Y-97663645D01*
X108204000Y-98856800D01*
X108224000Y-98856800D01*
X108224000Y-99110800D01*
X108204000Y-99110800D01*
X108204000Y-100303955D01*
X108433890Y-100425276D01*
X108581099Y-100380625D01*
X108843920Y-100255441D01*
X109077269Y-100081388D01*
X109272178Y-99865155D01*
X109341805Y-99748266D01*
X109463525Y-99930432D01*
X109670368Y-100137275D01*
X109913589Y-100299790D01*
X110183842Y-100411732D01*
X110470740Y-100468800D01*
X110763260Y-100468800D01*
X111050158Y-100411732D01*
X111320411Y-100299790D01*
X111563632Y-100137275D01*
X111770475Y-99930432D01*
X111887000Y-99756040D01*
X112003525Y-99930432D01*
X112210368Y-100137275D01*
X112453589Y-100299790D01*
X112723842Y-100411732D01*
X113010740Y-100468800D01*
X113303260Y-100468800D01*
X113590158Y-100411732D01*
X113860411Y-100299790D01*
X114103632Y-100137275D01*
X114310475Y-99930432D01*
X114427000Y-99756040D01*
X114543525Y-99930432D01*
X114750368Y-100137275D01*
X114993589Y-100299790D01*
X115263842Y-100411732D01*
X115550740Y-100468800D01*
X115843260Y-100468800D01*
X116130158Y-100411732D01*
X116400411Y-100299790D01*
X116643632Y-100137275D01*
X116850475Y-99930432D01*
X116972195Y-99748266D01*
X117041822Y-99865155D01*
X117236731Y-100081388D01*
X117470080Y-100255441D01*
X117732901Y-100380625D01*
X117880110Y-100425276D01*
X118110000Y-100303955D01*
X118110000Y-99110800D01*
X118090000Y-99110800D01*
X118090000Y-98856800D01*
X118110000Y-98856800D01*
X118110000Y-97663645D01*
X118364000Y-97663645D01*
X118364000Y-98856800D01*
X118384000Y-98856800D01*
X118384000Y-99110800D01*
X118364000Y-99110800D01*
X118364000Y-100303955D01*
X118593890Y-100425276D01*
X118741099Y-100380625D01*
X119003920Y-100255441D01*
X119237269Y-100081388D01*
X119432178Y-99865155D01*
X119501805Y-99748266D01*
X119623525Y-99930432D01*
X119830368Y-100137275D01*
X120073589Y-100299790D01*
X120343842Y-100411732D01*
X120630740Y-100468800D01*
X120923260Y-100468800D01*
X121210158Y-100411732D01*
X121480411Y-100299790D01*
X121723632Y-100137275D01*
X121855487Y-100005420D01*
X121877498Y-100077980D01*
X121936463Y-100188294D01*
X122015815Y-100284985D01*
X122112506Y-100364337D01*
X122222820Y-100423302D01*
X122342518Y-100459612D01*
X122467000Y-100471872D01*
X124167000Y-100471872D01*
X124291482Y-100459612D01*
X124411180Y-100423302D01*
X124521494Y-100364337D01*
X124618185Y-100284985D01*
X124697537Y-100188294D01*
X124756502Y-100077980D01*
X124792812Y-99958282D01*
X124805072Y-99833800D01*
X124805072Y-98133800D01*
X124792812Y-98009318D01*
X124756502Y-97889620D01*
X124697537Y-97779306D01*
X124618185Y-97682615D01*
X124521494Y-97603263D01*
X124411180Y-97544298D01*
X124291482Y-97507988D01*
X124167000Y-97495728D01*
X122467000Y-97495728D01*
X122342518Y-97507988D01*
X122222820Y-97544298D01*
X122112506Y-97603263D01*
X122015815Y-97682615D01*
X121936463Y-97779306D01*
X121877498Y-97889620D01*
X121855487Y-97962180D01*
X121723632Y-97830325D01*
X121480411Y-97667810D01*
X121210158Y-97555868D01*
X120923260Y-97498800D01*
X120630740Y-97498800D01*
X120343842Y-97555868D01*
X120073589Y-97667810D01*
X119830368Y-97830325D01*
X119623525Y-98037168D01*
X119501805Y-98219334D01*
X119432178Y-98102445D01*
X119237269Y-97886212D01*
X119003920Y-97712159D01*
X118741099Y-97586975D01*
X118593890Y-97542324D01*
X118364000Y-97663645D01*
X118110000Y-97663645D01*
X117880110Y-97542324D01*
X117732901Y-97586975D01*
X117470080Y-97712159D01*
X117236731Y-97886212D01*
X117041822Y-98102445D01*
X116972195Y-98219334D01*
X116850475Y-98037168D01*
X116643632Y-97830325D01*
X116400411Y-97667810D01*
X116130158Y-97555868D01*
X115843260Y-97498800D01*
X115550740Y-97498800D01*
X115263842Y-97555868D01*
X114993589Y-97667810D01*
X114750368Y-97830325D01*
X114543525Y-98037168D01*
X114427000Y-98211560D01*
X114310475Y-98037168D01*
X114103632Y-97830325D01*
X113860411Y-97667810D01*
X113590158Y-97555868D01*
X113303260Y-97498800D01*
X113010740Y-97498800D01*
X112723842Y-97555868D01*
X112453589Y-97667810D01*
X112210368Y-97830325D01*
X112003525Y-98037168D01*
X111887000Y-98211560D01*
X111770475Y-98037168D01*
X111563632Y-97830325D01*
X111320411Y-97667810D01*
X111050158Y-97555868D01*
X110763260Y-97498800D01*
X110470740Y-97498800D01*
X110183842Y-97555868D01*
X109913589Y-97667810D01*
X109670368Y-97830325D01*
X109463525Y-98037168D01*
X109341805Y-98219334D01*
X109272178Y-98102445D01*
X109077269Y-97886212D01*
X108843920Y-97712159D01*
X108581099Y-97586975D01*
X108433890Y-97542324D01*
X108204000Y-97663645D01*
X107950000Y-97663645D01*
X107720110Y-97542324D01*
X107572901Y-97586975D01*
X107310080Y-97712159D01*
X107076731Y-97886212D01*
X106881822Y-98102445D01*
X106732843Y-98352548D01*
X106635519Y-98626909D01*
X104850000Y-98626909D01*
X104850000Y-91261300D01*
X105509428Y-91261300D01*
X105521688Y-91385782D01*
X105557998Y-91505480D01*
X105616963Y-91615794D01*
X105696315Y-91712485D01*
X105793006Y-91791837D01*
X105903320Y-91850802D01*
X105975880Y-91872813D01*
X105844025Y-92004668D01*
X105681510Y-92247889D01*
X105569568Y-92518142D01*
X105512500Y-92805040D01*
X105512500Y-93097560D01*
X105569568Y-93384458D01*
X105681510Y-93654711D01*
X105844025Y-93897932D01*
X106050868Y-94104775D01*
X106294089Y-94267290D01*
X106564342Y-94379232D01*
X106851240Y-94436300D01*
X107143760Y-94436300D01*
X107430658Y-94379232D01*
X107700911Y-94267290D01*
X107944132Y-94104775D01*
X108150975Y-93897932D01*
X108313490Y-93654711D01*
X108425432Y-93384458D01*
X108482500Y-93097560D01*
X108482500Y-92805040D01*
X108425432Y-92518142D01*
X108313490Y-92247889D01*
X108150975Y-92004668D01*
X108019120Y-91872813D01*
X108091680Y-91850802D01*
X108201994Y-91791837D01*
X108298685Y-91712485D01*
X108378037Y-91615794D01*
X108437002Y-91505480D01*
X108473312Y-91385782D01*
X108485572Y-91261300D01*
X109255928Y-91261300D01*
X109268188Y-91385782D01*
X109304498Y-91505480D01*
X109363463Y-91615794D01*
X109442815Y-91712485D01*
X109539506Y-91791837D01*
X109649820Y-91850802D01*
X109722380Y-91872813D01*
X109590525Y-92004668D01*
X109428010Y-92247889D01*
X109316068Y-92518142D01*
X109259000Y-92805040D01*
X109259000Y-93097560D01*
X109316068Y-93384458D01*
X109428010Y-93654711D01*
X109590525Y-93897932D01*
X109797368Y-94104775D01*
X110040589Y-94267290D01*
X110310842Y-94379232D01*
X110597740Y-94436300D01*
X110890260Y-94436300D01*
X111177158Y-94379232D01*
X111447411Y-94267290D01*
X111690632Y-94104775D01*
X111897475Y-93897932D01*
X112059990Y-93654711D01*
X112171932Y-93384458D01*
X112229000Y-93097560D01*
X112229000Y-92805040D01*
X112171932Y-92518142D01*
X112059990Y-92247889D01*
X111897475Y-92004668D01*
X111765620Y-91872813D01*
X111838180Y-91850802D01*
X111948494Y-91791837D01*
X112045185Y-91712485D01*
X112124537Y-91615794D01*
X112183502Y-91505480D01*
X112219812Y-91385782D01*
X112232072Y-91261300D01*
X112229000Y-90697050D01*
X112070250Y-90538300D01*
X110871000Y-90538300D01*
X110871000Y-90558300D01*
X110617000Y-90558300D01*
X110617000Y-90538300D01*
X109417750Y-90538300D01*
X109259000Y-90697050D01*
X109255928Y-91261300D01*
X108485572Y-91261300D01*
X108482500Y-90697050D01*
X108323750Y-90538300D01*
X107124500Y-90538300D01*
X107124500Y-90558300D01*
X106870500Y-90558300D01*
X106870500Y-90538300D01*
X105671250Y-90538300D01*
X105512500Y-90697050D01*
X105509428Y-91261300D01*
X104850000Y-91261300D01*
X104850000Y-89561300D01*
X105509428Y-89561300D01*
X105512500Y-90125550D01*
X105671250Y-90284300D01*
X106870500Y-90284300D01*
X106870500Y-89085050D01*
X107124500Y-89085050D01*
X107124500Y-90284300D01*
X108323750Y-90284300D01*
X108482500Y-90125550D01*
X108485572Y-89561300D01*
X109255928Y-89561300D01*
X109259000Y-90125550D01*
X109417750Y-90284300D01*
X110617000Y-90284300D01*
X110617000Y-89085050D01*
X110871000Y-89085050D01*
X110871000Y-90284300D01*
X112070250Y-90284300D01*
X112229000Y-90125550D01*
X112232072Y-89561300D01*
X112219812Y-89436818D01*
X112183502Y-89317120D01*
X112124537Y-89206806D01*
X112045185Y-89110115D01*
X111948494Y-89030763D01*
X111838180Y-88971798D01*
X111718482Y-88935488D01*
X111594000Y-88923228D01*
X111029750Y-88926300D01*
X110871000Y-89085050D01*
X110617000Y-89085050D01*
X110458250Y-88926300D01*
X109894000Y-88923228D01*
X109769518Y-88935488D01*
X109649820Y-88971798D01*
X109539506Y-89030763D01*
X109442815Y-89110115D01*
X109363463Y-89206806D01*
X109304498Y-89317120D01*
X109268188Y-89436818D01*
X109255928Y-89561300D01*
X108485572Y-89561300D01*
X108473312Y-89436818D01*
X108437002Y-89317120D01*
X108378037Y-89206806D01*
X108298685Y-89110115D01*
X108201994Y-89030763D01*
X108091680Y-88971798D01*
X107971982Y-88935488D01*
X107847500Y-88923228D01*
X107283250Y-88926300D01*
X107124500Y-89085050D01*
X106870500Y-89085050D01*
X106711750Y-88926300D01*
X106147500Y-88923228D01*
X106023018Y-88935488D01*
X105903320Y-88971798D01*
X105793006Y-89030763D01*
X105696315Y-89110115D01*
X105616963Y-89206806D01*
X105557998Y-89317120D01*
X105521688Y-89436818D01*
X105509428Y-89561300D01*
X104850000Y-89561300D01*
X104850000Y-88848000D01*
X115189000Y-88848000D01*
X115189000Y-95681800D01*
G37*
X115189000Y-95681800D02*
X115191440Y-95706576D01*
X115198667Y-95730401D01*
X115210403Y-95752357D01*
X115226197Y-95771603D01*
X115245443Y-95787397D01*
X115267399Y-95799133D01*
X115291224Y-95806360D01*
X115316000Y-95808800D01*
X124206000Y-95808800D01*
X124230776Y-95806360D01*
X124254601Y-95799133D01*
X124276557Y-95787397D01*
X124295803Y-95771603D01*
X124311597Y-95752357D01*
X124323333Y-95730401D01*
X124330560Y-95706576D01*
X124333000Y-95681800D01*
X124333000Y-88848000D01*
X141276000Y-88848000D01*
X141276001Y-146610000D01*
X136119057Y-146610000D01*
X136116000Y-145401550D01*
X135957250Y-145242800D01*
X133858000Y-145242800D01*
X133858000Y-145262800D01*
X133604000Y-145262800D01*
X133604000Y-145242800D01*
X131504750Y-145242800D01*
X131346000Y-145401550D01*
X131342943Y-146610000D01*
X104850000Y-146610000D01*
X104850000Y-143615800D01*
X131342928Y-143615800D01*
X131346000Y-144830050D01*
X131504750Y-144988800D01*
X133604000Y-144988800D01*
X133604000Y-143139550D01*
X133858000Y-143139550D01*
X133858000Y-144988800D01*
X135957250Y-144988800D01*
X136116000Y-144830050D01*
X136117698Y-144158995D01*
X136150463Y-144220294D01*
X136229815Y-144316985D01*
X136326506Y-144396337D01*
X136436820Y-144455302D01*
X136556518Y-144491612D01*
X136681000Y-144503872D01*
X138145250Y-144500800D01*
X138304000Y-144342050D01*
X138304000Y-142242800D01*
X138558000Y-142242800D01*
X138558000Y-144342050D01*
X138716750Y-144500800D01*
X140181000Y-144503872D01*
X140305482Y-144491612D01*
X140425180Y-144455302D01*
X140535494Y-144396337D01*
X140632185Y-144316985D01*
X140711537Y-144220294D01*
X140770502Y-144109980D01*
X140806812Y-143990282D01*
X140819072Y-143865800D01*
X140816000Y-142401550D01*
X140657250Y-142242800D01*
X138558000Y-142242800D01*
X138304000Y-142242800D01*
X136204750Y-142242800D01*
X136046000Y-142401550D01*
X136044069Y-143322167D01*
X136011537Y-143261306D01*
X135932185Y-143164615D01*
X135835494Y-143085263D01*
X135725180Y-143026298D01*
X135605482Y-142989988D01*
X135481000Y-142977728D01*
X134016750Y-142980800D01*
X133858000Y-143139550D01*
X133604000Y-143139550D01*
X133445250Y-142980800D01*
X131981000Y-142977728D01*
X131856518Y-142989988D01*
X131736820Y-143026298D01*
X131626506Y-143085263D01*
X131529815Y-143164615D01*
X131450463Y-143261306D01*
X131391498Y-143371620D01*
X131355188Y-143491318D01*
X131342928Y-143615800D01*
X104850000Y-143615800D01*
X104850000Y-137365800D01*
X131342928Y-137365800D01*
X131342928Y-140865800D01*
X131355188Y-140990282D01*
X131391498Y-141109980D01*
X131450463Y-141220294D01*
X131529815Y-141316985D01*
X131626506Y-141396337D01*
X131736820Y-141455302D01*
X131856518Y-141491612D01*
X131981000Y-141503872D01*
X135481000Y-141503872D01*
X135605482Y-141491612D01*
X135725180Y-141455302D01*
X135835494Y-141396337D01*
X135932185Y-141316985D01*
X136011537Y-141220294D01*
X136044591Y-141158455D01*
X136046000Y-141830050D01*
X136204750Y-141988800D01*
X138304000Y-141988800D01*
X138304000Y-139889550D01*
X138558000Y-139889550D01*
X138558000Y-141988800D01*
X140657250Y-141988800D01*
X140816000Y-141830050D01*
X140819072Y-140365800D01*
X140806812Y-140241318D01*
X140770502Y-140121620D01*
X140711537Y-140011306D01*
X140632185Y-139914615D01*
X140535494Y-139835263D01*
X140425180Y-139776298D01*
X140305482Y-139739988D01*
X140181000Y-139727728D01*
X138716750Y-139730800D01*
X138558000Y-139889550D01*
X138304000Y-139889550D01*
X138145250Y-139730800D01*
X136681000Y-139727728D01*
X136556518Y-139739988D01*
X136436820Y-139776298D01*
X136326506Y-139835263D01*
X136229815Y-139914615D01*
X136150463Y-140011306D01*
X136119072Y-140070033D01*
X136119072Y-137365800D01*
X136106812Y-137241318D01*
X136070502Y-137121620D01*
X136011537Y-137011306D01*
X135932185Y-136914615D01*
X135835494Y-136835263D01*
X135725180Y-136776298D01*
X135605482Y-136739988D01*
X135481000Y-136727728D01*
X131981000Y-136727728D01*
X131856518Y-136739988D01*
X131736820Y-136776298D01*
X131626506Y-136835263D01*
X131529815Y-136914615D01*
X131450463Y-137011306D01*
X131391498Y-137121620D01*
X131355188Y-137241318D01*
X131342928Y-137365800D01*
X104850000Y-137365800D01*
X104850000Y-134201800D01*
X129575928Y-134201800D01*
X129575928Y-135901800D01*
X129588188Y-136026282D01*
X129624498Y-136145980D01*
X129683463Y-136256294D01*
X129762815Y-136352985D01*
X129859506Y-136432337D01*
X129969820Y-136491302D01*
X130089518Y-136527612D01*
X130214000Y-136539872D01*
X131914000Y-136539872D01*
X132038482Y-136527612D01*
X132158180Y-136491302D01*
X132268494Y-136432337D01*
X132365185Y-136352985D01*
X132444537Y-136256294D01*
X132503502Y-136145980D01*
X132525513Y-136073420D01*
X132657368Y-136205275D01*
X132900589Y-136367790D01*
X133170842Y-136479732D01*
X133457740Y-136536800D01*
X133750260Y-136536800D01*
X134037158Y-136479732D01*
X134307411Y-136367790D01*
X134550632Y-136205275D01*
X134757475Y-135998432D01*
X134879195Y-135816266D01*
X134948822Y-135933155D01*
X135143731Y-136149388D01*
X135377080Y-136323441D01*
X135639901Y-136448625D01*
X135787110Y-136493276D01*
X136017000Y-136371955D01*
X136017000Y-135178800D01*
X135997000Y-135178800D01*
X135997000Y-134924800D01*
X136017000Y-134924800D01*
X136017000Y-133731645D01*
X136271000Y-133731645D01*
X136271000Y-134924800D01*
X136291000Y-134924800D01*
X136291000Y-135178800D01*
X136271000Y-135178800D01*
X136271000Y-136371955D01*
X136500890Y-136493276D01*
X136648099Y-136448625D01*
X136910920Y-136323441D01*
X137144269Y-136149388D01*
X137339178Y-135933155D01*
X137408805Y-135816266D01*
X137530525Y-135998432D01*
X137737368Y-136205275D01*
X137980589Y-136367790D01*
X138250842Y-136479732D01*
X138537740Y-136536800D01*
X138830260Y-136536800D01*
X139117158Y-136479732D01*
X139387411Y-136367790D01*
X139630632Y-136205275D01*
X139837475Y-135998432D01*
X139999990Y-135755211D01*
X140111932Y-135484958D01*
X140169000Y-135198060D01*
X140169000Y-134905540D01*
X140111932Y-134618642D01*
X139999990Y-134348389D01*
X139837475Y-134105168D01*
X139630632Y-133898325D01*
X139387411Y-133735810D01*
X139117158Y-133623868D01*
X138830260Y-133566800D01*
X138537740Y-133566800D01*
X138250842Y-133623868D01*
X137980589Y-133735810D01*
X137737368Y-133898325D01*
X137530525Y-134105168D01*
X137408805Y-134287334D01*
X137339178Y-134170445D01*
X137144269Y-133954212D01*
X136910920Y-133780159D01*
X136648099Y-133654975D01*
X136500890Y-133610324D01*
X136271000Y-133731645D01*
X136017000Y-133731645D01*
X135787110Y-133610324D01*
X135639901Y-133654975D01*
X135377080Y-133780159D01*
X135143731Y-133954212D01*
X134948822Y-134170445D01*
X134879195Y-134287334D01*
X134757475Y-134105168D01*
X134550632Y-133898325D01*
X134307411Y-133735810D01*
X134037158Y-133623868D01*
X133750260Y-133566800D01*
X133457740Y-133566800D01*
X133170842Y-133623868D01*
X132900589Y-133735810D01*
X132657368Y-133898325D01*
X132525513Y-134030180D01*
X132503502Y-133957620D01*
X132444537Y-133847306D01*
X132365185Y-133750615D01*
X132268494Y-133671263D01*
X132158180Y-133612298D01*
X132038482Y-133575988D01*
X131914000Y-133563728D01*
X130214000Y-133563728D01*
X130089518Y-133575988D01*
X129969820Y-133612298D01*
X129859506Y-133671263D01*
X129762815Y-133750615D01*
X129683463Y-133847306D01*
X129624498Y-133957620D01*
X129588188Y-134077318D01*
X129575928Y-134201800D01*
X104850000Y-134201800D01*
X104850000Y-132853800D01*
X108366928Y-132853800D01*
X108379188Y-132978282D01*
X108415498Y-133097980D01*
X108474463Y-133208294D01*
X108553815Y-133304985D01*
X108650506Y-133384337D01*
X108760820Y-133443302D01*
X108880518Y-133479612D01*
X109005000Y-133491872D01*
X109569250Y-133488800D01*
X109728000Y-133330050D01*
X109728000Y-132130800D01*
X109982000Y-132130800D01*
X109982000Y-133330050D01*
X110140750Y-133488800D01*
X110705000Y-133491872D01*
X110829482Y-133479612D01*
X110949180Y-133443302D01*
X111059494Y-133384337D01*
X111156185Y-133304985D01*
X111235537Y-133208294D01*
X111294502Y-133097980D01*
X111330812Y-132978282D01*
X111343072Y-132853800D01*
X111340000Y-132289550D01*
X111181250Y-132130800D01*
X109982000Y-132130800D01*
X109728000Y-132130800D01*
X108528750Y-132130800D01*
X108370000Y-132289550D01*
X108366928Y-132853800D01*
X104850000Y-132853800D01*
X104850000Y-131153800D01*
X108366928Y-131153800D01*
X108370000Y-131718050D01*
X108528750Y-131876800D01*
X109728000Y-131876800D01*
X109728000Y-130677550D01*
X109982000Y-130677550D01*
X109982000Y-131876800D01*
X111181250Y-131876800D01*
X111340000Y-131718050D01*
X111343072Y-131153800D01*
X111330812Y-131029318D01*
X111330049Y-131026800D01*
X121066928Y-131026800D01*
X121066928Y-132726800D01*
X121079188Y-132851282D01*
X121115498Y-132970980D01*
X121174463Y-133081294D01*
X121253815Y-133177985D01*
X121350506Y-133257337D01*
X121460820Y-133316302D01*
X121580518Y-133352612D01*
X121705000Y-133364872D01*
X123405000Y-133364872D01*
X123529482Y-133352612D01*
X123649180Y-133316302D01*
X123759494Y-133257337D01*
X123856185Y-133177985D01*
X123935537Y-133081294D01*
X123994502Y-132970980D01*
X124030812Y-132851282D01*
X124043072Y-132726800D01*
X124043072Y-131026800D01*
X124030812Y-130902318D01*
X123994502Y-130782620D01*
X123935537Y-130672306D01*
X123856185Y-130575615D01*
X123759494Y-130496263D01*
X123649180Y-130437298D01*
X123576620Y-130415287D01*
X123708475Y-130283432D01*
X123870990Y-130040211D01*
X123982932Y-129769958D01*
X124040000Y-129483060D01*
X124040000Y-129190540D01*
X123982932Y-128903642D01*
X123870990Y-128633389D01*
X123708475Y-128390168D01*
X123501632Y-128183325D01*
X123258411Y-128020810D01*
X122988158Y-127908868D01*
X122701260Y-127851800D01*
X122408740Y-127851800D01*
X122121842Y-127908868D01*
X121851589Y-128020810D01*
X121608368Y-128183325D01*
X121401525Y-128390168D01*
X121239010Y-128633389D01*
X121127068Y-128903642D01*
X121070000Y-129190540D01*
X121070000Y-129483060D01*
X121127068Y-129769958D01*
X121239010Y-130040211D01*
X121401525Y-130283432D01*
X121533380Y-130415287D01*
X121460820Y-130437298D01*
X121350506Y-130496263D01*
X121253815Y-130575615D01*
X121174463Y-130672306D01*
X121115498Y-130782620D01*
X121079188Y-130902318D01*
X121066928Y-131026800D01*
X111330049Y-131026800D01*
X111294502Y-130909620D01*
X111235537Y-130799306D01*
X111156185Y-130702615D01*
X111059494Y-130623263D01*
X110949180Y-130564298D01*
X110829482Y-130527988D01*
X110705000Y-130515728D01*
X110140750Y-130518800D01*
X109982000Y-130677550D01*
X109728000Y-130677550D01*
X109569250Y-130518800D01*
X109005000Y-130515728D01*
X108880518Y-130527988D01*
X108760820Y-130564298D01*
X108650506Y-130623263D01*
X108553815Y-130702615D01*
X108474463Y-130799306D01*
X108415498Y-130909620D01*
X108379188Y-131029318D01*
X108366928Y-131153800D01*
X104850000Y-131153800D01*
X104850000Y-121580389D01*
X113496000Y-121580389D01*
X113496000Y-121853211D01*
X113549225Y-122120789D01*
X113653629Y-122372843D01*
X113805201Y-122599686D01*
X113998114Y-122792599D01*
X114224957Y-122944171D01*
X114477011Y-123048575D01*
X114744589Y-123101800D01*
X115017411Y-123101800D01*
X115284989Y-123048575D01*
X115537043Y-122944171D01*
X115763886Y-122792599D01*
X115956799Y-122599686D01*
X116108371Y-122372843D01*
X116212775Y-122120789D01*
X116266000Y-121853211D01*
X116266000Y-121580389D01*
X118376000Y-121580389D01*
X118376000Y-121853211D01*
X118429225Y-122120789D01*
X118533629Y-122372843D01*
X118685201Y-122599686D01*
X118878114Y-122792599D01*
X119104957Y-122944171D01*
X119357011Y-123048575D01*
X119624589Y-123101800D01*
X119897411Y-123101800D01*
X120164989Y-123048575D01*
X120417043Y-122944171D01*
X120643886Y-122792599D01*
X120836799Y-122599686D01*
X120988371Y-122372843D01*
X121086143Y-122136800D01*
X135798928Y-122136800D01*
X135798928Y-123836800D01*
X135811188Y-123961282D01*
X135847498Y-124080980D01*
X135906463Y-124191294D01*
X135985815Y-124287985D01*
X136082506Y-124367337D01*
X136192820Y-124426302D01*
X136312518Y-124462612D01*
X136437000Y-124474872D01*
X138137000Y-124474872D01*
X138261482Y-124462612D01*
X138381180Y-124426302D01*
X138491494Y-124367337D01*
X138588185Y-124287985D01*
X138667537Y-124191294D01*
X138726502Y-124080980D01*
X138762812Y-123961282D01*
X138775072Y-123836800D01*
X138775072Y-122136800D01*
X138762812Y-122012318D01*
X138726502Y-121892620D01*
X138667537Y-121782306D01*
X138588185Y-121685615D01*
X138491494Y-121606263D01*
X138381180Y-121547298D01*
X138308620Y-121525287D01*
X138440475Y-121393432D01*
X138602990Y-121150211D01*
X138714932Y-120879958D01*
X138772000Y-120593060D01*
X138772000Y-120300540D01*
X138714932Y-120013642D01*
X138602990Y-119743389D01*
X138440475Y-119500168D01*
X138233632Y-119293325D01*
X138059240Y-119176800D01*
X138233632Y-119060275D01*
X138440475Y-118853432D01*
X138602990Y-118610211D01*
X138714932Y-118339958D01*
X138772000Y-118053060D01*
X138772000Y-117760540D01*
X138714932Y-117473642D01*
X138602990Y-117203389D01*
X138440475Y-116960168D01*
X138233632Y-116753325D01*
X138059240Y-116636800D01*
X138233632Y-116520275D01*
X138440475Y-116313432D01*
X138602990Y-116070211D01*
X138714932Y-115799958D01*
X138772000Y-115513060D01*
X138772000Y-115220540D01*
X138714932Y-114933642D01*
X138602990Y-114663389D01*
X138440475Y-114420168D01*
X138233632Y-114213325D01*
X138059240Y-114096800D01*
X138233632Y-113980275D01*
X138440475Y-113773432D01*
X138602990Y-113530211D01*
X138714932Y-113259958D01*
X138772000Y-112973060D01*
X138772000Y-112680540D01*
X138714932Y-112393642D01*
X138602990Y-112123389D01*
X138440475Y-111880168D01*
X138233632Y-111673325D01*
X138059240Y-111556800D01*
X138233632Y-111440275D01*
X138440475Y-111233432D01*
X138602990Y-110990211D01*
X138714932Y-110719958D01*
X138772000Y-110433060D01*
X138772000Y-110140540D01*
X138714932Y-109853642D01*
X138602990Y-109583389D01*
X138440475Y-109340168D01*
X138233632Y-109133325D01*
X138059240Y-109016800D01*
X138233632Y-108900275D01*
X138440475Y-108693432D01*
X138602990Y-108450211D01*
X138714932Y-108179958D01*
X138772000Y-107893060D01*
X138772000Y-107600540D01*
X138714932Y-107313642D01*
X138602990Y-107043389D01*
X138440475Y-106800168D01*
X138233632Y-106593325D01*
X138059240Y-106476800D01*
X138233632Y-106360275D01*
X138440475Y-106153432D01*
X138602990Y-105910211D01*
X138714932Y-105639958D01*
X138772000Y-105353060D01*
X138772000Y-105060540D01*
X138714932Y-104773642D01*
X138602990Y-104503389D01*
X138440475Y-104260168D01*
X138233632Y-104053325D01*
X137990411Y-103890810D01*
X137720158Y-103778868D01*
X137433260Y-103721800D01*
X137140740Y-103721800D01*
X136853842Y-103778868D01*
X136583589Y-103890810D01*
X136340368Y-104053325D01*
X136133525Y-104260168D01*
X135971010Y-104503389D01*
X135859068Y-104773642D01*
X135802000Y-105060540D01*
X135802000Y-105353060D01*
X135859068Y-105639958D01*
X135971010Y-105910211D01*
X136133525Y-106153432D01*
X136340368Y-106360275D01*
X136514760Y-106476800D01*
X136340368Y-106593325D01*
X136133525Y-106800168D01*
X135971010Y-107043389D01*
X135859068Y-107313642D01*
X135802000Y-107600540D01*
X135802000Y-107893060D01*
X135859068Y-108179958D01*
X135971010Y-108450211D01*
X136133525Y-108693432D01*
X136340368Y-108900275D01*
X136514760Y-109016800D01*
X136340368Y-109133325D01*
X136133525Y-109340168D01*
X135971010Y-109583389D01*
X135859068Y-109853642D01*
X135802000Y-110140540D01*
X135802000Y-110433060D01*
X135859068Y-110719958D01*
X135971010Y-110990211D01*
X136133525Y-111233432D01*
X136340368Y-111440275D01*
X136514760Y-111556800D01*
X136340368Y-111673325D01*
X136133525Y-111880168D01*
X135971010Y-112123389D01*
X135859068Y-112393642D01*
X135802000Y-112680540D01*
X135802000Y-112973060D01*
X135859068Y-113259958D01*
X135971010Y-113530211D01*
X136133525Y-113773432D01*
X136340368Y-113980275D01*
X136514760Y-114096800D01*
X136340368Y-114213325D01*
X136133525Y-114420168D01*
X135971010Y-114663389D01*
X135859068Y-114933642D01*
X135802000Y-115220540D01*
X135802000Y-115513060D01*
X135859068Y-115799958D01*
X135971010Y-116070211D01*
X136133525Y-116313432D01*
X136340368Y-116520275D01*
X136514760Y-116636800D01*
X136340368Y-116753325D01*
X136133525Y-116960168D01*
X135971010Y-117203389D01*
X135859068Y-117473642D01*
X135802000Y-117760540D01*
X135802000Y-118053060D01*
X135859068Y-118339958D01*
X135971010Y-118610211D01*
X136133525Y-118853432D01*
X136340368Y-119060275D01*
X136514760Y-119176800D01*
X136340368Y-119293325D01*
X136133525Y-119500168D01*
X135971010Y-119743389D01*
X135859068Y-120013642D01*
X135802000Y-120300540D01*
X135802000Y-120593060D01*
X135859068Y-120879958D01*
X135971010Y-121150211D01*
X136133525Y-121393432D01*
X136265380Y-121525287D01*
X136192820Y-121547298D01*
X136082506Y-121606263D01*
X135985815Y-121685615D01*
X135906463Y-121782306D01*
X135847498Y-121892620D01*
X135811188Y-122012318D01*
X135798928Y-122136800D01*
X121086143Y-122136800D01*
X121092775Y-122120789D01*
X121146000Y-121853211D01*
X121146000Y-121580389D01*
X121092775Y-121312811D01*
X120988371Y-121060757D01*
X120836799Y-120833914D01*
X120643886Y-120641001D01*
X120417043Y-120489429D01*
X120164989Y-120385025D01*
X119897411Y-120331800D01*
X119624589Y-120331800D01*
X119357011Y-120385025D01*
X119104957Y-120489429D01*
X118878114Y-120641001D01*
X118685201Y-120833914D01*
X118533629Y-121060757D01*
X118429225Y-121312811D01*
X118376000Y-121580389D01*
X116266000Y-121580389D01*
X116212775Y-121312811D01*
X116108371Y-121060757D01*
X115956799Y-120833914D01*
X115763886Y-120641001D01*
X115537043Y-120489429D01*
X115284989Y-120385025D01*
X115017411Y-120331800D01*
X114744589Y-120331800D01*
X114477011Y-120385025D01*
X114224957Y-120489429D01*
X113998114Y-120641001D01*
X113805201Y-120833914D01*
X113653629Y-121060757D01*
X113549225Y-121312811D01*
X113496000Y-121580389D01*
X104850000Y-121580389D01*
X104850000Y-113183300D01*
X107922428Y-113183300D01*
X107922428Y-114883300D01*
X107934688Y-115007782D01*
X107970998Y-115127480D01*
X108029963Y-115237794D01*
X108109315Y-115334485D01*
X108206006Y-115413837D01*
X108316320Y-115472802D01*
X108436018Y-115509112D01*
X108560500Y-115521372D01*
X110260500Y-115521372D01*
X110384982Y-115509112D01*
X110504680Y-115472802D01*
X110614994Y-115413837D01*
X110711685Y-115334485D01*
X110791037Y-115237794D01*
X110850002Y-115127480D01*
X110874466Y-115046834D01*
X110950231Y-115130888D01*
X111183580Y-115304941D01*
X111446401Y-115430125D01*
X111593610Y-115474776D01*
X111823500Y-115353455D01*
X111823500Y-114160300D01*
X112077500Y-114160300D01*
X112077500Y-115353455D01*
X112307390Y-115474776D01*
X112454599Y-115430125D01*
X112717420Y-115304941D01*
X112950769Y-115130888D01*
X113145678Y-114914655D01*
X113294657Y-114664552D01*
X113391981Y-114390191D01*
X113271314Y-114160300D01*
X112077500Y-114160300D01*
X111823500Y-114160300D01*
X111803500Y-114160300D01*
X111803500Y-113906300D01*
X111823500Y-113906300D01*
X111823500Y-112713145D01*
X112077500Y-112713145D01*
X112077500Y-113906300D01*
X113271314Y-113906300D01*
X113391981Y-113676409D01*
X113294657Y-113402048D01*
X113145678Y-113151945D01*
X112950769Y-112935712D01*
X112717420Y-112761659D01*
X112454599Y-112636475D01*
X112307390Y-112591824D01*
X112077500Y-112713145D01*
X111823500Y-112713145D01*
X111593610Y-112591824D01*
X111446401Y-112636475D01*
X111183580Y-112761659D01*
X110950231Y-112935712D01*
X110874466Y-113019766D01*
X110850002Y-112939120D01*
X110791037Y-112828806D01*
X110711685Y-112732115D01*
X110614994Y-112652763D01*
X110504680Y-112593798D01*
X110384982Y-112557488D01*
X110260500Y-112545228D01*
X108560500Y-112545228D01*
X108436018Y-112557488D01*
X108316320Y-112593798D01*
X108206006Y-112652763D01*
X108109315Y-112732115D01*
X108029963Y-112828806D01*
X107970998Y-112939120D01*
X107934688Y-113058818D01*
X107922428Y-113183300D01*
X104850000Y-113183300D01*
X104850000Y-109436800D01*
X107922428Y-109436800D01*
X107922428Y-111136800D01*
X107934688Y-111261282D01*
X107970998Y-111380980D01*
X108029963Y-111491294D01*
X108109315Y-111587985D01*
X108206006Y-111667337D01*
X108316320Y-111726302D01*
X108436018Y-111762612D01*
X108560500Y-111774872D01*
X110260500Y-111774872D01*
X110384982Y-111762612D01*
X110504680Y-111726302D01*
X110614994Y-111667337D01*
X110711685Y-111587985D01*
X110791037Y-111491294D01*
X110850002Y-111380980D01*
X110872013Y-111308420D01*
X111003868Y-111440275D01*
X111247089Y-111602790D01*
X111517342Y-111714732D01*
X111804240Y-111771800D01*
X112096760Y-111771800D01*
X112383658Y-111714732D01*
X112653911Y-111602790D01*
X112897132Y-111440275D01*
X113103975Y-111233432D01*
X113266490Y-110990211D01*
X113378432Y-110719958D01*
X113435500Y-110433060D01*
X113435500Y-110140540D01*
X113378432Y-109853642D01*
X113266490Y-109583389D01*
X113103975Y-109340168D01*
X112897132Y-109133325D01*
X112653911Y-108970810D01*
X112383658Y-108858868D01*
X112096760Y-108801800D01*
X111804240Y-108801800D01*
X111517342Y-108858868D01*
X111247089Y-108970810D01*
X111003868Y-109133325D01*
X110872013Y-109265180D01*
X110850002Y-109192620D01*
X110791037Y-109082306D01*
X110711685Y-108985615D01*
X110614994Y-108906263D01*
X110504680Y-108847298D01*
X110384982Y-108810988D01*
X110260500Y-108798728D01*
X108560500Y-108798728D01*
X108436018Y-108810988D01*
X108316320Y-108847298D01*
X108206006Y-108906263D01*
X108109315Y-108985615D01*
X108029963Y-109082306D01*
X107970998Y-109192620D01*
X107934688Y-109312318D01*
X107922428Y-109436800D01*
X104850000Y-109436800D01*
X104850000Y-105690300D01*
X107922428Y-105690300D01*
X107922428Y-107390300D01*
X107934688Y-107514782D01*
X107970998Y-107634480D01*
X108029963Y-107744794D01*
X108109315Y-107841485D01*
X108206006Y-107920837D01*
X108316320Y-107979802D01*
X108436018Y-108016112D01*
X108560500Y-108028372D01*
X110260500Y-108028372D01*
X110384982Y-108016112D01*
X110504680Y-107979802D01*
X110614994Y-107920837D01*
X110711685Y-107841485D01*
X110791037Y-107744794D01*
X110850002Y-107634480D01*
X110874466Y-107553834D01*
X110950231Y-107637888D01*
X111183580Y-107811941D01*
X111446401Y-107937125D01*
X111593610Y-107981776D01*
X111823500Y-107860455D01*
X111823500Y-106667300D01*
X112077500Y-106667300D01*
X112077500Y-107860455D01*
X112307390Y-107981776D01*
X112454599Y-107937125D01*
X112717420Y-107811941D01*
X112950769Y-107637888D01*
X113145678Y-107421655D01*
X113294657Y-107171552D01*
X113391981Y-106897191D01*
X113271314Y-106667300D01*
X112077500Y-106667300D01*
X111823500Y-106667300D01*
X111803500Y-106667300D01*
X111803500Y-106413300D01*
X111823500Y-106413300D01*
X111823500Y-105220145D01*
X112077500Y-105220145D01*
X112077500Y-106413300D01*
X113271314Y-106413300D01*
X113391981Y-106183409D01*
X113294657Y-105909048D01*
X113145678Y-105658945D01*
X112950769Y-105442712D01*
X112717420Y-105268659D01*
X112454599Y-105143475D01*
X112307390Y-105098824D01*
X112077500Y-105220145D01*
X111823500Y-105220145D01*
X111593610Y-105098824D01*
X111446401Y-105143475D01*
X111183580Y-105268659D01*
X110950231Y-105442712D01*
X110874466Y-105526766D01*
X110850002Y-105446120D01*
X110791037Y-105335806D01*
X110711685Y-105239115D01*
X110614994Y-105159763D01*
X110504680Y-105100798D01*
X110384982Y-105064488D01*
X110260500Y-105052228D01*
X108560500Y-105052228D01*
X108436018Y-105064488D01*
X108316320Y-105100798D01*
X108206006Y-105159763D01*
X108109315Y-105239115D01*
X108029963Y-105335806D01*
X107970998Y-105446120D01*
X107934688Y-105565818D01*
X107922428Y-105690300D01*
X104850000Y-105690300D01*
X104850000Y-101943800D01*
X107922428Y-101943800D01*
X107922428Y-103643800D01*
X107934688Y-103768282D01*
X107970998Y-103887980D01*
X108029963Y-103998294D01*
X108109315Y-104094985D01*
X108206006Y-104174337D01*
X108316320Y-104233302D01*
X108436018Y-104269612D01*
X108560500Y-104281872D01*
X110260500Y-104281872D01*
X110384982Y-104269612D01*
X110504680Y-104233302D01*
X110614994Y-104174337D01*
X110711685Y-104094985D01*
X110791037Y-103998294D01*
X110850002Y-103887980D01*
X110872013Y-103815420D01*
X111003868Y-103947275D01*
X111247089Y-104109790D01*
X111517342Y-104221732D01*
X111804240Y-104278800D01*
X112096760Y-104278800D01*
X112383658Y-104221732D01*
X112653911Y-104109790D01*
X112897132Y-103947275D01*
X113103975Y-103740432D01*
X113266490Y-103497211D01*
X113378432Y-103226958D01*
X113435500Y-102940060D01*
X113435500Y-102647540D01*
X113378432Y-102360642D01*
X113266490Y-102090389D01*
X113103975Y-101847168D01*
X112897132Y-101640325D01*
X112653911Y-101477810D01*
X112383658Y-101365868D01*
X112096760Y-101308800D01*
X111804240Y-101308800D01*
X111517342Y-101365868D01*
X111247089Y-101477810D01*
X111003868Y-101640325D01*
X110872013Y-101772180D01*
X110850002Y-101699620D01*
X110791037Y-101589306D01*
X110711685Y-101492615D01*
X110614994Y-101413263D01*
X110504680Y-101354298D01*
X110384982Y-101317988D01*
X110260500Y-101305728D01*
X108560500Y-101305728D01*
X108436018Y-101317988D01*
X108316320Y-101354298D01*
X108206006Y-101413263D01*
X108109315Y-101492615D01*
X108029963Y-101589306D01*
X107970998Y-101699620D01*
X107934688Y-101819318D01*
X107922428Y-101943800D01*
X104850000Y-101943800D01*
X104850000Y-99340691D01*
X106635519Y-99340691D01*
X106732843Y-99615052D01*
X106881822Y-99865155D01*
X107076731Y-100081388D01*
X107310080Y-100255441D01*
X107572901Y-100380625D01*
X107720110Y-100425276D01*
X107950000Y-100303955D01*
X107950000Y-99110800D01*
X106756186Y-99110800D01*
X106635519Y-99340691D01*
X104850000Y-99340691D01*
X104850000Y-98626909D01*
X106635519Y-98626909D01*
X106756186Y-98856800D01*
X107950000Y-98856800D01*
X107950000Y-97663645D01*
X108204000Y-97663645D01*
X108204000Y-98856800D01*
X108224000Y-98856800D01*
X108224000Y-99110800D01*
X108204000Y-99110800D01*
X108204000Y-100303955D01*
X108433890Y-100425276D01*
X108581099Y-100380625D01*
X108843920Y-100255441D01*
X109077269Y-100081388D01*
X109272178Y-99865155D01*
X109341805Y-99748266D01*
X109463525Y-99930432D01*
X109670368Y-100137275D01*
X109913589Y-100299790D01*
X110183842Y-100411732D01*
X110470740Y-100468800D01*
X110763260Y-100468800D01*
X111050158Y-100411732D01*
X111320411Y-100299790D01*
X111563632Y-100137275D01*
X111770475Y-99930432D01*
X111887000Y-99756040D01*
X112003525Y-99930432D01*
X112210368Y-100137275D01*
X112453589Y-100299790D01*
X112723842Y-100411732D01*
X113010740Y-100468800D01*
X113303260Y-100468800D01*
X113590158Y-100411732D01*
X113860411Y-100299790D01*
X114103632Y-100137275D01*
X114310475Y-99930432D01*
X114427000Y-99756040D01*
X114543525Y-99930432D01*
X114750368Y-100137275D01*
X114993589Y-100299790D01*
X115263842Y-100411732D01*
X115550740Y-100468800D01*
X115843260Y-100468800D01*
X116130158Y-100411732D01*
X116400411Y-100299790D01*
X116643632Y-100137275D01*
X116850475Y-99930432D01*
X116972195Y-99748266D01*
X117041822Y-99865155D01*
X117236731Y-100081388D01*
X117470080Y-100255441D01*
X117732901Y-100380625D01*
X117880110Y-100425276D01*
X118110000Y-100303955D01*
X118110000Y-99110800D01*
X118090000Y-99110800D01*
X118090000Y-98856800D01*
X118110000Y-98856800D01*
X118110000Y-97663645D01*
X118364000Y-97663645D01*
X118364000Y-98856800D01*
X118384000Y-98856800D01*
X118384000Y-99110800D01*
X118364000Y-99110800D01*
X118364000Y-100303955D01*
X118593890Y-100425276D01*
X118741099Y-100380625D01*
X119003920Y-100255441D01*
X119237269Y-100081388D01*
X119432178Y-99865155D01*
X119501805Y-99748266D01*
X119623525Y-99930432D01*
X119830368Y-100137275D01*
X120073589Y-100299790D01*
X120343842Y-100411732D01*
X120630740Y-100468800D01*
X120923260Y-100468800D01*
X121210158Y-100411732D01*
X121480411Y-100299790D01*
X121723632Y-100137275D01*
X121855487Y-100005420D01*
X121877498Y-100077980D01*
X121936463Y-100188294D01*
X122015815Y-100284985D01*
X122112506Y-100364337D01*
X122222820Y-100423302D01*
X122342518Y-100459612D01*
X122467000Y-100471872D01*
X124167000Y-100471872D01*
X124291482Y-100459612D01*
X124411180Y-100423302D01*
X124521494Y-100364337D01*
X124618185Y-100284985D01*
X124697537Y-100188294D01*
X124756502Y-100077980D01*
X124792812Y-99958282D01*
X124805072Y-99833800D01*
X124805072Y-98133800D01*
X124792812Y-98009318D01*
X124756502Y-97889620D01*
X124697537Y-97779306D01*
X124618185Y-97682615D01*
X124521494Y-97603263D01*
X124411180Y-97544298D01*
X124291482Y-97507988D01*
X124167000Y-97495728D01*
X122467000Y-97495728D01*
X122342518Y-97507988D01*
X122222820Y-97544298D01*
X122112506Y-97603263D01*
X122015815Y-97682615D01*
X121936463Y-97779306D01*
X121877498Y-97889620D01*
X121855487Y-97962180D01*
X121723632Y-97830325D01*
X121480411Y-97667810D01*
X121210158Y-97555868D01*
X120923260Y-97498800D01*
X120630740Y-97498800D01*
X120343842Y-97555868D01*
X120073589Y-97667810D01*
X119830368Y-97830325D01*
X119623525Y-98037168D01*
X119501805Y-98219334D01*
X119432178Y-98102445D01*
X119237269Y-97886212D01*
X119003920Y-97712159D01*
X118741099Y-97586975D01*
X118593890Y-97542324D01*
X118364000Y-97663645D01*
X118110000Y-97663645D01*
X117880110Y-97542324D01*
X117732901Y-97586975D01*
X117470080Y-97712159D01*
X117236731Y-97886212D01*
X117041822Y-98102445D01*
X116972195Y-98219334D01*
X116850475Y-98037168D01*
X116643632Y-97830325D01*
X116400411Y-97667810D01*
X116130158Y-97555868D01*
X115843260Y-97498800D01*
X115550740Y-97498800D01*
X115263842Y-97555868D01*
X114993589Y-97667810D01*
X114750368Y-97830325D01*
X114543525Y-98037168D01*
X114427000Y-98211560D01*
X114310475Y-98037168D01*
X114103632Y-97830325D01*
X113860411Y-97667810D01*
X113590158Y-97555868D01*
X113303260Y-97498800D01*
X113010740Y-97498800D01*
X112723842Y-97555868D01*
X112453589Y-97667810D01*
X112210368Y-97830325D01*
X112003525Y-98037168D01*
X111887000Y-98211560D01*
X111770475Y-98037168D01*
X111563632Y-97830325D01*
X111320411Y-97667810D01*
X111050158Y-97555868D01*
X110763260Y-97498800D01*
X110470740Y-97498800D01*
X110183842Y-97555868D01*
X109913589Y-97667810D01*
X109670368Y-97830325D01*
X109463525Y-98037168D01*
X109341805Y-98219334D01*
X109272178Y-98102445D01*
X109077269Y-97886212D01*
X108843920Y-97712159D01*
X108581099Y-97586975D01*
X108433890Y-97542324D01*
X108204000Y-97663645D01*
X107950000Y-97663645D01*
X107720110Y-97542324D01*
X107572901Y-97586975D01*
X107310080Y-97712159D01*
X107076731Y-97886212D01*
X106881822Y-98102445D01*
X106732843Y-98352548D01*
X106635519Y-98626909D01*
X104850000Y-98626909D01*
X104850000Y-91261300D01*
X105509428Y-91261300D01*
X105521688Y-91385782D01*
X105557998Y-91505480D01*
X105616963Y-91615794D01*
X105696315Y-91712485D01*
X105793006Y-91791837D01*
X105903320Y-91850802D01*
X105975880Y-91872813D01*
X105844025Y-92004668D01*
X105681510Y-92247889D01*
X105569568Y-92518142D01*
X105512500Y-92805040D01*
X105512500Y-93097560D01*
X105569568Y-93384458D01*
X105681510Y-93654711D01*
X105844025Y-93897932D01*
X106050868Y-94104775D01*
X106294089Y-94267290D01*
X106564342Y-94379232D01*
X106851240Y-94436300D01*
X107143760Y-94436300D01*
X107430658Y-94379232D01*
X107700911Y-94267290D01*
X107944132Y-94104775D01*
X108150975Y-93897932D01*
X108313490Y-93654711D01*
X108425432Y-93384458D01*
X108482500Y-93097560D01*
X108482500Y-92805040D01*
X108425432Y-92518142D01*
X108313490Y-92247889D01*
X108150975Y-92004668D01*
X108019120Y-91872813D01*
X108091680Y-91850802D01*
X108201994Y-91791837D01*
X108298685Y-91712485D01*
X108378037Y-91615794D01*
X108437002Y-91505480D01*
X108473312Y-91385782D01*
X108485572Y-91261300D01*
X109255928Y-91261300D01*
X109268188Y-91385782D01*
X109304498Y-91505480D01*
X109363463Y-91615794D01*
X109442815Y-91712485D01*
X109539506Y-91791837D01*
X109649820Y-91850802D01*
X109722380Y-91872813D01*
X109590525Y-92004668D01*
X109428010Y-92247889D01*
X109316068Y-92518142D01*
X109259000Y-92805040D01*
X109259000Y-93097560D01*
X109316068Y-93384458D01*
X109428010Y-93654711D01*
X109590525Y-93897932D01*
X109797368Y-94104775D01*
X110040589Y-94267290D01*
X110310842Y-94379232D01*
X110597740Y-94436300D01*
X110890260Y-94436300D01*
X111177158Y-94379232D01*
X111447411Y-94267290D01*
X111690632Y-94104775D01*
X111897475Y-93897932D01*
X112059990Y-93654711D01*
X112171932Y-93384458D01*
X112229000Y-93097560D01*
X112229000Y-92805040D01*
X112171932Y-92518142D01*
X112059990Y-92247889D01*
X111897475Y-92004668D01*
X111765620Y-91872813D01*
X111838180Y-91850802D01*
X111948494Y-91791837D01*
X112045185Y-91712485D01*
X112124537Y-91615794D01*
X112183502Y-91505480D01*
X112219812Y-91385782D01*
X112232072Y-91261300D01*
X112229000Y-90697050D01*
X112070250Y-90538300D01*
X110871000Y-90538300D01*
X110871000Y-90558300D01*
X110617000Y-90558300D01*
X110617000Y-90538300D01*
X109417750Y-90538300D01*
X109259000Y-90697050D01*
X109255928Y-91261300D01*
X108485572Y-91261300D01*
X108482500Y-90697050D01*
X108323750Y-90538300D01*
X107124500Y-90538300D01*
X107124500Y-90558300D01*
X106870500Y-90558300D01*
X106870500Y-90538300D01*
X105671250Y-90538300D01*
X105512500Y-90697050D01*
X105509428Y-91261300D01*
X104850000Y-91261300D01*
X104850000Y-89561300D01*
X105509428Y-89561300D01*
X105512500Y-90125550D01*
X105671250Y-90284300D01*
X106870500Y-90284300D01*
X106870500Y-89085050D01*
X107124500Y-89085050D01*
X107124500Y-90284300D01*
X108323750Y-90284300D01*
X108482500Y-90125550D01*
X108485572Y-89561300D01*
X109255928Y-89561300D01*
X109259000Y-90125550D01*
X109417750Y-90284300D01*
X110617000Y-90284300D01*
X110617000Y-89085050D01*
X110871000Y-89085050D01*
X110871000Y-90284300D01*
X112070250Y-90284300D01*
X112229000Y-90125550D01*
X112232072Y-89561300D01*
X112219812Y-89436818D01*
X112183502Y-89317120D01*
X112124537Y-89206806D01*
X112045185Y-89110115D01*
X111948494Y-89030763D01*
X111838180Y-88971798D01*
X111718482Y-88935488D01*
X111594000Y-88923228D01*
X111029750Y-88926300D01*
X110871000Y-89085050D01*
X110617000Y-89085050D01*
X110458250Y-88926300D01*
X109894000Y-88923228D01*
X109769518Y-88935488D01*
X109649820Y-88971798D01*
X109539506Y-89030763D01*
X109442815Y-89110115D01*
X109363463Y-89206806D01*
X109304498Y-89317120D01*
X109268188Y-89436818D01*
X109255928Y-89561300D01*
X108485572Y-89561300D01*
X108473312Y-89436818D01*
X108437002Y-89317120D01*
X108378037Y-89206806D01*
X108298685Y-89110115D01*
X108201994Y-89030763D01*
X108091680Y-88971798D01*
X107971982Y-88935488D01*
X107847500Y-88923228D01*
X107283250Y-88926300D01*
X107124500Y-89085050D01*
X106870500Y-89085050D01*
X106711750Y-88926300D01*
X106147500Y-88923228D01*
X106023018Y-88935488D01*
X105903320Y-88971798D01*
X105793006Y-89030763D01*
X105696315Y-89110115D01*
X105616963Y-89206806D01*
X105557998Y-89317120D01*
X105521688Y-89436818D01*
X105509428Y-89561300D01*
X104850000Y-89561300D01*
X104850000Y-88848000D01*
X115189000Y-88848000D01*
X115189000Y-95681800D01*
M02*
