M48
; DRILL file {KiCad 5.1.6+dfsg1-1~bpo10+1} date Sun Jul 19 00:44:31 2020
; FORMAT={-:-/ absolute / inch / decimal}
; #@! TF.CreationDate,2020-07-19T00:44:31-05:00
; #@! TF.GenerationSoftware,Kicad,Pcbnew,5.1.6+dfsg1-1~bpo10+1
FMAT,2
INCH
T1C0.0079
T2C0.0250
T3C0.0315
T4C0.0394
%
G90
G05
T1
X4.2Y-4.272
X4.205Y-3.972
X4.2706Y-4.8764
X4.275Y-5.592
X4.45Y-5.402
X4.46Y-5.677
X4.48Y-3.5518
X4.48Y-5.502
X4.485Y-4.562
X4.485Y-5.447
X4.5Y-4.642
X4.595Y-4.537
X4.675Y-4.017
X4.692Y-4.641
X4.7264Y-4.1534
X4.825Y-5.347
X4.935Y-3.667
X4.965Y-4.187
X4.9794Y-4.8764
X4.9856Y-3.9914
X5.005Y-3.527
X5.015Y-4.087
X5.035Y-4.382
X5.035Y-4.742
X5.0444Y-3.7226
X5.045Y-4.252
X5.09Y-5.177
X5.185Y-4.522
X5.2Y-4.162
X5.21Y-4.477
X5.2311Y-4.1131
X5.26Y-3.872
X5.285Y-3.812
X5.2939Y-3.5631
X5.32Y-5.062
X5.3311Y-3.5631
X5.415Y-5.177
T2
X4.63Y-5.612
X4.8Y-5.597
T3
X4.5229Y-4.792
X4.715Y-4.792
T4
X4.3075Y-4.047
X4.3075Y-4.1945
X4.4075Y-4.047
X4.4075Y-4.1945
X5.16Y-5.317
X5.26Y-5.317
X5.36Y-5.317
X5.46Y-5.317
X4.825Y-5.092
X4.825Y-5.192
X4.3075Y-4.342
X4.3075Y-4.4895
X4.4075Y-4.342
X4.4075Y-4.4895
X4.325Y-5.197
X4.2125Y-3.5595
X4.2125Y-3.6595
X4.36Y-3.5595
X4.36Y-3.6595
X4.255Y-3.897
X4.355Y-3.897
X4.455Y-3.897
X4.555Y-3.897
X4.655Y-3.897
X4.755Y-3.897
X4.855Y-3.897
X5.405Y-4.142
X5.405Y-4.242
X5.405Y-4.342
X5.405Y-4.442
X5.405Y-4.542
X5.405Y-4.642
X5.405Y-4.742
X5.405Y-4.842
T4
G00X5.2256Y-5.477
M15
G01X5.3044Y-5.477
M16
G05
G00X5.2256Y-5.7132
M15
G01X5.3044Y-5.7132
M16
G05
G00X5.45Y-5.6345
M15
G01X5.45Y-5.5557
M16
G05
T0
M30
