G04 #@! TF.GenerationSoftware,KiCad,Pcbnew,5.1.6+dfsg1-1~bpo10+1*
G04 #@! TF.CreationDate,2020-07-18T15:25:44-05:00*
G04 #@! TF.ProjectId,EncoderBoard2,456e636f-6465-4724-926f-617264322e6b,v1.0*
G04 #@! TF.SameCoordinates,Original*
G04 #@! TF.FileFunction,Soldermask,Bot*
G04 #@! TF.FilePolarity,Negative*
%FSLAX46Y46*%
G04 Gerber Fmt 4.6, Leading zero omitted, Abs format (unit mm)*
G04 Created by KiCad (PCBNEW 5.1.6+dfsg1-1~bpo10+1) date 2020-07-18 15:25:44*
%MOMM*%
%LPD*%
G01*
G04 APERTURE LIST*
%ADD10C,0.100000*%
G04 APERTURE END LIST*
D10*
G36*
X134957979Y-143579093D02*
G01*
X135091625Y-143619634D01*
X135214784Y-143685464D01*
X135322740Y-143774060D01*
X135411336Y-143882016D01*
X135477166Y-144005175D01*
X135517707Y-144138821D01*
X135532000Y-144283940D01*
X135532000Y-145947660D01*
X135517707Y-146092779D01*
X135477166Y-146226425D01*
X135411336Y-146349584D01*
X135322740Y-146457540D01*
X135214784Y-146546136D01*
X135091625Y-146611966D01*
X134957979Y-146652507D01*
X134812860Y-146666800D01*
X132649140Y-146666800D01*
X132504021Y-146652507D01*
X132370375Y-146611966D01*
X132247216Y-146546136D01*
X132139260Y-146457540D01*
X132050664Y-146349584D01*
X131984834Y-146226425D01*
X131944293Y-146092779D01*
X131930000Y-145947660D01*
X131930000Y-144283940D01*
X131944293Y-144138821D01*
X131984834Y-144005175D01*
X132050664Y-143882016D01*
X132139260Y-143774060D01*
X132247216Y-143685464D01*
X132370375Y-143619634D01*
X132504021Y-143579093D01*
X132649140Y-143564800D01*
X134812860Y-143564800D01*
X134957979Y-143579093D01*
G37*
G36*
X139557366Y-140331495D02*
G01*
X139714460Y-140379149D01*
X139859231Y-140456531D01*
X139986128Y-140560672D01*
X140090269Y-140687569D01*
X140167651Y-140832340D01*
X140215305Y-140989434D01*
X140232000Y-141158940D01*
X140232000Y-143072660D01*
X140215305Y-143242166D01*
X140167651Y-143399260D01*
X140090269Y-143544031D01*
X139986128Y-143670928D01*
X139859231Y-143775069D01*
X139714460Y-143852451D01*
X139557366Y-143900105D01*
X139387860Y-143916800D01*
X137474140Y-143916800D01*
X137304634Y-143900105D01*
X137147540Y-143852451D01*
X137002769Y-143775069D01*
X136875872Y-143670928D01*
X136771731Y-143544031D01*
X136694349Y-143399260D01*
X136646695Y-143242166D01*
X136630000Y-143072660D01*
X136630000Y-141158940D01*
X136646695Y-140989434D01*
X136694349Y-140832340D01*
X136771731Y-140687569D01*
X136875872Y-140560672D01*
X137002769Y-140456531D01*
X137147540Y-140379149D01*
X137304634Y-140331495D01*
X137474140Y-140314800D01*
X139387860Y-140314800D01*
X139557366Y-140331495D01*
G37*
G36*
X135532000Y-140916800D02*
G01*
X131930000Y-140916800D01*
X131930000Y-137314800D01*
X135532000Y-137314800D01*
X135532000Y-140916800D01*
G37*
G36*
X138797512Y-134155727D02*
G01*
X138946812Y-134185424D01*
X139110784Y-134253344D01*
X139258354Y-134351947D01*
X139383853Y-134477446D01*
X139482456Y-134625016D01*
X139550376Y-134788988D01*
X139585000Y-134963059D01*
X139585000Y-135140541D01*
X139550376Y-135314612D01*
X139482456Y-135478584D01*
X139383853Y-135626154D01*
X139258354Y-135751653D01*
X139110784Y-135850256D01*
X138946812Y-135918176D01*
X138797512Y-135947873D01*
X138772742Y-135952800D01*
X138595258Y-135952800D01*
X138570488Y-135947873D01*
X138421188Y-135918176D01*
X138257216Y-135850256D01*
X138109646Y-135751653D01*
X137984147Y-135626154D01*
X137885544Y-135478584D01*
X137817624Y-135314612D01*
X137783000Y-135140541D01*
X137783000Y-134963059D01*
X137817624Y-134788988D01*
X137885544Y-134625016D01*
X137984147Y-134477446D01*
X138109646Y-134351947D01*
X138257216Y-134253344D01*
X138421188Y-134185424D01*
X138570488Y-134155727D01*
X138595258Y-134150800D01*
X138772742Y-134150800D01*
X138797512Y-134155727D01*
G37*
G36*
X136257512Y-134155727D02*
G01*
X136406812Y-134185424D01*
X136570784Y-134253344D01*
X136718354Y-134351947D01*
X136843853Y-134477446D01*
X136942456Y-134625016D01*
X137010376Y-134788988D01*
X137045000Y-134963059D01*
X137045000Y-135140541D01*
X137010376Y-135314612D01*
X136942456Y-135478584D01*
X136843853Y-135626154D01*
X136718354Y-135751653D01*
X136570784Y-135850256D01*
X136406812Y-135918176D01*
X136257512Y-135947873D01*
X136232742Y-135952800D01*
X136055258Y-135952800D01*
X136030488Y-135947873D01*
X135881188Y-135918176D01*
X135717216Y-135850256D01*
X135569646Y-135751653D01*
X135444147Y-135626154D01*
X135345544Y-135478584D01*
X135277624Y-135314612D01*
X135243000Y-135140541D01*
X135243000Y-134963059D01*
X135277624Y-134788988D01*
X135345544Y-134625016D01*
X135444147Y-134477446D01*
X135569646Y-134351947D01*
X135717216Y-134253344D01*
X135881188Y-134185424D01*
X136030488Y-134155727D01*
X136055258Y-134150800D01*
X136232742Y-134150800D01*
X136257512Y-134155727D01*
G37*
G36*
X133717512Y-134155727D02*
G01*
X133866812Y-134185424D01*
X134030784Y-134253344D01*
X134178354Y-134351947D01*
X134303853Y-134477446D01*
X134402456Y-134625016D01*
X134470376Y-134788988D01*
X134505000Y-134963059D01*
X134505000Y-135140541D01*
X134470376Y-135314612D01*
X134402456Y-135478584D01*
X134303853Y-135626154D01*
X134178354Y-135751653D01*
X134030784Y-135850256D01*
X133866812Y-135918176D01*
X133717512Y-135947873D01*
X133692742Y-135952800D01*
X133515258Y-135952800D01*
X133490488Y-135947873D01*
X133341188Y-135918176D01*
X133177216Y-135850256D01*
X133029646Y-135751653D01*
X132904147Y-135626154D01*
X132805544Y-135478584D01*
X132737624Y-135314612D01*
X132703000Y-135140541D01*
X132703000Y-134963059D01*
X132737624Y-134788988D01*
X132805544Y-134625016D01*
X132904147Y-134477446D01*
X133029646Y-134351947D01*
X133177216Y-134253344D01*
X133341188Y-134185424D01*
X133490488Y-134155727D01*
X133515258Y-134150800D01*
X133692742Y-134150800D01*
X133717512Y-134155727D01*
G37*
G36*
X131965000Y-135952800D02*
G01*
X130163000Y-135952800D01*
X130163000Y-134150800D01*
X131965000Y-134150800D01*
X131965000Y-135952800D01*
G37*
G36*
X110756000Y-132904800D02*
G01*
X108954000Y-132904800D01*
X108954000Y-131102800D01*
X110756000Y-131102800D01*
X110756000Y-132904800D01*
G37*
G36*
X123456000Y-132777800D02*
G01*
X121654000Y-132777800D01*
X121654000Y-130975800D01*
X123456000Y-130975800D01*
X123456000Y-132777800D01*
G37*
G36*
X122668512Y-128440727D02*
G01*
X122817812Y-128470424D01*
X122981784Y-128538344D01*
X123129354Y-128636947D01*
X123254853Y-128762446D01*
X123353456Y-128910016D01*
X123421376Y-129073988D01*
X123456000Y-129248059D01*
X123456000Y-129425541D01*
X123421376Y-129599612D01*
X123353456Y-129763584D01*
X123254853Y-129911154D01*
X123129354Y-130036653D01*
X122981784Y-130135256D01*
X122817812Y-130203176D01*
X122668512Y-130232873D01*
X122643742Y-130237800D01*
X122466258Y-130237800D01*
X122441488Y-130232873D01*
X122292188Y-130203176D01*
X122128216Y-130135256D01*
X121980646Y-130036653D01*
X121855147Y-129911154D01*
X121756544Y-129763584D01*
X121688624Y-129599612D01*
X121654000Y-129425541D01*
X121654000Y-129248059D01*
X121688624Y-129073988D01*
X121756544Y-128910016D01*
X121855147Y-128762446D01*
X121980646Y-128636947D01*
X122128216Y-128538344D01*
X122292188Y-128470424D01*
X122441488Y-128440727D01*
X122466258Y-128435800D01*
X122643742Y-128435800D01*
X122668512Y-128440727D01*
G37*
G36*
X138188000Y-123887800D02*
G01*
X136386000Y-123887800D01*
X136386000Y-122085800D01*
X138188000Y-122085800D01*
X138188000Y-123887800D01*
G37*
G36*
X119994642Y-120946581D02*
G01*
X120140414Y-121006962D01*
X120140416Y-121006963D01*
X120271608Y-121094622D01*
X120383178Y-121206192D01*
X120470837Y-121337384D01*
X120470838Y-121337386D01*
X120531219Y-121483158D01*
X120562000Y-121637907D01*
X120562000Y-121795693D01*
X120531219Y-121950442D01*
X120470838Y-122096214D01*
X120470837Y-122096216D01*
X120383178Y-122227408D01*
X120271608Y-122338978D01*
X120140416Y-122426637D01*
X120140415Y-122426638D01*
X120140414Y-122426638D01*
X119994642Y-122487019D01*
X119839893Y-122517800D01*
X119682107Y-122517800D01*
X119527358Y-122487019D01*
X119381586Y-122426638D01*
X119381585Y-122426638D01*
X119381584Y-122426637D01*
X119250392Y-122338978D01*
X119138822Y-122227408D01*
X119051163Y-122096216D01*
X119051162Y-122096214D01*
X118990781Y-121950442D01*
X118960000Y-121795693D01*
X118960000Y-121637907D01*
X118990781Y-121483158D01*
X119051162Y-121337386D01*
X119051163Y-121337384D01*
X119138822Y-121206192D01*
X119250392Y-121094622D01*
X119381584Y-121006963D01*
X119381586Y-121006962D01*
X119527358Y-120946581D01*
X119682107Y-120915800D01*
X119839893Y-120915800D01*
X119994642Y-120946581D01*
G37*
G36*
X115114642Y-120946581D02*
G01*
X115260414Y-121006962D01*
X115260416Y-121006963D01*
X115391608Y-121094622D01*
X115503178Y-121206192D01*
X115590837Y-121337384D01*
X115590838Y-121337386D01*
X115651219Y-121483158D01*
X115682000Y-121637907D01*
X115682000Y-121795693D01*
X115651219Y-121950442D01*
X115590838Y-122096214D01*
X115590837Y-122096216D01*
X115503178Y-122227408D01*
X115391608Y-122338978D01*
X115260416Y-122426637D01*
X115260415Y-122426638D01*
X115260414Y-122426638D01*
X115114642Y-122487019D01*
X114959893Y-122517800D01*
X114802107Y-122517800D01*
X114647358Y-122487019D01*
X114501586Y-122426638D01*
X114501585Y-122426638D01*
X114501584Y-122426637D01*
X114370392Y-122338978D01*
X114258822Y-122227408D01*
X114171163Y-122096216D01*
X114171162Y-122096214D01*
X114110781Y-121950442D01*
X114080000Y-121795693D01*
X114080000Y-121637907D01*
X114110781Y-121483158D01*
X114171162Y-121337386D01*
X114171163Y-121337384D01*
X114258822Y-121206192D01*
X114370392Y-121094622D01*
X114501584Y-121006963D01*
X114501586Y-121006962D01*
X114647358Y-120946581D01*
X114802107Y-120915800D01*
X114959893Y-120915800D01*
X115114642Y-120946581D01*
G37*
G36*
X137400512Y-119550727D02*
G01*
X137549812Y-119580424D01*
X137713784Y-119648344D01*
X137861354Y-119746947D01*
X137986853Y-119872446D01*
X138085456Y-120020016D01*
X138153376Y-120183988D01*
X138188000Y-120358059D01*
X138188000Y-120535541D01*
X138153376Y-120709612D01*
X138085456Y-120873584D01*
X137986853Y-121021154D01*
X137861354Y-121146653D01*
X137713784Y-121245256D01*
X137549812Y-121313176D01*
X137400512Y-121342873D01*
X137375742Y-121347800D01*
X137198258Y-121347800D01*
X137173488Y-121342873D01*
X137024188Y-121313176D01*
X136860216Y-121245256D01*
X136712646Y-121146653D01*
X136587147Y-121021154D01*
X136488544Y-120873584D01*
X136420624Y-120709612D01*
X136386000Y-120535541D01*
X136386000Y-120358059D01*
X136420624Y-120183988D01*
X136488544Y-120020016D01*
X136587147Y-119872446D01*
X136712646Y-119746947D01*
X136860216Y-119648344D01*
X137024188Y-119580424D01*
X137173488Y-119550727D01*
X137198258Y-119545800D01*
X137375742Y-119545800D01*
X137400512Y-119550727D01*
G37*
G36*
X137400512Y-117010727D02*
G01*
X137549812Y-117040424D01*
X137713784Y-117108344D01*
X137861354Y-117206947D01*
X137986853Y-117332446D01*
X138085456Y-117480016D01*
X138153376Y-117643988D01*
X138188000Y-117818059D01*
X138188000Y-117995541D01*
X138153376Y-118169612D01*
X138085456Y-118333584D01*
X137986853Y-118481154D01*
X137861354Y-118606653D01*
X137713784Y-118705256D01*
X137549812Y-118773176D01*
X137400512Y-118802873D01*
X137375742Y-118807800D01*
X137198258Y-118807800D01*
X137173488Y-118802873D01*
X137024188Y-118773176D01*
X136860216Y-118705256D01*
X136712646Y-118606653D01*
X136587147Y-118481154D01*
X136488544Y-118333584D01*
X136420624Y-118169612D01*
X136386000Y-117995541D01*
X136386000Y-117818059D01*
X136420624Y-117643988D01*
X136488544Y-117480016D01*
X136587147Y-117332446D01*
X136712646Y-117206947D01*
X136860216Y-117108344D01*
X137024188Y-117040424D01*
X137173488Y-117010727D01*
X137198258Y-117005800D01*
X137375742Y-117005800D01*
X137400512Y-117010727D01*
G37*
G36*
X137400512Y-114470727D02*
G01*
X137549812Y-114500424D01*
X137713784Y-114568344D01*
X137861354Y-114666947D01*
X137986853Y-114792446D01*
X138085456Y-114940016D01*
X138153376Y-115103988D01*
X138188000Y-115278059D01*
X138188000Y-115455541D01*
X138153376Y-115629612D01*
X138085456Y-115793584D01*
X137986853Y-115941154D01*
X137861354Y-116066653D01*
X137713784Y-116165256D01*
X137549812Y-116233176D01*
X137400512Y-116262873D01*
X137375742Y-116267800D01*
X137198258Y-116267800D01*
X137173488Y-116262873D01*
X137024188Y-116233176D01*
X136860216Y-116165256D01*
X136712646Y-116066653D01*
X136587147Y-115941154D01*
X136488544Y-115793584D01*
X136420624Y-115629612D01*
X136386000Y-115455541D01*
X136386000Y-115278059D01*
X136420624Y-115103988D01*
X136488544Y-114940016D01*
X136587147Y-114792446D01*
X136712646Y-114666947D01*
X136860216Y-114568344D01*
X137024188Y-114500424D01*
X137173488Y-114470727D01*
X137198258Y-114465800D01*
X137375742Y-114465800D01*
X137400512Y-114470727D01*
G37*
G36*
X110311500Y-114934300D02*
G01*
X108509500Y-114934300D01*
X108509500Y-113132300D01*
X110311500Y-113132300D01*
X110311500Y-114934300D01*
G37*
G36*
X112064012Y-113137227D02*
G01*
X112213312Y-113166924D01*
X112377284Y-113234844D01*
X112524854Y-113333447D01*
X112650353Y-113458946D01*
X112748956Y-113606516D01*
X112816876Y-113770488D01*
X112851500Y-113944559D01*
X112851500Y-114122041D01*
X112816876Y-114296112D01*
X112748956Y-114460084D01*
X112650353Y-114607654D01*
X112524854Y-114733153D01*
X112377284Y-114831756D01*
X112213312Y-114899676D01*
X112064012Y-114929373D01*
X112039242Y-114934300D01*
X111861758Y-114934300D01*
X111836988Y-114929373D01*
X111687688Y-114899676D01*
X111523716Y-114831756D01*
X111376146Y-114733153D01*
X111250647Y-114607654D01*
X111152044Y-114460084D01*
X111084124Y-114296112D01*
X111049500Y-114122041D01*
X111049500Y-113944559D01*
X111084124Y-113770488D01*
X111152044Y-113606516D01*
X111250647Y-113458946D01*
X111376146Y-113333447D01*
X111523716Y-113234844D01*
X111687688Y-113166924D01*
X111836988Y-113137227D01*
X111861758Y-113132300D01*
X112039242Y-113132300D01*
X112064012Y-113137227D01*
G37*
G36*
X137400512Y-111930727D02*
G01*
X137549812Y-111960424D01*
X137713784Y-112028344D01*
X137861354Y-112126947D01*
X137986853Y-112252446D01*
X138085456Y-112400016D01*
X138153376Y-112563988D01*
X138188000Y-112738059D01*
X138188000Y-112915541D01*
X138153376Y-113089612D01*
X138085456Y-113253584D01*
X137986853Y-113401154D01*
X137861354Y-113526653D01*
X137713784Y-113625256D01*
X137549812Y-113693176D01*
X137400512Y-113722873D01*
X137375742Y-113727800D01*
X137198258Y-113727800D01*
X137173488Y-113722873D01*
X137024188Y-113693176D01*
X136860216Y-113625256D01*
X136712646Y-113526653D01*
X136587147Y-113401154D01*
X136488544Y-113253584D01*
X136420624Y-113089612D01*
X136386000Y-112915541D01*
X136386000Y-112738059D01*
X136420624Y-112563988D01*
X136488544Y-112400016D01*
X136587147Y-112252446D01*
X136712646Y-112126947D01*
X136860216Y-112028344D01*
X137024188Y-111960424D01*
X137173488Y-111930727D01*
X137198258Y-111925800D01*
X137375742Y-111925800D01*
X137400512Y-111930727D01*
G37*
G36*
X137400512Y-109390727D02*
G01*
X137549812Y-109420424D01*
X137713784Y-109488344D01*
X137861354Y-109586947D01*
X137986853Y-109712446D01*
X138085456Y-109860016D01*
X138153376Y-110023988D01*
X138188000Y-110198059D01*
X138188000Y-110375541D01*
X138153376Y-110549612D01*
X138085456Y-110713584D01*
X137986853Y-110861154D01*
X137861354Y-110986653D01*
X137713784Y-111085256D01*
X137549812Y-111153176D01*
X137400512Y-111182873D01*
X137375742Y-111187800D01*
X137198258Y-111187800D01*
X137173488Y-111182873D01*
X137024188Y-111153176D01*
X136860216Y-111085256D01*
X136712646Y-110986653D01*
X136587147Y-110861154D01*
X136488544Y-110713584D01*
X136420624Y-110549612D01*
X136386000Y-110375541D01*
X136386000Y-110198059D01*
X136420624Y-110023988D01*
X136488544Y-109860016D01*
X136587147Y-109712446D01*
X136712646Y-109586947D01*
X136860216Y-109488344D01*
X137024188Y-109420424D01*
X137173488Y-109390727D01*
X137198258Y-109385800D01*
X137375742Y-109385800D01*
X137400512Y-109390727D01*
G37*
G36*
X110311500Y-111187800D02*
G01*
X108509500Y-111187800D01*
X108509500Y-109385800D01*
X110311500Y-109385800D01*
X110311500Y-111187800D01*
G37*
G36*
X112064012Y-109390727D02*
G01*
X112213312Y-109420424D01*
X112377284Y-109488344D01*
X112524854Y-109586947D01*
X112650353Y-109712446D01*
X112748956Y-109860016D01*
X112816876Y-110023988D01*
X112851500Y-110198059D01*
X112851500Y-110375541D01*
X112816876Y-110549612D01*
X112748956Y-110713584D01*
X112650353Y-110861154D01*
X112524854Y-110986653D01*
X112377284Y-111085256D01*
X112213312Y-111153176D01*
X112064012Y-111182873D01*
X112039242Y-111187800D01*
X111861758Y-111187800D01*
X111836988Y-111182873D01*
X111687688Y-111153176D01*
X111523716Y-111085256D01*
X111376146Y-110986653D01*
X111250647Y-110861154D01*
X111152044Y-110713584D01*
X111084124Y-110549612D01*
X111049500Y-110375541D01*
X111049500Y-110198059D01*
X111084124Y-110023988D01*
X111152044Y-109860016D01*
X111250647Y-109712446D01*
X111376146Y-109586947D01*
X111523716Y-109488344D01*
X111687688Y-109420424D01*
X111836988Y-109390727D01*
X111861758Y-109385800D01*
X112039242Y-109385800D01*
X112064012Y-109390727D01*
G37*
G36*
X137400512Y-106850727D02*
G01*
X137549812Y-106880424D01*
X137713784Y-106948344D01*
X137861354Y-107046947D01*
X137986853Y-107172446D01*
X138085456Y-107320016D01*
X138153376Y-107483988D01*
X138188000Y-107658059D01*
X138188000Y-107835541D01*
X138153376Y-108009612D01*
X138085456Y-108173584D01*
X137986853Y-108321154D01*
X137861354Y-108446653D01*
X137713784Y-108545256D01*
X137549812Y-108613176D01*
X137400512Y-108642873D01*
X137375742Y-108647800D01*
X137198258Y-108647800D01*
X137173488Y-108642873D01*
X137024188Y-108613176D01*
X136860216Y-108545256D01*
X136712646Y-108446653D01*
X136587147Y-108321154D01*
X136488544Y-108173584D01*
X136420624Y-108009612D01*
X136386000Y-107835541D01*
X136386000Y-107658059D01*
X136420624Y-107483988D01*
X136488544Y-107320016D01*
X136587147Y-107172446D01*
X136712646Y-107046947D01*
X136860216Y-106948344D01*
X137024188Y-106880424D01*
X137173488Y-106850727D01*
X137198258Y-106845800D01*
X137375742Y-106845800D01*
X137400512Y-106850727D01*
G37*
G36*
X110311500Y-107441300D02*
G01*
X108509500Y-107441300D01*
X108509500Y-105639300D01*
X110311500Y-105639300D01*
X110311500Y-107441300D01*
G37*
G36*
X112064012Y-105644227D02*
G01*
X112213312Y-105673924D01*
X112377284Y-105741844D01*
X112524854Y-105840447D01*
X112650353Y-105965946D01*
X112748956Y-106113516D01*
X112816876Y-106277488D01*
X112851500Y-106451559D01*
X112851500Y-106629041D01*
X112816876Y-106803112D01*
X112748956Y-106967084D01*
X112650353Y-107114654D01*
X112524854Y-107240153D01*
X112377284Y-107338756D01*
X112213312Y-107406676D01*
X112064012Y-107436373D01*
X112039242Y-107441300D01*
X111861758Y-107441300D01*
X111836988Y-107436373D01*
X111687688Y-107406676D01*
X111523716Y-107338756D01*
X111376146Y-107240153D01*
X111250647Y-107114654D01*
X111152044Y-106967084D01*
X111084124Y-106803112D01*
X111049500Y-106629041D01*
X111049500Y-106451559D01*
X111084124Y-106277488D01*
X111152044Y-106113516D01*
X111250647Y-105965946D01*
X111376146Y-105840447D01*
X111523716Y-105741844D01*
X111687688Y-105673924D01*
X111836988Y-105644227D01*
X111861758Y-105639300D01*
X112039242Y-105639300D01*
X112064012Y-105644227D01*
G37*
G36*
X137400512Y-104310727D02*
G01*
X137549812Y-104340424D01*
X137713784Y-104408344D01*
X137861354Y-104506947D01*
X137986853Y-104632446D01*
X138085456Y-104780016D01*
X138153376Y-104943988D01*
X138188000Y-105118059D01*
X138188000Y-105295541D01*
X138153376Y-105469612D01*
X138085456Y-105633584D01*
X137986853Y-105781154D01*
X137861354Y-105906653D01*
X137713784Y-106005256D01*
X137549812Y-106073176D01*
X137400512Y-106102873D01*
X137375742Y-106107800D01*
X137198258Y-106107800D01*
X137173488Y-106102873D01*
X137024188Y-106073176D01*
X136860216Y-106005256D01*
X136712646Y-105906653D01*
X136587147Y-105781154D01*
X136488544Y-105633584D01*
X136420624Y-105469612D01*
X136386000Y-105295541D01*
X136386000Y-105118059D01*
X136420624Y-104943988D01*
X136488544Y-104780016D01*
X136587147Y-104632446D01*
X136712646Y-104506947D01*
X136860216Y-104408344D01*
X137024188Y-104340424D01*
X137173488Y-104310727D01*
X137198258Y-104305800D01*
X137375742Y-104305800D01*
X137400512Y-104310727D01*
G37*
G36*
X112064012Y-101897727D02*
G01*
X112213312Y-101927424D01*
X112377284Y-101995344D01*
X112524854Y-102093947D01*
X112650353Y-102219446D01*
X112748956Y-102367016D01*
X112816876Y-102530988D01*
X112851500Y-102705059D01*
X112851500Y-102882541D01*
X112816876Y-103056612D01*
X112748956Y-103220584D01*
X112650353Y-103368154D01*
X112524854Y-103493653D01*
X112377284Y-103592256D01*
X112213312Y-103660176D01*
X112064012Y-103689873D01*
X112039242Y-103694800D01*
X111861758Y-103694800D01*
X111836988Y-103689873D01*
X111687688Y-103660176D01*
X111523716Y-103592256D01*
X111376146Y-103493653D01*
X111250647Y-103368154D01*
X111152044Y-103220584D01*
X111084124Y-103056612D01*
X111049500Y-102882541D01*
X111049500Y-102705059D01*
X111084124Y-102530988D01*
X111152044Y-102367016D01*
X111250647Y-102219446D01*
X111376146Y-102093947D01*
X111523716Y-101995344D01*
X111687688Y-101927424D01*
X111836988Y-101897727D01*
X111861758Y-101892800D01*
X112039242Y-101892800D01*
X112064012Y-101897727D01*
G37*
G36*
X110311500Y-103694800D02*
G01*
X108509500Y-103694800D01*
X108509500Y-101892800D01*
X110311500Y-101892800D01*
X110311500Y-103694800D01*
G37*
G36*
X124218000Y-99884800D02*
G01*
X122416000Y-99884800D01*
X122416000Y-98082800D01*
X124218000Y-98082800D01*
X124218000Y-99884800D01*
G37*
G36*
X108190512Y-98087727D02*
G01*
X108339812Y-98117424D01*
X108503784Y-98185344D01*
X108651354Y-98283947D01*
X108776853Y-98409446D01*
X108875456Y-98557016D01*
X108943376Y-98720988D01*
X108978000Y-98895059D01*
X108978000Y-99072541D01*
X108943376Y-99246612D01*
X108875456Y-99410584D01*
X108776853Y-99558154D01*
X108651354Y-99683653D01*
X108503784Y-99782256D01*
X108339812Y-99850176D01*
X108190512Y-99879873D01*
X108165742Y-99884800D01*
X107988258Y-99884800D01*
X107963488Y-99879873D01*
X107814188Y-99850176D01*
X107650216Y-99782256D01*
X107502646Y-99683653D01*
X107377147Y-99558154D01*
X107278544Y-99410584D01*
X107210624Y-99246612D01*
X107176000Y-99072541D01*
X107176000Y-98895059D01*
X107210624Y-98720988D01*
X107278544Y-98557016D01*
X107377147Y-98409446D01*
X107502646Y-98283947D01*
X107650216Y-98185344D01*
X107814188Y-98117424D01*
X107963488Y-98087727D01*
X107988258Y-98082800D01*
X108165742Y-98082800D01*
X108190512Y-98087727D01*
G37*
G36*
X110730512Y-98087727D02*
G01*
X110879812Y-98117424D01*
X111043784Y-98185344D01*
X111191354Y-98283947D01*
X111316853Y-98409446D01*
X111415456Y-98557016D01*
X111483376Y-98720988D01*
X111518000Y-98895059D01*
X111518000Y-99072541D01*
X111483376Y-99246612D01*
X111415456Y-99410584D01*
X111316853Y-99558154D01*
X111191354Y-99683653D01*
X111043784Y-99782256D01*
X110879812Y-99850176D01*
X110730512Y-99879873D01*
X110705742Y-99884800D01*
X110528258Y-99884800D01*
X110503488Y-99879873D01*
X110354188Y-99850176D01*
X110190216Y-99782256D01*
X110042646Y-99683653D01*
X109917147Y-99558154D01*
X109818544Y-99410584D01*
X109750624Y-99246612D01*
X109716000Y-99072541D01*
X109716000Y-98895059D01*
X109750624Y-98720988D01*
X109818544Y-98557016D01*
X109917147Y-98409446D01*
X110042646Y-98283947D01*
X110190216Y-98185344D01*
X110354188Y-98117424D01*
X110503488Y-98087727D01*
X110528258Y-98082800D01*
X110705742Y-98082800D01*
X110730512Y-98087727D01*
G37*
G36*
X113270512Y-98087727D02*
G01*
X113419812Y-98117424D01*
X113583784Y-98185344D01*
X113731354Y-98283947D01*
X113856853Y-98409446D01*
X113955456Y-98557016D01*
X114023376Y-98720988D01*
X114058000Y-98895059D01*
X114058000Y-99072541D01*
X114023376Y-99246612D01*
X113955456Y-99410584D01*
X113856853Y-99558154D01*
X113731354Y-99683653D01*
X113583784Y-99782256D01*
X113419812Y-99850176D01*
X113270512Y-99879873D01*
X113245742Y-99884800D01*
X113068258Y-99884800D01*
X113043488Y-99879873D01*
X112894188Y-99850176D01*
X112730216Y-99782256D01*
X112582646Y-99683653D01*
X112457147Y-99558154D01*
X112358544Y-99410584D01*
X112290624Y-99246612D01*
X112256000Y-99072541D01*
X112256000Y-98895059D01*
X112290624Y-98720988D01*
X112358544Y-98557016D01*
X112457147Y-98409446D01*
X112582646Y-98283947D01*
X112730216Y-98185344D01*
X112894188Y-98117424D01*
X113043488Y-98087727D01*
X113068258Y-98082800D01*
X113245742Y-98082800D01*
X113270512Y-98087727D01*
G37*
G36*
X115810512Y-98087727D02*
G01*
X115959812Y-98117424D01*
X116123784Y-98185344D01*
X116271354Y-98283947D01*
X116396853Y-98409446D01*
X116495456Y-98557016D01*
X116563376Y-98720988D01*
X116598000Y-98895059D01*
X116598000Y-99072541D01*
X116563376Y-99246612D01*
X116495456Y-99410584D01*
X116396853Y-99558154D01*
X116271354Y-99683653D01*
X116123784Y-99782256D01*
X115959812Y-99850176D01*
X115810512Y-99879873D01*
X115785742Y-99884800D01*
X115608258Y-99884800D01*
X115583488Y-99879873D01*
X115434188Y-99850176D01*
X115270216Y-99782256D01*
X115122646Y-99683653D01*
X114997147Y-99558154D01*
X114898544Y-99410584D01*
X114830624Y-99246612D01*
X114796000Y-99072541D01*
X114796000Y-98895059D01*
X114830624Y-98720988D01*
X114898544Y-98557016D01*
X114997147Y-98409446D01*
X115122646Y-98283947D01*
X115270216Y-98185344D01*
X115434188Y-98117424D01*
X115583488Y-98087727D01*
X115608258Y-98082800D01*
X115785742Y-98082800D01*
X115810512Y-98087727D01*
G37*
G36*
X120890512Y-98087727D02*
G01*
X121039812Y-98117424D01*
X121203784Y-98185344D01*
X121351354Y-98283947D01*
X121476853Y-98409446D01*
X121575456Y-98557016D01*
X121643376Y-98720988D01*
X121678000Y-98895059D01*
X121678000Y-99072541D01*
X121643376Y-99246612D01*
X121575456Y-99410584D01*
X121476853Y-99558154D01*
X121351354Y-99683653D01*
X121203784Y-99782256D01*
X121039812Y-99850176D01*
X120890512Y-99879873D01*
X120865742Y-99884800D01*
X120688258Y-99884800D01*
X120663488Y-99879873D01*
X120514188Y-99850176D01*
X120350216Y-99782256D01*
X120202646Y-99683653D01*
X120077147Y-99558154D01*
X119978544Y-99410584D01*
X119910624Y-99246612D01*
X119876000Y-99072541D01*
X119876000Y-98895059D01*
X119910624Y-98720988D01*
X119978544Y-98557016D01*
X120077147Y-98409446D01*
X120202646Y-98283947D01*
X120350216Y-98185344D01*
X120514188Y-98117424D01*
X120663488Y-98087727D01*
X120688258Y-98082800D01*
X120865742Y-98082800D01*
X120890512Y-98087727D01*
G37*
G36*
X118350512Y-98087727D02*
G01*
X118499812Y-98117424D01*
X118663784Y-98185344D01*
X118811354Y-98283947D01*
X118936853Y-98409446D01*
X119035456Y-98557016D01*
X119103376Y-98720988D01*
X119138000Y-98895059D01*
X119138000Y-99072541D01*
X119103376Y-99246612D01*
X119035456Y-99410584D01*
X118936853Y-99558154D01*
X118811354Y-99683653D01*
X118663784Y-99782256D01*
X118499812Y-99850176D01*
X118350512Y-99879873D01*
X118325742Y-99884800D01*
X118148258Y-99884800D01*
X118123488Y-99879873D01*
X117974188Y-99850176D01*
X117810216Y-99782256D01*
X117662646Y-99683653D01*
X117537147Y-99558154D01*
X117438544Y-99410584D01*
X117370624Y-99246612D01*
X117336000Y-99072541D01*
X117336000Y-98895059D01*
X117370624Y-98720988D01*
X117438544Y-98557016D01*
X117537147Y-98409446D01*
X117662646Y-98283947D01*
X117810216Y-98185344D01*
X117974188Y-98117424D01*
X118123488Y-98087727D01*
X118148258Y-98082800D01*
X118325742Y-98082800D01*
X118350512Y-98087727D01*
G37*
G36*
X110857512Y-92055227D02*
G01*
X111006812Y-92084924D01*
X111170784Y-92152844D01*
X111318354Y-92251447D01*
X111443853Y-92376946D01*
X111542456Y-92524516D01*
X111610376Y-92688488D01*
X111645000Y-92862559D01*
X111645000Y-93040041D01*
X111610376Y-93214112D01*
X111542456Y-93378084D01*
X111443853Y-93525654D01*
X111318354Y-93651153D01*
X111170784Y-93749756D01*
X111006812Y-93817676D01*
X110857512Y-93847373D01*
X110832742Y-93852300D01*
X110655258Y-93852300D01*
X110630488Y-93847373D01*
X110481188Y-93817676D01*
X110317216Y-93749756D01*
X110169646Y-93651153D01*
X110044147Y-93525654D01*
X109945544Y-93378084D01*
X109877624Y-93214112D01*
X109843000Y-93040041D01*
X109843000Y-92862559D01*
X109877624Y-92688488D01*
X109945544Y-92524516D01*
X110044147Y-92376946D01*
X110169646Y-92251447D01*
X110317216Y-92152844D01*
X110481188Y-92084924D01*
X110630488Y-92055227D01*
X110655258Y-92050300D01*
X110832742Y-92050300D01*
X110857512Y-92055227D01*
G37*
G36*
X107111012Y-92055227D02*
G01*
X107260312Y-92084924D01*
X107424284Y-92152844D01*
X107571854Y-92251447D01*
X107697353Y-92376946D01*
X107795956Y-92524516D01*
X107863876Y-92688488D01*
X107898500Y-92862559D01*
X107898500Y-93040041D01*
X107863876Y-93214112D01*
X107795956Y-93378084D01*
X107697353Y-93525654D01*
X107571854Y-93651153D01*
X107424284Y-93749756D01*
X107260312Y-93817676D01*
X107111012Y-93847373D01*
X107086242Y-93852300D01*
X106908758Y-93852300D01*
X106883988Y-93847373D01*
X106734688Y-93817676D01*
X106570716Y-93749756D01*
X106423146Y-93651153D01*
X106297647Y-93525654D01*
X106199044Y-93378084D01*
X106131124Y-93214112D01*
X106096500Y-93040041D01*
X106096500Y-92862559D01*
X106131124Y-92688488D01*
X106199044Y-92524516D01*
X106297647Y-92376946D01*
X106423146Y-92251447D01*
X106570716Y-92152844D01*
X106734688Y-92084924D01*
X106883988Y-92055227D01*
X106908758Y-92050300D01*
X107086242Y-92050300D01*
X107111012Y-92055227D01*
G37*
G36*
X111645000Y-91312300D02*
G01*
X109843000Y-91312300D01*
X109843000Y-89510300D01*
X111645000Y-89510300D01*
X111645000Y-91312300D01*
G37*
G36*
X107898500Y-91312300D02*
G01*
X106096500Y-91312300D01*
X106096500Y-89510300D01*
X107898500Y-89510300D01*
X107898500Y-91312300D01*
G37*
M02*
