G04 #@! TF.GenerationSoftware,KiCad,Pcbnew,(5.1.6)-1*
G04 #@! TF.CreationDate,2021-04-29T20:17:03-05:00*
G04 #@! TF.ProjectId,BEncoderBoard3(3.2),42456e63-6f64-4657-9242-6f6172643328,rev?*
G04 #@! TF.SameCoordinates,Original*
G04 #@! TF.FileFunction,Copper,L2,Bot*
G04 #@! TF.FilePolarity,Positive*
%FSLAX46Y46*%
G04 Gerber Fmt 4.6, Leading zero omitted, Abs format (unit mm)*
G04 Created by KiCad (PCBNEW (5.1.6)-1) date 2021-04-29 20:17:03*
%MOMM*%
%LPD*%
G01*
G04 APERTURE LIST*
G04 #@! TA.AperFunction,ComponentPad*
%ADD10C,7.500000*%
G04 #@! TD*
G04 #@! TA.AperFunction,ViaPad*
%ADD11C,0.450000*%
G04 #@! TD*
G04 #@! TA.AperFunction,Conductor*
%ADD12C,0.254000*%
G04 #@! TD*
G04 APERTURE END LIST*
D10*
X145351500Y-99822000D03*
X121539000Y-99822000D03*
D11*
X148082000Y-89662000D03*
X145796000Y-89662000D03*
X143510000Y-89662000D03*
X141224000Y-89662000D03*
X139192000Y-89662000D03*
X137414000Y-89662000D03*
X126238000Y-89662000D03*
X128270000Y-89662000D03*
X130302000Y-89662000D03*
X132080000Y-89662000D03*
X134112000Y-89662000D03*
X133349600Y-98704800D03*
X138303000Y-94107000D03*
X128320800Y-99517200D03*
X129108200Y-102565200D03*
X138420000Y-90551000D03*
X138420000Y-91567000D03*
X134112000Y-90424000D03*
X134112000Y-91059000D03*
X134112000Y-91694000D03*
X137160000Y-93116400D03*
D12*
G36*
X149898001Y-109380000D02*
G01*
X117102000Y-109380000D01*
X117102000Y-99395828D01*
X117212000Y-99395828D01*
X117212000Y-100248172D01*
X117378284Y-101084139D01*
X117704462Y-101871603D01*
X118177999Y-102580302D01*
X118780698Y-103183001D01*
X119489397Y-103656538D01*
X120276861Y-103982716D01*
X121112828Y-104149000D01*
X121965172Y-104149000D01*
X122801139Y-103982716D01*
X123588603Y-103656538D01*
X124297302Y-103183001D01*
X124900001Y-102580302D01*
X125373538Y-101871603D01*
X125699716Y-101084139D01*
X125866000Y-100248172D01*
X125866000Y-99395828D01*
X141024500Y-99395828D01*
X141024500Y-100248172D01*
X141190784Y-101084139D01*
X141516962Y-101871603D01*
X141990499Y-102580302D01*
X142593198Y-103183001D01*
X143301897Y-103656538D01*
X144089361Y-103982716D01*
X144925328Y-104149000D01*
X145777672Y-104149000D01*
X146613639Y-103982716D01*
X147401103Y-103656538D01*
X148109802Y-103183001D01*
X148712501Y-102580302D01*
X149186038Y-101871603D01*
X149512216Y-101084139D01*
X149678500Y-100248172D01*
X149678500Y-99395828D01*
X149512216Y-98559861D01*
X149186038Y-97772397D01*
X148712501Y-97063698D01*
X148109802Y-96460999D01*
X147401103Y-95987462D01*
X146613639Y-95661284D01*
X145777672Y-95495000D01*
X144925328Y-95495000D01*
X144089361Y-95661284D01*
X143301897Y-95987462D01*
X142593198Y-96460999D01*
X141990499Y-97063698D01*
X141516962Y-97772397D01*
X141190784Y-98559861D01*
X141024500Y-99395828D01*
X125866000Y-99395828D01*
X125699716Y-98559861D01*
X125373538Y-97772397D01*
X124900001Y-97063698D01*
X124297302Y-96460999D01*
X123588603Y-95987462D01*
X122801139Y-95661284D01*
X121965172Y-95495000D01*
X121112828Y-95495000D01*
X120276861Y-95661284D01*
X119489397Y-95987462D01*
X118780698Y-96460999D01*
X118177999Y-97063698D01*
X117704462Y-97772397D01*
X117378284Y-98559861D01*
X117212000Y-99395828D01*
X117102000Y-99395828D01*
X117102000Y-89154000D01*
X149898000Y-89154000D01*
X149898001Y-109380000D01*
G37*
X149898001Y-109380000D02*
X117102000Y-109380000D01*
X117102000Y-99395828D01*
X117212000Y-99395828D01*
X117212000Y-100248172D01*
X117378284Y-101084139D01*
X117704462Y-101871603D01*
X118177999Y-102580302D01*
X118780698Y-103183001D01*
X119489397Y-103656538D01*
X120276861Y-103982716D01*
X121112828Y-104149000D01*
X121965172Y-104149000D01*
X122801139Y-103982716D01*
X123588603Y-103656538D01*
X124297302Y-103183001D01*
X124900001Y-102580302D01*
X125373538Y-101871603D01*
X125699716Y-101084139D01*
X125866000Y-100248172D01*
X125866000Y-99395828D01*
X141024500Y-99395828D01*
X141024500Y-100248172D01*
X141190784Y-101084139D01*
X141516962Y-101871603D01*
X141990499Y-102580302D01*
X142593198Y-103183001D01*
X143301897Y-103656538D01*
X144089361Y-103982716D01*
X144925328Y-104149000D01*
X145777672Y-104149000D01*
X146613639Y-103982716D01*
X147401103Y-103656538D01*
X148109802Y-103183001D01*
X148712501Y-102580302D01*
X149186038Y-101871603D01*
X149512216Y-101084139D01*
X149678500Y-100248172D01*
X149678500Y-99395828D01*
X149512216Y-98559861D01*
X149186038Y-97772397D01*
X148712501Y-97063698D01*
X148109802Y-96460999D01*
X147401103Y-95987462D01*
X146613639Y-95661284D01*
X145777672Y-95495000D01*
X144925328Y-95495000D01*
X144089361Y-95661284D01*
X143301897Y-95987462D01*
X142593198Y-96460999D01*
X141990499Y-97063698D01*
X141516962Y-97772397D01*
X141190784Y-98559861D01*
X141024500Y-99395828D01*
X125866000Y-99395828D01*
X125699716Y-98559861D01*
X125373538Y-97772397D01*
X124900001Y-97063698D01*
X124297302Y-96460999D01*
X123588603Y-95987462D01*
X122801139Y-95661284D01*
X121965172Y-95495000D01*
X121112828Y-95495000D01*
X120276861Y-95661284D01*
X119489397Y-95987462D01*
X118780698Y-96460999D01*
X118177999Y-97063698D01*
X117704462Y-97772397D01*
X117378284Y-98559861D01*
X117212000Y-99395828D01*
X117102000Y-99395828D01*
X117102000Y-89154000D01*
X149898000Y-89154000D01*
X149898001Y-109380000D01*
M02*
