G04 #@! TF.GenerationSoftware,KiCad,Pcbnew,(5.1.6)-1*
G04 #@! TF.CreationDate,2021-04-29T20:17:03-05:00*
G04 #@! TF.ProjectId,BEncoderBoard3(3.2),42456e63-6f64-4657-9242-6f6172643328,rev?*
G04 #@! TF.SameCoordinates,Original*
G04 #@! TF.FileFunction,Soldermask,Top*
G04 #@! TF.FilePolarity,Negative*
%FSLAX46Y46*%
G04 Gerber Fmt 4.6, Leading zero omitted, Abs format (unit mm)*
G04 Created by KiCad (PCBNEW (5.1.6)-1) date 2021-04-29 20:17:03*
%MOMM*%
%LPD*%
G01*
G04 APERTURE LIST*
%ADD10C,0.100000*%
G04 APERTURE END LIST*
D10*
G36*
X138430000Y-93599000D02*
G01*
X136271000Y-93599000D01*
X136271000Y-92456000D01*
X138430000Y-92456000D01*
X138430000Y-93599000D01*
G37*
X138430000Y-93599000D02*
X136271000Y-93599000D01*
X136271000Y-92456000D01*
X138430000Y-92456000D01*
X138430000Y-93599000D01*
G36*
X150130000Y-83400000D02*
G01*
X150090000Y-83390000D01*
X150120000Y-83400000D01*
X140130000Y-83400000D01*
X140130000Y-82110000D01*
X150130000Y-82110000D01*
X150130000Y-83400000D01*
G37*
X150130000Y-83400000D02*
X150090000Y-83390000D01*
X150120000Y-83400000D01*
X140130000Y-83400000D01*
X140130000Y-82110000D01*
X150130000Y-82110000D01*
X150130000Y-83400000D01*
G36*
X134244000Y-104933000D02*
G01*
X132342000Y-104933000D01*
X132342000Y-102331000D01*
X134244000Y-102331000D01*
X134244000Y-104933000D01*
G37*
G36*
X131844000Y-104933000D02*
G01*
X129942000Y-104933000D01*
X129942000Y-102331000D01*
X131844000Y-102331000D01*
X131844000Y-104933000D01*
G37*
G36*
X139044000Y-104933000D02*
G01*
X137142000Y-104933000D01*
X137142000Y-102331000D01*
X139044000Y-102331000D01*
X139044000Y-104933000D01*
G37*
G36*
X136644000Y-104933000D02*
G01*
X134742000Y-104933000D01*
X134742000Y-102331000D01*
X136644000Y-102331000D01*
X136644000Y-104933000D01*
G37*
G36*
X122647710Y-96167070D02*
G01*
X123339447Y-96453597D01*
X123491035Y-96554885D01*
X123961996Y-96869571D01*
X124491429Y-97399004D01*
X124691135Y-97697885D01*
X124907403Y-98021553D01*
X125193930Y-98713290D01*
X125340000Y-99447633D01*
X125340000Y-100196367D01*
X125193930Y-100930710D01*
X124907403Y-101622447D01*
X124907402Y-101622448D01*
X124491429Y-102244996D01*
X123961996Y-102774429D01*
X123546022Y-103052374D01*
X123339447Y-103190403D01*
X122647710Y-103476930D01*
X121913367Y-103623000D01*
X121164633Y-103623000D01*
X120430290Y-103476930D01*
X119738553Y-103190403D01*
X119531978Y-103052374D01*
X119116004Y-102774429D01*
X118586571Y-102244996D01*
X118170598Y-101622448D01*
X118170597Y-101622447D01*
X117884070Y-100930710D01*
X117738000Y-100196367D01*
X117738000Y-99447633D01*
X117884070Y-98713290D01*
X118170597Y-98021553D01*
X118386865Y-97697885D01*
X118586571Y-97399004D01*
X119116004Y-96869571D01*
X119586965Y-96554885D01*
X119738553Y-96453597D01*
X120430290Y-96167070D01*
X121164633Y-96021000D01*
X121913367Y-96021000D01*
X122647710Y-96167070D01*
G37*
G36*
X146460210Y-96167070D02*
G01*
X147151947Y-96453597D01*
X147303535Y-96554885D01*
X147774496Y-96869571D01*
X148303929Y-97399004D01*
X148503635Y-97697885D01*
X148719903Y-98021553D01*
X149006430Y-98713290D01*
X149152500Y-99447633D01*
X149152500Y-100196367D01*
X149006430Y-100930710D01*
X148719903Y-101622447D01*
X148719902Y-101622448D01*
X148303929Y-102244996D01*
X147774496Y-102774429D01*
X147358522Y-103052374D01*
X147151947Y-103190403D01*
X146460210Y-103476930D01*
X145725867Y-103623000D01*
X144977133Y-103623000D01*
X144242790Y-103476930D01*
X143551053Y-103190403D01*
X143344478Y-103052374D01*
X142928504Y-102774429D01*
X142399071Y-102244996D01*
X141983098Y-101622448D01*
X141983097Y-101622447D01*
X141696570Y-100930710D01*
X141550500Y-100196367D01*
X141550500Y-99447633D01*
X141696570Y-98713290D01*
X141983097Y-98021553D01*
X142199365Y-97697885D01*
X142399071Y-97399004D01*
X142928504Y-96869571D01*
X143399465Y-96554885D01*
X143551053Y-96453597D01*
X144242790Y-96167070D01*
X144977133Y-96021000D01*
X145725867Y-96021000D01*
X146460210Y-96167070D01*
G37*
G36*
X131350600Y-101158530D02*
G01*
X130548600Y-101158530D01*
X130548600Y-99556530D01*
X131350600Y-99556530D01*
X131350600Y-101158530D01*
G37*
G36*
X132550600Y-101158530D02*
G01*
X131748600Y-101158530D01*
X131748600Y-99556530D01*
X132550600Y-99556530D01*
X132550600Y-101158530D01*
G37*
G36*
X136700600Y-99760200D02*
G01*
X135075599Y-99760200D01*
X135051213Y-99762602D01*
X135027764Y-99769715D01*
X135006153Y-99781266D01*
X134987211Y-99796811D01*
X134971666Y-99815753D01*
X134960115Y-99837364D01*
X134953002Y-99860813D01*
X134950600Y-99885199D01*
X134950600Y-101158530D01*
X134148600Y-101158530D01*
X134148600Y-99556530D01*
X134973601Y-99556530D01*
X134997987Y-99554128D01*
X135021436Y-99547015D01*
X135043047Y-99535464D01*
X135061989Y-99519919D01*
X135077534Y-99500977D01*
X135089085Y-99479366D01*
X135096198Y-99455917D01*
X135098600Y-99431531D01*
X135098600Y-98958200D01*
X136700600Y-98958200D01*
X136700600Y-99760200D01*
G37*
G36*
X133750600Y-101158530D02*
G01*
X132948600Y-101158530D01*
X132948600Y-99556530D01*
X133750600Y-99556530D01*
X133750600Y-101158530D01*
G37*
G36*
X131200600Y-99160200D02*
G01*
X129598600Y-99160200D01*
X129598600Y-98358200D01*
X131200600Y-98358200D01*
X131200600Y-99160200D01*
G37*
G36*
X128697999Y-97585445D02*
G01*
X128735495Y-97596820D01*
X128770054Y-97615292D01*
X128800347Y-97640153D01*
X128825208Y-97670446D01*
X128843680Y-97705005D01*
X128855055Y-97742501D01*
X128859500Y-97787638D01*
X128859500Y-98526362D01*
X128855055Y-98571499D01*
X128843680Y-98608995D01*
X128825208Y-98643554D01*
X128800347Y-98673847D01*
X128770054Y-98698708D01*
X128735495Y-98717180D01*
X128697999Y-98728555D01*
X128652862Y-98733000D01*
X128014138Y-98733000D01*
X127969001Y-98728555D01*
X127931505Y-98717180D01*
X127896946Y-98698708D01*
X127866653Y-98673847D01*
X127841792Y-98643554D01*
X127823320Y-98608995D01*
X127811945Y-98571499D01*
X127807500Y-98526362D01*
X127807500Y-97787638D01*
X127811945Y-97742501D01*
X127823320Y-97705005D01*
X127841792Y-97670446D01*
X127866653Y-97640153D01*
X127896946Y-97615292D01*
X127931505Y-97596820D01*
X127969001Y-97585445D01*
X128014138Y-97581000D01*
X128652862Y-97581000D01*
X128697999Y-97585445D01*
G37*
G36*
X136700600Y-98560200D02*
G01*
X135098600Y-98560200D01*
X135098600Y-97758200D01*
X136700600Y-97758200D01*
X136700600Y-98560200D01*
G37*
G36*
X131200600Y-97960200D02*
G01*
X129598600Y-97960200D01*
X129598600Y-97158200D01*
X131200600Y-97158200D01*
X131200600Y-97960200D01*
G37*
G36*
X138667499Y-96442445D02*
G01*
X138704995Y-96453820D01*
X138739554Y-96472292D01*
X138769847Y-96497153D01*
X138794708Y-96527446D01*
X138813180Y-96562005D01*
X138824555Y-96599501D01*
X138829000Y-96644638D01*
X138829000Y-97383362D01*
X138824555Y-97428499D01*
X138813180Y-97465995D01*
X138794708Y-97500554D01*
X138769847Y-97530847D01*
X138739554Y-97555708D01*
X138704995Y-97574180D01*
X138667499Y-97585555D01*
X138622362Y-97590000D01*
X137983638Y-97590000D01*
X137938501Y-97585555D01*
X137901005Y-97574180D01*
X137866446Y-97555708D01*
X137836153Y-97530847D01*
X137811292Y-97500554D01*
X137792820Y-97465995D01*
X137781445Y-97428499D01*
X137777000Y-97383362D01*
X137777000Y-96644638D01*
X137781445Y-96599501D01*
X137792820Y-96562005D01*
X137811292Y-96527446D01*
X137836153Y-96497153D01*
X137866446Y-96472292D01*
X137901005Y-96453820D01*
X137938501Y-96442445D01*
X137983638Y-96438000D01*
X138622362Y-96438000D01*
X138667499Y-96442445D01*
G37*
G36*
X136700600Y-97360200D02*
G01*
X135098600Y-97360200D01*
X135098600Y-96558200D01*
X136700600Y-96558200D01*
X136700600Y-97360200D01*
G37*
G36*
X128697999Y-95835445D02*
G01*
X128735495Y-95846820D01*
X128770054Y-95865292D01*
X128800347Y-95890153D01*
X128825208Y-95920446D01*
X128843680Y-95955005D01*
X128855055Y-95992501D01*
X128859500Y-96037638D01*
X128859500Y-96776362D01*
X128855055Y-96821499D01*
X128843680Y-96858995D01*
X128825208Y-96893554D01*
X128800347Y-96923847D01*
X128770054Y-96948708D01*
X128735495Y-96967180D01*
X128697999Y-96978555D01*
X128652862Y-96983000D01*
X128014138Y-96983000D01*
X127969001Y-96978555D01*
X127931505Y-96967180D01*
X127896946Y-96948708D01*
X127866653Y-96923847D01*
X127841792Y-96893554D01*
X127823320Y-96858995D01*
X127811945Y-96821499D01*
X127807500Y-96776362D01*
X127807500Y-96037638D01*
X127811945Y-95992501D01*
X127823320Y-95955005D01*
X127841792Y-95920446D01*
X127866653Y-95890153D01*
X127896946Y-95865292D01*
X127931505Y-95846820D01*
X127969001Y-95835445D01*
X128014138Y-95831000D01*
X128652862Y-95831000D01*
X128697999Y-95835445D01*
G37*
G36*
X131200600Y-96760200D02*
G01*
X129598600Y-96760200D01*
X129598600Y-95958200D01*
X131200600Y-95958200D01*
X131200600Y-96760200D01*
G37*
G36*
X136700600Y-96160200D02*
G01*
X135098600Y-96160200D01*
X135098600Y-95358200D01*
X136700600Y-95358200D01*
X136700600Y-96160200D01*
G37*
G36*
X138667499Y-94692445D02*
G01*
X138704995Y-94703820D01*
X138739554Y-94722292D01*
X138769847Y-94747153D01*
X138794708Y-94777446D01*
X138813180Y-94812005D01*
X138824555Y-94849501D01*
X138829000Y-94894638D01*
X138829000Y-95633362D01*
X138824555Y-95678499D01*
X138813180Y-95715995D01*
X138794708Y-95750554D01*
X138769847Y-95780847D01*
X138739554Y-95805708D01*
X138704995Y-95824180D01*
X138667499Y-95835555D01*
X138622362Y-95840000D01*
X137983638Y-95840000D01*
X137938501Y-95835555D01*
X137901005Y-95824180D01*
X137866446Y-95805708D01*
X137836153Y-95780847D01*
X137811292Y-95750554D01*
X137792820Y-95715995D01*
X137781445Y-95678499D01*
X137777000Y-95633362D01*
X137777000Y-94894638D01*
X137781445Y-94849501D01*
X137792820Y-94812005D01*
X137811292Y-94777446D01*
X137836153Y-94747153D01*
X137866446Y-94722292D01*
X137901005Y-94703820D01*
X137938501Y-94692445D01*
X137983638Y-94688000D01*
X138622362Y-94688000D01*
X138667499Y-94692445D01*
G37*
G36*
X131200600Y-95560200D02*
G01*
X129598600Y-95560200D01*
X129598600Y-94758200D01*
X131200600Y-94758200D01*
X131200600Y-95560200D01*
G37*
G36*
X136700600Y-94960200D02*
G01*
X135098600Y-94960200D01*
X135098600Y-94158200D01*
X136700600Y-94158200D01*
X136700600Y-94960200D01*
G37*
G36*
X132150600Y-93710200D02*
G01*
X131325599Y-93710200D01*
X131301213Y-93712602D01*
X131277764Y-93719715D01*
X131256153Y-93731266D01*
X131237211Y-93746811D01*
X131221666Y-93765753D01*
X131210115Y-93787364D01*
X131203002Y-93810813D01*
X131200600Y-93835199D01*
X131200600Y-94360200D01*
X129598600Y-94360200D01*
X129598600Y-93558200D01*
X131223601Y-93558200D01*
X131247987Y-93555798D01*
X131271436Y-93548685D01*
X131293047Y-93537134D01*
X131311989Y-93521589D01*
X131327534Y-93502647D01*
X131339085Y-93481036D01*
X131346198Y-93457587D01*
X131348600Y-93433201D01*
X131348600Y-92108200D01*
X132150600Y-92108200D01*
X132150600Y-93710200D01*
G37*
G36*
X135653938Y-91200716D02*
G01*
X135674557Y-91206971D01*
X135693553Y-91217124D01*
X135710208Y-91230792D01*
X135723876Y-91247447D01*
X135734029Y-91266443D01*
X135740284Y-91287062D01*
X135743000Y-91314640D01*
X135743000Y-91773360D01*
X135740284Y-91800938D01*
X135734029Y-91821557D01*
X135723876Y-91840553D01*
X135710208Y-91857208D01*
X135693554Y-91870874D01*
X135689647Y-91872963D01*
X135669273Y-91886578D01*
X135651946Y-91903905D01*
X135638333Y-91924280D01*
X135628956Y-91946919D01*
X135624177Y-91970953D01*
X135624177Y-91995457D01*
X135628958Y-92019490D01*
X135638336Y-92042128D01*
X135651951Y-92062502D01*
X135669278Y-92079829D01*
X135689653Y-92093442D01*
X135712292Y-92102819D01*
X135748574Y-92108200D01*
X135750600Y-92108200D01*
X135750600Y-93710200D01*
X134948600Y-93710200D01*
X134948600Y-92108200D01*
X134995426Y-92108200D01*
X135019812Y-92105798D01*
X135043261Y-92098685D01*
X135064872Y-92087134D01*
X135083814Y-92071589D01*
X135099359Y-92052647D01*
X135110910Y-92031036D01*
X135118023Y-92007587D01*
X135120425Y-91983201D01*
X135118023Y-91958815D01*
X135110910Y-91935366D01*
X135099359Y-91913755D01*
X135083814Y-91894813D01*
X135054353Y-91872963D01*
X135050446Y-91870874D01*
X135033792Y-91857208D01*
X135020124Y-91840553D01*
X135009971Y-91821557D01*
X135003716Y-91800938D01*
X135001000Y-91773360D01*
X135001000Y-91314640D01*
X135003716Y-91287062D01*
X135009971Y-91266443D01*
X135020124Y-91247447D01*
X135033792Y-91230792D01*
X135050447Y-91217124D01*
X135069443Y-91206971D01*
X135090062Y-91200716D01*
X135117640Y-91198000D01*
X135626360Y-91198000D01*
X135653938Y-91200716D01*
G37*
G36*
X134550600Y-93710200D02*
G01*
X133748600Y-93710200D01*
X133748600Y-92108200D01*
X134550600Y-92108200D01*
X134550600Y-93710200D01*
G37*
G36*
X133350600Y-93710200D02*
G01*
X132548600Y-93710200D01*
X132548600Y-92108200D01*
X133350600Y-92108200D01*
X133350600Y-93710200D01*
G37*
G36*
X137764938Y-91198716D02*
G01*
X137785557Y-91204971D01*
X137804553Y-91215124D01*
X137821208Y-91228792D01*
X137834876Y-91245447D01*
X137845029Y-91264443D01*
X137851284Y-91285062D01*
X137854000Y-91312640D01*
X137854000Y-91821360D01*
X137851284Y-91848938D01*
X137845029Y-91869557D01*
X137834876Y-91888553D01*
X137821208Y-91905208D01*
X137804553Y-91918876D01*
X137785557Y-91929029D01*
X137764938Y-91935284D01*
X137737360Y-91938000D01*
X137278640Y-91938000D01*
X137251062Y-91935284D01*
X137230443Y-91929029D01*
X137211447Y-91918876D01*
X137194792Y-91905208D01*
X137181124Y-91888553D01*
X137170971Y-91869557D01*
X137164716Y-91848938D01*
X137162000Y-91821360D01*
X137162000Y-91312640D01*
X137164716Y-91285062D01*
X137170971Y-91264443D01*
X137181124Y-91245447D01*
X137194792Y-91228792D01*
X137211447Y-91215124D01*
X137230443Y-91204971D01*
X137251062Y-91198716D01*
X137278640Y-91196000D01*
X137737360Y-91196000D01*
X137764938Y-91198716D01*
G37*
G36*
X136794938Y-91198716D02*
G01*
X136815557Y-91204971D01*
X136834553Y-91215124D01*
X136851208Y-91228792D01*
X136864876Y-91245447D01*
X136875029Y-91264443D01*
X136881284Y-91285062D01*
X136884000Y-91312640D01*
X136884000Y-91821360D01*
X136881284Y-91848938D01*
X136875029Y-91869557D01*
X136864876Y-91888553D01*
X136851208Y-91905208D01*
X136834553Y-91918876D01*
X136815557Y-91929029D01*
X136794938Y-91935284D01*
X136767360Y-91938000D01*
X136308640Y-91938000D01*
X136281062Y-91935284D01*
X136260443Y-91929029D01*
X136241447Y-91918876D01*
X136224792Y-91905208D01*
X136211124Y-91888553D01*
X136200971Y-91869557D01*
X136194716Y-91848938D01*
X136192000Y-91821360D01*
X136192000Y-91312640D01*
X136194716Y-91285062D01*
X136200971Y-91264443D01*
X136211124Y-91245447D01*
X136224792Y-91228792D01*
X136241447Y-91215124D01*
X136260443Y-91204971D01*
X136281062Y-91198716D01*
X136308640Y-91196000D01*
X136767360Y-91196000D01*
X136794938Y-91198716D01*
G37*
G36*
X137764938Y-90182716D02*
G01*
X137785557Y-90188971D01*
X137804553Y-90199124D01*
X137821208Y-90212792D01*
X137834876Y-90229447D01*
X137845029Y-90248443D01*
X137851284Y-90269062D01*
X137854000Y-90296640D01*
X137854000Y-90805360D01*
X137851284Y-90832938D01*
X137845029Y-90853557D01*
X137834876Y-90872553D01*
X137821208Y-90889208D01*
X137804553Y-90902876D01*
X137785557Y-90913029D01*
X137764938Y-90919284D01*
X137737360Y-90922000D01*
X137278640Y-90922000D01*
X137251062Y-90919284D01*
X137230443Y-90913029D01*
X137211447Y-90902876D01*
X137194792Y-90889208D01*
X137181124Y-90872553D01*
X137170971Y-90853557D01*
X137164716Y-90832938D01*
X137162000Y-90805360D01*
X137162000Y-90296640D01*
X137164716Y-90269062D01*
X137170971Y-90248443D01*
X137181124Y-90229447D01*
X137194792Y-90212792D01*
X137211447Y-90199124D01*
X137230443Y-90188971D01*
X137251062Y-90182716D01*
X137278640Y-90180000D01*
X137737360Y-90180000D01*
X137764938Y-90182716D01*
G37*
G36*
X136794938Y-90182716D02*
G01*
X136815557Y-90188971D01*
X136834553Y-90199124D01*
X136851208Y-90212792D01*
X136864876Y-90229447D01*
X136875029Y-90248443D01*
X136881284Y-90269062D01*
X136884000Y-90296640D01*
X136884000Y-90805360D01*
X136881284Y-90832938D01*
X136875029Y-90853557D01*
X136864876Y-90872553D01*
X136851208Y-90889208D01*
X136834553Y-90902876D01*
X136815557Y-90913029D01*
X136794938Y-90919284D01*
X136767360Y-90922000D01*
X136308640Y-90922000D01*
X136281062Y-90919284D01*
X136260443Y-90913029D01*
X136241447Y-90902876D01*
X136224792Y-90889208D01*
X136211124Y-90872553D01*
X136200971Y-90853557D01*
X136194716Y-90832938D01*
X136192000Y-90805360D01*
X136192000Y-90296640D01*
X136194716Y-90269062D01*
X136200971Y-90248443D01*
X136211124Y-90229447D01*
X136224792Y-90212792D01*
X136241447Y-90199124D01*
X136260443Y-90188971D01*
X136281062Y-90182716D01*
X136308640Y-90180000D01*
X136767360Y-90180000D01*
X136794938Y-90182716D01*
G37*
G36*
X135653938Y-90230716D02*
G01*
X135674557Y-90236971D01*
X135693553Y-90247124D01*
X135710208Y-90260792D01*
X135723876Y-90277447D01*
X135734029Y-90296443D01*
X135740284Y-90317062D01*
X135743000Y-90344640D01*
X135743000Y-90803360D01*
X135740284Y-90830938D01*
X135734029Y-90851557D01*
X135723876Y-90870553D01*
X135710208Y-90887208D01*
X135693553Y-90900876D01*
X135674557Y-90911029D01*
X135653938Y-90917284D01*
X135626360Y-90920000D01*
X135117640Y-90920000D01*
X135090062Y-90917284D01*
X135069443Y-90911029D01*
X135050447Y-90900876D01*
X135033792Y-90887208D01*
X135020124Y-90870553D01*
X135009971Y-90851557D01*
X135003716Y-90830938D01*
X135001000Y-90803360D01*
X135001000Y-90344640D01*
X135003716Y-90317062D01*
X135009971Y-90296443D01*
X135020124Y-90277447D01*
X135033792Y-90260792D01*
X135050447Y-90247124D01*
X135069443Y-90236971D01*
X135090062Y-90230716D01*
X135117640Y-90228000D01*
X135626360Y-90228000D01*
X135653938Y-90230716D01*
G37*
M02*
