G04 #@! TF.GenerationSoftware,KiCad,Pcbnew,(5.1.4)-1*
G04 #@! TF.CreationDate,2020-05-08T13:54:39-05:00*
G04 #@! TF.ProjectId,RN4871Board,524e3438-3731-4426-9f61-72642e6b6963,rev?*
G04 #@! TF.SameCoordinates,Original*
G04 #@! TF.FileFunction,Legend,Top*
G04 #@! TF.FilePolarity,Positive*
%FSLAX46Y46*%
G04 Gerber Fmt 4.6, Leading zero omitted, Abs format (unit mm)*
G04 Created by KiCad (PCBNEW (5.1.4)-1) date 2020-05-08 13:54:39*
%MOMM*%
%LPD*%
G04 APERTURE LIST*
%ADD10C,0.150000*%
%ADD11C,0.200000*%
%ADD12C,0.127000*%
%ADD13C,0.120000*%
%ADD14C,0.015000*%
G04 APERTURE END LIST*
D10*
X124013933Y-104744780D02*
X123680600Y-104268590D01*
X123442504Y-104744780D02*
X123442504Y-103744780D01*
X123823457Y-103744780D01*
X123918695Y-103792400D01*
X123966314Y-103840019D01*
X124013933Y-103935257D01*
X124013933Y-104078114D01*
X123966314Y-104173352D01*
X123918695Y-104220971D01*
X123823457Y-104268590D01*
X123442504Y-104268590D01*
X124347266Y-103744780D02*
X125013933Y-104744780D01*
X125013933Y-103744780D02*
X124347266Y-104744780D01*
X127076295Y-103770180D02*
X127647723Y-103770180D01*
X127362009Y-104770180D02*
X127362009Y-103770180D01*
X127885819Y-103770180D02*
X128552485Y-104770180D01*
X128552485Y-103770180D02*
X127885819Y-104770180D01*
X130835495Y-103868600D02*
X130740257Y-103820980D01*
X130597400Y-103820980D01*
X130454542Y-103868600D01*
X130359304Y-103963838D01*
X130311685Y-104059076D01*
X130264066Y-104249552D01*
X130264066Y-104392409D01*
X130311685Y-104582885D01*
X130359304Y-104678123D01*
X130454542Y-104773361D01*
X130597400Y-104820980D01*
X130692638Y-104820980D01*
X130835495Y-104773361D01*
X130883114Y-104725742D01*
X130883114Y-104392409D01*
X130692638Y-104392409D01*
X131311685Y-104820980D02*
X131311685Y-103820980D01*
X131883114Y-104820980D01*
X131883114Y-103820980D01*
X132359304Y-104820980D02*
X132359304Y-103820980D01*
X132597400Y-103820980D01*
X132740257Y-103868600D01*
X132835495Y-103963838D01*
X132883114Y-104059076D01*
X132930733Y-104249552D01*
X132930733Y-104392409D01*
X132883114Y-104582885D01*
X132835495Y-104678123D01*
X132740257Y-104773361D01*
X132597400Y-104820980D01*
X132359304Y-104820980D01*
X134023266Y-103770180D02*
X134356600Y-104770180D01*
X134689933Y-103770180D01*
X135594695Y-104674942D02*
X135547076Y-104722561D01*
X135404219Y-104770180D01*
X135308980Y-104770180D01*
X135166123Y-104722561D01*
X135070885Y-104627323D01*
X135023266Y-104532085D01*
X134975647Y-104341609D01*
X134975647Y-104198752D01*
X135023266Y-104008276D01*
X135070885Y-103913038D01*
X135166123Y-103817800D01*
X135308980Y-103770180D01*
X135404219Y-103770180D01*
X135547076Y-103817800D01*
X135594695Y-103865419D01*
X136594695Y-104674942D02*
X136547076Y-104722561D01*
X136404219Y-104770180D01*
X136308980Y-104770180D01*
X136166123Y-104722561D01*
X136070885Y-104627323D01*
X136023266Y-104532085D01*
X135975647Y-104341609D01*
X135975647Y-104198752D01*
X136023266Y-104008276D01*
X136070885Y-103913038D01*
X136166123Y-103817800D01*
X136308980Y-103770180D01*
X136404219Y-103770180D01*
X136547076Y-103817800D01*
X136594695Y-103865419D01*
D11*
X122194601Y-90192001D02*
G75*
G03X122194601Y-90192001I-100000J0D01*
G01*
D12*
X123194601Y-89492001D02*
X123194601Y-89692001D01*
X132194601Y-89492001D02*
X123194601Y-89492001D01*
X132194601Y-89692001D02*
X132194601Y-89492001D01*
X132194601Y-96992001D02*
X132194601Y-95692001D01*
X131344601Y-96992001D02*
X132194601Y-96992001D01*
X123194601Y-96992001D02*
X124094601Y-96992001D01*
X123194601Y-95692001D02*
X123194601Y-96992001D01*
D13*
X130588867Y-100734400D02*
X130246333Y-100734400D01*
X130588867Y-101754400D02*
X130246333Y-101754400D01*
X135405400Y-93300733D02*
X135405400Y-93643267D01*
X136425400Y-93300733D02*
X136425400Y-93643267D01*
X138190800Y-98743000D02*
X138190800Y-98899000D01*
X138190800Y-96427000D02*
X138190800Y-96583000D01*
X140791930Y-98742837D02*
G75*
G02X138709839Y-98743000I-1041130J1079837D01*
G01*
X140791930Y-96583163D02*
G75*
G03X138709839Y-96583000I-1041130J-1079837D01*
G01*
X141423135Y-98741608D02*
G75*
G02X138190800Y-98898516I-1672335J1078608D01*
G01*
X141423135Y-96584392D02*
G75*
G03X138190800Y-96427484I-1672335J-1078608D01*
G01*
X130292800Y-105375400D02*
X131622800Y-105375400D01*
X130292800Y-106705400D02*
X130292800Y-105375400D01*
X130292800Y-107975400D02*
X132952800Y-107975400D01*
X132952800Y-107975400D02*
X132952800Y-108035400D01*
X130292800Y-107975400D02*
X130292800Y-108035400D01*
X130292800Y-108035400D02*
X132952800Y-108035400D01*
X123104600Y-105375400D02*
X124434600Y-105375400D01*
X123104600Y-106705400D02*
X123104600Y-105375400D01*
X123104600Y-107975400D02*
X125764600Y-107975400D01*
X125764600Y-107975400D02*
X125764600Y-108035400D01*
X123104600Y-107975400D02*
X123104600Y-108035400D01*
X123104600Y-108035400D02*
X125764600Y-108035400D01*
X126711400Y-105375400D02*
X128041400Y-105375400D01*
X126711400Y-106705400D02*
X126711400Y-105375400D01*
X126711400Y-107975400D02*
X129371400Y-107975400D01*
X129371400Y-107975400D02*
X129371400Y-108035400D01*
X126711400Y-107975400D02*
X126711400Y-108035400D01*
X126711400Y-108035400D02*
X129371400Y-108035400D01*
X133874200Y-105375400D02*
X135204200Y-105375400D01*
X133874200Y-106705400D02*
X133874200Y-105375400D01*
X133874200Y-107975400D02*
X136534200Y-107975400D01*
X136534200Y-107975400D02*
X136534200Y-108035400D01*
X133874200Y-107975400D02*
X133874200Y-108035400D01*
X133874200Y-108035400D02*
X136534200Y-108035400D01*
X134880533Y-98249200D02*
X135223067Y-98249200D01*
X134880533Y-97229200D02*
X135223067Y-97229200D01*
X133953067Y-100734400D02*
X133610533Y-100734400D01*
X133953067Y-101754400D02*
X133610533Y-101754400D01*
D14*
X125607696Y-83709381D02*
X125607696Y-84518905D01*
X125655315Y-84614143D01*
X125702934Y-84661762D01*
X125798172Y-84709381D01*
X125988648Y-84709381D01*
X126083886Y-84661762D01*
X126131505Y-84614143D01*
X126179124Y-84518905D01*
X126179124Y-83709381D01*
X127179124Y-84709381D02*
X126607696Y-84709381D01*
X126893410Y-84709381D02*
X126893410Y-83709381D01*
X126798172Y-83852239D01*
X126702934Y-83947477D01*
X126607696Y-83995096D01*
D10*
X130250933Y-103031542D02*
X130203314Y-103079161D01*
X130060457Y-103126780D01*
X129965219Y-103126780D01*
X129822361Y-103079161D01*
X129727123Y-102983923D01*
X129679504Y-102888685D01*
X129631885Y-102698209D01*
X129631885Y-102555352D01*
X129679504Y-102364876D01*
X129727123Y-102269638D01*
X129822361Y-102174400D01*
X129965219Y-102126780D01*
X130060457Y-102126780D01*
X130203314Y-102174400D01*
X130250933Y-102222019D01*
X131203314Y-103126780D02*
X130631885Y-103126780D01*
X130917600Y-103126780D02*
X130917600Y-102126780D01*
X130822361Y-102269638D01*
X130727123Y-102364876D01*
X130631885Y-102412495D01*
X137702542Y-93638666D02*
X137750161Y-93686285D01*
X137797780Y-93829142D01*
X137797780Y-93924380D01*
X137750161Y-94067238D01*
X137654923Y-94162476D01*
X137559685Y-94210095D01*
X137369209Y-94257714D01*
X137226352Y-94257714D01*
X137035876Y-94210095D01*
X136940638Y-94162476D01*
X136845400Y-94067238D01*
X136797780Y-93924380D01*
X136797780Y-93829142D01*
X136845400Y-93686285D01*
X136893019Y-93638666D01*
X136893019Y-93257714D02*
X136845400Y-93210095D01*
X136797780Y-93114857D01*
X136797780Y-92876761D01*
X136845400Y-92781523D01*
X136893019Y-92733904D01*
X136988257Y-92686285D01*
X137083495Y-92686285D01*
X137226352Y-92733904D01*
X137797780Y-93305333D01*
X137797780Y-92686285D01*
X139012704Y-95155380D02*
X139012704Y-94155380D01*
X139250800Y-94155380D01*
X139393657Y-94203000D01*
X139488895Y-94298238D01*
X139536514Y-94393476D01*
X139584133Y-94583952D01*
X139584133Y-94726809D01*
X139536514Y-94917285D01*
X139488895Y-95012523D01*
X139393657Y-95107761D01*
X139250800Y-95155380D01*
X139012704Y-95155380D01*
X140536514Y-95155380D02*
X139965085Y-95155380D01*
X140250800Y-95155380D02*
X140250800Y-94155380D01*
X140155561Y-94298238D01*
X140060323Y-94393476D01*
X139965085Y-94441095D01*
X134885133Y-96761580D02*
X134551800Y-96285390D01*
X134313704Y-96761580D02*
X134313704Y-95761580D01*
X134694657Y-95761580D01*
X134789895Y-95809200D01*
X134837514Y-95856819D01*
X134885133Y-95952057D01*
X134885133Y-96094914D01*
X134837514Y-96190152D01*
X134789895Y-96237771D01*
X134694657Y-96285390D01*
X134313704Y-96285390D01*
X135837514Y-96761580D02*
X135266085Y-96761580D01*
X135551800Y-96761580D02*
X135551800Y-95761580D01*
X135456561Y-95904438D01*
X135361323Y-95999676D01*
X135266085Y-96047295D01*
X133615133Y-103126780D02*
X133281800Y-102650590D01*
X133043704Y-103126780D02*
X133043704Y-102126780D01*
X133424657Y-102126780D01*
X133519895Y-102174400D01*
X133567514Y-102222019D01*
X133615133Y-102317257D01*
X133615133Y-102460114D01*
X133567514Y-102555352D01*
X133519895Y-102602971D01*
X133424657Y-102650590D01*
X133043704Y-102650590D01*
X133996085Y-102222019D02*
X134043704Y-102174400D01*
X134138942Y-102126780D01*
X134377038Y-102126780D01*
X134472276Y-102174400D01*
X134519895Y-102222019D01*
X134567514Y-102317257D01*
X134567514Y-102412495D01*
X134519895Y-102555352D01*
X133948466Y-103126780D01*
X134567514Y-103126780D01*
M02*
