  0
SECTION
  2
HEADER
  9
$ACADVER
  1
AC1009
  9
$INSBASE
 10
0.0
 20
0.0
 30
0.0
  9
$EXTMIN
 10
0.0
 20
0.0
 30
0.0
  9
$EXTMAX
 10
0.0
 20
0.0
 30
0.0
  0
ENDSEC
  0
SECTION
  2
TABLES
  0
TABLE
  2
VPORT
 70
0
  0
ENDTAB
  0
TABLE
  2
LTYPE
 70
1
  0
LTYPE
  2
CONTINUOUS
 70
0
  3
Solid line
 72
65
 73
0
 40
0.0
  0
ENDTAB
  0
TABLE
  2
LAYER
 70
1
  0
LAYER
  2
0
 70
64
 62
7
  6
continuous
  0
ENDTAB
  0
TABLE
  2
STYLE
 70
1
  0
STYLE
  2
STANDARD
 70
0
 40
0
 41
1.0
 50
0.0
 71
0
 42
1
 3
ARIAL.TTF
 4

  0
ENDTAB
  0
TABLE
  2
VIEW
 70
0
  0
ENDTAB
  0
ENDSEC
  0
SECTION
  2
BLOCKS
  0
BLOCK
  8
2D
  2
SHAPE2DVIEW006
 70
0
 10
0.0
 20
0.0
 30
0.0
  3
SHAPE2DVIEW006
  0
LINE
  8
2D
 62
0
 10
42.27
 20
74.0
 30
0.0
 11
23.270000000000003
 21
74.0
 31
0.0
  0
LINE
  8
2D
 62
0
 10
23.270000000000003
 20
74.0
 30
0.0
 11
23.270000000000003
 21
70.99433941738909
 31
0.0
  0
LINE
  8
2D
 62
0
 10
23.270000000000003
 20
70.99433941738909
 30
0.0
 11
13.270000000000005
 21
70.99433941738909
 31
0.0
  0
LINE
  8
2D
 62
0
 10
13.270000000000005
 20
70.99433941738909
 30
0.0
 11
13.270000000000005
 21
74.0
 31
0.0
  0
LINE
  8
2D
 62
0
 10
13.270000000000005
 20
74.0
 30
0.0
 11
3.270000000000005
 21
74.0
 31
0.0
  0
LINE
  8
2D
 62
0
 10
3.270000000000005
 20
74.0
 30
0.0
 11
3.270000000000005
 21
70.99433941738909
 31
0.0
  0
LINE
  8
2D
 62
0
 10
3.270000000000005
 20
70.99433941738909
 30
0.0
 11
-6.729999999999995
 21
70.99433941738909
 31
0.0
  0
LINE
  8
2D
 62
0
 10
-6.729999999999994
 20
70.99433941738909
 30
0.0
 11
-6.729999999999994
 21
74.0
 31
0.0
  0
LINE
  8
2D
 62
0
 10
-6.729999999999994
 20
74.0
 30
0.0
 11
-25.72999999999999
 21
74.0
 31
0.0
  0
LINE
  8
2D
 62
0
 10
-25.72999999999999
 20
74.0
 30
0.0
 11
-25.72999999999999
 21
70.99433941738909
 31
0.0
  0
LINE
  8
2D
 62
0
 10
-25.72999999999999
 20
70.99433941738909
 30
0.0
 11
-35.72999999999999
 21
70.99433941738909
 31
0.0
  0
LINE
  8
2D
 62
0
 10
-35.72999999999999
 20
70.99433941738909
 30
0.0
 11
-35.72999999999999
 21
74.0
 31
0.0
  0
LINE
  8
2D
 62
0
 10
-35.72999999999999
 20
74.0
 30
0.0
 11
-45.72999999999999
 21
74.0
 31
0.0
  0
LINE
  8
2D
 62
0
 10
-45.72999999999999
 20
74.0
 30
0.0
 11
-45.72999999999999
 21
70.99433941738909
 31
0.0
  0
LINE
  8
2D
 62
0
 10
-45.72999999999999
 20
70.99433941738909
 30
0.0
 11
-55.72999999999999
 21
70.99433941738909
 31
0.0
  0
LINE
  8
2D
 62
0
 10
-55.72999999999999
 20
70.99433941738909
 30
0.0
 11
-55.72999999999999
 21
74.0
 31
0.0
  0
LINE
  8
2D
 62
0
 10
-55.72999999999999
 20
74.0
 30
0.0
 11
-74.72999999999999
 21
74.0
 31
0.0
  0
LINE
  8
2D
 62
0
 10
-74.72999999999999
 20
74.0
 30
0.0
 11
-74.72999999999999
 21
-19.0
 31
0.0
  0
LINE
  8
2D
 62
0
 10
-74.72999999999999
 20
-19.0
 30
0.0
 11
-55.72999999999999
 21
-19.0
 31
0.0
  0
LINE
  8
2D
 62
0
 10
-55.72999999999999
 20
-19.0
 30
0.0
 11
-55.72999999999999
 21
-16.0
 31
0.0
  0
LINE
  8
2D
 62
0
 10
-55.72999999999999
 20
-16.0
 30
0.0
 11
-45.72999999999999
 21
-16.0
 31
0.0
  0
LINE
  8
2D
 62
0
 10
-45.72999999999999
 20
-16.0
 30
0.0
 11
-45.72999999999999
 21
-19.0
 31
0.0
  0
LINE
  8
2D
 62
0
 10
-45.72999999999999
 20
-19.0
 30
0.0
 11
-35.72999999999999
 21
-19.0
 31
0.0
  0
LINE
  8
2D
 62
0
 10
-35.72999999999999
 20
-19.0
 30
0.0
 11
-35.72999999999999
 21
-16.0
 31
0.0
  0
LINE
  8
2D
 62
0
 10
-35.72999999999999
 20
-16.0
 30
0.0
 11
-25.72999999999999
 21
-16.0
 31
0.0
  0
LINE
  8
2D
 62
0
 10
-25.72999999999999
 20
-16.0
 30
0.0
 11
-25.72999999999999
 21
-19.0
 31
0.0
  0
LINE
  8
2D
 62
0
 10
-25.72999999999999
 20
-19.0
 30
0.0
 11
-6.729999999999993
 21
-19.0
 31
0.0
  0
LINE
  8
2D
 62
0
 10
-6.729999999999994
 20
-19.0
 30
0.0
 11
-6.729999999999994
 21
-16.0
 31
0.0
  0
LINE
  8
2D
 62
0
 10
-6.729999999999994
 20
-16.0
 30
0.0
 11
3.270000000000006
 21
-16.0
 31
0.0
  0
LINE
  8
2D
 62
0
 10
3.270000000000005
 20
-16.0
 30
0.0
 11
3.270000000000005
 21
-19.0
 31
0.0
  0
LINE
  8
2D
 62
0
 10
3.270000000000005
 20
-19.0
 30
0.0
 11
13.270000000000005
 21
-19.0
 31
0.0
  0
LINE
  8
2D
 62
0
 10
13.270000000000005
 20
-19.0
 30
0.0
 11
13.270000000000005
 21
-16.0
 31
0.0
  0
LINE
  8
2D
 62
0
 10
13.270000000000005
 20
-16.0
 30
0.0
 11
23.270000000000003
 21
-16.0
 31
0.0
  0
LINE
  8
2D
 62
0
 10
23.270000000000003
 20
-16.0
 30
0.0
 11
23.270000000000003
 21
-19.0
 31
0.0
  0
LINE
  8
2D
 62
0
 10
23.270000000000003
 20
-19.0
 30
0.0
 11
42.27
 21
-19.0
 31
0.0
  0
LINE
  8
2D
 62
0
 10
42.27
 20
-19.0
 30
0.0
 11
42.27
 21
74.0
 31
0.0
  0
LINE
  8
2D
 62
0
 10
-46.72999999999999
 20
14.051749000000001
 30
0.0
 11
-59.72999999999999
 21
14.051749000000001
 31
0.0
  0
LINE
  8
2D
 62
0
 10
-59.72999999999999
 20
14.051749000000001
 30
0.0
 11
-59.72999999999999
 21
40.825508
 31
0.0
  0
LINE
  8
2D
 62
0
 10
-59.72999999999999
 20
40.825508
 30
0.0
 11
-46.72999999999999
 21
40.825508
 31
0.0
  0
LINE
  8
2D
 62
0
 10
-46.72999999999999
 20
40.825508
 30
0.0
 11
-46.72999999999999
 21
14.051749000000001
 31
0.0
  0
LINE
  8
2D
 62
0
 10
12.769382207708215
 20
3.0
 30
0.0
 11
12.769382207708215
 21
-4.0
 31
0.0
  0
LINE
  8
2D
 62
0
 10
5.769382207708215
 20
-4.0
 30
0.0
 11
12.769382207708215
 21
-4.0
 31
0.0
  0
LINE
  8
2D
 62
0
 10
5.769382207708215
 20
3.0
 30
0.0
 11
5.769382207708215
 21
-4.0
 31
0.0
  0
LINE
  8
2D
 62
0
 10
12.769382207708215
 20
3.0
 30
0.0
 11
5.769382207708215
 21
3.0
 31
0.0
  0
ENDBLK
  0
ENDSEC
  0
SECTION
  2
ENTITIES
  0
INSERT
  2
SHAPE2DVIEW006
  8
2D
 62
0
 10
0.0
 20
0.0
 30
0.0
  0
ENDSEC
  0
EOF
