G04 #@! TF.GenerationSoftware,KiCad,Pcbnew,(5.1.4)-1*
G04 #@! TF.CreationDate,2020-01-10T19:08:40-06:00*
G04 #@! TF.ProjectId,EncoderBoard,456e636f-6465-4724-926f-6172642e6b69,v1.0*
G04 #@! TF.SameCoordinates,Original*
G04 #@! TF.FileFunction,Soldermask,Bot*
G04 #@! TF.FilePolarity,Negative*
%FSLAX46Y46*%
G04 Gerber Fmt 4.6, Leading zero omitted, Abs format (unit mm)*
G04 Created by KiCad (PCBNEW (5.1.4)-1) date 2020-01-10 19:08:40*
%MOMM*%
%LPD*%
G04 APERTURE LIST*
%ADD10C,0.100000*%
G04 APERTURE END LIST*
D10*
G36*
X136202579Y-143706093D02*
G01*
X136336225Y-143746634D01*
X136459384Y-143812464D01*
X136567340Y-143901060D01*
X136655936Y-144009016D01*
X136721766Y-144132175D01*
X136762307Y-144265821D01*
X136776600Y-144410940D01*
X136776600Y-146074660D01*
X136762307Y-146219779D01*
X136721766Y-146353425D01*
X136655936Y-146476584D01*
X136567340Y-146584540D01*
X136459384Y-146673136D01*
X136336225Y-146738966D01*
X136202579Y-146779507D01*
X136057460Y-146793800D01*
X133893740Y-146793800D01*
X133748621Y-146779507D01*
X133614975Y-146738966D01*
X133491816Y-146673136D01*
X133383860Y-146584540D01*
X133295264Y-146476584D01*
X133229434Y-146353425D01*
X133188893Y-146219779D01*
X133174600Y-146074660D01*
X133174600Y-144410940D01*
X133188893Y-144265821D01*
X133229434Y-144132175D01*
X133295264Y-144009016D01*
X133383860Y-143901060D01*
X133491816Y-143812464D01*
X133614975Y-143746634D01*
X133748621Y-143706093D01*
X133893740Y-143691800D01*
X136057460Y-143691800D01*
X136202579Y-143706093D01*
X136202579Y-143706093D01*
G37*
G36*
X140801966Y-140458495D02*
G01*
X140959060Y-140506149D01*
X141103831Y-140583531D01*
X141230728Y-140687672D01*
X141334869Y-140814569D01*
X141412251Y-140959340D01*
X141459905Y-141116434D01*
X141476600Y-141285940D01*
X141476600Y-143199660D01*
X141459905Y-143369166D01*
X141412251Y-143526260D01*
X141334869Y-143671031D01*
X141230728Y-143797928D01*
X141103831Y-143902069D01*
X140959060Y-143979451D01*
X140801966Y-144027105D01*
X140632460Y-144043800D01*
X138718740Y-144043800D01*
X138549234Y-144027105D01*
X138392140Y-143979451D01*
X138247369Y-143902069D01*
X138120472Y-143797928D01*
X138016331Y-143671031D01*
X137938949Y-143526260D01*
X137891295Y-143369166D01*
X137874600Y-143199660D01*
X137874600Y-141285940D01*
X137891295Y-141116434D01*
X137938949Y-140959340D01*
X138016331Y-140814569D01*
X138120472Y-140687672D01*
X138247369Y-140583531D01*
X138392140Y-140506149D01*
X138549234Y-140458495D01*
X138718740Y-140441800D01*
X140632460Y-140441800D01*
X140801966Y-140458495D01*
X140801966Y-140458495D01*
G37*
G36*
X129145600Y-141794800D02*
G01*
X127343600Y-141794800D01*
X127343600Y-139992800D01*
X129145600Y-139992800D01*
X129145600Y-141794800D01*
X129145600Y-141794800D01*
G37*
G36*
X136776600Y-141043800D02*
G01*
X133174600Y-141043800D01*
X133174600Y-137441800D01*
X136776600Y-137441800D01*
X136776600Y-141043800D01*
X136776600Y-141043800D01*
G37*
G36*
X117182200Y-132092000D02*
G01*
X115380200Y-132092000D01*
X115380200Y-130290000D01*
X117182200Y-130290000D01*
X117182200Y-132092000D01*
X117182200Y-132092000D01*
G37*
G36*
X108520800Y-132066600D02*
G01*
X106718800Y-132066600D01*
X106718800Y-130264600D01*
X108520800Y-130264600D01*
X108520800Y-132066600D01*
X108520800Y-132066600D01*
G37*
G36*
X120522600Y-128763000D02*
G01*
X118520600Y-128763000D01*
X118520600Y-126761000D01*
X120522600Y-126761000D01*
X120522600Y-128763000D01*
X120522600Y-128763000D01*
G37*
G36*
X122216885Y-126780234D02*
G01*
X122313581Y-126799468D01*
X122495751Y-126874926D01*
X122659700Y-126984473D01*
X122799127Y-127123900D01*
X122908674Y-127287849D01*
X122984132Y-127470019D01*
X123022600Y-127663410D01*
X123022600Y-127860590D01*
X122984132Y-128053981D01*
X122908674Y-128236151D01*
X122799127Y-128400100D01*
X122659700Y-128539527D01*
X122495751Y-128649074D01*
X122313581Y-128724532D01*
X122120191Y-128763000D01*
X121923009Y-128763000D01*
X121729619Y-128724532D01*
X121547449Y-128649074D01*
X121383500Y-128539527D01*
X121244073Y-128400100D01*
X121134526Y-128236151D01*
X121059068Y-128053981D01*
X121020600Y-127860590D01*
X121020600Y-127663410D01*
X121059068Y-127470019D01*
X121134526Y-127287849D01*
X121244073Y-127123900D01*
X121383500Y-126984473D01*
X121547449Y-126874926D01*
X121729619Y-126799468D01*
X121826315Y-126780234D01*
X121923009Y-126761000D01*
X122120191Y-126761000D01*
X122216885Y-126780234D01*
X122216885Y-126780234D01*
G37*
G36*
X124716885Y-126780234D02*
G01*
X124813581Y-126799468D01*
X124995751Y-126874926D01*
X125159700Y-126984473D01*
X125299127Y-127123900D01*
X125408674Y-127287849D01*
X125484132Y-127470019D01*
X125522600Y-127663410D01*
X125522600Y-127860590D01*
X125484132Y-128053981D01*
X125408674Y-128236151D01*
X125299127Y-128400100D01*
X125159700Y-128539527D01*
X124995751Y-128649074D01*
X124813581Y-128724532D01*
X124620191Y-128763000D01*
X124423009Y-128763000D01*
X124229619Y-128724532D01*
X124047449Y-128649074D01*
X123883500Y-128539527D01*
X123744073Y-128400100D01*
X123634526Y-128236151D01*
X123559068Y-128053981D01*
X123520600Y-127860590D01*
X123520600Y-127663410D01*
X123559068Y-127470019D01*
X123634526Y-127287849D01*
X123744073Y-127123900D01*
X123883500Y-126984473D01*
X124047449Y-126874926D01*
X124229619Y-126799468D01*
X124326315Y-126780234D01*
X124423009Y-126761000D01*
X124620191Y-126761000D01*
X124716885Y-126780234D01*
X124716885Y-126780234D01*
G37*
G36*
X138406747Y-115227463D02*
G01*
X138577815Y-115298322D01*
X138577817Y-115298323D01*
X138655318Y-115350108D01*
X138731774Y-115401194D01*
X138862706Y-115532126D01*
X138965578Y-115686085D01*
X139036437Y-115857153D01*
X139072560Y-116038757D01*
X139072560Y-116223923D01*
X139036437Y-116405527D01*
X138970838Y-116563897D01*
X138965577Y-116576597D01*
X138862705Y-116730555D01*
X138731775Y-116861485D01*
X138577817Y-116964357D01*
X138577816Y-116964358D01*
X138577815Y-116964358D01*
X138406747Y-117035217D01*
X138225143Y-117071340D01*
X138039977Y-117071340D01*
X137858373Y-117035217D01*
X137687305Y-116964358D01*
X137687304Y-116964358D01*
X137687303Y-116964357D01*
X137533345Y-116861485D01*
X137402415Y-116730555D01*
X137299543Y-116576597D01*
X137294282Y-116563897D01*
X137228683Y-116405527D01*
X137192560Y-116223923D01*
X137192560Y-116038757D01*
X137228683Y-115857153D01*
X137299542Y-115686085D01*
X137402414Y-115532126D01*
X137533346Y-115401194D01*
X137609802Y-115350108D01*
X137687303Y-115298323D01*
X137687305Y-115298322D01*
X137858373Y-115227463D01*
X138039977Y-115191340D01*
X138225143Y-115191340D01*
X138406747Y-115227463D01*
X138406747Y-115227463D01*
G37*
G36*
X131706747Y-115227463D02*
G01*
X131877815Y-115298322D01*
X131877817Y-115298323D01*
X131955318Y-115350108D01*
X132031774Y-115401194D01*
X132162706Y-115532126D01*
X132265578Y-115686085D01*
X132336437Y-115857153D01*
X132372560Y-116038757D01*
X132372560Y-116223923D01*
X132336437Y-116405527D01*
X132270838Y-116563897D01*
X132265577Y-116576597D01*
X132162705Y-116730555D01*
X132031775Y-116861485D01*
X131877817Y-116964357D01*
X131877816Y-116964358D01*
X131877815Y-116964358D01*
X131706747Y-117035217D01*
X131525143Y-117071340D01*
X131339977Y-117071340D01*
X131158373Y-117035217D01*
X130987305Y-116964358D01*
X130987304Y-116964358D01*
X130987303Y-116964357D01*
X130833345Y-116861485D01*
X130702415Y-116730555D01*
X130599543Y-116576597D01*
X130594282Y-116563897D01*
X130528683Y-116405527D01*
X130492560Y-116223923D01*
X130492560Y-116038757D01*
X130528683Y-115857153D01*
X130599542Y-115686085D01*
X130702414Y-115532126D01*
X130833346Y-115401194D01*
X130909802Y-115350108D01*
X130987303Y-115298323D01*
X130987305Y-115298322D01*
X131158373Y-115227463D01*
X131339977Y-115191340D01*
X131525143Y-115191340D01*
X131706747Y-115227463D01*
X131706747Y-115227463D01*
G37*
G36*
X127218047Y-115214763D02*
G01*
X127389115Y-115285622D01*
X127389117Y-115285623D01*
X127466618Y-115337408D01*
X127543074Y-115388494D01*
X127674006Y-115519426D01*
X127776878Y-115673385D01*
X127847737Y-115844453D01*
X127883860Y-116026057D01*
X127883860Y-116211223D01*
X127847737Y-116392827D01*
X127776878Y-116563895D01*
X127674006Y-116717854D01*
X127543074Y-116848786D01*
X127524067Y-116861486D01*
X127389117Y-116951657D01*
X127389116Y-116951658D01*
X127389115Y-116951658D01*
X127218047Y-117022517D01*
X127036443Y-117058640D01*
X126851277Y-117058640D01*
X126669673Y-117022517D01*
X126498605Y-116951658D01*
X126498604Y-116951658D01*
X126498603Y-116951657D01*
X126363653Y-116861486D01*
X126344646Y-116848786D01*
X126213714Y-116717854D01*
X126110842Y-116563895D01*
X126039983Y-116392827D01*
X126003860Y-116211223D01*
X126003860Y-116026057D01*
X126039983Y-115844453D01*
X126110842Y-115673385D01*
X126213714Y-115519426D01*
X126344646Y-115388494D01*
X126421102Y-115337408D01*
X126498603Y-115285623D01*
X126498605Y-115285622D01*
X126669673Y-115214763D01*
X126851277Y-115178640D01*
X127036443Y-115178640D01*
X127218047Y-115214763D01*
X127218047Y-115214763D01*
G37*
G36*
X120518047Y-115214763D02*
G01*
X120689115Y-115285622D01*
X120689117Y-115285623D01*
X120766618Y-115337408D01*
X120843074Y-115388494D01*
X120974006Y-115519426D01*
X121076878Y-115673385D01*
X121147737Y-115844453D01*
X121183860Y-116026057D01*
X121183860Y-116211223D01*
X121147737Y-116392827D01*
X121076878Y-116563895D01*
X120974006Y-116717854D01*
X120843074Y-116848786D01*
X120824067Y-116861486D01*
X120689117Y-116951657D01*
X120689116Y-116951658D01*
X120689115Y-116951658D01*
X120518047Y-117022517D01*
X120336443Y-117058640D01*
X120151277Y-117058640D01*
X119969673Y-117022517D01*
X119798605Y-116951658D01*
X119798604Y-116951658D01*
X119798603Y-116951657D01*
X119663653Y-116861486D01*
X119644646Y-116848786D01*
X119513714Y-116717854D01*
X119410842Y-116563895D01*
X119339983Y-116392827D01*
X119303860Y-116211223D01*
X119303860Y-116026057D01*
X119339983Y-115844453D01*
X119410842Y-115673385D01*
X119513714Y-115519426D01*
X119644646Y-115388494D01*
X119721102Y-115337408D01*
X119798603Y-115285623D01*
X119798605Y-115285622D01*
X119969673Y-115214763D01*
X120151277Y-115178640D01*
X120336443Y-115178640D01*
X120518047Y-115214763D01*
X120518047Y-115214763D01*
G37*
G36*
X138406747Y-112687463D02*
G01*
X138577815Y-112758322D01*
X138577817Y-112758323D01*
X138655318Y-112810108D01*
X138731774Y-112861194D01*
X138862706Y-112992126D01*
X138965578Y-113146085D01*
X139036437Y-113317153D01*
X139072560Y-113498757D01*
X139072560Y-113683923D01*
X139036437Y-113865527D01*
X138970838Y-114023897D01*
X138965577Y-114036597D01*
X138862705Y-114190555D01*
X138731775Y-114321485D01*
X138577817Y-114424357D01*
X138577816Y-114424358D01*
X138577815Y-114424358D01*
X138406747Y-114495217D01*
X138225143Y-114531340D01*
X138039977Y-114531340D01*
X137858373Y-114495217D01*
X137687305Y-114424358D01*
X137687304Y-114424358D01*
X137687303Y-114424357D01*
X137533345Y-114321485D01*
X137402415Y-114190555D01*
X137299543Y-114036597D01*
X137294282Y-114023897D01*
X137228683Y-113865527D01*
X137192560Y-113683923D01*
X137192560Y-113498757D01*
X137228683Y-113317153D01*
X137299542Y-113146085D01*
X137402414Y-112992126D01*
X137533346Y-112861194D01*
X137609802Y-112810108D01*
X137687303Y-112758323D01*
X137687305Y-112758322D01*
X137858373Y-112687463D01*
X138039977Y-112651340D01*
X138225143Y-112651340D01*
X138406747Y-112687463D01*
X138406747Y-112687463D01*
G37*
G36*
X131706747Y-112687463D02*
G01*
X131877815Y-112758322D01*
X131877817Y-112758323D01*
X131955318Y-112810108D01*
X132031774Y-112861194D01*
X132162706Y-112992126D01*
X132265578Y-113146085D01*
X132336437Y-113317153D01*
X132372560Y-113498757D01*
X132372560Y-113683923D01*
X132336437Y-113865527D01*
X132270838Y-114023897D01*
X132265577Y-114036597D01*
X132162705Y-114190555D01*
X132031775Y-114321485D01*
X131877817Y-114424357D01*
X131877816Y-114424358D01*
X131877815Y-114424358D01*
X131706747Y-114495217D01*
X131525143Y-114531340D01*
X131339977Y-114531340D01*
X131158373Y-114495217D01*
X130987305Y-114424358D01*
X130987304Y-114424358D01*
X130987303Y-114424357D01*
X130833345Y-114321485D01*
X130702415Y-114190555D01*
X130599543Y-114036597D01*
X130594282Y-114023897D01*
X130528683Y-113865527D01*
X130492560Y-113683923D01*
X130492560Y-113498757D01*
X130528683Y-113317153D01*
X130599542Y-113146085D01*
X130702414Y-112992126D01*
X130833346Y-112861194D01*
X130909802Y-112810108D01*
X130987303Y-112758323D01*
X130987305Y-112758322D01*
X131158373Y-112687463D01*
X131339977Y-112651340D01*
X131525143Y-112651340D01*
X131706747Y-112687463D01*
X131706747Y-112687463D01*
G37*
G36*
X120518047Y-112674763D02*
G01*
X120689115Y-112745622D01*
X120689117Y-112745623D01*
X120766618Y-112797408D01*
X120843074Y-112848494D01*
X120974006Y-112979426D01*
X121076878Y-113133385D01*
X121147737Y-113304453D01*
X121183860Y-113486057D01*
X121183860Y-113671223D01*
X121147737Y-113852827D01*
X121076878Y-114023895D01*
X120974006Y-114177854D01*
X120843074Y-114308786D01*
X120824067Y-114321486D01*
X120689117Y-114411657D01*
X120689116Y-114411658D01*
X120689115Y-114411658D01*
X120518047Y-114482517D01*
X120336443Y-114518640D01*
X120151277Y-114518640D01*
X119969673Y-114482517D01*
X119798605Y-114411658D01*
X119798604Y-114411658D01*
X119798603Y-114411657D01*
X119663653Y-114321486D01*
X119644646Y-114308786D01*
X119513714Y-114177854D01*
X119410842Y-114023895D01*
X119339983Y-113852827D01*
X119303860Y-113671223D01*
X119303860Y-113486057D01*
X119339983Y-113304453D01*
X119410842Y-113133385D01*
X119513714Y-112979426D01*
X119644646Y-112848494D01*
X119721102Y-112797408D01*
X119798603Y-112745623D01*
X119798605Y-112745622D01*
X119969673Y-112674763D01*
X120151277Y-112638640D01*
X120336443Y-112638640D01*
X120518047Y-112674763D01*
X120518047Y-112674763D01*
G37*
G36*
X127218047Y-112674763D02*
G01*
X127389115Y-112745622D01*
X127389117Y-112745623D01*
X127466618Y-112797408D01*
X127543074Y-112848494D01*
X127674006Y-112979426D01*
X127776878Y-113133385D01*
X127847737Y-113304453D01*
X127883860Y-113486057D01*
X127883860Y-113671223D01*
X127847737Y-113852827D01*
X127776878Y-114023895D01*
X127674006Y-114177854D01*
X127543074Y-114308786D01*
X127524067Y-114321486D01*
X127389117Y-114411657D01*
X127389116Y-114411658D01*
X127389115Y-114411658D01*
X127218047Y-114482517D01*
X127036443Y-114518640D01*
X126851277Y-114518640D01*
X126669673Y-114482517D01*
X126498605Y-114411658D01*
X126498604Y-114411658D01*
X126498603Y-114411657D01*
X126363653Y-114321486D01*
X126344646Y-114308786D01*
X126213714Y-114177854D01*
X126110842Y-114023895D01*
X126039983Y-113852827D01*
X126003860Y-113671223D01*
X126003860Y-113486057D01*
X126039983Y-113304453D01*
X126110842Y-113133385D01*
X126213714Y-112979426D01*
X126344646Y-112848494D01*
X126421102Y-112797408D01*
X126498603Y-112745623D01*
X126498605Y-112745622D01*
X126669673Y-112674763D01*
X126851277Y-112638640D01*
X127036443Y-112638640D01*
X127218047Y-112674763D01*
X127218047Y-112674763D01*
G37*
G36*
X110352802Y-104836021D02*
G01*
X110498574Y-104896402D01*
X110498576Y-104896403D01*
X110629768Y-104984062D01*
X110741338Y-105095632D01*
X110828997Y-105226824D01*
X110828998Y-105226826D01*
X110889379Y-105372598D01*
X110920160Y-105527347D01*
X110920160Y-105685133D01*
X110889379Y-105839882D01*
X110828998Y-105985654D01*
X110828997Y-105985656D01*
X110741338Y-106116848D01*
X110629768Y-106228418D01*
X110498576Y-106316077D01*
X110498575Y-106316078D01*
X110498574Y-106316078D01*
X110352802Y-106376459D01*
X110198053Y-106407240D01*
X110040267Y-106407240D01*
X109885518Y-106376459D01*
X109739746Y-106316078D01*
X109739745Y-106316078D01*
X109739744Y-106316077D01*
X109608552Y-106228418D01*
X109496982Y-106116848D01*
X109409323Y-105985656D01*
X109409322Y-105985654D01*
X109348941Y-105839882D01*
X109318160Y-105685133D01*
X109318160Y-105527347D01*
X109348941Y-105372598D01*
X109409322Y-105226826D01*
X109409323Y-105226824D01*
X109496982Y-105095632D01*
X109608552Y-104984062D01*
X109739744Y-104896403D01*
X109739746Y-104896402D01*
X109885518Y-104836021D01*
X110040267Y-104805240D01*
X110198053Y-104805240D01*
X110352802Y-104836021D01*
X110352802Y-104836021D01*
G37*
G36*
X135282240Y-105767440D02*
G01*
X133480240Y-105767440D01*
X133480240Y-103965440D01*
X135282240Y-103965440D01*
X135282240Y-105767440D01*
X135282240Y-105767440D01*
G37*
G36*
X134491683Y-101431959D02*
G01*
X134557867Y-101438477D01*
X134727706Y-101489997D01*
X134727708Y-101489998D01*
X134797382Y-101527240D01*
X134884231Y-101573662D01*
X134919969Y-101602992D01*
X135021426Y-101686254D01*
X135104688Y-101787711D01*
X135134018Y-101823449D01*
X135217683Y-101979974D01*
X135269203Y-102149813D01*
X135286599Y-102326440D01*
X135269203Y-102503067D01*
X135217683Y-102672906D01*
X135134018Y-102829431D01*
X135104688Y-102865169D01*
X135021426Y-102966626D01*
X134919969Y-103049888D01*
X134884231Y-103079218D01*
X134727706Y-103162883D01*
X134557867Y-103214403D01*
X134491683Y-103220921D01*
X134425500Y-103227440D01*
X134336980Y-103227440D01*
X134270798Y-103220922D01*
X134204613Y-103214403D01*
X134034774Y-103162883D01*
X133878249Y-103079218D01*
X133842511Y-103049888D01*
X133741054Y-102966626D01*
X133657792Y-102865169D01*
X133628462Y-102829431D01*
X133544797Y-102672906D01*
X133493277Y-102503067D01*
X133475881Y-102326440D01*
X133493277Y-102149813D01*
X133544797Y-101979974D01*
X133628462Y-101823449D01*
X133657792Y-101787711D01*
X133741054Y-101686254D01*
X133842511Y-101602992D01*
X133878249Y-101573662D01*
X133965098Y-101527240D01*
X134034772Y-101489998D01*
X134034774Y-101489997D01*
X134204613Y-101438477D01*
X134270797Y-101431959D01*
X134336980Y-101425440D01*
X134425500Y-101425440D01*
X134491683Y-101431959D01*
X134491683Y-101431959D01*
G37*
G36*
X110352802Y-99956021D02*
G01*
X110498574Y-100016402D01*
X110498576Y-100016403D01*
X110629768Y-100104062D01*
X110741338Y-100215632D01*
X110828997Y-100346824D01*
X110828998Y-100346826D01*
X110889379Y-100492598D01*
X110920160Y-100647347D01*
X110920160Y-100805133D01*
X110889379Y-100959882D01*
X110828998Y-101105654D01*
X110828997Y-101105656D01*
X110741338Y-101236848D01*
X110629768Y-101348418D01*
X110498576Y-101436077D01*
X110498575Y-101436078D01*
X110498574Y-101436078D01*
X110352802Y-101496459D01*
X110198053Y-101527240D01*
X110040267Y-101527240D01*
X109885518Y-101496459D01*
X109739746Y-101436078D01*
X109739745Y-101436078D01*
X109739744Y-101436077D01*
X109608552Y-101348418D01*
X109496982Y-101236848D01*
X109409323Y-101105656D01*
X109409322Y-101105654D01*
X109348941Y-100959882D01*
X109318160Y-100805133D01*
X109318160Y-100647347D01*
X109348941Y-100492598D01*
X109409322Y-100346826D01*
X109409323Y-100346824D01*
X109496982Y-100215632D01*
X109608552Y-100104062D01*
X109739744Y-100016403D01*
X109739746Y-100016402D01*
X109885518Y-99956021D01*
X110040267Y-99925240D01*
X110198053Y-99925240D01*
X110352802Y-99956021D01*
X110352802Y-99956021D01*
G37*
G36*
X134491683Y-98891959D02*
G01*
X134557867Y-98898477D01*
X134727706Y-98949997D01*
X134884231Y-99033662D01*
X134919969Y-99062992D01*
X135021426Y-99146254D01*
X135104688Y-99247711D01*
X135134018Y-99283449D01*
X135217683Y-99439974D01*
X135269203Y-99609813D01*
X135286599Y-99786440D01*
X135269203Y-99963067D01*
X135217683Y-100132906D01*
X135134018Y-100289431D01*
X135104688Y-100325169D01*
X135021426Y-100426626D01*
X134919969Y-100509888D01*
X134884231Y-100539218D01*
X134727706Y-100622883D01*
X134557867Y-100674403D01*
X134491682Y-100680922D01*
X134425500Y-100687440D01*
X134336980Y-100687440D01*
X134270798Y-100680922D01*
X134204613Y-100674403D01*
X134034774Y-100622883D01*
X133878249Y-100539218D01*
X133842511Y-100509888D01*
X133741054Y-100426626D01*
X133657792Y-100325169D01*
X133628462Y-100289431D01*
X133544797Y-100132906D01*
X133493277Y-99963067D01*
X133475881Y-99786440D01*
X133493277Y-99609813D01*
X133544797Y-99439974D01*
X133628462Y-99283449D01*
X133657792Y-99247711D01*
X133741054Y-99146254D01*
X133842511Y-99062992D01*
X133878249Y-99033662D01*
X134034774Y-98949997D01*
X134204613Y-98898477D01*
X134270797Y-98891959D01*
X134336980Y-98885440D01*
X134425500Y-98885440D01*
X134491683Y-98891959D01*
X134491683Y-98891959D01*
G37*
G36*
X134491682Y-96351958D02*
G01*
X134557867Y-96358477D01*
X134727706Y-96409997D01*
X134884231Y-96493662D01*
X134919969Y-96522992D01*
X135021426Y-96606254D01*
X135104688Y-96707711D01*
X135134018Y-96743449D01*
X135217683Y-96899974D01*
X135269203Y-97069813D01*
X135286599Y-97246440D01*
X135269203Y-97423067D01*
X135217683Y-97592906D01*
X135134018Y-97749431D01*
X135104688Y-97785169D01*
X135021426Y-97886626D01*
X134919969Y-97969888D01*
X134884231Y-97999218D01*
X134727706Y-98082883D01*
X134557867Y-98134403D01*
X134491682Y-98140922D01*
X134425500Y-98147440D01*
X134336980Y-98147440D01*
X134270798Y-98140922D01*
X134204613Y-98134403D01*
X134034774Y-98082883D01*
X133878249Y-97999218D01*
X133842511Y-97969888D01*
X133741054Y-97886626D01*
X133657792Y-97785169D01*
X133628462Y-97749431D01*
X133544797Y-97592906D01*
X133493277Y-97423067D01*
X133475881Y-97246440D01*
X133493277Y-97069813D01*
X133544797Y-96899974D01*
X133628462Y-96743449D01*
X133657792Y-96707711D01*
X133741054Y-96606254D01*
X133842511Y-96522992D01*
X133878249Y-96493662D01*
X134034774Y-96409997D01*
X134204613Y-96358477D01*
X134270797Y-96351959D01*
X134336980Y-96345440D01*
X134425500Y-96345440D01*
X134491682Y-96351958D01*
X134491682Y-96351958D01*
G37*
G36*
X111306562Y-94548558D02*
G01*
X111372747Y-94555077D01*
X111542586Y-94606597D01*
X111699111Y-94690262D01*
X111734849Y-94719592D01*
X111836306Y-94802854D01*
X111902132Y-94883065D01*
X111948898Y-94940049D01*
X112032563Y-95096574D01*
X112084083Y-95266413D01*
X112101479Y-95443040D01*
X112084083Y-95619667D01*
X112032563Y-95789506D01*
X111948898Y-95946031D01*
X111919568Y-95981769D01*
X111836306Y-96083226D01*
X111734849Y-96166488D01*
X111699111Y-96195818D01*
X111542586Y-96279483D01*
X111372747Y-96331003D01*
X111306562Y-96337522D01*
X111240380Y-96344040D01*
X111151860Y-96344040D01*
X111085677Y-96337521D01*
X111019493Y-96331003D01*
X110849654Y-96279483D01*
X110693129Y-96195818D01*
X110657391Y-96166488D01*
X110555934Y-96083226D01*
X110472672Y-95981769D01*
X110443342Y-95946031D01*
X110359677Y-95789506D01*
X110308157Y-95619667D01*
X110290761Y-95443040D01*
X110308157Y-95266413D01*
X110359677Y-95096574D01*
X110443342Y-94940049D01*
X110490108Y-94883065D01*
X110555934Y-94802854D01*
X110657391Y-94719592D01*
X110693129Y-94690262D01*
X110849654Y-94606597D01*
X111019493Y-94555077D01*
X111085678Y-94548558D01*
X111151860Y-94542040D01*
X111240380Y-94542040D01*
X111306562Y-94548558D01*
X111306562Y-94548558D01*
G37*
G36*
X134491682Y-93811958D02*
G01*
X134557867Y-93818477D01*
X134727706Y-93869997D01*
X134884231Y-93953662D01*
X134919969Y-93982992D01*
X135021426Y-94066254D01*
X135104688Y-94167711D01*
X135134018Y-94203449D01*
X135217683Y-94359974D01*
X135269203Y-94529813D01*
X135286599Y-94706440D01*
X135269203Y-94883067D01*
X135217683Y-95052906D01*
X135134018Y-95209431D01*
X135104688Y-95245169D01*
X135021426Y-95346626D01*
X134919969Y-95429888D01*
X134884231Y-95459218D01*
X134727706Y-95542883D01*
X134557867Y-95594403D01*
X134491683Y-95600921D01*
X134425500Y-95607440D01*
X134336980Y-95607440D01*
X134270797Y-95600921D01*
X134204613Y-95594403D01*
X134034774Y-95542883D01*
X133878249Y-95459218D01*
X133842511Y-95429888D01*
X133741054Y-95346626D01*
X133657792Y-95245169D01*
X133628462Y-95209431D01*
X133544797Y-95052906D01*
X133493277Y-94883067D01*
X133475881Y-94706440D01*
X133493277Y-94529813D01*
X133544797Y-94359974D01*
X133628462Y-94203449D01*
X133657792Y-94167711D01*
X133741054Y-94066254D01*
X133842511Y-93982992D01*
X133878249Y-93953662D01*
X134034774Y-93869997D01*
X134204613Y-93818477D01*
X134270798Y-93811958D01*
X134336980Y-93805440D01*
X134425500Y-93805440D01*
X134491682Y-93811958D01*
X134491682Y-93811958D01*
G37*
G36*
X111306563Y-92008559D02*
G01*
X111372747Y-92015077D01*
X111542586Y-92066597D01*
X111699111Y-92150262D01*
X111734849Y-92179592D01*
X111836306Y-92262854D01*
X111902132Y-92343065D01*
X111948898Y-92400049D01*
X112032563Y-92556574D01*
X112084083Y-92726413D01*
X112101479Y-92903040D01*
X112084083Y-93079667D01*
X112032563Y-93249506D01*
X111948898Y-93406031D01*
X111919568Y-93441769D01*
X111836306Y-93543226D01*
X111734849Y-93626488D01*
X111699111Y-93655818D01*
X111542586Y-93739483D01*
X111372747Y-93791003D01*
X111306562Y-93797522D01*
X111240380Y-93804040D01*
X111151860Y-93804040D01*
X111085678Y-93797522D01*
X111019493Y-93791003D01*
X110849654Y-93739483D01*
X110693129Y-93655818D01*
X110657391Y-93626488D01*
X110555934Y-93543226D01*
X110472672Y-93441769D01*
X110443342Y-93406031D01*
X110359677Y-93249506D01*
X110308157Y-93079667D01*
X110290761Y-92903040D01*
X110308157Y-92726413D01*
X110359677Y-92556574D01*
X110443342Y-92400049D01*
X110490108Y-92343065D01*
X110555934Y-92262854D01*
X110657391Y-92179592D01*
X110693129Y-92150262D01*
X110849654Y-92066597D01*
X111019493Y-92015077D01*
X111085677Y-92008559D01*
X111151860Y-92002040D01*
X111240380Y-92002040D01*
X111306563Y-92008559D01*
X111306563Y-92008559D01*
G37*
G36*
X134491683Y-91271959D02*
G01*
X134557867Y-91278477D01*
X134727706Y-91329997D01*
X134884231Y-91413662D01*
X134919969Y-91442992D01*
X135021426Y-91526254D01*
X135104688Y-91627711D01*
X135134018Y-91663449D01*
X135217683Y-91819974D01*
X135269203Y-91989813D01*
X135286599Y-92166440D01*
X135269203Y-92343067D01*
X135217683Y-92512906D01*
X135134018Y-92669431D01*
X135104688Y-92705169D01*
X135021426Y-92806626D01*
X134919969Y-92889888D01*
X134884231Y-92919218D01*
X134727706Y-93002883D01*
X134557867Y-93054403D01*
X134491682Y-93060922D01*
X134425500Y-93067440D01*
X134336980Y-93067440D01*
X134270798Y-93060922D01*
X134204613Y-93054403D01*
X134034774Y-93002883D01*
X133878249Y-92919218D01*
X133842511Y-92889888D01*
X133741054Y-92806626D01*
X133657792Y-92705169D01*
X133628462Y-92669431D01*
X133544797Y-92512906D01*
X133493277Y-92343067D01*
X133475881Y-92166440D01*
X133493277Y-91989813D01*
X133544797Y-91819974D01*
X133628462Y-91663449D01*
X133657792Y-91627711D01*
X133741054Y-91526254D01*
X133842511Y-91442992D01*
X133878249Y-91413662D01*
X134034774Y-91329997D01*
X134204613Y-91278477D01*
X134270797Y-91271959D01*
X134336980Y-91265440D01*
X134425500Y-91265440D01*
X134491683Y-91271959D01*
X134491683Y-91271959D01*
G37*
G36*
X111306563Y-89468559D02*
G01*
X111372747Y-89475077D01*
X111542586Y-89526597D01*
X111699111Y-89610262D01*
X111734849Y-89639592D01*
X111836306Y-89722854D01*
X111902132Y-89803065D01*
X111948898Y-89860049D01*
X112032563Y-90016574D01*
X112084083Y-90186413D01*
X112101479Y-90363040D01*
X112084083Y-90539667D01*
X112032563Y-90709506D01*
X111948898Y-90866031D01*
X111919568Y-90901769D01*
X111836306Y-91003226D01*
X111734849Y-91086488D01*
X111699111Y-91115818D01*
X111542586Y-91199483D01*
X111372747Y-91251003D01*
X111306563Y-91257521D01*
X111240380Y-91264040D01*
X111151860Y-91264040D01*
X111085677Y-91257521D01*
X111019493Y-91251003D01*
X110849654Y-91199483D01*
X110693129Y-91115818D01*
X110657391Y-91086488D01*
X110555934Y-91003226D01*
X110472672Y-90901769D01*
X110443342Y-90866031D01*
X110359677Y-90709506D01*
X110308157Y-90539667D01*
X110290761Y-90363040D01*
X110308157Y-90186413D01*
X110359677Y-90016574D01*
X110443342Y-89860049D01*
X110490108Y-89803065D01*
X110555934Y-89722854D01*
X110657391Y-89639592D01*
X110693129Y-89610262D01*
X110849654Y-89526597D01*
X111019493Y-89475077D01*
X111085677Y-89468559D01*
X111151860Y-89462040D01*
X111240380Y-89462040D01*
X111306563Y-89468559D01*
X111306563Y-89468559D01*
G37*
G36*
X134491683Y-88731959D02*
G01*
X134557867Y-88738477D01*
X134727706Y-88789997D01*
X134884231Y-88873662D01*
X134919969Y-88902992D01*
X135021426Y-88986254D01*
X135104688Y-89087711D01*
X135134018Y-89123449D01*
X135217683Y-89279974D01*
X135269203Y-89449813D01*
X135286599Y-89626440D01*
X135269203Y-89803067D01*
X135217683Y-89972906D01*
X135134018Y-90129431D01*
X135104688Y-90165169D01*
X135021426Y-90266626D01*
X134919969Y-90349888D01*
X134884231Y-90379218D01*
X134727706Y-90462883D01*
X134557867Y-90514403D01*
X134491683Y-90520921D01*
X134425500Y-90527440D01*
X134336980Y-90527440D01*
X134270797Y-90520921D01*
X134204613Y-90514403D01*
X134034774Y-90462883D01*
X133878249Y-90379218D01*
X133842511Y-90349888D01*
X133741054Y-90266626D01*
X133657792Y-90165169D01*
X133628462Y-90129431D01*
X133544797Y-89972906D01*
X133493277Y-89803067D01*
X133475881Y-89626440D01*
X133493277Y-89449813D01*
X133544797Y-89279974D01*
X133628462Y-89123449D01*
X133657792Y-89087711D01*
X133741054Y-88986254D01*
X133842511Y-88902992D01*
X133878249Y-88873662D01*
X134034774Y-88789997D01*
X134204613Y-88738477D01*
X134270797Y-88731959D01*
X134336980Y-88725440D01*
X134425500Y-88725440D01*
X134491683Y-88731959D01*
X134491683Y-88731959D01*
G37*
G36*
X112097120Y-88724040D02*
G01*
X110295120Y-88724040D01*
X110295120Y-86922040D01*
X112097120Y-86922040D01*
X112097120Y-88724040D01*
X112097120Y-88724040D01*
G37*
M02*
