M48
; DRILL file {KiCad (5.1.4)-1} date 1/10/2020 7:08:52 PM
; FORMAT={-:-/ absolute / inch / decimal}
; #@! TF.CreationDate,2020-01-10T19:08:52-06:00
; #@! TF.GenerationSoftware,Kicad,Pcbnew,(5.1.4)-1
; #@! TF.FileFunction,Plated,1,2,PTH
FMAT,2
INCH
T1C0.0079
T2C0.0197
T3C0.0315
T4C0.0354
T5C0.0394
T6C0.1260
%
G90
G05
T1
X4.274Y-3.679
X4.28Y-4.782
X4.3241Y-4.825
X4.3318Y-4.3752
X4.333Y-4.936
X4.419Y-4.428
X4.433Y-5.596
X4.436Y-4.312
X4.446Y-4.355
X4.475Y-4.191
X4.477Y-5.575
X4.5Y-5.684
X4.504Y-3.889
X4.572Y-3.878
X4.581Y-5.565
X4.603Y-4.156
X4.697Y-3.922
X4.718Y-4.825
X4.85Y-5.4893
X4.8544Y-4.7006
X4.867Y-5.566
X4.885Y-4.369
X4.909Y-4.348
X4.947Y-4.351
X4.958Y-3.89
X5.0224Y-5.1306
X5.033Y-4.345
X5.04Y-5.106
X5.064Y-4.022
X5.134Y-4.655
X5.169Y-5.046
X5.172Y-4.31
X5.181Y-3.548
X5.188Y-3.875
X5.217Y-4.825
X5.243Y-5.13
T2
X4.491Y-3.352
X4.546Y-3.413
X5.275Y-3.406
X5.323Y-3.352
T3
X4.3354Y-3.9656
X4.3354Y-4.1577
T4
X4.7056Y-5.03
X4.804Y-5.03
X4.9024Y-5.03
T5
X4.3778Y-3.4576
X4.3778Y-3.5576
X4.3778Y-3.6576
X4.3778Y-3.7576
X5.049Y-5.547
X5.1745Y-4.4721
X5.1745Y-4.5721
X5.4383Y-4.4721
X5.4383Y-4.5721
X4.578Y-5.165
X4.237Y-5.164
X4.734Y-4.4716
X4.734Y-4.5716
X4.9978Y-4.4716
X4.9978Y-4.5716
X5.2906Y-3.5286
X5.2906Y-3.6286
X5.2906Y-3.7286
X5.2906Y-3.8286
X5.2906Y-3.9286
X5.2906Y-4.0286
X5.2906Y-4.1286
T6
X4.21Y-3.45
X4.21Y-5.4
X5.48Y-3.85
X5.48Y-5.0
T5
G00X5.2746Y-5.482
M15
G01X5.3534Y-5.482
M16
G05
G00X5.2746Y-5.7182
M15
G01X5.3534Y-5.7182
M16
G05
G00X5.499Y-5.6395
M15
G01X5.499Y-5.5607
M16
G05
T0
M30
