G04 #@! TF.GenerationSoftware,KiCad,Pcbnew,(5.1.4)-1*
G04 #@! TF.CreationDate,2020-01-10T19:08:39-06:00*
G04 #@! TF.ProjectId,EncoderBoard,456e636f-6465-4724-926f-6172642e6b69,v1.0*
G04 #@! TF.SameCoordinates,Original*
G04 #@! TF.FileFunction,Copper,L2,Bot*
G04 #@! TF.FilePolarity,Positive*
%FSLAX46Y46*%
G04 Gerber Fmt 4.6, Leading zero omitted, Abs format (unit mm)*
G04 Created by KiCad (PCBNEW (5.1.4)-1) date 2020-01-10 19:08:39*
%MOMM*%
%LPD*%
G04 APERTURE LIST*
%ADD10C,1.900000*%
%ADD11R,1.900000X1.900000*%
%ADD12C,1.778000*%
%ADD13C,1.500000*%
%ADD14O,1.700000X1.700000*%
%ADD15R,1.700000X1.700000*%
%ADD16C,0.100000*%
%ADD17C,3.500000*%
%ADD18C,3.000000*%
%ADD19R,3.500000X3.500000*%
%ADD20C,3.400000*%
%ADD21C,0.450000*%
%ADD22C,1.000000*%
%ADD23C,0.635000*%
%ADD24C,0.254000*%
G04 APERTURE END LIST*
D10*
X124521600Y-127762000D03*
X122021600Y-127762000D03*
D11*
X119521600Y-127762000D03*
D12*
X126943860Y-113578640D03*
X120243860Y-113578640D03*
X126943860Y-116118640D03*
X120243860Y-116118640D03*
X138132560Y-113591340D03*
X131432560Y-113591340D03*
X138132560Y-116131340D03*
X131432560Y-116131340D03*
D13*
X110119160Y-105606240D03*
X110119160Y-100726240D03*
D14*
X134381240Y-89626440D03*
X134381240Y-92166440D03*
X134381240Y-94706440D03*
X134381240Y-97246440D03*
X134381240Y-99786440D03*
X134381240Y-102326440D03*
D15*
X134381240Y-104866440D03*
D14*
X111196120Y-95443040D03*
X111196120Y-92903040D03*
X111196120Y-90363040D03*
D15*
X111196120Y-87823040D03*
X107619800Y-131165600D03*
X116281200Y-131191000D03*
D16*
G36*
X140636365Y-140497013D02*
G01*
X140721304Y-140509613D01*
X140804599Y-140530477D01*
X140885448Y-140559405D01*
X140963072Y-140596119D01*
X141036724Y-140640264D01*
X141105694Y-140691416D01*
X141169318Y-140749082D01*
X141226984Y-140812706D01*
X141278136Y-140881676D01*
X141322281Y-140955328D01*
X141358995Y-141032952D01*
X141387923Y-141113801D01*
X141408787Y-141197096D01*
X141421387Y-141282035D01*
X141425600Y-141367800D01*
X141425600Y-143117800D01*
X141421387Y-143203565D01*
X141408787Y-143288504D01*
X141387923Y-143371799D01*
X141358995Y-143452648D01*
X141322281Y-143530272D01*
X141278136Y-143603924D01*
X141226984Y-143672894D01*
X141169318Y-143736518D01*
X141105694Y-143794184D01*
X141036724Y-143845336D01*
X140963072Y-143889481D01*
X140885448Y-143926195D01*
X140804599Y-143955123D01*
X140721304Y-143975987D01*
X140636365Y-143988587D01*
X140550600Y-143992800D01*
X138800600Y-143992800D01*
X138714835Y-143988587D01*
X138629896Y-143975987D01*
X138546601Y-143955123D01*
X138465752Y-143926195D01*
X138388128Y-143889481D01*
X138314476Y-143845336D01*
X138245506Y-143794184D01*
X138181882Y-143736518D01*
X138124216Y-143672894D01*
X138073064Y-143603924D01*
X138028919Y-143530272D01*
X137992205Y-143452648D01*
X137963277Y-143371799D01*
X137942413Y-143288504D01*
X137929813Y-143203565D01*
X137925600Y-143117800D01*
X137925600Y-141367800D01*
X137929813Y-141282035D01*
X137942413Y-141197096D01*
X137963277Y-141113801D01*
X137992205Y-141032952D01*
X138028919Y-140955328D01*
X138073064Y-140881676D01*
X138124216Y-140812706D01*
X138181882Y-140749082D01*
X138245506Y-140691416D01*
X138314476Y-140640264D01*
X138388128Y-140596119D01*
X138465752Y-140559405D01*
X138546601Y-140530477D01*
X138629896Y-140509613D01*
X138714835Y-140497013D01*
X138800600Y-140492800D01*
X140550600Y-140492800D01*
X140636365Y-140497013D01*
X140636365Y-140497013D01*
G37*
D17*
X139675600Y-142242800D03*
D16*
G36*
X136049113Y-143746411D02*
G01*
X136121918Y-143757211D01*
X136193314Y-143775095D01*
X136262613Y-143799890D01*
X136329148Y-143831359D01*
X136392278Y-143869198D01*
X136451395Y-143913042D01*
X136505930Y-143962470D01*
X136555358Y-144017005D01*
X136599202Y-144076122D01*
X136637041Y-144139252D01*
X136668510Y-144205787D01*
X136693305Y-144275086D01*
X136711189Y-144346482D01*
X136721989Y-144419287D01*
X136725600Y-144492800D01*
X136725600Y-145992800D01*
X136721989Y-146066313D01*
X136711189Y-146139118D01*
X136693305Y-146210514D01*
X136668510Y-146279813D01*
X136637041Y-146346348D01*
X136599202Y-146409478D01*
X136555358Y-146468595D01*
X136505930Y-146523130D01*
X136451395Y-146572558D01*
X136392278Y-146616402D01*
X136329148Y-146654241D01*
X136262613Y-146685710D01*
X136193314Y-146710505D01*
X136121918Y-146728389D01*
X136049113Y-146739189D01*
X135975600Y-146742800D01*
X133975600Y-146742800D01*
X133902087Y-146739189D01*
X133829282Y-146728389D01*
X133757886Y-146710505D01*
X133688587Y-146685710D01*
X133622052Y-146654241D01*
X133558922Y-146616402D01*
X133499805Y-146572558D01*
X133445270Y-146523130D01*
X133395842Y-146468595D01*
X133351998Y-146409478D01*
X133314159Y-146346348D01*
X133282690Y-146279813D01*
X133257895Y-146210514D01*
X133240011Y-146139118D01*
X133229211Y-146066313D01*
X133225600Y-145992800D01*
X133225600Y-144492800D01*
X133229211Y-144419287D01*
X133240011Y-144346482D01*
X133257895Y-144275086D01*
X133282690Y-144205787D01*
X133314159Y-144139252D01*
X133351998Y-144076122D01*
X133395842Y-144017005D01*
X133445270Y-143962470D01*
X133499805Y-143913042D01*
X133558922Y-143869198D01*
X133622052Y-143831359D01*
X133688587Y-143799890D01*
X133757886Y-143775095D01*
X133829282Y-143757211D01*
X133902087Y-143746411D01*
X133975600Y-143742800D01*
X135975600Y-143742800D01*
X136049113Y-143746411D01*
X136049113Y-143746411D01*
G37*
D18*
X134975600Y-145242800D03*
D19*
X134975600Y-139242800D03*
D15*
X128244600Y-140893800D03*
D20*
X139192000Y-97790000D03*
X106934000Y-137160000D03*
X106934000Y-87630000D03*
X139192000Y-127000000D03*
D21*
X125933200Y-98806000D03*
X128625600Y-102158800D03*
X131775200Y-98425000D03*
X116916200Y-105562400D03*
X113665000Y-106451400D03*
X112674400Y-109524800D03*
X112928400Y-110617000D03*
X112242600Y-112471200D03*
X110027712Y-111130088D03*
X123301760Y-119395240D03*
X131292600Y-128168400D03*
X110058200Y-125374400D03*
X123621800Y-141376400D03*
X116357400Y-141351000D03*
X113715800Y-141605000D03*
X112598200Y-142138400D03*
X133172200Y-130302000D03*
X108559600Y-93446600D03*
X127838200Y-110363000D03*
X114300000Y-144373600D03*
X124079000Y-110972600D03*
X124688600Y-110439200D03*
X125653800Y-110515400D03*
X130403600Y-118237000D03*
X127569367Y-130316833D03*
X128016000Y-129692400D03*
X123190000Y-139428943D03*
X114401600Y-98780600D03*
X116128800Y-98501200D03*
X119303800Y-99618800D03*
D22*
X115468400Y-86690200D03*
X135204200Y-85140800D03*
D21*
X131597400Y-90119200D03*
X108712000Y-121462800D03*
D22*
X114071400Y-85140800D03*
X133985000Y-86512400D03*
D21*
X109831000Y-122555000D03*
X119837200Y-122555000D03*
X132511800Y-122555000D03*
X131368800Y-109474000D03*
D23*
X114071400Y-85140800D02*
X132613400Y-85140800D01*
X132613400Y-85140800D02*
X133985000Y-86512400D01*
X109831000Y-122555000D02*
X119837200Y-122555000D01*
X119837200Y-122555000D02*
X119837200Y-122555000D01*
X132511800Y-122236802D02*
X133146800Y-121601802D01*
X132511800Y-122555000D02*
X132511800Y-122236802D01*
X133146800Y-121601802D02*
X133146800Y-111252000D01*
X133146800Y-111252000D02*
X131368800Y-109474000D01*
D24*
G36*
X113065576Y-84603176D02*
G01*
X112980017Y-84809733D01*
X112936400Y-85029012D01*
X112936400Y-85252588D01*
X112980017Y-85471867D01*
X113065576Y-85678424D01*
X113189788Y-85864320D01*
X113347880Y-86022412D01*
X113533776Y-86146624D01*
X113740333Y-86232183D01*
X113959612Y-86275800D01*
X114183188Y-86275800D01*
X114402467Y-86232183D01*
X114609024Y-86146624D01*
X114688829Y-86093300D01*
X132218862Y-86093300D01*
X132874892Y-86749330D01*
X132893617Y-86843467D01*
X132979176Y-87050024D01*
X133103388Y-87235920D01*
X133261480Y-87394012D01*
X133447376Y-87518224D01*
X133653933Y-87603783D01*
X133873212Y-87647400D01*
X134096788Y-87647400D01*
X134316067Y-87603783D01*
X134522624Y-87518224D01*
X134708520Y-87394012D01*
X134866612Y-87235920D01*
X134990824Y-87050024D01*
X135076383Y-86843467D01*
X135120000Y-86624188D01*
X135120000Y-86400612D01*
X135076383Y-86181333D01*
X134990824Y-85974776D01*
X134866612Y-85788880D01*
X134708520Y-85630788D01*
X134522624Y-85506576D01*
X134316067Y-85421017D01*
X134221930Y-85402292D01*
X133324238Y-84504600D01*
X141276000Y-84504600D01*
X141276000Y-96719573D01*
X141261250Y-96683963D01*
X141005713Y-96301524D01*
X140680476Y-95976287D01*
X140298037Y-95720750D01*
X139873094Y-95544733D01*
X139421977Y-95455000D01*
X138962023Y-95455000D01*
X138510906Y-95544733D01*
X138085963Y-95720750D01*
X137703524Y-95976287D01*
X137378287Y-96301524D01*
X137122750Y-96683963D01*
X136946733Y-97108906D01*
X136857000Y-97560023D01*
X136857000Y-98019977D01*
X136946733Y-98471094D01*
X137122750Y-98896037D01*
X137378287Y-99278476D01*
X137703524Y-99603713D01*
X138085963Y-99859250D01*
X138510906Y-100035267D01*
X138962023Y-100125000D01*
X139421977Y-100125000D01*
X139873094Y-100035267D01*
X140298037Y-99859250D01*
X140680476Y-99603713D01*
X141005713Y-99278476D01*
X141261250Y-98896037D01*
X141276000Y-98860427D01*
X141276001Y-125929574D01*
X141261250Y-125893963D01*
X141005713Y-125511524D01*
X140680476Y-125186287D01*
X140298037Y-124930750D01*
X139873094Y-124754733D01*
X139421977Y-124665000D01*
X138962023Y-124665000D01*
X138510906Y-124754733D01*
X138085963Y-124930750D01*
X137703524Y-125186287D01*
X137378287Y-125511524D01*
X137122750Y-125893963D01*
X136946733Y-126318906D01*
X136857000Y-126770023D01*
X136857000Y-127229977D01*
X136946733Y-127681094D01*
X137122750Y-128106037D01*
X137378287Y-128488476D01*
X137703524Y-128813713D01*
X138085963Y-129069250D01*
X138510906Y-129245267D01*
X138962023Y-129335000D01*
X139421977Y-129335000D01*
X139873094Y-129245267D01*
X140298037Y-129069250D01*
X140680476Y-128813713D01*
X141005713Y-128488476D01*
X141261250Y-128106037D01*
X141276001Y-128070426D01*
X141276001Y-139855042D01*
X139961350Y-139857800D01*
X139802600Y-140016550D01*
X139802600Y-142115800D01*
X139822600Y-142115800D01*
X139822600Y-142369800D01*
X139802600Y-142369800D01*
X139802600Y-144469050D01*
X139961350Y-144627800D01*
X141276001Y-144630558D01*
X141276001Y-146610000D01*
X137363336Y-146610000D01*
X137360600Y-145528550D01*
X137201850Y-145369800D01*
X135102600Y-145369800D01*
X135102600Y-145389800D01*
X134848600Y-145389800D01*
X134848600Y-145369800D01*
X132749350Y-145369800D01*
X132590600Y-145528550D01*
X132587864Y-146610000D01*
X104850000Y-146610000D01*
X104850000Y-143742800D01*
X132587528Y-143742800D01*
X132590600Y-144957050D01*
X132749350Y-145115800D01*
X134848600Y-145115800D01*
X134848600Y-143266550D01*
X135102600Y-143266550D01*
X135102600Y-145115800D01*
X137201850Y-145115800D01*
X137360600Y-144957050D01*
X137362298Y-144285995D01*
X137395063Y-144347294D01*
X137474415Y-144443985D01*
X137571106Y-144523337D01*
X137681420Y-144582302D01*
X137801118Y-144618612D01*
X137925600Y-144630872D01*
X139389850Y-144627800D01*
X139548600Y-144469050D01*
X139548600Y-142369800D01*
X137449350Y-142369800D01*
X137290600Y-142528550D01*
X137288669Y-143449167D01*
X137256137Y-143388306D01*
X137176785Y-143291615D01*
X137080094Y-143212263D01*
X136969780Y-143153298D01*
X136850082Y-143116988D01*
X136725600Y-143104728D01*
X135261350Y-143107800D01*
X135102600Y-143266550D01*
X134848600Y-143266550D01*
X134689850Y-143107800D01*
X133225600Y-143104728D01*
X133101118Y-143116988D01*
X132981420Y-143153298D01*
X132871106Y-143212263D01*
X132774415Y-143291615D01*
X132695063Y-143388306D01*
X132636098Y-143498620D01*
X132599788Y-143618318D01*
X132587528Y-143742800D01*
X104850000Y-143742800D01*
X104850000Y-141743800D01*
X126756528Y-141743800D01*
X126768788Y-141868282D01*
X126805098Y-141987980D01*
X126864063Y-142098294D01*
X126943415Y-142194985D01*
X127040106Y-142274337D01*
X127150420Y-142333302D01*
X127270118Y-142369612D01*
X127394600Y-142381872D01*
X127958850Y-142378800D01*
X128117600Y-142220050D01*
X128117600Y-141020800D01*
X128371600Y-141020800D01*
X128371600Y-142220050D01*
X128530350Y-142378800D01*
X129094600Y-142381872D01*
X129219082Y-142369612D01*
X129338780Y-142333302D01*
X129449094Y-142274337D01*
X129545785Y-142194985D01*
X129625137Y-142098294D01*
X129684102Y-141987980D01*
X129720412Y-141868282D01*
X129732672Y-141743800D01*
X129729600Y-141179550D01*
X129570850Y-141020800D01*
X128371600Y-141020800D01*
X128117600Y-141020800D01*
X126918350Y-141020800D01*
X126759600Y-141179550D01*
X126756528Y-141743800D01*
X104850000Y-141743800D01*
X104850000Y-140043800D01*
X126756528Y-140043800D01*
X126759600Y-140608050D01*
X126918350Y-140766800D01*
X128117600Y-140766800D01*
X128117600Y-139567550D01*
X128371600Y-139567550D01*
X128371600Y-140766800D01*
X129570850Y-140766800D01*
X129729600Y-140608050D01*
X129732672Y-140043800D01*
X129720412Y-139919318D01*
X129684102Y-139799620D01*
X129625137Y-139689306D01*
X129545785Y-139592615D01*
X129449094Y-139513263D01*
X129338780Y-139454298D01*
X129219082Y-139417988D01*
X129094600Y-139405728D01*
X128530350Y-139408800D01*
X128371600Y-139567550D01*
X128117600Y-139567550D01*
X127958850Y-139408800D01*
X127394600Y-139405728D01*
X127270118Y-139417988D01*
X127150420Y-139454298D01*
X127040106Y-139513263D01*
X126943415Y-139592615D01*
X126864063Y-139689306D01*
X126805098Y-139799620D01*
X126768788Y-139919318D01*
X126756528Y-140043800D01*
X104850000Y-140043800D01*
X104850000Y-138230427D01*
X104864750Y-138266037D01*
X105120287Y-138648476D01*
X105445524Y-138973713D01*
X105827963Y-139229250D01*
X106252906Y-139405267D01*
X106704023Y-139495000D01*
X107163977Y-139495000D01*
X107615094Y-139405267D01*
X108040037Y-139229250D01*
X108422476Y-138973713D01*
X108747713Y-138648476D01*
X109003250Y-138266037D01*
X109179267Y-137841094D01*
X109248547Y-137492800D01*
X132587528Y-137492800D01*
X132587528Y-140992800D01*
X132599788Y-141117282D01*
X132636098Y-141236980D01*
X132695063Y-141347294D01*
X132774415Y-141443985D01*
X132871106Y-141523337D01*
X132981420Y-141582302D01*
X133101118Y-141618612D01*
X133225600Y-141630872D01*
X136725600Y-141630872D01*
X136850082Y-141618612D01*
X136969780Y-141582302D01*
X137080094Y-141523337D01*
X137176785Y-141443985D01*
X137256137Y-141347294D01*
X137289191Y-141285455D01*
X137290600Y-141957050D01*
X137449350Y-142115800D01*
X139548600Y-142115800D01*
X139548600Y-140016550D01*
X139389850Y-139857800D01*
X137925600Y-139854728D01*
X137801118Y-139866988D01*
X137681420Y-139903298D01*
X137571106Y-139962263D01*
X137474415Y-140041615D01*
X137395063Y-140138306D01*
X137363672Y-140197033D01*
X137363672Y-137492800D01*
X137351412Y-137368318D01*
X137315102Y-137248620D01*
X137256137Y-137138306D01*
X137176785Y-137041615D01*
X137080094Y-136962263D01*
X136969780Y-136903298D01*
X136850082Y-136866988D01*
X136725600Y-136854728D01*
X133225600Y-136854728D01*
X133101118Y-136866988D01*
X132981420Y-136903298D01*
X132871106Y-136962263D01*
X132774415Y-137041615D01*
X132695063Y-137138306D01*
X132636098Y-137248620D01*
X132599788Y-137368318D01*
X132587528Y-137492800D01*
X109248547Y-137492800D01*
X109269000Y-137389977D01*
X109269000Y-136930023D01*
X109179267Y-136478906D01*
X109003250Y-136053963D01*
X108747713Y-135671524D01*
X108422476Y-135346287D01*
X108040037Y-135090750D01*
X107615094Y-134914733D01*
X107163977Y-134825000D01*
X106704023Y-134825000D01*
X106252906Y-134914733D01*
X105827963Y-135090750D01*
X105445524Y-135346287D01*
X105120287Y-135671524D01*
X104864750Y-136053963D01*
X104850000Y-136089573D01*
X104850000Y-130315600D01*
X106131728Y-130315600D01*
X106131728Y-132015600D01*
X106143988Y-132140082D01*
X106180298Y-132259780D01*
X106239263Y-132370094D01*
X106318615Y-132466785D01*
X106415306Y-132546137D01*
X106525620Y-132605102D01*
X106645318Y-132641412D01*
X106769800Y-132653672D01*
X108469800Y-132653672D01*
X108594282Y-132641412D01*
X108713980Y-132605102D01*
X108824294Y-132546137D01*
X108920985Y-132466785D01*
X109000337Y-132370094D01*
X109059302Y-132259780D01*
X109095612Y-132140082D01*
X109105370Y-132041000D01*
X114793128Y-132041000D01*
X114805388Y-132165482D01*
X114841698Y-132285180D01*
X114900663Y-132395494D01*
X114980015Y-132492185D01*
X115076706Y-132571537D01*
X115187020Y-132630502D01*
X115306718Y-132666812D01*
X115431200Y-132679072D01*
X115995450Y-132676000D01*
X116154200Y-132517250D01*
X116154200Y-131318000D01*
X116408200Y-131318000D01*
X116408200Y-132517250D01*
X116566950Y-132676000D01*
X117131200Y-132679072D01*
X117255682Y-132666812D01*
X117375380Y-132630502D01*
X117485694Y-132571537D01*
X117582385Y-132492185D01*
X117661737Y-132395494D01*
X117720702Y-132285180D01*
X117757012Y-132165482D01*
X117769272Y-132041000D01*
X117766200Y-131476750D01*
X117607450Y-131318000D01*
X116408200Y-131318000D01*
X116154200Y-131318000D01*
X114954950Y-131318000D01*
X114796200Y-131476750D01*
X114793128Y-132041000D01*
X109105370Y-132041000D01*
X109107872Y-132015600D01*
X109107872Y-130341000D01*
X114793128Y-130341000D01*
X114796200Y-130905250D01*
X114954950Y-131064000D01*
X116154200Y-131064000D01*
X116154200Y-129864750D01*
X116408200Y-129864750D01*
X116408200Y-131064000D01*
X117607450Y-131064000D01*
X117766200Y-130905250D01*
X117769272Y-130341000D01*
X117757012Y-130216518D01*
X117720702Y-130096820D01*
X117661737Y-129986506D01*
X117582385Y-129889815D01*
X117485694Y-129810463D01*
X117375380Y-129751498D01*
X117255682Y-129715188D01*
X117131200Y-129702928D01*
X116566950Y-129706000D01*
X116408200Y-129864750D01*
X116154200Y-129864750D01*
X115995450Y-129706000D01*
X115431200Y-129702928D01*
X115306718Y-129715188D01*
X115187020Y-129751498D01*
X115076706Y-129810463D01*
X114980015Y-129889815D01*
X114900663Y-129986506D01*
X114841698Y-130096820D01*
X114805388Y-130216518D01*
X114793128Y-130341000D01*
X109107872Y-130341000D01*
X109107872Y-130315600D01*
X109095612Y-130191118D01*
X109059302Y-130071420D01*
X109000337Y-129961106D01*
X108920985Y-129864415D01*
X108824294Y-129785063D01*
X108713980Y-129726098D01*
X108594282Y-129689788D01*
X108469800Y-129677528D01*
X106769800Y-129677528D01*
X106645318Y-129689788D01*
X106525620Y-129726098D01*
X106415306Y-129785063D01*
X106318615Y-129864415D01*
X106239263Y-129961106D01*
X106180298Y-130071420D01*
X106143988Y-130191118D01*
X106131728Y-130315600D01*
X104850000Y-130315600D01*
X104850000Y-126812000D01*
X117933528Y-126812000D01*
X117933528Y-128712000D01*
X117945788Y-128836482D01*
X117982098Y-128956180D01*
X118041063Y-129066494D01*
X118120415Y-129163185D01*
X118217106Y-129242537D01*
X118327420Y-129301502D01*
X118447118Y-129337812D01*
X118571600Y-129350072D01*
X120471600Y-129350072D01*
X120596082Y-129337812D01*
X120715780Y-129301502D01*
X120826094Y-129242537D01*
X120922785Y-129163185D01*
X121002137Y-129066494D01*
X121033414Y-129007979D01*
X121270821Y-129166609D01*
X121559273Y-129286089D01*
X121865491Y-129347000D01*
X122177709Y-129347000D01*
X122483927Y-129286089D01*
X122772379Y-129166609D01*
X123031979Y-128993150D01*
X123163377Y-128861752D01*
X123601453Y-128861752D01*
X123691179Y-129121042D01*
X123972271Y-129256935D01*
X124274473Y-129335379D01*
X124586173Y-129353359D01*
X124895391Y-129310184D01*
X125190244Y-129207513D01*
X125352021Y-129121042D01*
X125441747Y-128861752D01*
X124521600Y-127941605D01*
X123601453Y-128861752D01*
X123163377Y-128861752D01*
X123252750Y-128772379D01*
X123333475Y-128651566D01*
X123421848Y-128682147D01*
X124341995Y-127762000D01*
X124701205Y-127762000D01*
X125621352Y-128682147D01*
X125880642Y-128592421D01*
X126016535Y-128311329D01*
X126094979Y-128009127D01*
X126112959Y-127697427D01*
X126069784Y-127388209D01*
X125967113Y-127093356D01*
X125880642Y-126931579D01*
X125621352Y-126841853D01*
X124701205Y-127762000D01*
X124341995Y-127762000D01*
X123421848Y-126841853D01*
X123333475Y-126872434D01*
X123252750Y-126751621D01*
X123163377Y-126662248D01*
X123601453Y-126662248D01*
X124521600Y-127582395D01*
X125441747Y-126662248D01*
X125352021Y-126402958D01*
X125070929Y-126267065D01*
X124768727Y-126188621D01*
X124457027Y-126170641D01*
X124147809Y-126213816D01*
X123852956Y-126316487D01*
X123691179Y-126402958D01*
X123601453Y-126662248D01*
X123163377Y-126662248D01*
X123031979Y-126530850D01*
X122772379Y-126357391D01*
X122483927Y-126237911D01*
X122177709Y-126177000D01*
X121865491Y-126177000D01*
X121559273Y-126237911D01*
X121270821Y-126357391D01*
X121033414Y-126516021D01*
X121002137Y-126457506D01*
X120922785Y-126360815D01*
X120826094Y-126281463D01*
X120715780Y-126222498D01*
X120596082Y-126186188D01*
X120471600Y-126173928D01*
X118571600Y-126173928D01*
X118447118Y-126186188D01*
X118327420Y-126222498D01*
X118217106Y-126281463D01*
X118120415Y-126360815D01*
X118041063Y-126457506D01*
X117982098Y-126567820D01*
X117945788Y-126687518D01*
X117933528Y-126812000D01*
X104850000Y-126812000D01*
X104850000Y-122555000D01*
X108873892Y-122555000D01*
X108892283Y-122741723D01*
X108946748Y-122921269D01*
X109035194Y-123086741D01*
X109154222Y-123231778D01*
X109299259Y-123350806D01*
X109464731Y-123439252D01*
X109644277Y-123493717D01*
X109784215Y-123507500D01*
X119883985Y-123507500D01*
X120023923Y-123493717D01*
X120203469Y-123439252D01*
X120368941Y-123350806D01*
X120513978Y-123231778D01*
X120633006Y-123086741D01*
X120721452Y-122921269D01*
X120775917Y-122741723D01*
X120794308Y-122555000D01*
X120775917Y-122368277D01*
X120721452Y-122188731D01*
X120633006Y-122023259D01*
X120513978Y-121878222D01*
X120368941Y-121759194D01*
X120203469Y-121670748D01*
X120023923Y-121616283D01*
X119883985Y-121602500D01*
X109784215Y-121602500D01*
X109644277Y-121616283D01*
X109464731Y-121670748D01*
X109299259Y-121759194D01*
X109154222Y-121878222D01*
X109035194Y-122023259D01*
X108946748Y-122188731D01*
X108892283Y-122368277D01*
X108873892Y-122555000D01*
X104850000Y-122555000D01*
X104850000Y-113428539D01*
X118719860Y-113428539D01*
X118719860Y-113728741D01*
X118778426Y-114023174D01*
X118893309Y-114300525D01*
X119060092Y-114550133D01*
X119272367Y-114762408D01*
X119401422Y-114848640D01*
X119272367Y-114934872D01*
X119060092Y-115147147D01*
X118893309Y-115396755D01*
X118778426Y-115674106D01*
X118719860Y-115968539D01*
X118719860Y-116268741D01*
X118778426Y-116563174D01*
X118893309Y-116840525D01*
X119060092Y-117090133D01*
X119272367Y-117302408D01*
X119521975Y-117469191D01*
X119799326Y-117584074D01*
X120093759Y-117642640D01*
X120393961Y-117642640D01*
X120688394Y-117584074D01*
X120965745Y-117469191D01*
X121215353Y-117302408D01*
X121427628Y-117090133D01*
X121594411Y-116840525D01*
X121709294Y-116563174D01*
X121767860Y-116268741D01*
X121767860Y-115968539D01*
X125419860Y-115968539D01*
X125419860Y-116268741D01*
X125478426Y-116563174D01*
X125593309Y-116840525D01*
X125760092Y-117090133D01*
X125972367Y-117302408D01*
X126221975Y-117469191D01*
X126499326Y-117584074D01*
X126793759Y-117642640D01*
X127093961Y-117642640D01*
X127388394Y-117584074D01*
X127665745Y-117469191D01*
X127915353Y-117302408D01*
X128127628Y-117090133D01*
X128294411Y-116840525D01*
X128409294Y-116563174D01*
X128467860Y-116268741D01*
X128467860Y-115968539D01*
X128409294Y-115674106D01*
X128294411Y-115396755D01*
X128127628Y-115147147D01*
X127915353Y-114934872D01*
X127757238Y-114829223D01*
X127820486Y-114634871D01*
X126943860Y-113758245D01*
X126067234Y-114634871D01*
X126130482Y-114829223D01*
X125972367Y-114934872D01*
X125760092Y-115147147D01*
X125593309Y-115396755D01*
X125478426Y-115674106D01*
X125419860Y-115968539D01*
X121767860Y-115968539D01*
X121709294Y-115674106D01*
X121594411Y-115396755D01*
X121427628Y-115147147D01*
X121215353Y-114934872D01*
X121086298Y-114848640D01*
X121215353Y-114762408D01*
X121427628Y-114550133D01*
X121594411Y-114300525D01*
X121709294Y-114023174D01*
X121767860Y-113728741D01*
X121767860Y-113645628D01*
X125413952Y-113645628D01*
X125456417Y-113942811D01*
X125556044Y-114225999D01*
X125634571Y-114372913D01*
X125887629Y-114455266D01*
X126764255Y-113578640D01*
X127123465Y-113578640D01*
X128000091Y-114455266D01*
X128253149Y-114372913D01*
X128382946Y-114102222D01*
X128457440Y-113811410D01*
X128473768Y-113511652D01*
X128463707Y-113441239D01*
X129908560Y-113441239D01*
X129908560Y-113741441D01*
X129967126Y-114035874D01*
X130082009Y-114313225D01*
X130248792Y-114562833D01*
X130461067Y-114775108D01*
X130590122Y-114861340D01*
X130461067Y-114947572D01*
X130248792Y-115159847D01*
X130082009Y-115409455D01*
X129967126Y-115686806D01*
X129908560Y-115981239D01*
X129908560Y-116281441D01*
X129967126Y-116575874D01*
X130082009Y-116853225D01*
X130248792Y-117102833D01*
X130461067Y-117315108D01*
X130710675Y-117481891D01*
X130988026Y-117596774D01*
X131282459Y-117655340D01*
X131582661Y-117655340D01*
X131877094Y-117596774D01*
X132154445Y-117481891D01*
X132194300Y-117455260D01*
X132194300Y-121207265D01*
X131871365Y-121530199D01*
X131835023Y-121560024D01*
X131715994Y-121705061D01*
X131627548Y-121870533D01*
X131581219Y-122023259D01*
X131573083Y-122050080D01*
X131554692Y-122236802D01*
X131559300Y-122283587D01*
X131559300Y-122601784D01*
X131573083Y-122741722D01*
X131627548Y-122921268D01*
X131715994Y-123086741D01*
X131835022Y-123231778D01*
X131980059Y-123350806D01*
X132145531Y-123439252D01*
X132325077Y-123493717D01*
X132511800Y-123512108D01*
X132698522Y-123493717D01*
X132878068Y-123439252D01*
X133043541Y-123350806D01*
X133188578Y-123231778D01*
X133307606Y-123086741D01*
X133396052Y-122921269D01*
X133450517Y-122741723D01*
X133461071Y-122634569D01*
X133787226Y-122308413D01*
X133823578Y-122278580D01*
X133942606Y-122133543D01*
X134010361Y-122006782D01*
X134031052Y-121968072D01*
X134060640Y-121870533D01*
X134085517Y-121788525D01*
X134099300Y-121648587D01*
X134099300Y-121648586D01*
X134103908Y-121601802D01*
X134099300Y-121555017D01*
X134099300Y-115981239D01*
X136608560Y-115981239D01*
X136608560Y-116281441D01*
X136667126Y-116575874D01*
X136782009Y-116853225D01*
X136948792Y-117102833D01*
X137161067Y-117315108D01*
X137410675Y-117481891D01*
X137688026Y-117596774D01*
X137982459Y-117655340D01*
X138282661Y-117655340D01*
X138577094Y-117596774D01*
X138854445Y-117481891D01*
X139104053Y-117315108D01*
X139316328Y-117102833D01*
X139483111Y-116853225D01*
X139597994Y-116575874D01*
X139656560Y-116281441D01*
X139656560Y-115981239D01*
X139597994Y-115686806D01*
X139483111Y-115409455D01*
X139316328Y-115159847D01*
X139104053Y-114947572D01*
X138945938Y-114841923D01*
X139009186Y-114647571D01*
X138132560Y-113770945D01*
X137255934Y-114647571D01*
X137319182Y-114841923D01*
X137161067Y-114947572D01*
X136948792Y-115159847D01*
X136782009Y-115409455D01*
X136667126Y-115686806D01*
X136608560Y-115981239D01*
X134099300Y-115981239D01*
X134099300Y-113658328D01*
X136602652Y-113658328D01*
X136645117Y-113955511D01*
X136744744Y-114238699D01*
X136823271Y-114385613D01*
X137076329Y-114467966D01*
X137952955Y-113591340D01*
X138312165Y-113591340D01*
X139188791Y-114467966D01*
X139441849Y-114385613D01*
X139571646Y-114114922D01*
X139646140Y-113824110D01*
X139662468Y-113524352D01*
X139620003Y-113227169D01*
X139520376Y-112943981D01*
X139441849Y-112797067D01*
X139188791Y-112714714D01*
X138312165Y-113591340D01*
X137952955Y-113591340D01*
X137076329Y-112714714D01*
X136823271Y-112797067D01*
X136693474Y-113067758D01*
X136618980Y-113358570D01*
X136602652Y-113658328D01*
X134099300Y-113658328D01*
X134099300Y-112535109D01*
X137255934Y-112535109D01*
X138132560Y-113411735D01*
X139009186Y-112535109D01*
X138926833Y-112282051D01*
X138656142Y-112152254D01*
X138365330Y-112077760D01*
X138065572Y-112061432D01*
X137768389Y-112103897D01*
X137485201Y-112203524D01*
X137338287Y-112282051D01*
X137255934Y-112535109D01*
X134099300Y-112535109D01*
X134099300Y-111298785D01*
X134103908Y-111252000D01*
X134085517Y-111065278D01*
X134031052Y-110885730D01*
X133986829Y-110802995D01*
X133942606Y-110720259D01*
X133823578Y-110575222D01*
X133787236Y-110545397D01*
X132009237Y-108767399D01*
X131900540Y-108678194D01*
X131735069Y-108589749D01*
X131555522Y-108535283D01*
X131368800Y-108516892D01*
X131182078Y-108535283D01*
X131002531Y-108589749D01*
X130837060Y-108678194D01*
X130692023Y-108797223D01*
X130572994Y-108942260D01*
X130484549Y-109107731D01*
X130430083Y-109287278D01*
X130411692Y-109474000D01*
X130430083Y-109660722D01*
X130484549Y-109840269D01*
X130572994Y-110005740D01*
X130662199Y-110114437D01*
X132194301Y-111646540D01*
X132194301Y-112267420D01*
X132154445Y-112240789D01*
X131877094Y-112125906D01*
X131582661Y-112067340D01*
X131282459Y-112067340D01*
X130988026Y-112125906D01*
X130710675Y-112240789D01*
X130461067Y-112407572D01*
X130248792Y-112619847D01*
X130082009Y-112869455D01*
X129967126Y-113146806D01*
X129908560Y-113441239D01*
X128463707Y-113441239D01*
X128431303Y-113214469D01*
X128331676Y-112931281D01*
X128253149Y-112784367D01*
X128000091Y-112702014D01*
X127123465Y-113578640D01*
X126764255Y-113578640D01*
X125887629Y-112702014D01*
X125634571Y-112784367D01*
X125504774Y-113055058D01*
X125430280Y-113345870D01*
X125413952Y-113645628D01*
X121767860Y-113645628D01*
X121767860Y-113428539D01*
X121709294Y-113134106D01*
X121594411Y-112856755D01*
X121427628Y-112607147D01*
X121342890Y-112522409D01*
X126067234Y-112522409D01*
X126943860Y-113399035D01*
X127820486Y-112522409D01*
X127738133Y-112269351D01*
X127467442Y-112139554D01*
X127176630Y-112065060D01*
X126876872Y-112048732D01*
X126579689Y-112091197D01*
X126296501Y-112190824D01*
X126149587Y-112269351D01*
X126067234Y-112522409D01*
X121342890Y-112522409D01*
X121215353Y-112394872D01*
X120965745Y-112228089D01*
X120688394Y-112113206D01*
X120393961Y-112054640D01*
X120093759Y-112054640D01*
X119799326Y-112113206D01*
X119521975Y-112228089D01*
X119272367Y-112394872D01*
X119060092Y-112607147D01*
X118893309Y-112856755D01*
X118778426Y-113134106D01*
X118719860Y-113428539D01*
X104850000Y-113428539D01*
X104850000Y-105469829D01*
X108734160Y-105469829D01*
X108734160Y-105742651D01*
X108787385Y-106010229D01*
X108891789Y-106262283D01*
X109043361Y-106489126D01*
X109236274Y-106682039D01*
X109463117Y-106833611D01*
X109715171Y-106938015D01*
X109982749Y-106991240D01*
X110255571Y-106991240D01*
X110523149Y-106938015D01*
X110775203Y-106833611D01*
X111002046Y-106682039D01*
X111194959Y-106489126D01*
X111346531Y-106262283D01*
X111450935Y-106010229D01*
X111504160Y-105742651D01*
X111504160Y-105469829D01*
X111450935Y-105202251D01*
X111346531Y-104950197D01*
X111194959Y-104723354D01*
X111002046Y-104530441D01*
X110775203Y-104378869D01*
X110523149Y-104274465D01*
X110255571Y-104221240D01*
X109982749Y-104221240D01*
X109715171Y-104274465D01*
X109463117Y-104378869D01*
X109236274Y-104530441D01*
X109043361Y-104723354D01*
X108891789Y-104950197D01*
X108787385Y-105202251D01*
X108734160Y-105469829D01*
X104850000Y-105469829D01*
X104850000Y-100589829D01*
X108734160Y-100589829D01*
X108734160Y-100862651D01*
X108787385Y-101130229D01*
X108891789Y-101382283D01*
X109043361Y-101609126D01*
X109236274Y-101802039D01*
X109463117Y-101953611D01*
X109715171Y-102058015D01*
X109982749Y-102111240D01*
X110255571Y-102111240D01*
X110523149Y-102058015D01*
X110775203Y-101953611D01*
X111002046Y-101802039D01*
X111194959Y-101609126D01*
X111346531Y-101382283D01*
X111450935Y-101130229D01*
X111504160Y-100862651D01*
X111504160Y-100589829D01*
X111450935Y-100322251D01*
X111346531Y-100070197D01*
X111194959Y-99843354D01*
X111002046Y-99650441D01*
X110775203Y-99498869D01*
X110523149Y-99394465D01*
X110255571Y-99341240D01*
X109982749Y-99341240D01*
X109715171Y-99394465D01*
X109463117Y-99498869D01*
X109236274Y-99650441D01*
X109043361Y-99843354D01*
X108891789Y-100070197D01*
X108787385Y-100322251D01*
X108734160Y-100589829D01*
X104850000Y-100589829D01*
X104850000Y-90363040D01*
X109703935Y-90363040D01*
X109732607Y-90654151D01*
X109817521Y-90934074D01*
X109955414Y-91192054D01*
X110140986Y-91418174D01*
X110367106Y-91603746D01*
X110421911Y-91633040D01*
X110367106Y-91662334D01*
X110140986Y-91847906D01*
X109955414Y-92074026D01*
X109817521Y-92332006D01*
X109732607Y-92611929D01*
X109703935Y-92903040D01*
X109732607Y-93194151D01*
X109817521Y-93474074D01*
X109955414Y-93732054D01*
X110140986Y-93958174D01*
X110367106Y-94143746D01*
X110421911Y-94173040D01*
X110367106Y-94202334D01*
X110140986Y-94387906D01*
X109955414Y-94614026D01*
X109817521Y-94872006D01*
X109732607Y-95151929D01*
X109703935Y-95443040D01*
X109732607Y-95734151D01*
X109817521Y-96014074D01*
X109955414Y-96272054D01*
X110140986Y-96498174D01*
X110367106Y-96683746D01*
X110625086Y-96821639D01*
X110905009Y-96906553D01*
X111123170Y-96928040D01*
X111269070Y-96928040D01*
X111487231Y-96906553D01*
X111767154Y-96821639D01*
X112025134Y-96683746D01*
X112251254Y-96498174D01*
X112436826Y-96272054D01*
X112574719Y-96014074D01*
X112659633Y-95734151D01*
X112688305Y-95443040D01*
X112659633Y-95151929D01*
X112574719Y-94872006D01*
X112436826Y-94614026D01*
X112251254Y-94387906D01*
X112025134Y-94202334D01*
X111970329Y-94173040D01*
X112025134Y-94143746D01*
X112251254Y-93958174D01*
X112436826Y-93732054D01*
X112574719Y-93474074D01*
X112659633Y-93194151D01*
X112688305Y-92903040D01*
X112659633Y-92611929D01*
X112574719Y-92332006D01*
X112486223Y-92166440D01*
X132889055Y-92166440D01*
X132917727Y-92457551D01*
X133002641Y-92737474D01*
X133140534Y-92995454D01*
X133326106Y-93221574D01*
X133552226Y-93407146D01*
X133607031Y-93436440D01*
X133552226Y-93465734D01*
X133326106Y-93651306D01*
X133140534Y-93877426D01*
X133002641Y-94135406D01*
X132917727Y-94415329D01*
X132889055Y-94706440D01*
X132917727Y-94997551D01*
X133002641Y-95277474D01*
X133140534Y-95535454D01*
X133326106Y-95761574D01*
X133552226Y-95947146D01*
X133607031Y-95976440D01*
X133552226Y-96005734D01*
X133326106Y-96191306D01*
X133140534Y-96417426D01*
X133002641Y-96675406D01*
X132917727Y-96955329D01*
X132889055Y-97246440D01*
X132917727Y-97537551D01*
X133002641Y-97817474D01*
X133140534Y-98075454D01*
X133326106Y-98301574D01*
X133552226Y-98487146D01*
X133607031Y-98516440D01*
X133552226Y-98545734D01*
X133326106Y-98731306D01*
X133140534Y-98957426D01*
X133002641Y-99215406D01*
X132917727Y-99495329D01*
X132889055Y-99786440D01*
X132917727Y-100077551D01*
X133002641Y-100357474D01*
X133140534Y-100615454D01*
X133326106Y-100841574D01*
X133552226Y-101027146D01*
X133607031Y-101056440D01*
X133552226Y-101085734D01*
X133326106Y-101271306D01*
X133140534Y-101497426D01*
X133002641Y-101755406D01*
X132917727Y-102035329D01*
X132889055Y-102326440D01*
X132917727Y-102617551D01*
X133002641Y-102897474D01*
X133140534Y-103155454D01*
X133326106Y-103381574D01*
X133355927Y-103406047D01*
X133287060Y-103426938D01*
X133176746Y-103485903D01*
X133080055Y-103565255D01*
X133000703Y-103661946D01*
X132941738Y-103772260D01*
X132905428Y-103891958D01*
X132893168Y-104016440D01*
X132893168Y-105716440D01*
X132905428Y-105840922D01*
X132941738Y-105960620D01*
X133000703Y-106070934D01*
X133080055Y-106167625D01*
X133176746Y-106246977D01*
X133287060Y-106305942D01*
X133406758Y-106342252D01*
X133531240Y-106354512D01*
X135231240Y-106354512D01*
X135355722Y-106342252D01*
X135475420Y-106305942D01*
X135585734Y-106246977D01*
X135682425Y-106167625D01*
X135761777Y-106070934D01*
X135820742Y-105960620D01*
X135857052Y-105840922D01*
X135869312Y-105716440D01*
X135869312Y-104016440D01*
X135857052Y-103891958D01*
X135820742Y-103772260D01*
X135761777Y-103661946D01*
X135682425Y-103565255D01*
X135585734Y-103485903D01*
X135475420Y-103426938D01*
X135406553Y-103406047D01*
X135436374Y-103381574D01*
X135621946Y-103155454D01*
X135759839Y-102897474D01*
X135844753Y-102617551D01*
X135873425Y-102326440D01*
X135844753Y-102035329D01*
X135759839Y-101755406D01*
X135621946Y-101497426D01*
X135436374Y-101271306D01*
X135210254Y-101085734D01*
X135155449Y-101056440D01*
X135210254Y-101027146D01*
X135436374Y-100841574D01*
X135621946Y-100615454D01*
X135759839Y-100357474D01*
X135844753Y-100077551D01*
X135873425Y-99786440D01*
X135844753Y-99495329D01*
X135759839Y-99215406D01*
X135621946Y-98957426D01*
X135436374Y-98731306D01*
X135210254Y-98545734D01*
X135155449Y-98516440D01*
X135210254Y-98487146D01*
X135436374Y-98301574D01*
X135621946Y-98075454D01*
X135759839Y-97817474D01*
X135844753Y-97537551D01*
X135873425Y-97246440D01*
X135844753Y-96955329D01*
X135759839Y-96675406D01*
X135621946Y-96417426D01*
X135436374Y-96191306D01*
X135210254Y-96005734D01*
X135155449Y-95976440D01*
X135210254Y-95947146D01*
X135436374Y-95761574D01*
X135621946Y-95535454D01*
X135759839Y-95277474D01*
X135844753Y-94997551D01*
X135873425Y-94706440D01*
X135844753Y-94415329D01*
X135759839Y-94135406D01*
X135621946Y-93877426D01*
X135436374Y-93651306D01*
X135210254Y-93465734D01*
X135155449Y-93436440D01*
X135210254Y-93407146D01*
X135436374Y-93221574D01*
X135621946Y-92995454D01*
X135759839Y-92737474D01*
X135844753Y-92457551D01*
X135873425Y-92166440D01*
X135844753Y-91875329D01*
X135759839Y-91595406D01*
X135621946Y-91337426D01*
X135436374Y-91111306D01*
X135210254Y-90925734D01*
X135145717Y-90891239D01*
X135262595Y-90821618D01*
X135478828Y-90626709D01*
X135652881Y-90393360D01*
X135778065Y-90130539D01*
X135822716Y-89983330D01*
X135701395Y-89753440D01*
X134508240Y-89753440D01*
X134508240Y-89773440D01*
X134254240Y-89773440D01*
X134254240Y-89753440D01*
X133061085Y-89753440D01*
X132939764Y-89983330D01*
X132984415Y-90130539D01*
X133109599Y-90393360D01*
X133283652Y-90626709D01*
X133499885Y-90821618D01*
X133616763Y-90891239D01*
X133552226Y-90925734D01*
X133326106Y-91111306D01*
X133140534Y-91337426D01*
X133002641Y-91595406D01*
X132917727Y-91875329D01*
X132889055Y-92166440D01*
X112486223Y-92166440D01*
X112436826Y-92074026D01*
X112251254Y-91847906D01*
X112025134Y-91662334D01*
X111970329Y-91633040D01*
X112025134Y-91603746D01*
X112251254Y-91418174D01*
X112436826Y-91192054D01*
X112574719Y-90934074D01*
X112659633Y-90654151D01*
X112688305Y-90363040D01*
X112659633Y-90071929D01*
X112574719Y-89792006D01*
X112436826Y-89534026D01*
X112251254Y-89307906D01*
X112221433Y-89283433D01*
X112267198Y-89269550D01*
X132939764Y-89269550D01*
X133061085Y-89499440D01*
X134254240Y-89499440D01*
X134254240Y-88305626D01*
X134508240Y-88305626D01*
X134508240Y-89499440D01*
X135701395Y-89499440D01*
X135822716Y-89269550D01*
X135778065Y-89122341D01*
X135652881Y-88859520D01*
X135478828Y-88626171D01*
X135262595Y-88431262D01*
X135012492Y-88282283D01*
X134738131Y-88184959D01*
X134508240Y-88305626D01*
X134254240Y-88305626D01*
X134024349Y-88184959D01*
X133749988Y-88282283D01*
X133499885Y-88431262D01*
X133283652Y-88626171D01*
X133109599Y-88859520D01*
X132984415Y-89122341D01*
X132939764Y-89269550D01*
X112267198Y-89269550D01*
X112290300Y-89262542D01*
X112400614Y-89203577D01*
X112497305Y-89124225D01*
X112576657Y-89027534D01*
X112635622Y-88917220D01*
X112671932Y-88797522D01*
X112684192Y-88673040D01*
X112681120Y-88108790D01*
X112522370Y-87950040D01*
X111323120Y-87950040D01*
X111323120Y-87970040D01*
X111069120Y-87970040D01*
X111069120Y-87950040D01*
X109869870Y-87950040D01*
X109711120Y-88108790D01*
X109708048Y-88673040D01*
X109720308Y-88797522D01*
X109756618Y-88917220D01*
X109815583Y-89027534D01*
X109894935Y-89124225D01*
X109991626Y-89203577D01*
X110101940Y-89262542D01*
X110170807Y-89283433D01*
X110140986Y-89307906D01*
X109955414Y-89534026D01*
X109817521Y-89792006D01*
X109732607Y-90071929D01*
X109703935Y-90363040D01*
X104850000Y-90363040D01*
X104850000Y-88700427D01*
X104864750Y-88736037D01*
X105120287Y-89118476D01*
X105445524Y-89443713D01*
X105827963Y-89699250D01*
X106252906Y-89875267D01*
X106704023Y-89965000D01*
X107163977Y-89965000D01*
X107615094Y-89875267D01*
X108040037Y-89699250D01*
X108422476Y-89443713D01*
X108747713Y-89118476D01*
X109003250Y-88736037D01*
X109179267Y-88311094D01*
X109269000Y-87859977D01*
X109269000Y-87400023D01*
X109184068Y-86973040D01*
X109708048Y-86973040D01*
X109711120Y-87537290D01*
X109869870Y-87696040D01*
X111069120Y-87696040D01*
X111069120Y-86496790D01*
X111323120Y-86496790D01*
X111323120Y-87696040D01*
X112522370Y-87696040D01*
X112681120Y-87537290D01*
X112684192Y-86973040D01*
X112671932Y-86848558D01*
X112635622Y-86728860D01*
X112576657Y-86618546D01*
X112497305Y-86521855D01*
X112400614Y-86442503D01*
X112290300Y-86383538D01*
X112170602Y-86347228D01*
X112046120Y-86334968D01*
X111481870Y-86338040D01*
X111323120Y-86496790D01*
X111069120Y-86496790D01*
X110910370Y-86338040D01*
X110346120Y-86334968D01*
X110221638Y-86347228D01*
X110101940Y-86383538D01*
X109991626Y-86442503D01*
X109894935Y-86521855D01*
X109815583Y-86618546D01*
X109756618Y-86728860D01*
X109720308Y-86848558D01*
X109708048Y-86973040D01*
X109184068Y-86973040D01*
X109179267Y-86948906D01*
X109003250Y-86523963D01*
X108747713Y-86141524D01*
X108422476Y-85816287D01*
X108040037Y-85560750D01*
X107615094Y-85384733D01*
X107163977Y-85295000D01*
X106704023Y-85295000D01*
X106252906Y-85384733D01*
X105827963Y-85560750D01*
X105445524Y-85816287D01*
X105120287Y-86141524D01*
X104864750Y-86523963D01*
X104850000Y-86559573D01*
X104850000Y-84504600D01*
X113131443Y-84504600D01*
X113065576Y-84603176D01*
X113065576Y-84603176D01*
G37*
X113065576Y-84603176D02*
X112980017Y-84809733D01*
X112936400Y-85029012D01*
X112936400Y-85252588D01*
X112980017Y-85471867D01*
X113065576Y-85678424D01*
X113189788Y-85864320D01*
X113347880Y-86022412D01*
X113533776Y-86146624D01*
X113740333Y-86232183D01*
X113959612Y-86275800D01*
X114183188Y-86275800D01*
X114402467Y-86232183D01*
X114609024Y-86146624D01*
X114688829Y-86093300D01*
X132218862Y-86093300D01*
X132874892Y-86749330D01*
X132893617Y-86843467D01*
X132979176Y-87050024D01*
X133103388Y-87235920D01*
X133261480Y-87394012D01*
X133447376Y-87518224D01*
X133653933Y-87603783D01*
X133873212Y-87647400D01*
X134096788Y-87647400D01*
X134316067Y-87603783D01*
X134522624Y-87518224D01*
X134708520Y-87394012D01*
X134866612Y-87235920D01*
X134990824Y-87050024D01*
X135076383Y-86843467D01*
X135120000Y-86624188D01*
X135120000Y-86400612D01*
X135076383Y-86181333D01*
X134990824Y-85974776D01*
X134866612Y-85788880D01*
X134708520Y-85630788D01*
X134522624Y-85506576D01*
X134316067Y-85421017D01*
X134221930Y-85402292D01*
X133324238Y-84504600D01*
X141276000Y-84504600D01*
X141276000Y-96719573D01*
X141261250Y-96683963D01*
X141005713Y-96301524D01*
X140680476Y-95976287D01*
X140298037Y-95720750D01*
X139873094Y-95544733D01*
X139421977Y-95455000D01*
X138962023Y-95455000D01*
X138510906Y-95544733D01*
X138085963Y-95720750D01*
X137703524Y-95976287D01*
X137378287Y-96301524D01*
X137122750Y-96683963D01*
X136946733Y-97108906D01*
X136857000Y-97560023D01*
X136857000Y-98019977D01*
X136946733Y-98471094D01*
X137122750Y-98896037D01*
X137378287Y-99278476D01*
X137703524Y-99603713D01*
X138085963Y-99859250D01*
X138510906Y-100035267D01*
X138962023Y-100125000D01*
X139421977Y-100125000D01*
X139873094Y-100035267D01*
X140298037Y-99859250D01*
X140680476Y-99603713D01*
X141005713Y-99278476D01*
X141261250Y-98896037D01*
X141276000Y-98860427D01*
X141276001Y-125929574D01*
X141261250Y-125893963D01*
X141005713Y-125511524D01*
X140680476Y-125186287D01*
X140298037Y-124930750D01*
X139873094Y-124754733D01*
X139421977Y-124665000D01*
X138962023Y-124665000D01*
X138510906Y-124754733D01*
X138085963Y-124930750D01*
X137703524Y-125186287D01*
X137378287Y-125511524D01*
X137122750Y-125893963D01*
X136946733Y-126318906D01*
X136857000Y-126770023D01*
X136857000Y-127229977D01*
X136946733Y-127681094D01*
X137122750Y-128106037D01*
X137378287Y-128488476D01*
X137703524Y-128813713D01*
X138085963Y-129069250D01*
X138510906Y-129245267D01*
X138962023Y-129335000D01*
X139421977Y-129335000D01*
X139873094Y-129245267D01*
X140298037Y-129069250D01*
X140680476Y-128813713D01*
X141005713Y-128488476D01*
X141261250Y-128106037D01*
X141276001Y-128070426D01*
X141276001Y-139855042D01*
X139961350Y-139857800D01*
X139802600Y-140016550D01*
X139802600Y-142115800D01*
X139822600Y-142115800D01*
X139822600Y-142369800D01*
X139802600Y-142369800D01*
X139802600Y-144469050D01*
X139961350Y-144627800D01*
X141276001Y-144630558D01*
X141276001Y-146610000D01*
X137363336Y-146610000D01*
X137360600Y-145528550D01*
X137201850Y-145369800D01*
X135102600Y-145369800D01*
X135102600Y-145389800D01*
X134848600Y-145389800D01*
X134848600Y-145369800D01*
X132749350Y-145369800D01*
X132590600Y-145528550D01*
X132587864Y-146610000D01*
X104850000Y-146610000D01*
X104850000Y-143742800D01*
X132587528Y-143742800D01*
X132590600Y-144957050D01*
X132749350Y-145115800D01*
X134848600Y-145115800D01*
X134848600Y-143266550D01*
X135102600Y-143266550D01*
X135102600Y-145115800D01*
X137201850Y-145115800D01*
X137360600Y-144957050D01*
X137362298Y-144285995D01*
X137395063Y-144347294D01*
X137474415Y-144443985D01*
X137571106Y-144523337D01*
X137681420Y-144582302D01*
X137801118Y-144618612D01*
X137925600Y-144630872D01*
X139389850Y-144627800D01*
X139548600Y-144469050D01*
X139548600Y-142369800D01*
X137449350Y-142369800D01*
X137290600Y-142528550D01*
X137288669Y-143449167D01*
X137256137Y-143388306D01*
X137176785Y-143291615D01*
X137080094Y-143212263D01*
X136969780Y-143153298D01*
X136850082Y-143116988D01*
X136725600Y-143104728D01*
X135261350Y-143107800D01*
X135102600Y-143266550D01*
X134848600Y-143266550D01*
X134689850Y-143107800D01*
X133225600Y-143104728D01*
X133101118Y-143116988D01*
X132981420Y-143153298D01*
X132871106Y-143212263D01*
X132774415Y-143291615D01*
X132695063Y-143388306D01*
X132636098Y-143498620D01*
X132599788Y-143618318D01*
X132587528Y-143742800D01*
X104850000Y-143742800D01*
X104850000Y-141743800D01*
X126756528Y-141743800D01*
X126768788Y-141868282D01*
X126805098Y-141987980D01*
X126864063Y-142098294D01*
X126943415Y-142194985D01*
X127040106Y-142274337D01*
X127150420Y-142333302D01*
X127270118Y-142369612D01*
X127394600Y-142381872D01*
X127958850Y-142378800D01*
X128117600Y-142220050D01*
X128117600Y-141020800D01*
X128371600Y-141020800D01*
X128371600Y-142220050D01*
X128530350Y-142378800D01*
X129094600Y-142381872D01*
X129219082Y-142369612D01*
X129338780Y-142333302D01*
X129449094Y-142274337D01*
X129545785Y-142194985D01*
X129625137Y-142098294D01*
X129684102Y-141987980D01*
X129720412Y-141868282D01*
X129732672Y-141743800D01*
X129729600Y-141179550D01*
X129570850Y-141020800D01*
X128371600Y-141020800D01*
X128117600Y-141020800D01*
X126918350Y-141020800D01*
X126759600Y-141179550D01*
X126756528Y-141743800D01*
X104850000Y-141743800D01*
X104850000Y-140043800D01*
X126756528Y-140043800D01*
X126759600Y-140608050D01*
X126918350Y-140766800D01*
X128117600Y-140766800D01*
X128117600Y-139567550D01*
X128371600Y-139567550D01*
X128371600Y-140766800D01*
X129570850Y-140766800D01*
X129729600Y-140608050D01*
X129732672Y-140043800D01*
X129720412Y-139919318D01*
X129684102Y-139799620D01*
X129625137Y-139689306D01*
X129545785Y-139592615D01*
X129449094Y-139513263D01*
X129338780Y-139454298D01*
X129219082Y-139417988D01*
X129094600Y-139405728D01*
X128530350Y-139408800D01*
X128371600Y-139567550D01*
X128117600Y-139567550D01*
X127958850Y-139408800D01*
X127394600Y-139405728D01*
X127270118Y-139417988D01*
X127150420Y-139454298D01*
X127040106Y-139513263D01*
X126943415Y-139592615D01*
X126864063Y-139689306D01*
X126805098Y-139799620D01*
X126768788Y-139919318D01*
X126756528Y-140043800D01*
X104850000Y-140043800D01*
X104850000Y-138230427D01*
X104864750Y-138266037D01*
X105120287Y-138648476D01*
X105445524Y-138973713D01*
X105827963Y-139229250D01*
X106252906Y-139405267D01*
X106704023Y-139495000D01*
X107163977Y-139495000D01*
X107615094Y-139405267D01*
X108040037Y-139229250D01*
X108422476Y-138973713D01*
X108747713Y-138648476D01*
X109003250Y-138266037D01*
X109179267Y-137841094D01*
X109248547Y-137492800D01*
X132587528Y-137492800D01*
X132587528Y-140992800D01*
X132599788Y-141117282D01*
X132636098Y-141236980D01*
X132695063Y-141347294D01*
X132774415Y-141443985D01*
X132871106Y-141523337D01*
X132981420Y-141582302D01*
X133101118Y-141618612D01*
X133225600Y-141630872D01*
X136725600Y-141630872D01*
X136850082Y-141618612D01*
X136969780Y-141582302D01*
X137080094Y-141523337D01*
X137176785Y-141443985D01*
X137256137Y-141347294D01*
X137289191Y-141285455D01*
X137290600Y-141957050D01*
X137449350Y-142115800D01*
X139548600Y-142115800D01*
X139548600Y-140016550D01*
X139389850Y-139857800D01*
X137925600Y-139854728D01*
X137801118Y-139866988D01*
X137681420Y-139903298D01*
X137571106Y-139962263D01*
X137474415Y-140041615D01*
X137395063Y-140138306D01*
X137363672Y-140197033D01*
X137363672Y-137492800D01*
X137351412Y-137368318D01*
X137315102Y-137248620D01*
X137256137Y-137138306D01*
X137176785Y-137041615D01*
X137080094Y-136962263D01*
X136969780Y-136903298D01*
X136850082Y-136866988D01*
X136725600Y-136854728D01*
X133225600Y-136854728D01*
X133101118Y-136866988D01*
X132981420Y-136903298D01*
X132871106Y-136962263D01*
X132774415Y-137041615D01*
X132695063Y-137138306D01*
X132636098Y-137248620D01*
X132599788Y-137368318D01*
X132587528Y-137492800D01*
X109248547Y-137492800D01*
X109269000Y-137389977D01*
X109269000Y-136930023D01*
X109179267Y-136478906D01*
X109003250Y-136053963D01*
X108747713Y-135671524D01*
X108422476Y-135346287D01*
X108040037Y-135090750D01*
X107615094Y-134914733D01*
X107163977Y-134825000D01*
X106704023Y-134825000D01*
X106252906Y-134914733D01*
X105827963Y-135090750D01*
X105445524Y-135346287D01*
X105120287Y-135671524D01*
X104864750Y-136053963D01*
X104850000Y-136089573D01*
X104850000Y-130315600D01*
X106131728Y-130315600D01*
X106131728Y-132015600D01*
X106143988Y-132140082D01*
X106180298Y-132259780D01*
X106239263Y-132370094D01*
X106318615Y-132466785D01*
X106415306Y-132546137D01*
X106525620Y-132605102D01*
X106645318Y-132641412D01*
X106769800Y-132653672D01*
X108469800Y-132653672D01*
X108594282Y-132641412D01*
X108713980Y-132605102D01*
X108824294Y-132546137D01*
X108920985Y-132466785D01*
X109000337Y-132370094D01*
X109059302Y-132259780D01*
X109095612Y-132140082D01*
X109105370Y-132041000D01*
X114793128Y-132041000D01*
X114805388Y-132165482D01*
X114841698Y-132285180D01*
X114900663Y-132395494D01*
X114980015Y-132492185D01*
X115076706Y-132571537D01*
X115187020Y-132630502D01*
X115306718Y-132666812D01*
X115431200Y-132679072D01*
X115995450Y-132676000D01*
X116154200Y-132517250D01*
X116154200Y-131318000D01*
X116408200Y-131318000D01*
X116408200Y-132517250D01*
X116566950Y-132676000D01*
X117131200Y-132679072D01*
X117255682Y-132666812D01*
X117375380Y-132630502D01*
X117485694Y-132571537D01*
X117582385Y-132492185D01*
X117661737Y-132395494D01*
X117720702Y-132285180D01*
X117757012Y-132165482D01*
X117769272Y-132041000D01*
X117766200Y-131476750D01*
X117607450Y-131318000D01*
X116408200Y-131318000D01*
X116154200Y-131318000D01*
X114954950Y-131318000D01*
X114796200Y-131476750D01*
X114793128Y-132041000D01*
X109105370Y-132041000D01*
X109107872Y-132015600D01*
X109107872Y-130341000D01*
X114793128Y-130341000D01*
X114796200Y-130905250D01*
X114954950Y-131064000D01*
X116154200Y-131064000D01*
X116154200Y-129864750D01*
X116408200Y-129864750D01*
X116408200Y-131064000D01*
X117607450Y-131064000D01*
X117766200Y-130905250D01*
X117769272Y-130341000D01*
X117757012Y-130216518D01*
X117720702Y-130096820D01*
X117661737Y-129986506D01*
X117582385Y-129889815D01*
X117485694Y-129810463D01*
X117375380Y-129751498D01*
X117255682Y-129715188D01*
X117131200Y-129702928D01*
X116566950Y-129706000D01*
X116408200Y-129864750D01*
X116154200Y-129864750D01*
X115995450Y-129706000D01*
X115431200Y-129702928D01*
X115306718Y-129715188D01*
X115187020Y-129751498D01*
X115076706Y-129810463D01*
X114980015Y-129889815D01*
X114900663Y-129986506D01*
X114841698Y-130096820D01*
X114805388Y-130216518D01*
X114793128Y-130341000D01*
X109107872Y-130341000D01*
X109107872Y-130315600D01*
X109095612Y-130191118D01*
X109059302Y-130071420D01*
X109000337Y-129961106D01*
X108920985Y-129864415D01*
X108824294Y-129785063D01*
X108713980Y-129726098D01*
X108594282Y-129689788D01*
X108469800Y-129677528D01*
X106769800Y-129677528D01*
X106645318Y-129689788D01*
X106525620Y-129726098D01*
X106415306Y-129785063D01*
X106318615Y-129864415D01*
X106239263Y-129961106D01*
X106180298Y-130071420D01*
X106143988Y-130191118D01*
X106131728Y-130315600D01*
X104850000Y-130315600D01*
X104850000Y-126812000D01*
X117933528Y-126812000D01*
X117933528Y-128712000D01*
X117945788Y-128836482D01*
X117982098Y-128956180D01*
X118041063Y-129066494D01*
X118120415Y-129163185D01*
X118217106Y-129242537D01*
X118327420Y-129301502D01*
X118447118Y-129337812D01*
X118571600Y-129350072D01*
X120471600Y-129350072D01*
X120596082Y-129337812D01*
X120715780Y-129301502D01*
X120826094Y-129242537D01*
X120922785Y-129163185D01*
X121002137Y-129066494D01*
X121033414Y-129007979D01*
X121270821Y-129166609D01*
X121559273Y-129286089D01*
X121865491Y-129347000D01*
X122177709Y-129347000D01*
X122483927Y-129286089D01*
X122772379Y-129166609D01*
X123031979Y-128993150D01*
X123163377Y-128861752D01*
X123601453Y-128861752D01*
X123691179Y-129121042D01*
X123972271Y-129256935D01*
X124274473Y-129335379D01*
X124586173Y-129353359D01*
X124895391Y-129310184D01*
X125190244Y-129207513D01*
X125352021Y-129121042D01*
X125441747Y-128861752D01*
X124521600Y-127941605D01*
X123601453Y-128861752D01*
X123163377Y-128861752D01*
X123252750Y-128772379D01*
X123333475Y-128651566D01*
X123421848Y-128682147D01*
X124341995Y-127762000D01*
X124701205Y-127762000D01*
X125621352Y-128682147D01*
X125880642Y-128592421D01*
X126016535Y-128311329D01*
X126094979Y-128009127D01*
X126112959Y-127697427D01*
X126069784Y-127388209D01*
X125967113Y-127093356D01*
X125880642Y-126931579D01*
X125621352Y-126841853D01*
X124701205Y-127762000D01*
X124341995Y-127762000D01*
X123421848Y-126841853D01*
X123333475Y-126872434D01*
X123252750Y-126751621D01*
X123163377Y-126662248D01*
X123601453Y-126662248D01*
X124521600Y-127582395D01*
X125441747Y-126662248D01*
X125352021Y-126402958D01*
X125070929Y-126267065D01*
X124768727Y-126188621D01*
X124457027Y-126170641D01*
X124147809Y-126213816D01*
X123852956Y-126316487D01*
X123691179Y-126402958D01*
X123601453Y-126662248D01*
X123163377Y-126662248D01*
X123031979Y-126530850D01*
X122772379Y-126357391D01*
X122483927Y-126237911D01*
X122177709Y-126177000D01*
X121865491Y-126177000D01*
X121559273Y-126237911D01*
X121270821Y-126357391D01*
X121033414Y-126516021D01*
X121002137Y-126457506D01*
X120922785Y-126360815D01*
X120826094Y-126281463D01*
X120715780Y-126222498D01*
X120596082Y-126186188D01*
X120471600Y-126173928D01*
X118571600Y-126173928D01*
X118447118Y-126186188D01*
X118327420Y-126222498D01*
X118217106Y-126281463D01*
X118120415Y-126360815D01*
X118041063Y-126457506D01*
X117982098Y-126567820D01*
X117945788Y-126687518D01*
X117933528Y-126812000D01*
X104850000Y-126812000D01*
X104850000Y-122555000D01*
X108873892Y-122555000D01*
X108892283Y-122741723D01*
X108946748Y-122921269D01*
X109035194Y-123086741D01*
X109154222Y-123231778D01*
X109299259Y-123350806D01*
X109464731Y-123439252D01*
X109644277Y-123493717D01*
X109784215Y-123507500D01*
X119883985Y-123507500D01*
X120023923Y-123493717D01*
X120203469Y-123439252D01*
X120368941Y-123350806D01*
X120513978Y-123231778D01*
X120633006Y-123086741D01*
X120721452Y-122921269D01*
X120775917Y-122741723D01*
X120794308Y-122555000D01*
X120775917Y-122368277D01*
X120721452Y-122188731D01*
X120633006Y-122023259D01*
X120513978Y-121878222D01*
X120368941Y-121759194D01*
X120203469Y-121670748D01*
X120023923Y-121616283D01*
X119883985Y-121602500D01*
X109784215Y-121602500D01*
X109644277Y-121616283D01*
X109464731Y-121670748D01*
X109299259Y-121759194D01*
X109154222Y-121878222D01*
X109035194Y-122023259D01*
X108946748Y-122188731D01*
X108892283Y-122368277D01*
X108873892Y-122555000D01*
X104850000Y-122555000D01*
X104850000Y-113428539D01*
X118719860Y-113428539D01*
X118719860Y-113728741D01*
X118778426Y-114023174D01*
X118893309Y-114300525D01*
X119060092Y-114550133D01*
X119272367Y-114762408D01*
X119401422Y-114848640D01*
X119272367Y-114934872D01*
X119060092Y-115147147D01*
X118893309Y-115396755D01*
X118778426Y-115674106D01*
X118719860Y-115968539D01*
X118719860Y-116268741D01*
X118778426Y-116563174D01*
X118893309Y-116840525D01*
X119060092Y-117090133D01*
X119272367Y-117302408D01*
X119521975Y-117469191D01*
X119799326Y-117584074D01*
X120093759Y-117642640D01*
X120393961Y-117642640D01*
X120688394Y-117584074D01*
X120965745Y-117469191D01*
X121215353Y-117302408D01*
X121427628Y-117090133D01*
X121594411Y-116840525D01*
X121709294Y-116563174D01*
X121767860Y-116268741D01*
X121767860Y-115968539D01*
X125419860Y-115968539D01*
X125419860Y-116268741D01*
X125478426Y-116563174D01*
X125593309Y-116840525D01*
X125760092Y-117090133D01*
X125972367Y-117302408D01*
X126221975Y-117469191D01*
X126499326Y-117584074D01*
X126793759Y-117642640D01*
X127093961Y-117642640D01*
X127388394Y-117584074D01*
X127665745Y-117469191D01*
X127915353Y-117302408D01*
X128127628Y-117090133D01*
X128294411Y-116840525D01*
X128409294Y-116563174D01*
X128467860Y-116268741D01*
X128467860Y-115968539D01*
X128409294Y-115674106D01*
X128294411Y-115396755D01*
X128127628Y-115147147D01*
X127915353Y-114934872D01*
X127757238Y-114829223D01*
X127820486Y-114634871D01*
X126943860Y-113758245D01*
X126067234Y-114634871D01*
X126130482Y-114829223D01*
X125972367Y-114934872D01*
X125760092Y-115147147D01*
X125593309Y-115396755D01*
X125478426Y-115674106D01*
X125419860Y-115968539D01*
X121767860Y-115968539D01*
X121709294Y-115674106D01*
X121594411Y-115396755D01*
X121427628Y-115147147D01*
X121215353Y-114934872D01*
X121086298Y-114848640D01*
X121215353Y-114762408D01*
X121427628Y-114550133D01*
X121594411Y-114300525D01*
X121709294Y-114023174D01*
X121767860Y-113728741D01*
X121767860Y-113645628D01*
X125413952Y-113645628D01*
X125456417Y-113942811D01*
X125556044Y-114225999D01*
X125634571Y-114372913D01*
X125887629Y-114455266D01*
X126764255Y-113578640D01*
X127123465Y-113578640D01*
X128000091Y-114455266D01*
X128253149Y-114372913D01*
X128382946Y-114102222D01*
X128457440Y-113811410D01*
X128473768Y-113511652D01*
X128463707Y-113441239D01*
X129908560Y-113441239D01*
X129908560Y-113741441D01*
X129967126Y-114035874D01*
X130082009Y-114313225D01*
X130248792Y-114562833D01*
X130461067Y-114775108D01*
X130590122Y-114861340D01*
X130461067Y-114947572D01*
X130248792Y-115159847D01*
X130082009Y-115409455D01*
X129967126Y-115686806D01*
X129908560Y-115981239D01*
X129908560Y-116281441D01*
X129967126Y-116575874D01*
X130082009Y-116853225D01*
X130248792Y-117102833D01*
X130461067Y-117315108D01*
X130710675Y-117481891D01*
X130988026Y-117596774D01*
X131282459Y-117655340D01*
X131582661Y-117655340D01*
X131877094Y-117596774D01*
X132154445Y-117481891D01*
X132194300Y-117455260D01*
X132194300Y-121207265D01*
X131871365Y-121530199D01*
X131835023Y-121560024D01*
X131715994Y-121705061D01*
X131627548Y-121870533D01*
X131581219Y-122023259D01*
X131573083Y-122050080D01*
X131554692Y-122236802D01*
X131559300Y-122283587D01*
X131559300Y-122601784D01*
X131573083Y-122741722D01*
X131627548Y-122921268D01*
X131715994Y-123086741D01*
X131835022Y-123231778D01*
X131980059Y-123350806D01*
X132145531Y-123439252D01*
X132325077Y-123493717D01*
X132511800Y-123512108D01*
X132698522Y-123493717D01*
X132878068Y-123439252D01*
X133043541Y-123350806D01*
X133188578Y-123231778D01*
X133307606Y-123086741D01*
X133396052Y-122921269D01*
X133450517Y-122741723D01*
X133461071Y-122634569D01*
X133787226Y-122308413D01*
X133823578Y-122278580D01*
X133942606Y-122133543D01*
X134010361Y-122006782D01*
X134031052Y-121968072D01*
X134060640Y-121870533D01*
X134085517Y-121788525D01*
X134099300Y-121648587D01*
X134099300Y-121648586D01*
X134103908Y-121601802D01*
X134099300Y-121555017D01*
X134099300Y-115981239D01*
X136608560Y-115981239D01*
X136608560Y-116281441D01*
X136667126Y-116575874D01*
X136782009Y-116853225D01*
X136948792Y-117102833D01*
X137161067Y-117315108D01*
X137410675Y-117481891D01*
X137688026Y-117596774D01*
X137982459Y-117655340D01*
X138282661Y-117655340D01*
X138577094Y-117596774D01*
X138854445Y-117481891D01*
X139104053Y-117315108D01*
X139316328Y-117102833D01*
X139483111Y-116853225D01*
X139597994Y-116575874D01*
X139656560Y-116281441D01*
X139656560Y-115981239D01*
X139597994Y-115686806D01*
X139483111Y-115409455D01*
X139316328Y-115159847D01*
X139104053Y-114947572D01*
X138945938Y-114841923D01*
X139009186Y-114647571D01*
X138132560Y-113770945D01*
X137255934Y-114647571D01*
X137319182Y-114841923D01*
X137161067Y-114947572D01*
X136948792Y-115159847D01*
X136782009Y-115409455D01*
X136667126Y-115686806D01*
X136608560Y-115981239D01*
X134099300Y-115981239D01*
X134099300Y-113658328D01*
X136602652Y-113658328D01*
X136645117Y-113955511D01*
X136744744Y-114238699D01*
X136823271Y-114385613D01*
X137076329Y-114467966D01*
X137952955Y-113591340D01*
X138312165Y-113591340D01*
X139188791Y-114467966D01*
X139441849Y-114385613D01*
X139571646Y-114114922D01*
X139646140Y-113824110D01*
X139662468Y-113524352D01*
X139620003Y-113227169D01*
X139520376Y-112943981D01*
X139441849Y-112797067D01*
X139188791Y-112714714D01*
X138312165Y-113591340D01*
X137952955Y-113591340D01*
X137076329Y-112714714D01*
X136823271Y-112797067D01*
X136693474Y-113067758D01*
X136618980Y-113358570D01*
X136602652Y-113658328D01*
X134099300Y-113658328D01*
X134099300Y-112535109D01*
X137255934Y-112535109D01*
X138132560Y-113411735D01*
X139009186Y-112535109D01*
X138926833Y-112282051D01*
X138656142Y-112152254D01*
X138365330Y-112077760D01*
X138065572Y-112061432D01*
X137768389Y-112103897D01*
X137485201Y-112203524D01*
X137338287Y-112282051D01*
X137255934Y-112535109D01*
X134099300Y-112535109D01*
X134099300Y-111298785D01*
X134103908Y-111252000D01*
X134085517Y-111065278D01*
X134031052Y-110885730D01*
X133986829Y-110802995D01*
X133942606Y-110720259D01*
X133823578Y-110575222D01*
X133787236Y-110545397D01*
X132009237Y-108767399D01*
X131900540Y-108678194D01*
X131735069Y-108589749D01*
X131555522Y-108535283D01*
X131368800Y-108516892D01*
X131182078Y-108535283D01*
X131002531Y-108589749D01*
X130837060Y-108678194D01*
X130692023Y-108797223D01*
X130572994Y-108942260D01*
X130484549Y-109107731D01*
X130430083Y-109287278D01*
X130411692Y-109474000D01*
X130430083Y-109660722D01*
X130484549Y-109840269D01*
X130572994Y-110005740D01*
X130662199Y-110114437D01*
X132194301Y-111646540D01*
X132194301Y-112267420D01*
X132154445Y-112240789D01*
X131877094Y-112125906D01*
X131582661Y-112067340D01*
X131282459Y-112067340D01*
X130988026Y-112125906D01*
X130710675Y-112240789D01*
X130461067Y-112407572D01*
X130248792Y-112619847D01*
X130082009Y-112869455D01*
X129967126Y-113146806D01*
X129908560Y-113441239D01*
X128463707Y-113441239D01*
X128431303Y-113214469D01*
X128331676Y-112931281D01*
X128253149Y-112784367D01*
X128000091Y-112702014D01*
X127123465Y-113578640D01*
X126764255Y-113578640D01*
X125887629Y-112702014D01*
X125634571Y-112784367D01*
X125504774Y-113055058D01*
X125430280Y-113345870D01*
X125413952Y-113645628D01*
X121767860Y-113645628D01*
X121767860Y-113428539D01*
X121709294Y-113134106D01*
X121594411Y-112856755D01*
X121427628Y-112607147D01*
X121342890Y-112522409D01*
X126067234Y-112522409D01*
X126943860Y-113399035D01*
X127820486Y-112522409D01*
X127738133Y-112269351D01*
X127467442Y-112139554D01*
X127176630Y-112065060D01*
X126876872Y-112048732D01*
X126579689Y-112091197D01*
X126296501Y-112190824D01*
X126149587Y-112269351D01*
X126067234Y-112522409D01*
X121342890Y-112522409D01*
X121215353Y-112394872D01*
X120965745Y-112228089D01*
X120688394Y-112113206D01*
X120393961Y-112054640D01*
X120093759Y-112054640D01*
X119799326Y-112113206D01*
X119521975Y-112228089D01*
X119272367Y-112394872D01*
X119060092Y-112607147D01*
X118893309Y-112856755D01*
X118778426Y-113134106D01*
X118719860Y-113428539D01*
X104850000Y-113428539D01*
X104850000Y-105469829D01*
X108734160Y-105469829D01*
X108734160Y-105742651D01*
X108787385Y-106010229D01*
X108891789Y-106262283D01*
X109043361Y-106489126D01*
X109236274Y-106682039D01*
X109463117Y-106833611D01*
X109715171Y-106938015D01*
X109982749Y-106991240D01*
X110255571Y-106991240D01*
X110523149Y-106938015D01*
X110775203Y-106833611D01*
X111002046Y-106682039D01*
X111194959Y-106489126D01*
X111346531Y-106262283D01*
X111450935Y-106010229D01*
X111504160Y-105742651D01*
X111504160Y-105469829D01*
X111450935Y-105202251D01*
X111346531Y-104950197D01*
X111194959Y-104723354D01*
X111002046Y-104530441D01*
X110775203Y-104378869D01*
X110523149Y-104274465D01*
X110255571Y-104221240D01*
X109982749Y-104221240D01*
X109715171Y-104274465D01*
X109463117Y-104378869D01*
X109236274Y-104530441D01*
X109043361Y-104723354D01*
X108891789Y-104950197D01*
X108787385Y-105202251D01*
X108734160Y-105469829D01*
X104850000Y-105469829D01*
X104850000Y-100589829D01*
X108734160Y-100589829D01*
X108734160Y-100862651D01*
X108787385Y-101130229D01*
X108891789Y-101382283D01*
X109043361Y-101609126D01*
X109236274Y-101802039D01*
X109463117Y-101953611D01*
X109715171Y-102058015D01*
X109982749Y-102111240D01*
X110255571Y-102111240D01*
X110523149Y-102058015D01*
X110775203Y-101953611D01*
X111002046Y-101802039D01*
X111194959Y-101609126D01*
X111346531Y-101382283D01*
X111450935Y-101130229D01*
X111504160Y-100862651D01*
X111504160Y-100589829D01*
X111450935Y-100322251D01*
X111346531Y-100070197D01*
X111194959Y-99843354D01*
X111002046Y-99650441D01*
X110775203Y-99498869D01*
X110523149Y-99394465D01*
X110255571Y-99341240D01*
X109982749Y-99341240D01*
X109715171Y-99394465D01*
X109463117Y-99498869D01*
X109236274Y-99650441D01*
X109043361Y-99843354D01*
X108891789Y-100070197D01*
X108787385Y-100322251D01*
X108734160Y-100589829D01*
X104850000Y-100589829D01*
X104850000Y-90363040D01*
X109703935Y-90363040D01*
X109732607Y-90654151D01*
X109817521Y-90934074D01*
X109955414Y-91192054D01*
X110140986Y-91418174D01*
X110367106Y-91603746D01*
X110421911Y-91633040D01*
X110367106Y-91662334D01*
X110140986Y-91847906D01*
X109955414Y-92074026D01*
X109817521Y-92332006D01*
X109732607Y-92611929D01*
X109703935Y-92903040D01*
X109732607Y-93194151D01*
X109817521Y-93474074D01*
X109955414Y-93732054D01*
X110140986Y-93958174D01*
X110367106Y-94143746D01*
X110421911Y-94173040D01*
X110367106Y-94202334D01*
X110140986Y-94387906D01*
X109955414Y-94614026D01*
X109817521Y-94872006D01*
X109732607Y-95151929D01*
X109703935Y-95443040D01*
X109732607Y-95734151D01*
X109817521Y-96014074D01*
X109955414Y-96272054D01*
X110140986Y-96498174D01*
X110367106Y-96683746D01*
X110625086Y-96821639D01*
X110905009Y-96906553D01*
X111123170Y-96928040D01*
X111269070Y-96928040D01*
X111487231Y-96906553D01*
X111767154Y-96821639D01*
X112025134Y-96683746D01*
X112251254Y-96498174D01*
X112436826Y-96272054D01*
X112574719Y-96014074D01*
X112659633Y-95734151D01*
X112688305Y-95443040D01*
X112659633Y-95151929D01*
X112574719Y-94872006D01*
X112436826Y-94614026D01*
X112251254Y-94387906D01*
X112025134Y-94202334D01*
X111970329Y-94173040D01*
X112025134Y-94143746D01*
X112251254Y-93958174D01*
X112436826Y-93732054D01*
X112574719Y-93474074D01*
X112659633Y-93194151D01*
X112688305Y-92903040D01*
X112659633Y-92611929D01*
X112574719Y-92332006D01*
X112486223Y-92166440D01*
X132889055Y-92166440D01*
X132917727Y-92457551D01*
X133002641Y-92737474D01*
X133140534Y-92995454D01*
X133326106Y-93221574D01*
X133552226Y-93407146D01*
X133607031Y-93436440D01*
X133552226Y-93465734D01*
X133326106Y-93651306D01*
X133140534Y-93877426D01*
X133002641Y-94135406D01*
X132917727Y-94415329D01*
X132889055Y-94706440D01*
X132917727Y-94997551D01*
X133002641Y-95277474D01*
X133140534Y-95535454D01*
X133326106Y-95761574D01*
X133552226Y-95947146D01*
X133607031Y-95976440D01*
X133552226Y-96005734D01*
X133326106Y-96191306D01*
X133140534Y-96417426D01*
X133002641Y-96675406D01*
X132917727Y-96955329D01*
X132889055Y-97246440D01*
X132917727Y-97537551D01*
X133002641Y-97817474D01*
X133140534Y-98075454D01*
X133326106Y-98301574D01*
X133552226Y-98487146D01*
X133607031Y-98516440D01*
X133552226Y-98545734D01*
X133326106Y-98731306D01*
X133140534Y-98957426D01*
X133002641Y-99215406D01*
X132917727Y-99495329D01*
X132889055Y-99786440D01*
X132917727Y-100077551D01*
X133002641Y-100357474D01*
X133140534Y-100615454D01*
X133326106Y-100841574D01*
X133552226Y-101027146D01*
X133607031Y-101056440D01*
X133552226Y-101085734D01*
X133326106Y-101271306D01*
X133140534Y-101497426D01*
X133002641Y-101755406D01*
X132917727Y-102035329D01*
X132889055Y-102326440D01*
X132917727Y-102617551D01*
X133002641Y-102897474D01*
X133140534Y-103155454D01*
X133326106Y-103381574D01*
X133355927Y-103406047D01*
X133287060Y-103426938D01*
X133176746Y-103485903D01*
X133080055Y-103565255D01*
X133000703Y-103661946D01*
X132941738Y-103772260D01*
X132905428Y-103891958D01*
X132893168Y-104016440D01*
X132893168Y-105716440D01*
X132905428Y-105840922D01*
X132941738Y-105960620D01*
X133000703Y-106070934D01*
X133080055Y-106167625D01*
X133176746Y-106246977D01*
X133287060Y-106305942D01*
X133406758Y-106342252D01*
X133531240Y-106354512D01*
X135231240Y-106354512D01*
X135355722Y-106342252D01*
X135475420Y-106305942D01*
X135585734Y-106246977D01*
X135682425Y-106167625D01*
X135761777Y-106070934D01*
X135820742Y-105960620D01*
X135857052Y-105840922D01*
X135869312Y-105716440D01*
X135869312Y-104016440D01*
X135857052Y-103891958D01*
X135820742Y-103772260D01*
X135761777Y-103661946D01*
X135682425Y-103565255D01*
X135585734Y-103485903D01*
X135475420Y-103426938D01*
X135406553Y-103406047D01*
X135436374Y-103381574D01*
X135621946Y-103155454D01*
X135759839Y-102897474D01*
X135844753Y-102617551D01*
X135873425Y-102326440D01*
X135844753Y-102035329D01*
X135759839Y-101755406D01*
X135621946Y-101497426D01*
X135436374Y-101271306D01*
X135210254Y-101085734D01*
X135155449Y-101056440D01*
X135210254Y-101027146D01*
X135436374Y-100841574D01*
X135621946Y-100615454D01*
X135759839Y-100357474D01*
X135844753Y-100077551D01*
X135873425Y-99786440D01*
X135844753Y-99495329D01*
X135759839Y-99215406D01*
X135621946Y-98957426D01*
X135436374Y-98731306D01*
X135210254Y-98545734D01*
X135155449Y-98516440D01*
X135210254Y-98487146D01*
X135436374Y-98301574D01*
X135621946Y-98075454D01*
X135759839Y-97817474D01*
X135844753Y-97537551D01*
X135873425Y-97246440D01*
X135844753Y-96955329D01*
X135759839Y-96675406D01*
X135621946Y-96417426D01*
X135436374Y-96191306D01*
X135210254Y-96005734D01*
X135155449Y-95976440D01*
X135210254Y-95947146D01*
X135436374Y-95761574D01*
X135621946Y-95535454D01*
X135759839Y-95277474D01*
X135844753Y-94997551D01*
X135873425Y-94706440D01*
X135844753Y-94415329D01*
X135759839Y-94135406D01*
X135621946Y-93877426D01*
X135436374Y-93651306D01*
X135210254Y-93465734D01*
X135155449Y-93436440D01*
X135210254Y-93407146D01*
X135436374Y-93221574D01*
X135621946Y-92995454D01*
X135759839Y-92737474D01*
X135844753Y-92457551D01*
X135873425Y-92166440D01*
X135844753Y-91875329D01*
X135759839Y-91595406D01*
X135621946Y-91337426D01*
X135436374Y-91111306D01*
X135210254Y-90925734D01*
X135145717Y-90891239D01*
X135262595Y-90821618D01*
X135478828Y-90626709D01*
X135652881Y-90393360D01*
X135778065Y-90130539D01*
X135822716Y-89983330D01*
X135701395Y-89753440D01*
X134508240Y-89753440D01*
X134508240Y-89773440D01*
X134254240Y-89773440D01*
X134254240Y-89753440D01*
X133061085Y-89753440D01*
X132939764Y-89983330D01*
X132984415Y-90130539D01*
X133109599Y-90393360D01*
X133283652Y-90626709D01*
X133499885Y-90821618D01*
X133616763Y-90891239D01*
X133552226Y-90925734D01*
X133326106Y-91111306D01*
X133140534Y-91337426D01*
X133002641Y-91595406D01*
X132917727Y-91875329D01*
X132889055Y-92166440D01*
X112486223Y-92166440D01*
X112436826Y-92074026D01*
X112251254Y-91847906D01*
X112025134Y-91662334D01*
X111970329Y-91633040D01*
X112025134Y-91603746D01*
X112251254Y-91418174D01*
X112436826Y-91192054D01*
X112574719Y-90934074D01*
X112659633Y-90654151D01*
X112688305Y-90363040D01*
X112659633Y-90071929D01*
X112574719Y-89792006D01*
X112436826Y-89534026D01*
X112251254Y-89307906D01*
X112221433Y-89283433D01*
X112267198Y-89269550D01*
X132939764Y-89269550D01*
X133061085Y-89499440D01*
X134254240Y-89499440D01*
X134254240Y-88305626D01*
X134508240Y-88305626D01*
X134508240Y-89499440D01*
X135701395Y-89499440D01*
X135822716Y-89269550D01*
X135778065Y-89122341D01*
X135652881Y-88859520D01*
X135478828Y-88626171D01*
X135262595Y-88431262D01*
X135012492Y-88282283D01*
X134738131Y-88184959D01*
X134508240Y-88305626D01*
X134254240Y-88305626D01*
X134024349Y-88184959D01*
X133749988Y-88282283D01*
X133499885Y-88431262D01*
X133283652Y-88626171D01*
X133109599Y-88859520D01*
X132984415Y-89122341D01*
X132939764Y-89269550D01*
X112267198Y-89269550D01*
X112290300Y-89262542D01*
X112400614Y-89203577D01*
X112497305Y-89124225D01*
X112576657Y-89027534D01*
X112635622Y-88917220D01*
X112671932Y-88797522D01*
X112684192Y-88673040D01*
X112681120Y-88108790D01*
X112522370Y-87950040D01*
X111323120Y-87950040D01*
X111323120Y-87970040D01*
X111069120Y-87970040D01*
X111069120Y-87950040D01*
X109869870Y-87950040D01*
X109711120Y-88108790D01*
X109708048Y-88673040D01*
X109720308Y-88797522D01*
X109756618Y-88917220D01*
X109815583Y-89027534D01*
X109894935Y-89124225D01*
X109991626Y-89203577D01*
X110101940Y-89262542D01*
X110170807Y-89283433D01*
X110140986Y-89307906D01*
X109955414Y-89534026D01*
X109817521Y-89792006D01*
X109732607Y-90071929D01*
X109703935Y-90363040D01*
X104850000Y-90363040D01*
X104850000Y-88700427D01*
X104864750Y-88736037D01*
X105120287Y-89118476D01*
X105445524Y-89443713D01*
X105827963Y-89699250D01*
X106252906Y-89875267D01*
X106704023Y-89965000D01*
X107163977Y-89965000D01*
X107615094Y-89875267D01*
X108040037Y-89699250D01*
X108422476Y-89443713D01*
X108747713Y-89118476D01*
X109003250Y-88736037D01*
X109179267Y-88311094D01*
X109269000Y-87859977D01*
X109269000Y-87400023D01*
X109184068Y-86973040D01*
X109708048Y-86973040D01*
X109711120Y-87537290D01*
X109869870Y-87696040D01*
X111069120Y-87696040D01*
X111069120Y-86496790D01*
X111323120Y-86496790D01*
X111323120Y-87696040D01*
X112522370Y-87696040D01*
X112681120Y-87537290D01*
X112684192Y-86973040D01*
X112671932Y-86848558D01*
X112635622Y-86728860D01*
X112576657Y-86618546D01*
X112497305Y-86521855D01*
X112400614Y-86442503D01*
X112290300Y-86383538D01*
X112170602Y-86347228D01*
X112046120Y-86334968D01*
X111481870Y-86338040D01*
X111323120Y-86496790D01*
X111069120Y-86496790D01*
X110910370Y-86338040D01*
X110346120Y-86334968D01*
X110221638Y-86347228D01*
X110101940Y-86383538D01*
X109991626Y-86442503D01*
X109894935Y-86521855D01*
X109815583Y-86618546D01*
X109756618Y-86728860D01*
X109720308Y-86848558D01*
X109708048Y-86973040D01*
X109184068Y-86973040D01*
X109179267Y-86948906D01*
X109003250Y-86523963D01*
X108747713Y-86141524D01*
X108422476Y-85816287D01*
X108040037Y-85560750D01*
X107615094Y-85384733D01*
X107163977Y-85295000D01*
X106704023Y-85295000D01*
X106252906Y-85384733D01*
X105827963Y-85560750D01*
X105445524Y-85816287D01*
X105120287Y-86141524D01*
X104864750Y-86523963D01*
X104850000Y-86559573D01*
X104850000Y-84504600D01*
X113131443Y-84504600D01*
X113065576Y-84603176D01*
M02*
