G04 #@! TF.GenerationSoftware,KiCad,Pcbnew,(5.1.4)-1*
G04 #@! TF.CreationDate,2019-11-02T23:16:35-06:00*
G04 #@! TF.ProjectId,EncoderBoard,456e636f-6465-4724-926f-6172642e6b69,v1.0*
G04 #@! TF.SameCoordinates,Original*
G04 #@! TF.FileFunction,Soldermask,Top*
G04 #@! TF.FilePolarity,Negative*
%FSLAX46Y46*%
G04 Gerber Fmt 4.6, Leading zero omitted, Abs format (unit mm)*
G04 Created by KiCad (PCBNEW (5.1.4)-1) date 2019-11-02 23:16:35*
%MOMM*%
%LPD*%
G04 APERTURE LIST*
%ADD10C,0.100000*%
G04 APERTURE END LIST*
D10*
G36*
X136202579Y-143706093D02*
G01*
X136336225Y-143746634D01*
X136459384Y-143812464D01*
X136567340Y-143901060D01*
X136655936Y-144009016D01*
X136721766Y-144132175D01*
X136762307Y-144265821D01*
X136776600Y-144410940D01*
X136776600Y-146074660D01*
X136762307Y-146219779D01*
X136721766Y-146353425D01*
X136655936Y-146476584D01*
X136567340Y-146584540D01*
X136459384Y-146673136D01*
X136336225Y-146738966D01*
X136202579Y-146779507D01*
X136057460Y-146793800D01*
X133893740Y-146793800D01*
X133748621Y-146779507D01*
X133614975Y-146738966D01*
X133491816Y-146673136D01*
X133383860Y-146584540D01*
X133295264Y-146476584D01*
X133229434Y-146353425D01*
X133188893Y-146219779D01*
X133174600Y-146074660D01*
X133174600Y-144410940D01*
X133188893Y-144265821D01*
X133229434Y-144132175D01*
X133295264Y-144009016D01*
X133383860Y-143901060D01*
X133491816Y-143812464D01*
X133614975Y-143746634D01*
X133748621Y-143706093D01*
X133893740Y-143691800D01*
X136057460Y-143691800D01*
X136202579Y-143706093D01*
X136202579Y-143706093D01*
G37*
G36*
X118830099Y-144702445D02*
G01*
X118867595Y-144713820D01*
X118902154Y-144732292D01*
X118932447Y-144757153D01*
X118957308Y-144787446D01*
X118975780Y-144822005D01*
X118987155Y-144859501D01*
X118991600Y-144904638D01*
X118991600Y-145643362D01*
X118987155Y-145688499D01*
X118975780Y-145725995D01*
X118957308Y-145760554D01*
X118932447Y-145790847D01*
X118902154Y-145815708D01*
X118867595Y-145834180D01*
X118830099Y-145845555D01*
X118784962Y-145850000D01*
X118146238Y-145850000D01*
X118101101Y-145845555D01*
X118063605Y-145834180D01*
X118029046Y-145815708D01*
X117998753Y-145790847D01*
X117973892Y-145760554D01*
X117955420Y-145725995D01*
X117944045Y-145688499D01*
X117939600Y-145643362D01*
X117939600Y-144904638D01*
X117944045Y-144859501D01*
X117955420Y-144822005D01*
X117973892Y-144787446D01*
X117998753Y-144757153D01*
X118029046Y-144732292D01*
X118063605Y-144713820D01*
X118101101Y-144702445D01*
X118146238Y-144698000D01*
X118784962Y-144698000D01*
X118830099Y-144702445D01*
X118830099Y-144702445D01*
G37*
G36*
X121700299Y-144677045D02*
G01*
X121737795Y-144688420D01*
X121772354Y-144706892D01*
X121802647Y-144731753D01*
X121827508Y-144762046D01*
X121845980Y-144796605D01*
X121857355Y-144834101D01*
X121861800Y-144879238D01*
X121861800Y-145617962D01*
X121857355Y-145663099D01*
X121845980Y-145700595D01*
X121827508Y-145735154D01*
X121802647Y-145765447D01*
X121772354Y-145790308D01*
X121737795Y-145808780D01*
X121700299Y-145820155D01*
X121655162Y-145824600D01*
X121016438Y-145824600D01*
X120971301Y-145820155D01*
X120933805Y-145808780D01*
X120899246Y-145790308D01*
X120868953Y-145765447D01*
X120844092Y-145735154D01*
X120825620Y-145700595D01*
X120814245Y-145663099D01*
X120809800Y-145617962D01*
X120809800Y-144879238D01*
X120814245Y-144834101D01*
X120825620Y-144796605D01*
X120844092Y-144762046D01*
X120868953Y-144731753D01*
X120899246Y-144706892D01*
X120933805Y-144688420D01*
X120971301Y-144677045D01*
X121016438Y-144672600D01*
X121655162Y-144672600D01*
X121700299Y-144677045D01*
X121700299Y-144677045D01*
G37*
G36*
X126172400Y-145801600D02*
G01*
X124870400Y-145801600D01*
X124870400Y-143199600D01*
X126172400Y-143199600D01*
X126172400Y-145801600D01*
X126172400Y-145801600D01*
G37*
G36*
X128672400Y-145801600D02*
G01*
X127370400Y-145801600D01*
X127370400Y-143199600D01*
X128672400Y-143199600D01*
X128672400Y-145801600D01*
X128672400Y-145801600D01*
G37*
G36*
X113454566Y-144543201D02*
G01*
X113492062Y-144554576D01*
X113526621Y-144573048D01*
X113556914Y-144597909D01*
X113581775Y-144628202D01*
X113600247Y-144662761D01*
X113611622Y-144700257D01*
X113616067Y-144745394D01*
X113616067Y-145484118D01*
X113611622Y-145529255D01*
X113600247Y-145566751D01*
X113581775Y-145601310D01*
X113556914Y-145631603D01*
X113526621Y-145656464D01*
X113492062Y-145674936D01*
X113454566Y-145686311D01*
X113409429Y-145690756D01*
X112770705Y-145690756D01*
X112725568Y-145686311D01*
X112688072Y-145674936D01*
X112653513Y-145656464D01*
X112623220Y-145631603D01*
X112598359Y-145601310D01*
X112579887Y-145566751D01*
X112568512Y-145529255D01*
X112564067Y-145484118D01*
X112564067Y-144745394D01*
X112568512Y-144700257D01*
X112579887Y-144662761D01*
X112598359Y-144628202D01*
X112623220Y-144597909D01*
X112653513Y-144573048D01*
X112688072Y-144554576D01*
X112725568Y-144543201D01*
X112770705Y-144538756D01*
X113409429Y-144538756D01*
X113454566Y-144543201D01*
X113454566Y-144543201D01*
G37*
G36*
X118830099Y-142952445D02*
G01*
X118867595Y-142963820D01*
X118902154Y-142982292D01*
X118932447Y-143007153D01*
X118957308Y-143037446D01*
X118975780Y-143072005D01*
X118987155Y-143109501D01*
X118991600Y-143154638D01*
X118991600Y-143893362D01*
X118987155Y-143938499D01*
X118975780Y-143975995D01*
X118957308Y-144010554D01*
X118932447Y-144040847D01*
X118902154Y-144065708D01*
X118867595Y-144084180D01*
X118830099Y-144095555D01*
X118784962Y-144100000D01*
X118146238Y-144100000D01*
X118101101Y-144095555D01*
X118063605Y-144084180D01*
X118029046Y-144065708D01*
X117998753Y-144040847D01*
X117973892Y-144010554D01*
X117955420Y-143975995D01*
X117944045Y-143938499D01*
X117939600Y-143893362D01*
X117939600Y-143154638D01*
X117944045Y-143109501D01*
X117955420Y-143072005D01*
X117973892Y-143037446D01*
X117998753Y-143007153D01*
X118029046Y-142982292D01*
X118063605Y-142963820D01*
X118101101Y-142952445D01*
X118146238Y-142948000D01*
X118784962Y-142948000D01*
X118830099Y-142952445D01*
X118830099Y-142952445D01*
G37*
G36*
X115308766Y-142935381D02*
G01*
X115346262Y-142946756D01*
X115380821Y-142965228D01*
X115411114Y-142990089D01*
X115435975Y-143020382D01*
X115454447Y-143054941D01*
X115465822Y-143092437D01*
X115470267Y-143137574D01*
X115470267Y-143876298D01*
X115465822Y-143921435D01*
X115454447Y-143958931D01*
X115435975Y-143993490D01*
X115411114Y-144023783D01*
X115380821Y-144048644D01*
X115346262Y-144067116D01*
X115308766Y-144078491D01*
X115263629Y-144082936D01*
X114624905Y-144082936D01*
X114579768Y-144078491D01*
X114542272Y-144067116D01*
X114507713Y-144048644D01*
X114477420Y-144023783D01*
X114452559Y-143993490D01*
X114434087Y-143958931D01*
X114422712Y-143921435D01*
X114418267Y-143876298D01*
X114418267Y-143137574D01*
X114422712Y-143092437D01*
X114434087Y-143054941D01*
X114452559Y-143020382D01*
X114477420Y-142990089D01*
X114507713Y-142965228D01*
X114542272Y-142946756D01*
X114579768Y-142935381D01*
X114624905Y-142930936D01*
X115263629Y-142930936D01*
X115308766Y-142935381D01*
X115308766Y-142935381D01*
G37*
G36*
X121700299Y-142927045D02*
G01*
X121737795Y-142938420D01*
X121772354Y-142956892D01*
X121802647Y-142981753D01*
X121827508Y-143012046D01*
X121845980Y-143046605D01*
X121857355Y-143084101D01*
X121861800Y-143129238D01*
X121861800Y-143867962D01*
X121857355Y-143913099D01*
X121845980Y-143950595D01*
X121827508Y-143985154D01*
X121802647Y-144015447D01*
X121772354Y-144040308D01*
X121737795Y-144058780D01*
X121700299Y-144070155D01*
X121655162Y-144074600D01*
X121016438Y-144074600D01*
X120971301Y-144070155D01*
X120933805Y-144058780D01*
X120899246Y-144040308D01*
X120868953Y-144015447D01*
X120844092Y-143985154D01*
X120825620Y-143950595D01*
X120814245Y-143913099D01*
X120809800Y-143867962D01*
X120809800Y-143129238D01*
X120814245Y-143084101D01*
X120825620Y-143046605D01*
X120844092Y-143012046D01*
X120868953Y-142981753D01*
X120899246Y-142956892D01*
X120933805Y-142938420D01*
X120971301Y-142927045D01*
X121016438Y-142922600D01*
X121655162Y-142922600D01*
X121700299Y-142927045D01*
X121700299Y-142927045D01*
G37*
G36*
X140801966Y-140458495D02*
G01*
X140959060Y-140506149D01*
X141103831Y-140583531D01*
X141230728Y-140687672D01*
X141334869Y-140814569D01*
X141412251Y-140959340D01*
X141459905Y-141116434D01*
X141476600Y-141285940D01*
X141476600Y-143199660D01*
X141459905Y-143369166D01*
X141412251Y-143526260D01*
X141334869Y-143671031D01*
X141230728Y-143797928D01*
X141103831Y-143902069D01*
X140959060Y-143979451D01*
X140801966Y-144027105D01*
X140632460Y-144043800D01*
X138718740Y-144043800D01*
X138549234Y-144027105D01*
X138392140Y-143979451D01*
X138247369Y-143902069D01*
X138120472Y-143797928D01*
X138016331Y-143671031D01*
X137938949Y-143526260D01*
X137891295Y-143369166D01*
X137874600Y-143199660D01*
X137874600Y-141285940D01*
X137891295Y-141116434D01*
X137938949Y-140959340D01*
X138016331Y-140814569D01*
X138120472Y-140687672D01*
X138247369Y-140583531D01*
X138392140Y-140506149D01*
X138549234Y-140458495D01*
X138718740Y-140441800D01*
X140632460Y-140441800D01*
X140801966Y-140458495D01*
X140801966Y-140458495D01*
G37*
G36*
X113454566Y-142793201D02*
G01*
X113492062Y-142804576D01*
X113526621Y-142823048D01*
X113556914Y-142847909D01*
X113581775Y-142878202D01*
X113600247Y-142912761D01*
X113611622Y-142950257D01*
X113616067Y-142995394D01*
X113616067Y-143734118D01*
X113611622Y-143779255D01*
X113600247Y-143816751D01*
X113581775Y-143851310D01*
X113556914Y-143881603D01*
X113526621Y-143906464D01*
X113492062Y-143924936D01*
X113454566Y-143936311D01*
X113409429Y-143940756D01*
X112770705Y-143940756D01*
X112725568Y-143936311D01*
X112688072Y-143924936D01*
X112653513Y-143906464D01*
X112623220Y-143881603D01*
X112598359Y-143851310D01*
X112579887Y-143816751D01*
X112568512Y-143779255D01*
X112564067Y-143734118D01*
X112564067Y-142995394D01*
X112568512Y-142950257D01*
X112579887Y-142912761D01*
X112598359Y-142878202D01*
X112623220Y-142847909D01*
X112653513Y-142823048D01*
X112688072Y-142804576D01*
X112725568Y-142793201D01*
X112770705Y-142788756D01*
X113409429Y-142788756D01*
X113454566Y-142793201D01*
X113454566Y-142793201D01*
G37*
G36*
X115308766Y-141185381D02*
G01*
X115346262Y-141196756D01*
X115380821Y-141215228D01*
X115411114Y-141240089D01*
X115435975Y-141270382D01*
X115454447Y-141304941D01*
X115465822Y-141342437D01*
X115470267Y-141387574D01*
X115470267Y-142126298D01*
X115465822Y-142171435D01*
X115454447Y-142208931D01*
X115435975Y-142243490D01*
X115411114Y-142273783D01*
X115380821Y-142298644D01*
X115346262Y-142317116D01*
X115308766Y-142328491D01*
X115263629Y-142332936D01*
X114624905Y-142332936D01*
X114579768Y-142328491D01*
X114542272Y-142317116D01*
X114507713Y-142298644D01*
X114477420Y-142273783D01*
X114452559Y-142243490D01*
X114434087Y-142208931D01*
X114422712Y-142171435D01*
X114418267Y-142126298D01*
X114418267Y-141387574D01*
X114422712Y-141342437D01*
X114434087Y-141304941D01*
X114452559Y-141270382D01*
X114477420Y-141240089D01*
X114507713Y-141215228D01*
X114542272Y-141196756D01*
X114579768Y-141185381D01*
X114624905Y-141180936D01*
X115263629Y-141180936D01*
X115308766Y-141185381D01*
X115308766Y-141185381D01*
G37*
G36*
X121103899Y-140854845D02*
G01*
X121141395Y-140866220D01*
X121175954Y-140884692D01*
X121206247Y-140909553D01*
X121231108Y-140939846D01*
X121249580Y-140974405D01*
X121260955Y-141011901D01*
X121265400Y-141057038D01*
X121265400Y-141695762D01*
X121260955Y-141740899D01*
X121249580Y-141778395D01*
X121231108Y-141812954D01*
X121206247Y-141843247D01*
X121175954Y-141868108D01*
X121141395Y-141886580D01*
X121103899Y-141897955D01*
X121058762Y-141902400D01*
X120320038Y-141902400D01*
X120274901Y-141897955D01*
X120237405Y-141886580D01*
X120202846Y-141868108D01*
X120172553Y-141843247D01*
X120147692Y-141812954D01*
X120129220Y-141778395D01*
X120117845Y-141740899D01*
X120113400Y-141695762D01*
X120113400Y-141057038D01*
X120117845Y-141011901D01*
X120129220Y-140974405D01*
X120147692Y-140939846D01*
X120172553Y-140909553D01*
X120202846Y-140884692D01*
X120237405Y-140866220D01*
X120274901Y-140854845D01*
X120320038Y-140850400D01*
X121058762Y-140850400D01*
X121103899Y-140854845D01*
X121103899Y-140854845D01*
G37*
G36*
X122853899Y-140854845D02*
G01*
X122891395Y-140866220D01*
X122925954Y-140884692D01*
X122956247Y-140909553D01*
X122981108Y-140939846D01*
X122999580Y-140974405D01*
X123010955Y-141011901D01*
X123015400Y-141057038D01*
X123015400Y-141695762D01*
X123010955Y-141740899D01*
X122999580Y-141778395D01*
X122981108Y-141812954D01*
X122956247Y-141843247D01*
X122925954Y-141868108D01*
X122891395Y-141886580D01*
X122853899Y-141897955D01*
X122808762Y-141902400D01*
X122070038Y-141902400D01*
X122024901Y-141897955D01*
X121987405Y-141886580D01*
X121952846Y-141868108D01*
X121922553Y-141843247D01*
X121897692Y-141812954D01*
X121879220Y-141778395D01*
X121867845Y-141740899D01*
X121863400Y-141695762D01*
X121863400Y-141057038D01*
X121867845Y-141011901D01*
X121879220Y-140974405D01*
X121897692Y-140939846D01*
X121922553Y-140909553D01*
X121952846Y-140884692D01*
X121987405Y-140866220D01*
X122024901Y-140854845D01*
X122070038Y-140850400D01*
X122808762Y-140850400D01*
X122853899Y-140854845D01*
X122853899Y-140854845D01*
G37*
G36*
X129145600Y-141794800D02*
G01*
X127343600Y-141794800D01*
X127343600Y-139992800D01*
X129145600Y-139992800D01*
X129145600Y-141794800D01*
X129145600Y-141794800D01*
G37*
G36*
X136776600Y-141043800D02*
G01*
X133174600Y-141043800D01*
X133174600Y-137441800D01*
X136776600Y-137441800D01*
X136776600Y-141043800D01*
X136776600Y-141043800D01*
G37*
G36*
X117923367Y-140734536D02*
G01*
X117121367Y-140734536D01*
X117121367Y-139107536D01*
X117923367Y-139107536D01*
X117923367Y-140734536D01*
X117923367Y-140734536D01*
G37*
G36*
X116653367Y-140734536D02*
G01*
X115851367Y-140734536D01*
X115851367Y-139107536D01*
X116653367Y-139107536D01*
X116653367Y-140734536D01*
X116653367Y-140734536D01*
G37*
G36*
X115383367Y-140734536D02*
G01*
X114581367Y-140734536D01*
X114581367Y-139107536D01*
X115383367Y-139107536D01*
X115383367Y-140734536D01*
X115383367Y-140734536D01*
G37*
G36*
X114113367Y-140734536D02*
G01*
X113311367Y-140734536D01*
X113311367Y-139107536D01*
X114113367Y-139107536D01*
X114113367Y-140734536D01*
X114113367Y-140734536D01*
G37*
G36*
X125761000Y-138959400D02*
G01*
X123159000Y-138959400D01*
X123159000Y-137657400D01*
X125761000Y-137657400D01*
X125761000Y-138959400D01*
X125761000Y-138959400D01*
G37*
G36*
X122049167Y-138957636D02*
G01*
X119447167Y-138957636D01*
X119447167Y-137655636D01*
X122049167Y-137655636D01*
X122049167Y-138957636D01*
X122049167Y-138957636D01*
G37*
G36*
X117369367Y-138516536D02*
G01*
X113865367Y-138516536D01*
X113865367Y-135901536D01*
X117369367Y-135901536D01*
X117369367Y-138516536D01*
X117369367Y-138516536D01*
G37*
G36*
X125761000Y-136459400D02*
G01*
X123159000Y-136459400D01*
X123159000Y-135157400D01*
X125761000Y-135157400D01*
X125761000Y-136459400D01*
X125761000Y-136459400D01*
G37*
G36*
X122049167Y-136457636D02*
G01*
X119447167Y-136457636D01*
X119447167Y-135155636D01*
X122049167Y-135155636D01*
X122049167Y-136457636D01*
X122049167Y-136457636D01*
G37*
G36*
X115383367Y-135310536D02*
G01*
X114581367Y-135310536D01*
X114581367Y-133683536D01*
X115383367Y-133683536D01*
X115383367Y-135310536D01*
X115383367Y-135310536D01*
G37*
G36*
X117923367Y-135310536D02*
G01*
X117121367Y-135310536D01*
X117121367Y-133683536D01*
X117923367Y-133683536D01*
X117923367Y-135310536D01*
X117923367Y-135310536D01*
G37*
G36*
X116653367Y-135310536D02*
G01*
X115851367Y-135310536D01*
X115851367Y-133683536D01*
X116653367Y-133683536D01*
X116653367Y-135310536D01*
X116653367Y-135310536D01*
G37*
G36*
X114113367Y-135310536D02*
G01*
X113311367Y-135310536D01*
X113311367Y-133683536D01*
X114113367Y-133683536D01*
X114113367Y-135310536D01*
X114113367Y-135310536D01*
G37*
G36*
X121402666Y-133334681D02*
G01*
X121440162Y-133346056D01*
X121474721Y-133364528D01*
X121505014Y-133389389D01*
X121529875Y-133419682D01*
X121548347Y-133454241D01*
X121559722Y-133491737D01*
X121564167Y-133536874D01*
X121564167Y-134175598D01*
X121559722Y-134220735D01*
X121548347Y-134258231D01*
X121529875Y-134292790D01*
X121505014Y-134323083D01*
X121474721Y-134347944D01*
X121440162Y-134366416D01*
X121402666Y-134377791D01*
X121357529Y-134382236D01*
X120618805Y-134382236D01*
X120573668Y-134377791D01*
X120536172Y-134366416D01*
X120501613Y-134347944D01*
X120471320Y-134323083D01*
X120446459Y-134292790D01*
X120427987Y-134258231D01*
X120416612Y-134220735D01*
X120412167Y-134175598D01*
X120412167Y-133536874D01*
X120416612Y-133491737D01*
X120427987Y-133454241D01*
X120446459Y-133419682D01*
X120471320Y-133389389D01*
X120501613Y-133364528D01*
X120536172Y-133346056D01*
X120573668Y-133334681D01*
X120618805Y-133330236D01*
X121357529Y-133330236D01*
X121402666Y-133334681D01*
X121402666Y-133334681D01*
G37*
G36*
X119652666Y-133334681D02*
G01*
X119690162Y-133346056D01*
X119724721Y-133364528D01*
X119755014Y-133389389D01*
X119779875Y-133419682D01*
X119798347Y-133454241D01*
X119809722Y-133491737D01*
X119814167Y-133536874D01*
X119814167Y-134175598D01*
X119809722Y-134220735D01*
X119798347Y-134258231D01*
X119779875Y-134292790D01*
X119755014Y-134323083D01*
X119724721Y-134347944D01*
X119690162Y-134366416D01*
X119652666Y-134377791D01*
X119607529Y-134382236D01*
X118868805Y-134382236D01*
X118823668Y-134377791D01*
X118786172Y-134366416D01*
X118751613Y-134347944D01*
X118721320Y-134323083D01*
X118696459Y-134292790D01*
X118677987Y-134258231D01*
X118666612Y-134220735D01*
X118662167Y-134175598D01*
X118662167Y-133536874D01*
X118666612Y-133491737D01*
X118677987Y-133454241D01*
X118696459Y-133419682D01*
X118721320Y-133389389D01*
X118751613Y-133364528D01*
X118786172Y-133346056D01*
X118823668Y-133334681D01*
X118868805Y-133330236D01*
X119607529Y-133330236D01*
X119652666Y-133334681D01*
X119652666Y-133334681D01*
G37*
G36*
X117182200Y-132092000D02*
G01*
X115380200Y-132092000D01*
X115380200Y-130290000D01*
X117182200Y-130290000D01*
X117182200Y-132092000D01*
X117182200Y-132092000D01*
G37*
G36*
X113536407Y-132072456D02*
G01*
X111734407Y-132072456D01*
X111734407Y-130270456D01*
X113536407Y-130270456D01*
X113536407Y-132072456D01*
X113536407Y-132072456D01*
G37*
G36*
X133081586Y-130776901D02*
G01*
X133119082Y-130788276D01*
X133153641Y-130806748D01*
X133183934Y-130831609D01*
X133208795Y-130861902D01*
X133227267Y-130896461D01*
X133238642Y-130933957D01*
X133243087Y-130979094D01*
X133243087Y-131617818D01*
X133238642Y-131662955D01*
X133227267Y-131700451D01*
X133208795Y-131735010D01*
X133183934Y-131765303D01*
X133153641Y-131790164D01*
X133119082Y-131808636D01*
X133081586Y-131820011D01*
X133036449Y-131824456D01*
X132297725Y-131824456D01*
X132252588Y-131820011D01*
X132215092Y-131808636D01*
X132180533Y-131790164D01*
X132150240Y-131765303D01*
X132125379Y-131735010D01*
X132106907Y-131700451D01*
X132095532Y-131662955D01*
X132091087Y-131617818D01*
X132091087Y-130979094D01*
X132095532Y-130933957D01*
X132106907Y-130896461D01*
X132125379Y-130861902D01*
X132150240Y-130831609D01*
X132180533Y-130806748D01*
X132215092Y-130788276D01*
X132252588Y-130776901D01*
X132297725Y-130772456D01*
X133036449Y-130772456D01*
X133081586Y-130776901D01*
X133081586Y-130776901D01*
G37*
G36*
X131331586Y-130776901D02*
G01*
X131369082Y-130788276D01*
X131403641Y-130806748D01*
X131433934Y-130831609D01*
X131458795Y-130861902D01*
X131477267Y-130896461D01*
X131488642Y-130933957D01*
X131493087Y-130979094D01*
X131493087Y-131617818D01*
X131488642Y-131662955D01*
X131477267Y-131700451D01*
X131458795Y-131735010D01*
X131433934Y-131765303D01*
X131403641Y-131790164D01*
X131369082Y-131808636D01*
X131331586Y-131820011D01*
X131286449Y-131824456D01*
X130547725Y-131824456D01*
X130502588Y-131820011D01*
X130465092Y-131808636D01*
X130430533Y-131790164D01*
X130400240Y-131765303D01*
X130375379Y-131735010D01*
X130356907Y-131700451D01*
X130345532Y-131662955D01*
X130341087Y-131617818D01*
X130341087Y-130979094D01*
X130345532Y-130933957D01*
X130356907Y-130896461D01*
X130375379Y-130861902D01*
X130400240Y-130831609D01*
X130430533Y-130806748D01*
X130465092Y-130788276D01*
X130502588Y-130776901D01*
X130547725Y-130772456D01*
X131286449Y-130772456D01*
X131331586Y-130776901D01*
X131331586Y-130776901D01*
G37*
G36*
X129733866Y-130776901D02*
G01*
X129771362Y-130788276D01*
X129805921Y-130806748D01*
X129836214Y-130831609D01*
X129861075Y-130861902D01*
X129879547Y-130896461D01*
X129890922Y-130933957D01*
X129895367Y-130979094D01*
X129895367Y-131617818D01*
X129890922Y-131662955D01*
X129879547Y-131700451D01*
X129861075Y-131735010D01*
X129836214Y-131765303D01*
X129805921Y-131790164D01*
X129771362Y-131808636D01*
X129733866Y-131820011D01*
X129688729Y-131824456D01*
X128950005Y-131824456D01*
X128904868Y-131820011D01*
X128867372Y-131808636D01*
X128832813Y-131790164D01*
X128802520Y-131765303D01*
X128777659Y-131735010D01*
X128759187Y-131700451D01*
X128747812Y-131662955D01*
X128743367Y-131617818D01*
X128743367Y-130979094D01*
X128747812Y-130933957D01*
X128759187Y-130896461D01*
X128777659Y-130861902D01*
X128802520Y-130831609D01*
X128832813Y-130806748D01*
X128867372Y-130788276D01*
X128904868Y-130776901D01*
X128950005Y-130772456D01*
X129688729Y-130772456D01*
X129733866Y-130776901D01*
X129733866Y-130776901D01*
G37*
G36*
X127983866Y-130776901D02*
G01*
X128021362Y-130788276D01*
X128055921Y-130806748D01*
X128086214Y-130831609D01*
X128111075Y-130861902D01*
X128129547Y-130896461D01*
X128140922Y-130933957D01*
X128145367Y-130979094D01*
X128145367Y-131617818D01*
X128140922Y-131662955D01*
X128129547Y-131700451D01*
X128111075Y-131735010D01*
X128086214Y-131765303D01*
X128055921Y-131790164D01*
X128021362Y-131808636D01*
X127983866Y-131820011D01*
X127938729Y-131824456D01*
X127200005Y-131824456D01*
X127154868Y-131820011D01*
X127117372Y-131808636D01*
X127082813Y-131790164D01*
X127052520Y-131765303D01*
X127027659Y-131735010D01*
X127009187Y-131700451D01*
X126997812Y-131662955D01*
X126993367Y-131617818D01*
X126993367Y-130979094D01*
X126997812Y-130933957D01*
X127009187Y-130896461D01*
X127027659Y-130861902D01*
X127052520Y-130831609D01*
X127082813Y-130806748D01*
X127117372Y-130788276D01*
X127154868Y-130776901D01*
X127200005Y-130772456D01*
X127938729Y-130772456D01*
X127983866Y-130776901D01*
X127983866Y-130776901D01*
G37*
G36*
X120382647Y-130623056D02*
G01*
X118380647Y-130623056D01*
X118380647Y-128621056D01*
X120382647Y-128621056D01*
X120382647Y-130623056D01*
X120382647Y-130623056D01*
G37*
G36*
X122173628Y-128659524D02*
G01*
X122355798Y-128734982D01*
X122519747Y-128844529D01*
X122659174Y-128983956D01*
X122768721Y-129147905D01*
X122768722Y-129147907D01*
X122774964Y-129162976D01*
X122844179Y-129330075D01*
X122882647Y-129523466D01*
X122882647Y-129720646D01*
X122844179Y-129914037D01*
X122768721Y-130096207D01*
X122659174Y-130260156D01*
X122519747Y-130399583D01*
X122355798Y-130509130D01*
X122173628Y-130584588D01*
X122076932Y-130603822D01*
X121980238Y-130623056D01*
X121783056Y-130623056D01*
X121686362Y-130603822D01*
X121589666Y-130584588D01*
X121407496Y-130509130D01*
X121243547Y-130399583D01*
X121104120Y-130260156D01*
X120994573Y-130096207D01*
X120919115Y-129914037D01*
X120880647Y-129720646D01*
X120880647Y-129523466D01*
X120919115Y-129330075D01*
X120988330Y-129162976D01*
X120994572Y-129147907D01*
X120994573Y-129147905D01*
X121104120Y-128983956D01*
X121243547Y-128844529D01*
X121407496Y-128734982D01*
X121589666Y-128659524D01*
X121783056Y-128621056D01*
X121980238Y-128621056D01*
X122173628Y-128659524D01*
X122173628Y-128659524D01*
G37*
G36*
X124673628Y-128659524D02*
G01*
X124855798Y-128734982D01*
X125019747Y-128844529D01*
X125159174Y-128983956D01*
X125268721Y-129147905D01*
X125268722Y-129147907D01*
X125274964Y-129162976D01*
X125344179Y-129330075D01*
X125382647Y-129523466D01*
X125382647Y-129720646D01*
X125344179Y-129914037D01*
X125268721Y-130096207D01*
X125159174Y-130260156D01*
X125019747Y-130399583D01*
X124855798Y-130509130D01*
X124673628Y-130584588D01*
X124576932Y-130603822D01*
X124480238Y-130623056D01*
X124283056Y-130623056D01*
X124186362Y-130603822D01*
X124089666Y-130584588D01*
X123907496Y-130509130D01*
X123743547Y-130399583D01*
X123604120Y-130260156D01*
X123494573Y-130096207D01*
X123419115Y-129914037D01*
X123380647Y-129720646D01*
X123380647Y-129523466D01*
X123419115Y-129330075D01*
X123488330Y-129162976D01*
X123494572Y-129147907D01*
X123494573Y-129147905D01*
X123604120Y-128983956D01*
X123743547Y-128844529D01*
X123907496Y-128734982D01*
X124089666Y-128659524D01*
X124283056Y-128621056D01*
X124480238Y-128621056D01*
X124673628Y-128659524D01*
X124673628Y-128659524D01*
G37*
G36*
X130293447Y-128495897D02*
G01*
X130295849Y-128520283D01*
X130302962Y-128543732D01*
X130314513Y-128565343D01*
X130330058Y-128584285D01*
X130349000Y-128599830D01*
X130353447Y-128602207D01*
X130353447Y-129351585D01*
X130349000Y-129353962D01*
X130330058Y-129369507D01*
X130314513Y-129388449D01*
X130302962Y-129410060D01*
X130295849Y-129433509D01*
X130293447Y-129457895D01*
X130293447Y-130382696D01*
X128891447Y-130382696D01*
X128891447Y-129457895D01*
X128889045Y-129433509D01*
X128881932Y-129410060D01*
X128870381Y-129388449D01*
X128854836Y-129369507D01*
X128835894Y-129353962D01*
X128831447Y-129351585D01*
X128831447Y-128602207D01*
X128835894Y-128599830D01*
X128854836Y-128584285D01*
X128870381Y-128565343D01*
X128881932Y-128543732D01*
X128889045Y-128520283D01*
X128891447Y-128495897D01*
X128891447Y-127571096D01*
X130293447Y-127571096D01*
X130293447Y-128495897D01*
X130293447Y-128495897D01*
G37*
G36*
X127838586Y-128101781D02*
G01*
X127876082Y-128113156D01*
X127910641Y-128131628D01*
X127940934Y-128156489D01*
X127965795Y-128186782D01*
X127984267Y-128221341D01*
X127995642Y-128258837D01*
X128000087Y-128303974D01*
X128000087Y-129042698D01*
X127995642Y-129087835D01*
X127984267Y-129125331D01*
X127965795Y-129159890D01*
X127940934Y-129190183D01*
X127910641Y-129215044D01*
X127876082Y-129233516D01*
X127838586Y-129244891D01*
X127793449Y-129249336D01*
X127154725Y-129249336D01*
X127109588Y-129244891D01*
X127072092Y-129233516D01*
X127037533Y-129215044D01*
X127007240Y-129190183D01*
X126982379Y-129159890D01*
X126963907Y-129125331D01*
X126952532Y-129087835D01*
X126948087Y-129042698D01*
X126948087Y-128303974D01*
X126952532Y-128258837D01*
X126963907Y-128221341D01*
X126982379Y-128186782D01*
X127007240Y-128156489D01*
X127037533Y-128131628D01*
X127072092Y-128113156D01*
X127109588Y-128101781D01*
X127154725Y-128097336D01*
X127793449Y-128097336D01*
X127838586Y-128101781D01*
X127838586Y-128101781D01*
G37*
G36*
X113975447Y-129172336D02*
G01*
X113073447Y-129172336D01*
X113073447Y-128170336D01*
X113975447Y-128170336D01*
X113975447Y-129172336D01*
X113975447Y-129172336D01*
G37*
G36*
X112075447Y-129172336D02*
G01*
X111173447Y-129172336D01*
X111173447Y-128170336D01*
X112075447Y-128170336D01*
X112075447Y-129172336D01*
X112075447Y-129172336D01*
G37*
G36*
X110429426Y-128015421D02*
G01*
X110466922Y-128026796D01*
X110501481Y-128045268D01*
X110531774Y-128070129D01*
X110556635Y-128100422D01*
X110575107Y-128134981D01*
X110586482Y-128172477D01*
X110590927Y-128217614D01*
X110590927Y-128956338D01*
X110586482Y-129001475D01*
X110575107Y-129038971D01*
X110556635Y-129073530D01*
X110531774Y-129103823D01*
X110501481Y-129128684D01*
X110466922Y-129147156D01*
X110429426Y-129158531D01*
X110384289Y-129162976D01*
X109745565Y-129162976D01*
X109700428Y-129158531D01*
X109662932Y-129147156D01*
X109628373Y-129128684D01*
X109598080Y-129103823D01*
X109573219Y-129073530D01*
X109554747Y-129038971D01*
X109543372Y-129001475D01*
X109538927Y-128956338D01*
X109538927Y-128217614D01*
X109543372Y-128172477D01*
X109554747Y-128134981D01*
X109573219Y-128100422D01*
X109598080Y-128070129D01*
X109628373Y-128045268D01*
X109662932Y-128026796D01*
X109700428Y-128015421D01*
X109745565Y-128010976D01*
X110384289Y-128010976D01*
X110429426Y-128015421D01*
X110429426Y-128015421D01*
G37*
G36*
X115659786Y-128048941D02*
G01*
X115697282Y-128060316D01*
X115731841Y-128078788D01*
X115762134Y-128103649D01*
X115786995Y-128133942D01*
X115805467Y-128168501D01*
X115816842Y-128205997D01*
X115821287Y-128251134D01*
X115821287Y-128889858D01*
X115816842Y-128934995D01*
X115805467Y-128972491D01*
X115786995Y-129007050D01*
X115762134Y-129037343D01*
X115731841Y-129062204D01*
X115697282Y-129080676D01*
X115659786Y-129092051D01*
X115614649Y-129096496D01*
X114875925Y-129096496D01*
X114830788Y-129092051D01*
X114793292Y-129080676D01*
X114758733Y-129062204D01*
X114728440Y-129037343D01*
X114703579Y-129007050D01*
X114685107Y-128972491D01*
X114673732Y-128934995D01*
X114669287Y-128889858D01*
X114669287Y-128251134D01*
X114673732Y-128205997D01*
X114685107Y-128168501D01*
X114703579Y-128133942D01*
X114728440Y-128103649D01*
X114758733Y-128078788D01*
X114793292Y-128060316D01*
X114830788Y-128048941D01*
X114875925Y-128044496D01*
X115614649Y-128044496D01*
X115659786Y-128048941D01*
X115659786Y-128048941D01*
G37*
G36*
X117409786Y-128048941D02*
G01*
X117447282Y-128060316D01*
X117481841Y-128078788D01*
X117512134Y-128103649D01*
X117536995Y-128133942D01*
X117555467Y-128168501D01*
X117566842Y-128205997D01*
X117571287Y-128251134D01*
X117571287Y-128889858D01*
X117566842Y-128934995D01*
X117555467Y-128972491D01*
X117536995Y-129007050D01*
X117512134Y-129037343D01*
X117481841Y-129062204D01*
X117447282Y-129080676D01*
X117409786Y-129092051D01*
X117364649Y-129096496D01*
X116625925Y-129096496D01*
X116580788Y-129092051D01*
X116543292Y-129080676D01*
X116508733Y-129062204D01*
X116478440Y-129037343D01*
X116453579Y-129007050D01*
X116435107Y-128972491D01*
X116423732Y-128934995D01*
X116419287Y-128889858D01*
X116419287Y-128251134D01*
X116423732Y-128205997D01*
X116435107Y-128168501D01*
X116453579Y-128133942D01*
X116478440Y-128103649D01*
X116508733Y-128078788D01*
X116543292Y-128060316D01*
X116580788Y-128048941D01*
X116625925Y-128044496D01*
X117364649Y-128044496D01*
X117409786Y-128048941D01*
X117409786Y-128048941D01*
G37*
G36*
X127838586Y-126351781D02*
G01*
X127876082Y-126363156D01*
X127910641Y-126381628D01*
X127940934Y-126406489D01*
X127965795Y-126436782D01*
X127984267Y-126471341D01*
X127995642Y-126508837D01*
X128000087Y-126553974D01*
X128000087Y-127292698D01*
X127995642Y-127337835D01*
X127984267Y-127375331D01*
X127965795Y-127409890D01*
X127940934Y-127440183D01*
X127910641Y-127465044D01*
X127876082Y-127483516D01*
X127838586Y-127494891D01*
X127793449Y-127499336D01*
X127154725Y-127499336D01*
X127109588Y-127494891D01*
X127072092Y-127483516D01*
X127037533Y-127465044D01*
X127007240Y-127440183D01*
X126982379Y-127409890D01*
X126963907Y-127375331D01*
X126952532Y-127337835D01*
X126948087Y-127292698D01*
X126948087Y-126553974D01*
X126952532Y-126508837D01*
X126963907Y-126471341D01*
X126982379Y-126436782D01*
X127007240Y-126406489D01*
X127037533Y-126381628D01*
X127072092Y-126363156D01*
X127109588Y-126351781D01*
X127154725Y-126347336D01*
X127793449Y-126347336D01*
X127838586Y-126351781D01*
X127838586Y-126351781D01*
G37*
G36*
X110429426Y-126265421D02*
G01*
X110466922Y-126276796D01*
X110501481Y-126295268D01*
X110531774Y-126320129D01*
X110556635Y-126350422D01*
X110575107Y-126384981D01*
X110586482Y-126422477D01*
X110590927Y-126467614D01*
X110590927Y-127206338D01*
X110586482Y-127251475D01*
X110575107Y-127288971D01*
X110556635Y-127323530D01*
X110531774Y-127353823D01*
X110501481Y-127378684D01*
X110466922Y-127397156D01*
X110429426Y-127408531D01*
X110384289Y-127412976D01*
X109745565Y-127412976D01*
X109700428Y-127408531D01*
X109662932Y-127397156D01*
X109628373Y-127378684D01*
X109598080Y-127353823D01*
X109573219Y-127323530D01*
X109554747Y-127288971D01*
X109543372Y-127251475D01*
X109538927Y-127206338D01*
X109538927Y-126467614D01*
X109543372Y-126422477D01*
X109554747Y-126384981D01*
X109573219Y-126350422D01*
X109598080Y-126320129D01*
X109628373Y-126295268D01*
X109662932Y-126276796D01*
X109700428Y-126265421D01*
X109745565Y-126260976D01*
X110384289Y-126260976D01*
X110429426Y-126265421D01*
X110429426Y-126265421D01*
G37*
G36*
X113025447Y-127172336D02*
G01*
X112123447Y-127172336D01*
X112123447Y-126170336D01*
X113025447Y-126170336D01*
X113025447Y-127172336D01*
X113025447Y-127172336D01*
G37*
G36*
X130127626Y-126022021D02*
G01*
X130165122Y-126033396D01*
X130199681Y-126051868D01*
X130229974Y-126076729D01*
X130254835Y-126107022D01*
X130273307Y-126141581D01*
X130284682Y-126179077D01*
X130289127Y-126224214D01*
X130289127Y-126862938D01*
X130284682Y-126908075D01*
X130273307Y-126945571D01*
X130254835Y-126980130D01*
X130229974Y-127010423D01*
X130199681Y-127035284D01*
X130165122Y-127053756D01*
X130127626Y-127065131D01*
X130082489Y-127069576D01*
X129343765Y-127069576D01*
X129298628Y-127065131D01*
X129261132Y-127053756D01*
X129226573Y-127035284D01*
X129196280Y-127010423D01*
X129171419Y-126980130D01*
X129152947Y-126945571D01*
X129141572Y-126908075D01*
X129137127Y-126862938D01*
X129137127Y-126224214D01*
X129141572Y-126179077D01*
X129152947Y-126141581D01*
X129171419Y-126107022D01*
X129196280Y-126076729D01*
X129226573Y-126051868D01*
X129261132Y-126033396D01*
X129298628Y-126022021D01*
X129343765Y-126017576D01*
X130082489Y-126017576D01*
X130127626Y-126022021D01*
X130127626Y-126022021D01*
G37*
G36*
X131877626Y-126022021D02*
G01*
X131915122Y-126033396D01*
X131949681Y-126051868D01*
X131979974Y-126076729D01*
X132004835Y-126107022D01*
X132023307Y-126141581D01*
X132034682Y-126179077D01*
X132039127Y-126224214D01*
X132039127Y-126862938D01*
X132034682Y-126908075D01*
X132023307Y-126945571D01*
X132004835Y-126980130D01*
X131979974Y-127010423D01*
X131949681Y-127035284D01*
X131915122Y-127053756D01*
X131877626Y-127065131D01*
X131832489Y-127069576D01*
X131093765Y-127069576D01*
X131048628Y-127065131D01*
X131011132Y-127053756D01*
X130976573Y-127035284D01*
X130946280Y-127010423D01*
X130921419Y-126980130D01*
X130902947Y-126945571D01*
X130891572Y-126908075D01*
X130887127Y-126862938D01*
X130887127Y-126224214D01*
X130891572Y-126179077D01*
X130902947Y-126141581D01*
X130921419Y-126107022D01*
X130946280Y-126076729D01*
X130976573Y-126051868D01*
X131011132Y-126033396D01*
X131048628Y-126022021D01*
X131093765Y-126017576D01*
X131832489Y-126017576D01*
X131877626Y-126022021D01*
X131877626Y-126022021D01*
G37*
G36*
X113587407Y-125122216D02*
G01*
X110985407Y-125122216D01*
X110985407Y-123220216D01*
X113587407Y-123220216D01*
X113587407Y-125122216D01*
X113587407Y-125122216D01*
G37*
G36*
X117587407Y-125122216D02*
G01*
X114985407Y-125122216D01*
X114985407Y-123220216D01*
X117587407Y-123220216D01*
X117587407Y-125122216D01*
X117587407Y-125122216D01*
G37*
G36*
X106117899Y-123786045D02*
G01*
X106155395Y-123797420D01*
X106189954Y-123815892D01*
X106220247Y-123840753D01*
X106245108Y-123871046D01*
X106263580Y-123905605D01*
X106274955Y-123943101D01*
X106279400Y-123988238D01*
X106279400Y-124626962D01*
X106274955Y-124672099D01*
X106263580Y-124709595D01*
X106245108Y-124744154D01*
X106220247Y-124774447D01*
X106189954Y-124799308D01*
X106155395Y-124817780D01*
X106117899Y-124829155D01*
X106072762Y-124833600D01*
X105334038Y-124833600D01*
X105288901Y-124829155D01*
X105251405Y-124817780D01*
X105216846Y-124799308D01*
X105186553Y-124774447D01*
X105161692Y-124744154D01*
X105143220Y-124709595D01*
X105131845Y-124672099D01*
X105127400Y-124626962D01*
X105127400Y-123988238D01*
X105131845Y-123943101D01*
X105143220Y-123905605D01*
X105161692Y-123871046D01*
X105186553Y-123840753D01*
X105216846Y-123815892D01*
X105251405Y-123797420D01*
X105288901Y-123786045D01*
X105334038Y-123781600D01*
X106072762Y-123781600D01*
X106117899Y-123786045D01*
X106117899Y-123786045D01*
G37*
G36*
X107867899Y-123786045D02*
G01*
X107905395Y-123797420D01*
X107939954Y-123815892D01*
X107970247Y-123840753D01*
X107995108Y-123871046D01*
X108013580Y-123905605D01*
X108024955Y-123943101D01*
X108029400Y-123988238D01*
X108029400Y-124626962D01*
X108024955Y-124672099D01*
X108013580Y-124709595D01*
X107995108Y-124744154D01*
X107970247Y-124774447D01*
X107939954Y-124799308D01*
X107905395Y-124817780D01*
X107867899Y-124829155D01*
X107822762Y-124833600D01*
X107084038Y-124833600D01*
X107038901Y-124829155D01*
X107001405Y-124817780D01*
X106966846Y-124799308D01*
X106936553Y-124774447D01*
X106911692Y-124744154D01*
X106893220Y-124709595D01*
X106881845Y-124672099D01*
X106877400Y-124626962D01*
X106877400Y-123988238D01*
X106881845Y-123943101D01*
X106893220Y-123905605D01*
X106911692Y-123871046D01*
X106936553Y-123840753D01*
X106966846Y-123815892D01*
X107001405Y-123797420D01*
X107038901Y-123786045D01*
X107084038Y-123781600D01*
X107822762Y-123781600D01*
X107867899Y-123786045D01*
X107867899Y-123786045D01*
G37*
G36*
X106117899Y-120941245D02*
G01*
X106155395Y-120952620D01*
X106189954Y-120971092D01*
X106220247Y-120995953D01*
X106245108Y-121026246D01*
X106263580Y-121060805D01*
X106274955Y-121098301D01*
X106279400Y-121143438D01*
X106279400Y-121782162D01*
X106274955Y-121827299D01*
X106263580Y-121864795D01*
X106245108Y-121899354D01*
X106220247Y-121929647D01*
X106189954Y-121954508D01*
X106155395Y-121972980D01*
X106117899Y-121984355D01*
X106072762Y-121988800D01*
X105334038Y-121988800D01*
X105288901Y-121984355D01*
X105251405Y-121972980D01*
X105216846Y-121954508D01*
X105186553Y-121929647D01*
X105161692Y-121899354D01*
X105143220Y-121864795D01*
X105131845Y-121827299D01*
X105127400Y-121782162D01*
X105127400Y-121143438D01*
X105131845Y-121098301D01*
X105143220Y-121060805D01*
X105161692Y-121026246D01*
X105186553Y-120995953D01*
X105216846Y-120971092D01*
X105251405Y-120952620D01*
X105288901Y-120941245D01*
X105334038Y-120936800D01*
X106072762Y-120936800D01*
X106117899Y-120941245D01*
X106117899Y-120941245D01*
G37*
G36*
X107867899Y-120941245D02*
G01*
X107905395Y-120952620D01*
X107939954Y-120971092D01*
X107970247Y-120995953D01*
X107995108Y-121026246D01*
X108013580Y-121060805D01*
X108024955Y-121098301D01*
X108029400Y-121143438D01*
X108029400Y-121782162D01*
X108024955Y-121827299D01*
X108013580Y-121864795D01*
X107995108Y-121899354D01*
X107970247Y-121929647D01*
X107939954Y-121954508D01*
X107905395Y-121972980D01*
X107867899Y-121984355D01*
X107822762Y-121988800D01*
X107084038Y-121988800D01*
X107038901Y-121984355D01*
X107001405Y-121972980D01*
X106966846Y-121954508D01*
X106936553Y-121929647D01*
X106911692Y-121899354D01*
X106893220Y-121864795D01*
X106881845Y-121827299D01*
X106877400Y-121782162D01*
X106877400Y-121143438D01*
X106881845Y-121098301D01*
X106893220Y-121060805D01*
X106911692Y-121026246D01*
X106936553Y-120995953D01*
X106966846Y-120971092D01*
X107001405Y-120952620D01*
X107038901Y-120941245D01*
X107084038Y-120936800D01*
X107822762Y-120936800D01*
X107867899Y-120941245D01*
X107867899Y-120941245D01*
G37*
G36*
X139628059Y-118911785D02*
G01*
X139665555Y-118923160D01*
X139700114Y-118941632D01*
X139730407Y-118966493D01*
X139755268Y-118996786D01*
X139773740Y-119031345D01*
X139785115Y-119068841D01*
X139789560Y-119113978D01*
X139789560Y-119752702D01*
X139785115Y-119797839D01*
X139773740Y-119835335D01*
X139755268Y-119869894D01*
X139730407Y-119900187D01*
X139700114Y-119925048D01*
X139665555Y-119943520D01*
X139628059Y-119954895D01*
X139582922Y-119959340D01*
X138844198Y-119959340D01*
X138799061Y-119954895D01*
X138761565Y-119943520D01*
X138727006Y-119925048D01*
X138696713Y-119900187D01*
X138671852Y-119869894D01*
X138653380Y-119835335D01*
X138642005Y-119797839D01*
X138637560Y-119752702D01*
X138637560Y-119113978D01*
X138642005Y-119068841D01*
X138653380Y-119031345D01*
X138671852Y-118996786D01*
X138696713Y-118966493D01*
X138727006Y-118941632D01*
X138761565Y-118923160D01*
X138799061Y-118911785D01*
X138844198Y-118907340D01*
X139582922Y-118907340D01*
X139628059Y-118911785D01*
X139628059Y-118911785D01*
G37*
G36*
X137878059Y-118911785D02*
G01*
X137915555Y-118923160D01*
X137950114Y-118941632D01*
X137980407Y-118966493D01*
X138005268Y-118996786D01*
X138023740Y-119031345D01*
X138035115Y-119068841D01*
X138039560Y-119113978D01*
X138039560Y-119752702D01*
X138035115Y-119797839D01*
X138023740Y-119835335D01*
X138005268Y-119869894D01*
X137980407Y-119900187D01*
X137950114Y-119925048D01*
X137915555Y-119943520D01*
X137878059Y-119954895D01*
X137832922Y-119959340D01*
X137094198Y-119959340D01*
X137049061Y-119954895D01*
X137011565Y-119943520D01*
X136977006Y-119925048D01*
X136946713Y-119900187D01*
X136921852Y-119869894D01*
X136903380Y-119835335D01*
X136892005Y-119797839D01*
X136887560Y-119752702D01*
X136887560Y-119113978D01*
X136892005Y-119068841D01*
X136903380Y-119031345D01*
X136921852Y-118996786D01*
X136946713Y-118966493D01*
X136977006Y-118941632D01*
X137011565Y-118923160D01*
X137049061Y-118911785D01*
X137094198Y-118907340D01*
X137832922Y-118907340D01*
X137878059Y-118911785D01*
X137878059Y-118911785D01*
G37*
G36*
X127931359Y-118899085D02*
G01*
X127968855Y-118910460D01*
X128003414Y-118928932D01*
X128033707Y-118953793D01*
X128058568Y-118984086D01*
X128077040Y-119018645D01*
X128088415Y-119056141D01*
X128092860Y-119101278D01*
X128092860Y-119740002D01*
X128088415Y-119785139D01*
X128077040Y-119822635D01*
X128058568Y-119857194D01*
X128033707Y-119887487D01*
X128003414Y-119912348D01*
X127968855Y-119930820D01*
X127931359Y-119942195D01*
X127886222Y-119946640D01*
X127147498Y-119946640D01*
X127102361Y-119942195D01*
X127064865Y-119930820D01*
X127030306Y-119912348D01*
X127000013Y-119887487D01*
X126975152Y-119857194D01*
X126956680Y-119822635D01*
X126945305Y-119785139D01*
X126940860Y-119740002D01*
X126940860Y-119101278D01*
X126945305Y-119056141D01*
X126956680Y-119018645D01*
X126975152Y-118984086D01*
X127000013Y-118953793D01*
X127030306Y-118928932D01*
X127064865Y-118910460D01*
X127102361Y-118899085D01*
X127147498Y-118894640D01*
X127886222Y-118894640D01*
X127931359Y-118899085D01*
X127931359Y-118899085D01*
G37*
G36*
X126181359Y-118899085D02*
G01*
X126218855Y-118910460D01*
X126253414Y-118928932D01*
X126283707Y-118953793D01*
X126308568Y-118984086D01*
X126327040Y-119018645D01*
X126338415Y-119056141D01*
X126342860Y-119101278D01*
X126342860Y-119740002D01*
X126338415Y-119785139D01*
X126327040Y-119822635D01*
X126308568Y-119857194D01*
X126283707Y-119887487D01*
X126253414Y-119912348D01*
X126218855Y-119930820D01*
X126181359Y-119942195D01*
X126136222Y-119946640D01*
X125397498Y-119946640D01*
X125352361Y-119942195D01*
X125314865Y-119930820D01*
X125280306Y-119912348D01*
X125250013Y-119887487D01*
X125225152Y-119857194D01*
X125206680Y-119822635D01*
X125195305Y-119785139D01*
X125190860Y-119740002D01*
X125190860Y-119101278D01*
X125195305Y-119056141D01*
X125206680Y-119018645D01*
X125225152Y-118984086D01*
X125250013Y-118953793D01*
X125280306Y-118928932D01*
X125314865Y-118910460D01*
X125352361Y-118899085D01*
X125397498Y-118894640D01*
X126136222Y-118894640D01*
X126181359Y-118899085D01*
X126181359Y-118899085D01*
G37*
G36*
X120542559Y-118873685D02*
G01*
X120580055Y-118885060D01*
X120614614Y-118903532D01*
X120644907Y-118928393D01*
X120669768Y-118958686D01*
X120688240Y-118993245D01*
X120699615Y-119030741D01*
X120704060Y-119075878D01*
X120704060Y-119714602D01*
X120699615Y-119759739D01*
X120688240Y-119797235D01*
X120669768Y-119831794D01*
X120644907Y-119862087D01*
X120614614Y-119886948D01*
X120580055Y-119905420D01*
X120542559Y-119916795D01*
X120497422Y-119921240D01*
X119758698Y-119921240D01*
X119713561Y-119916795D01*
X119676065Y-119905420D01*
X119641506Y-119886948D01*
X119611213Y-119862087D01*
X119586352Y-119831794D01*
X119567880Y-119797235D01*
X119556505Y-119759739D01*
X119552060Y-119714602D01*
X119552060Y-119075878D01*
X119556505Y-119030741D01*
X119567880Y-118993245D01*
X119586352Y-118958686D01*
X119611213Y-118928393D01*
X119641506Y-118903532D01*
X119676065Y-118885060D01*
X119713561Y-118873685D01*
X119758698Y-118869240D01*
X120497422Y-118869240D01*
X120542559Y-118873685D01*
X120542559Y-118873685D01*
G37*
G36*
X122292559Y-118873685D02*
G01*
X122330055Y-118885060D01*
X122364614Y-118903532D01*
X122394907Y-118928393D01*
X122419768Y-118958686D01*
X122438240Y-118993245D01*
X122449615Y-119030741D01*
X122454060Y-119075878D01*
X122454060Y-119714602D01*
X122449615Y-119759739D01*
X122438240Y-119797235D01*
X122419768Y-119831794D01*
X122394907Y-119862087D01*
X122364614Y-119886948D01*
X122330055Y-119905420D01*
X122292559Y-119916795D01*
X122247422Y-119921240D01*
X121508698Y-119921240D01*
X121463561Y-119916795D01*
X121426065Y-119905420D01*
X121391506Y-119886948D01*
X121361213Y-119862087D01*
X121336352Y-119831794D01*
X121317880Y-119797235D01*
X121306505Y-119759739D01*
X121302060Y-119714602D01*
X121302060Y-119075878D01*
X121306505Y-119030741D01*
X121317880Y-118993245D01*
X121336352Y-118958686D01*
X121361213Y-118928393D01*
X121391506Y-118903532D01*
X121426065Y-118885060D01*
X121463561Y-118873685D01*
X121508698Y-118869240D01*
X122247422Y-118869240D01*
X122292559Y-118873685D01*
X122292559Y-118873685D01*
G37*
G36*
X130270759Y-118810185D02*
G01*
X130308255Y-118821560D01*
X130342814Y-118840032D01*
X130373107Y-118864893D01*
X130397968Y-118895186D01*
X130416440Y-118929745D01*
X130427815Y-118967241D01*
X130432260Y-119012378D01*
X130432260Y-119651102D01*
X130427815Y-119696239D01*
X130416440Y-119733735D01*
X130397968Y-119768294D01*
X130373107Y-119798587D01*
X130342814Y-119823448D01*
X130308255Y-119841920D01*
X130270759Y-119853295D01*
X130225622Y-119857740D01*
X129486898Y-119857740D01*
X129441761Y-119853295D01*
X129404265Y-119841920D01*
X129369706Y-119823448D01*
X129339413Y-119798587D01*
X129314552Y-119768294D01*
X129296080Y-119733735D01*
X129284705Y-119696239D01*
X129280260Y-119651102D01*
X129280260Y-119012378D01*
X129284705Y-118967241D01*
X129296080Y-118929745D01*
X129314552Y-118895186D01*
X129339413Y-118864893D01*
X129369706Y-118840032D01*
X129404265Y-118821560D01*
X129441761Y-118810185D01*
X129486898Y-118805740D01*
X130225622Y-118805740D01*
X130270759Y-118810185D01*
X130270759Y-118810185D01*
G37*
G36*
X132020759Y-118810185D02*
G01*
X132058255Y-118821560D01*
X132092814Y-118840032D01*
X132123107Y-118864893D01*
X132147968Y-118895186D01*
X132166440Y-118929745D01*
X132177815Y-118967241D01*
X132182260Y-119012378D01*
X132182260Y-119651102D01*
X132177815Y-119696239D01*
X132166440Y-119733735D01*
X132147968Y-119768294D01*
X132123107Y-119798587D01*
X132092814Y-119823448D01*
X132058255Y-119841920D01*
X132020759Y-119853295D01*
X131975622Y-119857740D01*
X131236898Y-119857740D01*
X131191761Y-119853295D01*
X131154265Y-119841920D01*
X131119706Y-119823448D01*
X131089413Y-119798587D01*
X131064552Y-119768294D01*
X131046080Y-119733735D01*
X131034705Y-119696239D01*
X131030260Y-119651102D01*
X131030260Y-119012378D01*
X131034705Y-118967241D01*
X131046080Y-118929745D01*
X131064552Y-118895186D01*
X131089413Y-118864893D01*
X131119706Y-118840032D01*
X131154265Y-118821560D01*
X131191761Y-118810185D01*
X131236898Y-118805740D01*
X131975622Y-118805740D01*
X132020759Y-118810185D01*
X132020759Y-118810185D01*
G37*
G36*
X111453939Y-117783525D02*
G01*
X111491435Y-117794900D01*
X111525994Y-117813372D01*
X111556287Y-117838233D01*
X111581148Y-117868526D01*
X111599620Y-117903085D01*
X111610995Y-117940581D01*
X111615440Y-117985718D01*
X111615440Y-118724442D01*
X111610995Y-118769579D01*
X111599620Y-118807075D01*
X111581148Y-118841634D01*
X111556287Y-118871927D01*
X111525994Y-118896788D01*
X111491435Y-118915260D01*
X111453939Y-118926635D01*
X111408802Y-118931080D01*
X110770078Y-118931080D01*
X110724941Y-118926635D01*
X110687445Y-118915260D01*
X110652886Y-118896788D01*
X110622593Y-118871927D01*
X110597732Y-118841634D01*
X110579260Y-118807075D01*
X110567885Y-118769579D01*
X110563440Y-118724442D01*
X110563440Y-117985718D01*
X110567885Y-117940581D01*
X110579260Y-117903085D01*
X110597732Y-117868526D01*
X110622593Y-117838233D01*
X110652886Y-117813372D01*
X110687445Y-117794900D01*
X110724941Y-117783525D01*
X110770078Y-117779080D01*
X111408802Y-117779080D01*
X111453939Y-117783525D01*
X111453939Y-117783525D01*
G37*
G36*
X113902600Y-117834600D02*
G01*
X112900600Y-117834600D01*
X112900600Y-116932600D01*
X113902600Y-116932600D01*
X113902600Y-117834600D01*
X113902600Y-117834600D01*
G37*
G36*
X111453939Y-116033525D02*
G01*
X111491435Y-116044900D01*
X111525994Y-116063372D01*
X111556287Y-116088233D01*
X111581148Y-116118526D01*
X111599620Y-116153085D01*
X111610995Y-116190581D01*
X111615440Y-116235718D01*
X111615440Y-116974442D01*
X111610995Y-117019579D01*
X111599620Y-117057075D01*
X111581148Y-117091634D01*
X111556287Y-117121927D01*
X111525994Y-117146788D01*
X111491435Y-117165260D01*
X111453939Y-117176635D01*
X111408802Y-117181080D01*
X110770078Y-117181080D01*
X110724941Y-117176635D01*
X110687445Y-117165260D01*
X110652886Y-117146788D01*
X110622593Y-117121927D01*
X110597732Y-117091634D01*
X110579260Y-117057075D01*
X110567885Y-117019579D01*
X110563440Y-116974442D01*
X110563440Y-116235718D01*
X110567885Y-116190581D01*
X110579260Y-116153085D01*
X110597732Y-116118526D01*
X110622593Y-116088233D01*
X110652886Y-116063372D01*
X110687445Y-116044900D01*
X110724941Y-116033525D01*
X110770078Y-116029080D01*
X111408802Y-116029080D01*
X111453939Y-116033525D01*
X111453939Y-116033525D01*
G37*
G36*
X131706747Y-115227463D02*
G01*
X131877815Y-115298322D01*
X131877817Y-115298323D01*
X131955318Y-115350108D01*
X132012769Y-115388495D01*
X132031775Y-115401195D01*
X132162705Y-115532125D01*
X132217306Y-115613840D01*
X132265578Y-115686085D01*
X132336437Y-115857153D01*
X132372560Y-116038757D01*
X132372560Y-116223923D01*
X132336437Y-116405527D01*
X132270838Y-116563897D01*
X132265577Y-116576597D01*
X132162705Y-116730555D01*
X132031775Y-116861485D01*
X131877817Y-116964357D01*
X131877816Y-116964358D01*
X131877815Y-116964358D01*
X131706747Y-117035217D01*
X131525143Y-117071340D01*
X131339977Y-117071340D01*
X131158373Y-117035217D01*
X130987305Y-116964358D01*
X130987304Y-116964358D01*
X130987303Y-116964357D01*
X130833345Y-116861485D01*
X130702415Y-116730555D01*
X130599543Y-116576597D01*
X130594282Y-116563897D01*
X130528683Y-116405527D01*
X130492560Y-116223923D01*
X130492560Y-116038757D01*
X130528683Y-115857153D01*
X130599542Y-115686085D01*
X130647815Y-115613840D01*
X130702415Y-115532125D01*
X130833345Y-115401195D01*
X130852352Y-115388495D01*
X130909802Y-115350108D01*
X130987303Y-115298323D01*
X130987305Y-115298322D01*
X131158373Y-115227463D01*
X131339977Y-115191340D01*
X131525143Y-115191340D01*
X131706747Y-115227463D01*
X131706747Y-115227463D01*
G37*
G36*
X138406747Y-115227463D02*
G01*
X138577815Y-115298322D01*
X138577817Y-115298323D01*
X138655318Y-115350108D01*
X138712769Y-115388495D01*
X138731775Y-115401195D01*
X138862705Y-115532125D01*
X138917306Y-115613840D01*
X138965578Y-115686085D01*
X139036437Y-115857153D01*
X139072560Y-116038757D01*
X139072560Y-116223923D01*
X139036437Y-116405527D01*
X138970838Y-116563897D01*
X138965577Y-116576597D01*
X138862705Y-116730555D01*
X138731775Y-116861485D01*
X138577817Y-116964357D01*
X138577816Y-116964358D01*
X138577815Y-116964358D01*
X138406747Y-117035217D01*
X138225143Y-117071340D01*
X138039977Y-117071340D01*
X137858373Y-117035217D01*
X137687305Y-116964358D01*
X137687304Y-116964358D01*
X137687303Y-116964357D01*
X137533345Y-116861485D01*
X137402415Y-116730555D01*
X137299543Y-116576597D01*
X137294282Y-116563897D01*
X137228683Y-116405527D01*
X137192560Y-116223923D01*
X137192560Y-116038757D01*
X137228683Y-115857153D01*
X137299542Y-115686085D01*
X137347815Y-115613840D01*
X137402415Y-115532125D01*
X137533345Y-115401195D01*
X137552352Y-115388495D01*
X137609802Y-115350108D01*
X137687303Y-115298323D01*
X137687305Y-115298322D01*
X137858373Y-115227463D01*
X138039977Y-115191340D01*
X138225143Y-115191340D01*
X138406747Y-115227463D01*
X138406747Y-115227463D01*
G37*
G36*
X120518047Y-115214763D02*
G01*
X120689115Y-115285622D01*
X120689117Y-115285623D01*
X120766618Y-115337408D01*
X120843074Y-115388494D01*
X120974006Y-115519426D01*
X121076878Y-115673385D01*
X121147737Y-115844453D01*
X121183860Y-116026057D01*
X121183860Y-116211223D01*
X121147737Y-116392827D01*
X121076878Y-116563895D01*
X120974006Y-116717854D01*
X120843074Y-116848786D01*
X120766618Y-116899872D01*
X120689117Y-116951657D01*
X120689116Y-116951658D01*
X120689115Y-116951658D01*
X120518047Y-117022517D01*
X120336443Y-117058640D01*
X120151277Y-117058640D01*
X119969673Y-117022517D01*
X119798605Y-116951658D01*
X119798604Y-116951658D01*
X119798603Y-116951657D01*
X119721102Y-116899872D01*
X119644646Y-116848786D01*
X119513714Y-116717854D01*
X119410842Y-116563895D01*
X119339983Y-116392827D01*
X119303860Y-116211223D01*
X119303860Y-116026057D01*
X119339983Y-115844453D01*
X119410842Y-115673385D01*
X119513714Y-115519426D01*
X119644646Y-115388494D01*
X119721102Y-115337408D01*
X119798603Y-115285623D01*
X119798605Y-115285622D01*
X119969673Y-115214763D01*
X120151277Y-115178640D01*
X120336443Y-115178640D01*
X120518047Y-115214763D01*
X120518047Y-115214763D01*
G37*
G36*
X127218047Y-115214763D02*
G01*
X127389115Y-115285622D01*
X127389117Y-115285623D01*
X127466618Y-115337408D01*
X127543074Y-115388494D01*
X127674006Y-115519426D01*
X127776878Y-115673385D01*
X127847737Y-115844453D01*
X127883860Y-116026057D01*
X127883860Y-116211223D01*
X127847737Y-116392827D01*
X127776878Y-116563895D01*
X127674006Y-116717854D01*
X127543074Y-116848786D01*
X127466618Y-116899872D01*
X127389117Y-116951657D01*
X127389116Y-116951658D01*
X127389115Y-116951658D01*
X127218047Y-117022517D01*
X127036443Y-117058640D01*
X126851277Y-117058640D01*
X126669673Y-117022517D01*
X126498605Y-116951658D01*
X126498604Y-116951658D01*
X126498603Y-116951657D01*
X126421102Y-116899872D01*
X126344646Y-116848786D01*
X126213714Y-116717854D01*
X126110842Y-116563895D01*
X126039983Y-116392827D01*
X126003860Y-116211223D01*
X126003860Y-116026057D01*
X126039983Y-115844453D01*
X126110842Y-115673385D01*
X126213714Y-115519426D01*
X126344646Y-115388494D01*
X126421102Y-115337408D01*
X126498603Y-115285623D01*
X126498605Y-115285622D01*
X126669673Y-115214763D01*
X126851277Y-115178640D01*
X127036443Y-115178640D01*
X127218047Y-115214763D01*
X127218047Y-115214763D01*
G37*
G36*
X115902600Y-116884600D02*
G01*
X114900600Y-116884600D01*
X114900600Y-115982600D01*
X115902600Y-115982600D01*
X115902600Y-116884600D01*
X115902600Y-116884600D01*
G37*
G36*
X113902600Y-115934600D02*
G01*
X112900600Y-115934600D01*
X112900600Y-115032600D01*
X113902600Y-115032600D01*
X113902600Y-115934600D01*
X113902600Y-115934600D01*
G37*
G36*
X111453939Y-114466285D02*
G01*
X111491435Y-114477660D01*
X111525994Y-114496132D01*
X111556287Y-114520993D01*
X111581148Y-114551286D01*
X111599620Y-114585845D01*
X111610995Y-114623341D01*
X111615440Y-114668478D01*
X111615440Y-115407202D01*
X111610995Y-115452339D01*
X111599620Y-115489835D01*
X111581148Y-115524394D01*
X111556287Y-115554687D01*
X111525994Y-115579548D01*
X111491435Y-115598020D01*
X111453939Y-115609395D01*
X111408802Y-115613840D01*
X110770078Y-115613840D01*
X110724941Y-115609395D01*
X110687445Y-115598020D01*
X110652886Y-115579548D01*
X110622593Y-115554687D01*
X110597732Y-115524394D01*
X110579260Y-115489835D01*
X110567885Y-115452339D01*
X110563440Y-115407202D01*
X110563440Y-114668478D01*
X110567885Y-114623341D01*
X110579260Y-114585845D01*
X110597732Y-114551286D01*
X110622593Y-114520993D01*
X110652886Y-114496132D01*
X110687445Y-114477660D01*
X110724941Y-114466285D01*
X110770078Y-114461840D01*
X111408802Y-114461840D01*
X111453939Y-114466285D01*
X111453939Y-114466285D01*
G37*
G36*
X131706747Y-112687463D02*
G01*
X131877815Y-112758322D01*
X131877817Y-112758323D01*
X131896779Y-112770993D01*
X132031774Y-112861194D01*
X132162706Y-112992126D01*
X132265578Y-113146085D01*
X132336437Y-113317153D01*
X132372560Y-113498757D01*
X132372560Y-113683923D01*
X132336437Y-113865527D01*
X132270838Y-114023897D01*
X132265577Y-114036597D01*
X132162705Y-114190555D01*
X132031775Y-114321485D01*
X131877817Y-114424357D01*
X131877816Y-114424358D01*
X131877815Y-114424358D01*
X131706747Y-114495217D01*
X131525143Y-114531340D01*
X131339977Y-114531340D01*
X131158373Y-114495217D01*
X130987305Y-114424358D01*
X130987304Y-114424358D01*
X130987303Y-114424357D01*
X130833345Y-114321485D01*
X130702415Y-114190555D01*
X130599543Y-114036597D01*
X130594282Y-114023897D01*
X130528683Y-113865527D01*
X130492560Y-113683923D01*
X130492560Y-113498757D01*
X130528683Y-113317153D01*
X130599542Y-113146085D01*
X130702414Y-112992126D01*
X130833346Y-112861194D01*
X130968341Y-112770993D01*
X130987303Y-112758323D01*
X130987305Y-112758322D01*
X131158373Y-112687463D01*
X131339977Y-112651340D01*
X131525143Y-112651340D01*
X131706747Y-112687463D01*
X131706747Y-112687463D01*
G37*
G36*
X138406747Y-112687463D02*
G01*
X138577815Y-112758322D01*
X138577817Y-112758323D01*
X138596779Y-112770993D01*
X138731774Y-112861194D01*
X138862706Y-112992126D01*
X138965578Y-113146085D01*
X139036437Y-113317153D01*
X139072560Y-113498757D01*
X139072560Y-113683923D01*
X139036437Y-113865527D01*
X138970838Y-114023897D01*
X138965577Y-114036597D01*
X138862705Y-114190555D01*
X138731775Y-114321485D01*
X138577817Y-114424357D01*
X138577816Y-114424358D01*
X138577815Y-114424358D01*
X138406747Y-114495217D01*
X138225143Y-114531340D01*
X138039977Y-114531340D01*
X137858373Y-114495217D01*
X137687305Y-114424358D01*
X137687304Y-114424358D01*
X137687303Y-114424357D01*
X137533345Y-114321485D01*
X137402415Y-114190555D01*
X137299543Y-114036597D01*
X137294282Y-114023897D01*
X137228683Y-113865527D01*
X137192560Y-113683923D01*
X137192560Y-113498757D01*
X137228683Y-113317153D01*
X137299542Y-113146085D01*
X137402414Y-112992126D01*
X137533346Y-112861194D01*
X137668341Y-112770993D01*
X137687303Y-112758323D01*
X137687305Y-112758322D01*
X137858373Y-112687463D01*
X138039977Y-112651340D01*
X138225143Y-112651340D01*
X138406747Y-112687463D01*
X138406747Y-112687463D01*
G37*
G36*
X127218047Y-112674763D02*
G01*
X127389115Y-112745622D01*
X127389117Y-112745623D01*
X127453842Y-112788871D01*
X127543074Y-112848494D01*
X127674006Y-112979426D01*
X127776878Y-113133385D01*
X127847737Y-113304453D01*
X127883860Y-113486057D01*
X127883860Y-113671223D01*
X127847737Y-113852827D01*
X127776878Y-114023895D01*
X127674006Y-114177854D01*
X127543074Y-114308786D01*
X127524067Y-114321486D01*
X127389117Y-114411657D01*
X127389116Y-114411658D01*
X127389115Y-114411658D01*
X127218047Y-114482517D01*
X127036443Y-114518640D01*
X126851277Y-114518640D01*
X126669673Y-114482517D01*
X126498605Y-114411658D01*
X126498604Y-114411658D01*
X126498603Y-114411657D01*
X126363653Y-114321486D01*
X126344646Y-114308786D01*
X126213714Y-114177854D01*
X126110842Y-114023895D01*
X126039983Y-113852827D01*
X126003860Y-113671223D01*
X126003860Y-113486057D01*
X126039983Y-113304453D01*
X126110842Y-113133385D01*
X126213714Y-112979426D01*
X126344646Y-112848494D01*
X126433878Y-112788871D01*
X126498603Y-112745623D01*
X126498605Y-112745622D01*
X126669673Y-112674763D01*
X126851277Y-112638640D01*
X127036443Y-112638640D01*
X127218047Y-112674763D01*
X127218047Y-112674763D01*
G37*
G36*
X120518047Y-112674763D02*
G01*
X120689115Y-112745622D01*
X120689117Y-112745623D01*
X120753842Y-112788871D01*
X120843074Y-112848494D01*
X120974006Y-112979426D01*
X121076878Y-113133385D01*
X121147737Y-113304453D01*
X121183860Y-113486057D01*
X121183860Y-113671223D01*
X121147737Y-113852827D01*
X121076878Y-114023895D01*
X120974006Y-114177854D01*
X120843074Y-114308786D01*
X120824067Y-114321486D01*
X120689117Y-114411657D01*
X120689116Y-114411658D01*
X120689115Y-114411658D01*
X120518047Y-114482517D01*
X120336443Y-114518640D01*
X120151277Y-114518640D01*
X119969673Y-114482517D01*
X119798605Y-114411658D01*
X119798604Y-114411658D01*
X119798603Y-114411657D01*
X119663653Y-114321486D01*
X119644646Y-114308786D01*
X119513714Y-114177854D01*
X119410842Y-114023895D01*
X119339983Y-113852827D01*
X119303860Y-113671223D01*
X119303860Y-113486057D01*
X119339983Y-113304453D01*
X119410842Y-113133385D01*
X119513714Y-112979426D01*
X119644646Y-112848494D01*
X119733878Y-112788871D01*
X119798603Y-112745623D01*
X119798605Y-112745622D01*
X119969673Y-112674763D01*
X120151277Y-112638640D01*
X120336443Y-112638640D01*
X120518047Y-112674763D01*
X120518047Y-112674763D01*
G37*
G36*
X111453939Y-112716285D02*
G01*
X111491435Y-112727660D01*
X111525994Y-112746132D01*
X111556287Y-112770993D01*
X111581148Y-112801286D01*
X111599620Y-112835845D01*
X111610995Y-112873341D01*
X111615440Y-112918478D01*
X111615440Y-113657202D01*
X111610995Y-113702339D01*
X111599620Y-113739835D01*
X111581148Y-113774394D01*
X111556287Y-113804687D01*
X111525994Y-113829548D01*
X111491435Y-113848020D01*
X111453939Y-113859395D01*
X111408802Y-113863840D01*
X110770078Y-113863840D01*
X110724941Y-113859395D01*
X110687445Y-113848020D01*
X110652886Y-113829548D01*
X110622593Y-113804687D01*
X110597732Y-113774394D01*
X110579260Y-113739835D01*
X110567885Y-113702339D01*
X110563440Y-113657202D01*
X110563440Y-112918478D01*
X110567885Y-112873341D01*
X110579260Y-112835845D01*
X110597732Y-112801286D01*
X110622593Y-112770993D01*
X110652886Y-112746132D01*
X110687445Y-112727660D01*
X110724941Y-112716285D01*
X110770078Y-112711840D01*
X111408802Y-112711840D01*
X111453939Y-112716285D01*
X111453939Y-112716285D01*
G37*
G36*
X109228899Y-111174445D02*
G01*
X109266395Y-111185820D01*
X109300954Y-111204292D01*
X109331247Y-111229153D01*
X109356108Y-111259446D01*
X109374580Y-111294005D01*
X109385955Y-111331501D01*
X109390400Y-111376638D01*
X109390400Y-112115362D01*
X109385955Y-112160499D01*
X109374580Y-112197995D01*
X109356108Y-112232554D01*
X109331247Y-112262847D01*
X109300954Y-112287708D01*
X109266395Y-112306180D01*
X109228899Y-112317555D01*
X109183762Y-112322000D01*
X108545038Y-112322000D01*
X108499901Y-112317555D01*
X108462405Y-112306180D01*
X108427846Y-112287708D01*
X108397553Y-112262847D01*
X108372692Y-112232554D01*
X108354220Y-112197995D01*
X108342845Y-112160499D01*
X108338400Y-112115362D01*
X108338400Y-111376638D01*
X108342845Y-111331501D01*
X108354220Y-111294005D01*
X108372692Y-111259446D01*
X108397553Y-111229153D01*
X108427846Y-111204292D01*
X108462405Y-111185820D01*
X108499901Y-111174445D01*
X108545038Y-111170000D01*
X109183762Y-111170000D01*
X109228899Y-111174445D01*
X109228899Y-111174445D01*
G37*
G36*
X114738659Y-110237685D02*
G01*
X114776155Y-110249060D01*
X114810714Y-110267532D01*
X114841007Y-110292393D01*
X114865868Y-110322686D01*
X114884340Y-110357245D01*
X114895715Y-110394741D01*
X114900160Y-110439878D01*
X114900160Y-111078602D01*
X114895715Y-111123739D01*
X114884340Y-111161235D01*
X114865868Y-111195794D01*
X114841007Y-111226087D01*
X114810714Y-111250948D01*
X114776155Y-111269420D01*
X114738659Y-111280795D01*
X114693522Y-111285240D01*
X113954798Y-111285240D01*
X113909661Y-111280795D01*
X113872165Y-111269420D01*
X113837606Y-111250948D01*
X113807313Y-111226087D01*
X113782452Y-111195794D01*
X113763980Y-111161235D01*
X113752605Y-111123739D01*
X113748160Y-111078602D01*
X113748160Y-110439878D01*
X113752605Y-110394741D01*
X113763980Y-110357245D01*
X113782452Y-110322686D01*
X113807313Y-110292393D01*
X113837606Y-110267532D01*
X113872165Y-110249060D01*
X113909661Y-110237685D01*
X113954798Y-110233240D01*
X114693522Y-110233240D01*
X114738659Y-110237685D01*
X114738659Y-110237685D01*
G37*
G36*
X116488659Y-110237685D02*
G01*
X116526155Y-110249060D01*
X116560714Y-110267532D01*
X116591007Y-110292393D01*
X116615868Y-110322686D01*
X116634340Y-110357245D01*
X116645715Y-110394741D01*
X116650160Y-110439878D01*
X116650160Y-111078602D01*
X116645715Y-111123739D01*
X116634340Y-111161235D01*
X116615868Y-111195794D01*
X116591007Y-111226087D01*
X116560714Y-111250948D01*
X116526155Y-111269420D01*
X116488659Y-111280795D01*
X116443522Y-111285240D01*
X115704798Y-111285240D01*
X115659661Y-111280795D01*
X115622165Y-111269420D01*
X115587606Y-111250948D01*
X115557313Y-111226087D01*
X115532452Y-111195794D01*
X115513980Y-111161235D01*
X115502605Y-111123739D01*
X115498160Y-111078602D01*
X115498160Y-110439878D01*
X115502605Y-110394741D01*
X115513980Y-110357245D01*
X115532452Y-110322686D01*
X115557313Y-110292393D01*
X115587606Y-110267532D01*
X115622165Y-110249060D01*
X115659661Y-110237685D01*
X115704798Y-110233240D01*
X116443522Y-110233240D01*
X116488659Y-110237685D01*
X116488659Y-110237685D01*
G37*
G36*
X121660099Y-110095445D02*
G01*
X121697595Y-110106820D01*
X121732154Y-110125292D01*
X121762447Y-110150153D01*
X121787308Y-110180446D01*
X121805780Y-110215005D01*
X121817155Y-110252501D01*
X121821600Y-110297638D01*
X121821600Y-110936362D01*
X121817155Y-110981499D01*
X121805780Y-111018995D01*
X121787308Y-111053554D01*
X121762447Y-111083847D01*
X121732154Y-111108708D01*
X121697595Y-111127180D01*
X121660099Y-111138555D01*
X121614962Y-111143000D01*
X120876238Y-111143000D01*
X120831101Y-111138555D01*
X120793605Y-111127180D01*
X120759046Y-111108708D01*
X120728753Y-111083847D01*
X120703892Y-111053554D01*
X120685420Y-111018995D01*
X120674045Y-110981499D01*
X120669600Y-110936362D01*
X120669600Y-110297638D01*
X120674045Y-110252501D01*
X120685420Y-110215005D01*
X120703892Y-110180446D01*
X120728753Y-110150153D01*
X120759046Y-110125292D01*
X120793605Y-110106820D01*
X120831101Y-110095445D01*
X120876238Y-110091000D01*
X121614962Y-110091000D01*
X121660099Y-110095445D01*
X121660099Y-110095445D01*
G37*
G36*
X119910099Y-110095445D02*
G01*
X119947595Y-110106820D01*
X119982154Y-110125292D01*
X120012447Y-110150153D01*
X120037308Y-110180446D01*
X120055780Y-110215005D01*
X120067155Y-110252501D01*
X120071600Y-110297638D01*
X120071600Y-110936362D01*
X120067155Y-110981499D01*
X120055780Y-111018995D01*
X120037308Y-111053554D01*
X120012447Y-111083847D01*
X119982154Y-111108708D01*
X119947595Y-111127180D01*
X119910099Y-111138555D01*
X119864962Y-111143000D01*
X119126238Y-111143000D01*
X119081101Y-111138555D01*
X119043605Y-111127180D01*
X119009046Y-111108708D01*
X118978753Y-111083847D01*
X118953892Y-111053554D01*
X118935420Y-111018995D01*
X118924045Y-110981499D01*
X118919600Y-110936362D01*
X118919600Y-110297638D01*
X118924045Y-110252501D01*
X118935420Y-110215005D01*
X118953892Y-110180446D01*
X118978753Y-110150153D01*
X119009046Y-110125292D01*
X119043605Y-110106820D01*
X119081101Y-110095445D01*
X119126238Y-110091000D01*
X119864962Y-110091000D01*
X119910099Y-110095445D01*
X119910099Y-110095445D01*
G37*
G36*
X109228899Y-109424445D02*
G01*
X109266395Y-109435820D01*
X109300954Y-109454292D01*
X109331247Y-109479153D01*
X109356108Y-109509446D01*
X109374580Y-109544005D01*
X109385955Y-109581501D01*
X109390400Y-109626638D01*
X109390400Y-110365362D01*
X109385955Y-110410499D01*
X109374580Y-110447995D01*
X109356108Y-110482554D01*
X109331247Y-110512847D01*
X109300954Y-110537708D01*
X109266395Y-110556180D01*
X109228899Y-110567555D01*
X109183762Y-110572000D01*
X108545038Y-110572000D01*
X108499901Y-110567555D01*
X108462405Y-110556180D01*
X108427846Y-110537708D01*
X108397553Y-110512847D01*
X108372692Y-110482554D01*
X108354220Y-110447995D01*
X108342845Y-110410499D01*
X108338400Y-110365362D01*
X108338400Y-109626638D01*
X108342845Y-109581501D01*
X108354220Y-109544005D01*
X108372692Y-109509446D01*
X108397553Y-109479153D01*
X108427846Y-109454292D01*
X108462405Y-109435820D01*
X108499901Y-109424445D01*
X108545038Y-109420000D01*
X109183762Y-109420000D01*
X109228899Y-109424445D01*
X109228899Y-109424445D01*
G37*
G36*
X127133859Y-108726385D02*
G01*
X127171355Y-108737760D01*
X127205914Y-108756232D01*
X127236207Y-108781093D01*
X127261068Y-108811386D01*
X127279540Y-108845945D01*
X127290915Y-108883441D01*
X127295360Y-108928578D01*
X127295360Y-109567302D01*
X127290915Y-109612439D01*
X127279540Y-109649935D01*
X127261068Y-109684494D01*
X127236207Y-109714787D01*
X127205914Y-109739648D01*
X127171355Y-109758120D01*
X127133859Y-109769495D01*
X127088722Y-109773940D01*
X126349998Y-109773940D01*
X126304861Y-109769495D01*
X126267365Y-109758120D01*
X126232806Y-109739648D01*
X126202513Y-109714787D01*
X126177652Y-109684494D01*
X126159180Y-109649935D01*
X126147805Y-109612439D01*
X126143360Y-109567302D01*
X126143360Y-108928578D01*
X126147805Y-108883441D01*
X126159180Y-108845945D01*
X126177652Y-108811386D01*
X126202513Y-108781093D01*
X126232806Y-108756232D01*
X126267365Y-108737760D01*
X126304861Y-108726385D01*
X126349998Y-108721940D01*
X127088722Y-108721940D01*
X127133859Y-108726385D01*
X127133859Y-108726385D01*
G37*
G36*
X128883859Y-108726385D02*
G01*
X128921355Y-108737760D01*
X128955914Y-108756232D01*
X128986207Y-108781093D01*
X129011068Y-108811386D01*
X129029540Y-108845945D01*
X129040915Y-108883441D01*
X129045360Y-108928578D01*
X129045360Y-109567302D01*
X129040915Y-109612439D01*
X129029540Y-109649935D01*
X129011068Y-109684494D01*
X128986207Y-109714787D01*
X128955914Y-109739648D01*
X128921355Y-109758120D01*
X128883859Y-109769495D01*
X128838722Y-109773940D01*
X128099998Y-109773940D01*
X128054861Y-109769495D01*
X128017365Y-109758120D01*
X127982806Y-109739648D01*
X127952513Y-109714787D01*
X127927652Y-109684494D01*
X127909180Y-109649935D01*
X127897805Y-109612439D01*
X127893360Y-109567302D01*
X127893360Y-108928578D01*
X127897805Y-108883441D01*
X127909180Y-108845945D01*
X127927652Y-108811386D01*
X127952513Y-108781093D01*
X127982806Y-108756232D01*
X128017365Y-108737760D01*
X128054861Y-108726385D01*
X128099998Y-108721940D01*
X128838722Y-108721940D01*
X128883859Y-108726385D01*
X128883859Y-108726385D01*
G37*
G36*
X116488659Y-108713685D02*
G01*
X116526155Y-108725060D01*
X116560714Y-108743532D01*
X116591007Y-108768393D01*
X116615868Y-108798686D01*
X116634340Y-108833245D01*
X116645715Y-108870741D01*
X116650160Y-108915878D01*
X116650160Y-109554602D01*
X116645715Y-109599739D01*
X116634340Y-109637235D01*
X116615868Y-109671794D01*
X116591007Y-109702087D01*
X116560714Y-109726948D01*
X116526155Y-109745420D01*
X116488659Y-109756795D01*
X116443522Y-109761240D01*
X115704798Y-109761240D01*
X115659661Y-109756795D01*
X115622165Y-109745420D01*
X115587606Y-109726948D01*
X115557313Y-109702087D01*
X115532452Y-109671794D01*
X115513980Y-109637235D01*
X115502605Y-109599739D01*
X115498160Y-109554602D01*
X115498160Y-108915878D01*
X115502605Y-108870741D01*
X115513980Y-108833245D01*
X115532452Y-108798686D01*
X115557313Y-108768393D01*
X115587606Y-108743532D01*
X115622165Y-108725060D01*
X115659661Y-108713685D01*
X115704798Y-108709240D01*
X116443522Y-108709240D01*
X116488659Y-108713685D01*
X116488659Y-108713685D01*
G37*
G36*
X114738659Y-108713685D02*
G01*
X114776155Y-108725060D01*
X114810714Y-108743532D01*
X114841007Y-108768393D01*
X114865868Y-108798686D01*
X114884340Y-108833245D01*
X114895715Y-108870741D01*
X114900160Y-108915878D01*
X114900160Y-109554602D01*
X114895715Y-109599739D01*
X114884340Y-109637235D01*
X114865868Y-109671794D01*
X114841007Y-109702087D01*
X114810714Y-109726948D01*
X114776155Y-109745420D01*
X114738659Y-109756795D01*
X114693522Y-109761240D01*
X113954798Y-109761240D01*
X113909661Y-109756795D01*
X113872165Y-109745420D01*
X113837606Y-109726948D01*
X113807313Y-109702087D01*
X113782452Y-109671794D01*
X113763980Y-109637235D01*
X113752605Y-109599739D01*
X113748160Y-109554602D01*
X113748160Y-108915878D01*
X113752605Y-108870741D01*
X113763980Y-108833245D01*
X113782452Y-108798686D01*
X113807313Y-108768393D01*
X113837606Y-108743532D01*
X113872165Y-108725060D01*
X113909661Y-108713685D01*
X113954798Y-108709240D01*
X114693522Y-108709240D01*
X114738659Y-108713685D01*
X114738659Y-108713685D01*
G37*
G36*
X125760160Y-109674240D02*
G01*
X119878160Y-109674240D01*
X119878160Y-108012240D01*
X125760160Y-108012240D01*
X125760160Y-109674240D01*
X125760160Y-109674240D01*
G37*
G36*
X119470160Y-107604240D02*
G01*
X117808160Y-107604240D01*
X117808160Y-101722240D01*
X119470160Y-101722240D01*
X119470160Y-107604240D01*
X119470160Y-107604240D01*
G37*
G36*
X127830160Y-107604240D02*
G01*
X126168160Y-107604240D01*
X126168160Y-101722240D01*
X127830160Y-101722240D01*
X127830160Y-107604240D01*
X127830160Y-107604240D01*
G37*
G36*
X110352802Y-104836021D02*
G01*
X110498574Y-104896402D01*
X110498576Y-104896403D01*
X110629768Y-104984062D01*
X110741338Y-105095632D01*
X110792632Y-105172400D01*
X110828998Y-105226826D01*
X110889379Y-105372598D01*
X110920160Y-105527347D01*
X110920160Y-105685133D01*
X110889379Y-105839882D01*
X110839044Y-105961400D01*
X110828997Y-105985656D01*
X110741338Y-106116848D01*
X110629768Y-106228418D01*
X110498576Y-106316077D01*
X110498575Y-106316078D01*
X110498574Y-106316078D01*
X110352802Y-106376459D01*
X110198053Y-106407240D01*
X110040267Y-106407240D01*
X109885518Y-106376459D01*
X109739746Y-106316078D01*
X109739745Y-106316078D01*
X109739744Y-106316077D01*
X109608552Y-106228418D01*
X109496982Y-106116848D01*
X109409323Y-105985656D01*
X109399276Y-105961400D01*
X109348941Y-105839882D01*
X109318160Y-105685133D01*
X109318160Y-105527347D01*
X109348941Y-105372598D01*
X109409322Y-105226826D01*
X109445688Y-105172400D01*
X109496982Y-105095632D01*
X109608552Y-104984062D01*
X109739744Y-104896403D01*
X109739746Y-104896402D01*
X109885518Y-104836021D01*
X110040267Y-104805240D01*
X110198053Y-104805240D01*
X110352802Y-104836021D01*
X110352802Y-104836021D01*
G37*
G36*
X116046699Y-104913845D02*
G01*
X116084195Y-104925220D01*
X116118754Y-104943692D01*
X116149047Y-104968553D01*
X116173908Y-104998846D01*
X116192380Y-105033405D01*
X116203755Y-105070901D01*
X116208200Y-105116038D01*
X116208200Y-105754762D01*
X116203755Y-105799899D01*
X116192380Y-105837395D01*
X116173908Y-105871954D01*
X116149047Y-105902247D01*
X116118754Y-105927108D01*
X116084195Y-105945580D01*
X116046699Y-105956955D01*
X116001562Y-105961400D01*
X115262838Y-105961400D01*
X115217701Y-105956955D01*
X115180205Y-105945580D01*
X115145646Y-105927108D01*
X115115353Y-105902247D01*
X115090492Y-105871954D01*
X115072020Y-105837395D01*
X115060645Y-105799899D01*
X115056200Y-105754762D01*
X115056200Y-105116038D01*
X115060645Y-105070901D01*
X115072020Y-105033405D01*
X115090492Y-104998846D01*
X115115353Y-104968553D01*
X115145646Y-104943692D01*
X115180205Y-104925220D01*
X115217701Y-104913845D01*
X115262838Y-104909400D01*
X116001562Y-104909400D01*
X116046699Y-104913845D01*
X116046699Y-104913845D01*
G37*
G36*
X114296699Y-104913845D02*
G01*
X114334195Y-104925220D01*
X114368754Y-104943692D01*
X114399047Y-104968553D01*
X114423908Y-104998846D01*
X114442380Y-105033405D01*
X114453755Y-105070901D01*
X114458200Y-105116038D01*
X114458200Y-105754762D01*
X114453755Y-105799899D01*
X114442380Y-105837395D01*
X114423908Y-105871954D01*
X114399047Y-105902247D01*
X114368754Y-105927108D01*
X114334195Y-105945580D01*
X114296699Y-105956955D01*
X114251562Y-105961400D01*
X113512838Y-105961400D01*
X113467701Y-105956955D01*
X113430205Y-105945580D01*
X113395646Y-105927108D01*
X113365353Y-105902247D01*
X113340492Y-105871954D01*
X113322020Y-105837395D01*
X113310645Y-105799899D01*
X113306200Y-105754762D01*
X113306200Y-105116038D01*
X113310645Y-105070901D01*
X113322020Y-105033405D01*
X113340492Y-104998846D01*
X113365353Y-104968553D01*
X113395646Y-104943692D01*
X113430205Y-104925220D01*
X113467701Y-104913845D01*
X113512838Y-104909400D01*
X114251562Y-104909400D01*
X114296699Y-104913845D01*
X114296699Y-104913845D01*
G37*
G36*
X135282240Y-105767440D02*
G01*
X133480240Y-105767440D01*
X133480240Y-103965440D01*
X135282240Y-103965440D01*
X135282240Y-105767440D01*
X135282240Y-105767440D01*
G37*
G36*
X134491683Y-101431959D02*
G01*
X134557867Y-101438477D01*
X134727706Y-101489997D01*
X134727708Y-101489998D01*
X134797382Y-101527240D01*
X134884231Y-101573662D01*
X134919969Y-101602992D01*
X135021426Y-101686254D01*
X135104688Y-101787711D01*
X135134018Y-101823449D01*
X135217683Y-101979974D01*
X135269203Y-102149813D01*
X135286599Y-102326440D01*
X135269203Y-102503067D01*
X135217683Y-102672906D01*
X135134018Y-102829431D01*
X135104688Y-102865169D01*
X135021426Y-102966626D01*
X134919969Y-103049888D01*
X134884231Y-103079218D01*
X134727706Y-103162883D01*
X134557867Y-103214403D01*
X134491683Y-103220921D01*
X134425500Y-103227440D01*
X134336980Y-103227440D01*
X134270798Y-103220922D01*
X134204613Y-103214403D01*
X134034774Y-103162883D01*
X133878249Y-103079218D01*
X133842511Y-103049888D01*
X133741054Y-102966626D01*
X133657792Y-102865169D01*
X133628462Y-102829431D01*
X133544797Y-102672906D01*
X133493277Y-102503067D01*
X133475881Y-102326440D01*
X133493277Y-102149813D01*
X133544797Y-101979974D01*
X133628462Y-101823449D01*
X133657792Y-101787711D01*
X133741054Y-101686254D01*
X133842511Y-101602992D01*
X133878249Y-101573662D01*
X133965098Y-101527240D01*
X134034772Y-101489998D01*
X134034774Y-101489997D01*
X134204613Y-101438477D01*
X134270797Y-101431959D01*
X134336980Y-101425440D01*
X134425500Y-101425440D01*
X134491683Y-101431959D01*
X134491683Y-101431959D01*
G37*
G36*
X115563659Y-101043685D02*
G01*
X115601155Y-101055060D01*
X115635714Y-101073532D01*
X115666007Y-101098393D01*
X115690868Y-101128686D01*
X115709340Y-101163245D01*
X115720715Y-101200741D01*
X115725160Y-101245878D01*
X115725160Y-101984602D01*
X115720715Y-102029739D01*
X115709340Y-102067235D01*
X115690868Y-102101794D01*
X115666007Y-102132087D01*
X115635714Y-102156948D01*
X115601155Y-102175420D01*
X115563659Y-102186795D01*
X115518522Y-102191240D01*
X114879798Y-102191240D01*
X114834661Y-102186795D01*
X114797165Y-102175420D01*
X114762606Y-102156948D01*
X114732313Y-102132087D01*
X114707452Y-102101794D01*
X114688980Y-102067235D01*
X114677605Y-102029739D01*
X114673160Y-101984602D01*
X114673160Y-101245878D01*
X114677605Y-101200741D01*
X114688980Y-101163245D01*
X114707452Y-101128686D01*
X114732313Y-101098393D01*
X114762606Y-101073532D01*
X114797165Y-101055060D01*
X114834661Y-101043685D01*
X114879798Y-101039240D01*
X115518522Y-101039240D01*
X115563659Y-101043685D01*
X115563659Y-101043685D01*
G37*
G36*
X110352802Y-99956021D02*
G01*
X110490486Y-100013052D01*
X110498576Y-100016403D01*
X110629768Y-100104062D01*
X110741338Y-100215632D01*
X110828997Y-100346824D01*
X110828998Y-100346826D01*
X110889379Y-100492598D01*
X110920160Y-100647347D01*
X110920160Y-100805133D01*
X110889379Y-100959882D01*
X110828998Y-101105654D01*
X110828997Y-101105656D01*
X110741338Y-101236848D01*
X110629768Y-101348418D01*
X110498576Y-101436077D01*
X110498575Y-101436078D01*
X110498574Y-101436078D01*
X110352802Y-101496459D01*
X110198053Y-101527240D01*
X110040267Y-101527240D01*
X109885518Y-101496459D01*
X109739746Y-101436078D01*
X109739745Y-101436078D01*
X109739744Y-101436077D01*
X109608552Y-101348418D01*
X109496982Y-101236848D01*
X109409323Y-101105656D01*
X109409322Y-101105654D01*
X109348941Y-100959882D01*
X109318160Y-100805133D01*
X109318160Y-100647347D01*
X109348941Y-100492598D01*
X109409322Y-100346826D01*
X109409323Y-100346824D01*
X109496982Y-100215632D01*
X109608552Y-100104062D01*
X109739744Y-100016403D01*
X109747834Y-100013052D01*
X109885518Y-99956021D01*
X110040267Y-99925240D01*
X110198053Y-99925240D01*
X110352802Y-99956021D01*
X110352802Y-99956021D01*
G37*
G36*
X125760160Y-101314240D02*
G01*
X119878160Y-101314240D01*
X119878160Y-99652240D01*
X125760160Y-99652240D01*
X125760160Y-101314240D01*
X125760160Y-101314240D01*
G37*
G36*
X127892819Y-99983205D02*
G01*
X127930315Y-99994580D01*
X127964874Y-100013052D01*
X127995167Y-100037913D01*
X128020028Y-100068206D01*
X128038500Y-100102765D01*
X128049875Y-100140261D01*
X128054320Y-100185398D01*
X128054320Y-100924122D01*
X128049875Y-100969259D01*
X128038500Y-101006755D01*
X128020028Y-101041314D01*
X127995167Y-101071607D01*
X127964874Y-101096468D01*
X127930315Y-101114940D01*
X127892819Y-101126315D01*
X127847682Y-101130760D01*
X127208958Y-101130760D01*
X127163821Y-101126315D01*
X127126325Y-101114940D01*
X127091766Y-101096468D01*
X127061473Y-101071607D01*
X127036612Y-101041314D01*
X127018140Y-101006755D01*
X127006765Y-100969259D01*
X127002320Y-100924122D01*
X127002320Y-100185398D01*
X127006765Y-100140261D01*
X127018140Y-100102765D01*
X127036612Y-100068206D01*
X127061473Y-100037913D01*
X127091766Y-100013052D01*
X127126325Y-99994580D01*
X127163821Y-99983205D01*
X127208958Y-99978760D01*
X127847682Y-99978760D01*
X127892819Y-99983205D01*
X127892819Y-99983205D01*
G37*
G36*
X130940819Y-99962885D02*
G01*
X130978315Y-99974260D01*
X131012874Y-99992732D01*
X131043167Y-100017593D01*
X131068028Y-100047886D01*
X131086500Y-100082445D01*
X131097875Y-100119941D01*
X131102320Y-100165078D01*
X131102320Y-100903802D01*
X131097875Y-100948939D01*
X131086500Y-100986435D01*
X131068028Y-101020994D01*
X131043167Y-101051287D01*
X131012874Y-101076148D01*
X130978315Y-101094620D01*
X130940819Y-101105995D01*
X130895682Y-101110440D01*
X130256958Y-101110440D01*
X130211821Y-101105995D01*
X130174325Y-101094620D01*
X130139766Y-101076148D01*
X130109473Y-101051287D01*
X130084612Y-101020994D01*
X130066140Y-100986435D01*
X130054765Y-100948939D01*
X130050320Y-100903802D01*
X130050320Y-100165078D01*
X130054765Y-100119941D01*
X130066140Y-100082445D01*
X130084612Y-100047886D01*
X130109473Y-100017593D01*
X130139766Y-99992732D01*
X130174325Y-99974260D01*
X130211821Y-99962885D01*
X130256958Y-99958440D01*
X130895682Y-99958440D01*
X130940819Y-99962885D01*
X130940819Y-99962885D01*
G37*
G36*
X117483899Y-99693645D02*
G01*
X117521395Y-99705020D01*
X117555954Y-99723492D01*
X117586247Y-99748353D01*
X117611108Y-99778646D01*
X117629580Y-99813205D01*
X117640955Y-99850701D01*
X117645400Y-99895838D01*
X117645400Y-100634562D01*
X117640955Y-100679699D01*
X117629580Y-100717195D01*
X117611108Y-100751754D01*
X117586247Y-100782047D01*
X117555954Y-100806908D01*
X117521395Y-100825380D01*
X117483899Y-100836755D01*
X117438762Y-100841200D01*
X116800038Y-100841200D01*
X116754901Y-100836755D01*
X116717405Y-100825380D01*
X116682846Y-100806908D01*
X116652553Y-100782047D01*
X116627692Y-100751754D01*
X116609220Y-100717195D01*
X116597845Y-100679699D01*
X116593400Y-100634562D01*
X116593400Y-99895838D01*
X116597845Y-99850701D01*
X116609220Y-99813205D01*
X116627692Y-99778646D01*
X116652553Y-99748353D01*
X116682846Y-99723492D01*
X116717405Y-99705020D01*
X116754901Y-99693645D01*
X116800038Y-99689200D01*
X117438762Y-99689200D01*
X117483899Y-99693645D01*
X117483899Y-99693645D01*
G37*
G36*
X134491683Y-98891959D02*
G01*
X134557867Y-98898477D01*
X134727706Y-98949997D01*
X134884231Y-99033662D01*
X134900333Y-99046877D01*
X135021426Y-99146254D01*
X135101278Y-99243555D01*
X135134018Y-99283449D01*
X135217683Y-99439974D01*
X135269203Y-99609813D01*
X135286599Y-99786440D01*
X135269203Y-99963067D01*
X135217683Y-100132906D01*
X135134018Y-100289431D01*
X135111200Y-100317235D01*
X135021426Y-100426626D01*
X134919969Y-100509888D01*
X134884231Y-100539218D01*
X134727706Y-100622883D01*
X134557867Y-100674403D01*
X134504095Y-100679699D01*
X134425500Y-100687440D01*
X134336980Y-100687440D01*
X134258385Y-100679699D01*
X134204613Y-100674403D01*
X134034774Y-100622883D01*
X133878249Y-100539218D01*
X133842511Y-100509888D01*
X133741054Y-100426626D01*
X133651280Y-100317235D01*
X133628462Y-100289431D01*
X133544797Y-100132906D01*
X133493277Y-99963067D01*
X133475881Y-99786440D01*
X133493277Y-99609813D01*
X133544797Y-99439974D01*
X133628462Y-99283449D01*
X133661202Y-99243555D01*
X133741054Y-99146254D01*
X133862147Y-99046877D01*
X133878249Y-99033662D01*
X134034774Y-98949997D01*
X134204613Y-98898477D01*
X134270797Y-98891959D01*
X134336980Y-98885440D01*
X134425500Y-98885440D01*
X134491683Y-98891959D01*
X134491683Y-98891959D01*
G37*
G36*
X115563659Y-99293685D02*
G01*
X115601155Y-99305060D01*
X115635714Y-99323532D01*
X115666007Y-99348393D01*
X115690868Y-99378686D01*
X115709340Y-99413245D01*
X115720715Y-99450741D01*
X115725160Y-99495878D01*
X115725160Y-100234602D01*
X115720715Y-100279739D01*
X115709340Y-100317235D01*
X115690868Y-100351794D01*
X115666007Y-100382087D01*
X115635714Y-100406948D01*
X115601155Y-100425420D01*
X115563659Y-100436795D01*
X115518522Y-100441240D01*
X114879798Y-100441240D01*
X114834661Y-100436795D01*
X114797165Y-100425420D01*
X114762606Y-100406948D01*
X114732313Y-100382087D01*
X114707452Y-100351794D01*
X114688980Y-100317235D01*
X114677605Y-100279739D01*
X114673160Y-100234602D01*
X114673160Y-99495878D01*
X114677605Y-99450741D01*
X114688980Y-99413245D01*
X114707452Y-99378686D01*
X114732313Y-99348393D01*
X114762606Y-99323532D01*
X114797165Y-99305060D01*
X114834661Y-99293685D01*
X114879798Y-99289240D01*
X115518522Y-99289240D01*
X115563659Y-99293685D01*
X115563659Y-99293685D01*
G37*
G36*
X127892819Y-98233205D02*
G01*
X127930315Y-98244580D01*
X127964874Y-98263052D01*
X127995167Y-98287913D01*
X128020028Y-98318206D01*
X128038500Y-98352765D01*
X128049875Y-98390261D01*
X128054320Y-98435398D01*
X128054320Y-99174122D01*
X128049875Y-99219259D01*
X128038500Y-99256755D01*
X128020028Y-99291314D01*
X127995167Y-99321607D01*
X127964874Y-99346468D01*
X127930315Y-99364940D01*
X127892819Y-99376315D01*
X127847682Y-99380760D01*
X127208958Y-99380760D01*
X127163821Y-99376315D01*
X127126325Y-99364940D01*
X127091766Y-99346468D01*
X127061473Y-99321607D01*
X127036612Y-99291314D01*
X127018140Y-99256755D01*
X127006765Y-99219259D01*
X127002320Y-99174122D01*
X127002320Y-98435398D01*
X127006765Y-98390261D01*
X127018140Y-98352765D01*
X127036612Y-98318206D01*
X127061473Y-98287913D01*
X127091766Y-98263052D01*
X127126325Y-98244580D01*
X127163821Y-98233205D01*
X127208958Y-98228760D01*
X127847682Y-98228760D01*
X127892819Y-98233205D01*
X127892819Y-98233205D01*
G37*
G36*
X130940819Y-98212885D02*
G01*
X130978315Y-98224260D01*
X131012874Y-98242732D01*
X131043167Y-98267593D01*
X131068028Y-98297886D01*
X131086500Y-98332445D01*
X131097875Y-98369941D01*
X131102320Y-98415078D01*
X131102320Y-99153802D01*
X131097875Y-99198939D01*
X131086500Y-99236435D01*
X131068028Y-99270994D01*
X131043167Y-99301287D01*
X131012874Y-99326148D01*
X130978315Y-99344620D01*
X130940819Y-99355995D01*
X130895682Y-99360440D01*
X130256958Y-99360440D01*
X130211821Y-99355995D01*
X130174325Y-99344620D01*
X130139766Y-99326148D01*
X130109473Y-99301287D01*
X130084612Y-99270994D01*
X130066140Y-99236435D01*
X130054765Y-99198939D01*
X130050320Y-99153802D01*
X130050320Y-98415078D01*
X130054765Y-98369941D01*
X130066140Y-98332445D01*
X130084612Y-98297886D01*
X130109473Y-98267593D01*
X130139766Y-98242732D01*
X130174325Y-98224260D01*
X130211821Y-98212885D01*
X130256958Y-98208440D01*
X130895682Y-98208440D01*
X130940819Y-98212885D01*
X130940819Y-98212885D01*
G37*
G36*
X117483899Y-97943645D02*
G01*
X117521395Y-97955020D01*
X117555954Y-97973492D01*
X117586247Y-97998353D01*
X117611108Y-98028646D01*
X117629580Y-98063205D01*
X117640955Y-98100701D01*
X117645400Y-98145838D01*
X117645400Y-98884562D01*
X117640955Y-98929699D01*
X117629580Y-98967195D01*
X117611108Y-99001754D01*
X117586247Y-99032047D01*
X117555954Y-99056908D01*
X117521395Y-99075380D01*
X117483899Y-99086755D01*
X117438762Y-99091200D01*
X116800038Y-99091200D01*
X116754901Y-99086755D01*
X116717405Y-99075380D01*
X116682846Y-99056908D01*
X116652553Y-99032047D01*
X116627692Y-99001754D01*
X116609220Y-98967195D01*
X116597845Y-98929699D01*
X116593400Y-98884562D01*
X116593400Y-98145838D01*
X116597845Y-98100701D01*
X116609220Y-98063205D01*
X116627692Y-98028646D01*
X116652553Y-97998353D01*
X116682846Y-97973492D01*
X116717405Y-97955020D01*
X116754901Y-97943645D01*
X116800038Y-97939200D01*
X117438762Y-97939200D01*
X117483899Y-97943645D01*
X117483899Y-97943645D01*
G37*
G36*
X134491682Y-96351958D02*
G01*
X134557867Y-96358477D01*
X134727706Y-96409997D01*
X134884231Y-96493662D01*
X134919969Y-96522992D01*
X135021426Y-96606254D01*
X135104688Y-96707711D01*
X135134018Y-96743449D01*
X135217683Y-96899974D01*
X135269203Y-97069813D01*
X135286599Y-97246440D01*
X135269203Y-97423067D01*
X135217683Y-97592906D01*
X135134018Y-97749431D01*
X135104688Y-97785169D01*
X135021426Y-97886626D01*
X134919969Y-97969888D01*
X134884231Y-97999218D01*
X134727706Y-98082883D01*
X134557867Y-98134403D01*
X134491682Y-98140922D01*
X134425500Y-98147440D01*
X134336980Y-98147440D01*
X134270798Y-98140922D01*
X134204613Y-98134403D01*
X134034774Y-98082883D01*
X133878249Y-97999218D01*
X133842511Y-97969888D01*
X133741054Y-97886626D01*
X133657792Y-97785169D01*
X133628462Y-97749431D01*
X133544797Y-97592906D01*
X133493277Y-97423067D01*
X133475881Y-97246440D01*
X133493277Y-97069813D01*
X133544797Y-96899974D01*
X133628462Y-96743449D01*
X133657792Y-96707711D01*
X133741054Y-96606254D01*
X133842511Y-96522992D01*
X133878249Y-96493662D01*
X134034774Y-96409997D01*
X134204613Y-96358477D01*
X134270797Y-96351959D01*
X134336980Y-96345440D01*
X134425500Y-96345440D01*
X134491682Y-96351958D01*
X134491682Y-96351958D01*
G37*
G36*
X109005379Y-95863325D02*
G01*
X109042875Y-95874700D01*
X109077434Y-95893172D01*
X109107727Y-95918033D01*
X109132588Y-95948326D01*
X109151060Y-95982885D01*
X109162435Y-96020381D01*
X109166880Y-96065518D01*
X109166880Y-96804242D01*
X109162435Y-96849379D01*
X109151060Y-96886875D01*
X109132588Y-96921434D01*
X109107727Y-96951727D01*
X109077434Y-96976588D01*
X109042875Y-96995060D01*
X109005379Y-97006435D01*
X108960242Y-97010880D01*
X108321518Y-97010880D01*
X108276381Y-97006435D01*
X108238885Y-96995060D01*
X108204326Y-96976588D01*
X108174033Y-96951727D01*
X108149172Y-96921434D01*
X108130700Y-96886875D01*
X108119325Y-96849379D01*
X108114880Y-96804242D01*
X108114880Y-96065518D01*
X108119325Y-96020381D01*
X108130700Y-95982885D01*
X108149172Y-95948326D01*
X108174033Y-95918033D01*
X108204326Y-95893172D01*
X108238885Y-95874700D01*
X108276381Y-95863325D01*
X108321518Y-95858880D01*
X108960242Y-95858880D01*
X109005379Y-95863325D01*
X109005379Y-95863325D01*
G37*
G36*
X127225200Y-96824860D02*
G01*
X126323200Y-96824860D01*
X126323200Y-95222860D01*
X127225200Y-95222860D01*
X127225200Y-96824860D01*
X127225200Y-96824860D01*
G37*
G36*
X124825200Y-96824860D02*
G01*
X123923200Y-96824860D01*
X123923200Y-95222860D01*
X124825200Y-95222860D01*
X124825200Y-96824860D01*
X124825200Y-96824860D01*
G37*
G36*
X121225200Y-96824860D02*
G01*
X120323200Y-96824860D01*
X120323200Y-95222860D01*
X121225200Y-95222860D01*
X121225200Y-96824860D01*
X121225200Y-96824860D01*
G37*
G36*
X123625200Y-96824860D02*
G01*
X122723200Y-96824860D01*
X122723200Y-95222860D01*
X123625200Y-95222860D01*
X123625200Y-96824860D01*
X123625200Y-96824860D01*
G37*
G36*
X126025200Y-96824860D02*
G01*
X125123200Y-96824860D01*
X125123200Y-95222860D01*
X126025200Y-95222860D01*
X126025200Y-96824860D01*
X126025200Y-96824860D01*
G37*
G36*
X122425200Y-96824860D02*
G01*
X121523200Y-96824860D01*
X121523200Y-95222860D01*
X122425200Y-95222860D01*
X122425200Y-96824860D01*
X122425200Y-96824860D01*
G37*
G36*
X111306562Y-94548558D02*
G01*
X111372747Y-94555077D01*
X111542586Y-94606597D01*
X111699111Y-94690262D01*
X111734849Y-94719592D01*
X111836306Y-94802854D01*
X111902132Y-94883065D01*
X111948898Y-94940049D01*
X112032563Y-95096574D01*
X112084083Y-95266413D01*
X112101479Y-95443040D01*
X112084083Y-95619667D01*
X112032563Y-95789506D01*
X111948898Y-95946031D01*
X111924496Y-95975765D01*
X111836306Y-96083226D01*
X111734849Y-96166488D01*
X111699111Y-96195818D01*
X111542586Y-96279483D01*
X111372747Y-96331003D01*
X111306562Y-96337522D01*
X111240380Y-96344040D01*
X111151860Y-96344040D01*
X111085677Y-96337521D01*
X111019493Y-96331003D01*
X110849654Y-96279483D01*
X110693129Y-96195818D01*
X110657391Y-96166488D01*
X110555934Y-96083226D01*
X110467744Y-95975765D01*
X110443342Y-95946031D01*
X110359677Y-95789506D01*
X110308157Y-95619667D01*
X110290761Y-95443040D01*
X110308157Y-95266413D01*
X110359677Y-95096574D01*
X110443342Y-94940049D01*
X110490108Y-94883065D01*
X110555934Y-94802854D01*
X110657391Y-94719592D01*
X110693129Y-94690262D01*
X110849654Y-94606597D01*
X111019493Y-94555077D01*
X111085678Y-94548558D01*
X111151860Y-94542040D01*
X111240380Y-94542040D01*
X111306562Y-94548558D01*
X111306562Y-94548558D01*
G37*
G36*
X134491682Y-93811958D02*
G01*
X134557867Y-93818477D01*
X134727706Y-93869997D01*
X134884231Y-93953662D01*
X134919969Y-93982992D01*
X135021426Y-94066254D01*
X135072837Y-94128900D01*
X135134018Y-94203449D01*
X135134019Y-94203451D01*
X135196622Y-94320571D01*
X135217683Y-94359974D01*
X135269203Y-94529813D01*
X135286599Y-94706440D01*
X135269203Y-94883067D01*
X135217683Y-95052906D01*
X135217682Y-95052908D01*
X135175851Y-95131168D01*
X135134018Y-95209431D01*
X135108225Y-95240860D01*
X135021426Y-95346626D01*
X134919969Y-95429888D01*
X134884231Y-95459218D01*
X134727706Y-95542883D01*
X134557867Y-95594403D01*
X134491683Y-95600921D01*
X134425500Y-95607440D01*
X134336980Y-95607440D01*
X134270797Y-95600921D01*
X134204613Y-95594403D01*
X134034774Y-95542883D01*
X133878249Y-95459218D01*
X133842511Y-95429888D01*
X133741054Y-95346626D01*
X133654255Y-95240860D01*
X133628462Y-95209431D01*
X133586630Y-95131169D01*
X133544798Y-95052908D01*
X133544797Y-95052906D01*
X133493277Y-94883067D01*
X133475881Y-94706440D01*
X133493277Y-94529813D01*
X133544797Y-94359974D01*
X133565859Y-94320571D01*
X133628461Y-94203451D01*
X133628462Y-94203449D01*
X133689643Y-94128900D01*
X133741054Y-94066254D01*
X133842511Y-93982992D01*
X133878249Y-93953662D01*
X134034774Y-93869997D01*
X134204613Y-93818477D01*
X134270798Y-93811958D01*
X134336980Y-93805440D01*
X134425500Y-93805440D01*
X134491682Y-93811958D01*
X134491682Y-93811958D01*
G37*
G36*
X109005379Y-94113325D02*
G01*
X109042875Y-94124700D01*
X109077434Y-94143172D01*
X109107727Y-94168033D01*
X109132588Y-94198326D01*
X109151060Y-94232885D01*
X109162435Y-94270381D01*
X109166880Y-94315518D01*
X109166880Y-95054242D01*
X109162435Y-95099379D01*
X109151060Y-95136875D01*
X109132588Y-95171434D01*
X109107727Y-95201727D01*
X109077434Y-95226588D01*
X109042875Y-95245060D01*
X109005379Y-95256435D01*
X108960242Y-95260880D01*
X108321518Y-95260880D01*
X108276381Y-95256435D01*
X108238885Y-95245060D01*
X108204326Y-95226588D01*
X108174033Y-95201727D01*
X108149172Y-95171434D01*
X108130700Y-95136875D01*
X108119325Y-95099379D01*
X108114880Y-95054242D01*
X108114880Y-94315518D01*
X108119325Y-94270381D01*
X108130700Y-94232885D01*
X108149172Y-94198326D01*
X108174033Y-94168033D01*
X108204326Y-94143172D01*
X108238885Y-94124700D01*
X108276381Y-94113325D01*
X108321518Y-94108880D01*
X108960242Y-94108880D01*
X109005379Y-94113325D01*
X109005379Y-94113325D01*
G37*
G36*
X118825200Y-93974860D02*
G01*
X117223200Y-93974860D01*
X117223200Y-93072860D01*
X118825200Y-93072860D01*
X118825200Y-93974860D01*
X118825200Y-93974860D01*
G37*
G36*
X130325200Y-93974860D02*
G01*
X128723200Y-93974860D01*
X128723200Y-93072860D01*
X130325200Y-93072860D01*
X130325200Y-93974860D01*
X130325200Y-93974860D01*
G37*
G36*
X111306563Y-92008559D02*
G01*
X111372747Y-92015077D01*
X111542586Y-92066597D01*
X111699111Y-92150262D01*
X111734849Y-92179592D01*
X111836306Y-92262854D01*
X111902132Y-92343065D01*
X111948898Y-92400049D01*
X112032563Y-92556574D01*
X112084083Y-92726413D01*
X112101479Y-92903040D01*
X112084083Y-93079667D01*
X112032563Y-93249506D01*
X111948898Y-93406031D01*
X111919568Y-93441769D01*
X111836306Y-93543226D01*
X111734849Y-93626488D01*
X111699111Y-93655818D01*
X111542586Y-93739483D01*
X111372747Y-93791003D01*
X111306562Y-93797522D01*
X111240380Y-93804040D01*
X111151860Y-93804040D01*
X111085678Y-93797522D01*
X111019493Y-93791003D01*
X110849654Y-93739483D01*
X110693129Y-93655818D01*
X110657391Y-93626488D01*
X110555934Y-93543226D01*
X110472672Y-93441769D01*
X110443342Y-93406031D01*
X110359677Y-93249506D01*
X110308157Y-93079667D01*
X110290761Y-92903040D01*
X110308157Y-92726413D01*
X110359677Y-92556574D01*
X110443342Y-92400049D01*
X110490108Y-92343065D01*
X110555934Y-92262854D01*
X110657391Y-92179592D01*
X110693129Y-92150262D01*
X110849654Y-92066597D01*
X111019493Y-92015077D01*
X111085677Y-92008559D01*
X111151860Y-92002040D01*
X111240380Y-92002040D01*
X111306563Y-92008559D01*
X111306563Y-92008559D01*
G37*
G36*
X134491683Y-91271959D02*
G01*
X134557867Y-91278477D01*
X134727706Y-91329997D01*
X134884231Y-91413662D01*
X134919969Y-91442992D01*
X135021426Y-91526254D01*
X135104688Y-91627711D01*
X135134018Y-91663449D01*
X135217683Y-91819974D01*
X135269203Y-91989813D01*
X135286599Y-92166440D01*
X135269203Y-92343067D01*
X135217683Y-92512906D01*
X135134018Y-92669431D01*
X135104688Y-92705169D01*
X135021426Y-92806626D01*
X134919969Y-92889888D01*
X134884231Y-92919218D01*
X134727706Y-93002883D01*
X134557867Y-93054403D01*
X134491682Y-93060922D01*
X134425500Y-93067440D01*
X134336980Y-93067440D01*
X134270798Y-93060922D01*
X134204613Y-93054403D01*
X134034774Y-93002883D01*
X133878249Y-92919218D01*
X133842511Y-92889888D01*
X133741054Y-92806626D01*
X133657792Y-92705169D01*
X133628462Y-92669431D01*
X133544797Y-92512906D01*
X133493277Y-92343067D01*
X133475881Y-92166440D01*
X133493277Y-91989813D01*
X133544797Y-91819974D01*
X133628462Y-91663449D01*
X133657792Y-91627711D01*
X133741054Y-91526254D01*
X133842511Y-91442992D01*
X133878249Y-91413662D01*
X134034774Y-91329997D01*
X134204613Y-91278477D01*
X134270797Y-91271959D01*
X134336980Y-91265440D01*
X134425500Y-91265440D01*
X134491683Y-91271959D01*
X134491683Y-91271959D01*
G37*
G36*
X130325200Y-92774860D02*
G01*
X128723200Y-92774860D01*
X128723200Y-91872860D01*
X130325200Y-91872860D01*
X130325200Y-92774860D01*
X130325200Y-92774860D01*
G37*
G36*
X118825200Y-92774860D02*
G01*
X117223200Y-92774860D01*
X117223200Y-91872860D01*
X118825200Y-91872860D01*
X118825200Y-92774860D01*
X118825200Y-92774860D01*
G37*
G36*
X137575299Y-90803645D02*
G01*
X137612795Y-90815020D01*
X137647354Y-90833492D01*
X137677647Y-90858353D01*
X137702508Y-90888646D01*
X137720980Y-90923205D01*
X137732355Y-90960701D01*
X137736800Y-91005838D01*
X137736800Y-91744562D01*
X137732355Y-91789699D01*
X137720980Y-91827195D01*
X137702508Y-91861754D01*
X137677647Y-91892047D01*
X137647354Y-91916908D01*
X137612795Y-91935380D01*
X137575299Y-91946755D01*
X137530162Y-91951200D01*
X136891438Y-91951200D01*
X136846301Y-91946755D01*
X136808805Y-91935380D01*
X136774246Y-91916908D01*
X136743953Y-91892047D01*
X136719092Y-91861754D01*
X136700620Y-91827195D01*
X136689245Y-91789699D01*
X136684800Y-91744562D01*
X136684800Y-91005838D01*
X136689245Y-90960701D01*
X136700620Y-90923205D01*
X136719092Y-90888646D01*
X136743953Y-90858353D01*
X136774246Y-90833492D01*
X136808805Y-90815020D01*
X136846301Y-90803645D01*
X136891438Y-90799200D01*
X137530162Y-90799200D01*
X137575299Y-90803645D01*
X137575299Y-90803645D01*
G37*
G36*
X139175499Y-90803645D02*
G01*
X139212995Y-90815020D01*
X139247554Y-90833492D01*
X139277847Y-90858353D01*
X139302708Y-90888646D01*
X139321180Y-90923205D01*
X139332555Y-90960701D01*
X139337000Y-91005838D01*
X139337000Y-91744562D01*
X139332555Y-91789699D01*
X139321180Y-91827195D01*
X139302708Y-91861754D01*
X139277847Y-91892047D01*
X139247554Y-91916908D01*
X139212995Y-91935380D01*
X139175499Y-91946755D01*
X139130362Y-91951200D01*
X138491638Y-91951200D01*
X138446501Y-91946755D01*
X138409005Y-91935380D01*
X138374446Y-91916908D01*
X138344153Y-91892047D01*
X138319292Y-91861754D01*
X138300820Y-91827195D01*
X138289445Y-91789699D01*
X138285000Y-91744562D01*
X138285000Y-91005838D01*
X138289445Y-90960701D01*
X138300820Y-90923205D01*
X138319292Y-90888646D01*
X138344153Y-90858353D01*
X138374446Y-90833492D01*
X138409005Y-90815020D01*
X138446501Y-90803645D01*
X138491638Y-90799200D01*
X139130362Y-90799200D01*
X139175499Y-90803645D01*
X139175499Y-90803645D01*
G37*
G36*
X118825200Y-91574860D02*
G01*
X117223200Y-91574860D01*
X117223200Y-90672860D01*
X118825200Y-90672860D01*
X118825200Y-91574860D01*
X118825200Y-91574860D01*
G37*
G36*
X130325200Y-91574860D02*
G01*
X128723200Y-91574860D01*
X128723200Y-90672860D01*
X130325200Y-90672860D01*
X130325200Y-91574860D01*
X130325200Y-91574860D01*
G37*
G36*
X111306563Y-89468559D02*
G01*
X111372747Y-89475077D01*
X111542586Y-89526597D01*
X111699111Y-89610262D01*
X111734849Y-89639592D01*
X111836306Y-89722854D01*
X111902132Y-89803065D01*
X111948898Y-89860049D01*
X112032563Y-90016574D01*
X112084083Y-90186413D01*
X112101479Y-90363040D01*
X112084083Y-90539667D01*
X112032563Y-90709506D01*
X111948898Y-90866031D01*
X111940527Y-90876231D01*
X111836306Y-91003226D01*
X111734849Y-91086488D01*
X111699111Y-91115818D01*
X111542586Y-91199483D01*
X111372747Y-91251003D01*
X111306563Y-91257521D01*
X111240380Y-91264040D01*
X111151860Y-91264040D01*
X111085677Y-91257521D01*
X111019493Y-91251003D01*
X110849654Y-91199483D01*
X110693129Y-91115818D01*
X110657391Y-91086488D01*
X110555934Y-91003226D01*
X110451713Y-90876231D01*
X110443342Y-90866031D01*
X110359677Y-90709506D01*
X110308157Y-90539667D01*
X110290761Y-90363040D01*
X110308157Y-90186413D01*
X110359677Y-90016574D01*
X110443342Y-89860049D01*
X110490108Y-89803065D01*
X110555934Y-89722854D01*
X110657391Y-89639592D01*
X110693129Y-89610262D01*
X110849654Y-89526597D01*
X111019493Y-89475077D01*
X111085677Y-89468559D01*
X111151860Y-89462040D01*
X111240380Y-89462040D01*
X111306563Y-89468559D01*
X111306563Y-89468559D01*
G37*
G36*
X134491683Y-88731959D02*
G01*
X134557867Y-88738477D01*
X134727706Y-88789997D01*
X134884231Y-88873662D01*
X134919969Y-88902992D01*
X135021426Y-88986254D01*
X135089513Y-89069220D01*
X135134018Y-89123449D01*
X135217683Y-89279974D01*
X135269203Y-89449813D01*
X135286599Y-89626440D01*
X135269203Y-89803067D01*
X135217683Y-89972906D01*
X135134018Y-90129431D01*
X135123664Y-90142047D01*
X135021426Y-90266626D01*
X134919969Y-90349888D01*
X134884231Y-90379218D01*
X134727706Y-90462883D01*
X134557867Y-90514403D01*
X134491683Y-90520921D01*
X134425500Y-90527440D01*
X134336980Y-90527440D01*
X134270797Y-90520921D01*
X134204613Y-90514403D01*
X134034774Y-90462883D01*
X133878249Y-90379218D01*
X133842511Y-90349888D01*
X133741054Y-90266626D01*
X133638816Y-90142047D01*
X133628462Y-90129431D01*
X133544797Y-89972906D01*
X133493277Y-89803067D01*
X133475881Y-89626440D01*
X133493277Y-89449813D01*
X133544797Y-89279974D01*
X133628462Y-89123449D01*
X133672967Y-89069220D01*
X133741054Y-88986254D01*
X133842511Y-88902992D01*
X133878249Y-88873662D01*
X134034774Y-88789997D01*
X134204613Y-88738477D01*
X134270797Y-88731959D01*
X134336980Y-88725440D01*
X134425500Y-88725440D01*
X134491683Y-88731959D01*
X134491683Y-88731959D01*
G37*
G36*
X130325200Y-90374860D02*
G01*
X128723200Y-90374860D01*
X128723200Y-89472860D01*
X130325200Y-89472860D01*
X130325200Y-90374860D01*
X130325200Y-90374860D01*
G37*
G36*
X118825200Y-90374860D02*
G01*
X117223200Y-90374860D01*
X117223200Y-89472860D01*
X118825200Y-89472860D01*
X118825200Y-90374860D01*
X118825200Y-90374860D01*
G37*
G36*
X139175499Y-89053645D02*
G01*
X139212995Y-89065020D01*
X139247554Y-89083492D01*
X139277847Y-89108353D01*
X139302708Y-89138646D01*
X139321180Y-89173205D01*
X139332555Y-89210701D01*
X139337000Y-89255838D01*
X139337000Y-89994562D01*
X139332555Y-90039699D01*
X139321180Y-90077195D01*
X139302708Y-90111754D01*
X139277847Y-90142047D01*
X139247554Y-90166908D01*
X139212995Y-90185380D01*
X139175499Y-90196755D01*
X139130362Y-90201200D01*
X138491638Y-90201200D01*
X138446501Y-90196755D01*
X138409005Y-90185380D01*
X138374446Y-90166908D01*
X138344153Y-90142047D01*
X138319292Y-90111754D01*
X138300820Y-90077195D01*
X138289445Y-90039699D01*
X138285000Y-89994562D01*
X138285000Y-89255838D01*
X138289445Y-89210701D01*
X138300820Y-89173205D01*
X138319292Y-89138646D01*
X138344153Y-89108353D01*
X138374446Y-89083492D01*
X138409005Y-89065020D01*
X138446501Y-89053645D01*
X138491638Y-89049200D01*
X139130362Y-89049200D01*
X139175499Y-89053645D01*
X139175499Y-89053645D01*
G37*
G36*
X137575299Y-89053645D02*
G01*
X137612795Y-89065020D01*
X137647354Y-89083492D01*
X137677647Y-89108353D01*
X137702508Y-89138646D01*
X137720980Y-89173205D01*
X137732355Y-89210701D01*
X137736800Y-89255838D01*
X137736800Y-89994562D01*
X137732355Y-90039699D01*
X137720980Y-90077195D01*
X137702508Y-90111754D01*
X137677647Y-90142047D01*
X137647354Y-90166908D01*
X137612795Y-90185380D01*
X137575299Y-90196755D01*
X137530162Y-90201200D01*
X136891438Y-90201200D01*
X136846301Y-90196755D01*
X136808805Y-90185380D01*
X136774246Y-90166908D01*
X136743953Y-90142047D01*
X136719092Y-90111754D01*
X136700620Y-90077195D01*
X136689245Y-90039699D01*
X136684800Y-89994562D01*
X136684800Y-89255838D01*
X136689245Y-89210701D01*
X136700620Y-89173205D01*
X136719092Y-89138646D01*
X136743953Y-89108353D01*
X136774246Y-89083492D01*
X136808805Y-89065020D01*
X136846301Y-89053645D01*
X136891438Y-89049200D01*
X137530162Y-89049200D01*
X137575299Y-89053645D01*
X137575299Y-89053645D01*
G37*
G36*
X130325200Y-89174860D02*
G01*
X128723200Y-89174860D01*
X128723200Y-88272860D01*
X130325200Y-88272860D01*
X130325200Y-89174860D01*
X130325200Y-89174860D01*
G37*
G36*
X118825200Y-89174860D02*
G01*
X117223200Y-89174860D01*
X117223200Y-88272860D01*
X118825200Y-88272860D01*
X118825200Y-89174860D01*
X118825200Y-89174860D01*
G37*
G36*
X131961899Y-87654045D02*
G01*
X131999395Y-87665420D01*
X132033954Y-87683892D01*
X132064247Y-87708753D01*
X132089108Y-87739046D01*
X132107580Y-87773605D01*
X132118955Y-87811101D01*
X132123400Y-87856238D01*
X132123400Y-88594962D01*
X132118955Y-88640099D01*
X132107580Y-88677595D01*
X132089108Y-88712154D01*
X132064247Y-88742447D01*
X132033954Y-88767308D01*
X131999395Y-88785780D01*
X131961899Y-88797155D01*
X131916762Y-88801600D01*
X131278038Y-88801600D01*
X131232901Y-88797155D01*
X131195405Y-88785780D01*
X131160846Y-88767308D01*
X131130553Y-88742447D01*
X131105692Y-88712154D01*
X131087220Y-88677595D01*
X131075845Y-88640099D01*
X131071400Y-88594962D01*
X131071400Y-87856238D01*
X131075845Y-87811101D01*
X131087220Y-87773605D01*
X131105692Y-87739046D01*
X131130553Y-87708753D01*
X131160846Y-87683892D01*
X131195405Y-87665420D01*
X131232901Y-87654045D01*
X131278038Y-87649600D01*
X131916762Y-87649600D01*
X131961899Y-87654045D01*
X131961899Y-87654045D01*
G37*
G36*
X112097120Y-88724040D02*
G01*
X110295120Y-88724040D01*
X110295120Y-86922040D01*
X112097120Y-86922040D01*
X112097120Y-88724040D01*
X112097120Y-88724040D01*
G37*
G36*
X118825200Y-87974860D02*
G01*
X117223200Y-87974860D01*
X117223200Y-87072860D01*
X118825200Y-87072860D01*
X118825200Y-87974860D01*
X118825200Y-87974860D01*
G37*
G36*
X130325200Y-87974860D02*
G01*
X128723200Y-87974860D01*
X128723200Y-87072860D01*
X130325200Y-87072860D01*
X130325200Y-87974860D01*
X130325200Y-87974860D01*
G37*
G36*
X131961899Y-85904045D02*
G01*
X131999395Y-85915420D01*
X132033954Y-85933892D01*
X132064247Y-85958753D01*
X132089108Y-85989046D01*
X132107580Y-86023605D01*
X132118955Y-86061101D01*
X132123400Y-86106238D01*
X132123400Y-86844962D01*
X132118955Y-86890099D01*
X132107580Y-86927595D01*
X132089108Y-86962154D01*
X132064247Y-86992447D01*
X132033954Y-87017308D01*
X131999395Y-87035780D01*
X131961899Y-87047155D01*
X131916762Y-87051600D01*
X131278038Y-87051600D01*
X131232901Y-87047155D01*
X131195405Y-87035780D01*
X131160846Y-87017308D01*
X131130553Y-86992447D01*
X131105692Y-86962154D01*
X131087220Y-86927595D01*
X131075845Y-86890099D01*
X131071400Y-86844962D01*
X131071400Y-86106238D01*
X131075845Y-86061101D01*
X131087220Y-86023605D01*
X131105692Y-85989046D01*
X131130553Y-85958753D01*
X131160846Y-85933892D01*
X131195405Y-85915420D01*
X131232901Y-85904045D01*
X131278038Y-85899600D01*
X131916762Y-85899600D01*
X131961899Y-85904045D01*
X131961899Y-85904045D01*
G37*
G36*
X130325200Y-86774860D02*
G01*
X128723200Y-86774860D01*
X128723200Y-85872860D01*
X130325200Y-85872860D01*
X130325200Y-86774860D01*
X130325200Y-86774860D01*
G37*
G36*
X118825200Y-86774860D02*
G01*
X117223200Y-86774860D01*
X117223200Y-85872860D01*
X118825200Y-85872860D01*
X118825200Y-86774860D01*
X118825200Y-86774860D01*
G37*
G36*
X130325200Y-85574860D02*
G01*
X128723200Y-85574860D01*
X128723200Y-84672860D01*
X130325200Y-84672860D01*
X130325200Y-85574860D01*
X130325200Y-85574860D01*
G37*
G36*
X118825200Y-85574860D02*
G01*
X117223200Y-85574860D01*
X117223200Y-84672860D01*
X118825200Y-84672860D01*
X118825200Y-85574860D01*
X118825200Y-85574860D01*
G37*
M02*
