G04 #@! TF.GenerationSoftware,KiCad,Pcbnew,(5.1.4)-1*
G04 #@! TF.CreationDate,2019-11-02T23:16:35-06:00*
G04 #@! TF.ProjectId,EncoderBoard,456e636f-6465-4724-926f-6172642e6b69,v1.0*
G04 #@! TF.SameCoordinates,Original*
G04 #@! TF.FileFunction,Legend,Top*
G04 #@! TF.FilePolarity,Positive*
%FSLAX46Y46*%
G04 Gerber Fmt 4.6, Leading zero omitted, Abs format (unit mm)*
G04 Created by KiCad (PCBNEW (5.1.4)-1) date 2019-11-02 23:16:35*
%MOMM*%
%LPD*%
G04 APERTURE LIST*
%ADD10C,0.200000*%
%ADD11C,0.120000*%
%ADD12C,0.127000*%
%ADD13C,0.100000*%
%ADD14C,0.150000*%
%ADD15C,0.152400*%
%ADD16C,0.050000*%
%ADD17C,0.254000*%
G04 APERTURE END LIST*
D10*
X109223525Y-87630000D02*
G75*
G03X109223525Y-87630000I-2289525J0D01*
G01*
X109223525Y-137160000D02*
G75*
G03X109223525Y-137160000I-2289525J0D01*
G01*
X141481525Y-127000000D02*
G75*
G03X141481525Y-127000000I-2289525J0D01*
G01*
X141481525Y-97790000D02*
G75*
G03X141481525Y-97790000I-2289525J0D01*
G01*
D11*
X121845800Y-144544867D02*
X121845800Y-144202333D01*
X120825800Y-144544867D02*
X120825800Y-144202333D01*
D12*
X126419160Y-101063240D02*
X126029160Y-101063240D01*
X126419160Y-101453240D02*
X126419160Y-101063240D01*
X126419160Y-108263240D02*
X126419160Y-107873240D01*
X126029160Y-108263240D02*
X126419160Y-108263240D01*
X119219160Y-108263240D02*
X119609160Y-108263240D01*
X119219160Y-107873240D02*
X119219160Y-108263240D01*
D10*
X116969160Y-101713240D02*
G75*
G03X116969160Y-101713240I-150000J0D01*
G01*
D12*
X119219160Y-101063240D02*
X119219160Y-101453240D01*
X119609160Y-101063240D02*
X119219160Y-101063240D01*
D13*
X117874200Y-84673860D02*
X117374200Y-84673860D01*
X117874200Y-84673860D02*
X117874200Y-83973860D01*
X129674200Y-84673860D02*
X129674200Y-83973860D01*
X117874200Y-96173860D02*
X118374200Y-96173860D01*
X117874200Y-96173860D02*
X117874200Y-95673860D01*
X129674200Y-96173860D02*
X129174200Y-96173860D01*
X129674200Y-96173860D02*
X129674200Y-95673860D01*
D11*
X115709160Y-100911507D02*
X115709160Y-100568973D01*
X114689160Y-100911507D02*
X114689160Y-100568973D01*
X114928467Y-104925400D02*
X114585933Y-104925400D01*
X114928467Y-105945400D02*
X114585933Y-105945400D01*
X115027893Y-109745240D02*
X115370427Y-109745240D01*
X115027893Y-108725240D02*
X115370427Y-108725240D01*
X115027893Y-111269240D02*
X115370427Y-111269240D01*
X115027893Y-110249240D02*
X115370427Y-110249240D01*
X128038320Y-99851027D02*
X128038320Y-99508493D01*
X127018320Y-99851027D02*
X127018320Y-99508493D01*
X130066320Y-99488173D02*
X130066320Y-99830707D01*
X131086320Y-99488173D02*
X131086320Y-99830707D01*
X108130880Y-95388613D02*
X108130880Y-95731147D01*
X109150880Y-95388613D02*
X109150880Y-95731147D01*
X109374400Y-111042267D02*
X109374400Y-110699733D01*
X108354400Y-111042267D02*
X108354400Y-110699733D01*
X117629400Y-99561467D02*
X117629400Y-99218933D01*
X116609400Y-99561467D02*
X116609400Y-99218933D01*
X127423093Y-109757940D02*
X127765627Y-109757940D01*
X127423093Y-108737940D02*
X127765627Y-108737940D01*
X128273100Y-131808456D02*
X128615634Y-131808456D01*
X128273100Y-130788456D02*
X128615634Y-130788456D01*
X131620820Y-131808456D02*
X131963354Y-131808456D01*
X131620820Y-130788456D02*
X131963354Y-130788456D01*
X130416860Y-127053576D02*
X130759394Y-127053576D01*
X130416860Y-126033576D02*
X130759394Y-126033576D01*
X131087400Y-87179333D02*
X131087400Y-87521867D01*
X132107400Y-87179333D02*
X132107400Y-87521867D01*
X120831793Y-119905240D02*
X121174327Y-119905240D01*
X120831793Y-118885240D02*
X121174327Y-118885240D01*
X130902527Y-118821740D02*
X130559993Y-118821740D01*
X130902527Y-119841740D02*
X130559993Y-119841740D01*
X126470593Y-119930640D02*
X126813127Y-119930640D01*
X126470593Y-118910640D02*
X126813127Y-118910640D01*
X138167293Y-119943340D02*
X138509827Y-119943340D01*
X138167293Y-118923340D02*
X138509827Y-118923340D01*
X120199333Y-111127000D02*
X120541867Y-111127000D01*
X120199333Y-110107000D02*
X120541867Y-110107000D01*
X110574927Y-127883243D02*
X110574927Y-127540709D01*
X109554927Y-127883243D02*
X109554927Y-127540709D01*
X127984087Y-127969603D02*
X127984087Y-127627069D01*
X126964087Y-127969603D02*
X126964087Y-127627069D01*
D14*
X118513860Y-117848640D02*
X128673860Y-117848640D01*
X118513860Y-111848640D02*
X118513860Y-117848640D01*
X128673860Y-111848640D02*
X118513860Y-111848640D01*
X128673860Y-117848640D02*
X128673860Y-111848640D01*
X129702560Y-117861340D02*
X139862560Y-117861340D01*
X129702560Y-111861340D02*
X129702560Y-117861340D01*
X139862560Y-111861340D02*
X129702560Y-111861340D01*
X139862560Y-117861340D02*
X139862560Y-111861340D01*
D15*
X128424047Y-130145296D02*
X128601847Y-130145296D01*
X128424047Y-127808496D02*
X128424047Y-130145296D01*
X130760847Y-127808496D02*
X130583047Y-127808496D01*
X130760847Y-130145296D02*
X130760847Y-127808496D01*
X130583047Y-130145296D02*
X130760847Y-130145296D01*
X128601847Y-127808496D02*
X128424047Y-127808496D01*
D11*
X107594160Y-106291240D02*
G75*
G03X112644160Y-106291240I2525000J0D01*
G01*
X107594160Y-100041240D02*
G75*
G02X112644160Y-100041240I2525000J0D01*
G01*
X107594160Y-100041240D02*
X107594160Y-106291240D01*
X112644160Y-100041240D02*
X112644160Y-106291240D01*
X113600067Y-144411023D02*
X113600067Y-144068489D01*
X112580067Y-144411023D02*
X112580067Y-144068489D01*
X120284434Y-133346236D02*
X119941900Y-133346236D01*
X120284434Y-134366236D02*
X119941900Y-134366236D01*
X117686407Y-125821216D02*
X112286407Y-125821216D01*
X117686407Y-122521216D02*
X112286407Y-122521216D01*
X117686407Y-125821216D02*
X117686407Y-122521216D01*
D10*
X113012367Y-140684036D02*
X113012367Y-139159036D01*
X119148167Y-138906636D02*
X119148167Y-137706636D01*
X122198167Y-137356636D02*
X119298167Y-137356636D01*
X122198167Y-136756636D02*
X122198167Y-137356636D01*
X119298167Y-136756636D02*
X122198167Y-136756636D01*
X119298167Y-137356636D02*
X119298167Y-136756636D01*
D11*
X134381240Y-106196440D02*
X133051240Y-106196440D01*
X133051240Y-106196440D02*
X133051240Y-104866440D01*
X133051240Y-103596440D02*
X133051240Y-88296440D01*
X135711240Y-88296440D02*
X133051240Y-88296440D01*
X135711240Y-103596440D02*
X135711240Y-88296440D01*
X135711240Y-103596440D02*
X133051240Y-103596440D01*
X114154447Y-126911336D02*
X114154447Y-128371336D01*
X110994447Y-126911336D02*
X110994447Y-129071336D01*
X110994447Y-126911336D02*
X111924447Y-126911336D01*
X114154447Y-126911336D02*
X113224447Y-126911336D01*
X114434267Y-142460669D02*
X114434267Y-142803203D01*
X115454267Y-142460669D02*
X115454267Y-142803203D01*
X121393133Y-141886400D02*
X121735667Y-141886400D01*
X121393133Y-140866400D02*
X121735667Y-140866400D01*
X115949020Y-129080496D02*
X116291554Y-129080496D01*
X115949020Y-128060496D02*
X116291554Y-128060496D01*
X111599440Y-117651347D02*
X111599440Y-117308813D01*
X110579440Y-117651347D02*
X110579440Y-117308813D01*
X111599440Y-114334107D02*
X111599440Y-113991573D01*
X110579440Y-114334107D02*
X110579440Y-113991573D01*
X111196120Y-86493040D02*
X112526120Y-86493040D01*
X112526120Y-86493040D02*
X112526120Y-87823040D01*
X112526120Y-89093040D02*
X112526120Y-96773040D01*
X109866120Y-96773040D02*
X112526120Y-96773040D01*
X109866120Y-89093040D02*
X109866120Y-96773040D01*
X109866120Y-89093040D02*
X112526120Y-89093040D01*
X115161600Y-118013600D02*
X113701600Y-118013600D01*
X115161600Y-114853600D02*
X113001600Y-114853600D01*
X115161600Y-114853600D02*
X115161600Y-115783600D01*
X115161600Y-118013600D02*
X115161600Y-117083600D01*
X118975600Y-144570267D02*
X118975600Y-144227733D01*
X117955600Y-144570267D02*
X117955600Y-144227733D01*
X130375600Y-138342800D02*
X132975600Y-138342800D01*
X130375600Y-153042800D02*
X130375600Y-138342800D01*
X139575600Y-138342800D02*
X139575600Y-140242800D01*
X136875600Y-138342800D02*
X139575600Y-138342800D01*
X139575600Y-153042800D02*
X130375600Y-153042800D01*
X139575600Y-144242800D02*
X139575600Y-153042800D01*
X130175600Y-139192800D02*
X130175600Y-138142800D01*
X131225600Y-138142800D02*
X130175600Y-138142800D01*
D10*
X128621400Y-146100600D02*
X127421400Y-146100600D01*
X127071400Y-143050600D02*
X127071400Y-145950600D01*
X126471400Y-143050600D02*
X127071400Y-143050600D01*
X126471400Y-145950600D02*
X126471400Y-143050600D01*
X127071400Y-145950600D02*
X126471400Y-145950600D01*
X123010000Y-137358400D02*
X123010000Y-136758400D01*
X123010000Y-136758400D02*
X125910000Y-136758400D01*
X125910000Y-136758400D02*
X125910000Y-137358400D01*
X125910000Y-137358400D02*
X123010000Y-137358400D01*
X122860000Y-138908400D02*
X122860000Y-137708400D01*
D11*
X138301000Y-90328933D02*
X138301000Y-90671467D01*
X139321000Y-90328933D02*
X139321000Y-90671467D01*
X137720800Y-90328933D02*
X137720800Y-90671467D01*
X136700800Y-90328933D02*
X136700800Y-90671467D01*
X106407133Y-123797600D02*
X106749667Y-123797600D01*
X106407133Y-124817600D02*
X106749667Y-124817600D01*
X106407133Y-121972800D02*
X106749667Y-121972800D01*
X106407133Y-120952800D02*
X106749667Y-120952800D01*
D14*
X120262942Y-145016457D02*
X120310561Y-145064076D01*
X120358180Y-145206933D01*
X120358180Y-145302171D01*
X120310561Y-145445028D01*
X120215323Y-145540266D01*
X120120085Y-145587885D01*
X119929609Y-145635504D01*
X119786752Y-145635504D01*
X119596276Y-145587885D01*
X119501038Y-145540266D01*
X119405800Y-145445028D01*
X119358180Y-145302171D01*
X119358180Y-145206933D01*
X119405800Y-145064076D01*
X119453419Y-145016457D01*
X120358180Y-144064076D02*
X120358180Y-144635504D01*
X120358180Y-144349790D02*
X119358180Y-144349790D01*
X119501038Y-144445028D01*
X119596276Y-144540266D01*
X119643895Y-144635504D01*
X119786752Y-143492647D02*
X119739133Y-143587885D01*
X119691514Y-143635504D01*
X119596276Y-143683123D01*
X119548657Y-143683123D01*
X119453419Y-143635504D01*
X119405800Y-143587885D01*
X119358180Y-143492647D01*
X119358180Y-143302171D01*
X119405800Y-143206933D01*
X119453419Y-143159314D01*
X119548657Y-143111695D01*
X119596276Y-143111695D01*
X119691514Y-143159314D01*
X119739133Y-143206933D01*
X119786752Y-143302171D01*
X119786752Y-143492647D01*
X119834371Y-143587885D01*
X119881990Y-143635504D01*
X119977228Y-143683123D01*
X120167704Y-143683123D01*
X120262942Y-143635504D01*
X120310561Y-143587885D01*
X120358180Y-143492647D01*
X120358180Y-143302171D01*
X120310561Y-143206933D01*
X120262942Y-143159314D01*
X120167704Y-143111695D01*
X119977228Y-143111695D01*
X119881990Y-143159314D01*
X119834371Y-143206933D01*
X119786752Y-143302171D01*
D16*
X122057255Y-104115620D02*
X122057255Y-104925144D01*
X122104874Y-105020382D01*
X122152493Y-105068001D01*
X122247731Y-105115620D01*
X122438207Y-105115620D01*
X122533445Y-105068001D01*
X122581064Y-105020382D01*
X122628683Y-104925144D01*
X122628683Y-104115620D01*
X123628683Y-105115620D02*
X123057255Y-105115620D01*
X123342969Y-105115620D02*
X123342969Y-104115620D01*
X123247731Y-104258478D01*
X123152493Y-104353716D01*
X123057255Y-104401335D01*
X127996104Y-96820050D02*
X127996104Y-96320050D01*
X128519914Y-96772431D02*
X128496104Y-96796240D01*
X128424676Y-96820050D01*
X128377057Y-96820050D01*
X128305628Y-96796240D01*
X128258009Y-96748621D01*
X128234200Y-96701002D01*
X128210390Y-96605764D01*
X128210390Y-96534336D01*
X128234200Y-96439098D01*
X128258009Y-96391479D01*
X128305628Y-96343860D01*
X128377057Y-96320050D01*
X128424676Y-96320050D01*
X128496104Y-96343860D01*
X128519914Y-96367669D01*
X128996104Y-96820050D02*
X128710390Y-96820050D01*
X128853247Y-96820050D02*
X128853247Y-96320050D01*
X128805628Y-96391479D01*
X128758009Y-96439098D01*
X128710390Y-96462907D01*
D14*
X114126302Y-100906906D02*
X114173921Y-100954525D01*
X114221540Y-101097382D01*
X114221540Y-101192620D01*
X114173921Y-101335478D01*
X114078683Y-101430716D01*
X113983445Y-101478335D01*
X113792969Y-101525954D01*
X113650112Y-101525954D01*
X113459636Y-101478335D01*
X113364398Y-101430716D01*
X113269160Y-101335478D01*
X113221540Y-101192620D01*
X113221540Y-101097382D01*
X113269160Y-100954525D01*
X113316779Y-100906906D01*
X114221540Y-99954525D02*
X114221540Y-100525954D01*
X114221540Y-100240240D02*
X113221540Y-100240240D01*
X113364398Y-100335478D01*
X113459636Y-100430716D01*
X113507255Y-100525954D01*
X114590533Y-107222542D02*
X114542914Y-107270161D01*
X114400057Y-107317780D01*
X114304819Y-107317780D01*
X114161961Y-107270161D01*
X114066723Y-107174923D01*
X114019104Y-107079685D01*
X113971485Y-106889209D01*
X113971485Y-106746352D01*
X114019104Y-106555876D01*
X114066723Y-106460638D01*
X114161961Y-106365400D01*
X114304819Y-106317780D01*
X114400057Y-106317780D01*
X114542914Y-106365400D01*
X114590533Y-106413019D01*
X114971485Y-106413019D02*
X115019104Y-106365400D01*
X115114342Y-106317780D01*
X115352438Y-106317780D01*
X115447676Y-106365400D01*
X115495295Y-106413019D01*
X115542914Y-106508257D01*
X115542914Y-106603495D01*
X115495295Y-106746352D01*
X114923866Y-107317780D01*
X115542914Y-107317780D01*
X117572493Y-109592382D02*
X117524874Y-109640001D01*
X117382017Y-109687620D01*
X117286779Y-109687620D01*
X117143921Y-109640001D01*
X117048683Y-109544763D01*
X117001064Y-109449525D01*
X116953445Y-109259049D01*
X116953445Y-109116192D01*
X117001064Y-108925716D01*
X117048683Y-108830478D01*
X117143921Y-108735240D01*
X117286779Y-108687620D01*
X117382017Y-108687620D01*
X117524874Y-108735240D01*
X117572493Y-108782859D01*
X117905826Y-108687620D02*
X118524874Y-108687620D01*
X118191540Y-109068573D01*
X118334398Y-109068573D01*
X118429636Y-109116192D01*
X118477255Y-109163811D01*
X118524874Y-109259049D01*
X118524874Y-109497144D01*
X118477255Y-109592382D01*
X118429636Y-109640001D01*
X118334398Y-109687620D01*
X118048683Y-109687620D01*
X117953445Y-109640001D01*
X117905826Y-109592382D01*
X117572493Y-111116382D02*
X117524874Y-111164001D01*
X117382017Y-111211620D01*
X117286779Y-111211620D01*
X117143921Y-111164001D01*
X117048683Y-111068763D01*
X117001064Y-110973525D01*
X116953445Y-110783049D01*
X116953445Y-110640192D01*
X117001064Y-110449716D01*
X117048683Y-110354478D01*
X117143921Y-110259240D01*
X117286779Y-110211620D01*
X117382017Y-110211620D01*
X117524874Y-110259240D01*
X117572493Y-110306859D01*
X118429636Y-110544954D02*
X118429636Y-111211620D01*
X118191540Y-110164001D02*
X117953445Y-110878287D01*
X118572493Y-110878287D01*
X129389142Y-99729586D02*
X129436761Y-99777205D01*
X129484380Y-99920062D01*
X129484380Y-100015300D01*
X129436761Y-100158158D01*
X129341523Y-100253396D01*
X129246285Y-100301015D01*
X129055809Y-100348634D01*
X128912952Y-100348634D01*
X128722476Y-100301015D01*
X128627238Y-100253396D01*
X128532000Y-100158158D01*
X128484380Y-100015300D01*
X128484380Y-99920062D01*
X128532000Y-99777205D01*
X128579619Y-99729586D01*
X128484380Y-98824824D02*
X128484380Y-99301015D01*
X128960571Y-99348634D01*
X128912952Y-99301015D01*
X128865333Y-99205777D01*
X128865333Y-98967681D01*
X128912952Y-98872443D01*
X128960571Y-98824824D01*
X129055809Y-98777205D01*
X129293904Y-98777205D01*
X129389142Y-98824824D01*
X129436761Y-98872443D01*
X129484380Y-98967681D01*
X129484380Y-99205777D01*
X129436761Y-99301015D01*
X129389142Y-99348634D01*
X132363462Y-99826106D02*
X132411081Y-99873725D01*
X132458700Y-100016582D01*
X132458700Y-100111820D01*
X132411081Y-100254678D01*
X132315843Y-100349916D01*
X132220605Y-100397535D01*
X132030129Y-100445154D01*
X131887272Y-100445154D01*
X131696796Y-100397535D01*
X131601558Y-100349916D01*
X131506320Y-100254678D01*
X131458700Y-100111820D01*
X131458700Y-100016582D01*
X131506320Y-99873725D01*
X131553939Y-99826106D01*
X131458700Y-98968963D02*
X131458700Y-99159440D01*
X131506320Y-99254678D01*
X131553939Y-99302297D01*
X131696796Y-99397535D01*
X131887272Y-99445154D01*
X132268224Y-99445154D01*
X132363462Y-99397535D01*
X132411081Y-99349916D01*
X132458700Y-99254678D01*
X132458700Y-99064201D01*
X132411081Y-98968963D01*
X132363462Y-98921344D01*
X132268224Y-98873725D01*
X132030129Y-98873725D01*
X131934891Y-98921344D01*
X131887272Y-98968963D01*
X131839653Y-99064201D01*
X131839653Y-99254678D01*
X131887272Y-99349916D01*
X131934891Y-99397535D01*
X132030129Y-99445154D01*
X107606102Y-95670666D02*
X107653721Y-95718285D01*
X107701340Y-95861142D01*
X107701340Y-95956380D01*
X107653721Y-96099238D01*
X107558483Y-96194476D01*
X107463245Y-96242095D01*
X107272769Y-96289714D01*
X107129912Y-96289714D01*
X106939436Y-96242095D01*
X106844198Y-96194476D01*
X106748960Y-96099238D01*
X106701340Y-95956380D01*
X106701340Y-95861142D01*
X106748960Y-95718285D01*
X106796579Y-95670666D01*
X106701340Y-95337333D02*
X106701340Y-94670666D01*
X107701340Y-95099238D01*
X107791542Y-111037666D02*
X107839161Y-111085285D01*
X107886780Y-111228142D01*
X107886780Y-111323380D01*
X107839161Y-111466238D01*
X107743923Y-111561476D01*
X107648685Y-111609095D01*
X107458209Y-111656714D01*
X107315352Y-111656714D01*
X107124876Y-111609095D01*
X107029638Y-111561476D01*
X106934400Y-111466238D01*
X106886780Y-111323380D01*
X106886780Y-111228142D01*
X106934400Y-111085285D01*
X106982019Y-111037666D01*
X107315352Y-110466238D02*
X107267733Y-110561476D01*
X107220114Y-110609095D01*
X107124876Y-110656714D01*
X107077257Y-110656714D01*
X106982019Y-110609095D01*
X106934400Y-110561476D01*
X106886780Y-110466238D01*
X106886780Y-110275761D01*
X106934400Y-110180523D01*
X106982019Y-110132904D01*
X107077257Y-110085285D01*
X107124876Y-110085285D01*
X107220114Y-110132904D01*
X107267733Y-110180523D01*
X107315352Y-110275761D01*
X107315352Y-110466238D01*
X107362971Y-110561476D01*
X107410590Y-110609095D01*
X107505828Y-110656714D01*
X107696304Y-110656714D01*
X107791542Y-110609095D01*
X107839161Y-110561476D01*
X107886780Y-110466238D01*
X107886780Y-110275761D01*
X107839161Y-110180523D01*
X107791542Y-110132904D01*
X107696304Y-110085285D01*
X107505828Y-110085285D01*
X107410590Y-110132904D01*
X107362971Y-110180523D01*
X107315352Y-110275761D01*
X118924342Y-99556866D02*
X118971961Y-99604485D01*
X119019580Y-99747342D01*
X119019580Y-99842580D01*
X118971961Y-99985438D01*
X118876723Y-100080676D01*
X118781485Y-100128295D01*
X118591009Y-100175914D01*
X118448152Y-100175914D01*
X118257676Y-100128295D01*
X118162438Y-100080676D01*
X118067200Y-99985438D01*
X118019580Y-99842580D01*
X118019580Y-99747342D01*
X118067200Y-99604485D01*
X118114819Y-99556866D01*
X119019580Y-99080676D02*
X119019580Y-98890200D01*
X118971961Y-98794961D01*
X118924342Y-98747342D01*
X118781485Y-98652104D01*
X118591009Y-98604485D01*
X118210057Y-98604485D01*
X118114819Y-98652104D01*
X118067200Y-98699723D01*
X118019580Y-98794961D01*
X118019580Y-98985438D01*
X118067200Y-99080676D01*
X118114819Y-99128295D01*
X118210057Y-99175914D01*
X118448152Y-99175914D01*
X118543390Y-99128295D01*
X118591009Y-99080676D01*
X118638628Y-98985438D01*
X118638628Y-98794961D01*
X118591009Y-98699723D01*
X118543390Y-98652104D01*
X118448152Y-98604485D01*
X127091202Y-111040182D02*
X127043583Y-111087801D01*
X126900726Y-111135420D01*
X126805488Y-111135420D01*
X126662631Y-111087801D01*
X126567393Y-110992563D01*
X126519774Y-110897325D01*
X126472155Y-110706849D01*
X126472155Y-110563992D01*
X126519774Y-110373516D01*
X126567393Y-110278278D01*
X126662631Y-110183040D01*
X126805488Y-110135420D01*
X126900726Y-110135420D01*
X127043583Y-110183040D01*
X127091202Y-110230659D01*
X128043583Y-111135420D02*
X127472155Y-111135420D01*
X127757869Y-111135420D02*
X127757869Y-110135420D01*
X127662631Y-110278278D01*
X127567393Y-110373516D01*
X127472155Y-110421135D01*
X128662631Y-110135420D02*
X128757869Y-110135420D01*
X128853107Y-110183040D01*
X128900726Y-110230659D01*
X128948345Y-110325897D01*
X128995964Y-110516373D01*
X128995964Y-110754468D01*
X128948345Y-110944944D01*
X128900726Y-111040182D01*
X128853107Y-111087801D01*
X128757869Y-111135420D01*
X128662631Y-111135420D01*
X128567393Y-111087801D01*
X128519774Y-111040182D01*
X128472155Y-110944944D01*
X128424536Y-110754468D01*
X128424536Y-110516373D01*
X128472155Y-110325897D01*
X128519774Y-110230659D01*
X128567393Y-110183040D01*
X128662631Y-110135420D01*
X128050429Y-133210078D02*
X128002810Y-133257697D01*
X127859953Y-133305316D01*
X127764715Y-133305316D01*
X127621858Y-133257697D01*
X127526620Y-133162459D01*
X127479001Y-133067221D01*
X127431382Y-132876745D01*
X127431382Y-132733888D01*
X127479001Y-132543412D01*
X127526620Y-132448174D01*
X127621858Y-132352936D01*
X127764715Y-132305316D01*
X127859953Y-132305316D01*
X128002810Y-132352936D01*
X128050429Y-132400555D01*
X129002810Y-133305316D02*
X128431382Y-133305316D01*
X128717096Y-133305316D02*
X128717096Y-132305316D01*
X128621858Y-132448174D01*
X128526620Y-132543412D01*
X128431382Y-132591031D01*
X129955191Y-133305316D02*
X129383763Y-133305316D01*
X129669477Y-133305316D02*
X129669477Y-132305316D01*
X129574239Y-132448174D01*
X129479001Y-132543412D01*
X129383763Y-132591031D01*
X131012069Y-133281198D02*
X130964450Y-133328817D01*
X130821593Y-133376436D01*
X130726355Y-133376436D01*
X130583498Y-133328817D01*
X130488260Y-133233579D01*
X130440641Y-133138341D01*
X130393022Y-132947865D01*
X130393022Y-132805008D01*
X130440641Y-132614532D01*
X130488260Y-132519294D01*
X130583498Y-132424056D01*
X130726355Y-132376436D01*
X130821593Y-132376436D01*
X130964450Y-132424056D01*
X131012069Y-132471675D01*
X131964450Y-133376436D02*
X131393022Y-133376436D01*
X131678736Y-133376436D02*
X131678736Y-132376436D01*
X131583498Y-132519294D01*
X131488260Y-132614532D01*
X131393022Y-132662151D01*
X132345403Y-132471675D02*
X132393022Y-132424056D01*
X132488260Y-132376436D01*
X132726355Y-132376436D01*
X132821593Y-132424056D01*
X132869212Y-132471675D01*
X132916831Y-132566913D01*
X132916831Y-132662151D01*
X132869212Y-132805008D01*
X132297784Y-133376436D01*
X132916831Y-133376436D01*
X129945269Y-125470718D02*
X129897650Y-125518337D01*
X129754793Y-125565956D01*
X129659555Y-125565956D01*
X129516698Y-125518337D01*
X129421460Y-125423099D01*
X129373841Y-125327861D01*
X129326222Y-125137385D01*
X129326222Y-124994528D01*
X129373841Y-124804052D01*
X129421460Y-124708814D01*
X129516698Y-124613576D01*
X129659555Y-124565956D01*
X129754793Y-124565956D01*
X129897650Y-124613576D01*
X129945269Y-124661195D01*
X130897650Y-125565956D02*
X130326222Y-125565956D01*
X130611936Y-125565956D02*
X130611936Y-124565956D01*
X130516698Y-124708814D01*
X130421460Y-124804052D01*
X130326222Y-124851671D01*
X131754793Y-124899290D02*
X131754793Y-125565956D01*
X131516698Y-124518337D02*
X131278603Y-125232623D01*
X131897650Y-125232623D01*
X131954542Y-91168457D02*
X132002161Y-91216076D01*
X132049780Y-91358933D01*
X132049780Y-91454171D01*
X132002161Y-91597028D01*
X131906923Y-91692266D01*
X131811685Y-91739885D01*
X131621209Y-91787504D01*
X131478352Y-91787504D01*
X131287876Y-91739885D01*
X131192638Y-91692266D01*
X131097400Y-91597028D01*
X131049780Y-91454171D01*
X131049780Y-91358933D01*
X131097400Y-91216076D01*
X131145019Y-91168457D01*
X132049780Y-90216076D02*
X132049780Y-90787504D01*
X132049780Y-90501790D02*
X131049780Y-90501790D01*
X131192638Y-90597028D01*
X131287876Y-90692266D01*
X131335495Y-90787504D01*
X131049780Y-89311314D02*
X131049780Y-89787504D01*
X131525971Y-89835123D01*
X131478352Y-89787504D01*
X131430733Y-89692266D01*
X131430733Y-89454171D01*
X131478352Y-89358933D01*
X131525971Y-89311314D01*
X131621209Y-89263695D01*
X131859304Y-89263695D01*
X131954542Y-89311314D01*
X132002161Y-89358933D01*
X132049780Y-89454171D01*
X132049780Y-89692266D01*
X132002161Y-89787504D01*
X131954542Y-89835123D01*
X120836393Y-121371620D02*
X120503060Y-120895430D01*
X120264964Y-121371620D02*
X120264964Y-120371620D01*
X120645917Y-120371620D01*
X120741155Y-120419240D01*
X120788774Y-120466859D01*
X120836393Y-120562097D01*
X120836393Y-120704954D01*
X120788774Y-120800192D01*
X120741155Y-120847811D01*
X120645917Y-120895430D01*
X120264964Y-120895430D01*
X121788774Y-121371620D02*
X121217345Y-121371620D01*
X121503060Y-121371620D02*
X121503060Y-120371620D01*
X121407821Y-120514478D01*
X121312583Y-120609716D01*
X121217345Y-120657335D01*
X130462993Y-121358920D02*
X130129660Y-120882730D01*
X129891564Y-121358920D02*
X129891564Y-120358920D01*
X130272517Y-120358920D01*
X130367755Y-120406540D01*
X130415374Y-120454159D01*
X130462993Y-120549397D01*
X130462993Y-120692254D01*
X130415374Y-120787492D01*
X130367755Y-120835111D01*
X130272517Y-120882730D01*
X129891564Y-120882730D01*
X130843945Y-120454159D02*
X130891564Y-120406540D01*
X130986802Y-120358920D01*
X131224898Y-120358920D01*
X131320136Y-120406540D01*
X131367755Y-120454159D01*
X131415374Y-120549397D01*
X131415374Y-120644635D01*
X131367755Y-120787492D01*
X130796326Y-121358920D01*
X131415374Y-121358920D01*
X126475193Y-121397020D02*
X126141860Y-120920830D01*
X125903764Y-121397020D02*
X125903764Y-120397020D01*
X126284717Y-120397020D01*
X126379955Y-120444640D01*
X126427574Y-120492259D01*
X126475193Y-120587497D01*
X126475193Y-120730354D01*
X126427574Y-120825592D01*
X126379955Y-120873211D01*
X126284717Y-120920830D01*
X125903764Y-120920830D01*
X126808526Y-120397020D02*
X127427574Y-120397020D01*
X127094240Y-120777973D01*
X127237098Y-120777973D01*
X127332336Y-120825592D01*
X127379955Y-120873211D01*
X127427574Y-120968449D01*
X127427574Y-121206544D01*
X127379955Y-121301782D01*
X127332336Y-121349401D01*
X127237098Y-121397020D01*
X126951383Y-121397020D01*
X126856145Y-121349401D01*
X126808526Y-121301782D01*
X138146493Y-121346220D02*
X137813160Y-120870030D01*
X137575064Y-121346220D02*
X137575064Y-120346220D01*
X137956017Y-120346220D01*
X138051255Y-120393840D01*
X138098874Y-120441459D01*
X138146493Y-120536697D01*
X138146493Y-120679554D01*
X138098874Y-120774792D01*
X138051255Y-120822411D01*
X137956017Y-120870030D01*
X137575064Y-120870030D01*
X139003636Y-120679554D02*
X139003636Y-121346220D01*
X138765540Y-120298601D02*
X138527445Y-121012887D01*
X139146493Y-121012887D01*
X122807433Y-111043980D02*
X122474100Y-110567790D01*
X122236004Y-111043980D02*
X122236004Y-110043980D01*
X122616957Y-110043980D01*
X122712195Y-110091600D01*
X122759814Y-110139219D01*
X122807433Y-110234457D01*
X122807433Y-110377314D01*
X122759814Y-110472552D01*
X122712195Y-110520171D01*
X122616957Y-110567790D01*
X122236004Y-110567790D01*
X123712195Y-110043980D02*
X123236004Y-110043980D01*
X123188385Y-110520171D01*
X123236004Y-110472552D01*
X123331242Y-110424933D01*
X123569338Y-110424933D01*
X123664576Y-110472552D01*
X123712195Y-110520171D01*
X123759814Y-110615409D01*
X123759814Y-110853504D01*
X123712195Y-110948742D01*
X123664576Y-110996361D01*
X123569338Y-111043980D01*
X123331242Y-111043980D01*
X123236004Y-110996361D01*
X123188385Y-110948742D01*
X110491907Y-125186242D02*
X110015717Y-125519576D01*
X110491907Y-125757671D02*
X109491907Y-125757671D01*
X109491907Y-125376718D01*
X109539527Y-125281480D01*
X109587146Y-125233861D01*
X109682384Y-125186242D01*
X109825241Y-125186242D01*
X109920479Y-125233861D01*
X109968098Y-125281480D01*
X110015717Y-125376718D01*
X110015717Y-125757671D01*
X109491907Y-124329099D02*
X109491907Y-124519576D01*
X109539527Y-124614814D01*
X109587146Y-124662433D01*
X109730003Y-124757671D01*
X109920479Y-124805290D01*
X110301431Y-124805290D01*
X110396669Y-124757671D01*
X110444288Y-124710052D01*
X110491907Y-124614814D01*
X110491907Y-124424337D01*
X110444288Y-124329099D01*
X110396669Y-124281480D01*
X110301431Y-124233861D01*
X110063336Y-124233861D01*
X109968098Y-124281480D01*
X109920479Y-124329099D01*
X109872860Y-124424337D01*
X109872860Y-124614814D01*
X109920479Y-124710052D01*
X109968098Y-124757671D01*
X110063336Y-124805290D01*
X127951867Y-125343722D02*
X127475677Y-125677056D01*
X127951867Y-125915151D02*
X126951867Y-125915151D01*
X126951867Y-125534198D01*
X126999487Y-125438960D01*
X127047106Y-125391341D01*
X127142344Y-125343722D01*
X127285201Y-125343722D01*
X127380439Y-125391341D01*
X127428058Y-125438960D01*
X127475677Y-125534198D01*
X127475677Y-125915151D01*
X126951867Y-125010389D02*
X126951867Y-124343722D01*
X127951867Y-124772294D01*
X123982907Y-114031020D02*
X123982907Y-113031020D01*
X124221002Y-113031020D01*
X124363860Y-113078640D01*
X124459098Y-113173878D01*
X124506717Y-113269116D01*
X124554336Y-113459592D01*
X124554336Y-113602449D01*
X124506717Y-113792925D01*
X124459098Y-113888163D01*
X124363860Y-113983401D01*
X124221002Y-114031020D01*
X123982907Y-114031020D01*
X124982907Y-113650068D02*
X125744812Y-113650068D01*
X123982907Y-116571020D02*
X123982907Y-115571020D01*
X124221002Y-115571020D01*
X124363860Y-115618640D01*
X124459098Y-115713878D01*
X124506717Y-115809116D01*
X124554336Y-115999592D01*
X124554336Y-116142449D01*
X124506717Y-116332925D01*
X124459098Y-116428163D01*
X124363860Y-116523401D01*
X124221002Y-116571020D01*
X123982907Y-116571020D01*
X124982907Y-116190068D02*
X125744812Y-116190068D01*
X125363860Y-116571020D02*
X125363860Y-115809116D01*
X121490526Y-116047211D02*
X121823860Y-116047211D01*
X121966717Y-116571020D02*
X121490526Y-116571020D01*
X121490526Y-115571020D01*
X121966717Y-115571020D01*
X122395288Y-116190068D02*
X123157193Y-116190068D01*
X121490526Y-113507211D02*
X121823860Y-113507211D01*
X121966717Y-114031020D02*
X121490526Y-114031020D01*
X121490526Y-113031020D01*
X121966717Y-113031020D01*
X122395288Y-113650068D02*
X123157193Y-113650068D01*
X122776240Y-114031020D02*
X122776240Y-113269116D01*
X135171607Y-114043720D02*
X135171607Y-113043720D01*
X135409702Y-113043720D01*
X135552560Y-113091340D01*
X135647798Y-113186578D01*
X135695417Y-113281816D01*
X135743036Y-113472292D01*
X135743036Y-113615149D01*
X135695417Y-113805625D01*
X135647798Y-113900863D01*
X135552560Y-113996101D01*
X135409702Y-114043720D01*
X135171607Y-114043720D01*
X136171607Y-113662768D02*
X136933512Y-113662768D01*
X135171607Y-116583720D02*
X135171607Y-115583720D01*
X135409702Y-115583720D01*
X135552560Y-115631340D01*
X135647798Y-115726578D01*
X135695417Y-115821816D01*
X135743036Y-116012292D01*
X135743036Y-116155149D01*
X135695417Y-116345625D01*
X135647798Y-116440863D01*
X135552560Y-116536101D01*
X135409702Y-116583720D01*
X135171607Y-116583720D01*
X136171607Y-116202768D02*
X136933512Y-116202768D01*
X136552560Y-116583720D02*
X136552560Y-115821816D01*
X132679226Y-116059911D02*
X133012560Y-116059911D01*
X133155417Y-116583720D02*
X132679226Y-116583720D01*
X132679226Y-115583720D01*
X133155417Y-115583720D01*
X133583988Y-116202768D02*
X134345893Y-116202768D01*
X132679226Y-113519911D02*
X133012560Y-113519911D01*
X133155417Y-114043720D02*
X132679226Y-114043720D01*
X132679226Y-113043720D01*
X133155417Y-113043720D01*
X133583988Y-113662768D02*
X134345893Y-113662768D01*
X133964940Y-114043720D02*
X133964940Y-113281816D01*
D16*
X129044827Y-129662610D02*
X129854351Y-129662610D01*
X129949589Y-129619753D01*
X129997208Y-129576896D01*
X130044827Y-129491181D01*
X130044827Y-129319753D01*
X129997208Y-129234038D01*
X129949589Y-129191181D01*
X129854351Y-129148324D01*
X129044827Y-129148324D01*
X129044827Y-128334038D02*
X129044827Y-128505467D01*
X129092447Y-128591181D01*
X129140066Y-128634038D01*
X129282923Y-128719753D01*
X129473399Y-128762610D01*
X129854351Y-128762610D01*
X129949589Y-128719753D01*
X129997208Y-128676896D01*
X130044827Y-128591181D01*
X130044827Y-128419753D01*
X129997208Y-128334038D01*
X129949589Y-128291181D01*
X129854351Y-128248324D01*
X129616256Y-128248324D01*
X129521018Y-128291181D01*
X129473399Y-128334038D01*
X129425780Y-128419753D01*
X129425780Y-128591181D01*
X129473399Y-128676896D01*
X129521018Y-128719753D01*
X129616256Y-128762610D01*
D14*
X110323950Y-103402070D02*
X110800140Y-103402070D01*
X109800140Y-103735403D02*
X110323950Y-103402070D01*
X109800140Y-103068737D01*
X110800140Y-102211594D02*
X110800140Y-102783022D01*
X110800140Y-102497308D02*
X109800140Y-102497308D01*
X109942998Y-102592546D01*
X110038236Y-102687784D01*
X110085855Y-102783022D01*
X112017209Y-144882613D02*
X112064828Y-144930232D01*
X112112447Y-145073089D01*
X112112447Y-145168327D01*
X112064828Y-145311184D01*
X111969590Y-145406422D01*
X111874352Y-145454041D01*
X111683876Y-145501660D01*
X111541019Y-145501660D01*
X111350543Y-145454041D01*
X111255305Y-145406422D01*
X111160067Y-145311184D01*
X111112447Y-145168327D01*
X111112447Y-145073089D01*
X111160067Y-144930232D01*
X111207686Y-144882613D01*
X112112447Y-143930232D02*
X112112447Y-144501660D01*
X112112447Y-144215946D02*
X111112447Y-144215946D01*
X111255305Y-144311184D01*
X111350543Y-144406422D01*
X111398162Y-144501660D01*
X111112447Y-143596898D02*
X111112447Y-142977851D01*
X111493400Y-143311184D01*
X111493400Y-143168327D01*
X111541019Y-143073089D01*
X111588638Y-143025470D01*
X111683876Y-142977851D01*
X111921971Y-142977851D01*
X112017209Y-143025470D01*
X112064828Y-143073089D01*
X112112447Y-143168327D01*
X112112447Y-143454041D01*
X112064828Y-143549279D01*
X112017209Y-143596898D01*
X122521742Y-134570742D02*
X122474123Y-134618361D01*
X122331266Y-134665980D01*
X122236028Y-134665980D01*
X122093171Y-134618361D01*
X121997933Y-134523123D01*
X121950314Y-134427885D01*
X121902695Y-134237409D01*
X121902695Y-134094552D01*
X121950314Y-133904076D01*
X121997933Y-133808838D01*
X122093171Y-133713600D01*
X122236028Y-133665980D01*
X122331266Y-133665980D01*
X122474123Y-133713600D01*
X122521742Y-133761219D01*
X123474123Y-134665980D02*
X122902695Y-134665980D01*
X123188409Y-134665980D02*
X123188409Y-133665980D01*
X123093171Y-133808838D01*
X122997933Y-133904076D01*
X122902695Y-133951695D01*
X124331266Y-133665980D02*
X124140790Y-133665980D01*
X124045552Y-133713600D01*
X123997933Y-133761219D01*
X123902695Y-133904076D01*
X123855076Y-134094552D01*
X123855076Y-134475504D01*
X123902695Y-134570742D01*
X123950314Y-134618361D01*
X124045552Y-134665980D01*
X124236028Y-134665980D01*
X124331266Y-134618361D01*
X124378885Y-134570742D01*
X124426504Y-134475504D01*
X124426504Y-134237409D01*
X124378885Y-134142171D01*
X124331266Y-134094552D01*
X124236028Y-134046933D01*
X124045552Y-134046933D01*
X123950314Y-134094552D01*
X123902695Y-134142171D01*
X123855076Y-134237409D01*
X113395911Y-124557556D02*
X113395911Y-123557556D01*
X113634007Y-123557556D01*
X113776864Y-123605176D01*
X113872102Y-123700414D01*
X113919721Y-123795652D01*
X113967340Y-123986128D01*
X113967340Y-124128985D01*
X113919721Y-124319461D01*
X113872102Y-124414699D01*
X113776864Y-124509937D01*
X113634007Y-124557556D01*
X113395911Y-124557556D01*
X114919721Y-124557556D02*
X114348292Y-124557556D01*
X114634007Y-124557556D02*
X114634007Y-123557556D01*
X114538768Y-123700414D01*
X114443530Y-123795652D01*
X114348292Y-123843271D01*
D17*
X116191890Y-138448797D02*
X114921890Y-138448797D01*
X116070938Y-137118321D02*
X116131414Y-137178797D01*
X116191890Y-137360226D01*
X116191890Y-137481178D01*
X116131414Y-137662607D01*
X116010462Y-137783559D01*
X115889509Y-137844036D01*
X115647605Y-137904512D01*
X115466176Y-137904512D01*
X115224271Y-137844036D01*
X115103319Y-137783559D01*
X114982367Y-137662607D01*
X114921890Y-137481178D01*
X114921890Y-137360226D01*
X114982367Y-137178797D01*
X115042843Y-137118321D01*
X115042843Y-136634512D02*
X114982367Y-136574036D01*
X114921890Y-136453083D01*
X114921890Y-136150702D01*
X114982367Y-136029750D01*
X115042843Y-135969274D01*
X115163795Y-135908797D01*
X115284747Y-135908797D01*
X115466176Y-135969274D01*
X116191890Y-136694988D01*
X116191890Y-135908797D01*
D14*
X119750009Y-140406380D02*
X119750009Y-139406380D01*
X120797628Y-140311142D02*
X120750009Y-140358761D01*
X120607152Y-140406380D01*
X120511914Y-140406380D01*
X120369057Y-140358761D01*
X120273819Y-140263523D01*
X120226200Y-140168285D01*
X120178580Y-139977809D01*
X120178580Y-139834952D01*
X120226200Y-139644476D01*
X120273819Y-139549238D01*
X120369057Y-139454000D01*
X120511914Y-139406380D01*
X120607152Y-139406380D01*
X120750009Y-139454000D01*
X120797628Y-139501619D01*
X121130961Y-139406380D02*
X121750009Y-139406380D01*
X121416676Y-139787333D01*
X121559533Y-139787333D01*
X121654771Y-139834952D01*
X121702390Y-139882571D01*
X121750009Y-139977809D01*
X121750009Y-140215904D01*
X121702390Y-140311142D01*
X121654771Y-140358761D01*
X121559533Y-140406380D01*
X121273819Y-140406380D01*
X121178580Y-140358761D01*
X121130961Y-140311142D01*
X134047906Y-107088820D02*
X134047906Y-107803106D01*
X134000287Y-107945963D01*
X133905049Y-108041201D01*
X133762192Y-108088820D01*
X133666954Y-108088820D01*
X135047906Y-108088820D02*
X134476478Y-108088820D01*
X134762192Y-108088820D02*
X134762192Y-107088820D01*
X134666954Y-107231678D01*
X134571716Y-107326916D01*
X134476478Y-107374535D01*
X112964586Y-127908814D02*
X112916967Y-128004052D01*
X112821728Y-128099290D01*
X112678871Y-128242147D01*
X112631252Y-128337385D01*
X112631252Y-128432623D01*
X112869347Y-128385004D02*
X112821728Y-128480242D01*
X112726490Y-128575480D01*
X112536014Y-128623099D01*
X112202681Y-128623099D01*
X112012205Y-128575480D01*
X111916967Y-128480242D01*
X111869347Y-128385004D01*
X111869347Y-128194528D01*
X111916967Y-128099290D01*
X112012205Y-128004052D01*
X112202681Y-127956433D01*
X112536014Y-127956433D01*
X112726490Y-128004052D01*
X112821728Y-128099290D01*
X112869347Y-128194528D01*
X112869347Y-128385004D01*
X111964586Y-127575480D02*
X111916967Y-127527861D01*
X111869347Y-127432623D01*
X111869347Y-127194528D01*
X111916967Y-127099290D01*
X111964586Y-127051671D01*
X112059824Y-127004052D01*
X112155062Y-127004052D01*
X112297919Y-127051671D01*
X112869347Y-127623099D01*
X112869347Y-127004052D01*
X115387380Y-145784866D02*
X114911190Y-146118200D01*
X115387380Y-146356295D02*
X114387380Y-146356295D01*
X114387380Y-145975342D01*
X114435000Y-145880104D01*
X114482619Y-145832485D01*
X114577857Y-145784866D01*
X114720714Y-145784866D01*
X114815952Y-145832485D01*
X114863571Y-145880104D01*
X114911190Y-145975342D01*
X114911190Y-146356295D01*
X114815952Y-145213438D02*
X114768333Y-145308676D01*
X114720714Y-145356295D01*
X114625476Y-145403914D01*
X114577857Y-145403914D01*
X114482619Y-145356295D01*
X114435000Y-145308676D01*
X114387380Y-145213438D01*
X114387380Y-145022961D01*
X114435000Y-144927723D01*
X114482619Y-144880104D01*
X114577857Y-144832485D01*
X114625476Y-144832485D01*
X114720714Y-144880104D01*
X114768333Y-144927723D01*
X114815952Y-145022961D01*
X114815952Y-145213438D01*
X114863571Y-145308676D01*
X114911190Y-145356295D01*
X115006428Y-145403914D01*
X115196904Y-145403914D01*
X115292142Y-145356295D01*
X115339761Y-145308676D01*
X115387380Y-145213438D01*
X115387380Y-145022961D01*
X115339761Y-144927723D01*
X115292142Y-144880104D01*
X115196904Y-144832485D01*
X115006428Y-144832485D01*
X114911190Y-144880104D01*
X114863571Y-144927723D01*
X114815952Y-145022961D01*
X125004533Y-141828780D02*
X124671200Y-141352590D01*
X124433104Y-141828780D02*
X124433104Y-140828780D01*
X124814057Y-140828780D01*
X124909295Y-140876400D01*
X124956914Y-140924019D01*
X125004533Y-141019257D01*
X125004533Y-141162114D01*
X124956914Y-141257352D01*
X124909295Y-141304971D01*
X124814057Y-141352590D01*
X124433104Y-141352590D01*
X125480723Y-141828780D02*
X125671200Y-141828780D01*
X125766438Y-141781161D01*
X125814057Y-141733542D01*
X125909295Y-141590685D01*
X125956914Y-141400209D01*
X125956914Y-141019257D01*
X125909295Y-140924019D01*
X125861676Y-140876400D01*
X125766438Y-140828780D01*
X125575961Y-140828780D01*
X125480723Y-140876400D01*
X125433104Y-140924019D01*
X125385485Y-141019257D01*
X125385485Y-141257352D01*
X125433104Y-141352590D01*
X125480723Y-141400209D01*
X125575961Y-141447828D01*
X125766438Y-141447828D01*
X125861676Y-141400209D01*
X125909295Y-141352590D01*
X125956914Y-141257352D01*
X115477429Y-127592876D02*
X115144096Y-127116686D01*
X114906001Y-127592876D02*
X114906001Y-126592876D01*
X115286953Y-126592876D01*
X115382191Y-126640496D01*
X115429810Y-126688115D01*
X115477429Y-126783353D01*
X115477429Y-126926210D01*
X115429810Y-127021448D01*
X115382191Y-127069067D01*
X115286953Y-127116686D01*
X114906001Y-127116686D01*
X116429810Y-127592876D02*
X115858382Y-127592876D01*
X116144096Y-127592876D02*
X116144096Y-126592876D01*
X116048858Y-126735734D01*
X115953620Y-126830972D01*
X115858382Y-126878591D01*
X117382191Y-127592876D02*
X116810763Y-127592876D01*
X117096477Y-127592876D02*
X117096477Y-126592876D01*
X117001239Y-126735734D01*
X116906001Y-126830972D01*
X116810763Y-126878591D01*
X110111820Y-118122937D02*
X109635630Y-118456270D01*
X110111820Y-118694365D02*
X109111820Y-118694365D01*
X109111820Y-118313413D01*
X109159440Y-118218175D01*
X109207059Y-118170556D01*
X109302297Y-118122937D01*
X109445154Y-118122937D01*
X109540392Y-118170556D01*
X109588011Y-118218175D01*
X109635630Y-118313413D01*
X109635630Y-118694365D01*
X110111820Y-117170556D02*
X110111820Y-117741984D01*
X110111820Y-117456270D02*
X109111820Y-117456270D01*
X109254678Y-117551508D01*
X109349916Y-117646746D01*
X109397535Y-117741984D01*
X109111820Y-116837222D02*
X109111820Y-116218175D01*
X109492773Y-116551508D01*
X109492773Y-116408651D01*
X109540392Y-116313413D01*
X109588011Y-116265794D01*
X109683249Y-116218175D01*
X109921344Y-116218175D01*
X110016582Y-116265794D01*
X110064201Y-116313413D01*
X110111820Y-116408651D01*
X110111820Y-116694365D01*
X110064201Y-116789603D01*
X110016582Y-116837222D01*
X110111820Y-114805697D02*
X109635630Y-115139030D01*
X110111820Y-115377125D02*
X109111820Y-115377125D01*
X109111820Y-114996173D01*
X109159440Y-114900935D01*
X109207059Y-114853316D01*
X109302297Y-114805697D01*
X109445154Y-114805697D01*
X109540392Y-114853316D01*
X109588011Y-114900935D01*
X109635630Y-114996173D01*
X109635630Y-115377125D01*
X110111820Y-113853316D02*
X110111820Y-114424744D01*
X110111820Y-114139030D02*
X109111820Y-114139030D01*
X109254678Y-114234268D01*
X109349916Y-114329506D01*
X109397535Y-114424744D01*
X109445154Y-112996173D02*
X110111820Y-112996173D01*
X109064201Y-113234268D02*
X109778487Y-113472363D01*
X109778487Y-112853316D01*
X110434215Y-84505420D02*
X110434215Y-85314944D01*
X110481834Y-85410182D01*
X110529453Y-85457801D01*
X110624691Y-85505420D01*
X110815167Y-85505420D01*
X110910405Y-85457801D01*
X110958024Y-85410182D01*
X111005643Y-85314944D01*
X111005643Y-84505420D01*
X111958024Y-84505420D02*
X111481834Y-84505420D01*
X111434215Y-84981611D01*
X111481834Y-84933992D01*
X111577072Y-84886373D01*
X111815167Y-84886373D01*
X111910405Y-84933992D01*
X111958024Y-84981611D01*
X112005643Y-85076849D01*
X112005643Y-85314944D01*
X111958024Y-85410182D01*
X111910405Y-85457801D01*
X111815167Y-85505420D01*
X111577072Y-85505420D01*
X111481834Y-85457801D01*
X111434215Y-85410182D01*
X114306361Y-114481219D02*
X114211123Y-114433600D01*
X114115885Y-114338361D01*
X113973028Y-114195504D01*
X113877790Y-114147885D01*
X113782552Y-114147885D01*
X113830171Y-114385980D02*
X113734933Y-114338361D01*
X113639695Y-114243123D01*
X113592076Y-114052647D01*
X113592076Y-113719314D01*
X113639695Y-113528838D01*
X113734933Y-113433600D01*
X113830171Y-113385980D01*
X114020647Y-113385980D01*
X114115885Y-113433600D01*
X114211123Y-113528838D01*
X114258742Y-113719314D01*
X114258742Y-114052647D01*
X114211123Y-114243123D01*
X114115885Y-114338361D01*
X114020647Y-114385980D01*
X113830171Y-114385980D01*
X114592076Y-113385980D02*
X115211123Y-113385980D01*
X114877790Y-113766933D01*
X115020647Y-113766933D01*
X115115885Y-113814552D01*
X115163504Y-113862171D01*
X115211123Y-113957409D01*
X115211123Y-114195504D01*
X115163504Y-114290742D01*
X115115885Y-114338361D01*
X115020647Y-114385980D01*
X114734933Y-114385980D01*
X114639695Y-114338361D01*
X114592076Y-114290742D01*
X117349542Y-145041857D02*
X117397161Y-145089476D01*
X117444780Y-145232333D01*
X117444780Y-145327571D01*
X117397161Y-145470428D01*
X117301923Y-145565666D01*
X117206685Y-145613285D01*
X117016209Y-145660904D01*
X116873352Y-145660904D01*
X116682876Y-145613285D01*
X116587638Y-145565666D01*
X116492400Y-145470428D01*
X116444780Y-145327571D01*
X116444780Y-145232333D01*
X116492400Y-145089476D01*
X116540019Y-145041857D01*
X117444780Y-144089476D02*
X117444780Y-144660904D01*
X117444780Y-144375190D02*
X116444780Y-144375190D01*
X116587638Y-144470428D01*
X116682876Y-144565666D01*
X116730495Y-144660904D01*
X116444780Y-143756142D02*
X116444780Y-143089476D01*
X117444780Y-143518047D01*
X140177980Y-148026133D02*
X140892266Y-148026133D01*
X141035123Y-148073752D01*
X141130361Y-148168990D01*
X141177980Y-148311847D01*
X141177980Y-148407085D01*
X140511314Y-147121371D02*
X141177980Y-147121371D01*
X140130361Y-147359466D02*
X140844647Y-147597561D01*
X140844647Y-146978514D01*
X125958695Y-146061180D02*
X125958695Y-146870704D01*
X126006314Y-146965942D01*
X126053933Y-147013561D01*
X126149171Y-147061180D01*
X126339647Y-147061180D01*
X126434885Y-147013561D01*
X126482504Y-146965942D01*
X126530123Y-146870704D01*
X126530123Y-146061180D01*
X127434885Y-146394514D02*
X127434885Y-147061180D01*
X127196790Y-146013561D02*
X126958695Y-146727847D01*
X127577742Y-146727847D01*
X127496819Y-137102838D02*
X127449200Y-137198076D01*
X127353961Y-137293314D01*
X127211104Y-137436171D01*
X127163485Y-137531409D01*
X127163485Y-137626647D01*
X127401580Y-137579028D02*
X127353961Y-137674266D01*
X127258723Y-137769504D01*
X127068247Y-137817123D01*
X126734914Y-137817123D01*
X126544438Y-137769504D01*
X126449200Y-137674266D01*
X126401580Y-137579028D01*
X126401580Y-137388552D01*
X126449200Y-137293314D01*
X126544438Y-137198076D01*
X126734914Y-137150457D01*
X127068247Y-137150457D01*
X127258723Y-137198076D01*
X127353961Y-137293314D01*
X127401580Y-137388552D01*
X127401580Y-137579028D01*
X127401580Y-136198076D02*
X127401580Y-136769504D01*
X127401580Y-136483790D02*
X126401580Y-136483790D01*
X126544438Y-136579028D01*
X126639676Y-136674266D01*
X126687295Y-136769504D01*
X139212580Y-94292657D02*
X138736390Y-94625990D01*
X139212580Y-94864085D02*
X138212580Y-94864085D01*
X138212580Y-94483133D01*
X138260200Y-94387895D01*
X138307819Y-94340276D01*
X138403057Y-94292657D01*
X138545914Y-94292657D01*
X138641152Y-94340276D01*
X138688771Y-94387895D01*
X138736390Y-94483133D01*
X138736390Y-94864085D01*
X139212580Y-93340276D02*
X139212580Y-93911704D01*
X139212580Y-93625990D02*
X138212580Y-93625990D01*
X138355438Y-93721228D01*
X138450676Y-93816466D01*
X138498295Y-93911704D01*
X138212580Y-92721228D02*
X138212580Y-92625990D01*
X138260200Y-92530752D01*
X138307819Y-92483133D01*
X138403057Y-92435514D01*
X138593533Y-92387895D01*
X138831628Y-92387895D01*
X139022104Y-92435514D01*
X139117342Y-92483133D01*
X139164961Y-92530752D01*
X139212580Y-92625990D01*
X139212580Y-92721228D01*
X139164961Y-92816466D01*
X139117342Y-92864085D01*
X139022104Y-92911704D01*
X138831628Y-92959323D01*
X138593533Y-92959323D01*
X138403057Y-92911704D01*
X138307819Y-92864085D01*
X138260200Y-92816466D01*
X138212580Y-92721228D01*
X137612380Y-94216457D02*
X137136190Y-94549790D01*
X137612380Y-94787885D02*
X136612380Y-94787885D01*
X136612380Y-94406933D01*
X136660000Y-94311695D01*
X136707619Y-94264076D01*
X136802857Y-94216457D01*
X136945714Y-94216457D01*
X137040952Y-94264076D01*
X137088571Y-94311695D01*
X137136190Y-94406933D01*
X137136190Y-94787885D01*
X137612380Y-93264076D02*
X137612380Y-93835504D01*
X137612380Y-93549790D02*
X136612380Y-93549790D01*
X136755238Y-93645028D01*
X136850476Y-93740266D01*
X136898095Y-93835504D01*
X136707619Y-92883123D02*
X136660000Y-92835504D01*
X136612380Y-92740266D01*
X136612380Y-92502171D01*
X136660000Y-92406933D01*
X136707619Y-92359314D01*
X136802857Y-92311695D01*
X136898095Y-92311695D01*
X137040952Y-92359314D01*
X137612380Y-92930742D01*
X137612380Y-92311695D01*
X105935542Y-123329980D02*
X105602209Y-122853790D01*
X105364114Y-123329980D02*
X105364114Y-122329980D01*
X105745066Y-122329980D01*
X105840304Y-122377600D01*
X105887923Y-122425219D01*
X105935542Y-122520457D01*
X105935542Y-122663314D01*
X105887923Y-122758552D01*
X105840304Y-122806171D01*
X105745066Y-122853790D01*
X105364114Y-122853790D01*
X106887923Y-123329980D02*
X106316495Y-123329980D01*
X106602209Y-123329980D02*
X106602209Y-122329980D01*
X106506971Y-122472838D01*
X106411733Y-122568076D01*
X106316495Y-122615695D01*
X107792685Y-122329980D02*
X107316495Y-122329980D01*
X107268876Y-122806171D01*
X107316495Y-122758552D01*
X107411733Y-122710933D01*
X107649828Y-122710933D01*
X107745066Y-122758552D01*
X107792685Y-122806171D01*
X107840304Y-122901409D01*
X107840304Y-123139504D01*
X107792685Y-123234742D01*
X107745066Y-123282361D01*
X107649828Y-123329980D01*
X107411733Y-123329980D01*
X107316495Y-123282361D01*
X107268876Y-123234742D01*
X105935542Y-120485180D02*
X105602209Y-120008990D01*
X105364114Y-120485180D02*
X105364114Y-119485180D01*
X105745066Y-119485180D01*
X105840304Y-119532800D01*
X105887923Y-119580419D01*
X105935542Y-119675657D01*
X105935542Y-119818514D01*
X105887923Y-119913752D01*
X105840304Y-119961371D01*
X105745066Y-120008990D01*
X105364114Y-120008990D01*
X106887923Y-120485180D02*
X106316495Y-120485180D01*
X106602209Y-120485180D02*
X106602209Y-119485180D01*
X106506971Y-119628038D01*
X106411733Y-119723276D01*
X106316495Y-119770895D01*
X107745066Y-119485180D02*
X107554590Y-119485180D01*
X107459352Y-119532800D01*
X107411733Y-119580419D01*
X107316495Y-119723276D01*
X107268876Y-119913752D01*
X107268876Y-120294704D01*
X107316495Y-120389942D01*
X107364114Y-120437561D01*
X107459352Y-120485180D01*
X107649828Y-120485180D01*
X107745066Y-120437561D01*
X107792685Y-120389942D01*
X107840304Y-120294704D01*
X107840304Y-120056609D01*
X107792685Y-119961371D01*
X107745066Y-119913752D01*
X107649828Y-119866133D01*
X107459352Y-119866133D01*
X107364114Y-119913752D01*
X107316495Y-119961371D01*
X107268876Y-120056609D01*
M02*
